<?xml version="1.0" encoding="UTF-8" standalone="no"?>
<svg
   width="964"
   zoomAndPan="magnify"
   viewBox="0 0 723 448.5"
   height="598"
   preserveAspectRatio="xMidYMid"
   version="1.0"
   id="svg10"
   sodipodi:docname="MACHS_GRUEN_Logo.svg"
   inkscape:version="1.4.3 (1:1.4.3+202512261035+0d15f75042)"
   xmlns:inkscape="http://www.inkscape.org/namespaces/inkscape"
   xmlns:sodipodi="http://sodipodi.sourceforge.net/DTD/sodipodi-0.dtd"
   xmlns="http://www.w3.org/2000/svg"
   xmlns:svg="http://www.w3.org/2000/svg">
  <sodipodi:namedview
     id="namedview10"
     pagecolor="#ffffff"
     bordercolor="#666666"
     borderopacity="1.0"
     inkscape:showpageshadow="2"
     inkscape:pageopacity="0.0"
     inkscape:pagecheckerboard="0"
     inkscape:deskcolor="#d1d1d1"
     inkscape:zoom="0.76148148"
     inkscape:cx="540.39397"
     inkscape:cy="675"
     inkscape:window-width="3370"
     inkscape:window-height="1371"
     inkscape:window-x="70"
     inkscape:window-y="32"
     inkscape:window-maximized="1"
     inkscape:current-layer="svg10" />
  <defs
     id="defs2">
    <clipPath
       id="a98a4437de">
      <path
         d="M 0.199219,0 H 809.80078 V 1012 H 0.199219 Z m 0,0"
         clip-rule="nonzero"
         id="path1" />
    </clipPath>
    <clipPath
       id="972a5675ab">
      <path
         d="M 50.425781,277.26562 H 773.81641 V 725.54297 H 50.425781 Z m 0,0"
         clip-rule="nonzero"
         id="path2" />
    </clipPath>
  </defs>
  <g
     id="g10"
     transform="translate(-50.886719,-277.26589)">
    <g
       clip-path="url(#972a5675ab)"
       id="g5">
      <path
         fill="#8abd24"
         d="m 768.58203,454.16406 c 3.03125,-3.63672 5.51172,-8.49219 4.57422,-14.74609 -1.23047,-8.34375 -7.75,-12.21485 -9.89063,-13.48828 -0.0625,-0.0352 -0.125,-0.0742 -0.1875,-0.10938 -0.14843,-0.1289 -0.30468,-0.26562 -0.47656,-0.41015 -4.47265,-3.85157 -14.86328,-12.8086 -31.94922,-18.63282 4.92969,-7.16015 9.01172,-15.60547 12.08985,-25.15625 0.16015,-0.49609 0.3789,-1.13672 0.625,-1.84375 0.55468,-1.61718 1.24218,-3.6289 1.76953,-5.43359 3.11328,-10.67969 -0.92578,-16.87109 -4.85938,-20.1875 -2.17578,-1.84766 -6.00781,-4.10156 -11.64062,-4.10156 -5.80469,0 -13.59766,2.43359 -20.39063,6.35937 -0.33593,0.15235 -0.84375,0.33985 -1.51562,0.55469 2.15625,-5.78906 3.69531,-11.78125 4.63281,-18.01172 2.50391,-16.67969 0.69141,-22.61328 -3.28516,-27.23047 -3.20703,-3.72265 -7.85546,-5.85937 -12.7539,-5.85937 h -0.008 c -0.16797,0 -0.33204,0 -0.5,0.008 h -0.0234 c -0.16406,0.004 -0.32813,0.0117 -0.49219,0.0234 l -0.11328,0.004 c -1.375,0.082 -2.93359,0.23438 -5.05078,0.82422 -1.83985,0.51563 -3.44922,1.1875 -5.05469,2.02344 -0.82812,-3.21875 -2.58984,-6.44141 -6.16797,-9.12109 -0.0312,-0.0234 -0.0625,-0.0469 -0.0937,-0.0703 -3.07812,-2.26953 -6.78906,-3.42187 -11.03906,-3.42187 -4.15234,0 -12.61719,1.08203 -24.32031,7.95312 -0.17969,-0.55468 -0.375,-1.09765 -0.58203,-1.625 -0.48438,-2.35937 -1.33204,-6.27343 -2.14844,-9.03515 -2.07422,-6.98828 -8.01563,-15.13672 -17.94922,-15.14063 h -0.008 c -2.17578,0 -4.33203,0.42969 -6.33594,1.24219 -4.09375,1.55859 -7.83594,4.19531 -11.42969,8.03906 -0.67187,0.48828 -2.13281,1.40625 -3.23047,2.09766 -4.84765,3.05469 -12.19922,7.6875 -19.03515,15.14844 -4.39063,-5.26563 -9.48828,-9.63282 -15.27735,-13.07422 -12.90625,-12.42188 -17.625,-14.47657 -23.55859,-14.47657 -2.48047,0 -5,0.56641 -7.24219,1.62891 -0.0469,0.0195 -0.0898,0.043 -0.13672,0.0625 -5.16406,2.50781 -7.51953,6.45703 -8.64843,9.98047 -1.90625,-0.73438 -3.94922,-1.125 -6.02735,-1.125 h -0.008 c -4.98828,0 -9.70703,2.21484 -12.9375,6.07812 -3.04688,3.63672 -6.14844,12.16797 -9.21875,25.34766 -0.41406,1.78125 -0.79297,3.51953 -1.13281,5.21875 -1.13282,-0.39453 -2.27344,-0.75391 -3.41016,-1.08594 v -6.32812 c 0,-5.04297 -2.27734,-9.81641 -6.19922,-12.99219 -3.0039,-2.43359 -6.73047,-3.72656 -10.52734,-3.72656 -1.15625,0 -2.32422,0.12109 -3.47656,0.36719 l -409.804691,87.0625 c -7.726563,1.64453 -13.25,8.46093 -13.25,16.35546 v 167.94532 c 0,5.04297 2.277343,9.82031 6.199219,12.99218 3.003906,2.4336 6.730468,3.72657 10.527343,3.72657 1.15625,0 2.324219,-0.1211 3.476563,-0.36328 L 256.14844,549.09375 v 159.73047 c 0,8.85156 6.90234,16.17187 15.74609,16.6914 0.32813,0.0195 0.65625,0.0273 0.98438,0.0273 1.16796,0 2.33593,-0.1211 3.48046,-0.36328 l 311.625,-66.20703 c 7.72657,-1.64063 13.25,-8.45704 13.25,-16.35157 v -13.64062 c 2.3711,-2.70313 4.27735,-5.94922 5.66407,-9.67969 0.21484,-0.58594 0.48047,-1.23047 0.78125,-1.93359 6.59375,8.03125 7.99218,9.30859 8.61718,9.875 3.14063,2.87109 7.22266,4.45312 11.49219,4.45312 12.375,0 17.79297,-11.94531 20.10938,-17.04687 2.16015,-4.76563 5.13672,-12.69922 7.03515,-23.44141 0.17578,-0.98047 0.32422,-1.96094 0.45313,-2.9375 1.98828,1.30078 4.07422,2.58594 6.26562,3.83594 7.19532,4.10937 16.97266,4.42969 19.79688,4.42969 9.05469,0 14.35547,-5.57032 16.35547,-10.89454 2.00781,-5.35546 1.8789,-10.98828 -3.19532,-27.33984 7.21875,2.24219 14.73047,3.69531 22.23829,3.69531 7.32812,0 14.03906,-1.4375 19.94921,-4.26562 4.42579,-2.11719 9.01563,-4.3125 11.85938,-9.33594 0.74609,-1.32422 1.3125,-2.74609 1.67578,-4.22266 2.26563,-9.1875 -0.76953,-19.37109 -9.27344,-31.04296 4.25391,-1.60938 7.66407,-3.58204 10.35157,-5.97657 3.5625,-1.79687 8.26953,-4.83984 11.80859,-9.54687 2.82422,-3.78516 3.93359,-8.42188 3.16406,-13.10938 -0.79297,-4.86718 -4.29297,-11.03906 -8.70312,-15.90234 5.82031,-4.49219 9.39843,-9.23438 10.90234,-14.42969 z m 0,0"
         fill-opacity="1"
         fill-rule="nonzero"
         id="path5" />
    </g>
    <path
       fill="#fff17a"
       d="m 660.08984,440.48437 c -4.61328,0.70313 -16.46093,0.86329 -5.63281,10.11719 0,0 2.01172,0.16797 -3.39453,3.23047 -5.41406,3.07031 11.95312,5.07422 13.98828,7.34766 2.03906,2.29297 -17.22656,-0.35938 -16.89844,5.33593 0.32032,5.70313 -3.33203,2.07032 9.35938,15.59375 0,0 -7.67969,-1.82031 -8.58203,-0.76953 -0.91797,1.06641 16.71484,15.65235 16.5664,19.75391 0,0 -3.63281,2.42187 -5.15625,0.26562 -1.51562,-2.17578 -12.14843,-13.90234 -13.88281,-14.25781 -1.30859,-0.26562 -3.81641,0.30469 -5,2.55469 0,0 4.59766,10.75781 3.12891,11.04297 -1.47657,0.28125 -8.76563,-4.84375 -8.76563,-4.84375 0,0 -4.83203,2.03515 -3.28125,6.32031 1.52344,4.29297 14.47656,18.94922 13.72656,19.83203 0,0 -1.13671,2.37891 -2.82421,2.19531 -1.67969,-0.1914 -10.58985,-16.32031 -12.8125,-16.95703 -2.22657,-0.63281 2.46484,15.02344 2.46484,15.02344 0,0 -8.08594,-8.5 -10.24609,-10.27734 -2.15235,-1.78516 -2.50782,1.84375 -2.50782,1.84375 l 2.20703,17.83203 c 0,0 -25.10156,-37.38281 -19.26953,6.98437 0,0 -0.60937,2.50782 -1.44922,2.41407 -0.84375,-0.0937 -6.12109,-14.72266 -5.46875,-18.69532 0.66797,-3.99218 -4.55078,11.00782 -4.55078,11.00782 0,0 -7.70312,-31.1211 -24.49218,0.55859 0,0 -1.04688,-12.03125 -3.57032,-14.11719 -2.51172,-2.07812 -4.60547,-3.20703 -5.25,-2.83594 -0.6289,0.375 -6.51953,5.77344 -8.80859,6.29297 -2.28125,0.51172 1.88281,-7.1914 -1.48047,-9.3789 0,0 0.32422,-2.14844 -1.61328,-5.26563 -1.94531,-3.11328 -3.85547,-1.97265 -15.33984,9.95313 0,0 4.85937,-11.36328 4.84765,-15.30078 0,-3.9336 -4.41797,-4.87891 -4.41797,-4.87891 0,0 -8.33593,6.09766 -10.73047,5.32031 -2.41015,-0.78906 4.03516,-8.28906 4.16407,-10.3789 0.043,-0.66016 -0.91016,-0.41407 -0.91016,-0.41407 0,0 -0.98828,-0.70312 -9.34766,3.98047 l -13.5625,8.29297 c -0.98828,-0.59766 -2.3125,-0.5 -1.8789,-3.63672 0.12109,-0.90234 25.29687,-12.23828 24.1875,-13.46484 -1.10156,-1.21094 -9.46485,-3.29688 -9.46485,-3.29688 0,0 5.3086,-6.16406 3.7461,-6.86328 -1.5586,-0.68359 -13,-1.71484 -13,-1.71484 0,0 -1.94922,-3.10156 -1.54688,-2.48438 0.375,0.61719 11.21094,-1.58203 11.21094,-1.58203 l -7.16797,-5.62109 c 0,0 18.27735,-2.98438 2.25,-12.63672 -5.93359,-3.56641 -12.13672,-6.02734 -18.85156,-7.27734 17.17969,0.98046 28.58203,-3.17969 26.70312,-9.36329 0,0 -0.52343,-2.24218 -17.60156,-8.52734 0,0 0.4961,-1.99609 1.64063,-2.25781 1.15234,-0.26172 18.90234,6.28515 17.65234,5.24609 -1.25781,-1.03906 -7.71875,-8.20312 -6.54297,-8.1289 1.17969,0.0625 9.51172,3.60156 12.3086,1.07812 2.67968,-2.41406 4.38671,-6.89062 6.14062,-7.85156 1.75781,-0.96094 -4.59766,-6.82813 3.82031,-4.07813 0,0 5.75,-3.10156 1.28907,-8.28515 -4.46485,-5.20703 -18.61329,-21.89844 4.52734,-1.69141 5.53516,4.83594 19.60937,-9.62891 18.53125,-17.57812 0,0 5.52734,5.55859 6.70312,6.15625 1.17188,0.60546 8.96875,1.58203 10.76563,-1.05079 0.82812,-1.21484 -2.75391,-12.53906 -0.34375,-17.48828 0,0 0.99609,-0.0781 1.92187,0.98438 0.92969,1.07031 0.9336,12.85547 5.14844,15.1289 0,0 4.77735,-2.6914 5.59766,-4.71875 0.82812,-2.03515 -1.40235,12.71875 12.91797,6.46875 0,0 6.99218,-5.98437 8.98828,-6.15234 1.98047,-0.16406 -1.55469,7.17188 0.17578,9.80469 1.74219,2.64453 7.57031,4.44922 9.45312,1.17969 1.89844,-3.26172 10.85157,-9.73438 11.54297,-9.46485 0.6875,0.27735 -4.64843,13.87891 -5.26172,15.21875 -0.88671,1.94141 -1.52734,4.82422 -1.52734,4.82422 0,0 0.65234,3.82031 5.5,4.91406 0,0 9.22656,-5.17968 18.83203,-11.91797 -1.01172,1.17188 -2.03125,2.39063 -3.0625,3.69141 0,0 -12.46484,12.33203 -12.48047,14.13281 0.004,1.80078 4.1836,5.87891 7.66407,3.625 3.48437,-2.24609 11.87109,-5.5664 12.59765,-4.96875 0.71875,0.58985 2.03125,2.28125 0.28906,3.25391 -1.7539,0.95703 -11.51953,5.85937 -11.51953,5.85937 0,0 11.09766,0.83985 24.70703,-1.73046 -14.75781,5.71875 -19.92968,14.57812 -19.80859,15.42187 0.41016,2.86719 23.31641,-2.74219 23.92578,-1.32422 3.21485,7.32422 -7.26172,2.72656 -11.88672,3.44531 m 96.52344,1.41797 c -0.125,-0.86328 -2.33984,-1.66015 -3.8125,-2.875 -5.01172,-4.16797 -22.89062,-21.72265 -58.39062,-20.90234 -4.49219,0.0977 -8.59375,0.48047 -12.32813,1.06641 7.58203,-2.33594 11.50391,-3.74219 13.79297,-4.60547 2.75781,-1.05078 20.92187,-6.97657 30.94531,-38.08985 0.85547,-2.65625 3.26172,-9.0625 2.67578,-9.55468 -0.71484,-0.60938 -6.8164,0.40625 -13.0039,4.02343 -6.20703,3.62891 -26.98047,6.65625 -29.44922,7.02344 -1.44922,0.21484 -7.53516,-0.73437 -16.67578,3.87109 10.34375,-10.23828 21.35156,-24.8164 24.45703,-45.39453 1.48437,-9.87109 0.92578,-13.90234 0.49219,-13.8789 -0.60547,0.0351 -0.94922,0.0391 -1.70313,0.24609 -2.28906,0.64844 -4.62109,2.51563 -12.21094,7.39844 -7.59375,4.88281 -15.64453,10.29297 -15.64453,10.29297 0,0 2.97656,-26.87891 2.12891,-27.51172 -0.83203,-0.61719 -16.41406,-0.60547 -40.5586,25.29687 0,0 2.91016,-22.34375 -1.5,-30.82031 0,0 -1.1914,-6.11719 -2.13671,-9.31641 -0.47657,-1.60156 -1.73829,-3.29687 -1.94922,-3.15625 -0.25,0.16797 -2.36719,0.4961 -5.80078,4.28516 -5.32813,5.87891 -29.91407,12.91406 -34.24219,43.98828 -2.96485,-12.58594 -9.33985,-29.42578 -25.35938,-38.07031 -9.01172,-8.80469 -13.03125,-11.44531 -13.5039,-11.22266 -0.41016,0.19922 -0.26563,4.08203 -1.72266,12.80469 -1.64062,9.77734 -3.05859,12.86328 -3.05859,12.86328 0,0 -16.73438,-14.6914 -17.16797,-15.11719 -0.78906,-0.77734 -11.35156,31.06641 -8.47266,47.03125 0,0 -5.30469,-4.10156 -14.97265,-9.07812 -10.98047,-5.64844 -29.52344,-6.76953 -29.40235,-5.91406 0.21094,1.44531 15.38672,31.14453 21.79297,41.58203 0,0 -41.51953,-7.3711 -40.81641,-4.8125 0.23047,0.83984 1.21094,2.44922 2.79297,9.26953 0,0 -16.3125,-0.49219 -16.11328,0.83594 0.22266,1.48437 12.1875,21.25781 13.10938,22.33593 0,0 -12.64453,2.28516 -15.3125,2.40235 -1.80469,0.082 8.1914,27.89062 36.20312,35.05859 4.23047,1.08203 8.32813,1.89453 12.23828,2.46485 -9.20312,-0.25391 -19.39453,1.53906 -31.125,5.6914 0,0 -6.79687,2.52344 -10.40234,5.26953 -3.60547,2.76172 -21.44922,5.54297 -22.34766,8.08203 0.39844,1.875 21.6211,16.37891 21.6211,16.37891 0,0 -12.55469,5.87891 -13.42578,6.99609 -0.59766,0.78125 -1.07813,1.47266 -0.92188,1.69141 0.14063,0.21484 0.97656,1.20313 3.13281,2.54297 4.97657,3.08984 49.44922,8.03516 52.19922,6.98437 2.7461,-1.04296 -24.42969,28.37891 -24.97656,43.32032 0,0 4.40625,0.34765 6.89844,0.57422 1.90234,0.16406 -8.28125,18.62109 -6.46485,18.55859 12.10157,-0.39063 32.26172,-11.69141 36.04688,-14.30078 3.78515,-2.59766 8.96484,-6.46485 10.35547,-7.72656 1.40234,-1.26563 -8.92578,16.46484 -4.89844,32.16796 0,0 1.21094,12.17188 1.26562,14.63282 0.0391,2.44531 3.57032,2.48437 3.52344,4.12109 -0.0547,2.00391 9.8711,-7.53125 14.56641,-11.19141 4.69531,-3.65234 11.08984,-10.73437 14.19531,-15.42187 3.10156,-4.66406 0.0117,36.84375 -1.30469,44.81641 -0.42578,2.58203 0.17188,2.85937 0.58203,3.71875 0.1211,0.26562 4.50782,-3.21094 5.89454,-4.09766 2.0664,-1.32422 23.53906,-29.12891 24.9375,-36.11719 0,0 10.89843,48.86719 14.6914,54.1211 0.82422,1.13671 1.50391,2.40625 2.08985,1.53125 1.14453,-1.72657 2.87109,-6.26954 4.15234,-6.63672 1.63672,-0.46485 6.42578,-1.01563 8.99609,-7.94141 2.58203,-6.93359 7.16407,-13.6875 9.44532,-31.71875 0,0 23.80859,30.29297 26.91015,33.125 1.23438,1.125 7.86719,-9.48437 10.89063,-26.59375 3.04297,-17.11328 -2.96875,-40.19531 -6.88282,-41.01562 0,0 -1.61718,-2.54297 2.9336,-0.90625 2.58594,0.9414 12.45703,18.07031 35.44531,31.21484 3.87109,2.21094 12.13672,2.32031 12.1875,2.17969 1.89844,-5.07422 -15.82422,-51.73438 -15.82422,-51.73438 0,0 0.45313,-0.53125 4.09375,0.96485 3.62891,1.5 38.0586,23.7539 59.15235,13.64843 4.27734,-2.04297 4.52343,-2.48047 4.52343,-2.48047 2.5,-10.125 -15.83203,-29.45312 -27.11718,-38.2539 0,0 29.84375,-0.92969 34.48437,-8.64844 0,0 5.51953,-1.89062 8.39063,-5.71094 0.5,-0.66797 -3.14844,-7.375 -7.42188,-10.33984 -11.20312,-7.75781 -13.61719,-10.66406 -13.61719,-10.66406 0,0 3.17969,-3.70313 7.74219,-5.0625 4.5625,-1.36328 19.34766,-10.1211 15.45313,-14.53516 0,0 4.76953,-3.99609 4.60937,-5.05469"
       fill-opacity="1"
       fill-rule="nonzero"
       id="path6" />
    <path
       fill="#008939"
       d="M 67.613281,404.10937 477.41797,317.04297 V 484.98828 L 67.613281,572.05469 Z m 0,0"
       fill-opacity="1"
       fill-rule="nonzero"
       id="path7" />
    <path
       fill="#f5f1e9"
       d="m 416,463.99219 c 8.24219,-1.75391 14.89844,-5.64453 19.96094,-11.6836 5.0625,-6.03906 7.59375,-13.26953 7.59375,-21.69531 0,-4.49609 -0.80469,-8.23047 -2.41797,-11.21094 -1.61328,-2.98047 -3.85547,-5.52343 -6.72266,-7.63281 -2.86719,-2.10547 -7.12109,-4.75391 -12.76953,-7.95703 -4.66016,-2.56641 -7.77344,-4.62109 -9.34375,-6.16016 -1.56641,-1.53906 -2.35156,-3.48047 -2.35156,-5.82031 0,-2.15234 0.51562,-3.99219 1.54687,-5.52344 1.02735,-1.52734 2.3086,-2.45703 3.83203,-2.78125 1.69922,-0.35937 3.06641,0.004 4.09766,1.09375 1.03125,1.09375 1.54688,2.67188 1.54688,4.73047 v 3.92969 c 0,0.46875 0.15625,0.83203 0.47265,1.09375 0.3125,0.26172 0.69141,0.34375 1.14063,0.25 l 18.82031,-4 c 0.44531,-0.0937 0.82422,-0.33594 1.14062,-0.73438 0.3125,-0.39453 0.47266,-0.82421 0.47266,-1.29296 v -3.3711 c 0,-5.42969 -1.14453,-9.98437 -3.42969,-13.66406 -2.28515,-3.67969 -5.53515,-6.21875 -9.74609,-7.62109 -4.21094,-1.39454 -9.05078,-1.51563 -14.51563,-0.35547 -5.3789,1.14453 -10.1289,3.27343 -14.25,6.39843 -4.12109,3.125 -7.32421,6.98829 -9.61328,11.58985 -2.28515,4.60937 -3.42578,9.57812 -3.42578,14.91406 0,5.24219 1.02735,9.63281 3.09375,13.17578 2.0586,3.53906 4.52344,6.33985 7.39063,8.39844 2.86718,2.05859 6.54297,4.29687 11.02343,6.71484 4.83985,2.6211 8.06641,4.63282 9.67969,6.01953 1.61328,1.39063 2.41797,3.16016 2.41797,5.3125 0,1.96485 -0.53906,3.69532 -1.61328,5.1875 -1.07422,1.49219 -2.41797,2.41016 -4.03125,2.75391 -1.61328,0.34375 -2.91406,-0.0352 -3.89844,-1.14062 -0.98828,-1.09766 -1.48047,-2.77344 -1.48047,-5.01954 v -3.65234 c 0,-0.46484 -0.15625,-0.83203 -0.46875,-1.09375 -0.3164,-0.25781 -0.69531,-0.34375 -1.14453,-0.25 l -18.95312,4.02734 c -0.44922,0.0977 -0.82813,0.34375 -1.14063,0.73438 -0.3164,0.39453 -0.47265,0.82812 -0.47265,1.29297 v 4.77734 c 0,5.05469 1.14453,9.33203 3.42968,12.82031 2.28516,3.4961 5.51172,5.89844 9.67578,7.21485 4.16797,1.3125 8.98438,1.39062 14.45313,0.23047 m -29.97656,-93.0586 -18.95313,4.02735 c -1.07812,0.23047 -1.66015,0.87109 -1.75,1.91797 l -5.375,30.49218 c -0.26953,1.27344 0.17969,1.78907 1.34375,1.53907 l 14.51953,-3.08204 c 0.89063,-0.1914 1.47657,-0.78515 1.7461,-1.77734 l 9.67578,-31.40625 c 0.17969,-0.69141 0.15625,-1.17578 -0.0664,-1.46094 -0.22265,-0.27734 -0.60547,-0.36328 -1.14062,-0.25 m -52.64063,12.8711 v 36.65234 c 0,0.46875 -0.22265,0.75 -0.67187,0.84375 l -9.67969,2.05859 c -0.44922,0.0937 -0.67188,-0.0898 -0.67188,-0.5625 v -36.65234 c 0,-0.46484 -0.15625,-0.82812 -0.46875,-1.08984 -0.3164,-0.26172 -0.69531,-0.34766 -1.14453,-0.25 l -19.08593,4.05468 c -0.44922,0.0937 -0.83204,0.33985 -1.14454,0.73438 -0.3125,0.39844 -0.46875,0.82812 -0.46875,1.29297 v 94.92969 c 0,0.46875 0.15625,0.83203 0.46875,1.09375 0.3125,0.26171 0.69532,0.34375 1.14454,0.25 l 19.08593,-4.05469 c 0.44922,-0.0977 0.82813,-0.33985 1.14453,-0.73438 0.3125,-0.39453 0.46875,-0.82422 0.46875,-1.29687 v -36.78906 c 0,-0.46875 0.22266,-0.75 0.67188,-0.84375 l 9.67969,-2.0586 c 0.44922,-0.0937 0.67187,0.0937 0.67187,0.5586 v 36.79296 c 0,0.46875 0.15625,0.83204 0.47266,1.09375 0.3125,0.26172 0.6914,0.34375 1.14062,0.25 l 19.08985,-4.05859 c 0.44531,-0.0937 0.82422,-0.33594 1.14062,-0.73437 0.3125,-0.39063 0.47266,-0.82032 0.47266,-1.29297 V 379.0625 c 0,-0.46484 -0.16016,-0.82813 -0.47266,-1.09375 -0.3164,-0.25781 -0.69531,-0.34375 -1.14062,-0.24609 l -19.08985,4.05468 c -0.44922,0.0937 -0.82812,0.33985 -1.14062,0.73438 -0.31641,0.39453 -0.47266,0.82422 -0.47266,1.29297 m -66.99609,111.97265 c 8.51172,-1.80859 15.34375,-5.88281 20.5,-12.21875 5.15234,-6.33593 7.72656,-13.85937 7.72656,-22.5664 v -1.54688 c 0,-0.37109 -0.15625,-0.66797 -0.46875,-0.88281 -0.31641,-0.21484 -0.69531,-0.27344 -1.14453,-0.17578 l -19.08594,3.21094 c -0.44922,0.0937 -0.82812,0.34375 -1.14453,0.73437 -0.3125,0.39453 -0.46875,0.82813 -0.46875,1.29297 v 4.07422 c 0,2.05859 -0.53906,3.83594 -1.61328,5.32422 -1.07422,1.49609 -2.50781,2.43359 -4.30078,2.8125 -1.70313,0.36328 -3.09375,0.0234 -4.16797,-1.01172 -1.07422,-1.03516 -1.61328,-2.58203 -1.61328,-4.64063 v -46.76172 c 0,-2.15625 0.53906,-3.97656 1.61328,-5.46875 1.07422,-1.49609 2.46484,-2.42187 4.16797,-2.78125 1.79297,-0.38281 3.22656,-0.0547 4.30078,0.98047 1.07422,1.03516 1.61328,2.62891 1.61328,4.78516 v 3.78906 c 0,1.125 0.53906,1.57031 1.61328,1.34375 L 293,421.17187 c 0.44922,-0.0937 0.82812,-0.33984 1.14453,-0.73437 0.3125,-0.39453 0.46875,-0.82422 0.46875,-1.29297 v -1.26562 c 0,-8.79688 -2.57422,-15.22657 -7.72656,-19.28125 -5.15625,-4.05079 -11.98828,-5.17579 -20.5,-3.36719 -8.51563,1.80859 -15.32422,5.83203 -20.4336,12.0625 -5.10546,6.23828 -7.66015,13.7539 -7.66015,22.55469 v 43.10937 c 0,8.70703 2.55469,15.14063 7.66015,19.29688 5.10938,4.15625 11.91797,5.33203 20.4336,3.52343 m -67.77735,-19.86718 4.97657,-31.10938 c 0.0859,-0.29687 0.21875,-0.46484 0.40234,-0.50391 0.17969,-0.0391 0.3125,0.0742 0.40234,0.33594 l 4.16797,29.16406 c 0,0.46875 -0.18359,0.74219 -0.53906,0.81641 L 199.14844,476.5 c -0.44922,0.0937 -0.62891,-0.10156 -0.53907,-0.58984 m 16.13282,29.71484 19.625,-4.16797 c 0.98437,-0.21094 1.47656,-0.73437 1.47656,-1.57812 l -0.13281,-0.53516 -19.49219,-90.78906 c -0.17969,-0.98828 -0.76172,-1.38282 -1.74609,-1.17188 l -21.91016,4.65235 c -0.98828,0.21093 -1.57031,0.85156 -1.75,1.91796 l -19.48828,99.07032 c -0.26953,1.27343 0.17578,1.78906 1.34375,1.54297 l 19.08594,-4.0586 c 1.07421,-0.22656 1.66015,-0.86328 1.75,-1.91406 l 2.01562,-12.64844 c 0,-0.46484 0.26953,-0.75781 0.80469,-0.87109 l 14.25,-3.02735 c 0.53906,-0.11328 0.80469,0.0625 0.80469,0.53125 l 1.61328,11.875 c 0.0898,1.01172 0.67187,1.40235 1.75,1.17188 m -113.30469,24.07422 19.08594,-4.0586 c 0.44922,-0.0937 0.82812,-0.33593 1.14453,-0.73437 0.3125,-0.39063 0.46875,-0.82031 0.46875,-1.29297 v -59.39844 c 0,-0.375 0.0898,-0.60547 0.26953,-0.6914 0.17969,-0.082 0.35547,-0.004 0.53906,0.23828 l 9.27344,16.5664 c 0.44922,0.7461 0.76172,1.10157 0.94141,1.0625 0.17968,-0.0391 0.44531,-0.51562 0.80859,-1.4375 l 9.27344,-20.22265 c 0.17968,-0.32031 0.35547,-0.47266 0.53515,-0.46485 0.17969,0.008 0.27344,0.19922 0.27344,0.57422 v 59.1211 c 0,0.46875 0.15234,0.83203 0.46875,1.08984 0.3125,0.26563 0.69141,0.34766 1.14063,0.25 L 164.75,516.24609 c 0.44922,-0.0937 0.82812,-0.33593 1.14062,-0.73437 0.31641,-0.39453 0.47266,-0.82422 0.47266,-1.29297 v -94.92969 c 0,-0.46875 -0.15625,-0.83203 -0.47266,-1.09375 -0.3125,-0.25781 -0.6914,-0.34375 -1.14062,-0.25 l -18.82031,4 c -0.80469,0.17188 -1.4336,0.72656 -1.87891,1.66406 l -10.62109,24.30079 c -0.26953,0.43359 -0.53907,0.49218 -0.8086,0.17187 l -10.61718,-19.78906 c -0.35938,-0.76563 -0.98828,-1.05469 -1.88282,-0.86719 l -18.68359,3.97266 c -0.45312,0.0937 -0.83203,0.33984 -1.14453,0.73437 -0.316408,0.39453 -0.468751,0.82422 -0.468751,1.29297 v 94.92969 c 0,0.46875 0.152343,0.83203 0.468751,1.09375 0.3125,0.26172 0.69141,0.34375 1.14453,0.25"
       fill-opacity="1"
       fill-rule="nonzero"
       id="path8" />
    <path
       fill="#005437"
       d="m 272.88281,708.82422 h -0.008 V 528.44531 l 311.63281,-66.20703 v 180.38281 z m 0,0"
       fill-opacity="1"
       fill-rule="nonzero"
       id="path9" />
    <path
       fill="#f5f1e9"
       d="m 494.36719,626.43359 18.82031,-4 c 0.44531,-0.0937 0.82422,-0.33593 1.14062,-0.73437 0.3125,-0.39453 0.46875,-0.82422 0.46875,-1.29297 l -0.26562,-47.6875 c 0,-0.375 0.10937,-0.58594 0.33594,-0.63281 0.22265,-0.0469 0.3789,0.0586 0.46875,0.32031 l 13.71093,45.25391 c 0.26954,0.8789 0.85157,1.22265 1.75,1.03515 l 21.10157,-4.48437 c 0.44922,-0.0977 0.82812,-0.33985 1.14453,-0.73438 0.3125,-0.39453 0.46875,-0.82422 0.46875,-1.29297 V 517.25 c 0,-0.46484 -0.15625,-0.82813 -0.46875,-1.08984 -0.31641,-0.26172 -0.69531,-0.34766 -1.14453,-0.25 l -18.81641,3.99609 c -0.44922,0.0977 -0.83203,0.33984 -1.14453,0.73437 -0.31641,0.39844 -0.46875,0.82813 -0.46875,1.29297 l 0.13281,47.57813 c 0,0.375 -0.11328,0.58594 -0.33594,0.63281 -0.22656,0.0508 -0.38281,-0.10547 -0.46875,-0.46094 l -13.71093,-44.97265 c -0.26953,-0.87891 -0.85547,-1.22266 -1.75,-1.03516 l -20.96875,4.45703 c -0.44922,0.0937 -0.82813,0.33985 -1.14453,0.73438 -0.3125,0.39453 -0.46875,0.82812 -0.46875,1.29297 v 94.92968 c 0,0.46875 0.15625,0.83203 0.46875,1.09375 0.3164,0.26172 0.69531,0.34375 1.14453,0.25 M 470.4375,525.49219 c 3.13672,-0.66797 5.66797,-2.23438 7.59766,-4.70313 1.92578,-2.46484 2.89062,-5.39062 2.89062,-8.75781 0,-3.27734 -0.96484,-5.73828 -2.89062,-7.39063 -1.92969,-1.64843 -4.46094,-2.14453 -7.59766,-1.47656 -3.13672,0.66797 -5.66797,2.23438 -7.59375,4.70313 -1.92578,2.46875 -2.89063,5.34375 -2.89063,8.61718 0,3.3711 0.96485,5.88282 2.89063,7.53125 1.92578,1.65235 4.45703,2.14063 7.59375,1.47657 m -24.32813,5.16797 c 3.13672,-0.66407 5.64454,-2.22657 7.52735,-4.6875 1.88281,-2.45704 2.82422,-5.375 2.82422,-8.74219 0,-3.27735 -0.96485,-5.74219 -2.89063,-7.39063 -1.92969,-1.65234 -4.41797,-2.15234 -7.46094,-1.50781 -3.13671,0.66797 -5.6914,2.24219 -7.66406,4.71875 -1.97265,2.48047 -2.95703,5.35547 -2.95703,8.63281 0,3.3711 0.98438,5.87891 2.95703,7.51563 1.97266,1.64062 4.52735,2.1289 7.66406,1.46094 m 11.82813,104.63671 c 5.55469,-1.18359 10.44141,-3.45703 14.65234,-6.83593 4.21094,-3.375 7.48047,-7.5586 9.8125,-12.54688 2.32813,-4.98828 3.4961,-10.43359 3.4961,-16.33203 v -67.96484 c 0,-0.46875 -0.16016,-0.83203 -0.47266,-1.09375 -0.3125,-0.26172 -0.69531,-0.34375 -1.14062,-0.25 l -19.08985,4.05468 c -0.44922,0.0977 -0.82812,0.33985 -1.14062,0.73438 -0.31641,0.39844 -0.47266,0.82812 -0.47266,1.29687 v 70.21094 c 0,2.2461 -0.51562,4.1836 -1.54687,5.8086 -1.02735,1.62109 -2.39844,2.61328 -4.09766,2.97656 -1.70313,0.35937 -3.07031,-0.0508 -4.09766,-1.23828 -1.03515,-1.1836 -1.54687,-2.89844 -1.54687,-5.14453 v -70.21485 c 0,-0.46875 -0.15625,-0.83203 -0.47266,-1.09375 -0.3125,-0.26172 -0.69531,-0.34375 -1.14062,-0.25 l -19.08985,4.05469 c -0.44922,0.0977 -0.82812,0.33984 -1.14062,0.73437 -0.31641,0.39454 -0.47266,0.82813 -0.47266,1.29297 v 67.96875 c 0,5.89844 1.16406,10.84766 3.4961,14.84375 2.32812,4 5.60156,6.79297 9.8125,8.37891 4.21093,1.58594 9.09375,1.78906 14.65234,0.60937 m -67.17188,-65.21484 3.76563,-0.79687 c 2.41797,-0.51563 4.34375,0.0117 5.78125,1.57812 1.42969,1.57031 2.14844,4.08594 2.14844,7.54688 0,3.28125 -0.71875,6.00781 -2.14844,8.18359 -1.4375,2.17578 -3.36328,3.51953 -5.78125,4.03516 l -3.76563,0.80078 c -0.44921,0.0937 -0.67187,-0.0899 -0.67187,-0.5625 v -19.9375 c 0,-0.46875 0.22266,-0.75 0.67187,-0.84766 m 13.71094,75.44922 19.62891,-4.17188 c 0.98437,-0.20703 1.47656,-0.78125 1.47656,-1.71875 l -0.13281,-0.53125 -11.5625,-38.41015 c -0.0899,-0.16797 -0.0899,-0.33203 0,-0.48828 0.0898,-0.16407 0.22265,-0.3086 0.40234,-0.44141 3.31641,-3.23047 5.89453,-7.12109 7.73047,-11.67969 1.83594,-4.55468 2.75781,-9.45703 2.75781,-14.69922 0,-5.89843 -1.10156,-10.92968 -3.29297,-15.09765 -2.19921,-4.16797 -5.3125,-7.10938 -9.34375,-8.83203 -4.03515,-1.71485 -8.65234,-2.02344 -13.84765,-0.91797 l -28.89844,6.14062 c -0.45312,0.0937 -0.83203,0.33985 -1.14453,0.73438 -0.31641,0.39453 -0.46875,0.82812 -0.46875,1.29297 v 94.92968 c 0,0.47266 0.15234,0.83594 0.46875,1.09375 0.3125,0.26172 0.69141,0.34375 1.14453,0.25 l 19.08594,-4.05468 c 0.44922,-0.0977 0.82812,-0.33985 1.14453,-0.73438 0.3125,-0.39453 0.46875,-0.82422 0.46875,-1.29297 v -36.79297 c 0,-0.46875 0.22266,-0.75 0.67187,-0.84765 l 2.01954,-0.42578 c 0.35546,-0.0781 0.58203,0.0625 0.67187,0.41797 l 9.14063,35.26953 c 0.26562,0.88281 0.89062,1.21484 1.8789,1.00781 m -70.82422,16.16797 c 8.51172,-1.8086 15.34375,-5.76172 20.4961,-11.86719 5.15234,-6.10156 7.73047,-13.36719 7.73047,-21.79297 v -26.12109 c 0,-0.46875 -0.15625,-0.83203 -0.46875,-1.09375 -0.31641,-0.25781 -0.69532,-0.34375 -1.14454,-0.2461 l -24.86718,5.28125 c -0.44922,0.0977 -0.82813,0.33985 -1.14063,0.73438 -0.3164,0.39453 -0.47265,0.82422 -0.47265,1.29297 v 14.88672 c 0,0.46875 0.15625,0.83203 0.47265,1.09375 0.3125,0.26172 0.69141,0.34375 1.14063,0.25 l 3.49609,-0.74219 c 0.44531,-0.0977 0.67188,0.0898 0.67188,0.55859 v 8.98828 c 0,2.2461 -0.53907,4.1836 -1.61329,5.81641 -1.07421,1.63281 -2.51171,2.64063 -4.30078,3.01953 -1.70312,0.36328 -3.09375,-0.043 -4.16797,-1.21875 -1.07421,-1.17578 -1.61328,-2.88672 -1.61328,-5.13281 v -45.5 c 0,-2.24609 0.53907,-4.1875 1.61328,-5.82031 1.07422,-1.63282 2.46485,-2.62891 4.16797,-2.99219 1.78907,-0.37891 3.22657,0.0156 4.30078,1.19531 1.07422,1.17188 1.61329,2.88672 1.61329,5.13281 v 5.47657 c 0,0.46875 0.15234,0.83203 0.46875,1.09375 0.3125,0.26172 0.6914,0.34375 1.14453,0.24609 l 19.08593,-4.05469 c 0.44922,-0.0937 0.82813,-0.33593 1.14454,-0.73047 0.3125,-0.39843 0.46875,-0.82812 0.46875,-1.29687 v -5.19531 c 0,-8.42578 -2.57813,-14.61719 -7.73047,-18.57813 -5.15235,-3.96094 -11.98438,-5.03906 -20.4961,-3.23047 -8.51562,1.8086 -15.32422,5.73828 -20.43359,11.78516 -5.10938,6.04687 -7.66016,13.28516 -7.66016,21.70703 v 45.35938 c 0,8.42578 2.55078,14.60156 7.66016,18.52343 5.10937,3.92578 11.91797,4.98047 20.43359,3.17188"
       fill-opacity="1"
       fill-rule="nonzero"
       id="path10" />
  </g>
</svg>
