<?xml version="1.0" encoding="UTF-8" standalone="no"?>
<svg
   width="863"
   zoomAndPan="magnify"
   viewBox="0 0 647.25 647.25"
   height="863"
   preserveAspectRatio="xMidYMid"
   version="1.0"
   id="svg8"
   sodipodi:docname="cross.svg"
   inkscape:version="1.4.3 (1:1.4.3+202512261035+0d15f75042)"
   xmlns:inkscape="http://www.inkscape.org/namespaces/inkscape"
   xmlns:sodipodi="http://sodipodi.sourceforge.net/DTD/sodipodi-0.dtd"
   xmlns="http://www.w3.org/2000/svg"
   xmlns:svg="http://www.w3.org/2000/svg">
  <sodipodi:namedview
     id="namedview8"
     pagecolor="#ffffff"
     bordercolor="#666666"
     borderopacity="1.0"
     inkscape:showpageshadow="2"
     inkscape:pageopacity="0.0"
     inkscape:pagecheckerboard="0"
     inkscape:deskcolor="#d1d1d1"
     inkscape:zoom="0.76148148"
     inkscape:cx="540.39397"
     inkscape:cy="783.99805"
     inkscape:window-width="3370"
     inkscape:window-height="1371"
     inkscape:window-x="70"
     inkscape:window-y="32"
     inkscape:window-maximized="1"
     inkscape:current-layer="svg8" />
  <defs
     id="defs2">
    <clipPath
       id="208c4de292">
      <path
         d="M 0.199219,0 H 809.80078 V 1012 H 0.199219 Z m 0,0"
         clip-rule="nonzero"
         id="path1" />
    </clipPath>
    <clipPath
       id="0548353c47">
      <path
         d="M 81.160156,132.82812 H 728.08984 V 779.75781 H 81.160156 Z m 0,0"
         clip-rule="nonzero"
         id="path2" />
    </clipPath>
  </defs>
  <g
     clip-path="url(#0548353c47)"
     id="g5"
     transform="translate(-81.160163,-132.82813)">
    <path
       fill="#e61981"
       d="m 404.625,779.75781 c 178.64453,0 323.46484,-144.82031 323.46484,-323.46484 0,-178.64453 -144.82031,-323.46485 -323.46484,-323.46485 -178.64453,0 -323.464844,144.82032 -323.464844,323.46485 0,178.64453 144.820314,323.46484 323.464844,323.46484"
       fill-opacity="1"
       fill-rule="nonzero"
       id="path5" />
  </g>
  <path
     fill="#8abd24"
     d="m 387.39066,345.99218 c 17.37109,-0.53125 34.09376,2.01172 50.23047,8.27734 7.33985,2.85157 10.00782,7.10938 8.22266,12.8086 -1.875,5.99609 -6.72656,7.93359 -14.32031,6.01562 -37.58595,-9.51172 -71.9922,-2.92187 -100.65626,23.48438 -31.02735,28.58984 -41.90626,64.72656 -29.83985,105.33203 12.22266,41.14844 41.23047,65.84766 83.6836,72.19531 59.0586,8.83203 112.33595,-34.21484 117.40235,-94.05859 0.9375,-11.11719 -0.875,-22.51172 -1.9375,-33.73438 -0.63281,-6.71875 1.48438,-11.27343 7.13281,-12.61718 5.53125,-1.3125 10.11719,1.82421 12.00782,8.20312 19.69532,66.47266 -21.76172,138.74219 -89.52735,156.05859 -70.62501,18.05469 -140.40236,-23.1289 -157.96877,-94.28125 -17.48828,-70.84375 27.40236,-138.61328 93.46876,-153.89062 7.27344,-1.67969 14.72657,-2.54688 22.10157,-3.79297"
     fill-opacity="1"
     fill-rule="nonzero"
     id="path6" />
  <path
     fill="#f5f1e9"
     d="m 418.80473,470.0664 c 13.3789,7.30859 25.75,14.11328 38.17578,20.82422 2.51172,1.35937 5.23437,2.32422 7.83203,3.53125 8.14844,3.78515 11.39453,10.1875 8.99219,17.65625 -2.46875,7.65625 -10.6875,13.35156 -18.32031,10.87109 -9.61329,-3.125 -18.98438,-7.35937 -27.90625,-12.15234 -9.64454,-5.1836 -18.64455,-11.5586 -29.0508,-18.125 -6.84765,10.71484 -13.9414,21.78906 -20.98828,32.88672 -0.93359,1.47265 -1.5664,3.13281 -2.42968,4.65625 -4.08204,7.21875 -11.52344,9.62109 -18.76954,6.08593 -7.37109,-3.59375 -10.86718,-11.625 -6.88671,-18.84765 8.14062,-14.76172 17.04687,-29.10156 25.64453,-43.60938 0.39843,-0.67187 0.86718,-1.30468 0.96484,-1.44531 -9.04297,-11.73047 -17.92969,-23.12891 -26.65234,-34.65625 -2.77735,-3.67578 -5.23828,-7.60937 -7.60157,-11.57422 -3.96093,-6.64062 -2.20703,-13.94531 4.09766,-17.90234 6.48438,-4.07031 13.45313,-2.63281 17.83594,4.08203 8.74609,13.38672 18.75781,25.66797 30.16015,36.18359 11.55079,-11.35937 22.60158,-22.82422 34.29689,-33.58203 13.98828,-12.86328 29.23828,-24.14844 46.07422,-33.10156 10.72265,-5.70313 22.71484,-1.92188 27.0625,8.3125 3.3125,7.80078 0.60937,15.30078 -7.85156,20.11719 -18.9336,10.77734 -36.08204,23.94531 -52.23047,38.45312 -7.3086,6.56641 -14.25782,13.52344 -22.44922,21.33594"
     fill-opacity="1"
     fill-rule="nonzero"
     id="path7" />
  <path
     fill="#f5f1e9"
     d="m 521.21879,290.86718 c 7.97267,-1.69141 14.51954,-5.85937 19.64454,-12.50391 5.1211,-6.64062 7.6836,-14.03125 7.6836,-22.16406 0,-7.73828 -2.75,-13.79297 -8.25391,-18.18359 -5.50781,-4.37891 -11.86328,-5.80469 -19.07423,-4.27344 -7.02344,1.49219 -13.28516,5.60156 -18.78906,12.32422 -5.50391,6.72656 -8.25391,13.95312 -8.25391,21.6875 0,8.13672 2.5625,14.4375 7.6875,18.89844 5.1211,4.46484 11.57031,5.87109 19.35547,4.21484 m -97.27344,-92.68359 c -2.66015,0.5664 -4.83593,-0.0586 -6.54687,-1.88282 -1.70703,-1.8164 -2.75,-4.47265 -3.12891,-7.96093 l -0.57031,-15.64844 c 0,-5.94922 0.0937,-11.42578 0.28516,-16.42578 0.3789,-4.04297 1.42187,-7.39063 3.1289,-10.03516 1.71094,-2.64062 3.98828,-4.26953 6.83203,-4.875 3.03516,-0.64453 5.41016,-0.0586 7.1211,1.76172 1.70703,1.82031 2.74609,4.67188 3.1289,8.55469 0.1875,4.92187 0.28516,10.45703 0.28516,16.60156 0,5.35547 -0.0977,10.53516 -0.28516,15.53516 -0.38281,3.85156 -1.47265,7.05468 -3.27343,9.62109 -1.80469,2.56641 -4.12891,4.14844 -6.97657,4.75391 m 58.07422,47.75781 -0.57031,-95.68359 c 0,-5.15625 -0.28516,-9.75782 -0.85156,-13.80469 -1.33203,-15.97656 -7.07422,-27.0586 -17.22266,-33.23047 -10.15625,-6.175775 -23.39062,-7.527335 -39.71484,-4.058585 -17.46095,3.710925 -31.41017,11.191395 -41.84376,22.433585 -10.44141,11.24609 -15.75391,25.02344 -15.94141,41.32422 v 16.36719 c 0,6.54296 0.0937,11.28125 0.28516,14.21875 0.375,16.18359 4.55468,28.14453 12.52343,35.86718 7.97266,7.73047 18.69141,10.16016 32.16797,7.29688 7.78126,-1.65235 15.08986,-6.08203 21.92189,-13.28906 0.3789,-0.47657 0.7539,-0.70313 1.13672,-0.6875 0.3789,0.0234 0.57031,0.32421 0.57031,0.92187 v 29.15625 c 0,3.97266 -0.90234,7.43359 -2.70703,10.39453 -1.80469,2.96485 -4.22266,4.76563 -7.25781,5.41016 -2.27735,0.48437 -4.31641,-0.3711 -6.1211,-2.56641 -1.80469,-2.1914 -2.70312,-5.27344 -2.70312,-9.24609 v -7.73438 c 0,-0.99218 -0.33594,-1.76172 -0.9961,-2.3164 -0.66797,-0.55078 -1.47265,-0.73047 -2.41798,-0.52735 l -40.42578,8.58985 c -0.94922,0.20312 -1.75781,0.72265 -2.41797,1.55859 -0.66796,0.83594 -0.99609,1.75 -0.99609,2.74219 v 11.00781 c 0,16.46484 5.21484,28.44531 15.65625,35.94531 10.43359,7.5 23.91016,9.4961 40.42189,5.98828 17.46093,-3.71093 31.45703,-11.54687 41.99218,-23.50781 10.53125,-11.95312 15.69922,-26.14453 15.51172,-42.57031 m -153.8086,85.95312 c 7.97265,-1.69531 14.51953,-5.86328 19.64453,-12.50781 5.12109,-6.64062 7.68359,-14.02734 7.68359,-22.16406 0,-7.73828 -2.75,-13.79297 -8.2539,-18.17969 -5.50391,-4.38281 -11.86328,-5.80859 -19.07422,-4.27734 -7.02344,1.49609 -13.28516,5.60547 -18.78906,12.32422 -5.50391,6.72656 -8.25391,13.95312 -8.25391,21.6914 0,8.13282 2.5625,14.4336 7.6875,18.89453 5.125,4.46875 11.57031,5.8711 19.35547,4.21875 m -39.02736,-76.5039 c -0.38281,-11.22266 -3.60546,-20.40235 -9.67968,-27.54688 -6.07422,-7.13672 -13.66407,-10.13672 -22.77344,-8.99218 -0.56641,0.12109 -0.90234,-0.004 -0.99609,-0.38672 -0.0977,-0.3711 0.0469,-0.80078 0.42578,-1.28125 l 31.03125,-42.89063 c 1.13672,-1.43359 1.70703,-3.04297 1.70703,-4.82812 v -35.70313 c 0,-0.99219 -0.33203,-1.76172 -0.9961,-2.32031 -0.66796,-0.54688 -1.47265,-0.72656 -2.41796,-0.52344 l -106.75392,22.69141 c -0.94922,0.19922 -1.75781,0.72265 -2.41797,1.55469 -0.66797,0.83984 -0.99609,1.75 -0.99609,2.73828 v 34.8125 c 0,0.99609 0.32812,1.76953 0.99609,2.3164 0.66016,0.5586 1.46875,0.73047 2.41797,0.53125 l 51.81251,-11.01562 c 0.57031,-0.1211 0.94531,0 1.13672,0.35156 0.1875,0.36328 0.0937,0.77734 -0.28516,1.25391 l -35.30078,45.58593 c -0.75781,1.35157 -1.13672,2.22657 -1.13672,2.6211 0,0.39844 0.37891,1.10937 1.13672,2.14062 l 20.78125,18.19532 c 0.57031,0.67187 1.32813,0.90625 2.28125,0.70312 0.75391,-0.16016 1.51563,-0.71484 2.27344,-1.67187 3.41797,-3.89844 6.73437,-6.19141 9.96484,-6.87891 3.60156,-0.76563 6.59375,-0.0625 8.96875,2.10937 2.3711,2.17579 3.7461,5.30469 4.12891,9.38672 v 35.10938 c -0.38281,4.44922 -1.75781,8.26172 -4.12891,11.4414 -2.375,3.1836 -5.36719,5.15625 -8.96875,5.92188 -3.60547,0.76562 -6.5039,0.043 -8.67969,-2.17188 -2.1875,-2.21093 -3.46875,-5.46093 -3.84375,-9.74218 -0.1914,-1.94141 -0.28515,-5.19532 -0.28515,-9.76172 0,-2.37891 -1.13672,-3.32813 -3.41797,-2.84375 l -40.42189,8.59375 c -2.27734,0.48437 -3.41796,1.91797 -3.41796,4.29687 0,6.54688 0.0937,11.48438 0.28515,14.81641 0.1875,10.07422 2.84766,18.48828 7.97266,25.23047 5.1211,6.75 12.19141,11.34765 21.20704,13.78906 9.01172,2.44922 19.21484,2.46484 30.60156,0.043 11.00391,-2.33984 20.82813,-6.60938 29.46485,-12.80859 8.63281,-6.19532 15.46484,-13.7461 20.49609,-22.65235 5.02734,-8.90625 7.63672,-18.43359 7.82812,-28.59375 0.1875,-2.8164 0.23438,-6 0.14063,-9.55078 -0.0977,-3.54687 -0.14063,-6.21875 -0.14063,-8.00391 0,-1.58593 0.043,-4.07421 0.14063,-7.46875 0.0937,-3.39062 0.0469,-6.2539 -0.14063,-8.59765 M 112.23048,168.63674 93.726567,180.30471 c -1.70703,1.15625 -2.55859,2.73047 -2.55859,4.70703 v 31.24219 c 0,2.37891 1.03906,3.35156 3.12891,2.90625 l 0.57031,-0.12109 17.933593,-5.89454 c 0.94922,-0.20312 1.42578,0.0977 1.42578,0.88672 v 157.99219 c 0,0.99219 0.32813,1.76563 0.99219,2.31641 0.66406,0.55468 1.46875,0.72656 2.42188,0.52734 l 40.42187,-8.59375 c 0.94922,-0.20312 1.75391,-0.71484 2.42188,-1.55469 0.66015,-0.83593 0.99609,-1.74609 0.99609,-2.74218 V 160.84374 c 0,-0.98828 -0.33594,-1.75781 -0.99609,-2.3164 -0.66797,-0.55078 -1.47266,-0.72657 -2.42188,-0.52735 l -41.55859,8.83594 c -1.33203,0.28125 -2.75391,0.88281 -4.27344,1.80078"
     fill-opacity="1"
     fill-rule="nonzero"
     id="path8" />
</svg>
