<?xml version="1.0" encoding="UTF-8" standalone="no"?>
<svg
   width="826"
   zoomAndPan="magnify"
   viewBox="0 0 619.5 619.5"
   height="826"
   preserveAspectRatio="xMidYMid"
   version="1.0"
   id="svg8"
   sodipodi:docname="vote.svg"
   inkscape:version="1.4.3 (1:1.4.3+202512261035+0d15f75042)"
   xmlns:inkscape="http://www.inkscape.org/namespaces/inkscape"
   xmlns:sodipodi="http://sodipodi.sourceforge.net/DTD/sodipodi-0.dtd"
   xmlns="http://www.w3.org/2000/svg"
   xmlns:svg="http://www.w3.org/2000/svg">
  <sodipodi:namedview
     id="namedview8"
     pagecolor="#ffffff"
     bordercolor="#666666"
     borderopacity="1.0"
     inkscape:showpageshadow="2"
     inkscape:pageopacity="0.0"
     inkscape:pagecheckerboard="0"
     inkscape:deskcolor="#d1d1d1"
     inkscape:zoom="0.76148148"
     inkscape:cx="540.39397"
     inkscape:cy="675"
     inkscape:window-width="3370"
     inkscape:window-height="1371"
     inkscape:window-x="70"
     inkscape:window-y="32"
     inkscape:window-maximized="1"
     inkscape:current-layer="svg8" />
  <defs
     id="defs2">
    <clipPath
       id="cc69ed3080">
      <path
         d="M 0.199219,0 H 809.80078 V 1012 H 0.199219 Z m 0,0"
         clip-rule="nonzero"
         id="path1" />
    </clipPath>
    <clipPath
       id="bab1011244">
      <path
         d="m 109.85547,182.16016 h 619.1914 v 619.19531 h -619.1914 z m 0,0"
         clip-rule="nonzero"
         id="path2" />
    </clipPath>
  </defs>
  <g
     clip-path="url(#bab1011244)"
     id="g5"
     transform="translate(-109.85547,-182.16016)">
    <path
       fill="#e61981"
       d="m 419.45312,801.35547 c 170.98438,0 309.59766,-138.61328 309.59766,-309.59766 0,-170.98437 -138.61328,-309.59765 -309.59766,-309.59765 -170.98828,0 -309.59765,138.61328 -309.59765,309.59765 0,170.98438 138.60937,309.59766 309.59765,309.59766"
       fill-opacity="1"
       fill-rule="nonzero"
       id="path5" />
  </g>
  <path
     fill="#f5f1e9"
     d="m 497.04297,441.90234 c 3.51562,-0.75781 6.40234,-2.625 8.66406,-5.59766 2.25781,-2.97265 3.38672,-6.23437 3.38672,-9.78515 0,-3.46485 -1.23438,-6.19532 -3.70313,-8.19141 -2.46875,-2 -5.25,-2.66016 -8.34765,-1.99219 -3.09766,0.66797 -5.85938,2.52735 -8.28516,5.58203 -2.42578,3.05079 -3.63672,6.3086 -3.63672,9.77344 0,3.55078 1.12891,6.32422 3.38672,8.32422 2.26172,1.99609 5.10547,2.625 8.53516,1.88672 m -6.52735,-30.95313 13.4336,-2.89843 c 0.41797,-0.0899 0.77344,-0.32032 1.0664,-0.69532 0.29297,-0.37109 0.4375,-0.78125 0.4375,-1.22656 l 2.26172,-58.01562 c 0,-1.06641 -0.5039,-1.48828 -1.50781,-1.27344 l -17.82422,3.84766 c -1.0039,0.21484 -1.50781,0.85546 -1.50781,1.92187 l 2.13672,57.06641 c 0,0.44531 0.14453,0.79297 0.4375,1.03906 0.29297,0.25 0.64844,0.32422 1.0664,0.23437 M 461.68359,379.75 c -4.51953,0.97656 -8.03515,3.33203 -10.54687,7.07031 -0.33203,0.60547 -0.66797,0.94531 -1,1.01562 -0.17188,0.0352 -0.25391,-0.0351 -0.25391,-0.21093 v -2.66407 c 0,-0.44531 -0.14453,-0.78906 -0.4375,-1.03906 -0.29687,-0.24609 -0.64844,-0.32422 -1.07031,-0.23437 l -17.82422,3.84375 c -0.41797,0.0898 -0.77344,0.32421 -1.06641,0.69921 -0.29296,0.375 -0.4375,0.78125 -0.4375,1.22657 v 65.64843 c 0,0.44532 0.14454,0.79297 0.4375,1.03907 0.29297,0.25 0.64844,0.32422 1.06641,0.23437 l 17.82422,-3.84375 c 0.42187,-0.0898 0.77344,-0.32031 1.07031,-0.69531 0.29297,-0.375 0.4375,-0.78516 0.4375,-1.23047 v -43.27734 c 0,-1.95313 0.37891,-3.54297 1.12891,-4.76953 0.7539,-1.23047 1.84375,-1.9961 3.26562,-2.30469 2.67578,-0.57813 4.01563,1.13281 4.01563,5.125 v 43.41406 c 0,0.44531 0.14453,0.78906 0.4414,1.03906 0.29297,0.2461 0.64844,0.32422 1.06641,0.23438 l 17.82422,-3.84766 c 0.41797,-0.0898 0.77344,-0.32031 1.06641,-0.69531 0.29296,-0.37109 0.4414,-0.78125 0.4414,-1.22656 v -44.875 c 0,-7.46094 -1.42578,-12.92188 -4.26953,-16.39453 -2.84766,-3.46485 -7.23828,-4.5625 -13.17969,-3.28125 m -62.27343,32.34765 c 1.2539,-0.27344 2.27734,0.0625 3.07421,1 0.79297,0.9375 1.19141,2.25 1.19141,3.9375 v 3.19531 c 0,0.44532 -0.21094,0.71094 -0.62891,0.80079 l -7.40234,1.59765 c -0.42187,0.0899 -0.62891,-0.0859 -0.62891,-0.52734 v -3.19922 c 0,-1.77344 0.39454,-3.28125 1.19141,-4.51563 0.79297,-1.23828 1.86328,-2 3.20313,-2.28906 m 25.10156,16.02344 v -17.3125 c 0,-7.01172 -2.21485,-12.12891 -6.65235,-15.34375 -4.43359,-3.21484 -10.58593,-3.97266 -18.44921,-2.27734 -7.86719,1.69531 -14.04297,5.13671 -18.51563,10.32031 -4.48047,5.18359 -6.71875,11.23437 -6.71875,18.16015 v 24.90235 c 0,7.28125 2.21875,12.46094 6.65625,15.54297 4.43359,3.08593 10.625,3.76562 18.57813,2.05078 7.69531,-1.66016 13.63671,-4.76172 17.82421,-9.30469 4.1836,-4.54297 6.48438,-10.1875 6.90235,-16.9375 0.082,-0.99219 -0.33594,-1.48047 -1.25391,-1.46094 l -17.44922,1.36719 c -0.92187,0.0234 -1.46484,0.62891 -1.63281,1.81641 -0.25,1.38672 -0.75391,2.60547 -1.50391,3.65625 -0.7539,1.05078 -1.71875,1.69922 -2.88671,1.95312 -1.33985,0.28906 -2.41016,-0.0117 -3.20313,-0.90625 -0.79687,-0.89453 -1.19141,-2.22656 -1.19141,-4.0039 v -3.59766 c 0,-0.44141 0.20704,-0.71094 0.62891,-0.80078 l 27.36328,-5.90235 c 0.41797,-0.0898 0.77344,-0.32031 1.06641,-0.69921 0.29297,-0.3711 0.4375,-0.77735 0.4375,-1.22266 m -74.44922,45.625 17.82812,-3.84766 c 0.41407,-0.0898 0.76954,-0.32031 1.06641,-0.69531 0.28906,-0.37109 0.4375,-0.78125 0.4375,-1.22656 v -90.01953 c 0,-0.44532 -0.14844,-0.78907 -0.4375,-1.03907 -0.29687,-0.24609 -0.65234,-0.32421 -1.06641,-0.23437 l -17.82812,3.84375 c -0.41797,0.0898 -0.77344,0.32422 -1.06641,0.69922 -0.29297,0.375 -0.4375,0.78125 -0.4375,1.22656 v 90.01953 c 0,0.44531 0.14453,0.78906 0.4375,1.03516 0.29297,0.25 0.64844,0.32812 1.06641,0.23828 m -24.36328,-64.65625 c -4.51953,0.97656 -8.03516,3.32812 -10.54297,7.06641 -0.33594,0.60546 -0.67188,0.94531 -1.00781,1.01562 -0.16797,0.0391 -0.25,-0.0312 -0.25,-0.21094 v -27.03125 c 0,-0.44531 -0.14844,-0.78906 -0.4375,-1.03906 -0.29688,-0.24609 -0.65235,-0.32422 -1.06641,-0.23437 L 294.56641,392.5 c -0.41797,0.0898 -0.77344,0.32421 -1.06641,0.69921 -0.29297,0.375 -0.4375,0.78125 -0.4375,1.22657 v 90.01953 c 0,0.44531 0.14453,0.78906 0.4375,1.03515 0.29297,0.25 0.64844,0.32813 1.06641,0.23829 l 17.82812,-3.84766 c 0.41406,-0.0898 0.76953,-0.32031 1.06641,-0.69531 0.28906,-0.3711 0.4375,-0.78125 0.4375,-1.22657 v -43.27734 c 0,-1.95312 0.375,-3.54687 1.13281,-4.77344 0.75,-1.22656 1.83594,-1.99609 3.26172,-2.30078 2.67578,-0.57812 4.01562,1.12891 4.01562,5.125 v 43.41016 c 0,0.44531 0.14453,0.79297 0.44141,1.03906 0.28906,0.25 0.64453,0.32422 1.06641,0.23438 l 17.82421,-3.84375 c 0.41797,-0.0899 0.77344,-0.32032 1.06641,-0.69532 0.29297,-0.375 0.44141,-0.78125 0.44141,-1.23047 v -44.875 c 0,-7.45703 -1.42578,-12.91796 -4.26953,-16.39062 -2.84375,-3.46875 -7.23829,-4.5625 -13.17969,-3.28125 m -52.04297,5.63281 c 2.92578,-0.6289 5.28906,-2.11719 7.08984,-4.45703 1.80078,-2.33984 2.69922,-5.10937 2.69922,-8.30469 0,-3.10937 -0.89844,-5.44531 -2.69922,-7.01172 -1.80078,-1.5625 -4.16406,-2.03125 -7.08984,-1.39843 -2.92969,0.63281 -5.29297,2.12109 -7.09375,4.45703 -1.80078,2.34375 -2.69922,5.07031 -2.69922,8.17578 0,3.19531 0.89844,5.57812 2.69922,7.14062 1.80078,1.56641 4.16406,2.03125 7.09375,1.39844 m -22.72266,4.90235 c 2.92969,-0.62891 5.27344,-2.11329 7.03125,-4.44532 1.75782,-2.33203 2.63282,-5.09765 2.63282,-8.29297 0,-3.10546 -0.89844,-5.4414 -2.69532,-7.00781 -1.80078,-1.5625 -4.125,-2.03906 -6.96875,-1.42578 -2.92968,0.63281 -5.3164,2.125 -7.15234,4.47266 -1.84375,2.35156 -2.76172,5.08203 -2.76172,8.1875 0,3.19531 0.91797,5.57031 2.76172,7.125 1.83594,1.55859 4.22266,2.01953 7.15234,1.38672 m 10.16797,58 c -1.2539,0.26953 -2.28125,0.0469 -3.07422,-0.67188 -0.79687,-0.71094 -1.19531,-1.91406 -1.19531,-3.60156 0,-1.77735 0.52344,-3.3086 1.57031,-4.60156 1.04688,-1.28907 2.36328,-2.10547 3.95703,-2.44922 l 3.89063,-0.83985 c 0.41797,-0.0898 0.625,0.0859 0.625,0.53125 v 4.92578 c 0,1.59766 -0.60547,3.03907 -1.82031,4.32032 -1.21485,1.28515 -2.53125,2.07812 -3.95313,2.38672 m 0.87891,-54.78907 c -7.28125,1.57032 -13.26563,4.88282 -17.94922,9.92969 -4.6875,5.05469 -7.19922,11.12109 -7.53125,18.20703 0,1.0625 0.5,1.48828 1.50391,1.26953 l 18.20312,-3.79297 c 0.92188,-0.19921 1.42188,-0.83593 1.50391,-1.92187 0.2539,-1.29688 0.73437,-2.35547 1.44531,-3.17578 0.71094,-0.81641 1.60937,-1.34375 2.69922,-1.57813 1.42187,-0.30859 2.61328,-0.008 3.57812,0.89063 0.96094,0.90625 1.44141,2.24219 1.44141,4.01562 v 3.19922 c 0,0.44531 -0.20703,0.71094 -0.625,0.80078 l -5.02344,1.08203 c -5.6914,1.22657 -10.35547,2.7461 -13.99609,4.55079 -3.64063,1.80859 -6.50781,4.48828 -8.59766,8.04687 -2.09375,3.5625 -3.14062,8.3125 -3.14062,14.26172 0,13.9375 5.77734,19.66016 17.32422,17.16797 6.10937,-1.31641 10.54296,-4.31641 13.30468,-8.9961 0.16797,-0.30078 0.33594,-0.42578 0.50391,-0.375 0.16797,0.0547 0.25,0.21485 0.25,0.48047 v 3.19532 c 0,0.44531 0.14844,0.78906 0.44141,1.03906 0.29296,0.24609 0.64843,0.32422 1.0664,0.23437 l 17.82422,-3.84765 c 0.41797,-0.0899 0.77344,-0.32032 1.06641,-0.69532 0.29297,-0.37109 0.4414,-0.78125 0.4414,-1.22656 v -46.07422 c 0,-6.66015 -2.36718,-11.51953 -7.09375,-14.58203 -4.73047,-3.0625 -10.9414,-3.76562 -18.64062,-2.10547 m -88.38281,88.98047 16.5664,-3.57422 c 1.00781,-0.21875 1.55078,-0.82031 1.63281,-1.8164 l 3.89063,-29.33985 c 0.0859,-0.37109 0.21094,-0.57812 0.37891,-0.61328 0.16796,-0.0351 0.29296,0.11719 0.375,0.45313 l 4.14453,27.60156 c 0.082,0.96094 0.625,1.33203 1.6289,1.11328 l 17.32422,-3.73828 c 0.92188,-0.19531 1.46485,-0.80078 1.63281,-1.81641 l 13.4336,-68.41406 c 0.25,-1.20703 -0.17188,-1.69531 -1.25781,-1.46094 l -16.82032,3.4961 c -0.92187,0.19922 -1.42578,0.79687 -1.50781,1.78906 l -4.01562,35.35547 c 0,0.26953 -0.125,0.42969 -0.375,0.48437 -0.25391,0.0547 -0.37891,-0.0547 -0.37891,-0.32031 L 205.73047,437.5 c -0.082,-0.95704 -0.625,-1.32813 -1.62891,-1.11329 l -15.0664,3.25 c -0.91797,0.19922 -1.42188,0.79688 -1.50391,1.79297 l -4.39453,35.4375 c 0,0.26563 -0.125,0.42578 -0.375,0.48047 -0.25391,0.0547 -0.37891,-0.0508 -0.37891,-0.32031 l -4.14062,-33.59375 c -0.0859,-0.95703 -0.58594,-1.33984 -1.50782,-1.14063 l -16.94531,3.65625 c -0.92187,0.19922 -1.38281,0.69532 -1.38281,1.4961 v 0.53125 l 13.55859,62.72656 c 0.16797,0.94141 0.71094,1.3125 1.63282,1.11328"
     fill-opacity="1"
     fill-rule="nonzero"
     id="path6" />
  <path
     fill="#f5f1e9"
     d="m 383.46484,263.46093 c -4.51562,0.97266 -8.03125,3.32813 -10.54297,7.06641 -0.33593,0.60547 -0.66796,0.94531 -1.0039,1.01562 -0.16797,0.0391 -0.25,-0.0312 -0.25,-0.21093 v -2.66407 c 0,-0.4414 -0.14844,-0.78906 -0.44141,-1.03515 -0.29297,-0.2461 -0.64844,-0.32813 -1.0664,-0.23828 l -17.82422,3.84765 c -0.42188,0.0899 -0.77344,0.32422 -1.06641,0.69532 -0.29687,0.375 -0.44141,0.78515 -0.44141,1.22656 v 65.65234 c 0,0.44531 0.14454,0.78906 0.44141,1.03516 0.29297,0.25 0.64453,0.32812 1.06641,0.23828 l 17.82422,-3.84766 c 0.41796,-0.0898 0.77343,-0.32031 1.0664,-0.69531 0.29297,-0.375 0.44141,-0.78125 0.44141,-1.22656 v -43.27735 c 0,-1.95312 0.375,-3.54687 1.1289,-4.77343 0.75391,-1.22657 1.83985,-1.9961 3.26172,-2.30078 2.67969,-0.57813 4.01953,1.1289 4.01953,5.125 v 43.41015 c 0,0.44531 0.14454,0.79297 0.4375,1.03906 0.29297,0.2461 0.64844,0.32422 1.07032,0.23438 l 17.82422,-3.84375 c 0.41406,-0.0898 0.76953,-0.32031 1.0664,-0.69531 0.29297,-0.375 0.4375,-0.78516 0.4375,-1.23047 v -44.875 c 0,-7.45703 -1.42187,-12.91797 -4.26562,-16.39063 -2.84766,-3.46875 -7.24219,-4.5625 -13.1836,-3.28125 m -51.9414,6.67578 c 2.92968,-0.6289 5.29297,-2.11718 7.09375,-4.45703 1.79687,-2.33984 2.69922,-5.10937 2.69922,-8.30468 0,-3.10938 -0.90235,-5.44532 -2.69922,-7.01172 -1.80078,-1.5625 -4.16407,-2.03125 -7.09375,-1.39844 -2.92969,0.63281 -5.29297,2.12109 -7.09375,4.46094 -1.80078,2.33984 -2.69532,5.0664 -2.69532,8.17187 0,3.19531 0.89454,5.57813 2.69532,7.14063 1.80078,1.5664 4.16406,2.03125 7.09375,1.39843 m -22.72266,4.90235 c 2.92969,-0.62891 5.27344,-2.11328 7.03125,-4.44531 1.75781,-2.33204 2.63672,-5.09766 2.63672,-8.29297 0,-3.10547 -0.90234,-5.44141 -2.69922,-7.00782 -1.80078,-1.5625 -4.125,-2.03906 -6.96875,-1.42578 -2.92969,0.63282 -5.3125,2.125 -7.15234,4.47266 -1.84375,2.35156 -2.76172,5.08203 -2.76172,8.1875 0,3.19531 0.91797,5.57031 2.76172,7.12891 1.83984,1.55468 4.22265,2.01562 7.15234,1.38281 m 15.44141,3.85937 v 43.14844 c 0,1.95313 -0.375,3.54297 -1.12891,4.76953 -0.75391,1.22656 -1.84375,1.9961 -3.26562,2.30469 -2.67969,0.57812 -4.01563,-1.13281 -4.01563,-5.12891 v -43.27734 c 0,-0.44141 -0.14453,-0.78906 -0.4375,-1.03516 -0.29687,-0.25 -0.65234,-0.32812 -1.07031,-0.23828 L 296.5,283.28906 c -0.41797,0.0898 -0.77344,0.32031 -1.06641,0.69531 -0.29297,0.375 -0.4375,0.78125 -0.4375,1.22656 v 48.20313 c 0,6.83984 1.67188,11.53906 5.01953,14.09765 3.34766,2.56641 7.53125,3.30469 12.55469,2.22266 2.42578,-0.52344 4.53516,-1.3125 6.33594,-2.36719 1.80078,-1.05468 3.32812,-2.55859 4.58203,-4.51953 0.16797,-0.30078 0.33594,-0.44531 0.50391,-0.4414 0.16797,0.0117 0.25,0.14843 0.25,0.41406 v 1.73047 c 0,0.44531 0.14453,0.79297 0.4414,1.03906 0.29297,0.24609 0.64453,0.32422 1.06641,0.23437 l 17.82422,-3.84765 c 0.41797,-0.0898 0.77344,-0.32031 1.0664,-0.69531 0.29297,-0.3711 0.4375,-0.78125 0.4375,-1.22657 v -65.64843 c 0,-0.44532 -0.14453,-0.78907 -0.4375,-1.03907 -0.29296,-0.24609 -0.64843,-0.32422 -1.0664,-0.23437 L 325.75,276.97656 c -0.42188,0.0937 -0.77344,0.32422 -1.06641,0.69531 -0.29687,0.375 -0.4414,0.78516 -0.4414,1.22656 m -38.625,5.80469 c -4.6875,1.01172 -8.11719,4.10547 -10.29297,9.27734 -0.16797,0.30469 -0.3125,0.44532 -0.4375,0.42969 -0.12891,-0.0156 -0.1875,-0.20312 -0.1875,-0.55859 v -4.26172 c 0,-0.44531 -0.14844,-0.78906 -0.44141,-1.03906 -0.29297,-0.2461 -0.64844,-0.32422 -1.0664,-0.23438 l -17.82813,3.84766 c -0.41797,0.0898 -0.77344,0.32031 -1.06641,0.69531 -0.29296,0.375 -0.4375,0.78125 -0.4375,1.22656 v 65.51563 c 0,0.44531 0.14454,0.79297 0.4375,1.03906 0.29297,0.25 0.64844,0.32422 1.06641,0.23438 l 17.82813,-3.84375 c 0.41796,-0.0899 0.77343,-0.32032 1.0664,-0.69532 0.29297,-0.375 0.44141,-0.78515 0.44141,-1.23047 v -35.55468 c 0,-2.03907 0.48047,-4.00782 1.4414,-5.90235 0.96094,-1.89453 2.19532,-3.27343 3.70313,-4.1289 1.25391,-0.80469 2.59375,-1.35938 4.01562,-1.66407 0.92188,-0.19921 1.96485,-0.24609 3.14063,-0.14453 1.08594,0.0312 1.67187,-0.44922 1.75391,-1.44531 l 2.89062,-19.39844 c 0.16406,-0.92578 -0.0859,-1.53515 -0.75391,-1.83593 -1.33984,-0.6875 -3.09765,-0.79688 -5.27343,-0.32813 m -63.33985,84.51172 c 7.94922,-1.71875 14.32813,-5.46875 19.14453,-11.25781 4.8086,-5.78516 7.21485,-12.67578 7.21485,-20.66407 v -24.76953 c 0,-0.4414 -0.14844,-0.78906 -0.4375,-1.03515 -0.29688,-0.25 -0.64844,-0.32813 -1.07031,-0.23828 l -23.21875,5.01171 c -0.42188,0.0899 -0.77735,0.32032 -1.06641,0.69532 -0.29688,0.375 -0.44141,0.78515 -0.44141,1.22656 v 14.11328 c 0,0.44531 0.14453,0.79297 0.44141,1.03906 0.28906,0.25 0.64453,0.32813 1.06641,0.23438 l 3.26171,-0.70313 c 0.41797,-0.0898 0.62891,0.0859 0.62891,0.53125 v 8.52344 c 0,2.12891 -0.50391,3.96875 -1.50781,5.51563 -1.00391,1.55078 -2.34375,2.5039 -4.01563,2.86718 -1.58984,0.33985 -2.88672,-0.043 -3.89062,-1.16015 -1.00781,-1.11328 -1.50781,-2.73828 -1.50781,-4.86719 v -43.14453 c 0,-2.13281 0.5,-3.97266 1.50781,-5.51953 1.0039,-1.55078 2.30078,-2.4961 3.89062,-2.83985 1.67188,-0.35937 3.01172,0.0156 4.01563,1.13282 1.0039,1.11718 1.50781,2.73828 1.50781,4.87109 v 5.19141 c 0,0.44531 0.14453,0.78906 0.4375,1.03515 0.29297,0.25 0.64844,0.32813 1.06641,0.23828 l 17.82422,-3.84765 c 0.42187,-0.0899 0.77343,-0.32032 1.07031,-0.69532 0.28906,-0.37109 0.4375,-0.78125 0.4375,-1.22656 v -4.92578 c 0,-7.99219 -2.40625,-13.86328 -7.21485,-17.62109 -4.8164,-3.75391 -11.19531,-4.77344 -19.14453,-3.0586 -7.95312,1.71485 -14.3125,5.4375 -19.08203,11.17188 -4.76953,5.73828 -7.15625,12.59765 -7.15625,20.58984 v 43.01172 c 0,7.98828 2.38672,13.84375 7.15625,17.5625 4.76953,3.72266 11.12891,4.72656 19.08203,3.01172"
     fill-opacity="1"
     fill-rule="nonzero"
     id="path7" />
  <path
     fill="#f5f1e9"
     d="m 471.79297,181.94921 c 3.51562,-0.75781 6.40234,-2.625 8.66406,-5.59765 2.25781,-2.97266 3.38672,-6.27735 3.38672,-9.91797 0,-3.46484 -1.21094,-6.17578 -3.64063,-8.13672 -2.42578,-1.96094 -5.23046,-2.60156 -8.41015,-1.91797 -3.09766,0.66797 -5.85938,2.50781 -8.28516,5.51953 -2.42578,3.00782 -3.63672,6.24219 -3.63672,9.70703 0,3.64063 1.12891,6.46094 3.38672,8.45704 2.26172,2 5.10547,2.625 8.53516,1.88671 m -42.89063,-41.48437 c -1.17187,0.25391 -2.13672,-0.0234 -2.88672,-0.83984 -0.7539,-0.8125 -1.21484,-2 -1.38281,-3.5625 l -0.25,-7.00391 c 0,-2.66406 0.0391,-5.11328 0.125,-7.35156 0.16797,-1.8125 0.62891,-3.3086 1.37891,-4.4961 0.7539,-1.17968 1.75781,-1.91015 3.01562,-2.17968 1.33594,-0.28907 2.38282,-0.0274 3.13672,0.78906 0.75391,0.8125 1.21094,2.08984 1.38281,3.82812 0.082,2.20313 0.125,4.67969 0.125,7.4336 0,2.39453 -0.043,4.71484 -0.125,6.94922 -0.17187,1.72265 -0.65234,3.16015 -1.44531,4.30468 -0.79687,1.15235 -1.82031,1.85938 -3.07422,2.12891 m 25.60547,21.375 -0.25,-42.82422 c 0,-2.30859 -0.125,-4.36719 -0.3789,-6.17578 -0.58594,-7.15234 -3.11719,-12.11328 -7.59375,-14.875 -4.47657,-2.76172 -10.3125,-3.36719 -17.50782,-1.81641 -7.70312,1.66407 -13.85156,5.00782 -18.45312,10.03907 -4.60547,5.03515 -6.94922,11.20312 -7.03125,18.49609 v 7.32422 c 0,2.92969 0.043,5.05469 0.125,6.36719 0.16797,7.24218 2.00781,12.59375 5.52344,16.05078 3.51562,3.46093 8.24218,4.55078 14.18359,3.26562 3.43359,-0.73828 6.65625,-2.72265 9.66797,-5.94531 0.16797,-0.21484 0.33203,-0.31641 0.5,-0.30859 0.16797,0.008 0.2539,0.14453 0.2539,0.41015 v 13.05078 c 0,1.77735 -0.39843,3.32813 -1.1914,4.65235 -0.80078,1.32812 -1.86328,2.13281 -3.20313,2.42187 -1.0039,0.21485 -1.90625,-0.16406 -2.69922,-1.14844 -0.79687,-0.98046 -1.1914,-2.35937 -1.1914,-4.13671 v -3.46485 c 0,-0.4414 -0.14844,-0.78515 -0.44141,-1.03515 -0.29297,-0.2461 -0.64844,-0.32813 -1.0664,-0.23438 l -17.82422,3.84375 c -0.41797,0.0898 -0.77344,0.32422 -1.06641,0.69531 -0.29297,0.375 -0.44141,0.78516 -0.44141,1.22657 v 4.92968 c 0,7.36719 2.30079,12.73047 6.90625,16.08594 4.60157,3.35938 10.54297,4.25 17.82422,2.67969 7.69922,-1.66016 13.8711,-5.16406 18.51563,-10.51953 4.64453,-5.35157 6.92187,-11.69922 6.83984,-19.05469 m -67.82031,38.46875 c 3.51172,-0.75781 6.39844,-2.62109 8.66016,-5.59375 2.26171,-2.97266 3.39062,-6.28125 3.39062,-9.92188 0,-3.46093 -1.21484,-6.17578 -3.64062,-8.13671 -2.42969,-1.96094 -5.23047,-2.60157 -8.41016,-1.91407 -3.09766,0.66797 -5.85938,2.50782 -8.28516,5.51563 -2.42968,3.01172 -3.64062,6.24609 -3.64062,9.70703 0,3.64062 1.1289,6.46094 3.38672,8.45703 2.26172,2 5.10547,2.62891 8.53906,1.88672 m -17.21094,-34.23828 c -0.16797,-5.02344 -1.58984,-9.13281 -4.26953,-12.32813 -2.67969,-3.19531 -6.02344,-4.53515 -10.03906,-4.02734 -0.25391,0.0547 -0.39844,0 -0.44141,-0.17188 -0.043,-0.16796 0.0195,-0.35546 0.1875,-0.57031 l 13.6836,-19.19922 c 0.5,-0.64062 0.7539,-1.36328 0.7539,-2.16015 v -15.98047 c 0,-0.44141 -0.14844,-0.78906 -0.4414,-1.03516 -0.29297,-0.24609 -0.64844,-0.32812 -1.06641,-0.23828 l -47.07031,10.15625 c -0.42188,0.0898 -0.77735,0.32422 -1.07032,0.69531 -0.29296,0.375 -0.4375,0.78516 -0.4375,1.22657 v 15.58203 c 0,0.44531 0.14454,0.78906 0.4375,1.03515 0.29297,0.25 0.64844,0.32813 1.07032,0.23828 l 22.84375,-4.92968 c 0.25,-0.0547 0.41797,0 0.5039,0.15625 0.082,0.16406 0.0391,0.34765 -0.1289,0.5625 l -15.5625,20.40234 c -0.33594,0.60547 -0.50391,0.99609 -0.50391,1.17188 0,0.17968 0.16797,0.5 0.50391,0.95703 l 9.16406,8.14453 c 0.25,0.30469 0.58203,0.40625 1.00391,0.3164 0.33203,-0.0703 0.66796,-0.32031 1.0039,-0.75 1.50391,-1.74218 2.96875,-2.76953 4.39063,-3.07812 1.58984,-0.34375 2.91015,-0.0273 3.95703,0.94531 1.04687,0.97266 1.65234,2.375 1.82031,4.20313 v 15.71093 c -0.16797,1.99219 -0.77344,3.69922 -1.82031,5.1211 -1.04688,1.42578 -2.36719,2.30859 -3.95703,2.65234 -1.58985,0.33985 -2.86328,0.0195 -3.82813,-0.97265 -0.96094,-0.99219 -1.52734,-2.44532 -1.69531,-4.36329 -0.082,-0.86718 -0.125,-2.32421 -0.125,-4.36718 0,-1.0625 -0.5,-1.48828 -1.50391,-1.27344 L 319.01562,183.75 c -1.0039,0.21484 -1.50781,0.85546 -1.50781,1.92187 0,2.92969 0.043,5.14063 0.125,6.63281 0.082,4.50782 1.25781,8.27344 3.51563,11.29297 2.25781,3.01953 5.375,5.07813 9.35156,6.17188 3.97266,1.09375 8.47266,1.10156 13.49219,0.0195 4.85547,-1.04688 9.18359,-2.96094 12.99609,-5.73438 3.80469,-2.77343 6.81641,-6.15234 9.03516,-10.14062 2.21875,-3.98438 3.36718,-8.25 3.45312,-12.79688 0.082,-1.25781 0.10156,-2.68359 0.0625,-4.27343 -0.043,-1.58985 -0.0625,-2.78125 -0.0625,-3.58204 0,-0.70703 0.0195,-1.82421 0.0625,-3.34375 0.0391,-1.51562 0.0195,-2.80078 -0.0625,-3.84765 m -78.02734,-38.82813 -8.16016,5.22266 c -0.7539,0.51562 -1.1289,1.22266 -1.1289,2.10547 v 13.98437 c 0,1.06641 0.45703,1.5 1.3789,1.30078 l 0.25,-0.0547 7.91016,-2.64063 c 0.41797,-0.0898 0.6289,0.0469 0.6289,0.39844 v 70.71094 c 0,0.44531 0.14454,0.79297 0.4375,1.03906 0.29297,0.25 0.64844,0.32422 1.06641,0.23437 l 17.82422,-3.84375 c 0.42187,-0.0898 0.77344,-0.32031 1.07031,-0.69531 0.28906,-0.375 0.4375,-0.78515 0.4375,-1.23047 v -90.01953 c 0,-0.4414 -0.14844,-0.78906 -0.4375,-1.03515 -0.29687,-0.2461 -0.64844,-0.32813 -1.07031,-0.23829 l -18.32422,3.95313 c -0.58594,0.12891 -1.21484,0.39844 -1.88281,0.80859 m -56.48828,35.08985 c -6.02344,1.30078 -10.58594,4.68359 -13.6836,10.14453 -0.33593,0.60547 -0.67187,0.9414 -1.0039,1.01562 l -0.25,-0.0781 c -2.84375,-4.625 -7.57422,-6.22266 -14.1836,-4.79688 -4.35156,0.9375 -7.99218,3.1875 -10.92187,6.75 -0.16797,0.21485 -0.33594,0.29297 -0.50391,0.24219 -0.16797,-0.0508 -0.25,-0.21484 -0.25,-0.48047 v -1.33203 c 0,-0.44141 -0.14453,-0.78906 -0.4375,-1.03516 -0.29687,-0.24609 -0.64844,-0.32812 -1.07031,-0.23828 l -17.82422,3.84766 c -0.41797,0.0898 -0.77344,0.32422 -1.06641,0.69531 -0.29296,0.375 -0.4375,0.78516 -0.4375,1.22656 v 65.65235 c 0,0.44531 0.14454,0.78906 0.4375,1.03515 0.29297,0.25 0.64844,0.32813 1.06641,0.23829 l 17.82422,-3.84766 c 0.42187,-0.0898 0.77344,-0.32031 1.07031,-0.69531 0.29297,-0.375 0.4375,-0.78125 0.4375,-1.22657 v -43.27734 c 0,-1.95312 0.37891,-3.54687 1.12891,-4.77344 0.7539,-1.22656 1.80078,-1.98828 3.14062,-2.27734 1.25391,-0.26953 2.23828,0.0742 2.94922,1.03125 0.71094,0.95703 1.06641,2.41016 1.06641,4.36328 v 43.14453 c 0,0.44531 0.14453,0.79297 0.4375,1.03906 0.29297,0.2461 0.64844,0.32422 1.07031,0.23438 l 17.82422,-3.84372 c 0.41797,-0.0898 0.77344,-0.32031 1.06641,-0.69531 0.29296,-0.375 0.4375,-0.78516 0.4375,-1.23047 v -43.27735 c 0,-1.95312 0.3789,-3.54296 1.13281,-4.76953 0.7539,-1.23047 1.79687,-1.98828 3.13672,-2.27734 1.2539,-0.26953 2.23828,0.0742 2.94922,1.02734 0.71093,0.95703 1.0664,2.41407 1.0664,4.36719 v 43.14453 c 0,0.44531 0.14844,0.78906 0.44141,1.03516 0.29297,0.25 0.64453,0.32812 1.0664,0.23828 l 17.82422,-3.84766 c 0.41797,-0.0898 0.77344,-0.32031 1.06641,-0.69531 0.29297,-0.37109 0.44141,-0.78125 0.44141,-1.22656 v -44.7461 c 0,-7.54296 -1.42579,-13.05078 -4.26954,-16.52343 -2.84375,-3.46875 -7.23828,-4.5625 -13.17968,-3.28125 m -100.63672,60.19922 4.64453,-29.5 c 0.082,-0.28516 0.20703,-0.44532 0.37891,-0.48438 0.16406,-0.0352 0.29296,0.0703 0.375,0.32031 l 3.89062,27.66016 c 0,0.44531 -0.16797,0.69922 -0.5,0.77344 l -8.28516,1.78515 c -0.41796,0.0899 -0.58593,-0.0937 -0.5039,-0.55468 m 15.0664,28.17578 18.32422,-3.95313 c 0.92188,-0.19922 1.38282,-0.69922 1.38282,-1.49609 l -0.125,-0.50781 -18.20313,-86.09375 c -0.16797,-0.9375 -0.71094,-1.3125 -1.63281,-1.11329 l -20.46094,4.41407 c -0.92187,0.19922 -1.46484,0.80859 -1.63281,1.82031 l -18.19922,93.94531 c -0.25391,1.20703 0.16797,1.69531 1.25391,1.46094 l 17.82812,-3.84766 c 1.00391,-0.21484 1.54688,-0.82031 1.62891,-1.8164 l 1.88281,-11.98828 c 0,-0.44532 0.25391,-0.72266 0.75391,-0.83204 l 13.30468,-2.87109 c 0.50391,-0.10547 0.75391,0.0625 0.75391,0.50781 l 1.50781,11.25782 c 0.082,0.96093 0.625,1.32812 1.63281,1.11328"
     fill-opacity="1"
     fill-rule="nonzero"
     id="path8" />
</svg>
