<?xml version="1.0" encoding="UTF-8" standalone="no"?>
<svg
   width="676"
   zoomAndPan="magnify"
   viewBox="0 0 507 355.49997"
   height="474"
   preserveAspectRatio="xMidYMid"
   version="1.0"
   id="svg2"
   sodipodi:docname="Zitat_Anfuehrungszeichen.svg"
   inkscape:version="1.4.3 (1:1.4.3+202512261035+0d15f75042)"
   xmlns:inkscape="http://www.inkscape.org/namespaces/inkscape"
   xmlns:sodipodi="http://sodipodi.sourceforge.net/DTD/sodipodi-0.dtd"
   xmlns="http://www.w3.org/2000/svg"
   xmlns:svg="http://www.w3.org/2000/svg">
  <defs
     id="defs2" />
  <sodipodi:namedview
     id="namedview2"
     pagecolor="#ffffff"
     bordercolor="#666666"
     borderopacity="1.0"
     inkscape:showpageshadow="2"
     inkscape:pageopacity="0.0"
     inkscape:pagecheckerboard="0"
     inkscape:deskcolor="#d1d1d1"
     inkscape:zoom="0.57111111"
     inkscape:cx="719.64981"
     inkscape:cy="900"
     inkscape:window-width="3370"
     inkscape:window-height="1371"
     inkscape:window-x="70"
     inkscape:window-y="32"
     inkscape:window-maximized="1"
     inkscape:current-layer="svg2" />
  <path
     fill="#008939"
     d="M 21.68749,251.76563 0,355.36328 c 86.734337,0 148.1679,-24.09765 192.7421,-69.86719 44.57029,-46.98046 66.24606,-104.80468 66.24606,-169.85546 C 258.98816,44.57422 225.26162,0 157.80071,0 92.749958,0 55.414038,43.36328 55.414038,96.37109 c 0,40.95704 26.496082,73.48438 68.660122,83.1211 -8.43749,49.38672 -39.746072,74.68359 -102.38667,72.27344 m 248.14442,0 -21.68749,103.59765 c 86.73824,0 148.17181,-24.09765 192.7421,-69.86719 44.5742,-46.98046 66.24997,-104.80468 66.24997,-169.85546 C 507.13649,44.57422 473.40603,0 405.96075,0 340.91,0 303.56236,43.36328 303.56236,96.37109 c 0,40.95704 26.5039,73.48438 68.66794,83.1211 -8.43359,49.38672 -39.75779,74.68359 -102.39839,72.27344"
     fill-opacity="1"
     fill-rule="nonzero"
     id="path2" />
</svg>
