<svg width="16" height="17" viewBox="0 0 16 17" fill="none" xmlns="http://www.w3.org/2000/svg">
<path d="M2 2.63379C1.44772 2.63379 1 3.0815 1 3.63379V13.6338C1 14.1861 1.44772 14.6338 2 14.6338H14C14.5523 14.6338 15 14.1861 15 13.6338V3.63379C15 3.0815 14.5523 2.63379 14 2.63379H2ZM14 1.63379C15.1046 1.63379 16 2.52922 16 3.63379V13.6338C16 14.7384 15.1046 15.6338 14 15.6338H2C0.895431 15.6338 0 14.7384 0 13.6338V3.63379C0 2.52922 0.895431 1.63379 2 1.63379H14Z" fill="#4D5970"/>
<path d="M6.8 11.6338C6.35817 11.6338 6 11.8576 6 12.1338V13.1338C6 13.4099 6.35817 13.6338 6.8 13.6338H13.2C13.6418 13.6338 14 13.4099 14 13.1338V12.1338C14 11.8576 13.6418 11.6338 13.2 11.6338H6.8Z" fill="#4D5970"/>
</svg>
