<svg width="10" height="6" viewBox="0 0 10 6" fill="none" xmlns="http://www.w3.org/2000/svg">
<path d="M9.88702 5.87412C9.85129 5.91402 9.80886 5.94568 9.76214 5.96728C9.71541 5.98888 9.66533 6 9.61474 6C9.56416 6 9.51407 5.98888 9.46735 5.96728C9.42063 5.94568 9.37819 5.91402 9.34247 5.87412L4.9999 1.03507L0.657331 5.87412C0.621576 5.91396 0.579128 5.94556 0.532411 5.96712C0.485694 5.98868 0.435622 5.99978 0.385056 5.99978C0.33449 5.99978 0.284418 5.98868 0.237701 5.96712C0.190984 5.94556 0.148536 5.91396 0.112781 5.87412C0.0770244 5.83429 0.0486612 5.78699 0.0293102 5.73495C0.00995919 5.6829 -3.25991e-08 5.62711 -3.75243e-08 5.57077C-4.24495e-08 5.51444 0.00995917 5.45865 0.0293102 5.4066C0.0486612 5.35455 0.0770244 5.30726 0.112781 5.26742L4.72762 0.125877C4.76335 0.0859761 4.80578 0.0543189 4.85251 0.0327191C4.89923 0.0111189 4.94931 4.41545e-07 4.9999 4.37123e-07C5.05048 4.327e-07 5.10057 0.0111188 5.14729 0.0327191C5.19401 0.0543188 5.23645 0.0859761 5.27217 0.125877L9.88702 5.26742C9.92283 5.30722 9.95125 5.3545 9.97063 5.40656C9.99002 5.45861 10 5.51441 10 5.57077C10 5.62713 9.99002 5.68293 9.97063 5.73499C9.95125 5.78704 9.92283 5.83432 9.88702 5.87412Z" fill="#3C4658"/>
<path d="M9.88702 5.87412C9.85129 5.91402 9.80886 5.94568 9.76214 5.96728C9.71541 5.98888 9.66533 6 9.61474 6C9.56416 6 9.51407 5.98888 9.46735 5.96728C9.42063 5.94568 9.37819 5.91402 9.34247 5.87412L4.9999 1.03507L0.657331 5.87412C0.621576 5.91396 0.579128 5.94556 0.532411 5.96712C0.485694 5.98868 0.435622 5.99978 0.385056 5.99978C0.33449 5.99978 0.284418 5.98868 0.237701 5.96712C0.190984 5.94556 0.148536 5.91396 0.112781 5.87412C0.0770244 5.83429 0.0486612 5.78699 0.0293102 5.73495C0.00995919 5.6829 -3.25991e-08 5.62711 -3.75243e-08 5.57077C-4.24495e-08 5.51444 0.00995917 5.45865 0.0293102 5.4066C0.0486612 5.35455 0.0770244 5.30726 0.112781 5.26742L4.72762 0.125877C4.76335 0.0859761 4.80578 0.0543189 4.85251 0.0327191C4.89923 0.0111189 4.94931 4.41545e-07 4.9999 4.37123e-07C5.05048 4.327e-07 5.10057 0.0111188 5.14729 0.0327191C5.19401 0.0543188 5.23645 0.0859761 5.27217 0.125877L9.88702 5.26742C9.92283 5.30722 9.95125 5.3545 9.97063 5.40656C9.99002 5.45861 10 5.51441 10 5.57077C10 5.62713 9.99002 5.68293 9.97063 5.73499C9.95125 5.78704 9.92283 5.83432 9.88702 5.87412Z" stroke="#3C4658"/>
</svg>
