<svg width="17" height="16" viewBox="0 0 17 16" fill="none" xmlns="http://www.w3.org/2000/svg">
<path d="M10 1H7C6.72386 1 6.5 1.22386 6.5 1.5V2.5H10.5V1.5C10.5 1.22386 10.2761 1 10 1ZM5.5 2.5V1.5C5.5 0.671573 6.17157 0 7 0H10C10.8284 0 11.5 0.671573 11.5 1.5V2.5H13.9943C13.9977 2.49997 14.0011 2.49997 14.0046 2.5H15C15.2761 2.5 15.5 2.72386 15.5 3C15.5 3.27614 15.2761 3.5 15 3.5H14.4616L13.6088 14.1595C13.5257 15.1989 12.6579 16 11.6152 16H5.38479C4.34207 16 3.47431 15.1989 3.39116 14.1595L2.5384 3.5H2C1.72386 3.5 1.5 3.27614 1.5 3C1.5 2.72386 1.72386 2.5 2 2.5H2.99544C2.99885 2.49997 3.00226 2.49997 3.00566 2.5H5.5ZM3.5416 3.5L4.38798 14.0797C4.42955 14.5994 4.86343 15 5.38479 15H11.6152C12.1366 15 12.5704 14.5994 12.612 14.0797L13.4584 3.5H3.5416ZM11.0294 4.50086C10.7537 4.48465 10.5171 4.69497 10.5009 4.97064L10.0009 13.4706C9.98465 13.7463 10.195 13.9829 10.4706 13.9991C10.7463 14.0154 10.9829 13.805 10.9991 13.5294L11.4991 5.02936C11.5154 4.7537 11.305 4.51708 11.0294 4.50086ZM5.97064 4.50086C5.69497 4.51708 5.48465 4.7537 5.50086 5.02936L6.00086 13.5294C6.01708 13.805 6.2537 14.0154 6.52936 13.9991C6.80503 13.9829 7.01535 13.7463 6.99914 13.4706L6.49914 4.97064C6.48292 4.69497 6.2463 4.48465 5.97064 4.50086ZM8.5 4.5C8.22386 4.5 8 4.72386 8 5V13.5C8 13.7761 8.22386 14 8.5 14C8.77614 14 9 13.7761 9 13.5V5C9 4.72386 8.77614 4.5 8.5 4.5Z" fill="#EF4444"/>
</svg>
