<svg width="18" height="18" viewBox="0 0 18 18" fill="none" xmlns="http://www.w3.org/2000/svg">
<path d="M14.2508 1.33894C13.7488 0.836891 12.9348 0.836891 12.4328 1.33894L9.0818 4.6899L8.39333 4.00144C8.18538 3.79348 7.84822 3.79348 7.64026 4.00144C7.43231 4.20939 7.43231 4.54655 7.64026 4.75451L8.86123 5.97547L1.25026 13.5864C1.1504 13.6863 1.0943 13.8217 1.0943 13.963V15.8724L0.185263 16.7814C-0.0226917 16.9894 -0.0226917 17.3266 0.185263 17.5345C0.393217 17.7425 0.730377 17.7425 0.938331 17.5345L1.84737 16.6255H3.7568C3.89802 16.6255 4.03347 16.5694 4.13333 16.4695L11.7443 8.85854L12.9653 10.0795C13.1732 10.2875 13.5104 10.2875 13.7183 10.0795C13.9263 9.87155 13.9263 9.53439 13.7183 9.32644L13.0299 8.63797L16.3808 5.28701C16.8829 4.78496 16.8829 3.97098 16.3808 3.46894L14.2508 1.33894ZM2.1593 14.1835L9.6143 6.72854L10.9912 8.10547L3.53623 15.5605H2.1593V14.1835Z" fill="#3C4658"/>
</svg>
