<svg width="20" height="28" viewBox="0 0 20 28" fill="none" xmlns="http://www.w3.org/2000/svg">
<path d="M0.5 11.3828V19.3828H8" stroke="#4D5970"/>
<path d="M19.5 15.8828L19.5 7.88281L10 7.88281" stroke="#4D5970"/>
<line x1="1" y1="9.88281" y2="9.88281" stroke="#4D5970"/>
<line x1="1" y1="7.88281" y2="7.88281" stroke="#4D5970"/>
<line x1="3" y1="7.88281" x2="2" y2="7.88281" stroke="#4D5970"/>
<line x1="5" y1="7.88281" x2="4" y2="7.88281" stroke="#4D5970"/>
<line x1="7" y1="7.88281" x2="6" y2="7.88281" stroke="#4D5970"/>
<line x1="9" y1="7.88281" x2="8" y2="7.88281" stroke="#4D5970"/>
<line x1="19" y1="17.3828" x2="20" y2="17.3828" stroke="#4D5970"/>
<line x1="19" y1="19.3828" x2="20" y2="19.3828" stroke="#4D5970"/>
<line x1="17" y1="19.3828" x2="18" y2="19.3828" stroke="#4D5970"/>
<line x1="15" y1="19.3828" x2="16" y2="19.3828" stroke="#4D5970"/>
<line x1="13" y1="19.3828" x2="14" y2="19.3828" stroke="#4D5970"/>
<line x1="11" y1="19.3828" x2="12" y2="19.3828" stroke="#4D5970"/>
<line x1="9" y1="19.3828" x2="10" y2="19.3828" stroke="#4D5970"/>
</svg>
