<svg width="16" height="17" viewBox="0 0 16 17" fill="none" xmlns="http://www.w3.org/2000/svg">
<path d="M2 2.63379C1.44772 2.63379 1 3.0815 1 3.63379V13.6338C1 14.1861 1.44772 14.6338 2 14.6338H14C14.5523 14.6338 15 14.1861 15 13.6338V3.63379C15 3.0815 14.5523 2.63379 14 2.63379H2ZM14 1.63379C15.1046 1.63379 16 2.52922 16 3.63379V13.6338C16 14.7384 15.1046 15.6338 14 15.6338H2C0.895431 15.6338 0 14.7384 0 13.6338V3.63379C0 2.52922 0.895431 1.63379 2 1.63379H14Z" fill="#4D5970"/>
<path d="M4 6.43379C4 5.99196 3.77614 5.63379 3.5 5.63379H2.5C2.22386 5.63379 2 5.99196 2 6.43379V12.8338C2 13.2756 2.22386 13.6338 2.5 13.6338H3.5C3.77614 13.6338 4 13.2756 4 12.8338V6.43379Z" fill="#4D5970"/>
</svg>
