<?xml version="1.0" encoding="UTF-8" standalone="no"?>
<svg
   version="1.1"
   id="svg2"
   viewBox="0 0 24.000001 24.000001"
   height="24"
   width="24"
   sodipodi:docname="sunflower.svg"
   inkscape:version="1.4.2 (1:1.4.2+202505120737+ebf0e940d0)"
   xmlns:inkscape="http://www.inkscape.org/namespaces/inkscape"
   xmlns:sodipodi="http://sodipodi.sourceforge.net/DTD/sodipodi-0.dtd"
   xmlns="http://www.w3.org/2000/svg"
   xmlns:svg="http://www.w3.org/2000/svg"
   xmlns:rdf="http://www.w3.org/1999/02/22-rdf-syntax-ns#"
   xmlns:cc="http://creativecommons.org/ns#"
   xmlns:dc="http://purl.org/dc/elements/1.1/">
  <sodipodi:namedview
     pagecolor="#ffffff"
     bordercolor="#666666"
     borderopacity="1"
     objecttolerance="10"
     gridtolerance="10"
     guidetolerance="10"
     inkscape:pageopacity="0"
     inkscape:pageshadow="2"
     inkscape:window-width="1606"
     inkscape:window-height="1082"
     id="namedview12"
     showgrid="false"
     inkscape:zoom="8.8366989"
     inkscape:cx="-18.558967"
     inkscape:cy="17.710233"
     inkscape:window-x="1755"
     inkscape:window-y="147"
     inkscape:window-maximized="0"
     inkscape:current-layer="Layer_x0020_1-4"
     inkscape:pagecheckerboard="0"
     inkscape:showpageshadow="2"
     inkscape:deskcolor="#d1d1d1" />
  <defs
     id="defs4">
    <style
       type="text/css"
       id="style4140"><![CDATA[
    .fil0 {fill:#47B5E7;fill-rule:nonzero}
    .fil2 {fill:#FEFEFE;fill-rule:nonzero}
    .fil1 {fill:#FFF225;fill-rule:nonzero}
   ]]></style>
    <style
       type="text/css"
       id="style4229"><![CDATA[
    .fil0 {fill:#FFF225;fill-rule:nonzero}
   ]]></style>
  </defs>
  <metadata
     id="metadata7">
    <rdf:RDF>
      <cc:Work
         rdf:about="">
        <dc:format>image/svg+xml</dc:format>
        <dc:type
           rdf:resource="http://purl.org/dc/dcmitype/StillImage" />
      </cc:Work>
    </rdf:RDF>
  </metadata>
  <g
     transform="matrix(10.000001,0,0,10.000001,0,-7502.0929)"
     id="layer1">
    <g
       transform="matrix(0.04221784,0,0,0.04221785,0.04221784,750.25128)"
       id="g4240"
       style="clip-rule:evenodd;fill-rule:evenodd;image-rendering:optimizeQuality;shape-rendering:geometricPrecision;text-rendering:geometricPrecision">
      <g
         id="Layer_x0020_1-4">
        <metadata
           id="CorelCorpID_0Corel-Layer-0" />
        <path
           style="fill:#3c4658;fill-opacity:1;fill-rule:nonzero;stroke-width:0.00794299"
           class="fil0"
           d="m 55.442894,23.841353 c -0.02383,-0.142974 -0.389207,-0.278005 -0.643382,-0.484523 -0.841958,-0.698983 -3.852351,-3.661719 -9.769879,-3.471087 -0.746642,0.02383 -1.429739,0.09532 -2.057235,0.198575 1.262936,-0.405093 1.914261,-0.651325 2.295524,-0.802242 0.460694,-0.182689 3.47903,-1.215278 5.107344,-6.529139 0.13503,-0.45275 0.53218,-1.548883 0.436864,-1.628313 -0.119145,-0.103259 -1.135848,0.07943 -2.160493,0.706926 -1.032589,0.627497 -4.48779,1.175563 -4.900826,1.239107 -0.23829,0.03972 -1.254992,-0.111202 -2.780047,0.683097 1.707743,-1.755401 3.526688,-4.2574429 4.011211,-7.760302 0.230346,-1.683914 0.135031,-2.3670113 0.06354,-2.3590683 -0.103259,0.00794 -0.15886,0.00794 -0.285948,0.047658 -0.381264,0.1112019 -0.77047,0.4368645 -2.025463,1.2788215 -1.262935,0.8419571 -2.597358,1.771287 -2.597358,1.771287 0,0 0.460694,-4.5751628 0.31772,-4.6863647 -0.142974,-0.1032588 -2.740332,-0.07943 -6.727714,4.3686451 0,0 0.452751,-3.8046927 -0.29389,-5.2423741 0,0 -0.206518,-1.04053177 -0.373321,-1.58065516 -0.07943,-0.27006169 -0.29389,-0.55600937 -0.325662,-0.53218039 -0.03972,0.031772 -0.39715,0.0873729 -0.961102,0.73869816 C 30.891109,0.80667895 26.800468,2.0378425 26.125314,7.3358175 25.60902,5.199153 24.52083,2.3396762 21.836099,0.89405185 20.422247,-0.48802857 19.739149,-0.97255102 19.588233,-0.99637999 h -0.02383 c 0,0 0,0 0,0 -0.07149,0.031772 -0.03972,0.69104021 -0.270062,2.18432249 -0.262119,1.6680281 -0.492466,2.1922655 -0.492466,2.1922655 0,0 -2.811818,-2.47821316 -2.883305,-2.54970008 -0.135031,-0.12708785 -1.850717,5.30591798 -1.342366,8.01447788 0,0 -0.889615,-0.6910402 -2.509985,-1.5250543 C 10.223446,6.3747156 7.1336227,6.2079128 7.1495087,6.3588296 7.1892237,6.6050624 9.7627528,11.632976 10.843,13.404263 c 0,0 -6.9342316,-1.191449 -6.8150867,-0.754585 0.039715,0.142974 0.2065177,0.413036 0.4765794,1.572713 0,0 -2.7244459,-0.0556 -2.6847309,0.166802 0.039715,0.254176 2.0651776,3.598175 2.2160945,3.780864 0,0 -2.1048926,0.405093 -2.5497001,0.428922 -0.3018337,0.01589 1.4059094,4.734022 6.092274,5.909585 0.7069262,0.174746 1.3900235,0.309777 2.0413487,0.405093 -1.5329972,-0.03177 -3.2327973,0.29389 -5.1867731,1.016702 0,0 -1.1279047,0.436865 -1.723629,0.913444 C 2.1215954,27.31244 -0.79348223,27.804905 -1,28.233827 v 0.03177 c 0.18268879,0.381263 3.6220039,2.740332 3.6220039,2.740332 0,0 -2.08900665,1.016702 -2.23198048,1.207334 -0.0953159,0.135031 -0.1747458,0.254176 -0.15091683,0.285948 0.023829,0.03972 0.16680281,0.206518 0.52423739,0.428921 0.83401402,0.516295 8.26071062,1.294708 8.72140412,1.112019 0.4527505,-0.182689 -4.0350394,4.869054 -4.1065264,7.410811 0,0 0.7386982,0.0556 1.1517337,0.08737 0.3177197,0.02383 -1.3503084,3.185139 -1.0484748,3.169253 2.0175197,-0.08737 5.3615194,-2.033406 5.9890154,-2.486156 0.627496,-0.444808 1.485339,-1.112019 1.715686,-1.334423 0.230347,-0.21446 -1.46151,2.811819 -0.77047,5.480664 0,0 0.222403,2.065178 0.230346,2.486156 0.0079,0.413036 0.595725,0.420979 0.595725,0.698984 -0.0079,0.341548 1.636256,-1.294708 2.414669,-1.922204 0.778413,-0.627497 1.834831,-1.842774 2.343182,-2.645016 0.508352,-0.802242 0.0556,6.26702 -0.150916,7.625271 -0.06354,0.436865 0.03177,0.484522 0.103258,0.635439 0.02383,0.04766 0.746642,-0.556009 0.976988,-0.706926 0.341549,-0.230347 3.884123,-4.988198 4.106527,-6.179647 0,0 1.890432,8.300426 2.525871,9.190041 0.09532,0.127088 0.174746,0.270061 0.254175,0.301833 h 0.0556 c 0.01589,-0.0079 0.03177,-0.02383 0.04766,-0.04766 0.190632,-0.29389 0.468637,-1.072303 0.683098,-1.135847 0.270061,-0.07943 1.072303,-0.182689 1.493282,-1.366195 0.420978,-1.183505 1.175563,-2.335239 1.532997,-5.409177 0,0 4.019154,5.12323 4.535448,5.599809 0.206518,0.190632 1.294708,-1.628313 1.77923,-4.543391 0.484522,-2.915077 -0.556009,-6.830972 -1.207335,-6.966003 0,0 -0.270061,-0.428921 0.484523,-0.15886 0.436864,0.15886 2.104892,3.058052 5.957243,5.25826 0.651325,0.373321 2.025463,0.373321 2.033406,0.349492 0.309776,-0.865786 -2.716503,-8.777005 -2.716503,-8.777005 0,0 0.07149,-0.08737 0.683097,0.15886 0.603667,0.246232 6.386165,3.987381 9.889024,2.23198 0.706926,-0.357434 0.754584,-0.428921 0.754584,-0.428921 0.405092,-1.723629 -2.684731,-4.988199 -4.583106,-6.465595 0,0 4.980255,-0.198575 5.742783,-1.525054 0,0 0.921387,-0.333606 1.390023,-0.984931 0.07943,-0.111202 -0.53218,-1.24705 -1.254993,-1.747458 -1.882488,-1.302651 -2.287581,-1.795116 -2.287581,-1.795116 0,0 0.524237,-0.635439 1.286765,-0.873729 0.762527,-0.23829 3.208968,-1.747458 2.557643,-2.494099 0,0 0.738698,-0.643383 0.762527,-0.8499 v -0.01589 0 z m -16.100443,-0.09532 c -0.77047,0.127088 -2.748275,0.174746 -0.921387,1.731572 0,0 0.333606,0.02383 -0.563952,0.556009 -0.897558,0.532181 2.001634,0.841957 2.343182,1.231164 0.341549,0.389206 -2.875363,-0.03177 -2.811819,0.92933 0.06354,0.969045 -0.556009,0.357434 1.580656,2.637073 0,0 -1.286765,-0.301834 -1.429739,-0.119145 -0.150917,0.182689 2.811819,2.637073 2.795933,3.336056 0,0 -0.603667,0.420979 -0.857843,0.0556 -0.254176,-0.365378 -2.049292,-2.351125 -2.335239,-2.406726 -0.222404,-0.03972 -0.63544,0.0556 -0.834014,0.444807 0,0 0.786356,1.826888 0.540123,1.874546 -0.246233,0.04766 -1.469453,-0.810185 -1.469453,-0.810185 0,0 -0.802242,0.349492 -0.540124,1.080247 0.262119,0.730755 2.446441,3.201025 2.319354,3.351942 0,0 -0.182689,0.405093 -0.468637,0.381264 -0.278005,-0.03177 -1.787173,-2.764161 -2.160493,-2.86742 -0.373321,-0.103259 0.436864,2.5497 0.436864,2.5497 0,0 -1.358251,-1.437681 -1.723629,-1.731572 -0.365378,-0.301834 -0.413035,0.31772 -0.413035,0.31772 l 0.397149,3.034222 c 0,0 -4.241557,-6.322621 -3.201025,1.215278 0,0 -0.09532,0.428921 -0.23829,0.413035 -0.142974,-0.01589 -1.040532,-2.494099 -0.937273,-3.177196 0.103259,-0.683097 -0.746641,1.882489 -0.746641,1.882489 0,0 -1.32648,-5.282089 -4.082697,0.135031 0,0 -0.190632,-2.049292 -0.619554,-2.398784 -0.420978,-0.349491 -0.77047,-0.540123 -0.881672,-0.476579 -0.103259,0.06354 -1.080247,0.992874 -1.46151,1.08819 -0.381264,0.08737 0.301834,-1.223221 -0.262119,-1.596542 0,0 0.04766,-0.365377 -0.278004,-0.889615 -0.325663,-0.524237 -0.643383,-0.333605 -2.541758,1.715687 0,0 0.7943,-1.93809 0.786357,-2.613245 -0.0079,-0.667206 -0.746642,-0.826066 -0.746642,-0.826066 0,0 -1.38208,1.048475 -1.77923,0.921387 -0.405092,-0.127087 0.659269,-1.413852 0.683098,-1.771287 0.0079,-0.111201 -0.150917,-0.07149 -0.150917,-0.07149 0,0 -0.166803,-0.119144 -1.556826,0.691041 l -2.247867,1.429738 c -0.166803,-0.103259 -0.389206,-0.07943 -0.31772,-0.619553 0.01589,-0.150917 4.201843,-2.120779 4.019154,-2.327297 -0.182689,-0.206517 -1.580655,-0.548066 -1.580655,-0.548066 0,0 0.873729,-1.056418 0.61161,-1.175563 -0.262119,-0.111201 -2.168437,-0.270061 -2.168437,-0.270061 0,0 -0.333605,-0.524238 -0.262118,-0.420979 0.06354,0.103259 1.866603,-0.285948 1.866603,-0.285948 L 13.92488,28.40063 c 0,0 3.042166,-0.532181 0.357435,-2.152551 -0.992874,-0.595724 -2.033406,-1.00876 -3.153368,-1.207335 2.86742,0.142974 4.765795,-0.579838 4.440132,-1.636256 0,0 -0.08737,-0.381263 -2.946849,-1.421795 0,0 0.07943,-0.341549 0.270061,-0.389207 0.190632,-0.04766 3.161311,1.040532 2.954793,0.865786 -0.214461,-0.174745 -1.302651,-1.38208 -1.104076,-1.374137 0.198575,0.0079 1.588598,0.595724 2.057235,0.166803 0.444807,-0.413036 0.722812,-1.175563 1.016703,-1.342366 0.29389,-0.166803 -0.778414,-1.151733 0.635439,-0.698983 0,0 0.953159,-0.53218 0.198575,-1.413852 -0.754584,-0.881672 -3.137482,-3.701434 0.754584,-0.293891 0.92933,0.818128 3.256626,-1.668028 3.065994,-3.018337 0,0 0.92933,0.937273 1.127905,1.040532 0.198575,0.103259 1.501225,0.254176 1.795116,-0.198575 0.135031,-0.206517 -0.476579,-2.128721 -0.07943,-2.978621 0,0 0.166803,-0.01589 0.325663,0.166803 0.15886,0.182688 0.174745,2.184322 0.881672,2.565586 0,0 0.794299,-0.468637 0.92933,-0.810185 0.13503,-0.349492 -0.214461,2.168436 2.160493,1.080246 0,0 1.159677,-1.032588 1.493282,-1.056417 0.333606,-0.03177 -0.246232,1.22322 0.03972,1.668028 0.293891,0.444807 1.270879,0.746641 1.580656,0.190631 0.309776,-0.556009 1.795116,-1.675971 1.91426,-1.628313 0.119145,0.04766 -0.754584,2.367012 -0.857843,2.597358 -0.142973,0.333606 -0.246232,0.826071 -0.246232,0.826071 0,0 0.111202,0.651326 0.921387,0.826072 0,0 1.532997,-0.897558 3.121595,-2.057235 -0.166803,0.198575 -0.333606,0.413035 -0.508351,0.635439 0,0 -2.057235,2.120779 -2.065178,2.422612 0,0.309777 0.706926,0.992874 1.286765,0.603668 0.579838,-0.389207 1.969861,-0.961102 2.096949,-0.865786 0.119145,0.103259 0.341549,0.389206 0.0556,0.556009 -0.293891,0.166803 -1.914261,1.016703 -1.914261,1.016703 0,0 1.850717,0.127088 4.122413,-0.333606 -2.454385,0.992874 -3.304285,2.509985 -3.280456,2.652959 0.07149,0.484523 3.884123,-0.500408 3.987382,-0.262118 0.548066,1.239106 -1.207335,0.476579 -1.977805,0.603667 z"
           id="path4233"
           inkscape:connector-curvature="0" />
      </g>
    </g>
  </g>
</svg>
