<svg width="16" height="17" viewBox="0 0 16 17" fill="none" xmlns="http://www.w3.org/2000/svg">
<path d="M0 2.63281C0 1.52824 0.895431 0.632812 2 0.632812H10C11.1046 0.632812 12 1.52824 12 2.63281V4.63281H14C15.1046 4.63281 16 5.52824 16 6.63281V14.6328C16 15.7374 15.1046 16.6328 14 16.6328H6C4.89543 16.6328 4 15.7374 4 14.6328V12.6328H2C0.895431 12.6328 0 11.7374 0 10.6328V2.63281ZM5 12.6328V14.6328C5 15.1851 5.44772 15.6328 6 15.6328H14C14.5523 15.6328 15 15.1851 15 14.6328V6.63281C15 6.08053 14.5523 5.63281 14 5.63281H12V10.6328C12 11.7374 11.1046 12.6328 10 12.6328H5Z" fill="#4D5970"/>
</svg>
