<svg width="20" height="28" viewBox="0 0 20 28" fill="none" xmlns="http://www.w3.org/2000/svg">
<path d="M2 7.63281C2 6.52824 2.89543 5.63281 4 5.63281H12C13.1046 5.63281 14 6.52824 14 7.63281V9.63281H16C17.1046 9.63281 18 10.5282 18 11.6328V19.6328C18 20.7374 17.1046 21.6328 16 21.6328H8C6.89543 21.6328 6 20.7374 6 19.6328V17.6328H4C2.89543 17.6328 2 16.7374 2 15.6328V7.63281ZM4 6.63281C3.44772 6.63281 3 7.08053 3 7.63281V15.6328C3 16.1851 3.44772 16.6328 4 16.6328H12C12.5523 16.6328 13 16.1851 13 15.6328V7.63281C13 7.08053 12.5523 6.63281 12 6.63281H4Z" fill="#4D5970"/>
</svg>
