<svg width="18" height="16" viewBox="0 0 18 16" fill="none" xmlns="http://www.w3.org/2000/svg">
<path d="M0.5625 10.1375C0.87316 10.1375 1.125 10.3894 1.125 10.7V13.5125C1.125 14.1338 1.62868 14.6375 2.25 14.6375H15.75C16.3713 14.6375 16.875 14.1338 16.875 13.5125V10.7C16.875 10.3894 17.1268 10.1375 17.4375 10.1375C17.7482 10.1375 18 10.3894 18 10.7V13.5125C18 14.7552 16.9926 15.7625 15.75 15.7625H2.25C1.00736 15.7625 0 14.7552 0 13.5125V10.7C0 10.3894 0.25184 10.1375 0.5625 10.1375Z" fill="#3C4658"/>
<path d="M8.60225 0.289752C8.82192 0.0700825 9.17808 0.0700825 9.39775 0.289752L12.7727 3.66475C12.9924 3.88442 12.9924 4.24058 12.7727 4.46025C12.5531 4.67992 12.1969 4.67992 11.9773 4.46025L9.5625 2.0455V11.9375C9.5625 12.2482 9.31066 12.5 9 12.5C8.68934 12.5 8.4375 12.2482 8.4375 11.9375V2.0455L6.02275 4.46025C5.80308 4.67992 5.44692 4.67992 5.22725 4.46025C5.00758 4.24058 5.00758 3.88442 5.22725 3.66475L8.60225 0.289752Z" fill="#3C4658"/>
</svg>
