<?xml version="1.0" encoding="UTF-8" standalone="no"?>
<!-- Created with Inkscape (http://www.inkscape.org/) -->

<svg
   version="1.1"
   id="svg1"
   width="1156.28"
   height="666.66669"
   viewBox="0 0 1156.28 666.66669"
   sodipodi:docname="claim.svg"
   inkscape:version="1.4.3 (1:1.4.3+202512261035+0d15f75042)"
   xmlns:inkscape="http://www.inkscape.org/namespaces/inkscape"
   xmlns:sodipodi="http://sodipodi.sourceforge.net/DTD/sodipodi-0.dtd"
   xmlns="http://www.w3.org/2000/svg"
   xmlns:svg="http://www.w3.org/2000/svg">
  <defs
     id="defs1" />
  <sodipodi:namedview
     id="namedview1"
     pagecolor="#ffffff"
     bordercolor="#666666"
     borderopacity="1.0"
     inkscape:showpageshadow="2"
     inkscape:pageopacity="0.0"
     inkscape:pagecheckerboard="0"
     inkscape:deskcolor="#d1d1d1"
     inkscape:zoom="0.77662846"
     inkscape:cx="578.14003"
     inkscape:cy="333.4928"
     inkscape:window-width="3370"
     inkscape:window-height="1371"
     inkscape:window-x="70"
     inkscape:window-y="32"
     inkscape:window-maximized="1"
     inkscape:current-layer="g1">
    <inkscape:page
       x="0"
       y="0"
       inkscape:label="1"
       id="page1"
       width="1156.28"
       height="666.66669"
       margin="0"
       bleed="0" />
  </sodipodi:namedview>
  <g
     id="g1"
     inkscape:groupmode="layer"
     inkscape:label="1">
    <g
       id="group-R5">
      <path
         id="path2"
         d="m 695.98,1643.29 c 315.33,0 495.17,171.02 561.68,464.88 l 155.21,696.12 c 56.66,257.74 34.49,409.49 -51.73,527.51 -91.16,118.03 -234.04,173.43 -408.956,173.43 -320.258,0 -509.95,-171.02 -578.93,-486.56 L 215.59,2303.28 c -46.809,-207.15 -36.953,-337.22 22.172,-438.39 83.758,-142.11 241.426,-221.6 458.218,-221.6 m 12.317,296.27 c -103.469,0 -157.668,62.63 -157.668,166.2 0,21.68 2.461,45.77 12.32,89.13 l 184.762,826.19 c 29.562,130.07 98.547,187.88 189.695,187.88 96.074,0 145.344,-62.63 145.344,-161.39 0,-26.49 -4.92,-55.39 -12.32,-86.71 L 888.133,2125.04 C 858.57,1987.74 801.91,1939.56 708.297,1939.56 m 78.836,1645.16 c 113.32,0 189.687,72.26 192.152,168.61 4.926,96.35 -68.976,161.38 -174.91,161.38 -115.789,0 -194.617,-77.07 -197.086,-171.01 -4.926,-93.95 76.371,-158.98 179.844,-158.98 m 495.167,0 c 113.32,0 189.69,72.26 192.16,168.61 4.92,96.35 -68.98,161.38 -174.92,161.38 -115.78,0 -194.61,-77.07 -197.08,-171.01 -4.92,-93.95 76.37,-158.98 179.84,-158.98 M 1388.96,1674.6 h 923.83 l 61.59,296.28 H 1859.5 l 778.47,1216.4 61.59,286.64 h -923.83 l -64.05,-293.87 h 514.88 L 1448.09,1966.06 Z m 1181.49,0 h 453.29 c 426.2,0 633.13,149.34 719.36,534.74 l 133.03,599.77 c 49.27,226.42 34.49,409.48 -83.77,527.51 -98.54,96.35 -229.1,137.3 -436.04,137.3 h -386.78 z m 433.59,289.05 268.52,1216.4 h 59.12 c 83.77,0 140.43,-19.26 169.99,-60.21 39.41,-55.41 44.34,-130.07 19.71,-243.28 L 3371.1,2202.11 c -39.42,-180.65 -118.25,-238.46 -322.72,-238.46 z m 842.25,-289.05 h 881.94 l 61.59,293.87 h -509.95 l 108.4,505.83 h 386.77 l 56.66,286.64 h -379.38 l 91.15,419.11 h 505.03 l 64.05,293.87 h -872.1 z m 1072.1,0 h 332.58 c 96.08,419.12 179.84,843.05 246.35,1262.17 h 9.86 l 46.8,-867.14 h 211.87 l 445.9,869.55 h 9.85 C 6105.82,2520.06 5999.88,2088.9 5911.2,1674.6 h 352.28 l 399.09,1799.32 h -470.53 l -396.63,-821.38 h -9.85 l -22.18,821.38 h -445.89 z m 1607.2,0 h 367.06 l 391.71,1799.32 h -367.07 z m 619.07,0 h 367.07 l 169.98,782.84 h 110.86 l 24.64,-782.84 h 364.6 l -59.12,835.83 c 221.71,89.12 337.51,279.41 337.51,525.1 0,214.38 -86.23,337.22 -236.5,395.03 -76.38,28.91 -179.85,43.36 -283.31,43.36 h -404.02 z m 598.64,1062.25 96.08,448.02 h 81.3 c 130.57,0 179.84,-57.81 179.84,-175.83 0,-175.84 -93.62,-272.19 -283.31,-272.19 h -73.91"
         style="fill:#cfe63f;fill-opacity:1;fill-rule:nonzero;stroke:none"
         transform="matrix(0.13333333,0,0,-0.13333333,0,666.66667)" />
      <path
         id="path3"
         d="m 1319.99,258.449 h 259.02 c 243.54,0 361.79,85.34 411.06,305.563 l 76.01,342.73 c 28.16,129.388 19.71,233.988 -47.86,301.438 -56.31,55.06 -130.92,78.45 -249.16,78.45 h -221.02 z m 247.76,165.172 153.44,695.089 h 33.79 c 47.86,0 80.23,-11.01 97.13,-34.41 22.52,-31.66 25.34,-74.33 11.26,-139.019 l -85.87,-385.39 c -22.52,-103.231 -67.57,-136.27 -184.41,-136.27 z m 516.48,-165.172 h 503.97 l 35.19,167.93 h -291.4 l 61.94,289.043 h 221.02 l 32.37,163.797 h -216.79 l 52.09,239.491 h 288.58 l 36.6,167.92 h -498.33 z m 647.82,0 h 209.75 l 97.14,447.34 h 63.35 l 14.07,-447.34 h 208.35 l -33.79,477.621 c 126.7,50.922 192.86,159.66 192.86,300.06 0,122.5 -49.27,192.69 -135.14,225.73 -43.64,16.52 -102.77,24.77 -161.89,24.77 h -230.87 z m 342.08,607 54.9,256.021 h 46.46 c 74.61,0 102.76,-33.04 102.76,-100.48 0,-100.478 -53.49,-155.541 -161.89,-155.541 z m 591.23,-607 h 206.94 l 68.98,319.332 78.83,112.867 57.72,-432.199 h 211.16 l -84.47,565.711 312.52,462.47 h -218.2 l -289.99,-437.7 h -5.63 l 95.73,437.7 h -209.76 z m 695.27,0 h 206.94 l 87.28,220.231 h 191.45 l -8.44,-220.231 h 208.34 l 11.27,1028.181 h -261.84 z m 354.76,385.403 160.47,407.418 h 5.63 l -22.52,-407.418 z m 431.17,-385.403 h 188.64 l 142.18,673.071 h 5.63 l 71.79,-673.071 h 197.08 L 5978.53,1286.63 H 5792.71 L 5674.46,671.379 h -5.63 l -59.12,615.251 h -235.1 z m 781.42,0 h 188.63 l 142.18,673.071 h 5.64 l 71.79,-673.071 h 197.09 L 6759.95,1286.63 H 6574.13 L 6455.88,671.379 h -5.64 l -59.12,615.251 h -235.09 z m 982.56,0 h 503.97 l 35.19,167.93 h -291.39 l 61.93,289.043 h 221.01 l 32.39,163.797 h -216.79 l 52.08,239.491 h 288.58 l 36.61,167.92 h -498.34 z m 984.27,-16.508 c 205.53,0 298.45,128 298.45,302.809 0,96.352 -33.79,161.039 -119.66,261.52 l -71.8,83.96 c -52.08,60.559 -67.57,96.348 -67.57,140.39 0,64.69 30.97,104.61 91.5,104.61 50.68,0 80.24,-30.28 80.24,-93.6 0,-20.64 -2.81,-41.29 -8.44,-61.931 h 199.9 c 12.67,97.721 2.81,173.421 -43.65,233.981 -46.45,59.19 -115.43,90.85 -222.42,90.85 -206.94,0 -301.25,-133.51 -301.25,-300.06 0,-93.599 39.42,-174.81 116.84,-264.271 l 66.17,-77.078 c 57.71,-67.441 71.79,-100.48 71.79,-148.652 0,-61.938 -28.16,-103.231 -90.1,-103.231 -67.57,0 -98.54,42.664 -98.54,116.992 0,27.532 2.82,53.68 9.85,81.211 h -202.71 c -9.86,-71.582 -8.44,-139.019 9.86,-189.949 C 7655.5,302.5 7747,241.941 7894.81,241.941"
         style="fill:#cfe63f;fill-opacity:1;fill-rule:nonzero;stroke:none"
         transform="matrix(0.13333333,0,0,-0.13333333,0,666.66667)" />
      <path
         id="path4"
         d="m 2209,3959.35 h 369.53 l 24.64,118.51 h -205.96 l 311.39,486.56 24.64,114.65 h -369.53 l -25.62,-117.54 h 205.95 l -311.39,-485.6 z m 522.16,0 h 155.7 l 143.87,357.45 h 2.96 l -19.72,-357.45 h 156.69 l 220.73,559.78 h -136.97 l -126.13,-378.65 h -3.94 l 23.64,378.65 h -150.76 l -139.94,-380.58 h -3.94 l 39.42,380.58 h -137.96 z m 815.42,-12.53 c 129.09,0 179.35,64.56 199.06,190.77 H 3612.6 c -0.98,-52.03 -13.79,-80.93 -55.18,-80.93 -17.74,0 -31.53,5.78 -40.4,17.34 -7.88,10.6 -9.85,29.87 -3.94,56.85 l 16.75,79.97 h 233.54 l 23.65,111.76 c 16.76,77.08 5.91,125.26 -26.6,160.9 -28.58,30.84 -73.91,48.18 -131.06,48.18 -115.3,0 -187.23,-69.37 -208.91,-172.46 l -40.4,-189.81 c -15.77,-72.26 -9.85,-121.4 16.75,-158.01 27.59,-39.51 79.82,-64.56 149.78,-64.56 m 1.97,351.68 14.78,67.44 c 7.89,36.61 24.64,59.74 57.16,59.74 16.75,0 29.56,-5.78 35.48,-15.42 7.88,-11.56 8.86,-28.9 2.95,-54.92 l -11.82,-56.84 z m 244.47,-339.15 h 141.9 l 121.21,559.78 h -141.9 z m 207.93,600.25 c 46.31,0 79.82,30.83 80.8,71.3 0.98,40.47 -29.56,68.4 -73.91,68.4 -47.29,0 -81.79,-32.75 -82.77,-72.26 -0.98,-39.5 32.52,-67.44 75.88,-67.44 m 246.14,-603.14 c 19.71,0 42.37,1.92 48.29,2.89 l 24.63,111.76 c -8.86,-2.89 -20.69,-4.82 -33.5,-4.82 -20.69,0 -33.51,5.78 -39.42,18.31 -5.91,12.53 -3.94,26.02 1.97,52.03 l 56.17,259.18 h 86.72 l 22.66,109.83 h -86.71 l 26.6,122.37 -141.9,-21.2 -22.66,-102.13 h -58.14 l -22.66,-107.91 h 56.16 l -59.12,-260.14 c -13.8,-60.7 -12.82,-100.2 13.79,-133.93 24.64,-30.83 67.01,-46.24 127.12,-46.24 m 339.47,-9.64 c 126.14,0 184.27,72.26 184.27,172.47 0,58.77 -20.68,99.24 -75.87,147.41 l -36.46,31.8 c -33.5,28.9 -43.36,51.06 -43.36,77.07 0,27.95 14.78,49.14 45.33,49.14 28.58,0 41.39,-20.23 41.39,-48.17 0,-9.64 -0.99,-18.31 -3.94,-28.91 h 130.07 c 2.96,35.65 1.97,69.37 -8.87,96.35 -21.68,53.96 -70.95,87.68 -155.69,87.68 -120.22,0 -184.27,-73.23 -184.27,-172.46 0,-55.89 19.7,-101.17 72.92,-148.38 l 35.47,-31.8 c 36.46,-32.75 45.33,-52.03 45.33,-76.11 0,-28.91 -13.8,-48.18 -46.32,-48.18 -34.48,0 -50.25,23.13 -50.25,56.85 0,7.71 0.98,17.34 2.95,26.01 h -132.04 c -2.96,-40.46 0.98,-76.11 15.76,-105.02 26.61,-52.02 78.84,-85.75 163.58,-85.75 m 443.44,9.64 c 19.7,0 42.36,1.92 48.28,2.89 l 24.64,111.76 c -8.88,-2.89 -20.7,-4.82 -33.51,-4.82 -20.69,0 -33.51,5.78 -39.41,18.31 -5.92,12.53 -3.95,26.02 1.96,52.03 l 56.17,259.18 h 86.72 l 22.66,109.83 h -86.71 l 26.6,122.37 -141.9,-21.2 -22.66,-102.13 h -58.14 l -22.67,-107.91 h 56.17 l -59.12,-260.14 c -13.8,-60.7 -12.81,-100.2 13.8,-133.93 24.63,-30.83 67,-46.24 127.12,-46.24 m 141.2,2.89 h 141.9 l 121.21,559.78 H 5292.4 Z m 207.92,600.25 c 46.32,0 79.82,30.83 80.81,71.3 0.98,40.47 -29.56,68.4 -73.91,68.4 -47.3,0 -81.79,-32.75 -82.77,-72.26 -0.99,-39.5 32.52,-67.44 75.87,-67.44 m 32.91,-600.25 h 141.89 l 85.73,392.14 c 8.87,42.39 30.55,60.7 56.17,60.7 14.78,0 23.65,-4.82 29.57,-13.49 6.89,-9.64 7.88,-26.01 2.95,-48.18 l -85.73,-391.17 h 141.9 l 86.72,397.92 c 8.86,38.54 29.56,54.92 54.19,54.92 15.77,0 24.64,-4.82 30.55,-13.49 6.9,-9.64 7.89,-25.05 2.96,-47.21 l -85.73,-392.14 h 141.89 l 87.71,404.66 c 12.81,57.81 5.92,97.32 -12.81,125.26 -19.71,27.94 -52.23,42.39 -91.65,42.39 -56.16,0 -101.49,-31.79 -124.16,-72.26 h -2.95 c -13.8,47.21 -50.26,72.26 -94.6,72.26 -54.2,0 -92.63,-28.91 -116.28,-74.19 h -2.96 l 12.81,61.66 h -136.97 z m 698.55,0 h 141.9 l 85.73,392.14 c 8.87,42.39 30.54,60.7 56.17,60.7 14.78,0 23.65,-4.82 29.56,-13.49 6.9,-9.64 7.89,-26.01 2.95,-48.18 l -85.72,-391.17 h 141.89 l 86.72,397.92 c 8.87,38.54 29.56,54.92 54.2,54.92 15.77,0 24.63,-4.82 30.55,-13.49 6.9,-9.64 7.88,-25.05 2.96,-47.21 l -85.74,-392.14 h 141.9 l 87.7,404.66 c 12.82,57.81 5.92,97.32 -12.81,125.26 -19.7,27.94 -52.22,42.39 -91.64,42.39 -56.17,0 -101.5,-31.79 -124.17,-72.26 h -2.95 c -13.79,47.21 -50.26,72.26 -94.6,72.26 -54.2,0 -92.63,-28.91 -116.28,-74.19 h -2.95 l 12.8,61.66 h -136.97 z m 896.12,-12.53 c 129.1,0 179.35,64.56 199.06,190.77 h -133.03 c -0.98,-52.03 -13.79,-80.93 -55.18,-80.93 -17.74,0 -31.53,5.78 -40.41,17.34 -7.88,10.6 -9.85,29.87 -3.94,56.85 l 16.76,79.97 h 233.54 l 23.65,111.76 c 16.75,77.08 5.91,125.26 -26.61,160.9 -28.57,30.84 -73.9,48.18 -131.06,48.18 -115.29,0 -187.22,-69.37 -208.91,-172.46 l -40.4,-189.81 c -15.77,-72.26 -9.85,-121.4 16.75,-158.01 27.6,-39.51 79.82,-64.56 149.78,-64.56 m 1.98,351.68 14.78,67.44 c 7.88,36.61 24.64,59.74 57.16,59.74 16.74,0 29.56,-5.78 35.47,-15.42 7.88,-11.56 8.87,-28.9 2.95,-54.92 l -11.82,-56.84 h -98.54"
         style="fill:#f2ede0;fill-opacity:1;fill-rule:nonzero;stroke:none"
         transform="matrix(0.13333333,0,0,-0.13333333,0,666.66667)" />
      <path
         id="path5"
         d="m 8212.79,4347.39 c -13.04,-2.1 -46.57,-2.83 -15.68,-28.69 0,0 5.71,-0.42 -9.53,-9.19 -15.25,-8.8 33.96,-14.03 39.78,-20.39 5.82,-6.42 -48.78,0.59 -47.71,-15.48 1.05,-16.09 -9.39,-5.93 26.87,-43.8 0,0 -21.77,4.95 -24.32,1.96 -2.55,-3.03 47.71,-43.76 47.39,-55.34 0,0 -10.23,-6.94 -14.59,-0.87 -4.35,6.09 -34.71,38.93 -39.64,39.89 -3.7,0.71 -10.79,-0.96 -14.09,-7.34 0,0 13.27,-30.25 9.14,-31.1 -4.19,-0.83 -24.94,13.46 -24.94,13.46 0,0 -13.63,-5.86 -9.14,-17.93 4.44,-12.07 41.46,-53.12 39.35,-55.63 0,0 -3.14,-6.75 -7.94,-6.28 -4.75,0.5 -30.39,45.81 -36.68,47.56 -6.34,1.73 7.34,-42.34 7.34,-42.34 0,0 -23.09,23.79 -29.25,28.75 -6.14,4.98 -7.05,-5.27 -7.05,-5.27 l 6.68,-50.29 c 0,0 -71.97,104.9 -54.38,-20.19 0,0 -1.67,-7.08 -4.05,-6.86 -2.39,0.26 -17.68,41.42 -15.93,52.65 1.79,11.28 -12.62,-31.19 -12.62,-31.19 0,0 -22.59,87.67 -69.32,-2.17 0,0 -3.25,33.93 -10.45,39.75 -7.16,5.82 -13.14,8.94 -14.94,7.89 -1.77,-1.07 -18.32,-16.45 -24.77,-17.99 -6.43,-1.5 5.14,20.35 -4.41,26.45 0,0 0.84,6.07 -4.7,14.82 -5.6,8.74 -10.96,5.47 -43.17,-28.46 0,0 13.46,32.19 13.35,43.32 -0.09,11.11 -12.64,13.65 -12.64,13.65 0,0 -23.44,-17.42 -30.23,-15.28 -6.82,2.16 11.21,23.48 11.52,29.39 0.12,1.87 -2.59,1.13 -2.59,1.13 0,0 -2.81,1.98 -26.36,-11.45 l -38.19,-23.76 c -2.79,1.67 -6.55,1.36 -5.41,10.21 0.32,2.57 71.3,35.18 68.15,38.63 -3.14,3.4 -26.87,9.06 -26.87,9.06 0,0 14.86,17.54 10.43,19.48 -4.43,1.89 -36.84,4.5 -36.84,4.5 0,0 -5.6,8.72 -4.46,6.99 1.07,-1.73 31.69,4.75 31.69,4.75 l -20.41,15.68 c 0,0 51.66,8.87 6.07,35.73 -16.89,9.91 -34.51,16.7 -53.53,20.07 48.61,-2.33 80.8,9.69 75.34,27.09 0,0 -1.54,6.31 -50.02,23.64 0,0 1.34,5.66 4.59,6.42 3.25,0.77 53.66,-17.27 50.09,-14.37 -3.59,2.9 -22.04,22.96 -18.7,22.77 3.31,-0.14 27,-9.93 34.84,-2.74 7.52,6.89 12.25,19.57 17.19,22.31 4.95,2.77 -13.19,19.17 10.72,11.6 0,0 16.19,8.9 3.43,23.42 -12.77,14.59 -53.23,61.36 12.77,4.89 15.78,-13.52 55.26,27.68 52.03,50.08 0,0 15.78,-15.55 19.12,-17.21 3.34,-1.68 25.43,-4.24 30.46,3.25 2.32,3.44 -8.1,35.32 -1.39,49.36 0,0 2.79,0.23 5.45,-2.73 2.66,-3.01 2.96,-36.26 14.95,-42.57 0,0 13.46,7.71 15.73,13.47 2.3,5.77 -3.65,-35.94 36.74,-17.96 0,0 19.63,17.08 25.27,17.59 5.59,0.52 -4.2,-20.27 0.73,-27.65 5,-7.42 21.54,-12.37 26.79,-3.11 5.28,9.24 30.48,27.74 32.44,27.01 1.97,-0.77 -12.82,-39.32 -14.5,-43.08 -2.48,-5.51 -4.21,-13.67 -4.21,-13.67 0,0 1.93,-10.76 15.68,-13.73 0,0 25.98,14.84 53.03,34.1 -2.84,-3.34 -5.7,-6.79 -8.57,-10.49 0,0 -34.97,-35.12 -35,-40.21 0.07,-5.07 12,-16.48 21.8,-10.02 9.79,6.42 33.45,15.99 35.52,14.34 2.05,-1.65 5.8,-6.4 0.89,-9.19 -4.96,-2.75 -32.46,-16.81 -32.46,-16.81 0,0 31.41,-2.12 69.89,5.5 -41.64,-16.5 -56.04,-41.65 -55.69,-44.03 1.24,-8.07 65.92,8.33 67.69,4.34 9.27,-20.65 -20.48,-7.92 -33.57,-10.09 m 273.25,-1.61 c -0.39,2.43 -6.66,4.63 -10.87,8.02 -14.27,11.63 -65.32,60.76 -165.78,57.58 -12.71,-0.41 -24.3,-1.58 -34.86,-3.33 21.38,6.79 32.47,10.85 38.9,13.33 7.8,3.05 59.06,20.21 86.64,108.28 2.37,7.53 9.03,25.68 7.35,27.05 -2.03,1.7 -19.28,-1.33 -36.71,-11.68 -17.48,-10.39 -76.19,-19.46 -83.19,-20.56 -4.09,-0.63 -21.31,1.89 -47.09,-11.32 29.05,29.15 59.84,70.57 68.1,128.75 3.95,27.89 2.29,39.26 1.06,39.19 -1.72,-0.13 -2.7,-0.13 -4.81,-0.75 -6.48,-1.9 -13.03,-7.22 -34.39,-21.18 -21.37,-13.96 -44.03,-29.45 -44.03,-29.45 0,0 7.75,75.96 5.36,77.72 -2.36,1.73 -46.47,1.3 -114.16,-72.4 0,0 7.68,63.15 -5.02,86.98 0,0 -3.53,17.24 -6.28,26.24 -1.38,4.51 -5,9.27 -5.59,8.86 -0.7,-0.47 -6.71,-1.44 -16.31,-12.24 -14.94,-16.74 -84.35,-37.19 -95.85,-125.01 -8.71,35.44 -27.17,82.84 -72.71,106.83 -25.73,24.61 -37.19,31.98 -38.48,31.33 -1.16,-0.56 -0.66,-11.53 -4.57,-36.17 -4.41,-27.65 -8.34,-36.4 -8.34,-36.4 0,0 -47.73,41.06 -48.98,42.26 -2.26,2.17 -31.35,-87.97 -22.8,-132.97 0,0 -15.12,11.46 -42.59,25.26 -31.23,15.68 -83.76,18.39 -83.37,15.96 0.61,-4.05 44.3,-87.52 62.71,-116.82 0,0 -117.71,19.78 -115.67,12.57 0.67,-2.36 3.5,-6.88 8.14,-26.1 0,0 -46.19,0.98 -45.6,-2.76 0.66,-4.18 35.03,-59.7 37.67,-62.74 0,0 -35.73,-6.75 -43.3,-7.16 -5.12,-0.27 23.86,-78.52 103.32,-98.07 12.03,-2.95 23.62,-5.15 34.71,-6.67 -26.07,0.48 -54.87,-4.83 -87.96,-16.81 0,0 -19.16,-7.31 -29.3,-15.13 -10.14,-7.91 -60.57,-16.19 -63.05,-23.36 1.18,-5.29 61.6,-45.7 61.6,-45.7 0,0 -35.39,-16.91 -37.82,-20.08 -1.67,-2.21 -3,-4.19 -2.57,-4.79 0.41,-0.61 2.79,-3.38 8.93,-7.1 14.14,-8.61 140.14,-21.47 147.92,-18.43 7.75,3 -68.46,-80.72 -69.64,-122.9 0,0 12.5,-0.87 19.52,-1.44 5.41,-0.42 -22.95,-52.78 -17.82,-52.57 34.23,1.41 91.01,33.8 101.67,41.26 10.66,7.42 25.2,18.47 29.12,22.07 3.92,3.61 -24.85,-46.69 -13.08,-90.93 0,0 3.75,-34.32 3.96,-41.27 0.18,-6.9 10.16,-6.93 10.07,-11.54 -0.09,-5.66 27.75,21.5 40.96,31.95 13.18,10.44 31.11,30.56 39.77,43.87 8.68,13.25 0.95,-103.99 -2.57,-126.53 -1.13,-7.3 0.55,-8.06 1.73,-10.49 0.36,-0.75 12.68,9.16 16.59,11.71 5.82,3.78 65.91,82.8 69.71,102.57 0,0 32.05,-137.67 42.91,-152.42 2.37,-3.19 4.32,-6.77 5.96,-4.29 3.2,4.92 7.97,17.77 11.59,18.84 4.61,1.35 18.18,3.02 25.27,22.65 7.11,19.63 19.94,38.81 25.94,89.77 0,0 68.13,-84.93 76.98,-92.84 3.52,-3.15 22.04,26.95 30.18,75.33 8.18,48.39 -9.41,113.39 -20.5,115.6 0,0 -4.64,7.15 8.27,2.63 7.37,-2.61 35.71,-50.69 101.1,-87.25 11,-6.14 34.41,-6.25 34.52,-5.84 5.28,14.37 -46.04,145.64 -46.04,145.64 0,0 1.27,1.51 11.61,-2.63 10.32,-4.15 108.3,-66.1 167.76,-37.06 12.04,5.88 12.75,7.12 12.75,7.12 6.79,28.63 -45.55,82.74 -77.71,107.32 0,0 84.44,3.34 97.4,25.25 0,0 15.56,5.49 23.58,16.35 1.42,1.9 -9.08,20.74 -21.25,29.01 -31.89,21.61 -38.79,29.76 -38.79,29.76 0,0 8.91,10.53 21.77,14.47 12.89,3.95 54.5,29.04 43.39,41.42 0.03,0 13.43,11.4 12.96,14.38"
         style="fill:#f2ede0;fill-opacity:1;fill-rule:nonzero;stroke:none"
         transform="matrix(0.13333333,0,0,-0.13333333,0,666.66667)" />
    </g>
  </g>
</svg>
