<?xml version="1.0" encoding="UTF-8"?>
<svg id="Layer_1" data-name="Layer 1" xmlns="http://www.w3.org/2000/svg" viewBox="0 0 1226.53 1854.76">
  <defs>
    <style>
      .cls-1 {
        fill: #398756;
      }
    </style>
  </defs>
  <path class="cls-1" d="M1201.44,831.63c-23.65-50.39-61.19-89.8-105.89-115.87,46.55-73.7,55.75-168.81,15.98-253.58-32.09-68.39-89.75-116.54-156.21-138.56,12.84-55.64,7.9-115.82-18.23-171.52-62-132.14-219.38-189.01-351.53-127-95.81,44.95-151.99,140.05-152.04,239.31-37.67-.03-75.95,7.98-112.32,25.04-132.14,62-189,219.39-127,351.53,14.26,30.38,33.6,56.73,56.47,78.62-33.2,1.71-66.62,9.69-98.58,24.68-132.14,62-189,219.39-127,351.53,62,132.14,219.39,189.01,351.53,127,23.74-11.14,45-25.39,63.62-41.99,116.36,143.15,119.8,206.52,131.9,279.47,32.98,198.85-40.33,394.47-40.33,394.47h267.5s-57.03-187.86-42.25-381.86c5.32-69.82,65.94-180.59,125.98-276.87,60.97,19.15,128.99,16.41,191.41-12.87,132.15-62,189-219.39,127-351.53ZM605.59,1294.38c-12.34,2.24-71.3-65.12-128.52-120.91,32.19,18.31,67.96,29.77,104.93,33.44,16.78,47.42,29.6,86.38,23.59,87.47ZM667.56,1253.1c-5.49-.29-17.95-19.41-33.26-46.21,23.5-2.36,46.99-7.93,69.89-16.92-16.56,35.62-30.91,63.44-36.63,63.13ZM722.65,1320.19c-6.23,5.58,14.85-79.29,32.94-157.07,10.46-7.03,20.27-14.74,29.44-23.01,15.64,14.1,32.81,26.16,51.08,36.06-54.7,65.8-105.9,137.27-113.46,144.03Z"/>
</svg>