<?xml version="1.0" encoding="UTF-8"?>
<svg id="Layer_1" data-name="Layer 1" xmlns="http://www.w3.org/2000/svg" viewBox="0 0 468 334.27">
  <defs>
    <style>
      .cls-1 {
        fill: #398756;
      }
    </style>
  </defs>
  <path class="cls-1" d="M5.19,243.53h275.25c2.87,0,5.19,2.33,5.19,5.19v32.86c0,2.87-2.33,5.19-5.19,5.19H5.19c-2.87,0-5.19-2.33-5.19-5.19v-32.86c0-2.87,2.33-5.19,5.19-5.19Z"/>
  <rect class="cls-1" x="20.66" y="199.88" width="244.32" height="29.11" rx="5.19" ry="5.19"/>
  <rect class="cls-1" x="20.66" y="156.39" width="244.32" height="29.11" rx="5.19" ry="5.19"/>
  <g>
    <rect class="cls-1" x="17.15" y="282.31" width="20.62" height="51.96"/>
    <rect class="cls-1" x="247.86" y="282.31" width="20.62" height="51.96"/>
  </g>
  <g>
    <path class="cls-1" d="M65.04,248.47h-20.62v-100.44c0-5.69,4.62-10.31,10.31-10.31h0c5.69,0,10.31,4.62,10.31,10.31v100.44Z"/>
    <path class="cls-1" d="M241.22,248.47h-20.62v-100.44c0-5.69,4.62-10.31,10.31-10.31h0c5.69,0,10.31,4.62,10.31,10.31v100.44Z"/>
  </g>
  <rect class="cls-1" x="374.92" y="256.01" width="19.57" height="78.25"/>
  <path class="cls-1" d="M384.71,0c-25.79,0-46.7,20.91-46.7,46.7s20.91,46.7,46.7,46.7c11.52,0,22.06-4.18,30.2-11.09l-2.65-4.2c11.54-7.26,18.43-19.73,18.43-33.34,0-5.87-1.26-11.52-3.74-16.77l.45-.21c-7.26-16.36-23.64-27.78-42.7-27.78Z"/>
  <path class="cls-1" d="M384.71,100.61c-29.79,0-55.74,16.42-69.33,40.69,8.88,8.03,20.64,12.92,33.52,12.92v14.68c-14.93,0-28.69-5.1-39.66-13.63-2.56,7.79-3.96,16.11-3.96,24.76,0,43.86,35.56,79.42,79.42,79.42s79.42-35.56,79.42-79.42-35.56-79.42-79.42-79.42Z"/>
  <path class="cls-1" d="M441.75,64.26c-4.12,10.69-11.59,19.93-21.67,26.27l-7.82-12.42c7.72-4.86,13.35-12.06,16.24-20.37-5.94-2.03-12.3-3.15-18.93-3.15-32.27,0-58.43,26.16-58.43,58.43s26.16,58.43,58.43,58.43,58.43-26.16,58.43-58.43c0-20.38-10.44-38.31-26.25-48.76Z"/>
  <path class="cls-1" d="M358.8,55.64c-31.69,0-57.38,25.69-57.38,57.38,0,2.97.23,5.89.67,8.74.03.09.06.18.08.27,7.21,18.8,25.43,32.19,46.73,32.19v14.68c-1.2,0-2.38-.04-3.57-.1,4.32,1.04,8.82,1.6,13.46,1.6,31.69,0,57.38-25.69,57.38-57.38s-25.69-57.38-57.38-57.38Z"/>
</svg>