<?xml version="1.0" encoding="UTF-8" standalone="no"?>
<svg
   id="Ebene_1"
   version="1.1"
   viewBox="0 0 215 22.000001"
   width="215"
   height="22"
   xmlns="http://www.w3.org/2000/svg"
   xmlns:svg="http://www.w3.org/2000/svg">
  <!-- Generator: Adobe Illustrator 30.0.0, SVG Export Plug-In . SVG Version: 2.1.1 Build 123)  -->
  <defs
     id="defs2">
    <style
       id="style1">
      .st0 {
        fill: none;
      }

      .st1 {
        isolation: isolate;
      }

      .st2 {
        clip-path: url(#clippath-1);
      }

      .st3 {
        fill: #fff;
      }

      .st4 {
        clip-path: url(#clippath);
      }
    </style>
    <clipPath
       id="clippath">
      <rect
         class="st0"
         x="-21.76"
         width="676.84998"
         height="939.34998"
         id="rect1"
         y="0" />
    </clipPath>
    <clipPath
       id="clippath-1">
      <rect
         class="st0"
         x="-22.290001"
         y="-0.5"
         width="677.87"
         height="940.31"
         id="rect2" />
    </clipPath>
  </defs>
  <g
     class="st1"
     id="g20"
     style="fill:#ffffff"
     transform="translate(-191.37624,-736.65)">
    <g
       class="st1"
       id="g19"
       style="fill:#ffffff">
      <g
         class="st1"
         id="g14"
         style="fill:#ffffff">
        <path
           class="st3"
           d="m 192.12,755.98 c -0.85,-1.36 -0.93,-2.88 -0.45,-5.14 l 1.84,-8.48 c 0.82,-3.84 3.14,-5.71 6.64,-5.71 2.06,0 3.48,0.62 4.41,1.75 0.73,0.88 0.99,2.01 0.99,3.25 0,0.59 -0.06,1.22 -0.17,1.7 h -4.07 c 0.14,-0.45 0.25,-0.96 0.25,-1.47 0,-1.07 -0.57,-1.72 -1.64,-1.72 -1.19,0 -1.87,0.73 -2.18,2.26 l -2.01,9.44 c -0.23,1.05 -0.2,1.64 0.03,2.09 0.37,0.74 1.07,1.1 2.01,1.1 0.51,0 0.99,-0.11 1.33,-0.31 l 1.05,-4.95 h -2.26 l 0.62,-3.33 h 6.36 l -2.15,9.98 c -1.24,1.33 -2.97,2.06 -5.09,2.06 -2.63,0 -4.55,-0.93 -5.51,-2.51 z"
           id="path3"
           style="fill:#ffffff" />
        <path
           class="st3"
           d="m 209.64,737.02 h 10 l -0.73,3.45 h -5.79 l -1.05,4.92 h 4.35 l -0.65,3.36 h -4.44 l -1.24,5.93 h 5.85 l -0.71,3.45 h -10.12 l 4.52,-21.11 z"
           id="path4"
           style="fill:#ffffff" />
        <path
           class="st3"
           d="m 222.24,737.02 h 5.11 l 0.25,9.64 h 0.11 l 4.55,-9.64 h 5.4 l -4.58,21.11 h -4.04 c 1.02,-4.86 2.23,-9.92 3.56,-14.84 h -0.11 l -5.11,10.2 h -2.43 l -0.54,-10.17 h -0.11 c -0.76,4.92 -1.72,9.89 -2.83,14.81 h -3.81 z"
           id="path5"
           style="fill:#ffffff" />
        <path
           class="st3"
           d="m 240.78,737.02 h 10 l -0.73,3.45 h -5.79 l -1.05,4.92 h 4.35 l -0.65,3.36 h -4.44 l -1.24,5.93 h 5.85 l -0.71,3.45 h -10.12 l 4.52,-21.11 z"
           id="path6"
           style="fill:#ffffff" />
        <path
           class="st3"
           d="m 253.35,737.02 h 4.21 l -4.49,21.11 h -4.21 z"
           id="path7"
           style="fill:#ffffff" />
        <path
           class="st3"
           d="m 260.79,737.02 h 4.72 l 1.19,12.63 h 0.11 l 2.37,-12.63 h 3.73 l -4.55,21.11 h -3.96 l -1.44,-13.82 h -0.11 L 260,758.13 h -3.79 z"
           id="path8"
           style="fill:#ffffff" />
        <path
           class="st3"
           d="m 272.2,754.82 c -0.37,-1.04 -0.4,-2.43 -0.2,-3.9 h 4.07 c -0.14,0.57 -0.2,1.1 -0.2,1.67 0,1.53 0.62,2.4 1.98,2.4 1.24,0 1.81,-0.85 1.81,-2.12 0,-0.99 -0.28,-1.67 -1.44,-3.05 l -1.33,-1.58 c -1.55,-1.84 -2.35,-3.5 -2.35,-5.43 0,-3.42 1.89,-6.16 6.05,-6.16 2.15,0 3.53,0.65 4.46,1.86 0.93,1.24 1.13,2.8 0.88,4.8 h -4.01 c 0.11,-0.42 0.17,-0.85 0.17,-1.27 0,-1.3 -0.59,-1.92 -1.61,-1.92 -1.21,0 -1.84,0.82 -1.84,2.15 0,0.9 0.31,1.64 1.36,2.88 l 1.44,1.72 c 1.72,2.06 2.4,3.39 2.4,5.37 0,3.59 -1.87,6.22 -5.99,6.22 -2.97,0 -4.8,-1.24 -5.65,-3.65 z"
           id="path9"
           style="fill:#ffffff" />
        <path
           class="st3"
           d="m 292.89,737.02 h 5.26 l -0.23,21.11 h -4.18 l 0.17,-4.52 h -3.84 l -1.75,4.52 h -4.15 l 8.73,-21.11 z m 1.27,13.2 0.45,-8.37 h -0.11 l -3.22,8.37 z"
           id="path10"
           style="fill:#ffffff" />
        <path
           class="st3"
           d="m 304.56,737.02 h 5.12 l 0.25,9.64 h 0.11 l 4.55,-9.64 h 5.4 l -4.58,21.11 h -4.04 c 1.02,-4.86 2.23,-9.92 3.56,-14.84 h -0.11 l -5.12,10.2 h -2.43 l -0.54,-10.17 h -0.11 c -0.76,4.92 -1.72,9.89 -2.83,14.81 h -3.82 l 4.58,-21.11 z"
           id="path11"
           style="fill:#ffffff" />
        <path
           class="st3"
           d="m 324.65,755.98 c -0.85,-1.36 -0.93,-2.88 -0.45,-5.14 l 1.84,-8.48 c 0.82,-3.84 3.14,-5.71 6.64,-5.71 2.06,0 3.48,0.62 4.41,1.75 0.73,0.88 0.99,2.01 0.99,3.25 0,0.59 -0.06,1.22 -0.17,1.7 h -4.07 c 0.14,-0.45 0.25,-0.96 0.25,-1.47 0,-1.07 -0.57,-1.72 -1.64,-1.72 -1.19,0 -1.87,0.73 -2.18,2.26 l -2.01,9.44 c -0.23,1.05 -0.2,1.64 0.03,2.09 0.37,0.74 1.07,1.1 2.01,1.1 0.51,0 0.99,-0.11 1.33,-0.31 l 1.05,-4.95 h -2.26 l 0.62,-3.33 h 6.36 l -2.15,9.98 c -1.24,1.33 -2.97,2.06 -5.09,2.06 -2.63,0 -4.55,-0.93 -5.51,-2.51 z"
           id="path12"
           style="fill:#ffffff" />
        <path
           class="st3"
           d="m 342.17,737.02 h 10 l -0.74,3.45 h -5.79 l -1.05,4.92 h 4.35 l -0.65,3.36 h -4.44 l -1.24,5.93 h 5.85 l -0.71,3.45 h -10.12 l 4.52,-21.11 z"
           id="path13"
           style="fill:#ffffff" />
        <path
           class="st3"
           d="m 354.78,737.02 h 4.21 l -1.81,8.36 h 3.59 l 1.81,-8.36 h 4.21 l -4.58,21.11 H 358 l 2.01,-9.21 h -3.59 l -2.01,9.21 h -4.21 z"
           id="path14"
           style="fill:#ffffff" />
      </g>
      <g
         class="st1"
         id="g15"
         style="fill:#ffffff">
        <path
           class="st3"
           d="m 372.41,740.55 h -3.84 l 0.73,-3.53 h 11.95 l -0.73,3.53 h -3.9 l -3.82,17.58 h -4.21 z"
           id="path15"
           style="fill:#ffffff" />
      </g>
      <g
         class="st1"
         id="g16"
         style="fill:#ffffff">
        <path
           class="st3"
           d="m 384.7,740.89 c -0.99,-0.23 -1.61,-0.99 -1.61,-1.95 0,-1.24 0.88,-2.26 2.4,-2.26 1.52,0 2.37,1.05 2.37,2.71 0,1.53 -0.51,2.88 -1.55,3.99 -1.04,1.07 -2.49,1.64 -4.52,1.64 l 0.51,-2.43 c 1.47,0.06 2.2,-0.54 2.4,-1.7 z"
           id="path16"
           style="fill:#ffffff" />
      </g>
      <g
         class="st1"
         id="g17"
         style="fill:#ffffff">
        <path
           class="st3"
           d="m 388.04,754.82 c -0.37,-1.04 -0.4,-2.43 -0.2,-3.9 h 4.07 c -0.14,0.57 -0.2,1.1 -0.2,1.67 0,1.53 0.62,2.4 1.98,2.4 1.24,0 1.81,-0.85 1.81,-2.12 0,-0.99 -0.28,-1.67 -1.44,-3.05 l -1.33,-1.58 c -1.55,-1.84 -2.34,-3.5 -2.34,-5.43 0,-3.42 1.89,-6.16 6.05,-6.16 2.15,0 3.53,0.65 4.46,1.86 0.93,1.24 1.13,2.8 0.88,4.8 h -4.01 c 0.11,-0.42 0.17,-0.85 0.17,-1.27 0,-1.3 -0.59,-1.92 -1.61,-1.92 -1.21,0 -1.84,0.82 -1.84,2.15 0,0.9 0.31,1.64 1.36,2.88 l 1.44,1.72 c 1.72,2.06 2.4,3.39 2.4,5.37 0,3.59 -1.87,6.22 -5.99,6.22 -2.97,0 -4.8,-1.24 -5.65,-3.65 z"
           id="path17"
           style="fill:#ffffff" />
      </g>
      <g
         class="st1"
         id="g18"
         style="fill:#ffffff">
        <path
           class="st3"
           d="m 401.2,756.01 c 0,-1.47 1.1,-2.57 2.57,-2.57 1.38,0 2.46,1.07 2.46,2.46 0,1.47 -1.1,2.57 -2.57,2.57 -1.38,0 -2.46,-1.07 -2.46,-2.46 z"
           id="path18"
           style="fill:#ffffff" />
      </g>
    </g>
  </g>
</svg>
