<?xml version="1.0" encoding="UTF-8"?>
<svg id="Layer_1" data-name="Layer 1" xmlns="http://www.w3.org/2000/svg" viewBox="0 0 777.01 520.68">
  <defs>
    <style>
      .cls-1 {
        fill: #398756;
      }
    </style>
  </defs>
  <path class="cls-1" d="M619.68,204.4c-10.39,0-20.53,1.02-30.38,2.95l15.61,34.43c4.85-.62,9.77-.91,14.77-.91,67.11,0,121.67,54.6,121.67,121.67-6.68,161.39-236.65,161.38-243.34,0,0-35.92,15.68-68.27,40.52-90.6l-15.61-34.39c-37.31,28.96-61.38,74.22-61.38,124.99,0,87.2,70.97,158.14,158.14,158.14,209.8-8.68,209.74-307.64,0-316.29Z"/>
  <path class="cls-1" d="M157.33,484.21c-67.07,0-121.67-54.6-121.67-121.67-1.25-79.39,79.26-139.86,155.04-117,0,0,20.79-31.62,20.79-31.62-16.92-6.16-35.16-9.52-54.16-9.52-209.8,8.68-209.74,307.64,0,316.29,74.66,0,137.39-52.01,153.91-121.67h-37.82c-15.54,49.31-61.71,85.2-116.09,85.2Z"/>
  <path class="cls-1" d="M251.61,285.69c9.67,11.82,17.14,25.49,21.81,40.37h37.82c-6.49-27.43-20.13-52.12-38.84-71.96l-20.79,31.58Z"/>
  <path class="cls-1" d="M395.6,414.9h-6.92l-13.7-46.85,146.8-177.11,81.32,179.14c4.17,9.26,15.19,13.2,24.14,9.07,9.17-4.16,13.23-14.97,9.07-24.14l-127.88-281.7,23.14-14.62c5.29-3.34,8.5-9.16,8.5-15.42v-25.03c0-10.07-8.17-18.24-18.24-18.24h-78.88c-6.04,0-10.94,4.9-10.94,10.94v14.59c0,6.04,4.9,10.94,10.94,10.94h55.48l-22.92,14.48c-7.7,4.86-10.63,14.66-6.87,22.96l29.38,64.71h-190.15l-15.66-53.55c14.46-5.05,29.17-9.13,43.83-9.13,5.03,0,9.12-4.08,9.12-9.12.51-23.44-21.67-30.38-37.2-29.32,0,0-90.67,0-90.67,0-6.16,0-11.96,1.06-17.21,3.17-13.02,5.32-14.99,13.82-14.99,18.45,0,12.8,17,45.37,38.33,45.37,11.17,0,22.63-2.91,34.46-6.9l16,54.72-131.78,200.2c-3.69,5.6-4,12.77-.82,18.68,3.18,5.9,9.35,9.58,16.05,9.58h183.37l9.98,34.12h-1.85c-6.04,0-10.94,4.9-10.94,10.94v14.59c0,6.04,4.9,10.94,10.94,10.94h46.77c6.04,0,10.94-4.9,10.94-10.94v-14.59c0-6.04-4.9-10.94-10.94-10.94ZM191.16,344.3l96.15-146.06,42.72,146.06s-138.87,0-138.87,0ZM318.54,175.09h168.99l-124.91,150.7-44.08-150.7Z"/>
</svg>