<?xml version="1.0" encoding="UTF-8"?>
<svg id="Layer_1" data-name="Layer 1" xmlns="http://www.w3.org/2000/svg" viewBox="0 0 459.48 416.81">
  <defs>
    <style>
      .cls-1 {
        fill: #398756;
      }
    </style>
  </defs>
  <path class="cls-1" d="M143.73,213.1c0,5.56.73,13.83,1.5,21.03l-.06-19.41c-.49-.53-.98-1.06-1.44-1.61Z"/>
  <path class="cls-1" d="M142.87,254.08c0,8.11,1.55,21.99,2.53,29.89l-.09-27.2c-.84-.88-1.66-1.77-2.44-2.68Z"/>
  <path class="cls-1" d="M142.99,293.36c0,8.14,1.57,22.09,2.54,29.98l-.09-27.28c-.85-.88-1.67-1.77-2.45-2.69Z"/>
  <g>
    <path class="cls-1" d="M210.29,207.98c.31,21.02-45.62,41.02-103.69,41.88S.31,232.13,0,211.11s46.51-38.76,104.58-39.63c58.07-.86,105.4,15.48,105.71,36.5Z"/>
    <path class="cls-1" d="M.69,225.82c42.63,49.02,185.48,33.42,209.18-.68-1.05,15.41-1.13,23.7-1.86,35.48-38,40.72-187.19,33.24-203.49.99,0,0-3.65-23.99-3.83-35.8Z"/>
    <path class="cls-1" d="M1.39,265.1c42.63,49.02,185.48,33.42,209.18-.68-1.05,15.41-1.13,23.7-1.86,35.48-38,40.72-187.19,33.24-203.49.99,0,0-3.65-23.99-3.83-35.8Z"/>
    <path class="cls-1" d="M1.14,306.09c42.63,49.02,185.48,33.42,209.18-.68-1.05,15.41-1.13,23.7-1.86,35.48-38,40.72-187.19,33.24-203.49.99,0,0-3.65-23.99-3.83-35.8Z"/>
    <path class="cls-1" d="M1.85,345.36c42.63,49.02,185.48,33.42,209.18-.68-1.05,15.41-1.13,23.7-1.86,35.48-38,40.72-187.19,33.24-203.49.99,0,0-3.65-23.99-3.83-35.8Z"/>
  </g>
  <path class="cls-1" d="M358.24,214.34c-55.91,0-101.24,45.33-101.24,101.24s45.33,101.24,101.24,101.24,101.24-45.33,101.24-101.24-45.33-101.24-101.24-101.24ZM373.55,291.6v17.88h-21.33v6.4h21.33v17.88h-19.52c2.19,6.34,6.73,9.51,13.62,9.51,4.59,0,8.91-1.8,12.96-5.41l11.81,23.95c-8.97,7-18.65,10.5-29.04,10.5s-19.25-3.31-26.57-9.92c-7.33-6.62-11.97-15.94-13.94-27.97h-8.37v-18.54h7.22v-6.56h-7.22v-18.37h8.69c2.08-11.92,6.97-21.13,14.68-27.64,7.71-6.51,16.76-9.76,27.15-9.76s19.3,3.17,27.4,9.52l-12.63,24.77c-4.27-3.5-8.37-5.25-12.3-5.25-6.56,0-10.94,3.01-13.12,9.02h19.19Z"/>
  <g>
    <path class="cls-1" d="M251.35,78.4c58.08,0,104.3-19.31,104.3-40.34S308.57,0,250.5,0s-105.16,17.04-105.16,38.07,47.94,40.34,106.01,40.34Z"/>
    <path class="cls-1" d="M352.59,90.67c.91-11.77,1.11-20.05,2.39-35.45-24.2,33.75-167.27,47.22-209.17-2.43,0,11.81,3.3,35.85,3.3,35.85,15.82,32.48,164.88,42.19,203.49,2.03Z"/>
    <path class="cls-1" d="M352.71,129.95c.91-11.77,1.11-20.05,2.39-35.45-24.2,33.75-167.27,47.22-209.17-2.43,0,11.81,3.3,35.85,3.3,35.85,15.82,32.48,164.88,42.19,203.49,2.03Z"/>
    <path class="cls-1" d="M351.85,170.94c.91-11.77,1.11-20.05,2.39-35.45-24.2,33.75-167.27,47.22-209.17-2.43,0,8.25,1.61,22.45,2.58,30.28,10.49.42,49.74,3.88,73.21,31.74,0,.23,0,.48,0,.71,49.14,4.95,108.61-1.57,130.99-24.84Z"/>
    <path class="cls-1" d="M354.36,174.76c-15.35,21.41-78.55,34.65-133.4,28.8.09,9.76.15,20.44.18,31.51,19.78,1.98,41.23,2.1,61.25.02,18.6-17.18,43-28.18,69.93-29.73.64-9.43.94-17.4,2.04-30.61Z"/>
    <path class="cls-1" d="M221.15,244.5c.01,10.43,0,21.06-.01,31.48,10.54,1,21.53,1.48,32.5,1.38,4.69-12.15,11.42-23.28,19.77-32.97-17.03,1.68-35.02,1.83-52.26.11Z"/>
    <path class="cls-1" d="M250.5,286.66c-9.82.18-19.72-.16-29.39-1.09-.03,11.07-.07,21.74-.11,31.46,8.17.76,16.61,1.19,25.09,1.3,0-.12,0-.23,0-.35,0-10.87,1.54-21.37,4.41-31.31Z"/>
    <path class="cls-1" d="M220.98,324.83c-.06,13.39-.11,24.43-.12,31.46,10.52.99,21.47,1.44,32.41,1.33-3.74-9.95-6.11-20.57-6.88-31.63-8.51.02-17.04-.35-25.4-1.16Z"/>
  </g>
</svg>