<?xml version="1.0" encoding="UTF-8"?>
<svg id="Ebene_1" xmlns="http://www.w3.org/2000/svg" xmlns:serif="http://www.serif.com/" version="1.1" viewBox="0 0 1984.3 1984.3">
  <!-- Generator: Adobe Illustrator 29.1.0, SVG Export Plug-In . SVG Version: 2.1.0 Build 142)  -->
  <defs>
    <style>
      .st0 {
        fill: #fff;
      }
    </style>
  </defs>
  <g id="Ebene-1" serif:id="Ebene 1">
    <path class="st0" d="M198.8,915.3l-4,9.2c-4.7,10.8-12.9,19.2-22.4,26.1-9.6,7-21.6,12.2-36.2,15.5-19.6,4.6-38.4,4.1-56.3-1.4-17.9-5.5-33.5-15.6-46.7-30.4-13.2-14.8-22.6-34-28-57.6-4.9-21.2-6.4-41.9-4.3-62.1,2-20.2,7.4-39,16.3-56.4,8.8-17.4,21.2-32.3,37.2-44.7,16-12.4,35.6-21.3,59-26.7,19.4-4.5,37.5-5.4,54.5-2.8,16.9,2.6,32,8.9,45,18.7,13,9.8,22.9,23.3,29.7,40.5l-61.6,27.3c-4.9-12.8-12.2-21.8-21.7-26.8-9.6-5.1-21.2-6-35-2.8-11.1,2.6-20.7,7.5-28.7,14.6-8,7.2-14.2,16-18.6,26.5-4.4,10.5-7,22.1-7.7,34.7-.7,12.6.5,25.5,3.6,38.8,3.2,13.8,8.1,25.2,14.7,34.3,6.6,9.1,14.7,15.4,24.5,18.8,9.7,3.5,21,3.7,33.7.8,10.1-2.3,18.5-5.9,25.1-10.9,6.7-4.9,11.7-10.7,15.2-17.6,3.4-6.8,5.5-14.2,6.2-22.2l1.1-9.5-62.8,14.6-.2-47.7,116.9-27.1-2.5,148.1-45.3,10.5-.6-32.4h0Z"/>
    <path class="st0" d="M364.5,687.3l40.6-9.4c10.9-2.5,20.3-2.3,28.3.8,8,3.1,13.2,9.7,15.6,20.1,1.7,7.4,1.5,14.7-.8,21.8-2.3,7.1-6.5,13.2-12.7,18.3-6.2,5.1-14.5,8.8-24.9,11.2l-46,10.7v-73.4s0,0,0,0ZM513,728.3c5.8-15.3,6.5-32.5,2.1-51.6-5.5-23.6-17.6-40.1-36.4-49.6-18.8-9.5-41.8-11.1-68.8-4.8l-112.6,26.1v276.6c0,0,67.3-15.6,67.3-15.6v-97.7s46.1-10.7,46.1-10.7l56.5,84.5,69.2-16-65.8-93.4c4.7-2.8,9.5-5.4,13.7-8.7,13.4-10.8,23-23.9,28.8-39.2"/>
    <path class="st0" d="M719.3,530.8c-9.5,2.2-17.7,1.9-24.3-.9-6.6-2.8-11-8.4-12.9-16.9-2.9-12.4-1.6-22.4,4-29.8,5.5-7.4,14-12.5,25.4-15.1,9.6-2.2,17.6-1.9,24.1.9,6.5,2.8,10.8,8.5,12.7,16.9,3,12.7,1.6,22.7-3.9,30-5.6,7.3-13.9,12.2-25.1,14.8M630.6,551.4c-9.3,2.2-17.3,1.8-23.9-1-6.6-2.8-11-8.4-12.9-16.9-2.9-12.4-1.6-22.4,4-29.8,5.5-7.4,14-12.5,25.4-15.1,9.3-2.2,17.3-1.8,23.9,1,6.6,2.8,11,8.4,12.9,16.9,3,12.7,1.6,22.7-3.9,30-5.6,7.3-14.1,12.3-25.5,14.9M688.8,838.4c-26.3,6.1-49.2,6.4-69,.9-19.7-5.5-35.1-16.4-46.2-32.9-11.1-16.4-16.6-37.9-16.6-64.5l.4-153.9,68.4-15.9.7,163.7c.2,13.1,2.7,23.5,7.5,31.4,4.7,7.8,11.3,13.1,19.6,15.8,8.3,2.7,17.9,2.8,28.8.2,14.6-3.4,25-10.4,31.2-21.1,6.2-10.7,9.2-24.9,8.9-42.7v-169.8s68-15.8,68-15.8v171.8c0,35.8-8.1,64.8-24.2,87-16.1,22.2-41.9,37.4-77.4,45.6"/>
    <path class="st0" d="M842.6,798.5v-276.6s73.1-17,73.1-17l80.8,133.4,22.3,40.1h.4c0,0-2-57.5-2-57.5l.3-139.6,60.1-13.9v276.6s-72,16.7-72,16.7l-81.9-130.6-22.3-40.1-.8.2,2.2,54.8v139.6c.1,0-60.4,14-60.4,14h0Z"/>
    <path class="st0" d="M1134.9,730.7v-276.6s204.4-47.4,204.4-47.4l-.4,55.8-135.7,31.5v56.2c0,0,107-24.8,107-24.8v52.4l-107,24.8v56.5c.1,0,140.1-32.5,140.1-32.5v55.8c0,0-208.5,48.3-208.5,48.3h0Z"/>
    <path class="st0" d="M498.3,1247.7c-19.6,4.6-37.1,5.3-52.3,2.3-15.2-3-27.9-9.1-37.9-18-10-9-17.2-20.3-21.5-34-4.3-13.7-5.3-28.9-3-45.6l67.4-18.5c-2.2,15.9-1.9,28.6.9,38.1,2.8,9.6,7.5,16.1,14.2,19.6,6.7,3.5,14.9,4.1,24.7,1.8,12.5-2.9,20.6-9.3,24.5-19.1,3.9-9.8,5.7-25.2,5.6-46.2l-.4-165.9,68.4-15.9.3,178.5c.2,20.1-2.4,38.4-7.8,55-5.4,16.6-14.7,30.7-27.9,42.3-13.2,11.6-31.7,20.1-55.3,25.6"/>
    <path class="st0" d="M767.3,1185.7c-26.3,6.1-49.2,6.4-69,.9-19.7-5.5-35.1-16.4-46.2-32.9-11.1-16.4-16.6-37.9-16.6-64.5l.4-153.9,68.4-15.9.7,163.7c.2,13.1,2.7,23.5,7.5,31.4,4.7,7.8,11.3,13.1,19.6,15.8,8.3,2.7,17.9,2.8,28.8.2,14.6-3.4,25-10.4,31.2-21.1,6.2-10.7,9.2-24.9,8.9-42.7v-169.8s68-15.8,68-15.8v171.8c0,35.8-8.1,64.8-24.2,87-16.1,22.2-41.9,37.4-77.4,45.6"/>
    <path class="st0" d="M1205.4,1079.9v-276.6s204.4-47.4,204.4-47.4l-.4,55.8-135.7,31.5v56.2c0,0,107-24.8,107-24.8v52.4l-107,24.8v56.5c.1,0,140.1-32.5,140.1-32.5v55.8c0,0-208.5,48.3-208.5,48.3h0Z"/>
    <path class="st0" d="M1454.4,1022.1v-276.6s73.1-17,73.1-17l80.8,133.4,22.3,40.1h.4c0,0-2-57.5-2-57.5l.3-139.6,60.1-13.9v276.6s-72,16.7-72,16.7l-81.9-130.6-22.3-40.1-.8.2,2.2,54.8v139.6c.1,0-60.4,14-60.4,14h0Z"/>
    <path class="st0" d="M1815.1,884l38.2-8.9c13.2-3.1,24.2-8.7,33-16.9,8.7-8.2,15.3-18,19.6-29.5,4.3-11.5,6.7-23.7,7.2-36.7.5-13-.8-25.8-3.7-38.6-2.6-11.4-6.9-20.8-12.6-28.3-5.8-7.5-13.1-12.6-21.8-15.5-8.8-2.9-19.1-2.9-31.1-.1l-28.6,6.6v167.7c0,0,0,0,0,0ZM1746.8,954.3v-276.6s92.6-21.5,92.6-21.5c24.9-5.8,46.8-6.1,65.8-1,18.9,5.1,34.6,14.8,47.2,28.9,12.5,14.2,21.2,31.8,26.1,53,5.4,23.1,6.9,44.8,4.7,65.4-2.2,20.5-8.1,39-17.7,55.7-9.6,16.6-22.6,30.8-39,42.6-16.4,11.8-36,20.3-58.8,25.6l-120.9,28.1h0Z"/>
    <path class="st0" d="M1107,1070.1l-4,9.2c-4.7,10.8-12.9,19.2-22.4,26.1-9.6,7-21.6,12.2-36.2,15.5-19.6,4.5-38.4,4.1-56.3-1.4-17.9-5.5-33.5-15.6-46.7-30.4-13.2-14.8-22.6-34-28-57.6-4.9-21.2-6.4-41.9-4.3-62.1,2-20.2,7.4-39,16.3-56.4,8.8-17.4,21.2-32.3,37.2-44.7,16-12.4,35.6-21.3,59-26.7,19.4-4.5,37.5-5.4,54.5-2.8,16.9,2.6,32,8.9,45,18.7,13,9.8,22.9,23.3,29.7,40.5l-61.6,27.3c-4.9-12.8-12.2-21.8-21.7-26.8-9.6-5.1-21.2-6-35-2.8-11.1,2.6-20.7,7.5-28.7,14.6-8,7.2-14.2,16-18.6,26.5-4.4,10.5-7,22.1-7.7,34.7-.7,12.6.5,25.5,3.6,38.8,3.2,13.8,8.1,25.2,14.7,34.3,6.6,9.1,14.7,15.4,24.5,18.8,9.7,3.5,21,3.7,33.7.8,10.1-2.3,18.5-5.9,25.1-10.9,6.7-4.9,11.7-10.7,15.2-17.6,3.4-6.8,5.5-14.2,6.2-22.2l1.1-9.5-62.8,14.6-.2-47.7,116.9-27.1-2.5,148.1-45.3,10.5-.6-32.4h0Z"/>
    <g>
      <path class="st0" d="M511.7,1364.3l-.2,131.5-32.5,7.5.2-131.5,32.5-7.5ZM432.3,1382.6l-.2,131.5-32.5,7.5.2-131.5,32.5-7.5ZM496.6,1419.8v26.5c0,0-81,18.6-81,18.6v-26.5c0,0,81-18.6,81-18.6Z"/>
      <path class="st0" d="M540.5,1489.2l.2-131.5,97.2-22.4-.3,26.5-64.5,14.8v26.7s50.8-11.7,50.8-11.7v24.9s-50.9,11.7-50.9,11.7v26.9s66.6-15.3,66.6-15.3v26.5c0,0-99.2,22.8-99.2,22.8Z"/>
      <path class="st0" d="M721,1449.8c-8.9,2-17.5,2.8-25.7,2.3-8.3-.5-16.3-2.4-23.6-5.5-7.3-3.1-13.9-7.7-19.8-13.6l14.8-23.1c4.2,4.6,9.1,8.3,14.4,10.8,5.6,2.7,11.2,4.4,17,4.8,5.9.6,11.6.3,16.9-.9s7.1-2.2,9.3-3.9c2.2-1.7,3.7-3.6,4.4-5.8s1-4.4.5-6.5-2.3-4.7-4.5-5.9c-2.4-1-5.8-1.9-10-2.1l-20.1-1.7c-6.1-.6-11.8-1.9-17-3.9-5.3-2.2-9.9-5.1-13.6-9s-6.2-8.9-7.6-14.8c-2-8.5-1.3-16.2,1.7-23.1,3-7.1,7.8-12.9,14.8-17.8,6.8-5,15.2-8.5,25-10.7s24.5-3.3,34.5-.8c10.2,2.6,19,7.4,26.6,14.4l-15.7,22.7c-3.6-3.7-7.7-6.8-12-8.8-4.4-2-9.1-3.1-13.7-3.4-4.7-.3-9.4,0-13.9,1s-6.9,2.2-9.1,3.7-3.8,3.5-4.5,5.4c-.9,2-1.1,4-.5,6.3s2.3,4.7,5.2,6c2.9,1.5,6.7,2.4,11,2.8l20.1,1.7c10.2.9,18.3,3.4,24.4,7.5s10.2,10.4,12.1,18.7,1.4,16.6-1.7,23.7c-2.9,7.2-8.1,13.4-14.9,18.4-6.8,5-15.1,8.7-24.6,10.8h0Z"/>
      <path class="st0" d="M843.4,1421.7c-8.9,2-17.5,2.8-25.7,2.3-8.3-.5-16.3-2.4-23.6-5.5-7.3-3.1-13.9-7.7-19.8-13.6l14.8-23.1c4.2,4.6,9.1,8.3,14.4,10.8,5.6,2.7,11.2,4.4,17,4.8,5.9.6,11.6.3,16.9-.9s7.1-2.2,9.3-3.9c2.2-1.7,3.7-3.6,4.4-5.8s1-4.4.5-6.5-2.3-4.7-4.5-5.9c-2.4-1-5.8-1.9-10-2.1l-20.1-1.7c-6.1-.6-11.8-1.9-17-3.9-5.3-2.2-9.9-5.1-13.6-9s-6.2-8.9-7.6-14.8c-2-8.5-1.3-16.2,1.7-23.1,3-7.1,7.8-12.9,14.8-17.8,6.8-5,15.2-8.5,25-10.7s24.5-3.3,34.5-.8c10.2,2.6,19,7.4,26.6,14.4l-15.7,22.7c-3.6-3.7-7.7-6.8-12-8.8-4.4-2-9.1-3.1-13.7-3.4-4.7-.3-9.4,0-13.9,1s-6.9,2.2-9.1,3.7-3.8,3.5-4.5,5.4c-.9,2-1.1,4-.5,6.3s2.3,4.7,5.2,6c2.9,1.5,6.7,2.4,11,2.8l20.1,1.7c10.2.9,18.3,3.4,24.4,7.5s10.2,10.4,12.1,18.7,1.4,16.6-1.7,23.7c-2.9,7.2-8.1,13.4-14.9,18.4-6.8,5-15.1,8.7-24.6,10.8h0Z"/>
      <path class="st0" d="M905.5,1405.2l.2-131.5,97.2-22.4-.3,26.5-64.5,14.8v26.7s50.8-11.7,50.8-11.7v24.9s-50.9,11.7-50.9,11.7v26.9s66.6-15.3,66.6-15.3v26.5c0,0-99.2,22.8-99.2,22.8Z"/>
      <path class="st0" d="M1025.6,1377.6l.2-131.5,34.8-8,38.3,63.5,10.6,19.1h.2s-.9-27.3-.9-27.3l.3-66.4,28.6-6.6-.2,131.5-34.2,7.9-38.8-62.2-10.6-19.1h-.4c0,0,1,26.1,1,26.1v66.3c0,0-28.8,6.6-28.8,6.6Z"/>
    </g>
  </g>
</svg>