<?xml version="1.0" encoding="UTF-8"?>
<svg id="Ebene_1" data-name="Ebene 1" xmlns="http://www.w3.org/2000/svg" viewBox="0 0 114.65 115.48">
  <defs>
    <style>
      .cls-1 {
        fill: #398756;
      }
    </style>
  </defs>
  <path id="Sonnenblume" class="cls-1" d="M81.95,50.26c-1.57.26-5.58.36-1.87,3.52,0,0,.68.05-1.15,1.13-1.82,1.08,4.07,1.71,4.76,2.5.69.79-5.84-.06-5.71,1.89.13,1.97-1.13.73,3.21,5.36,0,0-2.61-.61-2.9-.24-.31.37,5.71,5.36,5.68,6.77,0,0-1.23.86-1.74.12-.52-.74-4.16-4.78-4.74-4.89-.45-.08-1.29.11-1.69.9,0,0,1.6,3.71,1.1,3.81-.5.1-2.98-1.65-2.98-1.65,0,0-1.63.71-1.1,2.19.53,1.48,4.97,6.5,4.71,6.81,0,0-.37.82-.95.78-.57-.06-3.63-5.61-4.39-5.82-.76-.21.89,5.18.89,5.18,0,0-2.76-2.92-3.5-3.52-.74-.61-.84.65-.84.65l.81,6.16s-8.61-12.84-6.5,2.47c0,0-.19.87-.49.84-.29-.03-2.11-5.07-1.9-6.46.21-1.39-1.52,3.83-1.52,3.83,0,0-2.69-10.73-8.29.27,0,0-.38-4.16-1.26-4.87-.86-.71-1.57-1.1-1.79-.97-.21.13-2.19,2.02-2.97,2.21-.78.18.61-2.48-.53-3.24,0,0,.1-.74-.57-1.81-.66-1.07-1.31-.68-5.16,3.48,0,0,1.61-3.94,1.6-5.31-.01-1.36-1.52-1.68-1.52-1.68,0,0-2.81,2.13-3.61,1.87-.82-.26,1.34-2.87,1.39-3.6.02-.23-.31-.14-.31-.14,0,0-.34-.24-3.16,1.4l-4.57,2.9c-.34-.21-.79-.16-.65-1.26.03-.31,8.53-4.31,8.16-4.73-.37-.42-3.21-1.11-3.21-1.11,0,0,1.77-2.14,1.24-2.39-.53-.23-4.41-.55-4.41-.55,0,0-.68-1.06-.53-.85.13.21,3.79-.58,3.79-.58l-2.45-1.92s6.18-1.08.72-4.37c-2.02-1.21-4.13-2.05-6.4-2.45,5.82.29,9.68-1.18,9.02-3.32,0,0-.18-.78-5.99-2.89,0,0,.16-.7.55-.79.39-.1,6.42,2.11,6,1.76-.44-.36-2.64-2.81-2.24-2.79.4.02,3.23,1.21,4.18.34.9-.84,1.47-2.39,2.06-2.72.6-.34-1.58-2.34,1.29-1.42,0,0,1.94-1.08.4-2.87-1.53-1.79-6.37-7.52,1.53-.59,1.89,1.66,6.61-3.39,6.23-6.13,0,0,1.89,1.9,2.29,2.11.4.21,3.05.52,3.65-.41.28-.42-.97-4.32-.16-6.05,0,0,.34-.03.66.34s.36,4.44,1.79,5.21c0,0,1.61-.95,1.89-1.65.27-.71-.44,4.41,4.39,2.19,0,0,2.36-2.1,3.04-2.15.68-.06-.5,2.49.08,3.39.6.9,2.58,1.52,3.21.39.63-1.13,3.65-3.41,3.89-3.31.24.1-1.53,4.81-1.74,5.28-.29.68-.5,1.68-.5,1.68,0,0,.23,1.32,1.87,1.68,0,0,3.11-1.82,6.34-4.18-.34.4-.68.84-1.03,1.29,0,0-4.18,4.31-4.2,4.92,0,.63,1.44,2.02,2.61,1.23,1.18-.79,4-1.95,4.26-1.76.24.21.7.79.11,1.13-.59.34-3.89,2.06-3.89,2.06,0,0,3.76.26,8.37-.68-4.99,2.02-6.71,5.1-6.66,5.39.15.99,7.89-1.02,8.1-.53,1.11,2.52-2.45.97-4.02,1.23h-.08v-.02ZM114.65,50.46c-.05-.29-.79-.57-1.31-.99-1.71-1.42-7.83-7.44-19.85-7.05-1.52.05-2.9.19-4.18.4,2.56-.82,3.89-1.32,4.66-1.63.94-.37,7.07-2.47,10.38-13.26.27-.92,1.08-3.14.89-3.31-.24-.21-2.31.16-4.39,1.44-2.1,1.28-9.11,2.39-9.96,2.52-.49.08-2.55-.23-5.65,1.39,3.47-3.57,7.16-8.65,8.15-15.77.47-3.42.28-4.81.13-4.79-.21.01-.32.01-.58.1-.78.23-1.57.89-4.12,2.6-2.57,1.71-5.28,3.6-5.28,3.6,0,0,.93-9.29.65-9.52-.29-.21-5.57-.16-13.67,8.87,0,0,.92-7.73-.6-10.65,0,0-.42-2.11-.76-3.21-.16-.55-.6-1.13-.66-1.08-.08.06-.81.18-1.95,1.5-1.79,2.05-10.1,4.55-11.47,15.31-1.05-4.34-3.26-10.15-8.71-13.09-2.87-2.81-4.26-3.79-4.56-3.85h-.05c-.14.07-.08,1.4-.55,4.44-.53,3.39-1,4.45-1,4.45,0,0-5.71-5.03-5.86-5.18-.28-.26-3.76,10.78-2.72,16.28,0,0-1.81-1.4-5.1-3.1-3.74-1.92-10.02-2.26-9.99-1.95.08.5,5.31,10.71,7.5,14.31,0,0-14.09-2.42-13.84-1.53.08.29.42.84.97,3.19,0,0-5.53-.11-5.45.34.08.52,4.2,7.31,4.5,7.68,0,0-4.28.82-5.18.87-.61.03,2.85,9.62,12.37,12,1.44.36,2.83.63,4.15.82-3.11-.06-6.56.6-10.54,2.06,0,0-2.29.89-3.5,1.86-1.19.95-7.11,1.95-7.53,2.82v.07c.37.78,7.36,5.57,7.36,5.57,0,0-4.24,2.06-4.53,2.45-.2.28-.36.52-.31.58.05.08.34.42,1.07.87,1.69,1.05,16.78,2.63,17.72,2.26.92-.37-8.2,9.89-8.34,15.05,0,0,1.5.11,2.34.18.65.05-2.74,6.47-2.13,6.44,4.1-.18,10.89-4.13,12.16-5.05,1.28-.9,3.01-2.26,3.49-2.71.46-.44-2.97,5.71-1.57,11.13,0,0,.45,4.2.47,5.05.02.84,1.21.85,1.21,1.42-.01.7,3.33-2.63,4.9-3.91,1.58-1.28,3.73-3.74,4.76-5.37,1.03-1.63.11,12.73-.31,15.49-.13.89.06.99.21,1.29.05.1,1.52-1.13,1.98-1.44.7-.46,7.89-10.13,8.34-12.55,0,0,3.84,16.86,5.13,18.67.19.26.35.55.52.61h.11s.07-.05.1-.1c.39-.6.95-2.18,1.39-2.31.55-.16,2.18-.37,3.04-2.77.85-2.4,2.39-4.74,3.11-10.99,0,0,8.16,10.41,9.21,11.37,1.05.97,2.63-3.31,3.61-9.23.99-5.92-1.13-13.88-2.45-14.15,0,0-.55-.87.99-.32.89.32,4.28,6.21,12.1,10.68,1.32.76,4.12.76,4.13.71.63-1.76-5.52-17.83-5.52-17.83,0,0,.14-.18,1.39.32,1.23.5,12.97,8.1,20.09,4.53,1.44-.72,1.53-.87,1.53-.87.82-3.5-5.45-10.13-9.31-13.14,0,0,10.12-.4,11.67-3.1,0,0,1.87-.68,2.82-2,.16-.23-1.08-2.53-2.55-3.55-3.82-2.64-4.65-3.65-4.65-3.65,0,0,1.07-1.29,2.61-1.77,1.55-.48,6.52-3.55,5.19-5.07,0,0,1.5-1.31,1.55-1.73v-.03l.02-.05h0Z"/>
</svg>