<?xml version="1.0" encoding="UTF-8"?>
<svg id="Ebene_1" data-name="Ebene 1" xmlns="http://www.w3.org/2000/svg" viewBox="0 0 947.42 1843.97">
  <defs>
    <style>
      .cls-1 {
        fill: #398756;
      }
    </style>
  </defs>
  <rect class="cls-1" x="115.52" y="621.37" width="145.85" height="1222.6" rx="29.11" ry="29.11"/>
  <rect class="cls-1" x="344.2" y="431.19" width="145.85" height="1412.78" rx="29.11" ry="29.11"/>
  <rect class="cls-1" x="572.88" y="499.42" width="145.85" height="1344.55" rx="29.11" ry="29.11"/>
  <rect class="cls-1" x="801.57" y="333.1" width="145.85" height="1510.87" rx="29.11" ry="29.11"/>
  <path class="cls-1" d="M40.9,571.02c-11.14,0-22.24-4.52-30.31-13.4-15.16-16.69-13.88-42.48,2.85-57.59L286.67,200.84c13.56-12.25,33.63-14.02,49.14-4.34l188.99,117.97L785.52,30.14c16.13-15.76,42.02-15.5,57.82.59,15.8,16.09,15.54,41.9-.59,57.66l-283.73,306.8c-13.5,13.19-34.29,15.43-50.31,5.44l-190.07-118.64-250.31,278.48c-7.83,7.07-17.65,10.56-27.44,10.56Z"/>
  <path class="cls-1" d="M704.07,55.23l122.97,110.94c8.37,7.55,21.8,2.53,23.14-8.64l17.02-142.01c1.14-9.49-7.47-17.26-16.82-15.18l-139.99,31.07c-11.02,2.45-14.68,16.27-6.31,23.82Z"/>
</svg>