<?xml version="1.0" encoding="UTF-8"?>
<svg id="Ebene_1" data-name="Ebene 1" xmlns="http://www.w3.org/2000/svg" viewBox="0 0 1200.55 1594.92">
  <defs>
    <style>
      .cls-1 {
        fill: #398756;
      }
    </style>
  </defs>
  <path class="cls-1" d="M943.63,288.04l-13.58,16.45,3.12.4c43.09,5.45,82.52,27.08,110.29,60.52l2.83,3.41c8.82-11.69,13.07-25.45,13.07-39.17,0-18.81-8.1-37.5-23.74-50.43-27.85-22.94-69.02-19.02-92,8.82Z"/>
  <path class="cls-1" d="M626.32,588.76v-142.62c0-20.88-8.89-40.76-24.44-54.69l-9.69-8.68c-31.66-28.32-72.61-43.97-115.05-43.97h-105.17l-78.06,74.86c-16.74,16.56-38.88,25.67-62.44,25.67s-46.14-9.29-62.92-26.14c-2.47-2.47-4.76-5.05-6.86-7.73L14.48,587.92c-17.5,21.71-19.31,52.13-4.47,75.77l135.02,224.22c14.09,22.44,39.57,33.33,64.22,29.95l-30.68,600.88c0,40.33,31.37,74.72,71.7,76.13,42.33,1.53,77.15-32.35,77.15-74.35l36.3-539.05c0-8.57,6.29-16.23,14.82-16.96,9.71-.84,17.85,6.77,17.85,16.28l36.3,537.96c0,40.33,31.37,74.72,71.7,76.13,42.33,1.53,77.15-32.35,77.15-74.35l-43.57-1004.34,88.33,72.57ZM209.25,744.32l-63.79-110.62,69.41-86.01-5.63,196.63Z"/>
  <path class="cls-1" d="M1186.07,587.85l-157.02-195.21c-.36-.47-.76-.94-1.13-1.38-27.77-33.8-67.31-55.76-110.69-61.5l-7.22-.94-144.35-19.04c-63.73-8.4-126.48-23.02-187.36-43.63l-51.34-17.38c-15.21,25.01-36.67,45.85-62.15,60.37h17.97c45.53,0,89.49,16.81,123.4,47.2l16.81,15.03,7.94,7.11c15.56,13.93,24.45,33.82,24.45,54.7v6.15l7.26,175.42-43.57,903.99c0,40.33,31.37,74.72,71.7,76.13,42.37,1.53,77.15-32.35,77.15-74.35l36.3-538.97c0-9.24,7.57-17.37,16.81-17.11,4.32.12,8.24,1.91,11.08,4.79,2.98,2.94,4.79,7.04,4.79,11.55l36.3,537.96c0,40.33,31.37,74.72,71.7,76.13,42.37,1.53,77.15-32.35,77.15-74.35l-30.68-602.73c24.65,3.34,44.47-7.55,58.52-29.99l140.68-224.22c14.81-23.63,13-54.02-4.5-75.73ZM991.37,744.14l-5.63-196.48,69.34,85.97-63.71,110.51Z"/>
  <path class="cls-1" d="M187.91,393.91c23.96,24.07,62.88,24.14,86.95.18l57.65-55.29,11.54-11.07c-43.17-9.22-80.38-34.74-104.85-69.74l-51.08,49.01c-20.8,20.69-23.67,52.57-8.64,76.39,2.36,3.74,5.19,7.26,8.42,10.53Z"/>
  <circle class="cls-1" cx="380.05" cy="159.68" r="142.8"/>
  <circle class="cls-1" cx="820.55" cy="142.8" r="142.8" transform="translate(139.36 622.04) rotate(-45)"/>
</svg>