<?xml version="1.0" encoding="UTF-8"?>
<svg id="object" xmlns="http://www.w3.org/2000/svg" viewBox="0 0 1542.81 2147.46">
  <defs>
    <style>
      .cls-1 {
        fill: #3f8d60;
      }

      .cls-2 {
        stroke-width: 160px;
      }

      .cls-2, .cls-3 {
        fill: none;
        stroke: #3f8d60;
        stroke-linecap: round;
        stroke-miterlimit: 10;
      }

      .cls-3 {
        stroke-width: 150px;
      }
    </style>
  </defs>
  <path class="cls-1" d="M497.95,273.64c7.99,1.27,15.88,1.78,23.64,1.73-11.77,21.91-21.55,45.3-29.01,70.03-60.31,199.88,52.84,410.81,252.73,471.12,199.88,60.31,410.81-52.85,471.12-252.73,7.46-24.73,12.25-49.63,14.56-74.39,6.44,4.33,13.29,8.27,20.65,11.63,100.41,45.88,197.47,31.91,291.16-41.89-38.33-10.26-73.71-25.2-87.1-75.06-14.42-67.96-43.43-121.86-109.42-140.18-39.74-11.03-83.11-5.99-117.69,16.47-2.85,1.85-5.62,3.79-8.3,5.8-9.8,7.37-18.12,15.69-25.1,24.67-44.36-92.24-125.79-166.28-231.51-198.17-105.71-31.89-214.5-15.24-302.48,37.07-.85-11.34-3.18-22.87-7.27-34.43-1.12-3.16-2.35-6.3-3.7-9.42-16.39-37.85-49.73-66.03-88.94-78.82-65.11-21.23-119.09,7.63-168.69,56.28-38.73,34.14-76.47,27.02-114.08,14.37,37.25,113.31,110.38,178.62,219.41,195.93Z"/>
  <path class="cls-3" d="M75,577.62s360,714.51,1383.52,287.3"/>
  <path class="cls-1" d="M354.76,1674.54s578.51,106.8,747.61,0c0,0-106.72-288.15-115.76-621.39-2.53-93.42-498.35-68.97-498.35-68.97,0,0-136.5,506.41-133.5,690.36Z"/>
  <line class="cls-2" x1="506.4" y1="1698.77" x2="465.37" y2="2057.77"/>
  <path class="cls-2" d="M910.67,1681.08s35.9,191.5,255.6,386.38"/>
</svg>