<?xml version="1.0" encoding="UTF-8"?>
<svg id="Ebene_1" data-name="Ebene 1" xmlns="http://www.w3.org/2000/svg" viewBox="0 0 1308.93 1842.39">
  <defs>
    <style>
      .cls-1 {
        fill: #398756;
      }
    </style>
  </defs>
  <path class="cls-1" d="M381.43,49c15.14,5.19,28.61,11.79,41.09,19.1,64.11,37.54,84.84,198.62,99.12,242.23,2.35,7.18,4.35,13.94,5.89,19.97,3.88-1.7,7.42-3.93,11.39-5.47,4.8-2.75,9.39-3.89,13.06-4.62,7.27-2.7,15.49-4.06,23.23-6.14-16.25-60.59-52.19-269.79-177.45-312.68-13.13-4.52-27.47,2.51-31.99,15.64-4.5,13.18,2.51,27.49,15.66,31.97Z"/>
  <path class="cls-1" d="M770.02,324.83c4.02,1.56,7.61,3.82,11.55,5.55,1.64-6.26,3.67-13.18,6.18-20.7,14.57-43.47,35.46-204.12,98.47-241.38,12.52-7.4,26.04-14.08,41.24-19.29,13.16-4.48,20.16-18.79,15.66-31.97-4.52-13.13-18.84-20.21-31.99-15.64-125.35,42.91-161.26,252.26-177.48,312.82,9.04,2.32,18.29,3.87,27.05,7.02.61.05,4.62.89,9.32,3.59Z"/>
  <path class="cls-1" d="M559.16,371.01c-102.94,39-172.11,139.23-172.11,249.4,0,39.1,8.53,77.22,25.33,113.32,2.43,5.75,4.92,10.28,7.35,14.75,4.01,7.68,9.25,14.85,14.23,22.11,2.36-.19,4.65-.39,7.14-.57l11.09-.93c46.99-1.6,147.53,12.17,191.66,62.9,6.92-.22,13.7-.21,20.65,0,43.3-50.56,144.96-64.71,190.88-63l12.42.98c2.43.2,4.73.5,7.14.7,4.82-7.02,10.06-14.16,13.51-20.82,2.85-5.26,5.51-10.03,7.67-15.2,17.24-36.99,25.77-75.1,25.77-114.25,0-110.17-69.17-210.4-172.11-249.4l-5.95-3.25c-28.99-9.49-58.99-14.75-89.36-14.75s-60.4,5.26-89.17,15.64l-6.15,2.36Z"/>
  <path class="cls-1" d="M654.47,1664.25c-15,0-30.44-1.18-44.63-3.34-4.78-.65-9.3-2.26-14.02-3.12l35.66,169.7c4.06,9.05,13.06,14.9,22.99,14.9s18.94-5.85,22.99-14.9l35.68-169.74c-4.88.89-9.53,2.54-14.46,3.22-13.8,2.16-29.24,3.3-44.21,3.3Z"/>
  <path class="cls-1" d="M930.99,1387.15c-4.72,3.71-9.46,7.4-14.31,10.92-5.95,4.3-12.05,8.34-18.2,12.33-5.02,3.26-10.02,6.54-15.16,9.59-6.31,3.75-12.78,7.19-19.27,10.61-5.24,2.77-10.44,5.6-15.79,8.16-6.71,3.2-13.57,6.04-20.43,8.91-5.37,2.24-10.68,4.6-16.14,6.63-7.16,2.66-14.46,4.91-21.75,7.21-5.37,1.68-10.67,3.54-16.09,5.03-7.78,2.13-15.69,3.76-23.59,5.47-5.13,1.11-10.2,2.45-15.38,3.38-8.81,1.58-17.74,2.61-26.66,3.68-4.41.52-8.77,1.32-13.21,1.72-13.41,1.19-26.93,1.84-40.53,1.84s-27.11-.65-40.53-1.84c-4.5-.41-8.91-1.22-13.39-1.75-8.87-1.06-17.74-2.07-26.48-3.65-5.24-.95-10.37-2.3-15.57-3.42-7.84-1.7-15.7-3.33-23.41-5.44-5.48-1.5-10.81-3.37-16.22-5.07-7.25-2.29-14.52-4.51-21.64-7.16-5.53-2.06-10.92-4.44-16.36-6.72-6.77-2.83-13.54-5.63-20.16-8.8-5.5-2.63-10.84-5.54-16.22-8.39-6.31-3.34-12.6-6.68-18.75-10.32-5.37-3.18-10.59-6.61-15.84-10.03-5.86-3.82-11.69-7.67-17.39-11.79-5.22-3.77-10.29-7.74-15.36-11.74-3.2-2.53-6.56-4.79-9.69-7.41-3.37,1.87-7.25,3.84-11.48,5.8,41.68,129.3,142.28,221.76,261.11,237.99,24.54,3.74,50.58,3.69,74.34.05,119.22-16.28,219.82-108.74,261.5-237.99-3.91-1.82-7.82-3.74-11.66-5.66-3.32,2.78-6.9,5.18-10.29,7.86Z"/>
  <path class="cls-1" d="M654.47,1287.22c-24.6,0-48.63-1.76-72.23-4.61-2.18-.26-4.35-.42-6.52-.71-22.24-2.94-43.87-7.3-65-12.77-2.05-.53-4.29-.69-6.33-1.24-6.39,8.12-12.81,15.79-19.23,23.21-13.92,16.38-29.39,31.33-45.86,44.17-8.8,6.49-16.87,12.15-24.44,17.21,68.34,51.64,152.19,79.77,239.62,79.77s171.28-28.13,239.59-79.77c-7.45-4.97-15.32-10.48-23.85-16.72-17.07-13.33-32.53-28.28-46.6-44.85-6.32-7.28-12.69-14.9-19.08-23.02-2.04.55-4.28.71-6.33,1.24-21.11,5.47-42.73,9.82-64.95,12.76-2.19.3-4.38.44-6.57.71-23.6,2.85-47.61,4.61-72.2,4.61Z"/>
  <path class="cls-1" d="M745.84,1180.86c-2.24-3.83-4.44-7.64-6.65-11.54-8.67-15.3-17.16-30.95-25.21-47.2-23.09-46.72-42.1-94.77-54.99-139.09-1.62-5.75-3.12-11.41-4.52-16.97-1.38,5.51-2.88,11.07-4.45,16.72-12.96,44.61-31.99,92.71-55.08,139.33-8.04,16.27-16.56,31.93-25.24,47.25-2.2,3.89-4.38,7.67-6.61,11.48-8.35,14.24-16.83,28.05-25.51,41.04-.42.64-.83,1.39-1.26,2.03,75.05,16.97,161.15,16.97,236.3,0-.15-.23-.3-.49-.45-.73-8.94-13.33-17.69-27.63-26.31-42.34Z"/>
  <path class="cls-1" d="M408.91,1295.14c13.16-10.28,26.14-22.82,37.99-36.79,9.3-10.77,18.44-21.84,27.57-34.33,26.44-35.02,52.4-77.9,75.32-124.23,21.81-44.07,39.71-89.27,51.81-130.82,3.27-11.75,6.17-23.31,8.56-34.87,1.77-8.31,3.12-16.08,3.57-23.51l1.6-14.85c.42-3.59.37-6.3.37-9.39l.02-1.18c.22-4.92-1.11-9.44-3.96-13.48-20.61-33.74-98.95-52.48-149.12-52.48-2.46,0-4.84.05-7.13.15l-10.62.89c-6.81.49-13.62.98-20.02,1.92l-5.85.3c-6.64.44-8.26.74-10.08.98-20.31,2.51-39.32,6.2-58.26,11.21-15.64,3.93-30.49,8.71-45.35,13.97-56.61,20.07-110.51,50.17-164.81,91.97-75.67,57.05-127.28,138.5-138.28,217.97-7.48,54,3.81,102.64,32.68,140.61,55.45,73.82,168.5,93.2,281.37,48.25,11.07-4.57,22.48-9.84,33.44-15.54l6.07-3.05,7.11-3.64c13.8-7.57,28.16-16.92,45.99-30.05Z"/>
  <path class="cls-1" d="M1306.68,1158.51c-10.99-79.48-62.61-160.87-138.08-217.78-54.47-41.95-108.37-72.05-164.96-92.07-14.9-5.31-29.71-10.08-45.05-13.92-19.28-5.11-38.29-8.8-56.85-11.07-2.75-.34-5.07-.79-7.03-.79l-10.65-.74c-6.42-.93-13.21-1.43-20.04-1.92l-11.95-.98c-48.86-2.71-133.43,17.07-154.51,51.15-2.83,4.03-4.82,7.92-4.82,15.94,0,2.26.3,4.33.57,6.69l1.8,16.13c.57,8.85,1.92,16.62,3.66,24.84,2.41,11.66,5.31,23.21,8.66,35.21,12,41.26,29.9,86.51,51.72,130.58,22.92,46.33,48.89,89.22,75.08,123.94,9.37,12.79,18.52,23.85,27.66,34.43,12,14.16,24.98,26.71,38.76,37.48,16.38,12,30.1,21.05,43.26,28.38h.32l11.8,6.49c14.16,7.08,25.55,12.34,36.96,17.07,112.6,44.85,225.65,25.38,280.95-48.25l.07-.15c28.87-37.97,40.18-86.61,32.68-140.66Z"/>
</svg>