<?xml version="1.0" encoding="UTF-8"?>
<svg id="Ebene_1" data-name="Ebene 1" xmlns="http://www.w3.org/2000/svg" viewBox="0 0 929.25 1400.3">
  <defs>
    <style>
      .cls-1 {
        fill: #398756;
      }
    </style>
  </defs>
  <path class="cls-1" d="M763.21,1059.17c4.98-33.27,7.76-66.89,7.76-99.39,0-43.29-4.24-85.16-12.13-124.79,91.95-2.6,165.69-77.94,165.69-170.52s-76.38-170.59-170.6-170.59c-21.72,0-42.49,4.07-61.6,11.47,26.2-43.76,41.38-95.56,41.38-151.09,0-44.08-9.55-85.81-26.6-123.04,51.76-11.63,90.43-57.86,90.43-113.13,0-64.04-51.92-115.96-115.96-115.96-55.23,0-101.44,38.62-113.11,90.32-32.27-14.32-67.75-22.23-104.98-22.23-32.85,0-64.32,6.17-93.44,17.45C357.42,37.3,311.85,0,257.57,0c-64.04,0-115.96,51.92-115.96,115.96,0,51.69,33.82,95.47,80.54,110.44-18.46,38.43-28.87,81.86-28.87,127.86,0,59.86,17.63,115.39,47.71,161.18-21.46-9.73-45.29-15.16-70.39-15.16C76.38,500.28,0,576.66,0,670.88s68.8,162.75,156.34,170c-7.16,37.88-10.99,77.75-10.99,118.9,0,32.17,1.15,60.17,3.79,85.54-80.73,13.5-142.26,83.68-142.26,168.24,0,94.22,76.38,170.59,170.6,170.59,66.1,0,123.41-37.59,151.74-92.56,72.62-66.12,174.26-97.43,287.42,32.64,30.58,45.86,82.77,76.07,142.03,76.07,94.22,0,170.6-76.38,170.6-170.59s-73.92-168.11-166.03-170.53ZM693.8,205.15c-13.14-23.82-18.67-71.23-86.62-86.7,22.15-15.99,88.94,3.2,86.62,86.7ZM574.84,267.02c16.73,0,30.29,13.56,30.29,30.29s-13.56,30.29-30.29,30.29-30.29-13.56-30.29-30.29,13.56-30.29,30.29-30.29ZM476.92,337.65c22.33,0,40.43,12.86,40.43,28.72s-18.1,28.72-40.43,28.72-40.43-12.86-40.43-28.72,18.1-28.72,40.43-28.72ZM239.06,192.67c3.38-83.46,71.32-98.05,92.33-80.59-68.85,10.8-77.59,57.72-92.33,80.59ZM305.4,1271.39c23.47-113.88-1.13-187.93-125.83-218.44,90.06-.92,199.77,55.12,125.83,218.44ZM181.27,826c124.7-30.51,149.3-104.57,125.83-218.44,73.94,163.32-35.77,219.36-125.83,218.44ZM360.42,329.11c-16.73,0-30.29-13.56-30.29-30.29s13.56-30.29,30.29-30.29,30.29,13.56,30.29,30.29-13.56,30.29-30.29,30.29ZM435.58,484.91c91.11-9.49,120.93-27.75,168.63-78.96-8.58,123.36-105.99,113.97-168.63,78.96ZM616.3,1288.26c-73.94-163.32,35.77-219.36,125.83-218.44-124.7,30.51-149.3,104.57-125.83,218.44ZM618.14,599.88c-23.47,113.87,1.13,187.93,125.83,218.44-90.06.92-199.77-55.12-125.83-218.44Z"/>
</svg>