<?xml version="1.0" encoding="UTF-8"?>
<svg id="Layer_1" data-name="Layer 1" xmlns="http://www.w3.org/2000/svg" viewBox="0 0 766 618.82">
  <defs>
    <style>
      .cls-1 {
        fill: #398756;
      }
    </style>
  </defs>
  <path class="cls-1" d="M177.69,424.47c6.85,2.14,14.13,3.3,21.67,3.33h.29c7.63,0,15-1.16,21.93-3.33,2.72-.84,5.37-1.84,7.94-2.98,25.82-11.46,43.93-37.29,44.05-67.32.07-19.75-7.55-38.34-21.46-52.36-13.3-13.41-30.84-21.09-49.61-21.79-.86-.04-1.71-.06-2.57-.06h-.29c-4.48,0-8.88.4-13.14,1.17-34.4,6.2-60.64,36.29-60.78,72.47v.29c0,33.09,21.88,61.21,51.97,70.58Z"/>
  <path class="cls-1" d="M566.36,279.96h-.28c-.86,0-1.72.02-2.58.06-18.78.7-36.31,8.38-49.61,21.79-13.91,14.02-21.53,32.61-21.45,52.36.12,30.03,18.23,55.88,44.06,67.32,2.57,1.14,5.22,2.14,7.94,2.98,6.93,2.17,14.29,3.33,21.92,3.33h.29c7.54-.03,14.82-1.19,21.67-3.32,30.18-9.41,52.09-37.66,51.96-70.88-.13-36.18-26.37-66.27-60.78-72.47-4.26-.77-8.66-1.17-13.14-1.17Z"/>
  <path class="cls-1" d="M759.66,394.18c-5.78-7.28-14.32-11.11-22.97-11.11-5.92,0-11.89,1.79-17.05,5.5l-40.28,28.77c-21.16,15.12-46.08,23.12-72.06,23.13h-16.6s-14.53.01-14.53.01h-34.07s-4.44-.01-4.44-.01c-23.5-.01-46.12-6.55-65.88-18.98-2.09-1.31-4.15-2.69-6.18-4.14l-19.82-14.16-16-11.44-4.44-3.17c-.89-.64-1.8-1.22-2.74-1.74-.22-.13-.44-.25-.67-.37-.32-.17-.65-.34-.98-.49-.3-.15-.6-.29-.9-.42-.22-.1-.45-.2-.68-.29-.28-.12-.56-.23-.85-.33-.37-.14-.75-.28-1.12-.4-.24-.08-.49-.16-.73-.23-.27-.09-.55-.16-.82-.24-.32-.08-.63-.16-.95-.23-.29-.07-.58-.14-.87-.19-.18-.04-.37-.07-.55-.11-.17-.03-.34-.06-.5-.08-.22-.04-.45-.07-.67-.1-.32-.05-.65-.09-.97-.12-.12-.02-.25-.03-.38-.04-.42-.04-.84-.07-1.26-.09-.2-.01-.39-.02-.59-.02-.28-.02-.57-.02-.85-.02-.44,0-.88.01-1.32.03-.43.02-.87.05-1.31.09-.3.03-.6.06-.89.1-.4.04-.79.1-1.18.16-.31.05-.62.11-.93.17-.08.01-.16.03-.24.05-.25.05-.5.1-.75.16-.28.06-.56.13-.84.21-.28.07-.56.15-.84.23-.28.08-.55.17-.83.26-.3.09-.6.2-.9.31-.13.05-.26.1-.39.15-.98.36-1.94.79-2.88,1.27-.05.02-.1.05-.15.07h0c-.29.16-.58.32-.87.48-.23.12-.46.25-.68.39-.29.17-.58.34-.86.53-.64.41-1.27.85-1.88,1.32-.24.18-.48.37-.71.56-.26.21-.52.43-.77.65-.26.22-.51.45-.76.68-.24.22-.47.44-.7.67-.6.6-1.18,1.24-1.74,1.9-.19.22-.37.44-.55.67-.85,1.06-1.61,2.18-2.29,3.34-.68-1.16-1.44-2.28-2.29-3.34-.36-.45-.73-.9-1.12-1.32-.19-.22-.38-.43-.58-.64-.41-.44-.84-.86-1.28-1.28-.6-.56-1.23-1.09-1.87-1.6-.28-.22-.56-.43-.85-.64-.03-.02-.06-.05-.09-.07-.34-.25-.69-.49-1.04-.72-.46-.31-.93-.6-1.4-.87-.43-.25-.86-.48-1.29-.7h0s-.1-.06-.15-.08c-1.58-.81-3.23-1.46-4.91-1.96-.24-.07-.47-.14-.71-.2-.35-.1-.71-.19-1.06-.27-.2-.05-.39-.09-.59-.13-.53-.12-1.07-.21-1.6-.29-.4-.06-.8-.12-1.2-.16h-.01c-.4-.05-.81-.08-1.22-.11-.22-.02-.45-.03-.67-.04-.4-.02-.8-.03-1.2-.03-.33,0-.66,0-.99.02-.14,0-.28,0-.42.01-.34.01-.68.03-1.01.06-.39.03-.77.07-1.16.12-1.01.11-2.01.29-3.01.51-.29.07-.59.14-.88.22-.2.05-.41.1-.61.17-.23.05-.45.12-.68.2-.21.06-.42.13-.63.2-.31.1-.63.21-.94.33-.61.23-1.22.48-1.81.74-.7.31-1.38.66-2.06,1.03-1.02.57-2.02,1.2-2.99,1.89l-4.46,3.19-16,11.43-19.81,14.15c-2.02,1.44-4.09,2.83-6.19,4.15-2.35,1.48-4.75,2.87-7.17,4.17-17.99,9.68-38.29,14.8-58.7,14.81h-31.13s-21.81,0-21.81,0h-16.7c-25.99-.01-50.91-8.01-72.06-23.12l-40.27-28.77c-5.17-3.71-11.15-5.51-17.07-5.51-8.65,0-17.2,3.83-22.97,11.11-4.09,5.15-6.34,11.61-6.34,18.19,0,8.01,3.33,15.76,9.14,21.27l107.35,101.7c3.33,25.03,5.28,50.47,5.79,75.65.09,4.35,3.64,7.83,8,7.83h126.5c4.36,0,7.91-3.48,8-7.83.51-25.16,2.45-50.59,5.78-75.65l101.31-95.99,5.87-5.56.16-.15c2.01-1.91,3.73-4.08,5.1-6.45,1.37,2.37,3.09,4.55,5.1,6.45l.17.16,5.85,5.55,101.32,95.99c3.33,25.03,5.28,50.47,5.79,75.65.09,4.35,3.64,7.83,8,7.83h126.5c4.36,0,7.91-3.48,8-7.83.51-25.15,2.46-50.59,5.78-75.65l107.34-101.7c5.82-5.5,9.15-13.25,9.15-21.27,0-6.57-2.25-13.04-6.34-18.19Z"/>
  <path class="cls-1" d="M556.4,153.88l16,13.28V8c0-4.42-3.58-8-8-8h-91.97c-4.42,0-8,3.58-8,8v69.51l16,13.29,75.97,63.08Z"/>
  <path class="cls-1" d="M202.5,229.44v34.57c.22,0,.44.01.67.02,22.79.87,44.21,10.28,60.3,26.51,16.92,17.05,26.19,39.67,26.1,63.69-.1,25.01-10.64,48.41-28.26,65.06,6.27-2.01,12.36-4.59,18.17-7.72,2.15-1.16,4.24-2.38,6.23-3.63,1.8-1.13,3.62-2.35,5.4-3.62l19.81-14.15,9.3-6.64v-95.58c0-4.41,3.58-8,8-8h109.56c4.42,0,8,3.59,8,8v95.57l9.3,6.65,19.82,14.16c1.76,1.26,3.57,2.47,5.4,3.62,7.67,4.83,15.89,8.64,24.45,11.38-17.65-16.64-28.21-40.06-28.31-65.1-.1-24.01,9.17-46.63,26.09-63.69,16.09-16.22,37.51-25.64,60.3-26.51.22,0,.44-.02.67-.02v-34.57c0-4.42,3.58-8,8-8h41.23l-53.12-44.12c-.1-.08-.2-.15-.3-.24l-.33-.28-91.52-75.96c-.14-.12-.28-.24-.41-.35l-84.05-69.78-229.72,190.73h41.22c4.42,0,8,3.58,8,8Z"/>
  <path class="cls-1" d="M343.88,369.23c4.44-1.42,9.1-2.16,13.86-2.16,9.16,0,17.9,2.71,25.27,7.67,7.37-4.96,16.1-7.67,25.25-7.67,7.58,0,14.93,1.87,21.52,5.45v-76.57h-93.56v76.57c2.46-1.34,5.02-2.43,7.66-3.29Z"/>
</svg>