<?xml version="1.0" encoding="UTF-8"?>
<svg id="Layer_1" data-name="Layer 1" xmlns="http://www.w3.org/2000/svg" viewBox="0 0 489.62 496.33">
  <defs>
    <style>
      .cls-1 {
        fill: #398756;
      }
    </style>
  </defs>
  <path class="cls-1" d="M481.25,143.72h-5.2v-13.89c0-11.09-8.99-20.09-20.09-20.09h-13.12v-56.39c0-16.45-11.82-29.84-27.8-33.74C380.19,11.09,316.53,0,244.81,0S109.08,11.09,74.58,19.62c-15.97,3.94-27.8,17.29-27.8,33.74v56.39h-13.12c-11.09,0-20.09,8.99-20.09,20.09v13.89h-5.2c-4.63,0-8.38,3.75-8.38,8.38v66.06c0,4.63,3.75,8.38,8.38,8.38h20.68c4.62,0,8.37-3.75,8.37-8.38v-66.06c0-4.63-3.75-8.38-8.37-8.38h-2.96v-11.7c0-5.39,4.36-9.75,9.75-9.75h10.93v288.25c0,13.25,8.42,24.55,20.22,28.79.91.33,1.84.62,2.78.86v42.24c0,7.69,6.23,13.92,13.92,13.92h32.03c7.69,0,13.92-6.23,13.92-13.92v-41.29h230.34v41.29c0,7.69,6.23,13.92,13.91,13.92h32.04c7.69,0,13.91-6.23,13.91-13.92v-42.24c.95-.24,1.88-.53,2.79-.86,5.89-2.12,10.95-6.01,14.53-11.02,3.58-5.01,5.69-11.15,5.69-17.77V122.27h10.92c5.39,0,9.76,4.36,9.76,9.75v11.7h-2.96c-4.63,0-8.37,3.75-8.37,8.38v66.06c0,4.63,3.74,8.38,8.37,8.38h20.68c4.63,0,8.37-3.75,8.37-8.38v-66.06c0-4.63-3.74-8.38-8.37-8.38ZM139.49,32.86c3.88-3.88,9.23-6.28,15.15-6.28h180.35c11.82,0,21.42,9.59,21.42,21.42,0,5.92-2.4,11.27-6.27,15.15-3.88,3.88-9.23,6.27-15.15,6.27h-180.35c-11.83,0-21.42-9.58-21.42-21.42,0-5.91,2.39-11.26,6.27-15.14ZM112.48,385.67c-13.45,0-24.36-10.9-24.36-24.36s10.91-24.36,24.36-24.36,24.36,10.9,24.36,24.36-10.91,24.36-24.36,24.36ZM324.57,398.81c-1.14,1.14-2.71,1.84-4.45,1.84h-150.62c-3.47,0-6.28-2.81-6.28-6.28,0-1.74.7-3.31,1.84-4.45,1.14-1.14,2.72-1.84,4.45-1.84h150.62c3.47,0,6.29,2.81,6.29,6.28,0,1.74-.71,3.31-1.85,4.45ZM377.14,385.67c-13.45,0-24.36-10.9-24.36-24.36s10.9-24.36,24.36-24.36,24.36,10.9,24.36,24.36-10.9,24.36-24.36,24.36ZM421.23,256.98c0,15.97-12.94,28.92-28.91,28.92H97.3c-15.97,0-28.92-12.95-28.92-28.92V118.74c0-15.97,12.95-28.92,28.92-28.92h295.02c15.97,0,28.91,12.95,28.91,28.92v138.24Z"/>
</svg>