<?xml version="1.0" encoding="UTF-8"?>
<svg xmlns="http://www.w3.org/2000/svg" viewBox="0 0 867.64 1298.92">
  <defs>
    <style>
      .cls-1 {
        fill: #398756;
      }
    </style>
  </defs>
  <g id="Ebene_1" data-name="Ebene 1">
    <path class="cls-1" d="M339.71,283.16c40.14,46.39,106.21,63.39,164.41,42.3,3.45-1.25,7.21-.28,9.58,2.46l11.33,13.09c1.84,2.13,2.53,5.04,1.86,7.79-.68,2.74-2.64,5-5.25,6.06-3.87,1.57-7.86,3.02-11.84,4.32-22.68,7.42-46.26,10.36-70.09,8.74-23.83-1.62-46.72-7.72-68.03-18.13-10.25-5-19.91-10.9-28.95-17.66-10.43-7.8-20.03-16.74-28.69-26.76-11.94-13.8-27.99-43.51-37.28-72.48l30.06-8.84c6.05,15,22.01,46.55,32.88,59.12Z"/>
    <g>
      <path class="cls-1" d="M120.03,121.95l44.17,29.81c.3-.11.61-.21.92-.3l42.91-12.69c9.19-2.72,18.99,3.1,21.91,13,2.93,9.92-2.11,20.16-11.3,22.88l-14.27,4.22,49.6,33.48c6.22,4.17,8.58,12.23,5.55,19.15l-65.79,151.03c-3.5,7.87-12.64,11.51-20.54,8.06-4.36-1.94-7.44-5.61-8.71-9.88-1.01-3.4-.87-7.14.64-10.65l60.63-139.14-123.18-83.11c-7.13-4.84-9.02-14.5-4.19-21.68,4.82-7.11,14.48-8.99,21.64-4.18Z"/>
      <rect class="cls-1" x="245.87" y="207.18" width="70.12" height="16.53" rx="2.58" ry="2.58" transform="translate(-50.42 90.76) rotate(-16.86)"/>
      <path class="cls-1" d="M209.83,235.73l-110.5-74.05-90.03,26.62c-6.87,2.03-10.78,9.27-8.77,16.1l10.19,34.48,13.38,45.27,27.25,92.18c2.02,6.82,9.24,10.77,16.11,8.74l89.61-26.49,52.75-122.84ZM110.01,319.28h0s-67.17-33.39-67.17-33.39l39-64.14c9.09-14.31,28.49-19.79,43.72-12.2,15.23,7.59,20.59,25.4,12.21,40.06l-6.46,10.68,10.99,5.48c14.94,7.88,19.97,25.79,11.18,40.36-8.78,14.57-28.1,20.35-43.45,13.14Z"/>
    </g>
    <path class="cls-1" d="M867.6,323.45c-1.65-133.76-114.58-241.68-248.72-241.68-.77,0,.47.02-.29.03,9.83,18.47,18.56,38.33,22.02,59.22,2.7,16.27,5.32,32.65,3.88,48.93,15.36,10.1,23.5,27.47,23.5,47.22,0,31.2-25.29,56.49-56.49,56.49s-56.49-25.29-56.49-56.49c0-23.22,17.01-43.16,37.04-51.84,1.85-34.56-13.35-68.83-32.81-95.72-105.33,27.33-181.11,123.04-181.11,236.93,0,104.98,66.09,194.5,158.93,229.28l4.77,39.06c1.28,10.5,10.84,17.98,21.35,16.7l21.49-2.63c-.76,3.36-.97,6.93-.52,10.59l14.99,122.66c.93,7.57,4.58,14.49,10.16,19.24,11.62,9.89,13.83,27.96,4.93,40.36-4.27,5.95-6.15,13.55-5.23,21.12l11.31,92.55c.93,7.57,4.58,14.49,10.16,19.24l26.42,22.48c11.62,9.89,13.83,27.96,4.93,40.36l-20.23,28.18c-4.27,5.95-6.15,13.55-5.23,21.12l.66,5.41c.92,7.57,4.58,14.49,10.16,19.24l26.42,22.48c11.62,9.89,13.83,27.96,4.93,40.36l-20.23,28.18c-4.27,5.95-6.15,13.55-5.23,21.12l.78,6.35c.7,5.77,3,11.21,6.57,15.6l67.83,83.34c11.01,13.53,30.42,13.3,40.66-.48l42.3-56.95c4.48-6.03,6.47-13.81,5.52-21.57l-74.5-609.71c-.45-3.66-1.51-7.08-3.06-10.15l14.04-1.72c10.5-1.28,17.98-10.84,16.7-21.35l-4.97-40.67c63.33-44.79,103.31-118.73,102.71-199.79h0c0-1.03-.02-2.06-.04-3.09ZM787.54,1224.37l-18.65,30.75-73.63-602.55,22.08-2.7,70.2,574.51Z"/>
  </g>
  <g id="Ebene_2" data-name="Ebene 2">
    <path class="cls-1" d="M633.89,155.13c-3.58-23.61-11.54-45.92-23.67-66.3-12.56-21.11-29.05-39.2-49.02-53.78-19.96-14.58-42.22-24.78-66.15-30.33-23.11-5.35-46.78-6.15-70.37-2.37-23.59,3.78-45.9,11.94-66.33,24.27-21.16,12.76-39.34,29.44-54.05,49.58-11.35,15.54-18.34,27.36-24.38,45.32l31.74,11.36c4.81-12.97,11.44-25.35,19.82-36.83,49.05-67.15,143.12-82.21,209.7-33.58,45.93,33.55,69.23,95.62,57.98,154.49-1.57,6.52.88,13.26,6.26,17.19,3.55,2.6,7.92,3.64,12.28,2.94,4.37-.7,8.21-3.06,10.83-6.64.72-.99,1.33-2.06,1.83-3.18.26-.49.45-1,.58-1.52.31-.96.54-1.96.67-2.97,4.93-22.29,5.69-45.04,2.27-67.63Z"/>
    <path class="cls-1" d="M305.53,192.02c-.21-5.43-.06-10.95-.01-17.17.11-14.75,2.32-29.17,6.49-42.92l-32.09-10.44c-5.36,17.26-8.14,35.16-8.27,53.4-.08,11.76-.24,18.42.9,25.8l32.98-8.67Z"/>
  </g>
</svg>