<?xml version="1.0" encoding="UTF-8"?>
<svg id="Layer_1" data-name="Layer 1" xmlns="http://www.w3.org/2000/svg" viewBox="0 0 534.01 935.6">
  <defs>
    <style>
      .cls-1 {
        fill: #378755;
      }
    </style>
  </defs>
  <path class="cls-1" d="M390.94,468.31c0,152.72,0,305.43,0,458.15,0,10.19-.06,10.29-9.64,7.79-109.37-28.6-218.72-57.27-328.12-85.72-5.99-1.56-8.36-3.68-8.35-10.38.25-249.87.33-499.74.08-749.62,0-8.94,3-11.57,11.08-13.39C164.54,50.58,273.04,25.75,381.49.72c7.78-1.8,9.69-.55,9.68,7.7-.25,153.3-.18,306.6-.18,459.89h-.05ZM311.72,533.9c20.44,0,36.38-16.03,36.41-36.6.03-20.23-16.14-36.44-36.56-36.66-19.65-.21-37.36,17.06-37.24,36.3.14,20.5,16.79,36.96,37.38,36.96Z"/>
  <path class="cls-1" d="M533.81,442.12c0,131.19-.08,262.38.2,393.58.02,8.4-2,11.38-10.53,10.52-7.49-.76-15.17-.76-22.66-.03-8.15.79-9.5-2.64-9.47-9.93.26-55.56.1-111.12.11-166.68.01-188.79.04-377.57.06-566.36q0-21.73-22.12-21.72c-18.91,0-37.82-.22-56.72.05-5.32.08-7.11-1.45-6.94-6.84.33-10.46.19-20.95-.13-31.41-.14-4.65.87-6.74,6.15-6.71,38.69.18,77.38.23,116.06-.06,7.23-.05,6.12,4.26,6.12,8.53,0,82.03-.02,164.06-.02,246.09,0,50.32,0,100.65,0,150.97h-.1Z"/>
  <path class="cls-1" d="M150.51,38.3c-12.07,2.94-24.12,5.94-36.2,8.79-24.32,5.74-48.6,11.66-73.03,16.9-6.24,1.34-8.45,3.39-8.41,10,.28,49.16.13,98.31.12,147.47-.03,203.32-.05,406.64-.07,609.96,0,3.2-.19,6.41-.03,9.6.19,3.74-1.37,5.19-5.11,5.11-7.56-.17-15.13-.19-22.69-.01-3.9.09-5.05-1.69-4.95-5.27.16-5.52.05-11.05.05-16.58C.17,564.81.18,305.35,0,45.89c0-6.98,1.47-9.45,8.96-9.39,47.11.34,94.22.17,141.33.17.07.54.15,1.09.22,1.63Z"/>
</svg>