<?xml version="1.0" encoding="UTF-8"?>
<svg id="object" xmlns="http://www.w3.org/2000/svg" viewBox="0 0 1598.9 2253.24">
  <defs>
    <style>
      .cls-1 {
        stroke-width: 160px;
      }

      .cls-1, .cls-2 {
        fill: none;
        stroke: #398756;
        stroke-linecap: round;
        stroke-miterlimit: 10;
      }

      .cls-2 {
        stroke-width: 150px;
      }

      .cls-3 {
        fill: #398756;
      }
    </style>
  </defs>
  <path class="cls-2" d="M75,623.4s360,714.51,1383.52,287.3"/>
  <path class="cls-3" d="M249.96,1721.82s708.21,149.03,944.71-2.37c0,0-199.02-267.49-208.06-600.72-2.53-93.42-498.35-68.97-498.35-68.97,0,0-248.84,355.56-238.3,672.06Z"/>
  <line class="cls-1" x1="516.26" y1="1769.07" x2="465.37" y2="2163.55"/>
  <path class="cls-1" d="M910.67,1786.85s35.9,191.5,255.6,386.38"/>
  <path class="cls-3" d="M549.36,157.05c-11.52-46.18,16.46-90.34-40.52-131.15-66.05-47.31-121.49-18.7-189.47-1.13-52.24,14.85-96.44,7.21-138.1-15.11,20.56,135.71,81.37,292.48,299.53,212.23"/>
  <circle class="cls-3" cx="826.21" cy="456.75" r="379.07"/>
  <rect class="cls-3" x="508.79" y="138.35" width="39.99" height="117.5" rx="12" ry="12" transform="translate(262.85 -300.64) rotate(41.44)"/>
  <path class="cls-3" d="M1230.94,422.52c40.23-25.43,50.51-76.69,119.9-66.84,80.44,11.42,100.76,70.4,137.78,130.07,27.51,46.82,64.75,71.83,110.29,84.47-108.62,83.92-260.88,155.27-363.18-53.46"/>
  <rect class="cls-3" x="1198.15" y="406.94" width="39.99" height="117.5" rx="12" ry="12" transform="translate(2417.07 978.84) rotate(-177.75)"/>
</svg>