<?xml version="1.0" encoding="UTF-8"?>
<svg id="_ėŗū_1" data-name="ėŗū 1" xmlns="http://www.w3.org/2000/svg" viewBox="0 0 1209.25 1100.9">
  <defs>
    <style>
      .cls-1 {
        fill: #398756;
      }
    </style>
  </defs>
  <g>
    <path class="cls-1" d="M934.28,913.41c35.57-17.69,71.15-35.37,106.72-53.05-65.84-84.64-131.69-169.27-197.53-253.91-40.36,11.55-80.7,23.09-121.05,34.63l211.86,272.33Z"/>
    <path class="cls-1" d="M698.16,609.9c40.9-10.84,81.8-21.68,122.69-32.52-65.41-84.08-130.82-168.15-196.22-252.23-45.65,4.74-91.29,9.47-136.93,14.22l210.46,270.54Z"/>
    <path class="cls-1" d="M213.87,366.15c-71.28,7.4-142.59,14.8-213.87,22.2,87.08,111.94,174.16,223.87,261.24,335.8,63.87-16.93,127.77-33.86,191.63-50.79l-239-307.21Z"/>
    <path class="cls-1" d="M480.42,708.78c-63.01,18.03-126.05,36.06-189.07,54.09,87.66,112.68,175.31,225.34,262.97,338.03,55.54-27.63,111.13-55.25,166.68-82.87l-240.58-309.25Z"/>
    <path class="cls-1" d="M761.34,999.38c47.58-23.65,95.16-47.31,142.74-70.96l-215.92-277.54c-53.98,15.44-107.94,30.88-161.91,46.32l235.09,302.19Z"/>
    <path class="cls-1" d="M499.91,660.9c54.7-14.5,109.4-29,164.11-43.5l-214.49-275.71c-61.06,6.34-122.1,12.68-183.15,19.01l233.54,300.2Z"/>
  </g>
  <g>
    <path class="cls-1" d="M738.42,170.51c-8.15,42.09,21.8,41.03,48.73,41.03,26.93,0,56.93,1.06,48.78-41.03C827.44,126.62,787.18,0,787.18,0c0,0-40.26,126.62-48.76,170.51Z"/>
    <path class="cls-1" d="M1038.74,470.83c-42.09,8.15-41.03-21.8-41.03-48.73s-1.06-56.93,41.03-48.78c43.89,8.5,170.51,48.76,170.51,48.76,0,0-126.62,40.26-170.51,48.76Z"/>
    <path class="cls-1" d="M574.82,278.67c24,35.52,44.43,13.6,63.47-5.44,19.04-19.04,41-39.51,5.48-63.51-37.05-25.03-155.05-86.1-155.05-86.1,0,0,61.07,118,86.1,155.05Z"/>
    <path class="cls-1" d="M930.58,634.43c-35.52-24-13.6-44.43,5.44-63.47,19.04-19.04,39.51-41,63.51-5.48,25.03,37.05,86.1,155.05,86.1,155.05,0,0-118-61.07-155.05-86.1Z"/>
    <path class="cls-1" d="M999.53,278.67c-24,35.52-44.43,13.6-63.47-5.44-19.04-19.04-41-39.51-5.48-63.51,37.05-25.03,155.05-86.1,155.05-86.1,0,0-61.07,118-86.1,155.05Z"/>
    <path class="cls-1" d="M653,310.34l17.1,21.99c26.95-35.23,69.39-58.01,117.07-58.01,81.26,0,147.36,66.11,147.36,147.36,0,59.14-36.05,112.59-89.51,135.51l4.19,5.38,18.47,23.74c61.76-30.37,102.8-94.27,102.8-164.63,0-101.08-82.23-183.31-183.31-183.31-55.94,0-106.07,25.21-139.72,64.84l5.55,7.13Z"/>
  </g>
</svg>