<?xml version="1.0" encoding="UTF-8" standalone="no"?>
<!-- Created with Inkscape (http://www.inkscape.org/) -->

<svg
   version="1.1"
   id="svg1"
   width="5333.3335"
   height="5333.3335"
   viewBox="0 0 5333.3335 5333.3335"
   xmlns="http://www.w3.org/2000/svg"
   xmlns:svg="http://www.w3.org/2000/svg">
  <defs
     id="defs1">
    <clipPath
       clipPathUnits="userSpaceOnUse"
       id="clipPath2">
      <path
         d="M 0,4000 H 4000 V 0 H 0 Z"
         transform="translate(-1203.4434,-2488.301)"
         id="path2" />
    </clipPath>
    <clipPath
       clipPathUnits="userSpaceOnUse"
       id="clipPath4">
      <path
         d="M 0,4000 H 4000 V 0 H 0 Z"
         transform="translate(-1378.404,-1389.8779)"
         id="path4" />
    </clipPath>
    <clipPath
       clipPathUnits="userSpaceOnUse"
       id="clipPath6">
      <path
         d="M 0,4000 H 4000 V 0 H 0 Z"
         transform="translate(-1644.7048,-1342.6339)"
         id="path6" />
    </clipPath>
    <clipPath
       clipPathUnits="userSpaceOnUse"
       id="clipPath8">
      <path
         d="M 0,4000 H 4000 V 0 H 0 Z"
         transform="translate(-2039.1156,-1324.8484)"
         id="path8" />
    </clipPath>
    <clipPath
       clipPathUnits="userSpaceOnUse"
       id="clipPath10">
      <path
         d="M 0,4000 H 4000 V 0 H 0 Z"
         transform="translate(-1677.8013,-2954.6543)"
         id="path10" />
    </clipPath>
    <clipPath
       clipPathUnits="userSpaceOnUse"
       id="clipPath12">
      <path
         d="M 0,4000 H 4000 V 0 H 0 Z"
         transform="translate(-2333.6476,-2647.1216)"
         id="path12" />
    </clipPath>
    <clipPath
       clipPathUnits="userSpaceOnUse"
       id="clipPath14">
      <path
         d="M 0,4000 H 4000 V 0 H 0 Z"
         transform="translate(-1624.3341,-2865.2687)"
         id="path14" />
    </clipPath>
    <clipPath
       clipPathUnits="userSpaceOnUse"
       id="clipPath16">
      <path
         d="M 0,4000 H 4000 V 0 H 0 Z"
         transform="translate(-2359.3822,-2689.1816)"
         id="path16" />
    </clipPath>
    <clipPath
       clipPathUnits="userSpaceOnUse"
       id="clipPath18">
      <path
         d="M 0,4000 H 4000 V 0 H 0 Z"
         transform="translate(-2336.2954,-2587.6163)"
         id="path18" />
    </clipPath>
  </defs>
  <g
     id="layer-MC0">
    <path
       id="path1"
       d="M 0,0 C 0,0 359.998,-714.513 1383.517,-287.305"
       style="fill:none;stroke:#2B8554;stroke-width:150;stroke-linecap:round;stroke-linejoin:miter;stroke-miterlimit:10;stroke-dasharray:none;stroke-opacity:1"
       transform="matrix(1.3333333,0,0,-1.3333333,1604.5912,2015.5987)"
       clip-path="url(#clipPath2)" />
    <path
       id="path3"
       d="m 0,0 c 0,0 708.208,-149.031 944.715,2.374 0,0 -199.023,267.487 -208.064,600.724 -2.535,93.418 -498.347,68.966 -498.347,68.966 C 238.304,672.064 -10.54,316.502 0,0"
       style="fill:#2B8554;fill-opacity:1;fill-rule:nonzero;stroke:none"
       transform="matrix(1.3333333,0,0,-1.3333333,1837.8719,3480.1629)"
       clip-path="url(#clipPath4)" />
    <path
       id="path5"
       d="M 0,0 -50.894,-394.479"
       style="fill:none;stroke:#2B8554;stroke-width:160;stroke-linecap:round;stroke-linejoin:miter;stroke-miterlimit:10;stroke-dasharray:none;stroke-opacity:1"
       transform="matrix(1.3333333,0,0,-1.3333333,2192.9397,3543.1549)"
       clip-path="url(#clipPath6)" />
    <path
       id="path7"
       d="M 0,0 C 0,0 35.9,-191.501 255.601,-386.385"
       style="fill:none;stroke:#2B8554;stroke-width:160;stroke-linecap:round;stroke-linejoin:miter;stroke-miterlimit:10;stroke-dasharray:none;stroke-opacity:1"
       transform="matrix(1.3333333,0,0,-1.3333333,2718.8207,3566.8688)"
       clip-path="url(#clipPath8)" />
    <path
       id="path9"
       d="m 0,0 c -11.518,46.177 16.455,90.344 -40.521,131.15 -66.055,47.306 -121.49,18.698 -189.474,1.127 -52.235,-14.852 -96.44,-7.209 -138.097,15.111 20.565,-135.711 81.373,-292.482 299.527,-212.226"
       style="fill:#2B8554;fill-opacity:1;fill-rule:nonzero;stroke:none"
       transform="matrix(1.3333333,0,0,-1.3333333,2237.0684,1393.7943)"
       clip-path="url(#clipPath10)" />
    <path
       id="path11"
       d="m 0,0 c -4.324,-209.311 -177.51,-375.485 -386.82,-371.16 -209.311,4.324 -375.485,177.509 -371.16,386.82 4.324,209.31 177.509,375.485 386.82,371.16 C -161.85,382.496 4.324,209.311 0,0"
       style="fill:#2B8554;fill-opacity:1;fill-rule:nonzero;stroke:none"
       transform="matrix(1.3333333,0,0,-1.3333333,3111.53,1803.8379)"
       clip-path="url(#clipPath12)" />
    <path
       id="path13"
       d="m 0,0 -11.985,10.582 c -4.947,4.368 -5.421,11.99 -1.053,16.938 L 48.85,97.612 c 4.368,4.947 11.99,5.421 16.938,1.053 L 77.773,88.083 c 4.947,-4.369 5.421,-11.99 1.053,-16.938 L 16.938,1.053 C 12.569,-3.895 4.948,-4.368 0,0"
       style="fill:#2B8554;fill-opacity:1;fill-rule:nonzero;stroke:none"
       transform="matrix(1.3333333,0,0,-1.3333333,2165.7788,1512.9752)"
       clip-path="url(#clipPath14)" />
    <path
       id="path15"
       d="m 0,0 c 40.227,25.433 50.511,76.691 119.896,66.837 80.44,-11.424 100.76,-70.404 137.779,-130.071 27.51,-46.822 64.752,-71.832 110.291,-84.469 -108.618,-83.922 -260.881,-155.27 -363.179,53.457"
       style="fill:#2B8554;fill-opacity:1;fill-rule:nonzero;stroke:none"
       transform="matrix(1.3333333,0,0,-1.3333333,3145.8428,1747.7579)"
       clip-path="url(#clipPath16)" />
    <path
       id="path17"
       d="m 0,0 15.976,-0.628 c 6.595,-0.259 12.202,4.925 12.461,11.52 l 3.671,93.432 c 0.259,6.595 -4.925,12.203 -11.52,12.462 L 4.612,117.413 C -1.982,117.672 -7.59,112.489 -7.849,105.894 L -11.52,12.462 C -11.779,5.867 -6.595,0.259 0,0"
       style="fill:#2B8554;fill-opacity:1;fill-rule:nonzero;stroke:none"
       transform="matrix(1.3333333,0,0,-1.3333333,3115.0605,1883.1784)"
       clip-path="url(#clipPath18)" />
  </g>
</svg>
