<?xml version="1.0" encoding="UTF-8"?>
<svg id="Layer_1" data-name="Layer 1" xmlns="http://www.w3.org/2000/svg" viewBox="0 0 488.81 606.49">
  <defs>
    <style>
      .cls-1 {
        fill: #398756;
      }
    </style>
  </defs>
  <path class="cls-1" d="M310.6,588.38c-1.69-1.34-10.87-10.98-95.46-100.5-21.35-22.6-39.45-42.33-40.27-43.9-3.77-7.19-.68-17.77,6.48-22.21,6.34-3.95,15.99-4.85,22.74-2.1,4.71,1.91,10.44,6.48,20.68,16.58,9.13,8.98,18.07,16.08,20.97,16.63,3.01.54,5.61-.5,7.85-3.16,1.06-1.27,2-2.41,2.07-2.56.07-.15-12.58-38.91-28.08-86.16l-28.17-85.89.57-4.89c1.19-10.27,7.43-17.91,17.22-21.17,9.79-3.26,19.34-.88,26.48,6.62l3.39,3.57,16.7,49.41c16.4,48.52,16.74,49.33,16.76,45.04.09-9.04,3.9-16.2,11.41-21.38,9.8-6.78,23.8-5.07,32.38,3.96,3.2,3.34,3.69,4.36,8.05,16.66l4.63,13.09.02-4.32c.05-8.97,3.9-16.17,11.38-21.34,9.8-6.78,23.8-5.07,32.38,3.97,3.19,3.31,3.72,4.47,8.6,17.78,2.87,7.82,4.92,13.17,4.58,11.89-1.01-3.83.54-12.52,2.95-16.81,3.47-6.12,7.19-9.17,13.88-11.44,9.75-3.28,19.25-.88,26.49,6.67l3.37,3.52,23.72,70.56c20.84,61.95,23.84,71.3,24.36,76.36,2.88,88.4-118.69,130.33-178.16,85.53h0Z"/>
  <path class="cls-1" d="M207.17,494.77c-.14-.15-.28-.3-.43-.45-56.47-10.93-112.92-21.86-169.73-32.86,23.94-123.66,47.81-246.97,71.76-370.68,2.27.31,4.17.48,6.03.84,83.08,16.07,166.14,32.22,249.25,48.09,6.07,1.16,7.04,3.27,5.92,9-11.98,61.48-23.92,122.98-35.83,184.47.9,1.36,1.67,2.86,2.52,4.82,1.98-2.23,4.29-4.27,6.93-6.1,6-4.15,13.08-6.01,20.12-5.73,14.21-73.38,28.42-146.77,42.61-220.16.58-2.98,1.16-6,1.3-9.02,1.3-27.92-17.15-50.35-46.83-56.17C292.48,27.43,224.15,14.17,155.75,1.29c-8.14-1.53-17.13-1.86-25.15-.1-24.6,5.4-37.88,22.07-42.57,46.34C59.26,196.37,30.43,345.21,1.61,494.05c-.33,1.71-.67,3.42-.92,5.14-4.55,30.77,13.82,56.77,44.33,62.68,69.82,13.54,139.65,27.06,209.48,40.55,17.09,3.3,32.98-.81,44.82-10.35-8.1-8.38-29.73-31.23-92.15-97.29ZM224.55,62.56c16.3,2.69,32.54,5.83,48.66,9.43,2.16.48,3.56,4.32,5.31,6.6-2.45,1.14-5.05,3.48-7.32,3.19-8.18-1.02-16.25-2.93-24.37-4.5-8.11-1.57-16.31-2.82-24.28-4.93-2.17-.58-3.66-3.77-5.45-5.76,2.5-1.43,5.25-4.4,7.45-4.04ZM204.76,58.9c1.91.14,3.6,3.18,6.8,6.35-4.11,1.76-6.78,3.96-8.61,3.4-1.93-.59-3.06-3.8-4.53-5.87,2.12-1.41,4.34-4.03,6.34-3.88ZM154.39,560.6c-14.76,0-26.72-11.97-26.72-26.72s11.96-26.72,26.72-26.72,26.72,11.96,26.72,26.72-11.96,26.72-26.72,26.72Z"/>
</svg>