<?xml version="1.0" encoding="UTF-8"?>
<svg id="Layer_1" data-name="Layer 1" xmlns="http://www.w3.org/2000/svg" viewBox="0 0 1343.75 1231.02">
  <defs>
    <style>
      .cls-1 {
        fill: #398756;
      }
    </style>
  </defs>
  <path class="cls-1" d="M286.71,210.38c56.63,18.4,117.45-12.6,135.84-69.23,18.4-56.63-12.6-117.45-69.23-135.85-56.63-18.4-117.45,12.6-135.85,69.23-18.39,56.63,12.6,117.45,69.23,135.84Z"/>
  <path class="cls-1" d="M169.26,349.39c0-31.5,25.75-57,57-57h3.75v-5l8.7-30.2c4.03-6.21,8.97-11.81,15.05-15.8-29.54.18-74.77-5.47-91.75,31.75L5.01,613.64c-11.5,24.5-2.5,54.75,19.75,67.25,6.5,3.75,13.5,5.5,20.5,5.5,16.75,0,32.5-10,40.5-27.5l86.67-165.5-3.17-37.48v-106.52Z"/>
  <path class="cls-1" d="M476.42,271.77c-4.6-9.48-10.87-16.6-17.66-21.38-17.75-13.19-41.4-9.93-70.25-9.75,6.25,3.75,11.5,8.75,15.5,14.75,6.25,8.5,9.75,18.75,9.75,30.25v6.75h3.75c31.25,0,56.75,25.5,56.75,57v69.3l-4.43,82.11,79.18,150.85c8,17,24,26.75,40.5,26.75,7,0,14.25-1.75,20.75-5.5,22.25-13,31-43,19.25-67.5l-153.09-333.64Z"/>
  <path class="cls-1" d="M226.26,685.64c-20.75,0-39-11.25-49-28l2.06,497c.25,41.25,30.25,74.5,67.25,74.5h.5c37,0,67-34,66.75-75.25l-2.06-468.25h-85.5Z"/>
  <path class="cls-1" d="M417.51,685.64h-84l1.81,468.25c.25,41.25,30.25,74.5,67.25,74.5h.5c37.25-.25,67-34,66.75-75.5l-2.06-497.75c-9.5,18-28.5,30.5-50.25,30.5Z"/>
  <path class="cls-1" d="M849.01,1167.27c-1,34.5,26.5,63,61,63.75h1.5c33.75,0,61.5-27,62.25-61l6.25-260.13c-45.25-1.5-87.5-6.5-124.75-13.25l-6.25,270.62Z"/>
  <path class="cls-1" d="M1007.76,1168.52c0,34.5,28,62.5,62.5,62.5s62.5-28,62.5-62.5v-270.12c-39.5,8-81.25,11.75-125,12v258.12Z"/>
  <path class="cls-1" d="M1333.51,587.14l-184.25-243.25v286.25c0,32-26,58-58.25,58h-198.5c-32.03,0-58-25.97-58-58v-274.75l-174,224.25c-16.75,21.75-12.75,53.25,9,70.25,9,7,19.75,10.5,30.5,10.5,15,0,29.75-6.75,39.5-19.5l91.5-117.75-110.79,297.05c-2.9,7.77,1.14,16.35,9,19.01,60.69,20.56,304.35,92.48,508.14.41,6.69-3.02,10.09-10.72,8-17.76l-90.35-304.7,99,130.5c9.75,13,24.75,19.75,39.75,19.75,10.5,0,21.25-3.25,30.25-10,22-16.75,26.25-48.25,9.5-70.25Z"/>
  <path class="cls-1" d="M799.37,306.69c16.25.75,33.75-4,49.5-13.5,15.5-9.5,28.75-24.25,37-40.75,4.25-8.25,7.5-17,9.5-26,1-4.25,2-9,2.5-13.5,0-2.25.25-4,.5-6,5,9,11.25,17.5,18.75,25,9.5-7.75,21.25-12.5,34.5-12.5h80.5c14.5,0,27.75,6,37.75,15.75,6.25-5.5,11.75-11.75,16.75-18.75.5,3.5,1,6.75,1.75,10,2,9,5.25,17.75,9.5,26,8.25,16.5,21.25,31.25,37,40.75,15.5,9.5,33,14.25,49.5,13.5,8,0,16-2.5,23.5-4.25,7.5-2.75,14.75-6.75,21.5-11.5-10.5-13.75-19.5-22.75-25.75-33-6.5-9.25-9.5-18.25-12-25s-3-13-4.25-18.75l-1.5-8.75-.75-4.5c-.25-.75-.5-3.5-.75-1.5v-4c-1.75-17.5-8-35-17.75-48.75-10.25-13.25-22.75-22.75-35.5-28.75-10.75-5.25-21.75-7.25-33-8-12-29-35.5-52.75-67.75-63.5-55.75-18.25-115,10-137.25,63h-1.75c-13,0-26.25,2.25-38.75,8.5-13,6-25.25,15.5-35.5,28.75-10,13.75-16,31.25-18,48.75v4c-.25-2-.25.75-.5,1.5l-.75,4.5-1.5,8.75c-1.25,5.75-1.75,12-4.25,18.75s-5.5,15.75-12.25,25c-6,10.25-15,19.25-25.5,33,6.75,4.75,13.75,8.75,21.5,11.5,7.25,1.75,15.5,4.25,23.5,4.25Z"/>
  <path class="cls-1" d="M360.58,257.54h-77.46c-15.48,0-28.07,12.59-28.07,28.07v31.73h-28.73c-17.65,0-31.96,14.31-31.96,31.96v279.31c0,17.65,14.31,31.96,31.96,31.96h191.08c17.65,0,31.96-14.31,31.96-31.96v-279.31c0-17.65-14.3-31.96-31.96-31.96h-28.74v-31.73c0-15.48-12.59-28.07-28.07-28.07ZM279.99,285.61c0-1.73,1.4-3.13,3.13-3.13h77.46c1.73,0,3.13,1.4,3.13,3.13v31.73h-83.72v-31.73ZM380.36,555.63h-117.01v-21.62h117.01v21.62Z"/>
  <path class="cls-1" d="M1032.08,244.56h-80.47c-16.08,0-29.16,13.08-29.16,29.16v32.97h-29.85c-18.33,0-33.2,14.86-33.2,33.19v290.14c0,18.33,14.86,33.2,33.2,33.2h198.49c18.33,0,33.19-14.86,33.19-33.2v-290.14c0-18.34-14.86-33.19-33.19-33.19h-29.86v-32.97c0-16.08-13.08-29.16-29.16-29.16ZM948.36,273.72c0-1.79,1.45-3.25,3.25-3.25h80.47c1.8,0,3.25,1.46,3.25,3.25v32.97h-86.97v-32.97ZM1052.62,554.21h-121.55v-22.45h121.55v22.45Z"/>
</svg>