<?xml version="1.0" encoding="UTF-8"?>
<svg id="Layer_1" data-name="Layer 1" xmlns="http://www.w3.org/2000/svg" viewBox="0 0 317.42 178.7">
  <defs>
    <style>
      .cls-1 {
        fill: #398756;
      }
    </style>
  </defs>
  <path class="cls-1" d="M158.67,31.82c-8.4,0-15.22,6.83-15.22,15.22s6.83,15.23,15.22,15.23,15.23-6.83,15.23-15.23-6.83-15.22-15.23-15.22Z"/>
  <path class="cls-1" d="M204.88,27.86c-2.51-6-10.14-8.83-19.07-7.96.98-8.94-1.96-16.57-7.96-19.07-6.1-2.51-13.52.87-19.18,7.74-5.67-6.87-13.08-10.24-19.07-7.74-6.1,2.51-8.94,10.13-8.07,19.07-8.94-.87-16.57,1.96-19.07,7.96-2.51,6.1.87,13.51,7.74,19.18-6.87,5.67-10.25,13.08-7.74,19.19,2.51,5.99,10.14,8.83,19.07,7.96-.87,8.94,1.96,16.57,8.07,19.07,4.14,1.74,9.04.54,13.62-2.62v24.52c-.65-.65-1.31-1.42-2.07-2.07-7.52-6.87-18.31-7.63-23.11-7.63h-2.62c-1.64.21-2.94,1.63-2.94,3.37,0,.65.22,15.91,10.03,24.85,6.43,5.89,15.26,7.3,20.71,7.63v16.79c1.85-.11,3.59-.11,5.45-.11s3.7,0,5.56.11v-16.79c5.45-.32,14.17-1.74,20.71-7.63,9.81-8.94,9.92-24.2,9.92-24.85.11-1.74-1.31-3.16-2.94-3.37-.65,0-15.91-1.31-25.72,7.63-.76.65-1.42,1.42-1.96,2.07v-24.52c4.47,3.16,9.37,4.36,13.62,2.62,6-2.51,8.94-10.14,7.96-19.07,8.94.87,16.57-1.96,19.07-7.96,2.51-6.1-.87-13.52-7.74-19.19,6.87-5.67,10.25-13.08,7.74-19.18ZM158.66,71.12c-13.19,0-23.98-10.79-23.98-24.09s10.79-23.98,23.98-23.98,24.09,10.68,24.09,23.98-10.79,24.09-24.09,24.09Z"/>
</svg>