<?xml version="1.0" encoding="UTF-8"?>
<svg id="Layer_1" data-name="Layer 1" xmlns="http://www.w3.org/2000/svg" viewBox="0 0 276 360">
  <defs>
    <style>
      .cls-1 {
        fill: #398756;
      }
    </style>
  </defs>
  <path class="cls-1" d="M132,276h-60C32.24,276,0,243.76,0,204h60c39.76,0,72,32.24,72,72h0Z"/>
  <path class="cls-1" d="M144,330h60c39.76,0,72-32.24,72-72h-60c-39.76,0-72,32.24-72,72h0Z"/>
  <path class="cls-1" d="M144,222h60c39.76,0,72-32.24,72-72h-60c-39.76,0-72,32.24-72,72h0Z"/>
  <rect class="cls-1" x="126" y="84" width="24" height="276"/>
  <path class="cls-1" d="M108,84c-6.63,0-12-5.37-12-12V12c0-6.63,5.37-12,12-12s12,5.37,12,12v60c0,6.63-5.37,12-12,12Z"/>
  <path class="cls-1" d="M168,84c-6.63,0-12-5.37-12-12V12c0-6.63,5.37-12,12-12s12,5.37,12,12v60c0,6.63-5.37,12-12,12Z"/>
  <path class="cls-1" d="M126,48h24c26.49,0,48,21.51,48,48v30c0,3.31-2.69,6-6,6h-108c-3.31,0-6-2.69-6-6v-30c0-26.49,21.51-48,48-48Z" transform="translate(276 180) rotate(180)"/>
</svg>