<?xml version="1.0" encoding="UTF-8" standalone="no"?>
<!-- Created with Inkscape (http://www.inkscape.org/) -->

<svg
   version="1.1"
   id="svg1"
   width="1122.52"
   height="793.70135"
   viewBox="0 0 1122.52 793.70135"
   xmlns="http://www.w3.org/2000/svg"
   xmlns:svg="http://www.w3.org/2000/svg">
  <defs
     id="defs1">
    <clipPath
       clipPathUnits="userSpaceOnUse"
       id="clipPath2">
      <path
         d="M 0,595.276 H 841.89 V 0 H 0 Z"
         transform="translate(-597.36941,-288.82781)"
         id="path2" />
    </clipPath>
  </defs>
  <g
     id="layer-MC0">
    <path
       id="path1"
       d="m 0,0 c 0,-15.97 -12.941,-28.919 -28.911,-28.919 h -295.02 c -15.97,0 -28.918,12.949 -28.918,28.919 v 138.236 c 0,15.97 12.948,28.919 28.918,28.919 h 295.02 C -12.941,167.155 0,154.206 0,138.236 Z m -44.093,-128.696 c -13.452,0 -24.357,10.904 -24.357,24.364 0,13.452 10.905,24.357 24.357,24.357 13.459,0 24.364,-10.905 24.364,-24.357 0,-13.46 -10.905,-24.364 -24.364,-24.364 m -52.575,-13.138 c -1.139,-1.139 -2.708,-1.84 -4.445,-1.84 h -150.623 c -3.467,0 -6.284,2.81 -6.284,6.285 0,1.737 0.7,3.306 1.839,4.445 1.139,1.138 2.715,1.839 4.445,1.839 h 150.623 c 3.474,0 6.291,-2.81 6.291,-6.284 0,-1.738 -0.708,-3.307 -1.846,-4.445 m -212.088,13.138 c -13.452,0 -24.364,10.904 -24.364,24.364 0,13.452 10.912,24.357 24.364,24.357 13.452,0 24.364,-10.905 24.364,-24.357 0,-13.46 -10.912,-24.364 -24.364,-24.364 m 27.014,352.812 c 3.876,3.876 9.233,6.278 15.145,6.278 h 180.352 c 11.824,0 21.415,-9.591 21.415,-21.416 0,-5.919 -2.401,-11.269 -6.27,-15.145 -3.875,-3.876 -9.233,-6.27 -15.145,-6.27 h -180.352 c -11.831,0 -21.415,9.583 -21.415,21.415 0,5.913 2.394,11.263 6.27,15.138 M 60.013,113.252 h -5.197 v 13.89 c 0,11.094 -8.993,20.087 -20.087,20.087 H 21.613 v 56.385 c 0,16.451 -11.825,29.838 -27.802,33.743 -34.853,8.525 -98.515,19.62 -170.236,19.62 -71.72,0 -135.732,-11.095 -170.227,-19.62 -15.97,-3.942 -27.802,-17.292 -27.802,-33.743 v -56.385 h -13.117 c -11.094,0 -20.087,-8.993 -20.087,-20.087 v -13.89 h -5.196 c -4.628,0 -8.38,-3.752 -8.38,-8.38 V 38.816 c 0,-4.627 3.752,-8.379 8.38,-8.379 h 20.678 c 4.62,0 8.372,3.752 8.372,8.379 v 66.056 c 0,4.628 -3.752,8.38 -8.372,8.38 h -2.956 v 11.7 c 0,5.387 4.365,9.751 9.751,9.751 h 10.927 v -288.245 c 0,-13.255 8.423,-24.547 20.218,-28.795 0.912,-0.328 1.839,-0.62 2.781,-0.861 v -42.239 c 0,-7.686 6.233,-13.92 13.919,-13.92 h 32.028 c 7.686,0 13.919,6.234 13.919,13.92 v 41.29 h 230.336 v -41.29 c 0,-7.686 6.226,-13.92 13.912,-13.92 h 32.035 c 7.686,0 13.912,6.234 13.912,13.92 v 42.239 c 0.949,0.241 1.876,0.533 2.788,0.861 5.89,2.124 10.949,6.007 14.533,11.022 3.576,5.007 5.686,11.145 5.686,17.773 v 288.245 h 10.919 c 5.394,0 9.759,-4.364 9.759,-9.751 v -11.7 h -2.956 c -4.628,0 -8.372,-3.752 -8.372,-8.38 V 38.816 c 0,-4.627 3.744,-8.379 8.372,-8.379 h 20.678 c 4.627,0 8.372,3.752 8.372,8.379 v 66.056 c 0,4.628 -3.745,8.38 -8.372,8.38"
       style="fill:#2B8554;fill-opacity:1;fill-rule:nonzero;stroke:none"
       transform="matrix(1.3333333,0,0,-1.3333333,796.49253,408.5976)"
       clip-path="url(#clipPath2)" />
  </g>
</svg>
