<?xml version="1.0" encoding="UTF-8"?>
<svg id="Layer_1" data-name="Layer 1" xmlns="http://www.w3.org/2000/svg" viewBox="0 0 546.74 540.56">
  <defs>
    <style>
      .cls-1 {
        fill: #398756;
      }
    </style>
  </defs>
  <path class="cls-1" d="M546.55,61.2c-2.65-5.5-37.72,1.34-38.94-1.78C495.47,28.33,462.43,0,422.39,0c-50.13,0-90.78,40.64-90.78,90.78,0,24.72,9.89,47.14,25.92,63.51-60.33,24.25-138.3,86.03-220.13,183.62C122.98,355.11-5.9,411.08.21,425.92c6.11,14.84,158.63-30.05,170.17-16.72,47.09,54.38,149.22,43.09,228.1-25.22,74.31-64.35,101.48-156.33,65.02-212.25,29.47-15,49.66-45.62,49.66-80.95-.21-1.34,36.58-22.47,33.38-29.57ZM449.66,59.37c5.3,0,9.6,4.3,9.6,9.6s-4.3,9.6-9.6,9.6-9.6-4.3-9.6-9.6,4.3-9.6,9.6-9.6ZM189.25,367.23c-14.49,1.44-6.78-19.76,1.06-21.53,139.79-31.49,191.22-177.29,195.81-148.35,5.75,36.34-93.55,159.62-196.87,169.88Z"/>
  <path class="cls-1" d="M395.78,466.87c-24.54-9.47-24.35-49.22-38.4-44.51-26.62,8.92,22.13,43.74,20.07,53.24-1.54,7.11-34.03,14.08-21.57,20.12,5.39,2.61,9.15-.03,25.72-5.08,13.1-3.99,38.6,31.71,47.85,16.45,5.98-9.87-37.68-20.04-30.81-27.52,4.83-5.25,50.54,15.25,51.44,2.69.91-12.74-33.48-7.34-54.31-15.38Z"/>
  <path class="cls-1" d="M280.46,496.54c-24.54-9.47-24.35-49.22-38.4-44.51-26.62,8.92,22.13,43.74,20.07,53.24-1.54,7.11-34.03,14.08-21.57,20.12,5.39,2.61,9.15-.03,25.72-5.08,13.1-3.99,38.6,31.71,47.85,16.45,5.98-9.87-37.68-20.04-30.81-27.52,4.83-5.25,50.54,15.25,51.44,2.69.91-12.74-33.48-7.34-54.31-15.38Z"/>
</svg>