<?xml version="1.0" encoding="UTF-8"?>
<svg id="Layer_1" data-name="Layer 1" xmlns="http://www.w3.org/2000/svg" viewBox="0 0 1194.15 1194.16">
  <defs>
    <style>
      .cls-1 {
        fill: #398756;
      }
    </style>
  </defs>
  <path class="cls-1" d="M666.33,3.98c-22.84-2.64-46.14-3.98-69.26-3.98C267.85,0,0,267.85,0,597.08s267.85,597.08,597.08,597.08,597.08-267.85,597.08-597.08c0-303.35-226.91-558.33-527.82-593.1ZM50.04,597.08c0-46.71,5.9-92.06,16.96-135.37,14.81,6.37,34.39,15.93,49.41,27.31,17.07,12.94,34.19,74.72,42.87,126.65.8,4.78,3.02,9.11,6.42,12.54,43.97,44.3,86.03,39.55,107.19,32.77,3.66-1.17,7.62-.36,10.32,2.12,47.31,43.37,81.21,60.99,104.44,67.04-27.84,36.55-40.97,95.46-35.48,110.47,1.51,4.15,4.29,6.52,7.17,7.66,4.58,5.52,16.63,28.47,33.76,68.54.81,1.9,1.36,4.26,1.73,7.44,1.99,17.22,15.62,34.81,40.51,52.25,6.8,4.77,10.54,12.52,9.99,20.76-1.98,30.06,13.98,76.01,29.58,108.99,3.76,7.94,8.6,17.54,14.13,27.13-250.07-50.29-439.01-271.64-439.01-536.3ZM559.31,1142.79c10.33-51.75,46.12-87.33,61.72-100.71,7.59-6.51,12.72-15.25,14.83-25.26,6.32-30.07,41.41-54.93,56.2-64.21,7.31-4.59,13.16-11.22,16.91-19.18,16.83-35.69,40.54-61.31,47.39-68.3,2.44-2.49,4.53-5.15,6.22-7.92,18.81-30.86,23.26-55.71,13.22-73.85-9.93-17.95-33.42-27.68-67.93-28.14-9.72-.13-18.27-6.06-21.77-15.11-10.07-26.03-35.24-39.15-69.08-35.95-5.09.49-10.11-.66-14.51-3.29-64.71-38.63-115.6-51.76-151.26-39.03-26.13,9.34-37.02,30.1-41.19,41.65,0,.01-.01.03-.02.04-3.75-.73-12.09-4.11-21.04-12.98-7.67-7.61-20.23-23.9-18.08-47.52.76-8.33,2.77-30.46-13.22-37.06-13.88-5.73-27.51,6.19-37.37,17.41-5.79-4.06-9.21-8.52-10.2-13.29-1.97-9.54,5.1-20.99,9.49-26.96,4.83-6.57,4.44-15.43-.95-21.55-5.4-6.14-14.16-7.65-21.3-3.68-27.41,15.24-44.25,23.4-53.5,27.28-13.24-19.05-27.04-45.49-18.56-64.27,10.43-23.13,50.83-28.35,55.38-28.87,3.89-.44,7.68-1.91,10.92-4.24,11.33-8.13,21.52-11.27,30.29-9.33,13.21,2.91,23.68,17.12,30.14,28.54,5.13,9.07,15.39,13.59,25.52,11.26,10.18-2.35,17.46-10.95,18.11-21.4,1.06-17.02,5.84-45.87,25.97-47.92,6.67-.68,12.75-4.15,16.69-9.53,3.85-5.26,5.31-11.92,3.99-18.28-2.26-10.87.67-15.69,5.98-24.45,4.19-6.91,9.4-15.5,11.55-27.74,1.9-10.81,13.25-26.96,30.36-43.2,7.65-7.25,9.46-18.84,4.4-28.17-.04-.09-4.29-9.17,6.72-45.58,6.28-20.75-.43-31.97-7.16-37.72-21.54-18.42-72.71-.02-112.37,18.99-45.17-4.27-62.98-15.22-64.49-23.37-1.39-7.55,9.79-21.83,28.65-31.05,14.84-7.26,27.62-7.7,30.96-3.94,12.32,13.85,25.59,20.77,39.48,20.23,18.12-.55,30.24-13.56,34.6-19.12,2.19-2.78,3.73-6.11,4.46-9.63,13.88-67.27,27.88-71.56,27.96-71.58,1.18.09,4.95,2.77,8.81,8.56-.53,18.51,1.64,58.94,29.08,72.33,21.42,10.46,49.21.82,84.98-29.45,79.86-67.59,108.17-68.02,111.24-67.8.08.03.19.07.27.09l6-13.64c62.07,14.66,119.84,39.65,171.4,73.18-2.04,1.17-4.01,2.51-5.79,4.22-10.08,9.68-11.8,24.61-4.15,36.32l.66,1.01c4.1,6.24,2.43,14.77-3.7,19.01-2.29,1.58-4.39,2.86-6.18,3.94-5.38,3.27-12.07,7.34-11.65,15.53.48,9.56,6.81,12.58,37.23,27.12l5.48,2.62c3.59,1.72,7.32,4.48,7.02,7.07-.46,4.03-9.92,16.34-47.64,24.76-5.47,1.22-9.79,5.08-11.84,10.58-2.4,6.45-1.33,14.16,2.74,19.64.2.27,1.95,2.88,1.95,11.64,0,3.88-1.4,5.32-3.82,6.5-11.23,5.48-35.64-.8-42.42-6.09-5.04-3.93-11.42-4.26-16.64-.85-13.59,8.88-15.77,47.1-10.55,67.55,5.43,21.28,17.64,25.36,24.43,25.9,2.66.21,5.23.36,7.68.49-17.18,13.17-45.7,40.92-51.93,83.39-6.42,43.73,12.18,91.11,55.26,140.84,6.85,7.91,17.45,11.41,27.65,9.1,20.11-4.51,86.46-16.26,96.1,22.08,6.24,24.81,7.75,52.25,9.09,76.45,1.87,33.93,3.35,60.74,16.66,74.05,10.02,10.03,14.63,19.24,18.7,27.37,3.04,6.09,5.91,11.83,10.48,16.39,2.41,2.42,5.57,4.75,8.92,7.23,13.83,10.25,17.04,14.64,14.3,19.57-1.91,3.44-3.87,6.68-5.84,9.94-9.13,15.11-18.57,30.74-24.52,64.25-.7,3.95-1.55,7.67-2.51,11.16-99.54,103.05-239.06,167.25-393.31,167.25-12.7,0-25.28-.47-37.77-1.33Z"/>
</svg>