<?xml version="1.0" encoding="UTF-8"?>
<svg id="Layer_1" data-name="Layer 1" xmlns="http://www.w3.org/2000/svg" viewBox="0 0 1085.23 1826.67">
  <defs>
    <style>
      .cls-1 {
        fill: #398756;
      }
    </style>
  </defs>
  <path class="cls-1" d="M549.83,0c15.86,6.86,22.34,16.44,23.81,33.73l.23,517.64c19.89,7.45,37.17,27.02,43.01,47.4,1.42,4.95,4.03,28.91,5.24,29.81,1.76,1.31,6.15,1.7,8.51,1.31,27.93-4.6,59.64-39.91,90.77-18.74l354.31,283.2c24.92,26.55-3.4,65.21-35.75,50.36l-450.89-259.63c-21.16,13.01-44,18.62-68.51,11.83-11.39-3.16-23.68-17.44-29.06-1.73-8.56,25,1.82,62.62-22.01,82.11-141.23,60.44-286.44,112.69-429.2,169.95-21.37,4.35-32.64-3.58-40.3-22.95v-14.61c3.59-7.22,6.91-13.43,14.02-17.94l450.83-261.42c-3.25-26.65,8.11-51.51,28.32-68.64,8.73-7.4,20.28-6.74,12.26-20.46-22.99-20.98-65.79-35.2-61.52-72.65L511.96,23.33c3.54-13.13,10.57-16.93,21.43-23.33h16.44Z"/>
  <path class="cls-1" d="M436.57,1826.67c.89-25.22,1.96-50.6,3.67-75.79,23.04-338.37,48.18-676.86,69.58-1015.48l1.67-6.57c20.1,8.11,42.59,6.83,62.97-.02l64.87,1097.85h-202.76Z"/>
</svg>