<?xml version="1.0" encoding="UTF-8"?>
<svg id="Layer_1" data-name="Layer 1" xmlns="http://www.w3.org/2000/svg" viewBox="0 0 588.06 700">
  <defs>
    <style>
      .cls-1 {
        fill: #398756;
      }
    </style>
  </defs>
  <path class="cls-1" d="M208.56,151.82c0,28.2-22.94,51.13-51.13,51.13s-51.13-22.93-51.13-51.13,22.93-51.13,51.13-51.13,51.13,22.94,51.13,51.13Z"/>
  <path class="cls-1" d="M474.36,151.82c0,28.2-22.94,51.13-51.13,51.13s-51.13-22.93-51.13-51.13,22.93-51.13,51.13-51.13,51.13,22.94,51.13,51.13Z"/>
  <path class="cls-1" d="M383.32,263.32c.07,4.17.45,8.2.97,11.9l-59.23-35.43c-2.94-1.76-5.14-4.52-6.18-7.78l-16.44-51.19,7.11-22.13c3.06-9.55,1.68-19.4-3.04-27.35,8.91-2.43,18.29,2.05,21.82,10.65,7.28,17.79,14.85,42.27,17.77,51.98,1.64,5.41,5.15,10.07,9.87,13.12l31.36,20.26c1.52,1.13,3.11,2.09,4.76,2.9-6.01,8.38-9.01,19.51-8.77,33.07Z"/>
  <path class="cls-1" d="M569.18,698.34c-1.88.45-3.82.68-5.75.68-11.41,0-21.25-7.76-23.91-18.88l-46.32-193.2c-.86-3.6-4.08-6.14-7.78-6.14-4.43,0-8.82-.64-13.06-1.9-15.14-4.52-27.05-16.82-31.09-32.11l-37.17-156.77s-.02-.06-.02-.09c-.03-.12-.07-.24-.1-.35-.04-.15-.08-.3-.13-.45-.01-.02-.01-.04-.02-.05-.16-.47-15.81-46.44,12.1-57.8l16.5-6.23c16.58-6.27,35.51-1.23,46.29,12.24l7.58,14.53s0,.01.01.02l30.86,59.22c4.36,8.36,5.42,17.98,3,27.09l-6.28,23.65s-.01.02-.01.03l-12.62,47.49c-1.6,6.03-5.75,11.04-11.39,13.72-5.64,2.69-12.14,2.77-17.84.22-9.53-4.27-14.59-15.07-11.78-25.12l15.24-54.52c1.99-7.12,1.36-14.74-1.79-21.44l-20.7-44.14c-1.87-4.01-6.63-5.73-10.63-3.85-4,1.87-5.73,6.64-3.85,10.64l20.7,44.14c1.51,3.24,1.82,6.91.86,10.35l-15.24,54.51c-4.92,17.62,3.95,36.55,20.65,44.03,4.86,2.17,10.05,3.26,15.23,3.26,5.48,0,10.96-1.21,16.04-3.64,9.88-4.71,17.15-13.48,19.96-24.05l4.55-17.1,66.11,272.34c3.17,13.2-5,26.5-18.2,29.67Z"/>
  <path class="cls-1" d="M459.53,491.09l-33.26,80.12c-.89,2.15-1.49,4.41-1.78,6.72l-12.41,99.34c-.89,7.09-4.54,13.35-10.28,17.61-5.74,4.27-12.79,5.95-19.83,4.75-13.66-2.33-23.06-14.93-21.4-28.69l12.49-103.48c.42-3.43,1.31-6.79,2.66-9.97l48.33-114.01,1.68,7.1c.01.06.03.12.04.18,4.68,17.83,17.27,32.65,33.76,40.33Z"/>
  <path class="cls-1" d="M206.12,699.63c-7.05,1.2-14.1-.48-19.84-4.75-5.74-4.26-9.39-10.52-10.28-17.61l-12.41-99.34c-.29-2.31-.89-4.57-1.78-6.72l-33.26-80.12c16.31-7.56,28.98-22.09,33.76-40.33.02-.06.03-.12.04-.18l1.69-7.1,48.32,114.01c1.35,3.18,2.24,6.54,2.66,9.97l12.49,103.48c1.66,13.76-7.74,26.36-21.39,28.69Z"/>
  <path class="cls-1" d="M294.31,153.8l-25.11,78.21c-1.04,3.26-3.24,6.02-6.18,7.78l-75.33,45.07c-1.85,1.11-3.18,2.92-3.68,5.02l-37.2,156.91c-5.29,20.03-23.43,34.01-44.15,34.01-3.7,0-6.92,2.54-7.78,6.14l-46.32,193.21c-3.16,13.19-16.48,21.35-29.67,18.19-6.39-1.53-11.8-5.46-15.24-11.07-3.44-5.6-4.49-12.21-2.96-18.58L101.55,253.22c1.38-5.67,3.87-10.87,7.41-15.44,7.66-9.91,19.67-15.4,32.04-15.4,4.92,0,9.88.86,14.66,2.67l16.62,6.28c9.62,3.63,20.23,2.14,28.46-3.98l31.37-20.26c4.74-3.06,8.24-7.73,9.87-13.13,2.92-9.71,10.51-34.21,17.77-51.96,3.7-9.04,13.87-13.55,23.14-10.26l.6.21c8.98,3.18,13.73,12.78,10.82,21.85Z"/>
  <path class="cls-1" d="M293.99,39.16c4.42,0,8-3.58,8-8V8c0-4.42-3.58-8-8-8s-8,3.58-8,8v23.16c0,4.42,3.58,8,8,8Z"/>
  <path class="cls-1" d="M256.33,43.44c1.48,2.57,4.17,4,6.94,4,1.36,0,2.73-.35,3.99-1.07,3.83-2.21,5.14-7.1,2.93-10.93l-11.58-20.05c-2.21-3.83-7.1-5.14-10.93-2.93-3.83,2.21-5.14,7.1-2.93,10.93l11.58,20.05Z"/>
  <path class="cls-1" d="M216.73,57.32l20.05,11.58c1.26.73,2.63,1.07,3.99,1.07,2.76,0,5.45-1.44,6.94-4,2.21-3.83.9-8.72-2.93-10.93l-20.05-11.58c-3.83-2.21-8.72-.9-10.93,2.93-2.21,3.83-.9,8.72,2.93,10.93Z"/>
  <path class="cls-1" d="M340.35,65.83c1.48,2.57,4.17,4,6.94,4,1.36,0,2.73-.35,3.99-1.07l20.05-11.58c3.83-2.21,5.14-7.1,2.93-10.93-2.21-3.83-7.1-5.14-10.93-2.93l-20.05,11.58c-3.83,2.21-5.14,7.1-2.93,10.93Z"/>
  <path class="cls-1" d="M320.75,46.28c1.26.73,2.63,1.07,3.99,1.07,2.76,0,5.45-1.44,6.94-4l11.58-20.05c2.21-3.83.9-8.72-2.93-10.93-3.83-2.21-8.72-.9-10.93,2.93l-11.58,20.05c-2.21,3.83-.9,8.72,2.93,10.93Z"/>
</svg>