<?xml version="1.0" encoding="UTF-8"?>
<svg id="Layer_1" data-name="Layer 1" xmlns="http://www.w3.org/2000/svg" viewBox="0 0 331.03 522.41">
  <defs>
    <style>
      .cls-1 {
        fill: #398756;
      }
    </style>
  </defs>
  <path class="cls-1" d="M328.25,214.3c-2.25-33.59-11.07-113.98-19.9-144.3-5.54-19.02-22.33-36.33-42.29-39.81-8.25-1.44-18.27,1.12-25.31-2.06-7.57-3.42-21.46-25.78-29.34-28.13h-91.92c-10.29,5.46-20.06,23.25-30,27.47-9.19,3.91-18.19.83-27.42,2.68-16.53,3.3-33.81,22.03-38.9,37.73C14.27,95.38,4.72,182.63,2.65,214.29c-2.27,34.8-5.12,132.3,1.18,162.96,6.1,29.66,51.99,64.16,83.62,57.34-4.93,11.48-46.92,81.93-41.03,87.53.46.44,8.42.48,10.36-.59,5.56-3.06,9.18-29.09,20.94-26.92l178.05.15c8.97.45,13.55,24.14,18.35,26.78,1.95,1.07,9.91,1.02,10.36.59,6.11-5.82-36.55-75.72-41.03-87.53,32.43,6.92,79.06-28.9,84.18-59.51,5.67-33.87,3.08-123.88.62-160.77ZM121.67,45.96h87.57l4.24,14.57c-.59,1.76-6.25,4.58-6.97,4.58h-84.83c-5.6,0-5.6-19.16,0-19.16ZM55.06,382.47c-13.98,0-25.32-11.34-25.32-25.32s11.34-25.32,25.32-25.32,25.32,11.34,25.32,25.32-11.34,25.32-25.32,25.32ZM53.25,234.79c-2.64,0-12.45-12.93-9.85-17.74,8.29-35.54,7.23-76.46,14.67-111.53,2.05-9.67,7.84-23.98,19.8-23.98h80.73v153.25H53.25ZM229.34,435l8.62,18.7-145,2.75c-2.55-3.72,6.54-18.51,10.11-21.94l126.26.49ZM251.66,483.82H79.25c-.29-8.15,2.89-17.02,12.16-16.58l150.68.15c7.57,1.21,9.87,9.74,9.57,16.42ZM172.3,234.79V81.54h83.47c16.1,0,18.35,36.8,20.14,48.28,3.47,22.38,11.89,66.93,11.6,87.23-.08,5.43-5.15,17.74-9.85,17.74h-105.36ZM275.72,382.7c-14.04,0-25.43-11.38-25.43-25.43s11.38-25.43,25.43-25.43,25.43,11.38,25.43,25.43-11.38,25.43-25.43,25.43Z"/>
</svg>