<?xml version="1.0" encoding="UTF-8" standalone="no"?>
<svg
   version="1.1"
   viewBox="0 0 152 108"
   id="svg14"
   sodipodi:docname="gefoerdert.svg"
   width="152"
   height="108"
   inkscape:version="1.4.2 (1:1.4.2+202505120737+ebf0e940d0)"
   xmlns:inkscape="http://www.inkscape.org/namespaces/inkscape"
   xmlns:sodipodi="http://sodipodi.sourceforge.net/DTD/sodipodi-0.dtd"
   xmlns="http://www.w3.org/2000/svg"
   xmlns:svg="http://www.w3.org/2000/svg">
  <sodipodi:namedview
     id="namedview14"
     pagecolor="#ffffff"
     bordercolor="#666666"
     borderopacity="1.0"
     inkscape:showpageshadow="2"
     inkscape:pageopacity="0.0"
     inkscape:pagecheckerboard="0"
     inkscape:deskcolor="#d1d1d1"
     inkscape:zoom="3.9629302"
     inkscape:cx="113.17383"
     inkscape:cy="78.477285"
     inkscape:window-width="3370"
     inkscape:window-height="1371"
     inkscape:window-x="70"
     inkscape:window-y="32"
     inkscape:window-maximized="1"
     inkscape:current-layer="svg14" />
  <defs
     id="defs1">
    <style
       id="style1">
      .cls-1 {
        fill: #1d1d1b;
      }

      .cls-1, .cls-2, .cls-3, .cls-4 {
        stroke-width: 0px;
      }

      .cls-2 {
        fill: #f8d200;
      }

      .cls-3 {
        fill: #e30613;
      }

      .cls-4 {
        fill: #fff;
      }
    </style>
  </defs>
  <g
     id="g15"
     transform="translate(-22.4,-12.5)">
    <g
       id="Ebene_2"
       data-name="Ebene 2">
      <g
         id="g3">
        <path
           class="cls-1"
           d="m 78.1,47.9 c 0,0.4 0,0.7 -0.1,0.9 0,0.3 -0.2,0.5 -0.4,0.7 -0.2,0.2 -0.3,0.3 -0.5,0.5 -0.2,0.1 -0.4,0.2 -0.6,0.3 v 0 c 0.3,0 0.5,0.2 0.7,0.3 0.2,0.1 0.4,0.3 0.6,0.5 0.2,0.2 0.3,0.5 0.4,0.7 0.1,0.3 0.2,0.6 0.2,0.9 0,0.3 0,0.8 -0.2,1.1 -0.1,0.3 -0.4,0.6 -0.6,0.9 -0.3,0.2 -0.7,0.4 -1.1,0.6 -0.4,0.1 -1,0.2 -1.6,0.2 H 72.8 V 45.2 h 2 c 0.6,0 1.1,0 1.6,0.2 0.4,0.1 0.8,0.3 1.1,0.5 0.3,0.2 0.5,0.5 0.6,0.8 0.1,0.3 0.2,0.7 0.2,1.1 z m -1.3,0 C 76.8,47.4 76.6,47 76.3,46.7 76,46.4 75.4,46.2 74.7,46.2 H 74 v 3.5 h 0.7 c 0.7,0 1.2,-0.2 1.6,-0.5 0.4,-0.3 0.5,-0.8 0.5,-1.4 z m 0.2,4.8 c 0,-0.6 -0.2,-1 -0.5,-1.3 -0.4,-0.3 -0.9,-0.5 -1.6,-0.5 H 74 v 3.6 h 0.8 c 0.8,0 1.3,-0.2 1.7,-0.5 0.3,-0.3 0.5,-0.8 0.5,-1.3 z m 7.9,2.8 h -1.1 v -0.8 0 c 0,0 0,0.1 -0.2,0.3 0,0.1 -0.2,0.2 -0.4,0.3 -0.2,0.1 -0.3,0.2 -0.6,0.3 -0.2,0 -0.5,0.1 -0.7,0.1 -0.2,0 -0.6,0 -0.9,-0.1 -0.3,0 -0.5,-0.2 -0.6,-0.5 C 80.2,54.9 80.1,54.6 80,54.3 80,54 79.9,53.6 79.9,53.1 v -4.7 h 1.2 V 53 c 0,0.6 0,1 0.3,1.3 0.2,0.3 0.5,0.4 0.9,0.4 0.4,0 0.6,0 0.9,-0.3 0.2,-0.2 0.4,-0.3 0.6,-0.5 V 48.4 H 85 v 7.1 z m 5.8,0 v -4.6 c 0,-0.6 -0.1,-1 -0.3,-1.3 -0.2,-0.3 -0.5,-0.4 -0.9,-0.4 -0.4,0 -0.7,0 -0.9,0.3 -0.2,0.2 -0.4,0.4 -0.6,0.5 v 5.5 h -1.2 v -7.1 h 1.1 v 0.8 0 c 0,0 0,-0.1 0.2,-0.3 0,-0.1 0.2,-0.2 0.4,-0.3 0.2,-0.1 0.3,-0.2 0.6,-0.3 0.2,0 0.5,-0.1 0.7,-0.1 0.2,0 0.6,0 0.9,0.1 0.3,0 0.5,0.2 0.7,0.5 0.2,0.2 0.3,0.5 0.4,0.8 0.1,0.3 0.1,0.7 0.1,1.2 v 4.7 z m 2.6,-3.4 c 0,-0.7 0,-1.3 0.3,-1.8 0.2,-0.5 0.4,-0.9 0.7,-1.2 0.3,-0.3 0.6,-0.5 1,-0.6 0.4,-0.1 0.8,-0.2 1.1,-0.2 0.3,0 0.4,0 0.6,0 0.2,0 0.3,0 0.4,0.1 V 45 h 1.2 c 0,-0.1 0,10.5 0,10.5 h -1.1 v -0.8 0 c 0,0 0,0.1 -0.2,0.2 0,0.1 -0.2,0.2 -0.3,0.3 -0.1,0.1 -0.3,0.2 -0.5,0.3 -0.2,0 -0.5,0.1 -0.7,0.1 -0.2,0 -0.7,0 -1,-0.2 -0.3,-0.1 -0.6,-0.3 -0.8,-0.6 -0.2,-0.3 -0.4,-0.7 -0.5,-1.1 -0.1,-0.5 -0.2,-1 -0.2,-1.7 z m 2.9,2.5 c 0.2,0 0.4,0 0.5,0 0.1,0 0.3,-0.1 0.4,-0.2 0.1,0 0.2,-0.1 0.3,-0.2 0,0 0.1,-0.1 0.2,-0.2 v -4.4 c -0.1,0 -0.2,-0.1 -0.4,-0.2 -0.1,0 -0.3,0 -0.5,0 -0.2,0 -0.5,0 -0.8,0.1 -0.2,0 -0.5,0.2 -0.6,0.5 -0.2,0.2 -0.3,0.5 -0.4,0.8 -0.1,0.3 -0.2,0.8 -0.2,1.3 0,0.5 0,0.9 0.1,1.2 0,0.3 0.2,0.6 0.3,0.8 0.1,0.2 0.3,0.3 0.5,0.4 0.2,0 0.4,0.1 0.6,0.1 z m 8.9,-3.8 c 0,0.3 0,0.6 0,0.8 0,0.2 0,0.4 0,0.6 h -3.6 c 0,0.8 0.2,1.5 0.5,1.9 0.3,0.4 0.8,0.6 1.4,0.6 0.6,0 0.4,0 0.6,0 0.2,0 0.3,-0.1 0.4,-0.2 0.1,0 0.2,-0.1 0.3,-0.2 0,0 0.1,-0.1 0.2,-0.2 l 0.4,0.8 c 0,0 -0.1,0.1 -0.2,0.2 0,0 -0.2,0.2 -0.4,0.3 -0.2,0 -0.4,0.2 -0.6,0.2 -0.2,0 -0.5,0.1 -0.9,0.1 -0.4,0 -0.9,0 -1.2,-0.2 -0.4,-0.1 -0.7,-0.4 -0.9,-0.7 -0.3,-0.3 -0.4,-0.7 -0.6,-1.2 -0.1,-0.5 -0.2,-1.1 -0.2,-1.7 0,-0.6 0,-1.2 0.2,-1.6 0.1,-0.5 0.3,-0.8 0.6,-1.1 0.2,-0.3 0.5,-0.5 0.9,-0.7 0.3,-0.1 0.7,-0.2 1.1,-0.2 0.7,0 1.2,0.2 1.6,0.6 0.4,0.4 0.6,1.1 0.6,1.9 z m -2.2,-1.6 c -0.4,0 -0.8,0.2 -1,0.5 -0.3,0.4 -0.4,0.9 -0.4,1.5 h 2.6 c 0,0 0,-0.1 0,-0.2 0,0 0,-0.2 0,-0.3 0,-0.5 0,-0.9 -0.3,-1.2 -0.2,-0.3 -0.5,-0.4 -0.9,-0.4 z m 6.9,0.6 c 0,0 -0.2,-0.2 -0.4,-0.4 -0.2,-0.2 -0.5,-0.2 -0.8,-0.2 -0.3,0 -0.6,0 -0.7,0.2 -0.2,0.1 -0.3,0.3 -0.3,0.5 0,0.2 0,0.5 0.2,0.7 0.2,0.2 0.4,0.4 0.7,0.6 l 0.4,0.3 c 0.5,0.3 0.9,0.6 1.1,0.9 0.3,0.3 0.4,0.8 0.4,1.3 0,0.5 -0.2,1 -0.6,1.4 -0.4,0.4 -1,0.6 -1.7,0.6 -0.7,0 -0.5,0 -0.8,0 -0.2,0 -0.4,-0.1 -0.6,-0.2 -0.2,0 -0.3,-0.2 -0.4,-0.3 -0.1,0 -0.2,-0.2 -0.3,-0.3 l 0.6,-1 c 0,0 0.1,0.1 0.2,0.2 0,0 0.2,0.2 0.3,0.2 0.1,0 0.3,0.1 0.4,0.2 0.1,0 0.3,0 0.5,0 0.4,0 0.6,0 0.8,-0.2 0.2,-0.2 0.3,-0.4 0.3,-0.6 0,-0.2 0,-0.3 0,-0.4 0,-0.1 -0.1,-0.2 -0.2,-0.3 0,0 -0.2,-0.2 -0.3,-0.3 -0.1,0 -0.3,-0.2 -0.4,-0.3 l -0.4,-0.3 c -0.4,-0.3 -0.8,-0.6 -1,-0.9 -0.3,-0.3 -0.4,-0.7 -0.4,-1.2 0,-0.5 0,-0.5 0.2,-0.7 0.1,-0.2 0.2,-0.4 0.4,-0.6 0.2,-0.2 0.4,-0.3 0.7,-0.4 0.3,0 0.5,-0.1 0.8,-0.1 0.3,0 0.5,0 0.7,0 0.2,0 0.4,0.1 0.5,0.2 0.1,0 0.3,0.2 0.4,0.3 0,0 0.2,0.2 0.2,0.2 z m 5.9,5.7 v -4.6 c 0,-0.6 0,-1 -0.3,-1.3 -0.2,-0.3 -0.4,-0.4 -0.8,-0.4 -0.4,0 -0.4,0 -0.5,0 -0.2,0 -0.3,0.1 -0.4,0.2 -0.1,0 -0.2,0.2 -0.3,0.2 0,0 -0.2,0.2 -0.2,0.2 v 5.5 H 112 v -7.1 h 1.1 v 0.8 0 c 0,0 0.1,-0.2 0.2,-0.3 0,-0.1 0.2,-0.2 0.4,-0.3 0.1,-0.1 0.3,-0.2 0.5,-0.3 0.2,0 0.4,-0.1 0.7,-0.1 0.8,0 1.4,0.3 1.7,1 0,0 0.2,-0.2 0.3,-0.3 0.1,-0.1 0.3,-0.2 0.4,-0.3 0.2,0 0.3,-0.2 0.5,-0.2 0.2,0 0.4,0 0.7,0 1.4,0 2.2,0.8 2.2,2.5 v 4.8 h -1.2 v -4.6 c 0,-0.6 -0.1,-1 -0.3,-1.3 -0.2,-0.3 -0.5,-0.4 -0.9,-0.4 -0.4,0 -0.6,0 -0.8,0.2 -0.2,0.2 -0.4,0.3 -0.5,0.5 0,0.1 0,0.2 0,0.3 0,0.1 0,0.3 0,0.4 v 4.8 h -1.2 z m 7.9,0 h -1.2 v -7.1 h 1.2 z M 123,46.7 c -0.2,0 -0.4,0 -0.6,-0.2 -0.1,-0.2 -0.2,-0.4 -0.2,-0.6 0,-0.2 0,-0.5 0.2,-0.6 0.1,-0.2 0.3,-0.2 0.6,-0.2 0.3,0 0.4,0 0.6,0.2 0.1,0.2 0.2,0.4 0.2,0.6 0,0.2 0,0.5 -0.2,0.6 -0.1,0.2 -0.3,0.2 -0.6,0.2 z m 6.3,8.8 v -4.6 c 0,-0.6 0,-1 -0.3,-1.3 -0.2,-0.3 -0.5,-0.4 -0.9,-0.4 -0.4,0 -0.7,0 -0.9,0.3 -0.2,0.2 -0.4,0.4 -0.6,0.5 v 5.5 h -1.2 v -7.1 h 1.1 v 0.8 0 c 0,0 0,-0.1 0.2,-0.3 0,-0.1 0.2,-0.2 0.4,-0.3 0.2,-0.1 0.3,-0.2 0.6,-0.3 0.2,0 0.5,-0.1 0.7,-0.1 0.2,0 0.6,0 0.9,0.1 0.3,0 0.5,0.2 0.7,0.5 0.2,0.2 0.3,0.5 0.4,0.8 0,0.3 0.1,0.7 0.1,1.2 v 4.7 z m 4.3,0 h -1.2 v -7.1 h 1.2 z M 133,46.7 c -0.2,0 -0.4,0 -0.6,-0.2 -0.1,-0.2 -0.2,-0.4 -0.2,-0.6 0,-0.2 0,-0.5 0.2,-0.6 0.2,-0.2 0.3,-0.2 0.6,-0.2 0.3,0 0.4,0 0.6,0.2 0.1,0.2 0.2,0.4 0.2,0.6 0,0.2 0,0.5 -0.2,0.6 -0.2,0.2 -0.3,0.2 -0.6,0.2 z m 5.5,3.1 c 0,0 -0.2,-0.2 -0.4,-0.4 -0.2,-0.2 -0.5,-0.2 -0.8,-0.2 -0.3,0 -0.6,0 -0.7,0.2 -0.2,0.1 -0.3,0.3 -0.3,0.5 0,0.2 0,0.5 0.2,0.7 0.2,0.2 0.4,0.4 0.7,0.6 l 0.4,0.3 c 0.5,0.3 0.9,0.6 1.1,0.9 0.3,0.3 0.4,0.8 0.4,1.3 0,0.5 -0.2,1 -0.6,1.4 -0.4,0.4 -1,0.6 -1.7,0.6 -0.7,0 -0.5,0 -0.8,0 -0.2,0 -0.4,-0.1 -0.6,-0.2 -0.2,0 -0.3,-0.2 -0.4,-0.3 -0.1,0 -0.2,-0.2 -0.3,-0.3 l 0.6,-1 c 0,0 0.1,0.1 0.2,0.2 0,0 0.2,0.2 0.3,0.2 0.1,0 0.3,0.1 0.4,0.2 0.1,0 0.3,0 0.5,0 0.4,0 0.6,0 0.8,-0.2 0.2,-0.2 0.3,-0.4 0.3,-0.6 0,-0.2 0,-0.3 0,-0.4 0,-0.1 -0.1,-0.2 -0.2,-0.3 0,0 -0.2,-0.2 -0.3,-0.3 -0.1,0 -0.3,-0.2 -0.4,-0.3 l -0.4,-0.3 c -0.4,-0.3 -0.8,-0.6 -1,-0.9 -0.3,-0.3 -0.4,-0.7 -0.4,-1.2 0,-0.5 0,-0.5 0.2,-0.7 0.1,-0.2 0.2,-0.4 0.4,-0.6 0.2,-0.2 0.4,-0.3 0.7,-0.4 0.3,0 0.5,-0.1 0.8,-0.1 0.3,0 0.5,0 0.7,0 0.2,0 0.4,0.1 0.5,0.2 0.1,0 0.3,0.2 0.4,0.3 0,0 0.2,0.2 0.2,0.2 z m 5.1,-0.4 H 142 v 4 c 0,0.5 0,0.8 0.2,1 0.1,0.2 0.3,0.3 0.7,0.3 0.4,0 0.3,0 0.5,0 0.1,0 0.2,0 0.3,-0.1 l 0.2,1 c 0,0 -0.2,0.1 -0.4,0.2 -0.2,0 -0.4,0.1 -0.8,0.1 -0.6,0 -1.1,-0.2 -1.4,-0.5 -0.3,-0.3 -0.5,-0.9 -0.5,-1.7 v -4.1 h -0.9 v -0.8 l 0.9,-0.2 v -2 h 1.2 v 2 h 1.7 v 1 z m 5.9,1.4 c 0,0.3 0,0.6 0,0.8 0,0.2 0,0.4 0,0.6 h -3.6 c 0,0.8 0.2,1.5 0.5,1.9 0.3,0.4 0.8,0.6 1.4,0.6 0.6,0 0.4,0 0.6,0 0.2,0 0.3,-0.1 0.4,-0.2 0.1,0 0.2,-0.1 0.3,-0.2 0,0 0.1,-0.1 0.2,-0.2 l 0.4,0.8 c 0,0 -0.1,0.1 -0.2,0.2 0,0 -0.2,0.2 -0.4,0.3 -0.2,0 -0.4,0.2 -0.6,0.2 -0.2,0 -0.5,0.1 -0.9,0.1 -0.4,0 -0.8,0 -1.2,-0.2 -0.4,-0.1 -0.7,-0.4 -0.9,-0.7 -0.3,-0.3 -0.4,-0.7 -0.6,-1.2 -0.1,-0.5 -0.2,-1.1 -0.2,-1.7 0,-0.6 0,-1.2 0.2,-1.6 0.1,-0.5 0.3,-0.8 0.6,-1.1 0.2,-0.3 0.5,-0.5 0.9,-0.7 0.3,-0.1 0.7,-0.2 1.1,-0.2 0.7,0 1.2,0.2 1.6,0.6 0.4,0.4 0.6,1.1 0.6,1.9 z m -2.3,-1.6 c -0.4,0 -0.8,0.2 -1,0.5 -0.3,0.4 -0.4,0.9 -0.4,1.5 h 2.6 c 0,0 0,-0.1 0,-0.2 0,0 0,-0.2 0,-0.3 0,-0.5 -0.1,-0.9 -0.3,-1.2 -0.2,-0.3 -0.5,-0.4 -0.9,-0.4 z m 7,0.2 c 0,0 0,0 -0.2,0 -0.1,0 -0.2,0 -0.4,0 -0.4,0 -0.7,0.1 -0.9,0.3 -0.2,0.2 -0.4,0.4 -0.5,0.7 v 5.2 H 151 v -7.1 h 1.1 v 1 0 c 0,-0.1 0.1,-0.3 0.2,-0.4 0,-0.1 0.2,-0.3 0.3,-0.4 0.1,-0.1 0.3,-0.2 0.4,-0.2 0.2,0 0.4,0 0.6,0 0.2,0 0.3,0 0.4,0 0.1,0 0.2,0 0.2,0 v 1.1 z m 2.4,6.1 h -1.2 v -7.1 h 1.2 z M 156,46.7 c -0.2,0 -0.4,0 -0.6,-0.2 -0.1,-0.2 -0.2,-0.4 -0.2,-0.6 0,-0.2 0,-0.5 0.2,-0.6 0.2,-0.2 0.3,-0.2 0.6,-0.2 0.3,0 0.4,0 0.6,0.2 0.1,0.2 0.2,0.4 0.2,0.6 0,0.2 0,0.5 -0.2,0.6 -0.2,0.2 -0.3,0.2 -0.6,0.2 z m 7.5,8.8 h -1.1 v -0.8 0 c 0,0 0,0.1 -0.2,0.3 0,0.1 -0.2,0.2 -0.4,0.3 -0.2,0.1 -0.3,0.2 -0.6,0.3 -0.2,0 -0.5,0.1 -0.7,0.1 -0.2,0 -0.6,0 -0.9,-0.1 -0.3,0 -0.5,-0.2 -0.6,-0.5 -0.2,-0.2 -0.3,-0.5 -0.4,-0.8 0,-0.3 -0.1,-0.7 -0.1,-1.2 v -4.7 h 1.2 V 53 c 0,0.6 0,1 0.3,1.3 0.2,0.3 0.5,0.4 0.9,0.4 0.4,0 0.6,0 0.9,-0.3 0.2,-0.2 0.4,-0.3 0.6,-0.5 v -5.5 h 1.2 v 7.1 z m 5.5,0 v -4.6 c 0,-0.6 0,-1 -0.3,-1.3 -0.2,-0.3 -0.4,-0.4 -0.8,-0.4 -0.4,0 -0.4,0 -0.5,0 -0.2,0 -0.3,0.1 -0.4,0.2 -0.1,0 -0.2,0.2 -0.3,0.2 0,0 -0.2,0.2 -0.2,0.2 v 5.5 h -1.2 v -7.1 h 1.1 v 0.8 0 c 0,0 0.1,-0.2 0.2,-0.3 0,-0.1 0.2,-0.2 0.4,-0.3 0.1,-0.1 0.3,-0.2 0.5,-0.3 0.2,0 0.4,-0.1 0.7,-0.1 0.8,0 1.4,0.3 1.7,1 0,0 0.2,-0.2 0.3,-0.3 0.1,-0.1 0.3,-0.2 0.4,-0.3 0.2,0 0.3,-0.2 0.5,-0.2 0.2,0 0.4,0 0.7,0 1.4,0 2.2,0.8 2.2,2.5 v 4.8 h -1.2 v -4.6 c 0,-0.6 -0.1,-1 -0.3,-1.3 -0.2,-0.3 -0.5,-0.4 -0.9,-0.4 -0.4,0 -0.6,0 -0.8,0.2 -0.2,0.2 -0.4,0.3 -0.5,0.5 0,0.1 0,0.2 0,0.3 0,0.1 0,0.3 0,0.4 v 4.8 h -1.2 z m -93.6,8.9 h -1.5 v 6.2 h -1.2 v -6.2 h -0.9 v -0.8 l 0.9,-0.2 V 62 c 0,-0.4 0,-0.7 0.2,-1 0.1,-0.3 0.3,-0.5 0.4,-0.7 0.2,-0.2 0.4,-0.3 0.6,-0.4 0.2,0 0.5,-0.1 0.8,-0.1 0.3,0 0.5,0 0.7,0.1 0.2,0 0.3,0.1 0.4,0.2 l -0.3,1 c 0,0 -0.1,0 -0.3,-0.1 -0.1,0 -0.2,0 -0.4,0 -0.3,0 -0.5,0 -0.7,0.3 -0.1,0.2 -0.2,0.5 -0.2,1 v 1.3 h 1.6 v 1 z m 6.2,6.1 h -1.1 v -0.8 0 c 0,0 0,0.1 -0.2,0.3 0,0.1 -0.2,0.2 -0.4,0.3 -0.2,0.1 -0.3,0.2 -0.6,0.3 -0.2,0 -0.5,0.1 -0.7,0.1 -0.2,0 -0.6,0 -0.9,-0.1 -0.3,0 -0.5,-0.2 -0.6,-0.5 -0.2,-0.2 -0.3,-0.5 -0.4,-0.8 0,-0.3 -0.1,-0.7 -0.1,-1.2 v -4.7 h 1.2 V 68 c 0,0.6 0,1 0.3,1.3 0.2,0.3 0.5,0.4 0.9,0.4 0.4,0 0.6,0 0.9,-0.3 0.2,-0.2 0.4,-0.3 0.6,-0.5 v -5.5 h 1.2 v 7.1 z m -2.9,-9.2 c 0,0.2 0,0.4 -0.2,0.5 -0.1,0.1 -0.3,0.2 -0.5,0.2 -0.2,0 -0.4,0 -0.5,-0.2 -0.1,-0.1 -0.2,-0.3 -0.2,-0.5 0,-0.2 0,-0.4 0.2,-0.5 0.1,-0.1 0.3,-0.2 0.5,-0.2 0.2,0 0.4,0 0.5,0.2 0.1,0.1 0.2,0.3 0.2,0.5 z m 2.3,0 c 0,0.2 0,0.4 -0.2,0.5 -0.1,0.1 -0.3,0.2 -0.5,0.2 -0.2,0 -0.4,0 -0.5,-0.2 -0.1,-0.1 -0.2,-0.3 -0.2,-0.5 0,-0.2 0,-0.4 0.2,-0.5 0.1,-0.1 0.3,-0.2 0.5,-0.2 0.2,0 0.4,0 0.5,0.2 0.1,0.1 0.2,0.3 0.2,0.5 z m 5.6,3.1 c 0,0 0,0 -0.2,0 0,0 -0.2,0 -0.4,0 -0.4,0 -0.7,0.1 -0.9,0.3 -0.2,0.2 -0.4,0.4 -0.5,0.7 v 5.2 h -1.2 v -7.1 h 1.1 v 1 0 c 0,-0.1 0.1,-0.3 0.2,-0.4 0,-0.1 0.2,-0.3 0.3,-0.4 0.1,-0.1 0.3,-0.2 0.4,-0.2 0.2,0 0.4,0 0.6,0 0.2,0 0.3,0 0.4,0 0.1,0 0.2,0 0.2,0 v 1.1 z m 9.6,-1.5 c 0,0.4 0,0.7 -0.1,0.9 0,0.3 -0.2,0.5 -0.4,0.7 -0.2,0.2 -0.3,0.3 -0.5,0.5 -0.2,0.1 -0.4,0.2 -0.6,0.3 v 0 c 0.3,0 0.5,0.2 0.7,0.3 0.2,0.1 0.4,0.3 0.6,0.5 0.2,0.2 0.3,0.5 0.4,0.7 0.1,0.3 0.2,0.6 0.2,0.9 0,0.3 0,0.8 -0.2,1.1 -0.1,0.3 -0.4,0.6 -0.6,0.9 -0.3,0.2 -0.7,0.4 -1.1,0.6 -0.4,0.1 -1,0.2 -1.6,0.2 H 90.9 V 60.2 h 2 c 0.6,0 1.1,0 1.6,0.2 0.4,0.1 0.8,0.3 1.1,0.5 0.3,0.2 0.5,0.5 0.6,0.8 0.1,0.3 0.2,0.7 0.2,1.1 z m -1.3,0 c 0,-0.5 -0.2,-0.9 -0.5,-1.2 -0.3,-0.3 -0.9,-0.5 -1.6,-0.5 h -0.7 v 3.5 h 0.7 c 0.7,0 1.2,-0.2 1.6,-0.5 0.4,-0.3 0.5,-0.8 0.5,-1.4 z m 0.2,4.7 c 0,-0.6 -0.2,-1 -0.5,-1.3 C 94.2,66 93.7,65.8 93,65.8 h -0.9 v 3.6 h 0.8 c 0.8,0 1.3,-0.2 1.7,-0.5 0.3,-0.3 0.5,-0.8 0.5,-1.3 z m 4.2,2.9 h -1.2 v -7.1 h 1.2 z m -0.6,-8.9 c -0.2,0 -0.4,0 -0.6,-0.2 -0.1,-0.2 -0.2,-0.4 -0.2,-0.6 0,-0.2 0,-0.4 0.2,-0.6 0.1,-0.2 0.3,-0.2 0.6,-0.2 0.3,0 0.4,0 0.6,0.2 0.1,0.2 0.2,0.4 0.2,0.6 0,0.2 0,0.5 -0.2,0.6 -0.1,0.2 -0.3,0.2 -0.6,0.2 z m 3.6,7.2 c 0,0.3 0,0.5 0.1,0.6 0,0.1 0.2,0.2 0.4,0.2 0.2,0 0.2,0 0.3,0 0,0 0.1,0 0.2,0 v 0.9 c 0,0 0,0 -0.2,0.1 -0.2,0 -0.4,0 -0.6,0 -0.4,0 -0.7,-0.1 -1,-0.4 -0.2,-0.2 -0.4,-0.7 -0.4,-1.3 V 60 h 1.2 c 0,-0.1 0,8.8 0,8.8 z m 1.9,-1.8 c 0,-0.7 0,-1.3 0.3,-1.8 0.2,-0.5 0.4,-0.9 0.7,-1.2 0.3,-0.3 0.6,-0.5 1,-0.6 0.4,-0.1 0.8,-0.2 1.1,-0.2 0.3,0 0.4,0 0.6,0 0.2,0 0.3,0 0.4,0.1 v -3.4 h 1.2 c 0,-0.1 0,10.5 0,10.5 h -1.1 v -0.8 0 c 0,0 0,0.1 -0.2,0.2 0,0.1 -0.2,0.2 -0.3,0.3 -0.1,0.1 -0.3,0.2 -0.5,0.3 -0.2,0 -0.5,0.1 -0.7,0.1 -0.2,0 -0.7,0 -1,-0.2 -0.3,-0.1 -0.6,-0.3 -0.8,-0.6 -0.2,-0.3 -0.4,-0.7 -0.5,-1.1 -0.1,-0.5 -0.2,-1 -0.2,-1.7 z m 2.8,2.6 c 0.2,0 0.4,0 0.5,0 0.1,0 0.3,-0.1 0.4,-0.2 0.1,0 0.2,-0.2 0.3,-0.2 0,0 0.1,-0.1 0.2,-0.2 v -4.4 c -0.1,0 -0.2,-0.1 -0.4,-0.2 -0.1,0 -0.3,0 -0.5,0 -0.2,0 -0.5,0 -0.8,0.1 -0.2,0 -0.5,0.3 -0.6,0.5 -0.2,0.2 -0.3,0.5 -0.4,0.8 -0.1,0.3 -0.2,0.8 -0.2,1.3 0,0.5 0,0.9 0.1,1.2 0,0.3 0.2,0.6 0.4,0.8 0.1,0.2 0.3,0.3 0.5,0.4 0.2,0 0.4,0.1 0.6,0.1 z m 9.4,0.9 h -1.1 v -0.8 0 c 0,0 0,0.1 -0.2,0.3 0,0.1 -0.2,0.2 -0.4,0.3 -0.2,0.1 -0.3,0.2 -0.6,0.3 -0.2,0 -0.5,0.1 -0.7,0.1 -0.2,0 -0.6,0 -0.9,-0.1 -0.3,0 -0.5,-0.2 -0.6,-0.5 -0.2,-0.2 -0.3,-0.5 -0.4,-0.8 0,-0.3 -0.1,-0.7 -0.1,-1.2 v -4.7 h 1.2 V 68 c 0,0.6 0,1 0.3,1.3 0.2,0.3 0.5,0.4 0.9,0.4 0.4,0 0.6,0 0.9,-0.3 0.2,-0.2 0.4,-0.3 0.6,-0.5 v -5.5 h 1.2 v 7.1 z m 5.7,0 v -4.6 c 0,-0.6 -0.1,-1 -0.3,-1.3 -0.2,-0.3 -0.5,-0.4 -0.9,-0.4 -0.4,0 -0.7,0 -0.9,0.3 -0.2,0.2 -0.4,0.4 -0.6,0.5 v 5.5 h -1.2 v -7.1 h 1.1 v 0.8 0 c 0,0 0,-0.1 0.2,-0.3 0,-0.1 0.2,-0.2 0.4,-0.3 0.2,-0.1 0.3,-0.2 0.6,-0.3 0.2,0 0.5,-0.1 0.7,-0.1 0.2,0 0.6,0 0.9,0.1 0.3,0 0.5,0.2 0.7,0.5 0.2,0.2 0.3,0.5 0.4,0.8 0,0.3 0.1,0.7 0.1,1.2 v 4.7 z m 8.1,-6.2 h -0.9 c 0.2,0.4 0.3,0.8 0.3,1.3 0,0.5 0,0.7 -0.2,1 -0.1,0.3 -0.3,0.6 -0.5,0.8 -0.2,0.2 -0.5,0.4 -0.8,0.5 -0.3,0.1 -0.6,0.2 -1,0.2 h -0.2 c 0,0 -0.1,0 -0.2,0 -0.1,0 -0.2,0.1 -0.4,0.2 -0.1,0.1 -0.2,0.3 -0.2,0.4 0,0.1 0,0.3 0.2,0.4 0.1,0 0.3,0.1 0.6,0.1 h 0.9 c 0.3,0 0.6,0 0.9,0.1 0.3,0 0.5,0.2 0.7,0.3 0.2,0.2 0.4,0.3 0.5,0.6 0.1,0.2 0.2,0.5 0.2,0.9 0,0.4 0,0.7 -0.2,1.1 -0.2,0.3 -0.4,0.6 -0.7,0.8 -0.3,0.2 -0.7,0.4 -1.1,0.5 -0.4,0.1 -0.9,0.2 -1.4,0.2 -0.8,0 -1.3,-0.2 -1.7,-0.5 -0.4,-0.3 -0.6,-0.8 -0.6,-1.4 0,-0.6 0,-0.5 0.1,-0.7 0,-0.2 0.2,-0.4 0.3,-0.5 0.1,-0.1 0.3,-0.3 0.4,-0.3 0.1,0 0.2,-0.2 0.3,-0.2 v 0 c -0.3,-0.3 -0.5,-0.6 -0.5,-1 0,-0.4 0,-0.4 0.1,-0.5 0,-0.1 0.2,-0.3 0.3,-0.3 0,0 0.2,-0.2 0.3,-0.2 0,0 0.2,0 0.2,-0.1 v 0 c -0.4,-0.2 -0.7,-0.5 -0.9,-0.8 -0.2,-0.4 -0.3,-0.8 -0.3,-1.4 0,-0.6 0,-0.7 0.2,-1 0.1,-0.3 0.3,-0.6 0.5,-0.8 0.2,-0.2 0.5,-0.3 0.8,-0.4 0.3,0 0.6,-0.1 0.9,-0.1 0.3,0 0.7,0 0.9,0.2 h 2.2 l -0.2,0.9 z m -3.3,6 c -0.2,0 -0.4,0 -0.5,0 0,0 -0.2,0.1 -0.3,0.2 0,0 -0.2,0.2 -0.2,0.3 0,0 -0.1,0.2 -0.2,0.3 0,0.1 0,0.3 0,0.5 0,0.8 0.4,1.1 1.3,1.1 0.9,0 1.3,-0.1 1.6,-0.4 0.3,-0.3 0.5,-0.6 0.5,-1 0,-0.4 -0.1,-0.6 -0.3,-0.7 -0.2,-0.1 -0.5,-0.2 -0.9,-0.2 H 127 Z m 1.6,-4.7 c 0,-0.5 -0.1,-0.9 -0.4,-1.1 -0.2,-0.2 -0.5,-0.3 -0.9,-0.3 -0.4,0 -0.6,0.1 -0.9,0.3 -0.2,0.2 -0.4,0.6 -0.4,1.1 0,0.5 0.1,0.9 0.4,1.1 0.2,0.2 0.5,0.3 0.9,0.3 0.4,0 0.6,-0.1 0.9,-0.3 0.2,-0.2 0.4,-0.6 0.4,-1.1 z M 77.4,85.5 h -1.1 v -0.8 0 c 0,0 0,0.1 -0.2,0.3 -0.1,0.1 -0.2,0.2 -0.4,0.3 -0.2,0.1 -0.3,0.2 -0.6,0.3 -0.2,0 -0.5,0.1 -0.7,0.1 -0.2,0 -0.6,0 -0.9,-0.1 -0.3,0 -0.5,-0.2 -0.6,-0.5 -0.2,-0.2 -0.3,-0.5 -0.4,-0.8 0,-0.3 -0.1,-0.7 -0.1,-1.2 v -4.7 h 1.2 V 83 c 0,0.6 0,1 0.3,1.3 0.2,0.3 0.5,0.4 0.9,0.4 0.4,0 0.6,0 0.9,-0.3 0.2,-0.2 0.4,-0.3 0.6,-0.5 v -5.5 h 1.2 v 7.1 z m 5.8,0 v -4.6 c 0,-0.6 -0.1,-1 -0.3,-1.3 -0.2,-0.3 -0.5,-0.4 -0.9,-0.4 -0.4,0 -0.7,0 -0.9,0.3 -0.2,0.2 -0.4,0.4 -0.6,0.5 v 5.5 h -1.2 v -7.1 h 1.1 v 0.8 0 c 0,0 0,-0.1 0.2,-0.3 0,-0.1 0.2,-0.2 0.4,-0.3 0.2,-0.1 0.3,-0.2 0.6,-0.3 0.2,0 0.5,-0.1 0.7,-0.1 0.2,0 0.6,0 0.9,0.1 0.3,0 0.5,0.2 0.7,0.5 0.2,0.2 0.3,0.5 0.4,0.8 0,0.3 0.1,0.7 0.1,1.2 v 4.7 z M 85.8,82 c 0,-0.7 0,-1.3 0.3,-1.8 0.2,-0.5 0.4,-0.9 0.7,-1.2 0.3,-0.3 0.6,-0.5 1,-0.6 0.4,-0.1 0.8,-0.2 1.1,-0.2 0.3,0 0.4,0 0.6,0 0.2,0 0.3,0 0.4,0.1 v -3.4 h 1.2 c 0,-0.1 0,10.5 0,10.5 H 90 v -0.8 0 c 0,0 0,0.1 -0.2,0.2 0,0.1 -0.2,0.2 -0.3,0.3 -0.1,0.1 -0.3,0.2 -0.5,0.3 -0.2,0 -0.5,0.1 -0.7,0.1 -0.2,0 -0.7,0 -1,-0.2 C 87,85.2 86.7,85 86.5,84.7 86.3,84.4 86.1,84 86,83.6 c -0.1,-0.5 -0.2,-1 -0.2,-1.7 z m 2.9,2.6 c 0.2,0 0.4,0 0.5,0 0.1,0 0.3,-0.1 0.4,-0.2 0.1,0 0.2,-0.2 0.3,-0.2 0,0 0.1,-0.1 0.2,-0.2 v -4.4 c -0.1,0 -0.2,-0.1 -0.4,-0.2 -0.1,0 -0.3,0 -0.5,0 -0.2,0 -0.5,0 -0.8,0.1 -0.2,0 -0.5,0.3 -0.6,0.5 -0.2,0.2 -0.3,0.5 -0.4,0.8 -0.1,0.3 -0.2,0.8 -0.2,1.3 0,0.5 0,0.9 0.1,1.2 0,0.3 0.2,0.6 0.3,0.8 0.1,0.2 0.3,0.3 0.5,0.4 0.2,0 0.4,0.1 0.6,0.1 z m 7.8,0.9 V 75.2 h 5 v 1 H 97.8 V 80 h 3.4 v 1 h -3.4 v 4.4 h -1.3 z m 5.9,-3.6 c 0,-0.7 0,-1.2 0.2,-1.7 0.2,-0.5 0.4,-0.9 0.6,-1.2 0.3,-0.3 0.6,-0.5 0.9,-0.7 0.3,-0.1 0.7,-0.2 1.1,-0.2 0.4,0 0.8,0 1.1,0.2 0.3,0.1 0.6,0.4 0.9,0.7 0.2,0.3 0.4,0.7 0.6,1.2 0.1,0.5 0.2,1 0.2,1.7 0,0.7 0,1.2 -0.2,1.7 -0.1,0.5 -0.4,0.9 -0.6,1.2 -0.3,0.3 -0.6,0.5 -0.9,0.7 -0.3,0.1 -0.7,0.2 -1.1,0.2 -0.4,0 -0.8,0 -1.1,-0.2 -0.3,-0.1 -0.6,-0.4 -0.9,-0.7 -0.2,-0.3 -0.4,-0.7 -0.6,-1.2 -0.1,-0.5 -0.2,-1 -0.2,-1.7 z m 4.4,0 c 0,-1 -0.1,-1.6 -0.4,-2.1 -0.3,-0.4 -0.7,-0.6 -1.2,-0.6 -0.5,0 -0.9,0.2 -1.2,0.6 -0.3,0.4 -0.4,1.1 -0.4,2.1 0,1 0.1,1.6 0.4,2 0.3,0.4 0.7,0.6 1.2,0.6 0.5,0 0.9,-0.2 1.2,-0.6 0.3,-0.4 0.4,-1.1 0.4,-2 z m 5.9,-2.5 c 0,0 0,0 -0.2,0 -0.1,0 -0.2,0 -0.4,0 -0.4,0 -0.7,0.1 -0.9,0.3 -0.2,0.2 -0.4,0.4 -0.5,0.7 v 5.2 h -1.2 v -7.1 h 1.1 v 1 0 c 0,-0.1 0.1,-0.3 0.2,-0.4 0,-0.1 0.2,-0.3 0.3,-0.4 0.1,-0.1 0.3,-0.2 0.4,-0.2 0.2,0 0.4,0 0.6,0 0.2,0 0.3,0 0.4,0 0.1,0 0.2,0 0.2,0 v 1.1 z m 4.2,0.4 c 0,0 -0.2,-0.2 -0.4,-0.4 -0.2,-0.2 -0.5,-0.2 -0.8,-0.2 -0.3,0 -0.6,0 -0.7,0.2 -0.2,0.1 -0.3,0.3 -0.3,0.5 0,0.2 0,0.5 0.2,0.7 0.2,0.2 0.4,0.4 0.7,0.6 l 0.4,0.3 c 0.5,0.3 0.9,0.6 1.1,0.9 0.3,0.3 0.4,0.8 0.4,1.3 0,0.5 -0.2,1 -0.6,1.4 -0.4,0.4 -1,0.6 -1.7,0.6 -0.7,0 -0.5,0 -0.8,0 -0.2,0 -0.4,-0.1 -0.6,-0.2 -0.2,0 -0.3,-0.2 -0.4,-0.3 -0.1,0 -0.2,-0.2 -0.3,-0.3 l 0.6,-1 c 0,0 0.1,0.1 0.2,0.2 0,0 0.2,0.2 0.3,0.2 0.1,0 0.3,0.1 0.4,0.2 0.1,0 0.3,0 0.5,0 0.4,0 0.6,0 0.8,-0.2 0.2,-0.2 0.3,-0.3 0.3,-0.6 0,-0.3 0,-0.3 0,-0.4 0,-0.1 -0.1,-0.2 -0.2,-0.3 0,0 -0.2,-0.2 -0.3,-0.3 -0.1,0 -0.3,-0.2 -0.4,-0.3 l -0.4,-0.3 c -0.4,-0.3 -0.8,-0.6 -1,-0.9 -0.3,-0.3 -0.4,-0.7 -0.4,-1.2 0,-0.5 0,-0.5 0.2,-0.7 0.1,-0.2 0.2,-0.4 0.4,-0.6 0.2,-0.2 0.4,-0.3 0.7,-0.4 0.3,0 0.5,-0.1 0.8,-0.1 0.3,0 0.5,0 0.7,0 0.2,0 0.4,0.1 0.5,0.2 0.1,0 0.3,0.2 0.4,0.3 0,0 0.2,0.2 0.2,0.2 z m 6.1,-0.1 c 0,0 0,0 -0.1,-0.1 0,0 -0.1,-0.1 -0.2,-0.2 0,0 -0.2,-0.1 -0.4,-0.2 -0.1,0 -0.3,0 -0.5,0 -0.3,0 -0.5,0 -0.7,0.1 -0.2,0 -0.4,0.2 -0.6,0.5 -0.2,0.2 -0.3,0.5 -0.4,0.8 0,0.3 -0.1,0.7 -0.1,1.2 0,0.5 0,1 0.1,1.3 0,0.4 0.2,0.6 0.3,0.9 0.1,0.2 0.3,0.4 0.5,0.5 0.2,0 0.4,0.1 0.7,0.1 0.4,0 0.6,0 0.8,-0.2 0.2,-0.2 0.3,-0.2 0.4,-0.3 l 0.5,0.8 c 0,0 -0.1,0.1 -0.2,0.2 0,0 -0.2,0.2 -0.4,0.2 -0.1,0 -0.3,0.1 -0.5,0.2 -0.2,0 -0.5,0 -0.7,0 -0.4,0 -0.8,0 -1.1,-0.2 -0.3,-0.1 -0.6,-0.3 -0.9,-0.6 -0.3,-0.3 -0.5,-0.7 -0.6,-1.2 -0.1,-0.5 -0.2,-1.1 -0.2,-1.8 0,-0.7 0,-1.3 0.3,-1.7 0.2,-0.5 0.4,-0.9 0.7,-1.2 0.3,-0.3 0.6,-0.5 1,-0.6 0.4,-0.1 0.7,-0.2 1.1,-0.2 0.4,0 0.5,0 0.7,0 0.2,0 0.4,0.1 0.5,0.2 0.1,0 0.3,0.2 0.4,0.2 0,0 0.2,0.2 0.2,0.2 l -0.5,0.8 z m 5.6,5.8 v -4.6 c 0,-0.6 -0.1,-1 -0.3,-1.3 -0.2,-0.3 -0.5,-0.4 -0.9,-0.4 -0.4,0 -0.7,0 -0.9,0.3 -0.2,0.2 -0.4,0.4 -0.6,0.5 v 5.5 h -1.2 V 75 h 1.2 c 0,-0.1 0,4.1 0,4.1 v 0 c 0,0 0.1,-0.1 0.2,-0.2 0,0 0.2,-0.2 0.3,-0.3 0.1,0 0.3,-0.2 0.5,-0.3 0.2,0 0.5,-0.1 0.8,-0.1 0.6,0 1.1,0.2 1.5,0.6 0.4,0.4 0.6,1.1 0.6,2 v 4.7 z m 8,0 h -1.1 v -0.8 0 c 0,0 0,0.1 -0.2,0.3 0,0.1 -0.2,0.2 -0.4,0.3 -0.2,0.1 -0.3,0.2 -0.6,0.3 -0.2,0 -0.5,0.1 -0.7,0.1 -0.2,0 -0.6,0 -0.9,-0.1 -0.3,0 -0.5,-0.2 -0.6,-0.5 -0.2,-0.2 -0.3,-0.5 -0.4,-0.8 0,-0.3 -0.1,-0.7 -0.1,-1.2 v -4.7 h 1.2 V 83 c 0,0.6 0,1 0.3,1.3 0.2,0.3 0.5,0.4 0.9,0.4 0.4,0 0.6,0 0.9,-0.3 0.2,-0.2 0.4,-0.3 0.6,-0.5 v -5.5 h 1.2 v 7.1 z m 5.8,0 v -4.6 c 0,-0.6 -0.1,-1 -0.3,-1.3 -0.2,-0.3 -0.5,-0.4 -0.9,-0.4 -0.4,0 -0.7,0 -0.9,0.3 -0.2,0.2 -0.4,0.4 -0.6,0.5 v 5.5 h -1.2 v -7.1 h 1.1 v 0.8 0 c 0,0 0,-0.1 0.2,-0.3 0,-0.1 0.2,-0.2 0.4,-0.3 0.2,-0.1 0.3,-0.2 0.6,-0.3 0.2,0 0.5,-0.1 0.7,-0.1 0.2,0 0.6,0 0.9,0.1 0.3,0 0.5,0.2 0.7,0.5 0.2,0.2 0.3,0.5 0.4,0.8 0,0.3 0.1,0.7 0.1,1.2 v 4.7 z m 8.1,-6.2 h -0.9 c 0.2,0.4 0.3,0.8 0.3,1.3 0,0.5 0,0.7 -0.2,1 -0.1,0.3 -0.3,0.6 -0.5,0.8 -0.2,0.2 -0.5,0.4 -0.8,0.5 -0.3,0.1 -0.6,0.2 -1,0.2 h -0.2 c 0,0 -0.1,0 -0.2,0 -0.1,0 -0.2,0.1 -0.4,0.2 -0.1,0.1 -0.2,0.3 -0.2,0.4 0,0.1 0,0.3 0.2,0.4 0.1,0 0.3,0.1 0.6,0.1 h 0.9 c 0.3,0 0.7,0 0.9,0.1 0.3,0 0.5,0.2 0.8,0.3 0.2,0.2 0.4,0.3 0.5,0.6 0.1,0.2 0.2,0.5 0.2,0.9 0,0.4 0,0.7 -0.2,1.1 -0.2,0.3 -0.4,0.6 -0.7,0.8 -0.3,0.2 -0.7,0.4 -1.1,0.5 -0.4,0.1 -0.9,0.2 -1.4,0.2 -0.8,0 -1.3,-0.2 -1.7,-0.5 -0.4,-0.3 -0.6,-0.8 -0.6,-1.4 0,-0.6 0,-0.5 0.1,-0.7 0,-0.2 0.2,-0.4 0.3,-0.5 0.1,-0.1 0.3,-0.3 0.4,-0.3 0.1,0 0.2,-0.2 0.3,-0.2 v 0 c -0.3,-0.3 -0.5,-0.6 -0.5,-1 0,-0.4 0,-0.4 0.1,-0.5 0,-0.1 0.2,-0.2 0.3,-0.3 0,0 0.2,-0.2 0.3,-0.2 0,0 0.2,0 0.2,-0.1 v 0 c -0.4,-0.2 -0.7,-0.5 -0.9,-0.8 -0.2,-0.4 -0.3,-0.8 -0.3,-1.4 0,-0.6 0,-0.7 0.2,-1 0.1,-0.3 0.3,-0.6 0.5,-0.8 0.2,-0.2 0.5,-0.3 0.8,-0.4 0.3,0 0.6,-0.1 0.9,-0.1 0.3,0 0.7,0 1,0.2 h 2.2 l -0.2,0.9 z m -3.3,6 c -0.2,0 -0.4,0 -0.5,0 0,0 -0.2,0.1 -0.3,0.2 0,0 -0.2,0.2 -0.2,0.3 0,0 -0.1,0.2 -0.2,0.3 0,0.1 0,0.3 0,0.5 0,0.8 0.4,1.1 1.3,1.1 0.9,0 1.3,-0.1 1.6,-0.4 0.3,-0.3 0.5,-0.6 0.5,-1 0,-0.4 -0.1,-0.6 -0.3,-0.7 -0.2,-0.1 -0.5,-0.2 -0.9,-0.2 h -0.9 z m 1.6,-4.7 c 0,-0.5 -0.1,-0.9 -0.4,-1.1 -0.2,-0.2 -0.5,-0.3 -0.9,-0.3 -0.4,0 -0.6,0.1 -0.9,0.3 -0.2,0.2 -0.4,0.6 -0.4,1.1 0,0.5 0.1,0.9 0.4,1.1 0.2,0.2 0.5,0.3 0.9,0.3 0.4,0 0.6,-0.1 0.9,-0.3 0.2,-0.2 0.4,-0.6 0.4,-1.1 z"
           id="path1" />
        <polygon
           class="cls-2"
           points="59,120.4 59,95.5 61.5,95.5 63.4,95.5 63.4,120.4 "
           id="polygon1" />
        <polygon
           class="cls-3"
           points="59,95.5 59,70.4 61.5,70.4 63.4,70.4 63.4,95.5 "
           id="polygon2" />
        <path
           class="cls-1"
           d="m 47.7,54.3 c 1.3,2 2.3,2 3.8,2 -1.3,-1 -2.1,-2.2 -2.5,-2.8 l -2.3,-3.7 c -0.2,-1.2 -0.8,-2.2 -1.7,-3 0.3,-0.1 0.5,-0.2 0.7,-0.3 -1.5,0 -3,-0.8 -3.9,-0.8 -0.9,0 -0.9,0.3 -0.9,0.7 0,0.5 0.5,0.9 1.4,0.9 0.9,0 0.5,0 0.7,0 0.5,0.7 0.9,1.3 0.9,2.2 0,1.6 -2,2.9 -3.9,2.9 -1.9,0 -0.2,0 -0.3,0 -0.2,-0.4 -0.8,-1.1 -0.8,-1.9 0,-1.3 0.8,-2.4 0.8,-3.6 0,-1.2 -0.4,-1.3 -0.5,-1.5 0.2,-0.2 0.5,-0.5 0.6,-0.7 -0.1,0 -0.3,0 -0.6,0 -0.9,0 -1.7,-0.2 -2.5,-0.2 -0.8,0 -0.5,0.1 -0.5,0.3 0,0.2 0,0 0,0.1 -0.2,0 -0.3,-0.1 -0.5,-0.1 -0.2,0 -0.5,0 -0.7,0 -0.9,0 -1.2,0.4 -1.2,0.7 0,0.3 0.2,0.8 0.5,1.2 0.4,-0.2 0.8,-0.3 1,-0.3 0.5,0 0.9,0.5 1.1,1 -0.3,0 -0.4,0 -0.7,0 -0.9,0 -1.5,-0.3 -1.6,-0.3 -0.1,0 0,0 0,0 0,0.1 0.3,0.5 0.7,0.6 0.7,0.2 1.6,0.3 1.8,0.4 0,0 -0.2,0.3 -0.4,0.4 0,0 0,0 -0.1,0 -0.7,-0.1 -0.9,-0.2 -1.7,-0.5 0,0 0,0 0,0 0,0.3 0.9,1.1 1.7,1.4 -0.7,0.9 -1.5,1.7 -1.9,3 -0.1,0 -0.2,0 -0.3,0 -2,0 -3.9,-1.3 -3.9,-2.9 0,-1.6 0.4,-1.5 0.9,-2.2 0.3,0 0.5,0 0.7,0 0.9,0 1.4,-0.5 1.4,-0.9 0,-0.4 -0.3,-0.7 -0.9,-0.7 -0.8,0 -2.3,0.8 -3.9,0.8 0.2,0.1 0.4,0.2 0.7,0.3 -0.9,0.8 -1.5,1.9 -1.7,3 l -2.3,3.7 c -0.4,0.6 -1.2,1.9 -2.5,2.8 1.5,0 2.5,0 3.8,-2 l 1.2,-1.9 c 0,0.2 0.2,0.5 0.3,0.7 l -2.4,3.8 c -0.4,0.6 -1.2,1.8 -2.5,2.8 1.5,0 2.5,0 3.8,-2 l 2,-3.3 c 0.2,0.2 0.3,0.3 0.5,0.5 l -2.9,4.6 c -0.4,0.6 -1.2,1.8 -2.5,2.8 1.5,0 2.5,0 3.8,-2 l 2.8,-4.5 c 0.2,0.1 0.4,0.2 0.6,0.3 l -3.4,5.5 c -0.4,0.6 -1.2,1.8 -2.5,2.8 1.5,0 2.5,0 3.8,-2 l 3.5,-5.7 c 0.2,0 0.4,0.2 0.6,0.2 l -4,6.4 c -0.4,0.6 -1.2,1.9 -2.5,2.8 1.5,0 2.5,0 3.8,-2 l 4.3,-6.8 c 0,0 0,0 0.1,0 0.1,0.4 0.2,0.7 0.2,1.1 0,2.1 -1.4,4 -3.1,5.5 0.1,0 0.3,0 0.5,0 0.3,0 0.6,0 0.7,0 -0.4,0.9 -1.2,2 -1.7,2.6 -0.6,0 -1.4,-0.2 -1.9,-0.2 -0.5,0 -0.6,0.3 -0.6,0.6 0,0.5 0.2,0.9 0.5,1.1 0.1,-0.3 0.3,-0.6 1.3,-0.6 1,0 0,0 0.1,0 -0.3,0.3 -1.2,1.1 -1.2,1.7 0,0.6 0.4,1 1,1 0,-0.1 0,-0.2 0,-0.3 0,-0.5 0.4,-1.1 0.8,-1.5 0,0.1 0,0.1 0,0.2 0,1.2 0.1,1.7 0.8,1.7 0.7,0 0.6,-0.2 0.7,-0.3 -0.5,-0.4 -0.5,-0.8 -0.5,-1.4 0,-0.2 0,-0.3 0,-0.6 0,-0.1 0,-0.3 0,-0.5 0.3,0 0.4,0 0.6,0 0,0 1,0 1.3,0.5 0.3,-0.3 0.7,-0.6 0.7,-1 0,-0.4 -0.1,-0.6 -0.7,-0.6 -0.6,0 -0.8,0.1 -1.4,0.1 0.1,-0.3 0.8,-1.3 1.3,-1.9 0,0.3 0.2,0.6 0.5,0.8 0,-0.4 0.3,-1.8 1,-2.6 0,0.5 0.2,1.1 0.2,2.3 0,2.9 -0.7,5 -2.2,5.4 0.2,0.3 0.6,0.6 1,0.6 0.4,0 0.8,-0.6 1.1,-1.2 0.2,0.4 0.6,1.5 1,1.5 0.4,0 0.9,-1 1,-1.5 0.3,0.6 0.6,1.2 1.1,1.2 0.5,0 0.8,-0.3 1,-0.6 -1.5,-0.4 -2.2,-2.5 -2.2,-5.4 0,-2.9 0.1,-1.8 0.2,-2.3 0.7,0.8 0.9,2.2 1,2.6 0.3,-0.2 0.4,-0.5 0.5,-0.8 0.6,0.7 1.2,1.6 1.3,1.9 -0.5,0 -1.2,-0.1 -1.4,-0.1 -0.5,0 -0.7,0.3 -0.7,0.6 0,0.4 0.4,0.8 0.7,1 0.3,-0.5 1.3,-0.5 1.3,-0.5 0.2,0 0.3,0 0.6,0 0,0.1 0,0.3 0,0.5 0,0.2 0,0.4 0,0.6 0,0.7 0,1 -0.5,1.4 0,0 0.3,0.3 0.7,0.3 0.7,0 0.8,-0.5 0.8,-1.7 0,-1.2 0,-0.1 0,-0.2 0.4,0.4 0.8,1 0.8,1.5 0,0.5 0,0.2 0,0.3 0.6,0 1,-0.6 1,-1 0,-0.6 -0.9,-1.4 -1.2,-1.7 0,0 0,0 0.1,0 1,0 1.2,0.3 1.3,0.6 0.3,-0.2 0.5,-0.6 0.5,-1.1 0,-0.5 0,-0.6 -0.6,-0.6 -0.6,0 -1.3,0 -1.9,0.2 -0.4,-0.6 -1.3,-1.7 -1.7,-2.6 0.2,0 0.4,0 0.7,0 0.3,0 0.4,0 0.5,0 -1.7,-1.5 -3.1,-3.4 -3.1,-5.5 0,-2.1 0,-0.7 0.2,-1.1 0,0 0,0 0.1,0 l 4.3,6.8 c 1.3,2 2.3,2 3.8,2 -1.2,-1 -2.1,-2.2 -2.5,-2.8 l -4,-6.4 c 0.2,0 0.4,-0.1 0.6,-0.2 l 3.5,5.7 c 1.3,2 2.3,2 3.8,2 -1.3,-1 -2.1,-2.2 -2.5,-2.8 l -3.4,-5.5 c 0.2,-0.1 0.4,-0.2 0.6,-0.3 l 2.8,4.5 c 1.3,2 2.3,2 3.8,2 -1.3,-1 -2.1,-2.2 -2.5,-2.8 l -2.9,-4.6 c 0.2,-0.2 0.3,-0.3 0.5,-0.5 l 2,3.3 c 1.3,2 2.3,2 3.8,2 -1.3,-1 -2.1,-2.2 -2.5,-2.8 l -2.4,-3.8 c 0.1,-0.2 0.2,-0.5 0.3,-0.7 L 47,54.3 Z M 28.6,49.9 c 0,-1.4 1,-2.6 1.4,-2.9 0,0 0.2,0 0.3,0 -0.4,0.5 -1.1,1.3 -1.1,2.3 0,2.1 2.2,3.9 4.7,3.9 0,0.2 0,0.4 0,0.6 0,0.3 0,0.6 0,0.9 -2.8,0 -5.4,-2.3 -5.4,-4.8 z m 3.8,17 v 0 c 0,0 0,0 0,0 0.8,0 1.2,0 1.4,0 0.1,0 0.2,0 0.3,0 0.2,0 0.4,0 0.4,0.3 0,0.3 -0.2,0.4 -0.4,0.6 -0.3,-0.3 -0.7,-0.3 -1.3,-0.3 -0.6,0 -0.6,0 -0.8,0 v 0 c 0,0 0,0 0,0 v 0 c 0,0.3 0,0.5 0,0.7 v 0.3 c 0,0 0,0.3 0,0.3 0,0.7 0,1.1 0.3,1.4 0,0 -0.2,0 -0.2,0 -0.4,0 -0.5,-0.2 -0.5,-1.4 0,-1.2 0,-0.5 0,-0.6 V 68 c 0,0 0,0 0,0 -0.6,0.5 -1.3,1.3 -1.3,2 -0.2,-0.1 -0.4,-0.4 -0.4,-0.6 0,-0.3 0.5,-0.9 1.1,-1.5 l 0.3,-0.3 v 0 c 0,0 -0.1,0 -0.1,0 -0.1,0 -0.4,0 -0.6,0 -0.7,0 -1.1,0.1 -1.4,0.4 0,-0.1 -0.2,-0.5 -0.2,-0.6 0,-0.1 0,-0.2 0,-0.3 0,0 0.2,0 0.2,0 v 0 c 0.8,0 1.6,0.1 2,0.2 v 0 c 0,0 0,0 0,0 0,0 1.5,-2 1.9,-3 0,0 0.2,0 0.3,0 0.3,0 0.4,0.2 0.4,0.5 -0.9,1.1 -1.5,1.9 -1.7,2.5 z M 40.1,64 c 0.1,0 0.2,0 0.3,0 0.4,1 1.8,2.9 1.9,3 v 0 c 0,0 0,0 0,0 0.3,0 1.2,-0.2 2,-0.2 v 0 c 0,0 0.2,0 0.2,0 0,0 0,0.1 0,0.3 0,0.2 0,0.5 -0.2,0.6 -0.3,-0.3 -0.7,-0.4 -1.4,-0.4 -0.7,0 -0.4,0 -0.6,0 v 0 c 0,0 0,0 0,0 l 0.4,0.4 c 0.6,0.6 1.1,1.1 1.1,1.5 0,0.4 -0.2,0.5 -0.4,0.6 0,-0.6 -0.7,-1.5 -1.3,-2 v 0 c 0,0 0,0.2 0,0.2 0,0.2 0,0.4 0,0.6 0,1.2 -0.1,1.4 -0.5,1.4 -0.4,0 -0.2,0 -0.2,0 0.2,-0.3 0.3,-0.7 0.3,-1.4 v -0.3 c 0,0 0,-0.3 0,-0.3 0,-0.3 0,-0.5 0,-0.7 v 0 c 0,0 0,-0.1 0,-0.1 -0.2,0 -0.6,0 -0.8,0 -0.6,0 -1,0 -1.3,0.3 -0.2,-0.2 -0.4,-0.4 -0.4,-0.6 0,-0.3 0.2,-0.3 0.4,-0.3 0.2,0 0.2,0 0.3,0 0.3,0 0.6,0 1.4,0 v 0 0 C 41.1,66 40.5,65.1 39.6,64 c 0,-0.3 0.2,-0.5 0.4,-0.5 z M 36.8,47.4 c 0,-0.4 -0.3,-0.7 -0.5,-1 -0.2,-0.3 -0.6,-0.6 -1.1,-0.6 -0.5,0 -0.6,0.1 -0.8,0.2 0,-0.2 -0.3,-0.6 -0.3,-0.7 0,-0.1 0.3,-0.4 0.9,-0.4 1.3,0 2.1,0.6 2.1,1.6 0,1 -0.1,0.7 -0.3,0.9 z m 0.6,-1.3 c 0,-0.3 -0.2,-0.5 -0.3,-0.7 0,-0.3 0.1,-0.5 0.5,-0.3 -0.2,0.2 0,0.6 0,0.6 0,0 0.4,-0.2 0.4,-0.5 0.7,0.2 0.2,1.1 -0.5,0.9 z m 2.5,8.6 c 0,-0.3 0,-0.6 0,-0.9 0,-0.3 0,-0.3 0,-0.6 2.5,0 4.7,-1.8 4.7,-3.9 0,-2.1 -0.7,-1.8 -1.1,-2.3 0,0 0.2,0 0.3,0 0.4,0.3 1.4,1.4 1.4,2.9 0,2.5 -2.5,4.8 -5.3,4.8 z"
           id="path2" />
        <polygon
           class="cls-1"
           points="59,70.5 59,45.5 63.4,45.5 63.4,70.5 61.5,70.5 "
           id="polygon3" />
      </g>
    </g>
    <g
       id="Ebene_3"
       data-name="Ebene 3">
      <g
         id="g14">
        <path
           class="cls-1"
           d="m 75.6,15.9 c 0,-0.7 -0.3,-1.1 -1.1,-1.1 -0.8,0 -1.2,0 -1.2,1.4 v 2.1 c 0,1.4 0.4,1.7 1.2,1.7 0.8,0 1,-0.2 1.1,-0.3 v -1.9 h -1.2 v -0.7 h 2 v 3.1 c -0.5,0.3 -1.1,0.5 -1.9,0.5 -1.3,0 -2,-0.7 -2,-2.4 v -2.1 c 0,-1.3 0.6,-2.1 2,-2.1 1.4,0 2,0.5 2,1.8 h -0.8 z"
           id="path3" />
        <path
           class="cls-1"
           d="m 77.9,20.5 v -6.3 h 3.3 v 0.7 h -2.5 v 2 H 81 v 0.7 h -2.3 v 2.2 h 2.5 v 0.7 z"
           id="path4" />
        <path
           class="cls-1"
           d="m 82.2,20.5 v -6.3 h 3.1 v 0.7 H 83 v 2 h 2.2 v 0.7 H 83 v 2.9 z"
           id="path5" />
        <path
           class="cls-1"
           d="m 86.1,18.2 v -2.1 c 0,-1.3 0.6,-2.1 2,-2.1 1.4,0 2,0.8 2,2.1 v 2.1 c 0,1.7 -0.6,2.4 -2,2.4 -1.4,0 -2,-0.7 -2,-2.4 z m 1.7,-4.8 H 87 v -0.9 h 0.8 z m 1.5,4.8 v -2.1 c 0,-1.3 -0.9,-1.4 -1.2,-1.4 -0.3,0 -1.2,0 -1.2,1.4 v 2.1 c 0,1.4 0.4,1.7 1.2,1.7 0.8,0 1.2,-0.3 1.2,-1.7 z m 0,-4.8 h -0.8 v -0.9 h 0.8 z"
           id="path6" />
        <path
           class="cls-1"
           d="m 92.3,17.6 v 2.9 h -0.8 v -6.3 h 2.2 c 1.1,0 1.5,0.8 1.5,1.6 0,0.8 -0.4,1.3 -1.2,1.4 v 0 c 0.7,0.1 1,0.4 1,1.6 0,0.3 0,1.3 0.2,1.7 h -0.8 c -0.2,-0.4 -0.2,-1.3 -0.2,-2.1 0,-0.8 -0.7,-0.8 -1,-0.8 z m 0,-0.7 h 1.2 c 0.6,0 0.9,-0.5 0.9,-1.1 0,-0.6 -0.2,-1 -0.8,-1 h -1.2 v 2 z"
           id="path7" />
        <path
           class="cls-1"
           d="m 96.4,14.2 h 1.9 c 0.8,0 1.4,0.3 1.7,1 0.3,0.5 0.3,1.8 0.3,2 0,1.3 -0.1,2.1 -0.4,2.5 -0.3,0.5 -1,0.8 -2.1,0.8 h -1.5 v -6.3 z m 0.8,5.6 H 98 c 1.1,0 1.5,-0.4 1.5,-1.9 v -1.3 c 0,-1.3 -0.4,-1.7 -1.2,-1.7 h -1.1 z"
           id="path8" />
        <path
           class="cls-1"
           d="m 101.7,20.5 v -6.3 h 3.3 v 0.7 h -2.5 v 2 h 2.3 v 0.7 h -2.3 v 2.2 h 2.5 v 0.7 z"
           id="path9" />
        <path
           class="cls-1"
           d="m 106.9,17.6 v 2.9 h -0.8 v -6.3 h 2.2 c 1.1,0 1.5,0.8 1.5,1.6 0,0.8 -0.4,1.3 -1.2,1.4 v 0 c 0.7,0.1 1,0.4 1,1.6 0,0.3 0,1.3 0.2,1.7 H 109 c -0.2,-0.4 -0.2,-1.3 -0.2,-2.1 0,-0.8 -0.7,-0.8 -1,-0.8 z m 0,-0.7 h 1.2 c 0.6,0 0.9,-0.5 0.9,-1.1 0,-0.6 -0.2,-1 -0.8,-1 H 107 v 2 z"
           id="path10" />
        <path
           class="cls-1"
           d="m 114.5,14.2 v 0.7 h -1.7 v 5.6 H 112 v -5.6 h -1.7 v -0.7 h 4.1 z"
           id="path11" />
        <path
           class="cls-1"
           d="m 119.5,20.5 h -1 l -1.8,-6.3 h 0.9 l 1.4,5.6 v 0 l 1.5,-5.6 h 0.8 z"
           id="path12" />
        <path
           class="cls-1"
           d="m 122.1,18.2 v -2.1 c 0,-1.3 0.6,-2.1 2,-2.1 1.4,0 2,0.8 2,2.1 v 2.1 c 0,1.7 -0.6,2.4 -2,2.4 -1.4,0 -2,-0.7 -2,-2.4 z m 3.2,0 v -2.1 c 0,-1.3 -0.9,-1.4 -1.2,-1.4 -0.3,0 -1.2,0 -1.2,1.4 v 2.1 c 0,1.4 0.4,1.7 1.2,1.7 0.8,0 1.2,-0.3 1.2,-1.7 z"
           id="path13" />
        <path
           class="cls-1"
           d="m 128.2,20.5 h -0.8 v -6.3 h 1.3 l 1.6,5.3 v 0 l 1.6,-5.3 h 1.3 v 6.3 h -0.8 v -5.6 0 l -1.8,5.6 h -0.8 l -1.7,-5.6 v 0 5.6 z"
           id="path14" />
      </g>
    </g>
  </g>
</svg>
