<?xml version="1.0" encoding="UTF-8"?>
<svg xmlns="http://www.w3.org/2000/svg" version="1.1" viewBox="0 0 226.6 156.9">
  <defs>
    <style>
      .cls-1 {
        fill: #1d1d1b;
      }

      .cls-1, .cls-2, .cls-3, .cls-4 {
        stroke-width: 0px;
      }

      .cls-2 {
        fill: #f8d200;
      }

      .cls-3 {
        fill: #e30613;
      }

      .cls-4 {
        fill: #fff;
      }
    </style>
  </defs>
  <g id="Ebene_4" data-name="Ebene 4">
    <rect class="cls-4" x=".5" y="-.4" width="226.8" height="155.9"/>
  </g>
  <g id="Ebene_2" data-name="Ebene 2">
    <g>
      <path class="cls-1" d="M78.1,47.9c0,.4,0,.7-.1.9,0,.3-.2.5-.4.7-.2.2-.3.3-.5.5-.2.1-.4.2-.6.3h0c.3,0,.5.2.7.3.2.1.4.3.6.5.2.2.3.5.4.7.1.3.2.6.2.9s0,.8-.2,1.1c-.1.3-.4.6-.6.9-.3.2-.7.4-1.1.6-.4.1-1,.2-1.6.2h-2.1v-10.3h2c.6,0,1.1,0,1.6.2.4.1.8.3,1.1.5.3.2.5.5.6.8.1.3.2.7.2,1.1ZM76.8,47.9c0-.5-.2-.9-.5-1.2-.3-.3-.9-.5-1.6-.5h-.7v3.5h.7c.7,0,1.2-.2,1.6-.5.4-.3.5-.8.5-1.4ZM77,52.7c0-.6-.2-1-.5-1.3-.4-.3-.9-.5-1.6-.5h-.9v3.6h.8c.8,0,1.3-.2,1.7-.5.3-.3.5-.8.5-1.3ZM84.9,55.5h-1.1v-.8h0c0,0,0,.1-.2.3,0,.1-.2.2-.4.3-.2.1-.3.2-.6.3-.2,0-.5.1-.7.1s-.6,0-.9-.1c-.3,0-.5-.2-.6-.5-.2-.2-.3-.5-.4-.8,0-.3-.1-.7-.1-1.2v-4.7h1.2v4.6c0,.6,0,1,.3,1.3.2.3.5.4.9.4s.6,0,.9-.3c.2-.2.4-.3.6-.5v-5.5h1.2v7.1ZM90.7,55.5v-4.6c0-.6-.1-1-.3-1.3-.2-.3-.5-.4-.9-.4s-.7,0-.9.3c-.2.2-.4.4-.6.5v5.5h-1.2v-7.1h1.1v.8h0c0,0,0-.1.2-.3,0-.1.2-.2.4-.3.2-.1.3-.2.6-.3.2,0,.5-.1.7-.1s.6,0,.9.1c.3,0,.5.2.7.5.2.2.3.5.4.8.1.3.1.7.1,1.2v4.7h-1.2ZM93.3,52.1c0-.7,0-1.3.3-1.8.2-.5.4-.9.7-1.2.3-.3.6-.5,1-.6.4-.1.8-.2,1.1-.2s.4,0,.6,0c.2,0,.3,0,.4.1v-3.4h1.2c0-.1,0,10.5,0,10.5h-1.1v-.8h0c0,0,0,.1-.2.2,0,.1-.2.2-.3.3-.1.1-.3.2-.5.3-.2,0-.5.1-.7.1s-.7,0-1-.2c-.3-.1-.6-.3-.8-.6-.2-.3-.4-.7-.5-1.1-.1-.5-.2-1-.2-1.7ZM96.2,54.6c.2,0,.4,0,.5,0,.1,0,.3-.1.4-.2.1,0,.2-.1.3-.2,0,0,.1-.1.2-.2v-4.4c-.1,0-.2-.1-.4-.2-.1,0-.3,0-.5,0s-.5,0-.8.1c-.2,0-.5.2-.6.5-.2.2-.3.5-.4.8-.1.3-.2.8-.2,1.3s0,.9.1,1.2c0,.3.2.6.3.8.1.2.3.3.5.4.2,0,.4.1.6.1ZM105.1,50.8c0,.3,0,.6,0,.8,0,.2,0,.4,0,.6h-3.6c0,.8.2,1.5.5,1.9.3.4.8.6,1.4.6s.4,0,.6,0c.2,0,.3-.1.4-.2.1,0,.2-.1.3-.2,0,0,.1-.1.2-.2l.4.8c0,0-.1.1-.2.2,0,0-.2.2-.4.3-.2,0-.4.2-.6.2-.2,0-.5.1-.9.1s-.9,0-1.2-.2c-.4-.1-.7-.4-.9-.7-.3-.3-.4-.7-.6-1.2-.1-.5-.2-1.1-.2-1.7s0-1.2.2-1.6c.1-.5.3-.8.6-1.1.2-.3.5-.5.9-.7.3-.1.7-.2,1.1-.2.7,0,1.2.2,1.6.6.4.4.6,1.1.6,1.9ZM102.9,49.2c-.4,0-.8.2-1,.5-.3.4-.4.9-.4,1.5h2.6s0-.1,0-.2c0,0,0-.2,0-.3,0-.5,0-.9-.3-1.2-.2-.3-.5-.4-.9-.4ZM109.8,49.8c0,0-.2-.2-.4-.4-.2-.2-.5-.2-.8-.2s-.6,0-.7.2c-.2.1-.3.3-.3.5s0,.5.2.7c.2.2.4.4.7.6l.4.3c.5.3.9.6,1.1.9.3.3.4.8.4,1.3s-.2,1-.6,1.4c-.4.4-1,.6-1.7.6s-.5,0-.8,0c-.2,0-.4-.1-.6-.2-.2,0-.3-.2-.4-.3-.1,0-.2-.2-.3-.3l.6-1c0,0,.1.1.2.2,0,0,.2.2.3.2.1,0,.3.1.4.2.1,0,.3,0,.5,0,.4,0,.6,0,.8-.2.2-.2.3-.4.3-.6s0-.3,0-.4c0-.1-.1-.2-.2-.3,0,0-.2-.2-.3-.3-.1,0-.3-.2-.4-.3l-.4-.3c-.4-.3-.8-.6-1-.9-.3-.3-.4-.7-.4-1.2s0-.5.2-.7c.1-.2.2-.4.4-.6.2-.2.4-.3.7-.4.3,0,.5-.1.8-.1s.5,0,.7,0c.2,0,.4.1.5.2.1,0,.3.2.4.3,0,0,.2.2.2.2l-.5.9ZM115.7,55.5v-4.6c0-.6,0-1-.3-1.3-.2-.3-.4-.4-.8-.4s-.4,0-.5,0c-.2,0-.3.1-.4.2-.1,0-.2.2-.3.2,0,0-.2.2-.2.2v5.5h-1.2v-7.1h1.1v.8h0c0,0,.1-.2.2-.3,0-.1.2-.2.4-.3.1-.1.3-.2.5-.3.2,0,.4-.1.7-.1.8,0,1.4.3,1.7,1,0,0,.2-.2.3-.3.1-.1.3-.2.4-.3.2,0,.3-.2.5-.2.2,0,.4,0,.7,0,1.4,0,2.2.8,2.2,2.5v4.8h-1.2v-4.6c0-.6-.1-1-.3-1.3-.2-.3-.5-.4-.9-.4s-.6,0-.8.2c-.2.2-.4.3-.5.5,0,.1,0,.2,0,.3,0,.1,0,.3,0,.4v4.8h-1.2ZM123.6,55.5h-1.2v-7.1h1.2v7.1ZM123,46.7c-.2,0-.4,0-.6-.2-.1-.2-.2-.4-.2-.6s0-.5.2-.6c.1-.2.3-.2.6-.2s.4,0,.6.2c.1.2.2.4.2.6s0,.5-.2.6c-.1.2-.3.2-.6.2ZM129.3,55.5v-4.6c0-.6,0-1-.3-1.3-.2-.3-.5-.4-.9-.4s-.7,0-.9.3c-.2.2-.4.4-.6.5v5.5h-1.2v-7.1h1.1v.8h0c0,0,0-.1.2-.3,0-.1.2-.2.4-.3.2-.1.3-.2.6-.3.2,0,.5-.1.7-.1s.6,0,.9.1c.3,0,.5.2.7.5.2.2.3.5.4.8,0,.3.1.7.1,1.2v4.7h-1.2ZM133.6,55.5h-1.2v-7.1h1.2v7.1ZM133,46.7c-.2,0-.4,0-.6-.2-.1-.2-.2-.4-.2-.6s0-.5.2-.6c.2-.2.3-.2.6-.2s.4,0,.6.2c.1.2.2.4.2.6s0,.5-.2.6c-.2.2-.3.2-.6.2ZM138.5,49.8c0,0-.2-.2-.4-.4-.2-.2-.5-.2-.8-.2s-.6,0-.7.2c-.2.1-.3.3-.3.5s0,.5.2.7c.2.2.4.4.7.6l.4.3c.5.3.9.6,1.1.9.3.3.4.8.4,1.3s-.2,1-.6,1.4c-.4.4-1,.6-1.7.6s-.5,0-.8,0c-.2,0-.4-.1-.6-.2-.2,0-.3-.2-.4-.3-.1,0-.2-.2-.3-.3l.6-1c0,0,.1.1.2.2,0,0,.2.2.3.2.1,0,.3.1.4.2.1,0,.3,0,.5,0,.4,0,.6,0,.8-.2.2-.2.3-.4.3-.6s0-.3,0-.4c0-.1-.1-.2-.2-.3,0,0-.2-.2-.3-.3-.1,0-.3-.2-.4-.3l-.4-.3c-.4-.3-.8-.6-1-.9-.3-.3-.4-.7-.4-1.2s0-.5.2-.7c.1-.2.2-.4.4-.6.2-.2.4-.3.7-.4.3,0,.5-.1.8-.1s.5,0,.7,0c.2,0,.4.1.5.2.1,0,.3.2.4.3,0,0,.2.2.2.2l-.5.9ZM143.6,49.4h-1.6v4c0,.5,0,.8.2,1,.1.2.3.3.7.3s.3,0,.5,0c.1,0,.2,0,.3-.1l.2,1s-.2.1-.4.2c-.2,0-.4.1-.8.1-.6,0-1.1-.2-1.4-.5-.3-.3-.5-.9-.5-1.7v-4.1h-.9v-.8l.9-.2v-2h1.2v2h1.7v1ZM149.5,50.8c0,.3,0,.6,0,.8,0,.2,0,.4,0,.6h-3.6c0,.8.2,1.5.5,1.9.3.4.8.6,1.4.6s.4,0,.6,0c.2,0,.3-.1.4-.2.1,0,.2-.1.3-.2,0,0,.1-.1.2-.2l.4.8c0,0-.1.1-.2.2,0,0-.2.2-.4.3-.2,0-.4.2-.6.2-.2,0-.5.1-.9.1s-.8,0-1.2-.2c-.4-.1-.7-.4-.9-.7-.3-.3-.4-.7-.6-1.2-.1-.5-.2-1.1-.2-1.7s0-1.2.2-1.6c.1-.5.3-.8.6-1.1.2-.3.5-.5.9-.7.3-.1.7-.2,1.1-.2.7,0,1.2.2,1.6.6.4.4.6,1.1.6,1.9ZM147.2,49.2c-.4,0-.8.2-1,.5-.3.4-.4.9-.4,1.5h2.6s0-.1,0-.2c0,0,0-.2,0-.3,0-.5-.1-.9-.3-1.2-.2-.3-.5-.4-.9-.4ZM154.2,49.4s0,0-.2,0c-.1,0-.2,0-.4,0-.4,0-.7.1-.9.3-.2.2-.4.4-.5.7v5.2h-1.2v-7.1h1.1v1h0c0-.1.1-.3.2-.4,0-.1.2-.3.3-.4.1-.1.3-.2.4-.2.2,0,.4,0,.6,0s.3,0,.4,0c.1,0,.2,0,.2,0v1.1ZM156.6,55.5h-1.2v-7.1h1.2v7.1ZM156,46.7c-.2,0-.4,0-.6-.2-.1-.2-.2-.4-.2-.6s0-.5.2-.6c.2-.2.3-.2.6-.2s.4,0,.6.2c.1.2.2.4.2.6s0,.5-.2.6c-.2.2-.3.2-.6.2ZM163.5,55.5h-1.1v-.8h0c0,0,0,.1-.2.3,0,.1-.2.2-.4.3-.2.1-.3.2-.6.3-.2,0-.5.1-.7.1s-.6,0-.9-.1c-.3,0-.5-.2-.6-.5-.2-.2-.3-.5-.4-.8,0-.3-.1-.7-.1-1.2v-4.7h1.2v4.6c0,.6,0,1,.3,1.3.2.3.5.4.9.4s.6,0,.9-.3c.2-.2.4-.3.6-.5v-5.5h1.2v7.1ZM169,55.5v-4.6c0-.6,0-1-.3-1.3-.2-.3-.4-.4-.8-.4s-.4,0-.5,0c-.2,0-.3.1-.4.2-.1,0-.2.2-.3.2,0,0-.2.2-.2.2v5.5h-1.2v-7.1h1.1v.8h0c0,0,.1-.2.2-.3,0-.1.2-.2.4-.3.1-.1.3-.2.5-.3.2,0,.4-.1.7-.1.8,0,1.4.3,1.7,1,0,0,.2-.2.3-.3.1-.1.3-.2.4-.3.2,0,.3-.2.5-.2.2,0,.4,0,.7,0,1.4,0,2.2.8,2.2,2.5v4.8h-1.2v-4.6c0-.6-.1-1-.3-1.3-.2-.3-.5-.4-.9-.4s-.6,0-.8.2c-.2.2-.4.3-.5.5,0,.1,0,.2,0,.3,0,.1,0,.3,0,.4v4.8h-1.2ZM75.4,64.4h-1.5v6.2h-1.2v-6.2h-.9v-.8l.9-.2v-1.4c0-.4,0-.7.2-1,.1-.3.3-.5.4-.7.2-.2.4-.3.6-.4.2,0,.5-.1.8-.1s.5,0,.7.1c.2,0,.3.1.4.2l-.3,1c0,0-.1,0-.3-.1-.1,0-.2,0-.4,0-.3,0-.5,0-.7.3-.1.2-.2.5-.2,1v1.3h1.6v1ZM81.6,70.5h-1.1v-.8h0c0,0,0,.1-.2.3,0,.1-.2.2-.4.3-.2.1-.3.2-.6.3-.2,0-.5.1-.7.1s-.6,0-.9-.1c-.3,0-.5-.2-.6-.5-.2-.2-.3-.5-.4-.8,0-.3-.1-.7-.1-1.2v-4.7h1.2v4.6c0,.6,0,1,.3,1.3.2.3.5.4.9.4s.6,0,.9-.3c.2-.2.4-.3.6-.5v-5.5h1.2v7.1ZM78.7,61.3c0,.2,0,.4-.2.5-.1.1-.3.2-.5.2s-.4,0-.5-.2c-.1-.1-.2-.3-.2-.5s0-.4.2-.5c.1-.1.3-.2.5-.2s.4,0,.5.2c.1.1.2.3.2.5ZM81,61.3c0,.2,0,.4-.2.5-.1.1-.3.2-.5.2s-.4,0-.5-.2c-.1-.1-.2-.3-.2-.5s0-.4.2-.5c.1-.1.3-.2.5-.2s.4,0,.5.2c.1.1.2.3.2.5ZM86.6,64.4s0,0-.2,0c0,0-.2,0-.4,0-.4,0-.7.1-.9.3-.2.2-.4.4-.5.7v5.2h-1.2v-7.1h1.1v1h0c0-.1.1-.3.2-.4,0-.1.2-.3.3-.4.1-.1.3-.2.4-.2.2,0,.4,0,.6,0s.3,0,.4,0c.1,0,.2,0,.2,0v1.1ZM96.2,62.9c0,.4,0,.7-.1.9,0,.3-.2.5-.4.7-.2.2-.3.3-.5.5-.2.1-.4.2-.6.3h0c.3,0,.5.2.7.3.2.1.4.3.6.5.2.2.3.5.4.7.1.3.2.6.2.9s0,.8-.2,1.1c-.1.3-.4.6-.6.9-.3.2-.7.4-1.1.6-.4.1-1,.2-1.6.2h-2.1v-10.3h2c.6,0,1.1,0,1.6.2.4.1.8.3,1.1.5.3.2.5.5.6.8.1.3.2.7.2,1.1ZM94.9,62.9c0-.5-.2-.9-.5-1.2-.3-.3-.9-.5-1.6-.5h-.7v3.5h.7c.7,0,1.2-.2,1.6-.5.4-.3.5-.8.5-1.4ZM95.1,67.6c0-.6-.2-1-.5-1.3-.4-.3-.9-.5-1.6-.5h-.9v3.6h.8c.8,0,1.3-.2,1.7-.5.3-.3.5-.8.5-1.3ZM99.3,70.5h-1.2v-7.1h1.2v7.1ZM98.7,61.6c-.2,0-.4,0-.6-.2-.1-.2-.2-.4-.2-.6s0-.4.2-.6c.1-.2.3-.2.6-.2s.4,0,.6.2c.1.2.2.4.2.6s0,.5-.2.6c-.1.2-.3.2-.6.2ZM102.3,68.8c0,.3,0,.5.1.6,0,.1.2.2.4.2s.2,0,.3,0c0,0,.1,0,.2,0v.9s0,0-.2.1c-.2,0-.4,0-.6,0-.4,0-.7-.1-1-.4-.2-.2-.4-.7-.4-1.3v-8.9h1.2c0-.1,0,8.8,0,8.8ZM104.2,67c0-.7,0-1.3.3-1.8.2-.5.4-.9.7-1.2.3-.3.6-.5,1-.6.4-.1.8-.2,1.1-.2s.4,0,.6,0c.2,0,.3,0,.4.1v-3.4h1.2c0-.1,0,10.5,0,10.5h-1.1v-.8h0c0,0,0,.1-.2.2,0,.1-.2.2-.3.3-.1.1-.3.2-.5.3-.2,0-.5.1-.7.1s-.7,0-1-.2c-.3-.1-.6-.3-.8-.6-.2-.3-.4-.7-.5-1.1-.1-.5-.2-1-.2-1.7ZM107,69.6c.2,0,.4,0,.5,0,.1,0,.3-.1.4-.2.1,0,.2-.2.3-.2,0,0,.1-.1.2-.2v-4.4c-.1,0-.2-.1-.4-.2-.1,0-.3,0-.5,0s-.5,0-.8.1c-.2,0-.5.3-.6.5-.2.2-.3.5-.4.8-.1.3-.2.8-.2,1.3s0,.9.1,1.2c0,.3.2.6.4.8.1.2.3.3.5.4.2,0,.4.1.6.1ZM116.4,70.5h-1.1v-.8h0c0,0,0,.1-.2.3,0,.1-.2.2-.4.3-.2.1-.3.2-.6.3-.2,0-.5.1-.7.1s-.6,0-.9-.1c-.3,0-.5-.2-.6-.5-.2-.2-.3-.5-.4-.8,0-.3-.1-.7-.1-1.2v-4.7h1.2v4.6c0,.6,0,1,.3,1.3.2.3.5.4.9.4s.6,0,.9-.3c.2-.2.4-.3.6-.5v-5.5h1.2v7.1ZM122.1,70.5v-4.6c0-.6-.1-1-.3-1.3-.2-.3-.5-.4-.9-.4s-.7,0-.9.3c-.2.2-.4.4-.6.5v5.5h-1.2v-7.1h1.1v.8h0c0,0,0-.1.2-.3,0-.1.2-.2.4-.3.2-.1.3-.2.6-.3.2,0,.5-.1.7-.1s.6,0,.9.1c.3,0,.5.2.7.5.2.2.3.5.4.8,0,.3.1.7.1,1.2v4.7h-1.2ZM130.2,64.3h-.9c.2.4.3.8.3,1.3s0,.7-.2,1c-.1.3-.3.6-.5.8-.2.2-.5.4-.8.5-.3.1-.6.2-1,.2h-.2c0,0-.1,0-.2,0-.1,0-.2.1-.4.2-.1.1-.2.3-.2.4s0,.3.2.4c.1,0,.3.1.6.1h.9c.3,0,.6,0,.9.1.3,0,.5.2.7.3.2.2.4.3.5.6.1.2.2.5.2.9s0,.7-.2,1.1c-.2.3-.4.6-.7.8-.3.2-.7.4-1.1.5-.4.1-.9.2-1.4.2-.8,0-1.3-.2-1.7-.5-.4-.3-.6-.8-.6-1.4s0-.5.1-.7c0-.2.2-.4.3-.5.1-.1.3-.3.4-.3.1,0,.2-.2.3-.2h0c-.3-.3-.5-.6-.5-1s0-.4.1-.5c0-.1.2-.3.3-.3,0,0,.2-.2.3-.2,0,0,.2,0,.2-.1h0c-.4-.2-.7-.5-.9-.8-.2-.4-.3-.8-.3-1.4s0-.7.2-1c.1-.3.3-.6.5-.8.2-.2.5-.3.8-.4.3,0,.6-.1.9-.1s.7,0,.9.2h2.2l-.2.9ZM126.9,70.3c-.2,0-.4,0-.5,0,0,0-.2.1-.3.2,0,0-.2.2-.2.3,0,0-.1.2-.2.3,0,.1,0,.3,0,.5,0,.8.4,1.1,1.3,1.1s1.3-.1,1.6-.4c.3-.3.5-.6.5-1s-.1-.6-.3-.7c-.2-.1-.5-.2-.9-.2h-.9ZM128.5,65.6c0-.5-.1-.9-.4-1.1-.2-.2-.5-.3-.9-.3s-.6.1-.9.3c-.2.2-.4.6-.4,1.1s.1.9.4,1.1c.2.2.5.3.9.3s.6-.1.9-.3c.2-.2.4-.6.4-1.1ZM77.4,85.5h-1.1v-.8h0c0,0,0,.1-.2.3-.1.1-.2.2-.4.3-.2.1-.3.2-.6.3-.2,0-.5.1-.7.1s-.6,0-.9-.1c-.3,0-.5-.2-.6-.5-.2-.2-.3-.5-.4-.8,0-.3-.1-.7-.1-1.2v-4.7h1.2v4.6c0,.6,0,1,.3,1.3.2.3.5.4.9.4s.6,0,.9-.3c.2-.2.4-.3.6-.5v-5.5h1.2v7.1ZM83.2,85.5v-4.6c0-.6-.1-1-.3-1.3-.2-.3-.5-.4-.9-.4s-.7,0-.9.3c-.2.2-.4.4-.6.5v5.5h-1.2v-7.1h1.1v.8h0c0,0,0-.1.2-.3,0-.1.2-.2.4-.3.2-.1.3-.2.6-.3.2,0,.5-.1.7-.1s.6,0,.9.1c.3,0,.5.2.7.5.2.2.3.5.4.8,0,.3.1.7.1,1.2v4.7h-1.2ZM85.8,82c0-.7,0-1.3.3-1.8.2-.5.4-.9.7-1.2.3-.3.6-.5,1-.6.4-.1.8-.2,1.1-.2s.4,0,.6,0c.2,0,.3,0,.4.1v-3.4h1.2c0-.1,0,10.5,0,10.5h-1.1v-.8h0c0,0,0,.1-.2.2,0,.1-.2.2-.3.3-.1.1-.3.2-.5.3-.2,0-.5.1-.7.1s-.7,0-1-.2c-.3-.1-.6-.3-.8-.6-.2-.3-.4-.7-.5-1.1-.1-.5-.2-1-.2-1.7ZM88.7,84.6c.2,0,.4,0,.5,0,.1,0,.3-.1.4-.2.1,0,.2-.2.3-.2,0,0,.1-.1.2-.2v-4.4c-.1,0-.2-.1-.4-.2-.1,0-.3,0-.5,0s-.5,0-.8.1c-.2,0-.5.3-.6.5-.2.2-.3.5-.4.8-.1.3-.2.8-.2,1.3s0,.9.1,1.2c0,.3.2.6.3.8.1.2.3.3.5.4.2,0,.4.1.6.1ZM96.5,85.5v-10.3h5v1h-3.7v3.8h3.4v1h-3.4v4.4h-1.3ZM102.4,81.9c0-.7,0-1.2.2-1.7.2-.5.4-.9.6-1.2.3-.3.6-.5.9-.7.3-.1.7-.2,1.1-.2s.8,0,1.1.2c.3.1.6.4.9.7.2.3.4.7.6,1.2.1.5.2,1,.2,1.7s0,1.2-.2,1.7c-.1.5-.4.9-.6,1.2-.3.3-.6.5-.9.7-.3.1-.7.2-1.1.2s-.8,0-1.1-.2c-.3-.1-.6-.4-.9-.7-.2-.3-.4-.7-.6-1.2-.1-.5-.2-1-.2-1.7ZM106.8,81.9c0-1-.1-1.6-.4-2.1-.3-.4-.7-.6-1.2-.6s-.9.2-1.2.6c-.3.4-.4,1.1-.4,2.1s.1,1.6.4,2c.3.4.7.6,1.2.6s.9-.2,1.2-.6c.3-.4.4-1.1.4-2ZM112.7,79.4s0,0-.2,0c-.1,0-.2,0-.4,0-.4,0-.7.1-.9.3-.2.2-.4.4-.5.7v5.2h-1.2v-7.1h1.1v1h0c0-.1.1-.3.2-.4,0-.1.2-.3.3-.4.1-.1.3-.2.4-.2.2,0,.4,0,.6,0s.3,0,.4,0c.1,0,.2,0,.2,0v1.1ZM116.9,79.8c0,0-.2-.2-.4-.4-.2-.2-.5-.2-.8-.2s-.6,0-.7.2c-.2.1-.3.3-.3.5s0,.5.2.7c.2.2.4.4.7.6l.4.3c.5.3.9.6,1.1.9.3.3.4.8.4,1.3s-.2,1-.6,1.4c-.4.4-1,.6-1.7.6s-.5,0-.8,0c-.2,0-.4-.1-.6-.2-.2,0-.3-.2-.4-.3-.1,0-.2-.2-.3-.3l.6-1c0,0,.1.1.2.2,0,0,.2.2.3.2.1,0,.3.1.4.2.1,0,.3,0,.5,0,.4,0,.6,0,.8-.2.2-.2.3-.3.3-.6s0-.3,0-.4c0-.1-.1-.2-.2-.3,0,0-.2-.2-.3-.3-.1,0-.3-.2-.4-.3l-.4-.3c-.4-.3-.8-.6-1-.9-.3-.3-.4-.7-.4-1.2s0-.5.2-.7c.1-.2.2-.4.4-.6.2-.2.4-.3.7-.4.3,0,.5-.1.8-.1s.5,0,.7,0c.2,0,.4.1.5.2.1,0,.3.2.4.3,0,0,.2.2.2.2l-.5.9ZM123,79.7s0,0-.1-.1c0,0-.1-.1-.2-.2,0,0-.2-.1-.4-.2-.1,0-.3,0-.5,0-.3,0-.5,0-.7.1-.2,0-.4.2-.6.5-.2.2-.3.5-.4.8,0,.3-.1.7-.1,1.2s0,1,.1,1.3c0,.4.2.6.3.9.1.2.3.4.5.5.2,0,.4.1.7.1.4,0,.6,0,.8-.2s.3-.2.4-.3l.5.8c0,0-.1.1-.2.2,0,0-.2.2-.4.2-.1,0-.3.1-.5.2-.2,0-.5,0-.7,0-.4,0-.8,0-1.1-.2-.3-.1-.6-.3-.9-.6-.3-.3-.5-.7-.6-1.2-.1-.5-.2-1.1-.2-1.8s0-1.3.3-1.7c.2-.5.4-.9.7-1.2.3-.3.6-.5,1-.6.4-.1.7-.2,1.1-.2s.5,0,.7,0c.2,0,.4.1.5.2.1,0,.3.2.4.2,0,0,.2.2.2.2l-.5.8ZM128.6,85.5v-4.6c0-.6-.1-1-.3-1.3-.2-.3-.5-.4-.9-.4s-.7,0-.9.3c-.2.2-.4.4-.6.5v5.5h-1.2v-10.5h1.2c0-.1,0,4.1,0,4.1h0c0,0,.1-.1.2-.2,0,0,.2-.2.3-.3.1,0,.3-.2.5-.3.2,0,.5-.1.8-.1.6,0,1.1.2,1.5.6.4.4.6,1.1.6,2v4.7h-1.2ZM136.6,85.5h-1.1v-.8h0c0,0,0,.1-.2.3,0,.1-.2.2-.4.3-.2.1-.3.2-.6.3-.2,0-.5.1-.7.1s-.6,0-.9-.1c-.3,0-.5-.2-.6-.5-.2-.2-.3-.5-.4-.8,0-.3-.1-.7-.1-1.2v-4.7h1.2v4.6c0,.6,0,1,.3,1.3.2.3.5.4.9.4s.6,0,.9-.3c.2-.2.4-.3.6-.5v-5.5h1.2v7.1ZM142.4,85.5v-4.6c0-.6-.1-1-.3-1.3-.2-.3-.5-.4-.9-.4s-.7,0-.9.3c-.2.2-.4.4-.6.5v5.5h-1.2v-7.1h1.1v.8h0c0,0,0-.1.2-.3,0-.1.2-.2.4-.3.2-.1.3-.2.6-.3.2,0,.5-.1.7-.1s.6,0,.9.1c.3,0,.5.2.7.5.2.2.3.5.4.8,0,.3.1.7.1,1.2v4.7h-1.2ZM150.5,79.3h-.9c.2.4.3.8.3,1.3s0,.7-.2,1c-.1.3-.3.6-.5.8-.2.2-.5.4-.8.5-.3.1-.6.2-1,.2h-.2c0,0-.1,0-.2,0-.1,0-.2.1-.4.2-.1.1-.2.3-.2.4s0,.3.2.4c.1,0,.3.1.6.1h.9c.3,0,.7,0,.9.1.3,0,.5.2.8.3.2.2.4.3.5.6.1.2.2.5.2.9s0,.7-.2,1.1c-.2.3-.4.6-.7.8-.3.2-.7.4-1.1.5-.4.1-.9.2-1.4.2-.8,0-1.3-.2-1.7-.5-.4-.3-.6-.8-.6-1.4s0-.5.1-.7c0-.2.2-.4.3-.5.1-.1.3-.3.4-.3.1,0,.2-.2.3-.2h0c-.3-.3-.5-.6-.5-1s0-.4.1-.5c0-.1.2-.2.3-.3,0,0,.2-.2.3-.2,0,0,.2,0,.2-.1h0c-.4-.2-.7-.5-.9-.8-.2-.4-.3-.8-.3-1.4s0-.7.2-1c.1-.3.3-.6.5-.8.2-.2.5-.3.8-.4.3,0,.6-.1.9-.1s.7,0,1,.2h2.2l-.2.9ZM147.2,85.3c-.2,0-.4,0-.5,0,0,0-.2.1-.3.2,0,0-.2.2-.2.3,0,0-.1.2-.2.3,0,.1,0,.3,0,.5,0,.8.4,1.1,1.3,1.1s1.3-.1,1.6-.4c.3-.3.5-.6.5-1s-.1-.6-.3-.7c-.2-.1-.5-.2-.9-.2h-.9ZM148.8,80.6c0-.5-.1-.9-.4-1.1-.2-.2-.5-.3-.9-.3s-.6.1-.9.3c-.2.2-.4.6-.4,1.1s.1.9.4,1.1c.2.2.5.3.9.3s.6-.1.9-.3c.2-.2.4-.6.4-1.1Z"/>
      <polygon class="cls-2" points="61.5 95.5 63.4 95.5 63.4 120.4 59 120.4 59 95.5 61.5 95.5"/>
      <polygon class="cls-3" points="61.5 70.4 63.4 70.4 63.4 95.5 59 95.5 59 70.4 61.5 70.4"/>
      <path class="cls-1" d="M47.7,54.3c1.3,2,2.3,2,3.8,2-1.3-1-2.1-2.2-2.5-2.8l-2.3-3.7c-.2-1.2-.8-2.2-1.7-3,.3-.1.5-.2.7-.3-1.5,0-3-.8-3.9-.8s-.9.3-.9.7c0,.5.5.9,1.4.9s.5,0,.7,0c.5.7.9,1.3.9,2.2,0,1.6-2,2.9-3.9,2.9s-.2,0-.3,0c-.2-.4-.8-1.1-.8-1.9,0-1.3.8-2.4.8-3.6s-.4-1.3-.5-1.5c.2-.2.5-.5.6-.7-.1,0-.3,0-.6,0-.9,0-1.7-.2-2.5-.2s-.5.1-.5.3,0,0,0,.1c-.2,0-.3-.1-.5-.1-.2,0-.5,0-.7,0-.9,0-1.2.4-1.2.7s.2.8.5,1.2c.4-.2.8-.3,1-.3.5,0,.9.5,1.1,1-.3,0-.4,0-.7,0-.9,0-1.5-.3-1.6-.3s0,0,0,0c0,.1.3.5.7.6.7.2,1.6.3,1.8.4,0,0-.2.3-.4.4,0,0,0,0-.1,0-.7-.1-.9-.2-1.7-.5,0,0,0,0,0,0,0,.3.9,1.1,1.7,1.4-.7.9-1.5,1.7-1.9,3-.1,0-.2,0-.3,0-2,0-3.9-1.3-3.9-2.9s.4-1.5.9-2.2c.3,0,.5,0,.7,0,.9,0,1.4-.5,1.4-.9,0-.4-.3-.7-.9-.7-.8,0-2.3.8-3.9.8.2.1.4.2.7.3-.9.8-1.5,1.9-1.7,3l-2.3,3.7c-.4.6-1.2,1.9-2.5,2.8,1.5,0,2.5,0,3.8-2l1.2-1.9c0,.2.2.5.3.7l-2.4,3.8c-.4.6-1.2,1.8-2.5,2.8,1.5,0,2.5,0,3.8-2l2-3.3c.2.2.3.3.5.5l-2.9,4.6c-.4.6-1.2,1.8-2.5,2.8,1.5,0,2.5,0,3.8-2l2.8-4.5c.2.1.4.2.6.3l-3.4,5.5c-.4.6-1.2,1.8-2.5,2.8,1.5,0,2.5,0,3.8-2l3.5-5.7c.2,0,.4.2.6.2l-4,6.4c-.4.6-1.2,1.9-2.5,2.8,1.5,0,2.5,0,3.8-2l4.3-6.8s0,0,.1,0c.1.4.2.7.2,1.1,0,2.1-1.4,4-3.1,5.5.1,0,.3,0,.5,0,.3,0,.6,0,.7,0-.4.9-1.2,2-1.7,2.6-.6,0-1.4-.2-1.9-.2s-.6.3-.6.6c0,.5.2.9.5,1.1.1-.3.3-.6,1.3-.6s0,0,.1,0c-.3.3-1.2,1.1-1.2,1.7s.4,1,1,1c0-.1,0-.2,0-.3,0-.5.4-1.1.8-1.5,0,.1,0,.1,0,.2,0,1.2.1,1.7.8,1.7s.6-.2.7-.3c-.5-.4-.5-.8-.5-1.4,0-.2,0-.3,0-.6,0-.1,0-.3,0-.5.3,0,.4,0,.6,0,0,0,1,0,1.3.5.3-.3.7-.6.7-1s-.1-.6-.7-.6-.8.1-1.4.1c.1-.3.8-1.3,1.3-1.9,0,.3.2.6.5.8,0-.4.3-1.8,1-2.6,0,.5.2,1.1.2,2.3,0,2.9-.7,5-2.2,5.4.2.3.6.6,1,.6s.8-.6,1.1-1.2c.2.4.6,1.5,1,1.5s.9-1,1-1.5c.3.6.6,1.2,1.1,1.2s.8-.3,1-.6c-1.5-.4-2.2-2.5-2.2-5.4s.1-1.8.2-2.3c.7.8.9,2.2,1,2.6.3-.2.4-.5.5-.8.6.7,1.2,1.6,1.3,1.9-.5,0-1.2-.1-1.4-.1-.5,0-.7.3-.7.6,0,.4.4.8.7,1,.3-.5,1.3-.5,1.3-.5.2,0,.3,0,.6,0,0,.1,0,.3,0,.5,0,.2,0,.4,0,.6,0,.7,0,1-.5,1.4,0,0,.3.3.7.3.7,0,.8-.5.8-1.7s0-.1,0-.2c.4.4.8,1,.8,1.5s0,.2,0,.3c.6,0,1-.6,1-1,0-.6-.9-1.4-1.2-1.7,0,0,0,0,.1,0,1,0,1.2.3,1.3.6.3-.2.5-.6.5-1.1s0-.6-.6-.6-1.3,0-1.9.2c-.4-.6-1.3-1.7-1.7-2.6.2,0,.4,0,.7,0s.4,0,.5,0c-1.7-1.5-3.1-3.4-3.1-5.5s0-.7.2-1.1c0,0,0,0,.1,0l4.3,6.8c1.3,2,2.3,2,3.8,2-1.2-1-2.1-2.2-2.5-2.8l-4-6.4c.2,0,.4-.1.6-.2l3.5,5.7c1.3,2,2.3,2,3.8,2-1.3-1-2.1-2.2-2.5-2.8l-3.4-5.5c.2-.1.4-.2.6-.3l2.8,4.5c1.3,2,2.3,2,3.8,2-1.3-1-2.1-2.2-2.5-2.8l-2.9-4.6c.2-.2.3-.3.5-.5l2,3.3c1.3,2,2.3,2,3.8,2-1.3-1-2.1-2.2-2.5-2.8l-2.4-3.8c.1-.2.2-.5.3-.7l1.2,1.9ZM28.6,49.9c0-1.4,1-2.6,1.4-2.9,0,0,.2,0,.3,0-.4.5-1.1,1.3-1.1,2.3,0,2.1,2.2,3.9,4.7,3.9,0,.2,0,.4,0,.6,0,.3,0,.6,0,.9-2.8,0-5.4-2.3-5.4-4.8ZM32.4,66.9h0s0,0,0,0c.8,0,1.2,0,1.4,0,.1,0,.2,0,.3,0,.2,0,.4,0,.4.3s-.2.4-.4.6c-.3-.3-.7-.3-1.3-.3s-.6,0-.8,0h0s0,0,0,0h0c0,.3,0,.5,0,.7v.3s0,.3,0,.3c0,.7,0,1.1.3,1.4,0,0-.2,0-.2,0-.4,0-.5-.2-.5-1.4s0-.5,0-.6v-.2s0,0,0,0c-.6.5-1.3,1.3-1.3,2-.2-.1-.4-.4-.4-.6,0-.3.5-.9,1.1-1.5l.3-.3h0s-.1,0-.1,0c-.1,0-.4,0-.6,0-.7,0-1.1.1-1.4.4,0-.1-.2-.5-.2-.6s0-.2,0-.3c0,0,.2,0,.2,0h0c.8,0,1.6.1,2,.2h0s0,0,0,0c0,0,1.5-2,1.9-3,0,0,.2,0,.3,0,.3,0,.4.2.4.5-.9,1.1-1.5,1.9-1.7,2.5ZM40.1,64c.1,0,.2,0,.3,0,.4,1,1.8,2.9,1.9,3h0s0,0,0,0c.3,0,1.2-.2,2-.2h0c0,0,.2,0,.2,0,0,0,0,.1,0,.3,0,.2,0,.5-.2.6-.3-.3-.7-.4-1.4-.4s-.4,0-.6,0h0s0,0,0,0l.4.4c.6.6,1.1,1.1,1.1,1.5s-.2.5-.4.6c0-.6-.7-1.5-1.3-2h0s0,.2,0,.2c0,.2,0,.4,0,.6,0,1.2-.1,1.4-.5,1.4s-.2,0-.2,0c.2-.3.3-.7.3-1.4v-.3s0-.3,0-.3c0-.3,0-.5,0-.7h0c0,0,0-.1,0-.1-.2,0-.6,0-.8,0-.6,0-1,0-1.3.3-.2-.2-.4-.4-.4-.6,0-.3.2-.3.4-.3s.2,0,.3,0c.3,0,.6,0,1.4,0h0,0c-.2-.6-.8-1.5-1.7-2.6,0-.3.2-.5.4-.5ZM36.8,47.4c0-.4-.3-.7-.5-1-.2-.3-.6-.6-1.1-.6s-.6.1-.8.2c0-.2-.3-.6-.3-.7s.3-.4.9-.4c1.3,0,2.1.6,2.1,1.6s-.1.7-.3.9ZM37.4,46.1c0-.3-.2-.5-.3-.7,0-.3.1-.5.5-.3-.2.2,0,.6,0,.6,0,0,.4-.2.4-.5.7.2.2,1.1-.5.9ZM39.9,54.7c0-.3,0-.6,0-.9s0-.3,0-.6c2.5,0,4.7-1.8,4.7-3.9s-.7-1.8-1.1-2.3c0,0,.2,0,.3,0,.4.3,1.4,1.4,1.4,2.9,0,2.5-2.5,4.8-5.3,4.8Z"/>
      <polygon class="cls-1" points="63.4 45.5 63.4 70.5 61.5 70.5 59 70.5 59 45.5 63.4 45.5"/>
    </g>
  </g>
  <g id="Ebene_3" data-name="Ebene 3">
    <g>
      <path class="cls-1" d="M75.6,15.9c0-.7-.3-1.1-1.1-1.1s-1.2,0-1.2,1.4v2.1c0,1.4.4,1.7,1.2,1.7s1-.2,1.1-.3v-1.9h-1.2v-.7h2v3.1c-.5.3-1.1.5-1.9.5-1.3,0-2-.7-2-2.4v-2.1c0-1.3.6-2.1,2-2.1s2,.5,2,1.8h-.8Z"/>
      <path class="cls-1" d="M77.9,20.5v-6.3h3.3v.7h-2.5v2h2.3v.7h-2.3v2.2h2.5v.7h-3.3Z"/>
      <path class="cls-1" d="M82.2,20.5v-6.3h3.1v.7h-2.3v2h2.2v.7h-2.2v2.9h-.8Z"/>
      <path class="cls-1" d="M86.1,18.2v-2.1c0-1.3.6-2.1,2-2.1s2,.8,2,2.1v2.1c0,1.7-.6,2.4-2,2.4s-2-.7-2-2.4ZM87.8,13.4h-.8v-.9h.8v.9ZM89.3,18.2v-2.1c0-1.3-.9-1.4-1.2-1.4s-1.2,0-1.2,1.4v2.1c0,1.4.4,1.7,1.2,1.7s1.2-.3,1.2-1.7ZM89.3,13.4h-.8v-.9h.8v.9Z"/>
      <path class="cls-1" d="M92.3,17.6v2.9h-.8v-6.3h2.2c1.1,0,1.5.8,1.5,1.6s-.4,1.3-1.2,1.4h0c.7.1,1,.4,1,1.6,0,.3,0,1.3.2,1.7h-.8c-.2-.4-.2-1.3-.2-2.1,0-.8-.7-.8-1-.8h-.9ZM92.3,16.9h1.2c.6,0,.9-.5.9-1.1s-.2-1-.8-1h-1.2v2Z"/>
      <path class="cls-1" d="M96.4,14.2h1.9c.8,0,1.4.3,1.7,1,.3.5.3,1.8.3,2,0,1.3-.1,2.1-.4,2.5-.3.5-1,.8-2.1.8h-1.5v-6.3ZM97.2,19.8h.8c1.1,0,1.5-.4,1.5-1.9v-1.3c0-1.3-.4-1.7-1.2-1.7h-1.1v4.9Z"/>
      <path class="cls-1" d="M101.7,20.5v-6.3h3.3v.7h-2.5v2h2.3v.7h-2.3v2.2h2.5v.7h-3.3Z"/>
      <path class="cls-1" d="M106.9,17.6v2.9h-.8v-6.3h2.2c1.1,0,1.5.8,1.5,1.6s-.4,1.3-1.2,1.4h0c.7.1,1,.4,1,1.6,0,.3,0,1.3.2,1.7h-.8c-.2-.4-.2-1.3-.2-2.1,0-.8-.7-.8-1-.8h-.9ZM106.9,16.9h1.2c.6,0,.9-.5.9-1.1s-.2-1-.8-1h-1.2v2Z"/>
      <path class="cls-1" d="M114.5,14.2v.7h-1.7v5.6h-.8v-5.6h-1.7v-.7h4.1Z"/>
      <path class="cls-1" d="M119.5,20.5h-1l-1.8-6.3h.9l1.4,5.6h0l1.5-5.6h.8l-1.8,6.3Z"/>
      <path class="cls-1" d="M122.1,18.2v-2.1c0-1.3.6-2.1,2-2.1s2,.8,2,2.1v2.1c0,1.7-.6,2.4-2,2.4s-2-.7-2-2.4ZM125.3,18.2v-2.1c0-1.3-.9-1.4-1.2-1.4s-1.2,0-1.2,1.4v2.1c0,1.4.4,1.7,1.2,1.7s1.2-.3,1.2-1.7Z"/>
      <path class="cls-1" d="M128.2,20.5h-.8v-6.3h1.3l1.6,5.3h0l1.6-5.3h1.3v6.3h-.8v-5.6h0l-1.8,5.6h-.8l-1.7-5.6h0v5.6Z"/>
    </g>
  </g>
</svg>