<?xml version="1.0" encoding="UTF-8" standalone="no"?>
<!-- Created with Inkscape (http://www.inkscape.org/) -->

<svg
   width="270"
   height="52"
   viewBox="0 0 71.437498 13.758334"
   version="1.1"
   id="svg1"
   xmlns="http://www.w3.org/2000/svg"
   xmlns:svg="http://www.w3.org/2000/svg">
  <defs
     id="defs1" />
  <g
     id="layer1">
    <path
       class="st1"
       d="m 0.17991667,13.636625 c -0.0502708,0 -0.09524999,-0.01852 -0.12964583,-0.05292 C 0.01587501,13.549312 0,13.506979 0,13.456708 V 3.3707916 c 0,-0.047625 0.01587501,-0.089958 0.05027084,-0.127 C 0.08466668,3.2093958 0.12700001,3.190875 0.17991667,3.190875 H 2.25425 c 0.1005416,0 0.1693333,0.044979 0.2090208,0.1349375 l 1.1800417,2.3415624 c 0.029104,0.039687 0.058208,0.039687 0.089958,0 L 4.9106666,3.3258125 C 4.9609374,3.2358541 5.0297291,3.190875 5.1196874,3.190875 h 2.0902084 c 0.047625,0 0.089958,0.018521 0.127,0.052917 0.034396,0.034396 0.052917,0.076729 0.052917,0.127 v 10.088562 c 0,0.04763 -0.018521,0.08996 -0.052917,0.127 -0.034396,0.0344 -0.076729,0.05292 -0.127,0.05292 H 5.0905833 c -0.047625,0 -0.089958,-0.01852 -0.127,-0.05292 -0.034396,-0.0344 -0.052917,-0.07673 -0.052917,-0.127 V 7.1781457 c 0,-0.039688 -0.010583,-0.060854 -0.029104,-0.066146 -0.021167,-0.00794 -0.039688,0.00529 -0.060854,0.037042 L 3.7914791,9.0884374 c -0.039688,0.089958 -0.068792,0.1349375 -0.089958,0.1349375 -0.021167,0 -0.055562,-0.044979 -0.1058333,-0.1349375 l -1.0292292,-1.9685 C 2.5452916,7.0881874 2.5267708,7.0776041 2.5056041,7.0828957 2.4844375,7.0881874 2.4765,7.1093541 2.4765,7.1490416 v 6.3103124 c 0,0.04763 -0.018521,0.08996 -0.052917,0.127 -0.034396,0.0344 -0.076729,0.05292 -0.127,0.05292 H 0.17991667 Z"
       id="path1"
       style="fill:#045638;stroke-width:0.264583" />
    <path
       class="st1"
       d="m 12.948708,13.636625 c -0.119062,0 -0.185208,-0.05556 -0.195791,-0.166688 L 12.573,12.173479 c 0,-0.05027 -0.0291,-0.07673 -0.08996,-0.07673 h -1.582209 c -0.06085,0 -0.08996,0.02646 -0.08996,0.07673 l -0.224896,1.296458 c -0.0079,0.111125 -0.07408,0.166688 -0.195792,0.166688 H 8.2735207 c -0.1296458,0 -0.1799166,-0.0635 -0.1481666,-0.195792 L 10.289646,3.3575625 c 0.02117,-0.111125 0.08467,-0.1666875 0.193146,-0.1666875 h 2.434166 c 0.108479,0 0.171979,0.055562 0.193146,0.1666875 l 2.164292,10.0832705 0.01588,0.06085 c 0,0.08996 -0.05556,0.134938 -0.166688,0.134938 h -2.177521 z m -1.791229,-3.521604 c -0.0079,0.05027 0.01058,0.07673 0.06085,0.07673 h 0.986896 c 0.03969,0 0.06085,-0.02381 0.06085,-0.07673 L 11.803062,6.9241457 c -0.0079,-0.029104 -0.02381,-0.042333 -0.04233,-0.042333 -0.01852,0 -0.0344,0.015875 -0.04763,0.042333 l -0.552979,3.1908753 z"
       id="path2"
       style="fill:#045638;stroke-width:0.264583" />
    <path
       class="st1"
       d="m 19.08175,13.755687 c -0.947209,0 -1.701271,-0.277812 -2.270125,-0.833437 -0.566209,-0.558271 -0.849313,-1.299104 -0.849313,-2.225146 V 6.1171666 c 0,-0.9339792 0.283104,-1.6748125 0.849313,-2.2225 0.566208,-0.5476875 1.322916,-0.8202083 2.270125,-0.8202083 0.947208,0 1.701271,0.2725208 2.272771,0.8202083 0.574145,0.5476875 0.859895,1.2885208 0.859895,2.2225 v 0.1349375 c 0,0.050271 -0.01852,0.09525 -0.05292,0.1296458 -0.0344,0.034396 -0.07673,0.050271 -0.127,0.050271 l -2.119313,0.089958 c -0.119062,0 -0.179916,-0.060854 -0.179916,-0.1799167 V 5.9372499 c 0,-0.2275416 -0.06086,-0.4074583 -0.179917,-0.5423958 -0.119063,-0.1349375 -0.277813,-0.2010833 -0.47625,-0.2010833 -0.198438,0 -0.343958,0.068792 -0.463021,0.2010833 -0.119062,0.1349375 -0.179917,0.3148542 -0.179917,0.5423958 v 4.9688751 c 0,0.219604 0.06086,0.399521 0.179917,0.531812 0.119063,0.134938 0.272521,0.201084 0.463021,0.201084 0.1905,0 0.357187,-0.06615 0.47625,-0.201084 0.119062,-0.134937 0.179917,-0.312208 0.179917,-0.531812 v -0.431271 c 0,-0.05027 0.01852,-0.0926 0.05292,-0.127 0.0344,-0.0344 0.07673,-0.05292 0.127,-0.05292 l 2.119313,0.08996 c 0.04763,0 0.08996,0.01588 0.127,0.04763 0.0344,0.0291 0.05292,0.0635 0.05292,0.103187 v 0.161396 c 0,0.926042 -0.28575,1.669521 -0.859895,2.225146 -0.5715,0.555625 -1.328209,0.833437 -2.272771,0.833437 z"
       id="path3"
       style="fill:#045638;stroke-width:0.264583" />
    <path
       class="st1"
       d="m 26.794354,3.3707916 c 0,-0.047625 0.01588,-0.089958 0.05027,-0.127 0.0344,-0.034396 0.07673,-0.052917 0.129646,-0.052917 h 2.116666 c 0.05027,0 0.0926,0.018521 0.127,0.052917 0.0344,0.034396 0.05292,0.076729 0.05292,0.127 V 13.459354 c 0,0.04763 -0.01852,0.08996 -0.05292,0.127 -0.0344,0.0344 -0.07408,0.05292 -0.127,0.05292 H 26.97427 c -0.05027,0 -0.09525,-0.01852 -0.129646,-0.05292 -0.0344,-0.0344 -0.05027,-0.07673 -0.05027,-0.127 V 9.5488124 c 0,-0.050271 -0.02646,-0.076729 -0.07673,-0.076729 h -1.074209 c -0.04763,0 -0.07408,0.026458 -0.07408,0.076729 v 3.9105416 c 0,0.04763 -0.01852,0.08996 -0.05292,0.127 -0.03439,0.0344 -0.07673,0.05292 -0.127,0.05292 h -2.119312 c -0.05027,0 -0.09525,-0.01852 -0.129646,-0.05292 -0.0344,-0.0344 -0.05027,-0.07673 -0.05027,-0.127 V 3.3707916 c 0,-0.047625 0.01588,-0.089958 0.05027,-0.127 0.0344,-0.034396 0.07673,-0.052917 0.129646,-0.052917 h 2.119312 c 0.04763,0 0.08996,0.018521 0.127,0.052917 0.0344,0.034396 0.05292,0.076729 0.05292,0.127 v 3.8973125 c 0,0.047625 0.02381,0.074083 0.07408,0.074083 h 1.074209 c 0.05027,0 0.07673,-0.023813 0.07673,-0.074083 z"
       id="path4"
       style="fill:#045638;stroke-width:0.264583" />
    <path
       class="st1"
       d="m 32.715729,3.1935208 c 0.06085,0 0.100541,0.018521 0.127,0.052917 0.02381,0.034396 0.02646,0.087313 0.0079,0.1561041 l -1.074208,3.1194375 c -0.0291,0.1005417 -0.0926,0.1481667 -0.193146,0.1481667 H 29.972 c -0.129646,0 -0.179917,-0.0635 -0.148167,-0.1931459 l 0.595312,-3.1194374 c 0.0079,-0.111125 0.07408,-0.1666875 0.195792,-0.1666875 h 2.103438 z"
       id="path5"
       style="fill:#045638;stroke-width:0.264583" />
    <path
       class="st1"
       d="m 36.3855,13.755687 c -0.608542,0 -1.145646,-0.116416 -1.608667,-0.351895 -0.460375,-0.232834 -0.817563,-0.560917 -1.071563,-0.981605 -0.254,-0.423333 -0.381,-0.904875 -0.381,-1.441979 v -0.505354 c 0,-0.05027 0.01588,-0.0926 0.05027,-0.127 0.0344,-0.0344 0.07673,-0.05292 0.129646,-0.05292 h 2.103438 c 0.05027,0 0.0926,0.01852 0.127,0.05292 0.03439,0.0344 0.05292,0.07408 0.05292,0.127 v 0.386292 c 0,0.238125 0.05292,0.428625 0.161396,0.568854 0.111125,0.140229 0.256646,0.209021 0.436563,0.209021 0.179916,0 0.328083,-0.06615 0.447145,-0.201084 0.119063,-0.134937 0.179917,-0.306916 0.179917,-0.515937 0,-0.230188 -0.08996,-0.433917 -0.267229,-0.619125 C 36.565416,10.117667 36.208229,9.8319165 35.671125,9.4429791 35.173708,9.0857916 34.763604,8.7656457 34.446104,8.4825416 34.128604,8.1967916 33.856083,7.8448957 33.625895,7.4215624 33.395708,6.9982291 33.281937,6.5087499 33.281937,5.9531249 c 0,-0.555625 0.127,-1.0689166 0.381,-1.5054791 0.254,-0.4392083 0.608542,-0.777875 1.066271,-1.016 0.457729,-0.2407708 0.986896,-0.3598333 1.584854,-0.3598333 0.597958,0 1.143,0.1217083 1.611313,0.3677708 0.468312,0.2434167 0.828145,0.5847292 1.082145,1.0292291 0.254,0.4445 0.381,0.9525 0.381,1.5292917 v 0.3598333 c 0,0.047625 -0.01852,0.089958 -0.05292,0.127 -0.0344,0.034396 -0.07408,0.052917 -0.127,0.052917 h -2.087563 c -0.05027,0 -0.09525,-0.018521 -0.129646,-0.052917 -0.03439,-0.034396 -0.05292,-0.076729 -0.05292,-0.127 V 5.9372499 c 0,-0.2196041 -0.05821,-0.396875 -0.171979,-0.5371041 -0.113771,-0.1402292 -0.264584,-0.2090209 -0.452438,-0.2090209 -0.169333,0 -0.312208,0.068792 -0.425979,0.2090209 -0.113771,0.1402291 -0.169333,0.3227916 -0.169333,0.5529791 0,0.2487084 0.08731,0.4736042 0.259291,0.6720417 0.174625,0.1984375 0.521229,0.4868333 1.039813,0.8625416 0.627062,0.4683125 1.098021,0.8466667 1.415521,1.1350625 0.320145,0.2883959 0.568854,0.6111875 0.74877,0.9630833 0.179917,0.3518959 0.26723,0.769938 0.26723,1.246188 0,0.894291 -0.280459,1.60602 -0.844021,2.132541 -0.560917,0.526521 -1.299104,0.791104 -2.211917,0.791104 z"
       id="path6"
       style="fill:#045638;stroke-width:0.264583" />
    <path
       class="st1"
       d="m 46.233291,13.755687 c -0.947208,0 -1.701271,-0.264583 -2.270125,-0.796395 -0.566208,-0.534459 -0.849312,-1.248834 -0.849312,-2.143125 V 5.9981041 c 0,-0.8942917 0.283104,-1.6060208 0.849312,-2.1325416 0.566208,-0.5265209 1.322917,-0.7911042 2.270125,-0.7911042 0.947208,0 1.701271,0.269875 2.272771,0.8069792 0.574146,0.5371041 0.859896,1.2514791 0.859896,2.1457708 v 0.5529791 c 0,0.050271 -0.01852,0.09525 -0.05292,0.1296459 -0.0344,0.034396 -0.07673,0.050271 -0.127,0.050271 h -2.119312 c -0.04763,0 -0.08996,-0.015875 -0.127,-0.050271 -0.0344,-0.034396 -0.05292,-0.076729 -0.05292,-0.1296459 V 5.9981041 c 0,-0.238125 -0.06085,-0.4312708 -0.179917,-0.5794375 -0.119062,-0.1508125 -0.277812,-0.2248958 -0.47625,-0.2248958 -0.198437,0 -0.343958,0.074083 -0.463021,0.2248958 -0.119062,0.1481667 -0.179916,0.3413125 -0.179916,0.5794375 v 4.8365829 c 0,0.238125 0.06085,0.431271 0.179916,0.582084 0.119063,0.150812 0.272521,0.224896 0.463021,0.224896 0.1905,0 0.357188,-0.07408 0.47625,-0.224896 0.119063,-0.150813 0.179917,-0.343959 0.179917,-0.582084 V 9.8795415 c 0,-0.047625 -0.02381,-0.074083 -0.07408,-0.074083 h -0.391584 c -0.04763,0 -0.08996,-0.018521 -0.127,-0.052917 -0.0344,-0.034396 -0.05292,-0.076729 -0.05292,-0.127 V 8.0406874 c 0,-0.047625 0.01852,-0.089958 0.05292,-0.127 0.0344,-0.037042 0.07673,-0.052917 0.127,-0.052917 h 2.76225 c 0.04763,0 0.08996,0.018521 0.127,0.052917 0.0344,0.034396 0.05292,0.076729 0.05292,0.127 v 2.7754796 c 0,0.894291 -0.28575,1.608666 -0.859896,2.143125 -0.5715,0.531812 -1.328208,0.796395 -2.272771,0.796395 z"
       id="path7"
       style="fill:#045638;stroke-width:0.264583" />
    <path
       class="st1"
       d="m 54.316312,13.636625 c -0.108479,0 -0.177271,-0.05027 -0.209021,-0.148167 l -1.016,-3.9555206 c -0.0079,-0.039687 -0.0344,-0.060854 -0.07408,-0.060854 h -0.224896 c -0.04763,0 -0.07408,0.026458 -0.07408,0.076729 v 3.9105416 c 0,0.04763 -0.01852,0.08996 -0.05292,0.127 -0.0344,0.0344 -0.07673,0.05292 -0.127,0.05292 h -2.119313 c -0.05027,0 -0.09525,-0.01852 -0.129645,-0.05292 -0.0344,-0.0344 -0.05027,-0.07673 -0.05027,-0.127 V 3.3707916 c 0,-0.047625 0.01588,-0.089958 0.05027,-0.127 0.03439,-0.034396 0.07673,-0.052917 0.129645,-0.052917 h 3.209396 c 0.576792,0 1.090083,0.1375833 1.537229,0.4101041 0.447146,0.2725209 0.791104,0.6561667 1.034521,1.1509375 0.246063,0.492125 0.367771,1.0503958 0.367771,1.6774583 0,0.5582708 -0.103188,1.0583333 -0.306917,1.5028333 -0.203729,0.4418542 -0.489479,0.7963959 -0.85725,1.0662709 -0.02117,0.010583 -0.0344,0.023813 -0.04762,0.039687 -0.0079,0.013229 -0.0079,0.029104 0,0.050271 l 1.283229,4.3418123 0.01588,0.06085 c 0,0.100542 -0.05556,0.148167 -0.166687,0.148167 h -2.18018 z M 52.794958,5.3128333 c -0.04763,0 -0.07408,0.023813 -0.07408,0.074083 v 2.1193125 c 0,0.050271 0.02381,0.076729 0.07408,0.076729 h 0.420687 c 0.267229,0 0.478896,-0.1005416 0.637646,-0.2989791 0.161396,-0.2010834 0.240771,-0.4736042 0.240771,-0.8228542 0,-0.3677708 -0.08202,-0.650875 -0.240771,-0.8493125 -0.15875,-0.1984375 -0.373062,-0.2989791 -0.637646,-0.2989791 z"
       id="path8"
       style="fill:#045638;stroke-width:0.264583" />
    <path
       class="st1"
       d="m 60.478458,13.755687 c -0.61648,0 -1.158875,-0.129646 -1.627188,-0.394229 -0.468312,-0.264583 -0.830792,-0.635 -1.092729,-1.11125 -0.259292,-0.478896 -0.386292,-1.029229 -0.386292,-1.656291 V 3.3707916 c 0,-0.047625 0.01852,-0.089958 0.05292,-0.127 0.0344,-0.034396 0.07673,-0.052917 0.127,-0.052917 h 2.119312 c 0.05027,0 0.0926,0.018521 0.127,0.052917 0.0344,0.034396 0.05292,0.076729 0.05292,0.127 v 7.4612504 c 0,0.238125 0.05821,0.43127 0.171979,0.582083 0.113771,0.150812 0.267229,0.224896 0.457729,0.224896 0.1905,0 0.338667,-0.07408 0.452438,-0.224896 0.113771,-0.150813 0.171979,-0.343958 0.171979,-0.582083 V 3.3707916 c 0,-0.047625 0.01852,-0.089958 0.05292,-0.127 0.0344,-0.037042 0.07673,-0.052917 0.127,-0.052917 h 2.119312 c 0.04762,0 0.08996,0.018521 0.127,0.052917 0.0344,0.034396 0.05292,0.076729 0.05292,0.127 v 7.2231254 c 0,0.627062 -0.129646,1.180041 -0.391583,1.656291 -0.259292,0.47625 -0.621771,0.846667 -1.087438,1.11125 -0.468312,0.261938 -1.008062,0.394229 -1.624542,0.394229 z M 59.166124,2.3733125 c -0.34925,0 -0.632354,-0.1084792 -0.854604,-0.3280834 -0.219604,-0.2196041 -0.328083,-0.5079999 -0.328083,-0.8678333 0,-0.35983331 0.108479,-0.6297083 0.328083,-0.84666663 C 58.531124,0.111125 58.816874,0 59.166124,0 c 0.34925,0 0.613834,0.111125 0.828146,0.33072917 0.214313,0.21960416 0.320146,0.50006249 0.320146,0.84666663 0,0.3466042 -0.105833,0.6482292 -0.314854,0.8678333 -0.206375,0.2196042 -0.484188,0.3280834 -0.833438,0.3280834 z m 2.69875,0 c -0.34925,0 -0.629708,-0.1084792 -0.844021,-0.3280834 -0.214312,-0.2196041 -0.320145,-0.5079999 -0.320145,-0.8678333 0,-0.35983331 0.105833,-0.6297083 0.320145,-0.84666663 C 61.235166,0.111125 61.515624,0 61.864874,0 c 0.34925,0 0.629709,0.111125 0.844021,0.33072917 0.214313,0.21960416 0.320146,0.50006249 0.320146,0.84666663 0,0.3466042 -0.108479,0.6482292 -0.320146,0.8678333 -0.214312,0.2196042 -0.494771,0.3280834 -0.844021,0.3280834 z"
       id="path9"
       style="fill:#045638;stroke-width:0.264583" />
    <path
       class="st1"
       d="m 64.759416,13.636625 c -0.05027,0 -0.09525,-0.01852 -0.129646,-0.05292 -0.0344,-0.0344 -0.05027,-0.07673 -0.05027,-0.127 V 3.3707916 c 0,-0.047625 0.01588,-0.089958 0.05027,-0.127 0.0344,-0.034396 0.07673,-0.052917 0.129646,-0.052917 h 2.328333 c 0.100542,0 0.164042,0.050271 0.193146,0.1481666 l 1.521354,5.0905833 c 0.01058,0.039687 0.0291,0.060854 0.05292,0.060854 0.02646,0 0.03969,-0.021167 0.03969,-0.060854 l -0.01587,-5.0614791 c 0,-0.047625 0.01852,-0.089958 0.05292,-0.127 0.0344,-0.037042 0.07673,-0.052917 0.127,-0.052917 h 2.090208 c 0.04762,0 0.08996,0.018521 0.127,0.052917 0.0344,0.034396 0.05292,0.076729 0.05292,0.127 V 13.456708 c 0,0.04763 -0.01852,0.08996 -0.05292,0.127 -0.0344,0.0344 -0.07673,0.05292 -0.127,0.05292 h -2.344208 c -0.100542,0 -0.164042,-0.05027 -0.193146,-0.148167 L 67.090395,8.3714166 c -0.01058,-0.03175 -0.0291,-0.047625 -0.05292,-0.047625 -0.02381,0 -0.03704,0.021167 -0.03704,0.060854 l 0.0291,5.0747084 c 0,0.04763 -0.01852,0.08996 -0.05292,0.127 -0.0344,0.0344 -0.07673,0.05292 -0.127,0.05292 h -2.090208 z"
       id="path10"
       style="fill:#045638;stroke-width:0.264583" />
  </g>
</svg>
