<?xml version="1.0" encoding="UTF-8" standalone="no"?>
<svg
   height="100%"
   style="fill-rule:evenodd;clip-rule:evenodd;stroke-linejoin:round;stroke-miterlimit:2;"
   version="1.1"
   viewBox="0 0 512 512"
   width="100%"
   xml:space="preserve"
   id="svg1"
   xmlns="http://www.w3.org/2000/svg"
   xmlns:svg="http://www.w3.org/2000/svg"><defs
     id="defs1" /><path
     id="path1"
     style="fill:#ffffff"
     d="M 62.554688 0 C 28.029722 0 0 28.030722 0 62.554688 L 0 449.44531 C 0 483.96928 28.030722 512 62.554688 512 L 449.44531 512 C 483.96928 512 512 483.96928 512 449.44531 L 512 62.554688 C 512 28.030722 483.97028 0 449.44531 0 L 62.554688 0 z M 83.849609 139.91992 L 83.849609 369.79102 L 59.427734 369.79102 L 59.427734 181.58984 L 38.822266 193.49414 L 26.458984 173.19336 L 83.849609 139.91992 z M 404.94922 140.22461 C 416.14264 140.22461 426.72495 142.46209 436.69727 146.93945 C 446.66958 151.41682 455.21676 157.47164 462.33984 165.10352 C 469.46293 172.63363 475.11111 181.5894 479.2832 191.96875 C 483.4553 202.24634 485.54102 213.03295 485.54102 224.32812 C 485.54102 231.55297 484.67716 238.57477 482.94727 245.39258 C 481.31913 252.21039 479.18087 258.46755 476.53516 264.16602 C 473.88944 269.76273 469.92229 276.58023 464.63086 284.61914 C 459.33942 292.65805 454.19905 300.08649 449.21289 306.9043 C 444.22673 313.62035 437.30806 323.08392 428.45508 335.29492 C 419.6021 347.40417 411.46156 358.90287 404.0332 369.79102 L 374.87891 369.79102 L 418.38086 306.9043 C 414.31053 307.51485 409.83362 307.82031 404.94922 307.82031 C 390.19426 307.82031 376.60983 304.05551 364.19531 296.52539 C 351.88255 288.89351 342.21469 278.71784 335.19336 265.99805 C 328.17203 253.17649 324.66211 239.2866 324.66211 224.32812 C 324.66211 209.16613 328.17203 195.17312 335.19336 182.35156 C 342.21469 169.42825 351.88255 159.20199 364.19531 151.67188 C 376.60983 144.04 390.19426 140.22461 404.94922 140.22461 z M 192.8418 141.59766 L 221.84375 141.59766 L 178.18945 204.48438 C 182.15803 203.77207 186.58435 203.41602 191.46875 203.41602 C 202.56041 203.41602 213.09213 205.65544 223.06445 210.13281 C 233.13853 214.61018 241.73824 220.61441 248.86133 228.14453 C 255.98441 235.67465 261.63064 244.57787 265.80273 254.85547 C 269.97483 265.13306 272.06055 275.86908 272.06055 287.0625 C 272.06055 302.12274 268.55062 316.16438 261.5293 329.18945 C 254.50797 342.21452 244.78952 352.64508 232.375 360.48047 C 219.96048 368.2141 206.32547 372.08008 191.46875 372.08008 C 176.71379 372.08008 163.12936 368.2141 150.71484 360.48047 C 138.40208 352.64508 128.73422 342.21452 121.71289 329.18945 C 114.69156 316.16438 111.18164 302.12274 111.18164 287.0625 C 111.18164 279.7359 111.99491 272.7141 113.62305 265.99805 C 115.35294 259.18024 117.4912 252.97171 120.03516 247.375 C 122.68087 241.67653 126.64802 234.80844 131.93945 226.76953 C 137.33265 218.62886 142.47107 211.20043 147.35547 204.48438 C 152.34163 197.76832 159.31284 188.30475 168.26758 176.09375 C 177.22231 163.88275 185.41344 152.38404 192.8418 141.59766 z M 404.94922 163.11914 C 389.78722 163.11914 376.66002 169.07279 365.56836 180.97852 C 354.4767 192.78249 348.93164 207.23272 348.93164 224.32812 C 348.93164 241.22001 354.4767 255.56712 365.56836 267.37109 C 376.66002 279.17506 389.78722 285.07812 404.94922 285.07812 C 420.31473 285.07812 433.5431 279.17506 444.63477 267.37109 C 455.82819 255.56712 461.42578 241.22001 461.42578 224.32812 C 461.42578 207.23272 455.82819 192.78249 444.63477 180.97852 C 433.5431 169.07279 420.31473 163.11914 404.94922 163.11914 z M 291.02734 212.57422 C 296.0135 212.57422 300.28807 214.35447 303.84961 217.91602 C 307.51291 221.47756 309.34375 225.70154 309.34375 230.58594 C 309.34375 235.77561 307.5635 240.20193 304.00195 243.86523 C 300.44041 247.42678 296.11526 249.20703 291.02734 249.20703 C 286.14294 249.20703 281.92092 247.42678 278.35938 243.86523 C 274.79783 240.20193 273.01562 235.77561 273.01562 230.58594 C 273.01562 225.70154 274.79783 221.47756 278.35938 217.91602 C 281.92092 214.35447 286.14294 212.57422 291.02734 212.57422 z M 191.46875 226.3125 C 176.30675 226.3125 163.17955 232.21361 152.08789 244.01758 C 140.99623 255.82155 135.45117 270.17061 135.45117 287.0625 C 135.45117 304.1579 140.99623 318.7599 152.08789 330.86914 C 163.17955 342.87663 176.30675 348.88086 191.46875 348.88086 C 206.83426 348.88086 220.06264 342.87663 231.1543 330.86914 C 242.34772 318.7599 247.94531 304.1579 247.94531 287.0625 C 247.94531 270.17061 242.34772 255.82155 231.1543 244.01758 C 220.06264 232.21361 206.83426 226.3125 191.46875 226.3125 z M 291.02734 335.29492 C 296.11526 335.29492 300.44041 337.07518 304.00195 340.63672 C 307.5635 344.19826 309.34375 348.47282 309.34375 353.45898 C 309.34375 358.34339 307.51291 362.56736 303.84961 366.12891 C 300.28807 369.69045 296.0135 371.4707 291.02734 371.4707 C 286.14294 371.4707 281.92092 369.69045 278.35938 366.12891 C 274.79783 362.56736 273.01562 358.34339 273.01562 353.45898 C 273.01562 348.47282 274.79783 344.19826 278.35938 340.63672 C 281.92092 337.07518 286.14294 335.29492 291.02734 335.29492 z " /></svg>
