<svg width="58" height="37" viewBox="0 0 58 37" fill="none" xmlns="http://www.w3.org/2000/svg">
<path fill-rule="evenodd" clip-rule="evenodd" d="M2.2061e-07 18.5C2.34148e-07 19.6353 0.918679 20.5556 2.05193 20.5556L50.9943 20.5556L38.0817 33.4909C37.2804 34.2937 37.2804 35.5952 38.0817 36.3979C38.8831 37.2007 40.1823 37.2007 40.9836 36.3979L57.399 19.9535C58.2003 19.1508 58.2003 17.8492 57.399 17.0465L40.9836 0.602058C40.1823 -0.200687 38.8831 -0.200687 38.0817 0.602058C37.2804 1.4048 37.2804 2.70631 38.0817 3.50906L50.9943 16.4444L2.05193 16.4444C0.918679 16.4444 2.07073e-07 17.3647 2.2061e-07 18.5Z" fill="#D9D9D9"/>
</svg>
