<?xml version="1.0" encoding="UTF-8"?>
<svg id="Ebene_1" xmlns="http://www.w3.org/2000/svg" xmlns:xlink="http://www.w3.org/1999/xlink" version="1.1" viewBox="0 0 186.17 503.09">
  <!-- Generator: Adobe Illustrator 30.5.0, SVG Export Plug-In . SVG Version: 2.1.4 Build 64)  -->
  <defs>
    <style>
      .st0, .st1, .st2 {
        fill: none;
      }

      .st1 {
        stroke: #008939;
        stroke-width: .43px;
      }

      .st1, .st2 {
        stroke-miterlimit: 10;
      }

      .st3 {
        fill: #008939;
      }

      .st4 {
        fill: #8abd24;
      }

      .st5 {
        clip-path: url(#clippath-1);
      }

      .st6 {
        clip-path: url(#clippath-3);
      }

      .st7 {
        clip-path: url(#clippath-2);
      }

      .st8 {
        fill: #1d1d1c;
      }

      .st9 {
        opacity: .8;
      }

      .st2 {
        stroke: #005538;
        stroke-width: 3.59px;
      }

      .st10 {
        fill: #005538;
      }

      .st11 {
        clip-path: url(#clippath);
      }

      .st12 {
        fill: #f5f1e8;
      }
    </style>
    <clipPath id="clippath">
      <rect class="st0" x="40.26" y="45.08" width="105.32" height="99.43"/>
    </clipPath>
    <clipPath id="clippath-1">
      <rect class="st0" x="40.26" y="45.08" width="105.32" height="99.43"/>
    </clipPath>
    <clipPath id="clippath-2">
      <rect class="st0" x="34.25" y="41.46" width="112.98" height="106.66"/>
    </clipPath>
    <clipPath id="clippath-3">
      <rect class="st0" x="34.25" y="41.46" width="112.98" height="106.66"/>
    </clipPath>
  </defs>
  <path class="st8" d="M76.91,221.47c.1,15.18.21,30.83.32,46.54.23,26.38.31,183.96.36,235.08h8.41c.06-5.51.14-14.01.23-22.22.2-20.43.47-48.26.77-78.72.26-30.46.54-111.76.8-142.71.18-28.79.35-55.6.47-75.98,0,0,.01,0,.02,0,2.49,0,5.14,0,10.1.01.04,9.65.08,20.56.12,32.26.09,13.78.19,28.49.29,43.58.28,30.18.58,110.1.85,138.98.62,53.28,1.13,98.37,1.2,104.8h8.43c-.34-7.81-1.89-48.84-1.17-97.14.32-27,.69-105.79,1.06-136.85.14-15.53.27-31.17.41-46.53.05-7.68.1-15.29.15-22.78.04-9.42.07-18.7.1-27.76-7.25-.01-13.41-.03-19.47-.04-4.1,0-8.25,0-13.53-.01,0,8.78.01,17.83.02,27.1.03,7.31.05,14.78.08,22.37Z"/>
  <rect class="st3" x="82.55" y="177.73" width="21.57" height="325.27"/>
  <g>
    <rect class="st10" x="80.8" y="151.84" width="25.07" height="351.08"/>
    <rect class="st3" x="84.58" y="151.84" width="17.52" height="351.08"/>
    <path class="st3" d="M169.62,10.68H17.1c-2.76,0-4.53.95-5.55,3-.84,1.68-.87,3.44-.88,3.46v152.44s.04,1.76.88,3.43c1.02,2.05,2.78,3,5.55,3h152.49c2.79,0,4.56-.95,5.57-2.99.83-1.67.85-3.43.85-3.44V17.11s-.03-1.78-.86-3.45c-1.01-2.04-2.76-2.98-5.53-2.98"/>
    <path class="st2" d="M169.62,10.68H17.1c-2.76,0-4.53.95-5.55,3-.84,1.68-.87,3.44-.88,3.46v152.44s.04,1.76.88,3.43c1.02,2.05,2.78,3,5.55,3h152.49c2.79,0,4.56-.95,5.57-2.99.83-1.67.85-3.43.85-3.44V17.11s-.03-1.78-.86-3.45c-1.01-2.04-2.76-2.98-5.53-2.98Z"/>
    <path class="st4" d="M97.65,69.88l-1.7-44.32h7.82l15.35,44.32h-21.47ZM67.57,69.88l15.34-44.32h7.82l-1.7,44.32h-21.46ZM39.89,88.14v-7.83h-14.34v-5.22h135.57v5.22h-14.34v7.83h-13.04v-7.83H52.93v7.83h-13.04ZM101.16,161.14l-2.8-73h27.07l25.27,73h-49.54ZM35.98,161.14l25.27-73h27.08l-2.81,73"/>
    <path class="st1" d="M17.11,6.57c-5.26,0-7.92,2.64-9.23,5.28-1.31,2.64-1.31,5.27-1.31,5.27v152.46s0,2.63,1.31,5.27c1.31,2.63,3.98,5.28,9.23,5.27h152.46c5.29,0,7.95-2.64,9.26-5.27,1.3-2.63,1.28-5.26,1.28-5.27V17.11s.02-2.64-1.28-5.28c-1.31-2.64-3.97-5.28-9.26-5.27H17.11Z"/>
    <path class="st10" d="M35.15,40.89l-.41-1.48c-.03-.1-.09-.14-.19-.14h-4.28c-.1,0-.16.05-.19.14l-.41,1.48c-.06.22-.2.33-.43.33h-3.34c-.14,0-.24-.04-.3-.12-.06-.08-.07-.19-.03-.33l4.29-13.63c.07-.22.21-.33.43-.33h4.24c.22,0,.36.11.43.33l4.28,13.63s.02.09.02.14c0,.21-.12.31-.35.31h-3.34c-.23,0-.38-.11-.43-.33M30.99,36.15c0,.1.05.14.14.14h2.55c.06,0,.1-.02.12-.05.03-.03.03-.08.02-.13l-1.32-4.76c-.01-.07-.05-.1-.09-.1s-.09.04-.11.1l-1.32,4.76v.04Z"/>
    <path class="st10" d="M40.51,40.82v-2.39c0-.21.07-.36.23-.47.73-.66,1.7-1.61,2.93-2.86l1.44-1.42c1.24-1.21,1.86-2.07,1.86-2.6,0-.33-.12-.6-.37-.81-.25-.21-.56-.32-.95-.32s-.72.11-.97.32c-.25.21-.37.5-.37.86v.33c0,.26-.13.39-.39.39h-3.13c-.26,0-.39-.13-.39-.39v-.95c.05-.78.32-1.46.79-2.05.47-.58,1.1-1.03,1.87-1.35.78-.32,1.64-.47,2.59-.47,1.06,0,1.99.2,2.78.59.8.39,1.4.92,1.82,1.59.42.67.63,1.4.63,2.19,0,.56-.13,1.12-.4,1.67-.27.55-.66,1.13-1.18,1.73-.54.6-1.51,1.55-2.93,2.84-.33.29-.5.44-.51.45-.04.04-.06.08-.06.1,0,.07.05.1.14.1h4.7c.26,0,.39.13.39.39v2.53c0,.26-.13.39-.39.39h-9.72c-.26,0-.39-.13-.39-.39"/>
    <path class="st10" d="M53.66,40.1c-.94-.91-1.41-2.16-1.41-3.75v-4.7c0-1.55.47-2.78,1.41-3.68.94-.9,2.23-1.35,3.86-1.35s2.92.45,3.87,1.35c.95.9,1.42,2.12,1.42,3.68v4.7c0,1.58-.47,2.82-1.42,3.74-.95.91-2.24,1.37-3.87,1.37s-2.92-.45-3.86-1.36M58.56,37.72c.25-.28.38-.67.38-1.16v-5.03c0-.49-.13-.88-.38-1.16-.25-.28-.6-.42-1.04-.42s-.78.14-1.03.42c-.25.28-.37.67-.37,1.16v5.03c0,.49.12.88.37,1.16.25.28.59.42,1.03.42s.79-.14,1.04-.42"/>
    <path class="st10" d="M169.59,184.22H17.09c-5.89,0-10.47-2.68-12.89-7.55-1.7-3.41-1.74-6.74-1.74-7.11V17.12c0-.36.04-3.69,1.74-7.1,2.43-4.87,7.01-7.55,12.9-7.55h152.54c5.89,0,10.46,2.68,12.87,7.55,1.69,3.41,1.71,6.75,1.71,7.12v152.43c0,.34-.02,3.68-1.71,7.09-2.41,4.88-7,7.56-12.92,7.56M17.1,176.01h152.48c2.79,0,4.56-.95,5.57-2.99.83-1.67.85-3.42.85-3.44V17.11s-.03-1.78-.86-3.45c-1.01-2.04-2.76-2.98-5.52-2.98H17.1c-2.77,0-4.53.95-5.55,3-.84,1.68-.87,3.44-.87,3.46v152.44s.04,1.76.87,3.43c1.02,2.05,2.79,3,5.55,3h0Z"/>
    <path class="st8" d="M182.51,178.78h.01c.45-.67.85-1.37,1.19-2.11.16-.33.28-.62.42-.97.05-.14.09-.25.14-.39,0,0,.07-.19.19-.56.12-.37.29-.93.46-1.68.16-.75.33-1.68.41-2.82.02-.27.02-.63.02-.89,0-.29,0-.58,0-.89,0-.61,0-1.26.01-1.96.03-5.53.08-13.58.14-23.65.11-20.14.27-48.38.44-80.73.04-8.09.08-16.43.12-24.97.02-4.27.04-8.59.06-12.95,0-2.18.02-4.37.03-6.57.04-2.46-.42-4.89-1.32-7.22-.92-2.31-2.35-4.52-4.33-6.21-1.96-1.7-4.39-2.85-6.87-3.36-1.24-.26-2.5-.42-3.75-.42-1.13,0-2.27-.01-3.41-.02-2.26,0-4.52-.02-6.79-.03-9.08-.03-18.22-.07-27.38-.1C95.68.17,58.89.08,25.92,0c-2.06,0-4.14,0-6.24,0h-1.58c-.53,0-1.03,0-1.66.02-1.2.03-2.41.17-3.62.44-2.42.52-4.81,1.63-6.8,3.29-2.01,1.65-3.5,3.85-4.5,6.18-.49,1.17-.86,2.38-1.12,3.61C.16,14.77,0,16.02,0,17.35c0,2.23,0,4.46,0,6.72,0,4.5.01,9.06.02,13.65.05,18.38.09,37.42.14,56.56.07,19.14.14,38.38.22,57.15.02,4.69.04,9.36.06,13.99,0,1.16.01,2.31.02,3.46,0,.53,0,1.27.07,1.9.06.64.15,1.27.27,1.9.48,2.49,1.45,4.92,2.95,7.04,1.49,2.13,3.6,3.83,5.94,4.89,2.34,1.08,4.87,1.49,7.3,1.5,4.44-.02,8.83-.04,13.15-.06,69.11-.41,121.74-.72,121.74-.72.14,0,.25,0,.38,0,.35,0,.64-.01.99-.01h2.27s0-.03,0-.03c7.95-.11,14.06-.6,14.06-1.21s-6.3-1.11-14.43-1.22v-.04s-60.04-.22-132.65-.49c-1.13,0-2.27,0-3.41-.01h-1.71c-.3,0-.54-.02-.8-.02-.26,0-.51-.01-.77-.04-2.04-.15-3.99-.74-5.67-1.77-3.38-2.02-5.35-6.06-5.66-10.2-.02-.25-.03-.51-.03-.72v-.88s0-1.76,0-1.76c0-1.17,0-2.35.01-3.53,0-2.35.01-4.71.02-7.08.02-4.73.03-9.47.05-14.22.06-18.98.12-38.01.17-56.33.05-18.33.09-35.96.13-52.15,0-4.05.02-8.01.03-11.86,0-.96,0-1.92,0-2.87,0-.48,0-.95,0-1.42v-.34s0-.26,0-.26c0-.19.02-.39.04-.58.15-1.6.56-3.19,1.18-4.59,1.23-2.84,3.42-4.88,6.03-5.88,1.31-.49,2.71-.78,4.12-.84.37,0,.67-.03,1.1-.02.4,0,.81,0,1.21,0,.8,0,1.6,0,2.38,0,25.14-.03,58.52-.08,94.45-.12,17.93-.05,36.5-.1,55-.14,2.03.1,4.01.56,5.69,1.51,1.69.94,3.08,2.32,4.08,4.02,1,1.69,1.61,3.68,1.85,5.69.03.25.05.5.07.74l.02.36v.38s0,1.72,0,1.72c0,1.15,0,2.29.01,3.43.03,9.14.07,18.17.1,27.01.15,35.34.29,67.54.39,90.91.05,11.68.1,21.16.13,27.71,0,.41,0,.81,0,1.19,0,.18,0,.35,0,.52,0,.17-.02.33-.02.49-.05.66-.13,1.28-.24,1.85-.22,1.14-.51,2.08-.8,2.81-.28.74-.57,1.26-.76,1.61-.09.18-.17.31-.22.39-.05.08-.08.13-.08.13l.03.03c-.94,1.58-2.15,2.84-3.43,3.75-1.28.92-2.59,1.51-3.75,1.9-2.32.77-3.9.92-3.9,1.26,0,.27,1.54.7,4.16.31,1.3-.2,2.86-.64,4.43-1.56,1.58-.89,3.13-2.27,4.33-4.05"/>
    <g class="st9">
      <g class="st11">
        <g class="st5">
          <path class="st12" d="M40.47,49.69c.32-1.34.86-2.9,2.01-3.76.85-.63,2.22-1.25,3.24-.56,7.37,4.96,14.69,9.98,21.91,15.15,6.96,4.99,13.83,10.11,20.54,15.43,6.69,5.3,13.22,10.8,19.52,16.56,6.3,5.75,12.37,11.76,18.12,18.06,5.97,6.54,11.62,13.4,16.83,20.57.62.85,1.23,1.7,1.83,2.56.85,1.2,1.15,3.11,1.11,4.53-.04,1.43-.44,3.3-1.33,4.47-.7.92-1.73,1.91-3,1.79-1.3-.12-2.17-.89-2.91-1.94-2.58-3.65-5.27-7.21-8.07-10.7-4.5-5.54-9.25-10.86-14.21-15.99-5.07-5.24-10.36-10.26-15.8-15.11-5.49-4.89-11.14-9.6-16.9-14.16-5.76-4.56-11.62-8.97-17.57-13.27-5.97-4.32-12.01-8.54-18.1-12.69-.57-.39-1.15-.78-1.72-1.17-.92-.62-1.85-1.25-2.77-1.87-.59-.26-1.05-.65-1.39-1.17-.48-.52-.83-1.12-1.03-1.81-.53-1.45-.66-3.41-.3-4.91"/>
        </g>
      </g>
    </g>
    <g class="st9">
      <g class="st7">
        <g class="st6">
          <path class="st12" d="M147,46.42c-.35-1.44-.92-3.11-2.16-4.03-.91-.67-2.38-1.34-3.47-.6-7.9,5.32-15.76,10.71-23.5,16.26-7.47,5.35-14.83,10.85-22.03,16.55-7.17,5.69-14.18,11.59-20.94,17.76-6.76,6.17-13.27,12.61-19.44,19.37-6.41,7.02-12.46,14.38-18.05,22.06-.66.91-1.32,1.83-1.96,2.74-.91,1.29-1.23,3.34-1.19,4.86.04,1.53.47,3.54,1.43,4.79.75.98,1.85,2.05,3.22,1.92,1.4-.13,2.33-.96,3.12-2.08,2.76-3.92,5.65-7.74,8.65-11.48,4.83-5.94,9.92-11.65,15.25-17.15,5.44-5.62,11.11-11.01,16.95-16.21,5.89-5.25,11.95-10.3,18.14-15.19,6.17-4.89,12.47-9.62,18.85-14.24,6.4-4.64,12.89-9.16,19.42-13.61.61-.42,1.23-.84,1.84-1.25.99-.67,1.98-1.34,2.97-2.01.63-.28,1.13-.7,1.49-1.26.52-.55.89-1.2,1.11-1.94.57-1.56.71-3.65.32-5.27"/>
        </g>
      </g>
    </g>
  </g>
</svg>