<?xml version="1.0" encoding="UTF-8"?>
<svg id="Ebene_1" xmlns="http://www.w3.org/2000/svg" xmlns:xlink="http://www.w3.org/1999/xlink" version="1.1" viewBox="0 0 186.2 503.1">
  <!-- Generator: Adobe Illustrator 30.1.0, SVG Export Plug-In . SVG Version: 2.1.1 Build 136)  -->
  <defs>
    <style>
      .st0 {
        stroke: #008939;
        stroke-width: .4px;
      }

      .st0, .st1, .st2 {
        fill: none;
      }

      .st0, .st2 {
        stroke-miterlimit: 10;
      }

      .st3 {
        fill: #008939;
      }

      .st4 {
        fill: #8abd24;
      }

      .st5 {
        clip-path: url(#clippath-1);
      }

      .st6 {
        clip-path: url(#clippath-3);
      }

      .st7 {
        clip-path: url(#clippath-2);
      }

      .st8 {
        fill: #1d1d1c;
      }

      .st9 {
        fill: #005537;
      }

      .st10 {
        opacity: .8;
      }

      .st2 {
        stroke: #005538;
        stroke-width: 3.6px;
      }

      .st11 {
        fill: #005538;
      }

      .st12 {
        clip-path: url(#clippath);
      }

      .st13 {
        fill: #f5f1e8;
      }
    </style>
    <clipPath id="clippath">
      <rect class="st1" x="40.3" y="45.1" width="105.3" height="99.4"/>
    </clipPath>
    <clipPath id="clippath-1">
      <rect class="st1" x="40.3" y="45.1" width="105.3" height="99.4"/>
    </clipPath>
    <clipPath id="clippath-2">
      <rect class="st1" x="34.2" y="41.5" width="113" height="106.7"/>
    </clipPath>
    <clipPath id="clippath-3">
      <rect class="st1" x="34.2" y="41.5" width="113" height="106.7"/>
    </clipPath>
  </defs>
  <path class="st8" d="M76.9,221.5c0,15.2.2,30.8.3,46.5.2,26.4.3,184,.4,235.1h8.4c0-5.5.1-14,.2-22.2.2-20.4.5-48.3.8-78.7.3-30.5.5-111.8.8-142.7.2-28.8.3-55.6.5-76h0c2.5,0,5.1,0,10.1,0,0,9.6,0,20.6.1,32.3,0,13.8.2,28.5.3,43.6.3,30.2.6,110.1.8,139,.6,53.3,1.1,98.4,1.2,104.8h8.4c-.3-7.8-1.9-48.8-1.2-97.1.3-27,.7-105.8,1.1-136.9.1-15.5.3-31.2.4-46.5,0-7.7,0-15.3.2-22.8,0-9.4,0-18.7,0-27.8-7.2,0-13.4,0-19.5,0-4.1,0-8.2,0-13.5,0,0,8.8,0,17.8,0,27.1,0,7.3,0,14.8,0,22.4h0Z"/>
  <rect class="st3" x="82.6" y="177.7" width="21.6" height="325.3"/>
  <g>
    <rect class="st11" x="80.8" y="151.8" width="25.1" height="351.1"/>
    <rect class="st3" x="84.6" y="151.8" width="17.5" height="351.1"/>
    <path class="st3" d="M169.6,10.7H17.1c-2.8,0-4.5.9-5.6,3-.8,1.7-.9,3.4-.9,3.5v152.4s0,1.8.9,3.4c1,2.1,2.8,3,5.6,3h152.5c2.8,0,4.6-.9,5.6-3,.8-1.7.9-3.4.9-3.4V17.1s0-1.8-.9-3.4c-1-2-2.8-3-5.5-3"/>
    <path class="st2" d="M169.6,10.7H17.1c-2.8,0-4.5.9-5.6,3-.8,1.7-.9,3.4-.9,3.5v152.4s0,1.8.9,3.4c1,2.1,2.8,3,5.6,3h152.5c2.8,0,4.6-.9,5.6-3,.8-1.7.9-3.4.9-3.4V17.1s0-1.8-.9-3.4c-1-2-2.8-3-5.5-3h0Z"/>
    <path class="st4" d="M97.7,69.9l-1.7-44.3h7.8l15.3,44.3h-21.5ZM67.6,69.9l15.3-44.3h7.8l-1.7,44.3h-21.5ZM39.9,88.1v-7.8h-14.3v-5.2h135.6v5.2h-14.3v7.8h-13v-7.8H52.9v7.8h-13ZM101.2,161.1l-2.8-73h27.1l25.3,73s-49.5,0-49.5,0ZM36,161.1l25.3-73h27.1l-2.8,73"/>
    <path class="st0" d="M17.1,6.6c-5.3,0-7.9,2.6-9.2,5.3-1.3,2.6-1.3,5.3-1.3,5.3v152.5s0,2.6,1.3,5.3c1.3,2.6,4,5.3,9.2,5.3h152.5c5.3,0,7.9-2.6,9.3-5.3,1.3-2.6,1.3-5.3,1.3-5.3V17.1s0-2.6-1.3-5.3c-1.3-2.6-4-5.3-9.3-5.3H17.1Z"/>
    <path class="st11" d="M169.6,184.2H17.1c-5.9,0-10.5-2.7-12.9-7.6-1.7-3.4-1.7-6.7-1.7-7.1V17.1c0-.4,0-3.7,1.7-7.1,2.4-4.9,7-7.6,12.9-7.6h152.5c5.9,0,10.5,2.7,12.9,7.6,1.7,3.4,1.7,6.8,1.7,7.1v152.4c0,.3,0,3.7-1.7,7.1-2.4,4.9-7,7.6-12.9,7.6M17.1,176h152.5c2.8,0,4.6-.9,5.6-3,.8-1.7.9-3.4.9-3.4V17.1s0-1.8-.9-3.4c-1-2-2.8-3-5.5-3H17.1c-2.8,0-4.5.9-5.6,3-.8,1.7-.9,3.4-.9,3.5v152.4s0,1.8.9,3.4c1,2.1,2.8,3,5.6,3h0Z"/>
    <path class="st8" d="M182.5,178.8h0c.4-.7.9-1.4,1.2-2.1.2-.3.3-.6.4-1,0-.1,0-.2.1-.4,0,0,0-.2.2-.6s.3-.9.5-1.7c.2-.8.3-1.7.4-2.8,0-.3,0-.6,0-.9v-.9c0-.6,0-1.3,0-2,0-5.5,0-13.6.1-23.6.1-20.1.3-48.4.4-80.7,0-8.1,0-16.4.1-25,0-4.3,0-8.6,0-13,0-2.2,0-4.4,0-6.6,0-2.5-.4-4.9-1.3-7.2-.9-2.3-2.4-4.5-4.3-6.2-2-1.7-4.4-2.8-6.9-3.4-1.2-.3-2.5-.4-3.8-.4s-2.3,0-3.4,0c-2.3,0-4.5,0-6.8,0-9.1,0-18.2,0-27.4,0C95.7.2,58.9,0,25.9,0h-7.8c-.5,0-1,0-1.7,0-1.2,0-2.4.2-3.6.4-2.4.5-4.8,1.6-6.8,3.3-2,1.7-3.5,3.8-4.5,6.2-.5,1.2-.9,2.4-1.1,3.6-.2,1.2-.4,2.5-.4,3.8v6.7c0,4.5,0,9.1,0,13.7,0,18.4,0,37.4.1,56.6,0,19.1.1,38.4.2,57.1,0,4.7,0,9.4,0,14,0,1.2,0,2.3,0,3.5,0,.5,0,1.3,0,1.9,0,.6.2,1.3.3,1.9.5,2.5,1.4,4.9,2.9,7,1.5,2.1,3.6,3.8,5.9,4.9,2.3,1.1,4.9,1.5,7.3,1.5,4.4,0,8.8,0,13.1,0,69.1-.4,121.7-.7,121.7-.7h.4c.4,0,.6,0,1,0h2.3c7.9-.1,14.1-.6,14.1-1.2s-6.3-1.1-14.4-1.2h0s-60-.3-132.6-.5c-1.1,0-2.3,0-3.4,0h-1.7c-.3,0-.5,0-.8,0s-.5,0-.8,0c-2-.1-4-.7-5.7-1.8-3.4-2-5.3-6.1-5.7-10.2,0-.2,0-.5,0-.7v-2.6c0-1.2,0-2.4,0-3.5,0-2.4,0-4.7,0-7.1,0-4.7,0-9.5,0-14.2,0-19,.1-38,.2-56.3,0-18.3,0-36,.1-52.2,0-4,0-8,0-11.9v-4.9c0-.2,0-.4,0-.6.2-1.6.6-3.2,1.2-4.6,1.2-2.8,3.4-4.9,6-5.9,1.3-.5,2.7-.8,4.1-.8.4,0,.7,0,1.1,0h3.6c25.1,0,58.5,0,94.4-.1,17.9,0,36.5,0,55-.1,2,0,4,.6,5.7,1.5,1.7.9,3.1,2.3,4.1,4,1,1.7,1.6,3.7,1.9,5.7,0,.2,0,.5,0,.7v.4s0,.4,0,.4v1.7c0,1.1,0,2.3,0,3.4,0,9.1,0,18.2.1,27,.1,35.3.3,67.5.4,90.9,0,11.7.1,21.2.1,27.7v1.7c0,.2,0,.3,0,.5,0,.7-.1,1.3-.2,1.9-.2,1.1-.5,2.1-.8,2.8-.3.7-.6,1.3-.8,1.6,0,.2-.2.3-.2.4s0,.1,0,.1h0c-.9,1.6-2.1,2.9-3.4,3.8-1.3.9-2.6,1.5-3.8,1.9-2.3.8-3.9.9-3.9,1.3s1.5.7,4.2.3c1.3-.2,2.9-.6,4.4-1.6,1.6-.9,3.1-2.3,4.3-4.1"/>
    <g class="st10">
      <g class="st12">
        <g class="st5">
          <path class="st13" d="M40.5,49.7c.3-1.3.9-2.9,2-3.8.8-.6,2.2-1.2,3.2-.6,7.4,5,14.7,10,21.9,15.1,7,5,13.8,10.1,20.5,15.4,6.7,5.3,13.2,10.8,19.5,16.6,6.3,5.8,12.4,11.8,18.1,18.1,6,6.5,11.6,13.4,16.8,20.6.6.9,1.2,1.7,1.8,2.6.9,1.2,1.1,3.1,1.1,4.5,0,1.4-.4,3.3-1.3,4.5-.7.9-1.7,1.9-3,1.8-1.3-.1-2.2-.9-2.9-1.9-2.6-3.6-5.3-7.2-8.1-10.7-4.5-5.5-9.2-10.9-14.2-16-5.1-5.2-10.4-10.3-15.8-15.1-5.5-4.9-11.1-9.6-16.9-14.2s-11.6-9-17.6-13.3c-6-4.3-12-8.5-18.1-12.7-.6-.4-1.2-.8-1.7-1.2-.9-.6-1.8-1.2-2.8-1.9-.6-.3-1-.7-1.4-1.2-.5-.5-.8-1.1-1-1.8-.5-1.5-.7-3.4-.3-4.9"/>
        </g>
      </g>
    </g>
    <g class="st10">
      <g class="st7">
        <g class="st6">
          <path class="st13" d="M147,46.4c-.4-1.4-.9-3.1-2.2-4-.9-.7-2.4-1.3-3.5-.6-7.9,5.3-15.8,10.7-23.5,16.3-7.5,5.3-14.8,10.8-22,16.6-7.2,5.7-14.2,11.6-20.9,17.8-6.8,6.2-13.3,12.6-19.4,19.4-6.4,7-12.5,14.4-18,22.1-.7.9-1.3,1.8-2,2.7-.9,1.3-1.2,3.3-1.2,4.9,0,1.5.5,3.5,1.4,4.8.8,1,1.8,2.1,3.2,1.9,1.4-.1,2.3-1,3.1-2.1,2.8-3.9,5.7-7.7,8.6-11.5,4.8-5.9,9.9-11.7,15.2-17.2,5.4-5.6,11.1-11,16.9-16.2,5.9-5.2,11.9-10.3,18.1-15.2,6.2-4.9,12.5-9.6,18.8-14.2,6.4-4.6,12.9-9.2,19.4-13.6.6-.4,1.2-.8,1.8-1.2,1-.7,2-1.3,3-2,.6-.3,1.1-.7,1.5-1.3.5-.5.9-1.2,1.1-1.9.6-1.6.7-3.7.3-5.3"/>
        </g>
      </g>
    </g>
    <g>
      <path class="st9" d="M35.2,41.3l-.5-1.7c0,0,0-.1-.2-.1h-4.7c0,0-.1,0-.2.1l-.5,1.7c0,.2-.2.3-.4.3h-2.9c-.1,0-.2,0-.3-.1,0,0,0-.2,0-.3l4.4-13.8c0-.2.2-.3.4-.3h3.7c.2,0,.4.1.4.3l4.4,13.8s0,0,0,.1c0,.2-.1.3-.3.3h-2.9c-.2,0-.4-.1-.4-.3ZM30.6,36.7c0,0,0,.1.1.1h3.1c0,0,0,0,.1,0,0,0,0,0,0-.1l-1.6-5.5c0,0,0-.1,0-.1s0,0,0,.1l-1.6,5.5h0Z"/>
      <path class="st9" d="M50.1,36.8c0,.7-.1,1.4-.4,2.1-.4.9-.9,1.6-1.8,2.1s-1.8.8-2.9.8-2-.3-2.9-.8-1.4-1.3-1.8-2.2c-.2-.5-.3-1.1-.4-1.7h0c0-.3.1-.4.4-.4h2.7c.2,0,.3.1.4.4,0,.4.1.7.2.9.2.6.7.8,1.3.8s1-.3,1.3-.8c.2-.4.3-.8.3-1.4s-.1-1-.3-1.5c-.3-.5-.7-.8-1.3-.8s-.3,0-.5.1c-.2,0-.4.2-.6.4,0,0-.2,0-.2,0s-.2,0-.3-.2l-1.3-1.9c0-.1,0-.2,0-.2,0-.1,0-.2.2-.3l3-2.3c0,0,0,0,0-.1s0,0-.1,0h-4.4c-.1,0-.2,0-.3-.1,0,0-.1-.2-.1-.3v-2.2c0-.1,0-.2.1-.3s.2-.1.3-.1h8.8c.1,0,.2,0,.3.1s.1.2.1.3v2.5c0,.2,0,.3-.2.5l-2.4,1.9s0,0,0,0,0,0,.1.1c1.1.3,1.8,1,2.3,2.1.3.6.4,1.4.4,2.1Z"/>
      <path class="st9" d="M61.2,31.8v6.2c0,.7-.2,1.4-.6,2-.4.6-1,1-1.7,1.3-.7.3-1.6.5-2.6.5s-1.8-.2-2.5-.5c-.7-.3-1.3-.8-1.7-1.3-.4-.6-.6-1.2-.6-2v-.6c0-.1,0-.2.1-.3s.2-.1.3-.1h2.7c.2,0,.4,0,.4.2v.2c0,.4.1.7.4.9.3.3.6.4,1,.4s.8-.1,1-.4c.3-.3.4-.6.4-1v-1.6c0,0,0-.1,0-.1s0,0-.1,0c-.5.4-1.2.6-2.1.6s-1.6-.2-2.3-.6c-.7-.4-1.2-1-1.6-1.8-.3-.6-.5-1.4-.5-2.2s.1-1.5.4-2.1c.4-.8.9-1.5,1.8-2,.8-.5,1.8-.7,2.9-.7s2,.2,2.8.7c.8.5,1.4,1.2,1.8,2.1.3.6.4,1.3.4,2.1ZM57.7,31.8c0-.4,0-.8-.3-1.1-.3-.5-.7-.7-1.3-.7s-1,.2-1.3.7c-.2.3-.3.7-.3,1.1s.1.8.3,1.2c.3.4.7.6,1.2.6s1-.2,1.3-.6c.2-.3.3-.7.3-1.2Z"/>
    </g>
  </g>
</svg>