<?xml version="1.0" encoding="UTF-8"?>
<svg id="Ebene_1" data-name="Ebene 1" xmlns="http://www.w3.org/2000/svg" xmlns:xlink="http://www.w3.org/1999/xlink" viewBox="0 0 566.9291338583 722.8346456693">
  <defs>
    <clipPath id="clippath">
      <rect x="200.4645669291" y="36.4173228346" width="165.1409912109" height="650.8350524902" fill="none"/>
    </clipPath>
    <clipPath id="clippath-1">
      <rect x="200.4645669291" y="36.4173228346" width="165.1409912109" height="650.8350524902" fill="none"/>
    </clipPath>
  </defs>
  <path d="M292.0630776713,362.1473948561h-49.503616333c-7.1132965088,0-12.8798980713-5.766998291-12.8798980713-12.8800354004V51.7972666823c0-7.1133422852,5.7666015625-12.8799438477,12.8798980713-12.8799438477h49.503616333c7.11328125,0,12.879486084,5.7666015625,12.879486084,12.8799438477v297.4700927734c0,7.1130371094-5.766204834,12.8800354004-12.879486084,12.8800354004h0Z" fill="#008939"/>
  <path d="M318.777585728,385.3703867995h-102.9331054688c-7.1133728027,0-12.8798980713-5.7660217285-12.8798980713-12.8800354004V75.020594319c0-7.1133422852,5.7665252686-12.8799438477,12.8798980713-12.8799438477h102.9331054688c7.1139831543,0,12.8799743652,5.7666015625,12.8799743652,12.8799438477v297.4697570801c0,7.1140136719-5.7659912109,12.8800354004-12.8799743652,12.8800354004h0Z" fill="#008939"/>
  <path d="M304.9425637553,122.9956919753c0,20.7836914062-16.8479003906,37.631652832-37.6312866211,37.631652832-20.7834014893,0-37.6317138672-16.8479614258-37.6317138672-37.631652832,0-20.7833251953,16.8483123779-37.6315917969,37.6317138672-37.6315917969,20.7833862305,0,37.6312866211,16.8482666016,37.6312866211,37.6315917969h0Z" fill="#005538"/>
  <path d="M304.9425637553,122.9956919753c0,20.7836914062-16.8479003906,37.631652832-37.6312866211,37.631652832-20.7834014893,0-37.6317138672-16.8479614258-37.6317138672-37.631652832,0-20.7833251953,16.8483123779-37.6315917969,37.6317138672-37.6315917969,20.7833862305,0,37.6312866211,16.8482666016,37.6312866211,37.6315917969h0Z" fill="none" stroke="#1d1d1b" stroke-miterlimit="10" stroke-width="5"/>
  <path d="M304.9425637553,122.9956919753c0,20.7836914062-16.8479003906,37.631652832-37.6312866211,37.631652832-20.7834014893,0-37.6317138672-16.8479614258-37.6317138672-37.631652832,0-20.7833251953,16.8483123779-37.6315917969,37.6317138672-37.6315917969,20.7833862305,0,37.6312866211,16.8482666016,37.6312866211,37.6315917969h0Z" fill="#005538"/>
  <path d="M304.9425637553,122.9956919753c0,20.7836914062-16.8479003906,37.631652832-37.6312866211,37.631652832-20.7834014893,0-37.6317138672-16.8479614258-37.6317138672-37.631652832,0-20.7833251953,16.8483123779-37.6315917969,37.6317138672-37.6315917969,20.7833862305,0,37.6312866211,16.8482666016,37.6312866211,37.6315917969h0Z" fill="none" stroke="#1d1d1b" stroke-miterlimit="10" stroke-width="4"/>
  <path d="M304.9425637553,223.7553660475c0,20.783996582-16.8479003906,37.6319885254-37.6312866211,37.6319885254-20.7834014893,0-37.6317138672-16.8479919434-37.6317138672-37.6319885254,0-20.782989502,16.8483123779-37.6310119629,37.6317138672-37.6310119629,20.7833862305,0,37.6312866211,16.8480224609,37.6312866211,37.6310119629h0Z" fill="#005538"/>
  <path d="M304.9425637553,223.7553660475c0,20.783996582-16.8479003906,37.6319885254-37.6312866211,37.6319885254-20.7834014893,0-37.6317138672-16.8479919434-37.6317138672-37.6319885254,0-20.782989502,16.8483123779-37.6310119629,37.6317138672-37.6310119629,20.7833862305,0,37.6312866211,16.8480224609,37.6312866211,37.6310119629h0Z" fill="none" stroke="#1d1d1b" stroke-miterlimit="10" stroke-width="4"/>
  <path d="M304.9425637553,324.5153452956c0,20.783996582-16.8479003906,37.6320495605-37.6312866211,37.6320495605-20.7834014893,0-37.6317138672-16.8480529785-37.6317138672-37.6320495605,0-20.7829589844,16.8483123779-37.6309814453,37.6317138672-37.6309814453,20.7833862305,0,37.6312866211,16.8480224609,37.6312866211,37.6309814453h0Z" fill="#8abd24"/>
  <path d="M304.9425637553,324.5153452956c0,20.783996582-16.8479003906,37.6320495605-37.6312866211,37.6320495605-20.7834014893,0-37.6317138672-16.8480529785-37.6317138672-37.6320495605,0-20.7829589844,16.8483123779-37.6309814453,37.6317138672-37.6309814453,20.7833862305,0,37.6312866211,16.8480224609,37.6312866211,37.6309814453h0Z" fill="none" stroke="#1d1d1b" stroke-miterlimit="10" stroke-width="4"/>
  <path d="M344.4605691264,159.6493784987h-13.7799987793l.9769897461-74.2852783203h28.875c2.0849914551,0,3.6400146484,1.9194335938,3.2070007324,3.9583740234l-12.8210144043,60.4548950195c-1.1519775391,5.4299926758-.9069824219,9.8720092773-6.4579772949,9.8720092773h0Z" fill="#005538"/>
  <path d="M341.0275552104,261.3873545729h-.0009765625c-5.1740112305,0-9.3690185547-4.1950073242-9.3690185547-9.3689880371v-65.8940124512h32.9220275879l-14.3870239258,67.8380126953c-.9179992676,4.3289794922-4.7399902344,7.424987793-9.1650085449,7.424987793h0Z" fill="#005538"/>
  <g clip-path="url(#clippath)">
    <path d="M343.027585728,362.1473948561h-11.3700256348v-75.2630310059h32.9220275879l-14.8020019531,69.7949829102c-.6760253906,3.1880493164-3.4909973145,5.4680480957-6.75,5.4680480957h0Z" fill="#005538"/>
    <polygon points="292.3460671733 688.9023387038 242.2764718364 688.9023387038 242.2764718364 385.3703867995 292.3460671733 385.3703867995 292.3460671733 688.9023387038 292.3460671733 688.9023387038" fill="#008939"/>
    <line x1="254.1758706401" y1="388.7253672682" x2="254.1758706401" y2="699.7883555495" fill="none" stroke="#8abd24" stroke-miterlimit="10" stroke-width="11"/>
  </g>
  <path d="M304.9425637553,122.9956919753c0,20.7836914062-16.8479003906,37.631652832-37.6312866211,37.631652832-20.7834014893,0-37.6317138672-16.8479614258-37.6317138672-37.631652832,0-20.7833251953,16.8483123779-37.6315917969,37.6317138672-37.6315917969,20.7833862305,0,37.6312866211,16.8482666016,37.6312866211,37.6315917969h0Z" fill="none" stroke="#1d1d1b" stroke-miterlimit="10" stroke-width="4"/>
  <path d="M218.9168679545,64.3532359206h96.0177001953c6.6360168457,0,12.0150146484,4.0128173828,12.0150146484,8.962890625v10.3705444336c0-4.950012207-5.3789978027-8.962890625-12.0150146484-8.962890625h-94.3609924316c-6.6354064941,0-10.0146026611,4.012878418-10.0146026611,8.962890625v288.6636962891c-1.0463104248-1.3289794922-3.6567687988-1.9950256348-3.6567687988-92.0289916992V73.3161265456c0-4.9500732422,5.3791656494-8.962890625,12.0146636963-8.962890625h0Z" fill="#8abd24"/>
  <path d="M318.8255593608,383.1583811843h-101.2291870117c-6.8744049072,0-12.4472045898-4.0130004883-12.4472045898-8.9630126953v-10.3710021973c0,4.950012207,5.5727996826,8.9630126953,12.4472045898,8.9630126953h99.5122070312c6.875,0,10.3749694824-4.0130004883,10.3749694824-8.9630126953V75.1607310378c1.0850219727,1.3295288086,3.7890319824,1.9953613281,3.7890319824,92.0296630859v207.0049743652c0,4.950012207-5.5729980469,8.9630126953-12.4470214844,8.9630126953h0Z" fill="#005538"/>
  <path d="M332.2245766948,85.0006968581c-.0700073242.0002441406-.7200317383,4.239440918-.7879943848,4.2420654297-.4400024414,2.7266235352-.3440246582,7.4299926758.3320007324,7.4268188477,8.1259765625-.0393066406,19.8189697266-.2927856445,27.9449768066-.33203125.1520080566-3.3225708008,1.908996582-6.638671875,2.2059936523-9.9536743164-8.7119750977.0421142578-20.9829711914-1.4252929688-29.6949768066-1.3831787109h0Z" fill="#008939"/>
  <path d="M334.2905862162,186.7603404128c-.0700073242,0-.1340026855.0080566406-.2020263672.0109863281-.4399719238,2.7260742188-.4219970703,5.4970703125-.4240112305,8.2640380859,0,.492980957-.0649719238.9439697266-.1729736328,1.3619995117.5549926758.1970214844,1.1679992676.3109741211,1.8439941406.3079833984,8.1260070801-.0390014648,16.2519836426-.0789794922,24.3779907227-.117980957.1520080566-3.3220214844.4159851074-6.6389770508.7120056152-9.9530029297-8.7109985352.0419921875-17.4230041504.083984375-26.134979248.1259765625h0Z" fill="#008939"/>
  <path d="M333.0985696147,287.8803660475c-.0700073242.0010070801-.2200012207,6.3229980469-.2210083008,9.0899963379,0,.492980957-.1109924316,1.6620178223-.1109924316,1.6620178223,0,0,3.0930175781-.1040039062,3.7689819336-.1080322266,8.1260375977-.0389709473,16.2520141602-.0779724121,24.3780212402-.1170043945.1519775391-3.3229980469.4159851074-6.6390075684.7129821777-9.9540100098-8.7119750977.0420227051-19.8160095215-.6149597168-28.5279846191-.5729675293h0Z" fill="#008939"/>
  <path d="M332.6235635112,79.1567027175l-.0820007324-2.0290527344c-.0469970703-.6762084961-.175994873-1.3515014648-.2610168457-2.0274658203l-.1449584961-1.0139160156c-.0670166016-.3358764648-.166015625-.66796875-.2470092773-1.0021972656-.1920166016-.6625366211-.3000183105-1.3458251953-.5660095215-1.9909667969-.8699951172-2.625-2.4239807129-5.1332397461-4.6439819336-6.9489746094l-.8380126953-.6684570312-.9080200195-.5701904297c-.2969970703-.201171875-.6170043945-.3583374023-.9400024414-.5109863281-.3249816895-.1485595703-.634979248-.3315429688-.9749755859-.4432373047-1.3460083008-.5401000977-2.6700134277-.8786621094-4.2420043945-.9600830078l-7.8819885254-.0466308594-31.5281982422-.1862792969-63.0569152832-.3724975586c-.3128967285-.0077514648-.6712036133.0010986328-1.0550994873.0219116211-.3716888428.0247802734-.74659729.0155639648-1.1157989502.0731201172l-1.1089019775.1637573242c-.36769104.0648803711-.7274017334.1723022461-1.091003418.2592163086-1.4365081787.4039916992-2.8388824463.9829101562-4.088394165,1.8120727539-1.2532348633.8186035156-2.3861083984,1.8168334961-3.3578491211,2.9595947266-.94921875,1.1616821289-1.7255249023,2.4615478516-2.3048095703,3.8486328125-.5889282227,1.3866577148-.8988037109,2.8787231445-1.0383911133,4.3713989258l-.0607910156,1.1253662109-.005859375.9852294922-.0116577148,1.9704589844-.0465698242,7.8822021484-.1862182617,31.5284423828-.3725585938,63.0571899414v187.2870178223l.0076904297,4.9369812012c.0114746094,1.949005127.4110107422,3.9060058594,1.1649169922,5.7110290527,1.4937133789,3.6210021973,4.4129638672,6.6069641113,8.0006103516,8.1779785156,1.788482666.7899780273,3.7344818115,1.2289733887,5.6815795898,1.2900085449.520401001.0319824219.899017334.0220031738,1.3113098145.0229797363h101.8609008789c1.8379821777.0100402832,3.8800048828-.2950134277,5.6860046387-.9909973145,1.8309936523-.6870117188,3.5249938965-1.7279663086,4.9639892578-3.0449829102,2.8930053711-2.6200256348,4.7220153809-6.3970031738,4.966003418-10.299987793.0700073242-1.0410461426.0469970703-1.7959899902.049987793-2.6210327148v-37.5639648438l-1.4899902344-252.2276000977c-.1709899902-8.1348876953-1.8479919434-8.1348876953-2.0189819336,0l-1.491027832,252.2276000977v37.5639648438c0,.8099975586.0109863281,1.6930236816-.0379943848,2.2850341797-.1669921875,2.633972168-1.391998291,5.16796875-3.350982666,6.9459533691-.974029541.890045166-2.1170349121,1.592010498-3.3480224609,2.0540466309-1.2559814453.468963623-2.4949951172.6699829102-3.9289855957.6719665527h-101.8609008789c-.4058074951,0-.8457946777.0060424805-1.1421051025-.0209655762-1.3214874268-.0400390625-2.6255950928-.3340148926-3.8303985596-.866027832-2.4156494141-1.0540161133-4.3992919922-3.0830078125-5.4026489258-5.5199890137-.5079345703-1.2149963379-.7780761719-2.5269775391-.7835693359-3.8520202637l-.0073852539-4.8799743652v-187.2870178223l-.3725585938-63.0571899414-.1862792969-31.5284423828-.0465698242-7.8822021484-.0116577148-1.9704589844-.0057983398-.9852294922.0385131836-.8426513672c.0957641602-1.1159057617.3024902344-2.2329101562.7348632812-3.2733154297.4230957031-1.0406494141.991394043-2.0229492188,1.6928710938-2.9085693359.7242431641-.8666992188,1.5697021484-1.6294555664,2.5068359375-2.2608642578.9336853027-.6417236328,1.9897766113-1.0817871094,3.0697937012-1.4036865234.274597168-.0662841797.5440979004-.1564941406.8221893311-.2078857422l.8390960693-.133605957c.2791137695-.0509643555.56590271-.0387573242.8484039307-.0640258789.2720031738-.0207519531.5699005127-.0346679688.9141998291-.0306396484l63.0569152832-.3725585938,31.5281982422-.1862792969,7.8819885254-.0466308594c1.0530090332.0436401367,2.325012207.3135375977,3.4129943848.7557373047.2890014648.0871582031.5469970703.2431640625.8219909668.3630371094.2730102539.1239624023.5450134277.2506103516.7940063477.4188842773l.766998291.4666137695.70703125.5545654297c1.8759765625,1.4969482422,3.2459716797,3.6060791016,4.0529785156,5.9497070312.2460021973.56640625.3460083008,1.1956176758.5289916992,1.7901000977.0780029297.3025512695.1730041504.6000976562.2380065918.9069213867l.141998291.935546875c.0849914551.6256103516.2149963379,1.2435302734.2660217285,1.8759765625l.0979919434,1.9079589844c.0289916992.357421875.0570068359.6984863281.0759887695.9381103516h1.9550170898c-.274017334-6.8140869141-1.6810302734-6.8140869141-1.9550170898,0h1.9550170898c-.0030212402-.2546386719-.008026123-.6170043945-.0120239258-.9965820312h0Z" fill="#1d1d1b"/>
  <g clip-path="url(#clippath-1)">
    <path d="M332.5105874369,160.046351155l8.5479736328.1519775391,4.274017334.0760498047,1.0679931641.0189819336,1.4150085449.0100097656.891998291-.0139770508.2239685059-.0040283203c.0780029297.0050048828.1020202637-.0960083008.1560058594-.1390380859l.281036377-.3419799805c.3639831543-.4439697266.7949829102-.9409790039,1.0739746094-1.375,1.8569946289-2.6829833984,2.7799987793-5.6170043945,3.5630187988-8.4609985352.3819885254-1.4279785156.7049865723-2.8519897461,1.0159912109-4.251953125l.9379882812-4.1550292969.7369995117-4.0239868164,7.6640014648-41.8607788086.7369995117-4.0239257812.1459960938-1.05859375.0729980469-.529296875.0390319824-.2825927734.0479736328-.4678955078c.0879821777-1.2596435547-.2870178223-2.5438232422-1.0130004883-3.5427246094-.7200012207-1.0020141602-1.7849731445-1.7507324219-2.9750061035-2.0599975586-.29296875-.0845336914-.5979919434-.1293334961-.8969726562-.1597290039l-.4510192871-.0233764648-.2779846191.0036010742-1.0690002441.0191650391-8.5480041504.1537475586-17.0960083008.3073120117c-1.1059875488.1430664062-1.1489868164,1.8194580078-.0520019531,2.0189819336l17.0579833984,1.1823120117,8.5290222168.5913085938,1.0670166016.0737304688.2549743652.0191650391c.0280151367.0091552734.0540161133.0157470703.0809936523.0197753906.0520019531.0175170898.1030273438.0272827148.1470336914.0541992188.1809692383.0798339844.3239746094.2357177734.4059753418.4063720703.0800170898.1762084961.0870056152.3465576172.0420227051.5067138672l-.4310302734,1.8673095703-.7359924316,4.0239257812-7.6640014648,41.8612670898-.7369995117,4.0230102539-.5769958496,4.2509765625c-.1849975586,1.4030151367-.375,2.7810058594-.6119995117,4.132019043-.4779968262,2.6829833984-1.1229858398,5.3350219727-2.3500061035,7.4689941406-.092010498.1780395508-.1109924316.2239990234-.1829833984.341003418-.041015625.1400146484-.1690063477.1220092773-.2820129395.1450195312l-.1869812012.0279541016-.5330200195.0370483398-1.0659790039.075012207-4.2650146484.2959594727-8.5289916992.5930175781c-1.0970153809.200012207-1.0530090332,1.8759765625.0530090332,2.0189819336h0Z" fill="#1d1d1b"/>
    <path d="M333.5905740092,259.7333628737c2.6999816895,1.0109863281,5.5599975586,1.9179992676,8.7549743652,1.8209838867,1.5830383301-.0479736328,3.2850341797-.4789733887,4.7540283203-1.4279785156,1.4750061035-.9230041504,2.6319885254-2.3850097656,3.3160095215-3.8630065918.7139587402-1.4809875488,1.1149597168-2.9760131836,1.4779968262-4.3710021973l1.0579833984-4.1220092773,2.1139831543-8.2349853516.8380126953-3.9810180664,8.717010498-41.4119873047.4190063477-1.9899902344c.1350097656-.6770019531.283996582-1.2680053711.424987793-2.1309814453.0809936523-.8900146484.2050170898-1.9550170898-.3349914551-3.3580322266-.2620239258-.6420288086-.6630249023-1.2229614258-1.1700134277-1.6869506836-.4840087891-.45703125-1.1640014648-.8340454102-1.6950073242-1.0180664062-1.1049804688-.3889770508-2.0349731445-.4159545898-2.8609924316-.4199829102-.8459777832.0120239258-1.4680175781.0590209961-2.1999816895.0869750977l-8.4930114746.3930664062-16.9859924316.785949707c-1.0950012207.1740112305-1.091003418,1.8510131836.0050048828,2.0200195312l16.9889831543.7039794922,8.4949951172.3519897461c.683013916.0330200195,1.4770202637.0510253906,2.0470275879.0970458984.5829772949.0440063477,1.0859985352.1579589844,1.3049926758.2849731445.1300048828.0720214844.0679931641.0670166016.0919799805.1019897461.0040283203.0240478516-.0019836426.0479736328-.0119934082.0660400391-.0290222168-.0690307617,0,.3379516602-.1239929199.8349609375-.074005127.4760131836-.2420043945,1.2050170898-.375,1.8569946289l-.4190063477,1.9900512695-8.7169799805,41.4119873047-.8380126953,3.9809875488-1.3840026855,8.3890075684-.6920166016,4.1889953613c-.2269897461,1.3699951172-.4709777832,2.6510009766-.8949890137,3.7690124512-.7789916992,2.2369689941-2.5789794922,3.6449890137-5.0859985352,3.9469909668-2.4840087891.3129882812-5.2349853516-.2290039062-7.884979248-.9820251465-1.0660095215-.1829833984-1.6480102539,1.3900146484-.6400146484,1.916015625h0Z" fill="#1d1d1b"/>
    <path d="M334.4615762065,361.7833811843c2.6809997559.8840026855,5.5189819336,1.6599731445,8.6520080566,1.4229736328,1.5519714355-.1159973145,3.2079772949-.6310119629,4.6029968262-1.6419677734.6909790039-.4990234375,1.3209838867-1.1120300293,1.8279724121-1.8020324707.5030212402-.6889648438.9000244141-1.425994873,1.2099914551-2.157989502.6220397949-1.4700012207.9600219727-2.9179992676,1.3040161133-4.2480163574l1.0299987793-4.0310058594,2.0610046387-8.0629577637.8120117188-3.8970336914,8.4489746094-40.5490112305.8120117188-3.8969726562.3510131836-2.2270202637c.1529846191-1.3099975586-.2470092773-2.6829833984-1.0650024414-3.6789855957-.8030090332-1.0079956055-2.0200195312-1.683013916-3.2919921875-1.8179931641-.7590332031-.058013916-.9190063477-.0060119629-1.3090209961-.0060119629l-1.0400085449.0350036621-8.316986084.2780151367-16.6329956055.5569763184c-1.0749816895.158996582-1.0939941406,1.8359985352-.0230102539,2.0189819336l16.6170043945.9340209961,8.3079833984.466003418,1.0380249023.0590209961c.3020019531.0169677734.8369750977.0429992676.766998291.0599975586.1050109863.0479736328.1679992676.1289672852.2050170898.2229919434.0389709473.0979919434.0109863281.1719970703-.0270080566.233001709l-.4750061035,1.8460083008-.8120117188,3.8969726562-8.449005127,40.5490112305-.8120117188,3.8970031738-1.3309631348,8.2149963379-.666015625,4.1070251465c-.2229919434,1.3789672852-.4190063477,2.6629943848-.7819824219,3.7889709473-.3610229492,1.1340026855-.882019043,2.0409851074-1.6910095215,2.7389831543-.7920227051.6940002441-1.8320007324,1.1740112305-3.0289916992,1.3730163574-2.4010009766.4190063477-5.1130065918.0059814453-7.733001709-.6220092773-1.0480041504-.1329956055-1.5679931641,1.4620056152-.5610046387,1.940032959h0Z" fill="#1d1d1b"/>
    <path d="M305.9525735209,61.2261607253l.3729858398-7.7579345703c.0250244141-.6597900391.0760192871-1.262878418.0790100098-1.9693603516l-.0090026855-1.0826416016c-.0209960938-.3603515625-.0709838867-.7196655273-.1069946289-1.0810546875-.200012207-1.4328613281-.5629882812-2.8726196289-1.2040100098-4.198425293-.6269836426-1.327331543-1.424987793-2.5919799805-2.4270019531-3.6947631836-1.0039978027-1.0978393555-2.1669921875-2.0590820312-3.4552001953-2.8471679688-1.3040771484-.7602539062-2.7241821289-1.3315429688-4.2071838379-1.7029418945-1.4752197266-.3620605469-3.120300293-.4174804688-4.3083190918-.4745483398h-46.0837860107l-1.9393920898.0931396484c-.7257080078.0712890625-1.5191040039.0865478516-2.2579193115.2606811523-1.5048828125.2548217773-2.9545898438.779296875-4.2854919434,1.4838256836-1.3395080566.692199707-2.5597839355,1.5941162109-3.599899292,2.6584472656-1.0435028076,1.0562744141-1.9546966553,2.2432861328-2.6186981201,3.55859375-.6651916504,1.307800293-1.1875915527,2.69140625-1.4248962402,4.1286621094-.0895080566.3520507812-.1000061035.7186279297-.1477966309,1.0765991211-.040802002.3595581055-.0836181641.7177734375-.0739135742,1.0794067383l-.0043945312,1.0744628906.0465087891.9697265625.3724975586,7.7578735352c.1713867188,1.000793457,1.8483886719,1.000793457,2.0196838379,0l.3726196289-7.7578735352.0464935303-.9697265625.0899963379-.8626708984c.0160064697-.2866821289.0816955566-.5665283203.1417999268-.845703125.0673980713-.2774658203.0942993164-.5622558594.1965026855-.830078125.2886047363-1.1003417969.8058013916-2.1198730469,1.4013061523-3.0603027344.5943908691-.9475097656,1.3722839355-1.763671875,2.2151947021-2.4657592773.8397979736-.7104492188,1.7911987305-1.274597168,2.7961883545-1.6701049805.9978942871-.4078369141,2.0462036133-.6773071289,3.1083984375-.7440795898.5330047607-.0796508789,1.0434112549-.017578125,1.6058197021-.0282592773l1.9393920898.0932006836h46.0837860107c1.3945007324-.0648193359,2.3500061035-.1255493164,3.4192199707.0156860352,1.0478820801.1599121094,2.0830078125.456237793,3.0695800781.9029541016.970703125.4748535156,1.8839111328,1.0858154297,2.7059020996,1.8197631836.8190002441.7389526367,1.5030212402,1.6253051758,2.0790100098,2.5813598633.5899963379.9547119141.967010498,2.0292358398,1.2359924316,3.1301269531.0540161133.2784423828.1240234375.5559082031.1690063477.837890625l.0889892578.8543701172c.0570068359.5850830078.0690002441,1.2760009766.1060180664,1.9086914062l.3729858398,7.7579345703c.1710205078,1.0009155273,1.8480224609,1.0009155273,2.0190124512,0h0Z" fill="#1d1d1b"/>
    <path d="M293.3559853862,695.2134043776l1.4900817871-88.2930603027v-131.1210021973l-1.4900817871-88.2929992676c-.1714172363-2.8479614258-1.8484191895-2.8479614258-2.0197143555,0l-1.4902038574,88.2929992676v131.1210021973l1.4902038574,88.2930603027c.171295166,2.8479614258,1.8482971191,2.8479614258,2.0197143555,0h0Z"/>
    <path d="M243.2530648539,695.2134043776l1.4900970459-88.2930603027v-131.1210021973l-1.4900970459-88.2929992676c-.1714019775-2.8479614258-1.8484039307-2.8479614258-2.0195922852,0l-1.4903106689,88.2929992676v131.1210021973l1.4903106689,88.2930603027c.1711883545,2.8479614258,1.8481903076,2.8479614258,2.0195922852,0h0Z"/>
  </g>
  <path d="M282.5596597026,303.8363902175h-6.421081543c-.4895935059-1.1100463867-1.2200012207-1.7670288086-1.9992980957-1.7670288086h-13.6563110352c-.7792053223,0-1.5096130371.6569824219-1.9989929199,1.7670288086h-6.4213104248c-1.842300415,0-3.3355865479,1.4939880371-3.3355865479,3.3359680176v30.4970092773c0,1.8419799805,1.4932861328,3.3360290527,3.3355865479,3.3360290527h30.4969940186c1.8422241211,0,3.3359069824-1.4940490723,3.3359069824-3.3360290527v-30.4970092773c0-1.8419799805-1.4936828613-3.3359680176-3.3359069824-3.3359680176M282.4463784526,306.6953684889c.6077880859,0,1.1049804688.4970092773,1.1049804688,1.1049804688,0,.608001709-.4971923828,1.1050415039-1.1049804688,1.1050415039-.6079101562,0-1.1051025391-.4970397949-1.1051025391-1.1050415039,0-.6079711914.4971923828-1.1049804688,1.1051025391-1.1049804688M255.5058724711,306.4923655593c0-.6139831543.4511871338-1.1119689941,1.0075836182-1.1119689941h21.5956115723c.5563964844,0,1.0074157715.4979858398,1.0074157715,1.1119689941v2.616027832c0,.6139526367-.4510192871,1.1119689941-1.0074157715,1.1119689941h-21.5956115723c-.5563964844,0-1.0075836182-.4980163574-1.0075836182-1.1119689941v-2.616027832h0ZM252.1759621928,306.6953684889c.6078033447,0,1.1051025391.4970092773,1.1051025391,1.1049804688,0,.608001709-.4972991943,1.1050415039-1.1051025391,1.1050415039-.6077880859,0-1.1049957275-.4970397949-1.1049957275-1.1050415039,0-.6079711914.4972076416-1.1049804688,1.1049957275-1.1049804688M251.6815621684,313.2823741042c0-.591003418.479309082-1.0710144043,1.0703125-1.0710144043h29.1187896729c.591003418,0,1.0700073242.4800109863,1.0700073242,1.0710144043v15.7619934082c0,.5919799805-.4790039062,1.0709838867-1.0700073242,1.0709838867h-29.1187896729c-.591003418,0-1.0703125-.4790039062-1.0703125-1.0709838867v-15.7619934082h0ZM256.0181557963,337.9233958327h-3.4719848633c-.8583984375,0-1.5541992188-.6960144043-1.5541992188-1.5550231934,0-.8580322266.6958007812-1.5540161133,1.5541992188-1.5540161133h3.4719848633c.858215332,0,1.5540161133.6959838867,1.5540161133,1.5540161133,0,.8590087891-.6958007812,1.5550231934-1.5540161133,1.5550231934M282.0763833354,337.9233958327h-3.4720153809c-.8583984375,0-1.5541992188-.6960144043-1.5541992188-1.5550231934,0-.8580322266.6958007812-1.5540161133,1.5541992188-1.5540161133h3.4720153809c.8583984375,0,1.5541992188.6959838867,1.5541992188,1.5540161133,0,.8590087891-.6958007812,1.5550231934-1.5541992188,1.5550231934" fill="#005538"/>
  <path d="M251.6133706401,345.1833445632c0,.9779968262.8005981445,1.7790222168,1.7790985107,1.7790222168h1.7790985107c.9783935547,0,1.7789916992-.8010253906,1.7789916992-1.7790222168v-2.925994873h-5.3371887207v2.925994873h0Z" fill="#005538"/>
  <path d="M277.6716592143,345.1833445632c0,.9779968262.8005981445,1.7790222168,1.7791137695,1.7790222168h1.779083252c.978515625,0,1.7790222168-.8010253906,1.7790222168-1.7790222168v-2.925994873h-5.3372192383v2.925994873h0Z" fill="#005538"/>
  <path d="M271.7670571635,99.1586558425c-.4531860352,2.7822265625-3.0759887695,4.6702270508-5.8581848145,4.2170410156-2.7821044922-.4533691406-4.6701049805-3.076171875-4.2168884277-5.858215332.4531860352-2.7822265625,3.0759887695-4.6702270508,5.8581848145-4.2169799805,2.7821044922.4531860352,4.6701049805,3.0759887695,4.2168884277,5.8581542969h0Z" fill="#8abd24"/>
  <path d="M272.3219582866,126.9303843581l-10.2075805664-.0848388672.1319885254-15.8853759766c.0234985352-2.8187866211,2.3275146484-5.0848388672,5.1463012695-5.0614013672h0c2.8186950684.0233764648,5.0848083496,2.3275146484,5.0613098145,5.1462402344l-.132019043,15.8853759766h0Z" fill="#8abd24"/>
  <path d="M269.1486489604,123.3060557448h0c1.3651123047-.350769043,2.7198181152.3303833008,3.0259094238,1.5215454102l5.9678039551,23.1377563477c.3061218262,1.1909790039-.5523986816,2.4409790039-1.9174804688,2.7919921875h0c-1.365020752.3510131836-2.7198181152-.3300170898-3.0258178711-1.5209960938l-5.9678955078-23.1384887695c-.3060913086-1.1911010742.5523986816-2.4409790039,1.9174804688-2.791809082h0Z" fill="#8abd24"/>
  <path d="M277.3594643901,114.8341929518h.3599853516c1.0092163086,0,1.8274230957.8180541992,1.8274230957,1.8272705078v6.4417724609c0,2.0185546875-1.6362915039,3.6547241211-3.6548156738,3.6547241211h-.3599853516v-10.096496582c0-1.0092163086.8180847168-1.8272705078,1.8273925781-1.8272705078h0Z" fill="#8abd24"/>
  <path d="M265.9155556987,107.8332774245h.0001220703c.8640136719.6947021484,1.0011901855,1.958190918.3064880371,2.8222045898l-10.0606079102,12.512878418c-1.3893890381,1.7279663086-3.9164886475,2.0025024414-5.6444854736.6130981445h0l12.5762786865-15.6416015625c.6947021484-.8640136719,1.9583129883-1.0012817383,2.8222045898-.3065795898h0Z" fill="#8abd24"/>
  <path d="M267.7077615092,107.2926890456h0c.7445068359-.8215332031,2.0140075684-.8838500977,2.8354187012-.1392211914l8.3244018555,7.5452880859c.6777954102.614440918.7292785645,1.6619873047.1147766113,2.3399047852l-.4711914062.5198974609c-.6144104004.6777954102-1.6620178223.729309082-2.3399047852.1148071289l-8.3243103027-7.5452880859c-.8213806152-.7445068359-.8837890625-2.0140380859-.1391906738-2.8353881836h0Z" fill="#8abd24"/>
  <path d="M263.9141824076,122.9698741042l4.421081543,2.5502929688-5.3508911133,11.8372192383c-.7043151855,1.2209472656-2.2648925781,1.6399536133-3.4858093262.9359741211h0c-1.2207946777-.7050170898-1.6395874023-2.2651977539-.9353942871-3.4860839844l5.3510131836-11.8374023438h0Z" fill="#8abd24"/>
  <path d="M260.3962685893,134.1588389479l.3012084961.0068359375c1.3258972168.0297241211,2.3765869141,1.1286010742,2.3468933105,2.4546508789l-.2745056152,12.248046875c-.0296936035,1.3259887695-1.128692627,2.376953125-2.4545898438,2.3469848633l-.3012084961-.007019043c-1.3258972168-.0289916992-2.3765869141-1.1279907227-2.3468933105-2.4539794922l.2745056152-12.2490234375c.0296936035-1.325378418,1.128692627-2.376159668,2.4545898438-2.346496582h0Z" fill="#8abd24"/>
  <path d="M280.1923806498,219.8983714186l2.4981994629,6.3710021973c-.2184143066.3079833984-.349609375.6819763184-.349609375,1.0889892578,0,1.0429992676.8453063965,1.8890075684,1.8886108398,1.8890075684,1.0434875488,0,1.8887939453-.8460083008,1.8887939453-1.8890075684,0-1.0440063477-.8453063965-1.8889770508-1.8887939453-1.8889770508-.0348205566,0-.0673217773.0079650879-.1016235352.009979248l-2.4306945801-6.199005127c.7579040527-.2269897461,1.5592041016-.3530273438,2.3901062012-.3530273438,4.600402832,0,8.3432006836,3.7420349121,8.3432006836,8.3430175781,0,4.6010131836-3.7427978516,8.3430175781-8.3432006836,8.3430175781-4.5997924805,0-8.342010498-3.7420043945-8.342010498-8.3430175781,0-3.1939697266,1.8052978516-5.9709777832,4.4470214844-7.3719787598h0ZM265.6943642924,225.6793467604l-5.4799804688-13.9749755859h15.651184082l-10.1712036133,13.9749755859h0ZM261.2109658549,226.5423838698c-.229888916-3.6550292969-2.1564941406-6.8560180664-5.0127868652-8.8060302734l2.7803955078-4.7279663086,5.3071899414,13.5359802246-3.074798584-.0019836426h0ZM251.3052651713,226.5363719069c-.0413970947-.0850219727-.0841064453-.1690063477-.1372070312-.2470092773l3.4020996094-5.7850036621c1.9174194336,1.382019043,3.2269287109,3.5520019531,3.4436035156,6.0360107422l-6.7084960938-.0039978027h0ZM249.7547738383,225.4833628737c-.0480041504-.0029907227-.0939025879-.0139770508-.1428985596-.0139770508-1.0433044434,0-1.8885040283.8449707031-1.8885040283,1.8889770508,0,1.0429992676.845199585,1.8890075684,1.8885040283,1.8890075684.7545928955,0,1.4002990723-.4450073242,1.7029876709-1.0850219727l6.6858978271.0050354004c-.4487915039,4.1799621582-3.9958953857,7.4459838867-8.2931976318,7.4459838867-4.5997924805,0-8.3419952393-3.7420043945-8.3419952393-8.3430175781,0-4.600982666,3.7422027588-8.3430175781,8.3419952393-8.3430175781,1.2337036133,0,2.4018096924.2760314941,3.4566040039.7590332031l-3.4093933105,5.7969970703h0ZM284.0873696635,215.1883799636c-1.3121032715,0-2.5729064941.2179870605-3.7568054199.6059875488l-2.7017822266-6.8910217285h3.9541931152c.324005127,0,.587310791.2640380859.587310791.5880126953,0,.3229980469-.2633056641.5859985352-.587310791.5859985352h-1.1120910645c-.4491271973,0-.8135070801.3640136719-.8135070801.8129882812,0,.450012207.3643798828.8140258789.8135070801.8140258789h1.1120910645c1.220703125,0,2.2140808105-.992980957,2.2140808105-2.2130126953,0-1.2210083008-.9933776855-2.2139892578-2.2140808105-2.2139892578h-5.146697998c-.2687988281,0-.5205078125.1329956055-.6720275879.3549804688-.1515808105.2219848633-.1834716797.5040283203-.0850830078.7550048828l.6625061035,1.6900024414h-16.7651062012l-.2929992676-.7470092773c.2688903809-.0459594727.5523071289-.0949707031.8568115234-.1480102539.661895752-.1149902344,1.4853820801-.258972168,1.6598815918-.2649536133.9734191895,0,1.5702209473-.8380126953,1.5853271484-1.6480102539.0147705078-.8190307617-.5466003418-1.4340209961-1.3356018066-1.4630126953-1.8501281738-.0700073242-3.6604309082-.3759765625-5.1151123047-.6209716797-1.366394043-.2310180664-2.4449157715-.4150390625-3.1706085205-.3440551758-.5010986328.0460205078-.9019927979.4560546875-1.0729980469,1.0950317383-.2063903809.7719726562.0148010254,1.5219726562.5643005371,1.9099731445.3710021973.2620239258,2.8762969971,1.7660522461,3.8650970459,1.7660522461.134185791,0,.3073120117-.0130004883.5126953125-.0350341797l.5901184082,1.5050048828-3.4354095459,5.842010498c-1.5354003906-.7569885254-3.2559051514-1.1940002441-5.0805053711-1.1940002441-6.362487793,0-11.5388031006,5.1770019531-11.5388031006,11.5399780273,0,6.3630371094,5.1763153076,11.5400085449,11.5388031006,11.5400085449,6.0601043701,0,11.033493042-4.6979675293,11.4947967529-10.6409912109l4.2571105957.0019836426c.0691833496.0010375977.1371154785-.0090026855.2046813965-.0249633789l2.1253051758,2.6659851074c-.3562011719.0939941406-.6200866699.4150085449-.6200866699.800994873,0,.458984375.3719787598.8309936523.8310852051.8309936523h2.115234375c.4588928223,0,.8310852051-.3720092773.8310852051-.8309936523,0-.4590148926-.3721923828-.8320007324-.8310852051-.8320007324h-1.0898132324l-2.6311035156-3.3000183105,10.8989868164-14.975982666,1.5317077637,3.9070129395c-4.0289916992,1.9609985352-6.8191833496,6.0849914551-6.8191833496,10.8589782715,0,6.6610107422,5.4195861816,12.0809936523,12.0810852051,12.0809936523,6.662109375,0,12.0822143555-5.4199829102,12.0822143555-12.0809936523,0-6.6620178223-5.4201049805-12.0829772949-12.0822143555-12.0829772949h0Z" fill="#8abd24"/>
</svg>