<?xml version="1.0" encoding="UTF-8"?>
<svg id="Ebene_1" data-name="Ebene 1" xmlns="http://www.w3.org/2000/svg" xmlns:xlink="http://www.w3.org/1999/xlink" viewBox="0 0 566.9291338583 566.9291338583">
  <defs>
    <clipPath id="clippath">
      <rect x="99.4645669291" y="180.4645669291" width="367.1225738525" height="207.5786895752" fill="none"/>
    </clipPath>
  </defs>
  <g clip-path="url(#clippath)">
    <path d="M187.9534737895,321.3775765727s-21.1603546143-29.7513275146-12.6649780273-43.965927124c8.5862731934-14.3685913086,38.0602722168-12.9350585938,97.6897583008,8.7327270508,78.5889282227,28.5551757812,114.8679199219,67.8599853516,114.8679199219,67.8599853516l-23.5485229492,30.0195007324,98.3312988281-8.3573913574-16.7183837891-95.8121948242-24.2694091797,29.6612854004s-29.3031005859-29.2113037109-82.8702087402-63.3674621582c-42.4133911133-27.0410461426-106.61668396-51.8862609863-150.2799072266-60.1293029785-40.3874206543-7.6272277832-69.2279052734,1.1609802246-78.9147033691,17.7959899902-21.4934387207,36.9220581055-.5375671387,98.5079956055,78.3771362305,117.562789917" fill="#028a39"/>
    <path d="M181.2185799907,318.1897713969c-12.0195922852-3.6180114746-23.7196807861-8.4321136475-34.3278808594-15.0633087158-5.2953338623-3.3102111816-10.3675384521-6.9786071777-15.0177612305-11.1239929199-4.6333770752-4.1580200195-8.8861541748-8.7264099121-12.6016998291-13.6899108887-7.4379730225-9.900970459-12.6851196289-21.4758911133-14.5962677002-33.6279602051-.9471435547-6.0617675781-1.131942749-12.2531433105-.2881164551-18.3055419922.8175964355-6.0503540039,2.5491943359-11.9608154297,5.1781463623-17.4320983887.6491699219-1.3683776855,1.4264984131-2.6820068359,2.1385803223-4.0076904297.7698516846-1.2214050293,1.57472229-2.4288330078,2.5437469482-3.5210876465,1.8711090088-2.2331542969,4.1422576904-4.1550292969,6.6029510498-5.8185119629,4.9404602051-3.3292541504,10.6709289551-5.5691833496,16.585647583-7.0473327637,5.9296569824-1.4729309082,12.071975708-2.2334899902,18.2450714111-2.4472961426,6.1746368408-.2395019531,12.387512207.0715332031,18.563583374.7330627441,6.1848144531.695098877,12.3075866699,1.7021789551,18.4293823242,3.1047363281,3.0680999756.6142272949,6.1127929688,1.380859375,9.1584014893,2.1316223145,3.0536956787.7106628418,6.0749969482,1.5802307129,9.1062011719,2.4030151367,12.1049957275,3.3701477051,24.0678100586,7.3179931641,35.8829956055,11.6561584473,11.3426971436,4.0864562988,22.5711212158,8.5195007324,33.6086883545,13.3753662109,12.8034057617,5.6027526855,25.3989257812,11.6834411621,37.6317138672,18.3789672852l2.3004150391,1.2438964844,2.2652893066,1.3016662598,4.5296936035,2.6029052734c1.5218811035.8493347168,2.9942932129,1.7734375,4.4756774902,2.6840515137l4.4433288574,2.7321472168c5.8887023926,3.7557983398,11.7539978027,7.5911560059,17.533782959,11.5302429199,11.5650024414,7.8778991699,22.9050292969,16.0895996094,33.9048156738,24.7232666016,5.5025939941,4.3128051758,10.9187927246,8.7318115234,16.2441101074,13.2471008301,2.6558837891,2.2652893066,5.2901916504,4.5522155762,7.8848876953,6.8769226074,1.2941894531,1.1654968262,2.5884094238,2.330078125,3.8583068848,3.5126953125l2.6028137207,2.4453125,3.8069763184,3.725982666,21.9411010742-26.8154907227,14.8176269531,84.9176940918-70.3664855957,5.979598999-16.563659668,1.4076080322,2.6334228516-3.3570098877,11.6297912598-15.0290985107,3.2615966797-4.2093048096c.9674987793-1.2203979492,1.8602905273-2.43359375,2.7648010254-3.6449890137-1.0484924316-1.1132965088-2.1267089844-2.1968994141-3.1850891113-3.2922210693-.2673034668-.2735900879-.5426940918-.5453948975-.8073120117-.7946777344l-.4976806641-.4734039307-.8838195801-.8388061523c-.5849914551-.5679016113-1.1925048828-1.0943908691-1.7891845703-1.6389007568l-1.7973022461-1.6236114502-1.8323974609-1.5713806152c-2.4227905273-2.121307373-4.9446105957-4.1049041748-7.4412231445-6.1208953857-2.5568847656-1.9313964844-5.0561828613-3.9447174072-7.6770019531-5.7816162109l-3.8951721191-2.8079833984c-1.2987060547-.9342193604-2.6415405273-1.803604126-3.9600219727-2.7080993652l-3.9725952148-2.6874237061c-1.3374023438-.8756866455-2.697265625-1.7144927979-4.0445861816-2.5730895996l-4.0509338379-2.5623016357c-1.3436584473-.8639984131-2.7422790527-1.6352844238-4.1111755371-2.457901001l-4.1273803711-2.4299926758-2.0637207031-1.2150115967-2.0997009277-1.1492614746-8.4042053223-4.5846252441-8.5481872559-4.300201416c-2.828704834-1.4750976562-5.7482910156-2.7602844238-8.6408996582-4.1013183594l-4.3434143066-1.9989013672-2.1716918945-.9989624023-2.2023010254-.9288330078c-5.884185791-2.4488830566-11.7287902832-4.9940795898-17.7263793945-7.1468811035-2.9835205078-1.1123962402-5.9553222656-2.2652893066-8.9478149414-3.3435058594-2.9952087402-1.0610961914-5.9985046387-2.1015014648-9.01171875-3.1175842285-6.0263977051-2.0277099609-12.0887756348-3.9645080566-18.2006835938-5.7546081543-12.2273864746-3.5406188965-24.641998291-6.685760498-37.4544067383-8.071105957-6.399887085-.6033630371-12.9455871582-.8617553711-19.4734649658.4628601074-3.2366790771.6943359375-6.5122375488,1.7683105469-9.3787384033,3.7436523438-1.443939209.9494934082-2.7565917969,2.1410827637-3.8573913574,3.4991760254-.5786132812.6606140137-1.0366210938,1.4067077637-1.5153198242,2.1366271973-.4081573486.789276123-.8573455811,1.5749816895-1.1247406006,2.417388916-.3429870605.8234863281-.507598877,1.6811828613-.722869873,2.5289916992-.1198883057.8531799316-.2863769531,1.7091064453-.3060913086,2.5596008301-.1289672852,1.7073059082-.0090942383,3.38671875.1882781982,5.0364074707.4395446777,3.2939758301,1.296005249,6.4646911621,2.3923797607,9.5130004883,2.1929473877,6.1055908203,5.1621246338,11.8205871582,8.4677276611,17.3015899658,2.6561889648,4.1922149658,4.6421203613,5.8482055664,5.1414489746,5.4882202148.5141601562-.3672180176-.4031066895-2.6748046875-2.800994873-6.8877105713-3.1631469727-5.3999938965-5.9827423096-11.0276794434-7.9958648682-16.8813171387-1.0093536377-2.9213867188-1.7644500732-5.9147949219-2.1234436035-8.9063720703-.1579742432-1.4922180176-.2439117432-2.9907226562-.1107177734-4.4424133301.0227813721-.7362060547.1806488037-1.4364013672.2824249268-2.1501159668.191986084-.6812744141.3261566162-1.3877868652.6109313965-2.0240783691.2152709961-.6723022461.580947876-1.2564086914.8957672119-1.8728942871.4036407471-.5841064453.7761383057-1.191619873,1.2557525635-1.7153930664.9055786133-1.0881347656,1.9757995605-2.041229248,3.1894226074-2.8125305176,2.3851776123-1.6091918945,5.2626647949-2.5325927734,8.2026062012-3.120300293,5.9363098145-1.1319274902,12.2111053467-.835357666,18.3788146973-.1639709473,12.3848876953,1.5022888184,24.6041870117,4.7548828125,36.6416931152,8.4178771973,6.0218811035,1.850402832,12.0041809082,3.8484191895,17.9559020996,5.9400024414,2.9762878418,1.0476074219,5.9436035156,2.1195068359,8.9046020508,3.2130126953,2.9528808594,1.1078796387,5.8715820312,2.2859802246,8.8082885742,3.4253845215,5.9021911621,2.2059020996,11.6424255371,4.7987976074,17.4222106934,7.2926940918l2.162689209.9450073242,2.1303100586,1.0151977539,4.2605895996,2.0303955078c2.8367919922,1.3608093262,5.7006225586,2.665802002,8.469909668,4.157989502l8.3709106445,4.3497314453,8.2169799805,4.6250762939,2.0529174805,1.1583099365,2.0141906738,1.2230987549,4.0274963379,2.4443969727c1.3356018066.8262023926,2.7017822266,1.6020202637,4.0104064941,2.4696044922l3.9455871582,2.5695037842c1.3121948242.8612823486,2.6379394531,1.7018890381,3.9383850098,2.5794067383l3.8610229492,2.6873779297c1.2807006836.9045257568,2.5874938965,1.7730102539,3.8474731445,2.7054138184l3.7755126953,2.7989959717c2.5443115234,1.8324127197,4.9526977539,3.829498291,7.4259338379,5.7474060059,2.4038696289,1.995300293,4.8383789062,3.9608917236,7.1531677246,6.0443878174l1.754119873,1.5444030762,1.7073059082,1.5839996338c.5652160645.5301055908,1.1492614746,1.0485229492,1.6928710938,1.5921020508l.8280029297.8072967529.3581848145.3491973877.0342407227.0387115479.0719909668.0963134766-.0891113281.088180542-2.6018981934,3.2660980225-11.8269042969,14.8733978271-12.207611084,15.5628051758,32.0202026367-2.7215881348,77.7113952637-6.6042022705-18.6192016602-106.7066955566-26.6291503906,32.5440063477-1.2474365234-1.1610107422c-1.3031921387-1.2149963379-2.6225891113-2.4020996094-3.941986084-3.5900878906-2.6433105469-2.3679199219-5.3199157715-4.6917114258-8.015411377-6.9903259277-5.4026794434-4.5809936523-10.8863830566-9.0557861328-16.4546508789-13.4189758301-11.1303405762-8.736328125-22.5882568359-17.0335998535-34.2720336914-24.9923706055-5.8437194824-3.9823303223-11.7521972656-7.8463134766-17.7219238281-11.6533813477l-4.5422973633-2.7938842773c-1.5146789551-.9309692383-3.0222167969-1.8758544922-4.5710754395-2.7409667969l-4.6170043945-2.6529846191-2.3085021973-1.3262634277-2.3391113281-1.2652893066c-12.4451904297-6.8113098145-25.2080993652-12.9714355469-38.1743774414-18.6452941895-11.1771240234-4.916809082-22.536895752-9.4023132324-34.0236206055-13.5408935547-12.0239868164-4.2346801758-24.191986084-8.0736083984-36.5399932861-11.3359375-3.0933074951-.7962341309-6.171295166-1.6372680664-9.2978973389-2.3223876953-3.1140136719-.7241210938-6.2235107422-1.4627075195-9.3753051758-2.0517272949-6.2463531494-1.3438415527-12.6563415527-2.3172912598-19.068572998-2.9493713379-6.4241943359-.6022033691-12.9031982422-.8424987793-19.3859100342-.5060424805-6.478729248.3119506836-12.9684448242,1.1937866211-19.3149871826,2.8597106934-6.3299713135,1.6760559082-12.561920166,4.1743164062-18.0976409912,8.0068664551-2.7554473877,1.9167480469-5.3412322998,4.1574707031-7.5101470947,6.8103942871-1.1141967773,1.2978820801-2.0632476807,2.7417602539-2.9549102783,4.2127990723-.7719268799,1.4692687988-1.5874176025,2.9013366699-2.2765350342,4.4013671875-2.780960083,5.9851074219-4.5617675781,12.4006652832-5.3525238037,18.9119873047-.8171386719,6.5148925781-.5312652588,13.123046875.5606842041,19.5502319336,2.2027282715,12.8844909668,7.9097137451,24.9745483398,15.8026428223,35.1979370117,3.9440612793,5.1254882812,8.4258880615,9.8108825684,13.27734375,14.0489807129,4.8681793213,4.224609375,10.1455078125,7.9361877441,15.6307525635,11.2635192871,10.9892730713,6.667175293,22.9964294434,11.4146881104,35.2608184814,14.92918396,9.6390838623,2.3067016602,10.0737915039.079208374.7514038086-2.6207885742h0Z" fill="#1d1d1b"/>
  </g>
</svg>