<?xml version="1.0" encoding="UTF-8"?>
<svg id="Ebene_1" data-name="Ebene 1" xmlns="http://www.w3.org/2000/svg" xmlns:xlink="http://www.w3.org/1999/xlink" viewBox="0 0 566.9291338583 566.9291338583">
  <defs>
    <clipPath id="clippath">
      <rect x="129.4645669291" y="94.4645669291" width="306.2482452393" height="378.9103088379" fill="none"/>
    </clipPath>
    <clipPath id="clippath-1">
      <rect x="129.4645669291" y="94.4645669291" width="306.2482452393" height="378.9103088379" fill="none"/>
    </clipPath>
    <clipPath id="clippath-2">
      <rect x="129.4645669291" y="94.4645669291" width="306.2482452393" height="378.9103088379" fill="none"/>
    </clipPath>
    <clipPath id="clippath-3">
      <rect x="129.4645669291" y="94.4645669291" width="306.2482452393" height="378.9103088379" fill="none"/>
    </clipPath>
  </defs>
  <g clip-path="url(#clippath)">
    <path d="M395.2321603129,362.3048226664l-230.0678100586,48.3209838867c-7.9455566406,1.6695404053-15.4550476074-5.1124267578-15.2337036133-13.7570800781l4.5589904785-178.0453338623,245.3362731934-121.974395752c8.783203125-4.3664855957,19.0606384277,2.8502807617,18.8831787109,13.2597961426l-3.8598022461,227.1850585938c-.2089233398,12.3091278076-8.3096923828,22.6358795166-19.6171264648,25.0109710693h0Z" fill="#8abd24"/>
  </g>
  <path d="M427.4492928813,111.2794473002c-3.5815429688-3.0751342773-7.8371887207-6.7296142578-11.1951293945-9.6181030273.1848144531.2760925293.3580627441.5607299805.5249938965.8514099121.0262756348.0459594727.0514831543.0925598145.0777587891.1389160156.1406555176.2530212402.2750854492.511138916.4010620117.7744750977.0272827148.055480957.0545959473.1104736328.080871582.1664123535.1322937012.2852172852.2572631836.5756225586.371673584.8720397949.0105285645.0259399414.022064209.0510253906.0314941406.0770568848.1270446777.3329162598.2436218262.6718444824.3475646973,1.0179443359.0052490234.016998291.0084228516.0348510742.013671875.051940918.0913391113.3081970215.1711425781.6219482422.2425537109.9397583008.0220336914.0968017578.0398864746.1950073242.0598449707.292755127.0493469238.2446594238.0934143066.4914855957.1312561035.741394043.0178222656.1161193848.0346069336.2324829102.0493164062.3497619629.0315246582.2491455078.0556640625.5009460449.0745239258.7548522949.0084533691.1087646484.018951416.2164001465.0252380371.3260192871.0189208984.3604736328.0293884277.7239685059.0231018066,1.0927124023l-3.8598022461,227.1850585938c-.2089233398,12.3091278076-8.3096923828,22.6358795166-19.6171264648,25.0109710693l-230.0678100586,48.3209838867c-7.335723877,1.5414276123-14.2850494385-4.1264953613-15.1366882324-11.8072357178l-1.1879730225.1764068604.9814300537,10.6448974609c.6484832764,7.0350036621,6.8520965576,12.1106872559,13.3592529297,10.9315338135l252.540435791-45.7652893066c8.4713745117-1.5361480713,14.6254272461-9.1685791016,14.7861022949-18.3382568359l4.0068054199-229.2313537598c.1081542969-6.1349182129-2.5073852539-12.0446472168-7.0644226074-15.9570617676h0Z" fill="#005538"/>
  <g clip-path="url(#clippath-1)">
    <path d="M395.4085519145,120.0434853862l-4.3322753906,222.5518035889-227.3967285156,48.5246734619,2.9496612549-164.9119262695,228.7793426514-106.1645507812h0ZM308.7562386821,243.9624917338l1.2726135254,79.8262481689-88.4844360352,24.8755493164.5485229492-69.62550354,86.6632995605-35.0762939453h0Z" fill="none" stroke="#008939" stroke-miterlimit="10" stroke-width="6.2999997139"/>
    <path d="M398.1931588481,96.4765298198l-48.6801147461,22.4548950195-5.7445373535,2.8563232422-59.7680969238,29.7149047852-5.7456054688,2.8563232422-47.2865447998,25.2569885254c-1.4674835205.9305114746-.6835479736,2.5072937012.9440612793,1.8989257812l48.6797943115-22.4547729492,5.7455749512-2.8564147949,59.7680969238-29.7149047852,5.7445678711-2.8562927246,47.2867431641-25.2570495605c1.4678955078-.9304199219.6835632324-2.5072021484-.943939209-1.8989257812h0Z" fill="#1d1d1b"/>
    <path d="M400.9504525493,97.5323464701c3.5227355957-1.5280456543,7.7080383301-.9846191406,10.8212890625,1.2380065918,3.153137207,2.1682434082,5.1996154785,5.7665710449,5.6006774902,9.5520019531.1249694824,1.8268737793-.0093994141,4.0266418457-.0409545898,6.0745544434l-.1553649902,6.234161377-.3097839355,12.4684448242-1.2379150391,49.8737182617-2.4779968262,99.7479248047-.4053039551,23.8885498047-.5438842773,31.0253753662c-.1239318848,4.7029571533-1.6327819824,9.3282012939-4.2672119141,13.1585845947-2.6207885742,3.8419647217-6.4564819336,6.8124084473-10.8265686035,8.2603759766-.5333862305.2183685303-1.0982971191.3338928223-1.6547851562.4829864502l-.8442077637.216293335-.9502563477.1994934082-3.800994873.7980041504-7.6019897461,1.5970611572-15.2029418945,3.1930389404-30.4069519043,6.3861083984-121.6252746582,25.5454711914-23.3826599121,4.9108276367-24.3709259033,5.3182678223-1.523223877.3328399658c-.4867858887.0997467041-1.0725860596.2509460449-1.4369354248.2866363525-.4100341797.0535583496-.8177337646.1585540771-1.2323760986.1386108398-.4128723145.0136413574-.8271942139.0409545898-1.2379608154-.0252075195-1.6474456787-.1428222656-3.2688598633-.7350006104-4.683303833-1.689453125-2.8653564453-1.8952484131-4.7247009277-5.2604980469-4.9549560547-8.7496643066-.0065155029-.4588165283-.0510253906-.8326416016-.0385437012-1.3628845215l.0276184082-1.5592498779.0554504395-3.1174468994.1106567383-6.2348937988.2215576172-12.4698181152.4428863525-24.9406280518,1.7719726562-99.7626190186c-.0151062012-6.4385986328-1.7754211426-6.4837341309-2.1199493408-.0545654297l-3.3360443115,99.7226715088-.8340301514,24.9301757812-.4170532227,12.4655609131-.2085266113,6.2328186035-.1042633057,3.116394043-.0520782471,1.5581817627c-.0215301514.5082244873.0115509033,1.1739349365.0213012695,1.7535095215.2451934814,4.8006134033,2.7125854492,9.5130157471,6.7597045898,12.3070678711,2.0040283203,1.4048919678,4.3869934082,2.3372955322,6.8773956299,2.5935058594.6205596924.0945129395,1.2462463379.0818786621,1.8728790283.0692901611.6291656494.0188903809,1.244140625-.09765625,1.8637542725-.1795349121.6694641113-.0840301514,1.0917816162-.1974029541,1.6245574951-.297164917l1.5281677246-.3087005615,24.4513397217-4.936050415,23.3826751709-4.9108581543,121.6255950928-25.5454406738,30.4069213867-6.3861083984,15.2029418945-3.193069458,7.6020202637-1.5959777832,3.7999572754-.799041748.9502563477-.1994781494,1.0373840332-.2604217529c.695098877-.1837463379,1.3986206055-.3391723633,2.0695495605-.6047973633,2.7268676758-.9176940918,5.2983093262-2.2932128906,7.5799560547-4.0341033936,2.278503418-1.748260498,4.2567138672-3.8629608154,5.8768310547-6.2086486816,3.2371826172-4.6976928711,5.0452575684-10.3267669678,5.197479248-15.9799499512l.5460510254-31.1041412354.4063415527-23.8895874023.9124145508-99.7734375.4567871094-49.8870544434.1133728027-12.4717102051.0577697754-6.2359313965c-.008392334-2.108001709.1154785156-4.0679016113-.0714416504-6.3917541504-.5407104492-4.4811401367-3.0323791504-8.697845459-6.7997436523-11.198059082-1.8690185547-1.2538757324-4.0425109863-2.0905151367-6.3041992188-2.3157958984-2.253326416-.2416381836-4.5822143555.1401367188-6.6234130859,1.0361633301-5.8968200684,2.849029541-5.0315856934,4.3922424316.8085021973,1.9605712891h0Z" fill="#1d1d1b"/>
    <path d="M417.8113229106,103.7653176616l7.1337280273,6.699432373,1.7839660645,1.6744384766c.5711975098.511138916,1.1234741211,1.0433959961,1.6337890625,1.6157531738,1.0227050781,1.1429138184,1.9046936035,2.4114074707,2.6270751953,3.7652893066,1.4458618164,2.7070007324,2.2522583008,5.7579956055,2.3078918457,8.8227233887-.0220336914,3.1449584961-.1322631836,6.4746398926-.1942443848,9.7028503418l-.8777770996,39.0256652832-1.7556152344,78.0512084961-1.7555847168,78.0517578125-.4389038086,19.5132141113-.1092224121,4.8782806396c-.0052490234.8525848389-.0692749023,1.5319519043-.1102294922,2.256439209-.1081848145.7087554932-.1606445312,1.4311523438-.3517456055,2.1231231689-.287689209,1.4059143066-.7958984375,2.7551879883-1.4332580566,4.025680542-.6236877441,1.2799530029-1.4364013672,2.4580688477-2.3782653809,3.5080566406-1.8553466797,2.1293945312-4.3070678711,3.6812744141-6.9677734375,4.4772186279-.3255004883.1249389648-.6730651855.1742858887-1.0111694336.2561950684-.3402099609.075592041-.6604614258.1564178467-1.086730957.2236175537l-2.4024047852.4231719971-4.8058776855.8462982178-19.2223205566,3.3841400146-36.7909545898,6.6674957275-113.1794891357,20.5096282959-56.5897369385,10.2553710938-14.1473999023,2.5641021729-3.5369110107.6415405273-.8842163086.1596069336c-.2939910889.0535583496-.6110839844.1154937744-.805770874.128112793l-.6713562012.0850524902-.6745300293.0020751953c-1.7981262207-.0304412842-3.5819549561-.7171173096-5.0470428467-1.8742370605-1.4588623047-1.1675872803-2.5775299072-2.7866821289-3.1624908447-4.59375-.1508789062-.4493865967-.2574615479-.9155883789-.3477478027-1.3828430176l-.1248474121-.8620605469-.0042114258-.045135498-.0073394775-.080871582.7476959229.65625c.3251800537.3097686768.7517089844.5964355469,1.1538543701.8841247559,1.6311645508,1.135055542,3.5011138916,1.9656219482,5.4813079834,2.3792877197,1.9684448242.4221038818,4.0776672363.3927001953,6.0053710938-.0115356445l4.8604431152-1.020614624,19.4420166016-4.0834350586,38.8840179443-8.1669158936,77.7681427002-16.3338012695,36.5914306641-7.6849517822,38.1622619629-8.2151947021,9.5402832031-2.0538024902,4.7796325684-1.0342254639c1.7377319336-.4200286865,3.4565734863-.9429321289,5.0777893066-1.6999511719,3.2570800781-1.4731750488,6.193939209-3.613067627,8.6057739258-6.2170715332,2.3898010254-2.6270751953,4.2577819824-5.6962432861,5.5230102539-8.9827423096,1.267364502-3.2875518799,1.9309692383-6.7924499512,1.9845275879-10.2931518555l.1196594238-9.7618255615.2341918945-19.5163726807.4672241211-39.0326843262,1.8805541992-156.1214599609c.0451660156-2.5242919922-.1805725098-4.5258178711-.5985107422-5.7883300781-.4031982422-1.2716674805-.8746337891-1.8034667969-1.0909423828-1.7314453125-.2446594238.0772705078-.2499084473.7305908203-.248840332,1.9468078613.0157470703,1.2215576172-.0493469238,3.0094909668-.181640625,5.5173339844l-3.445098877,156.114074707-.8588867188,39.0263977051-.4294433594,19.5132141113-.2173461914,9.7523956299c-.0776977539,3.0040435791-.6772155762,5.9818572998-1.778717041,8.751739502-1.0982666016,2.7709503174-2.6974487305,5.3319091797-4.7071533203,7.5012054443-2.0338439941,2.146194458-4.4750366211,3.8807983398-7.1557006836,5.0631103516-1.3345947266.6100463867-2.7468261719,1.015335083-4.171661377,1.3524017334l-4.766998291.9817352295-9.5613098145,1.9572143555-38.2409973145,7.8329772949-36.5924987793,7.6849517822-77.7678222656,16.3338012695-38.8840179443,8.1669158936-19.4420013428,4.0834350586-4.8605651855,1.020614624c-1.3161773682.2666931152-2.5813140869.2761535645-3.8519134521.0094299316-1.2593841553-.2624969482-2.4748687744-.7969360352-3.55909729-1.5498046875-.2682647705-.1973724365-.5401153564-.3601531982-.812789917-.6268310547l-.4085693359-.3654022217c-.0801086426-.0808563232-.1092987061-.0756072998-.2312011719-.2278594971l-.406036377-.5218353271-.812286377-1.0437011719-.406036377-.5218658447c-.0685577393-.0293884277-.1332397461-.3265533447-.1992797852-.5239562988l-.1976165771-.6478424072-.7900238037-2.5913848877-.3950042725-1.295715332-.1989746094-.6698760986-.2624969482-1.6170043945-2.7348327637.4073944092-.1553955078.0230865479.08253479-.0126037598.0413665771-.0052337646-.4716644287.0850524902-.5477752686.0986938477-.27394104.0493621826c-.0956573486.0136566162-.2003479004.0188751221-.1776733398.1260070801l-.131149292.9817352295-.3059539795,2.0695343018c-.2147369385,1.4301300049-.4249420166,3.0019683838-.4958190918,4.6095123291-.0764465332,1.6075439453-.0175476074,3.209854126.1010131836,4.7155456543.1020507812,1.5046539307.3357849121,2.8864440918.7857055664,4.2777252197.8943939209,2.7541046143,2.597076416,5.2436676025,4.8845062256,7.0706787109,2.2856292725,1.8175506592,5.1936035156,2.9609680176,8.1992340088,3.0135040283l1.1226501465-.0105133057,1.112701416-.13230896c.4020385742-.0451507568.6728363037-.1007843018.9683074951-.1543426514l.8842010498-.1606292725,3.5369262695-.6405181885,14.1473846436-2.5640869141,56.5901641846-10.2553405762,113.1795043945-20.5107116699,36.7909240723-6.6675109863,19.187713623-3.5762939453,4.7963867188-.8935241699,2.398223877-.4473114014c.3769226074-.0619659424.8473510742-.1743164062,1.2998962402-.2803649902.4515075684-.1123504639.9103393555-.1952972412,1.3481750488-.3580322266,3.5563659668-1.0972595215,6.7871704102-3.2172088623,9.1801757812-6.0133666992,1.2127685547-1.383895874,2.2449035645-2.9232177734,3.0344848633-4.5727386475.8022155762-1.6411590576,1.4258728027-3.3726043701,1.7797546387-5.1576080322.2236633301-.883026123.2961120605-1.7934112549.4147338867-2.6911468506.0504150391-.8988037109.1102600098-1.8427429199.1050109863-2.6165924072l.0609130859-4.8793640137.2425537109-19.5163574219.974395752-78.0643463135.9733581543-78.0655822754.486114502-39.0325012207c.0294189453-3.2767333984.1071166992-6.4517211914.0966491699-9.8120422363-.0987243652-3.4414672852-1.0353088379-6.8449401855-2.6838378906-9.8584289551-.8242492676-1.5070800781-1.825958252-2.9175415039-2.9851379395-4.1873168945-.5795898438-.6356506348-1.2043457031-1.2274475098-1.8522033691-1.7934875488l-1.7902832031-1.6479797363-7.1588745117-6.5910339355c-7.4718017578-6.7022094727-8.7097167969-5.4486999512-1.4301147461,1.5659179688h0Z" fill="#1d1d1b"/>
  </g>
  <path d="M230.6285989116,345.9752480815c-27.2624053955.5312652588-50.8841705322-3.0954284668-68.5612335205-8.3622131348,6.2167510986,11.0165863037,31.9085693359,22.1413421631,68.6883850098,21.4241943359,40.5795593262-.7906646729,79.0431518555-13.5964508057,80.9457397461-25.5202331543-20.8550720215,6.6149902344-50.1028137207,11.8544921875-81.0728912354,12.4582519531h0Z" fill="#005538"/>
  <path d="M310.4236581157,334.2530190776c-.6069030762,1.5277557373-1.8060302734,2.8822784424-3.144744873,4.0635223389-1.3513793945,1.188583374-2.9116516113,2.1871337891-4.4981994629,3.1237487793-3.2182617188,1.8343353271-6.6664428711,3.3284759521-10.2007446289,4.5968780518-7.0780639648,2.5315551758-14.4375,4.340713501-21.8630981445,5.7004699707-1.765045166.3832397461-3.535369873.7570343018-5.3140563965,1.0835876465-9.246307373,1.7471923828-18.6280517578,2.8528594971-28.0318603516,3.3473968506-9.4117736816.5029449463-18.8129577637.3223571777-28.1139526367-.7938079834-1.784576416-.226776123-3.5769348145-.4095001221-5.3424987793-.740234375-7.4451446533-.9281921387-14.8300018311-2.49269104-21.8933410645-4.9759368896-3.4898834229-1.308303833-6.9784088135-2.7257995605-10.1453094482-4.6546783447-3.1625976562-1.8941955566-6.189239502-4.145401001-8.3011016846-7.0528259277-.9140167236-1.024810791-2.5148468018-.266708374-1.7721862793,1.1644439697,2.1773834229,3.4649963379,5.2816009521,6.0805664062,8.5090942383,8.3338470459,3.2402954102,2.2837524414,6.7778625488,4.0120544434,10.3467102051,5.6332397461,7.2014160156,3.099609375,14.7620544434,5.2436981201,22.425994873,6.735748291,1.8410644531.3423156738,3.6985168457.5344696045,5.551361084.7696685791,9.638458252,1.1581268311,19.3781433105,1.3387451172,29.0071716309.8231811523,9.6411132812-.5071258545,19.2423095703-1.6379852295,28.7374572754-3.4313964844,1.8269958496-.3370361328,3.6466674805-.7202911377,5.4631347656-1.1150970459,7.5263977051-1.9162445068,14.9541320801-4.283996582,22.1098632812-7.4077453613,3.5731506348-1.5665893555,7.0696716309-3.3652496338,10.3677062988-5.5555419922,1.6337890625-1.1224517822,3.2392578125-2.3079223633,4.6756286621-3.7527008057,1.4154052734-1.4427185059,2.7572937012-3.1090545654,3.4345703125-5.2143096924.2740478516-1.7891845703-1.5529785156-1.7639923096-2.007598877-.6814575195h0Z" fill="#1d1d1b"/>
  <path d="M162.7690865825,338.9160897563c13.6925354004,4.508682251,27.9316711426,7.3006439209,42.2919006348,8.9554443359,1.7245178223.1459655762,3.4528198242.2309875488,5.1790161133.3496704102,17.9839782715,1.0111236572,35.9887542725.1396179199,53.8114624023-2.0254821777l5.1344909668-.6793212891c14.2022705078-2.5284118652,28.2460327148-5.9388275146,41.8382873535-10.6837768555,1.2789001465-.5785369873.7370910645-2.2543487549-.6310424805-2.0254516602-13.7476501465,3.7012634277-27.8208007812,6.0469512939-41.9359436035,7.5096130371l-5.0515441895.6688537598c-17.537109375,2.1314849854-35.2649841309,2.9861907959-52.866973877,1.9949951172-1.6907196045-.1175994873-3.3841552734-.2005615234-5.072555542-.3433685303-14.1425628662-.5921783447-28.3062286377-2.3047180176-42.104675293-5.7571411133-1.3696289062-.2047424316-1.8839111328,1.4794616699-.5924224854,2.0359649658h0Z" fill="#1d1d1b"/>
  <path d="M273.8248421977,452.4788186381c-1.449005127-2.8402709961-3.1762390137-6.2443237305-5.107208252-10.0831298828,2.8224182129-4.0278015137,5.6458740234-8.2677001953,8.2278137207-12.4918823242-1.1885986328,8.2572021484-2.2826843262,16.2844848633-3.1206054688,22.575012207h0ZM247.820554478,458.4386269877c-3.1479034424-4.4866638184-6.146697998-8.8588867188-9.0205535889-13.1323547363,3.7442932129-6.5551452637,8.078704834-14.2474365234,12.6388549805-22.5508575439,3.3243103027,6.82081604,6.4711608887,13.1701507568,9.2820129395,18.7813873291-4.6851196289,6.504699707-9.3324279785,12.4949951172-12.9003143311,16.9018249512h0ZM222.66654752,459.3101174662c-2.4929199219-2.2764282227-6.3786315918-6.1761169434-10.4741668701-11.5940856934,2.4455566406-5.4474182129,5.2080993652-11.6487121582,8.1468353271-18.3330078125,3.2437744141,5.1617736816,6.7132873535,10.525177002,10.3974151611,16.0649719238-3.503326416,6.0921325684-6.3248748779,10.9053344727-8.0700836182,13.862121582h0ZM201.212842686,455.3054177592c-.4254608154-4.5401611328-.8538513184-9.2357788086-1.2572631836-13.8158874512,1.4196929932,2.5031738281,2.8862304688,4.8226318359,4.3570709229,6.969909668-1.1265411377,2.4979248047-2.1665802002,4.7932128906-3.0998077393,6.8459777832h0ZM169.0695168803,364.0614907573c-4.329574585-19.0638275146,2.592956543-34.9293212891,2.6635284424-35.0878753662.2514801025-.5617218018.3495483398-1.1613006592.3125762939-1.7482299805,1.0894927979,5.1365966797,6.16065979,25.3669433594,24.0509796143,59.9749298096-2.4940490723,5.2437286377-4.7739257812,7.1494598389-6.2647094727,7.821472168-1.1110992432-1.4080657959-2.3264770508-2.9232177734-3.6688079834-4.5874481201-6.8866424561-8.5386352539-15.4566192627-19.1646118164-17.0935668945-26.3728485107h0ZM197.8100106547,409.7396218608c.2189178467-2.4286499023-1.006652832-5.1481323242-3.6512756348-8.9627838135,2.0876159668-1.3324584961,4.0205535889-3.4104156494,5.8029174805-6.2517242432,4.5704498291,8.4892730713,9.8511047363,17.7376861572,15.98046875,27.7640991211-2.9608764648,6.7683105469-5.7785491943,13.1208190918-8.3147277832,18.7897949219-3.5420684814-5.6584777832-6.9111938477-12.428894043-9.3480377197-20.2723693848-.3931274414-5.6206665039-.5915679932-9.71144104-.4693450928-11.0670166016h0ZM211.1270577739,355.306592686c1.0090332031-6.9132232666,1.7514038086-13.7760162354,2.2920379639-19.8208465576,4.6464385986,13.6678314209,11.6646575928,30.4573364258,19.2690734863,47.3728637695-1.5867767334,3.87550354-3.2798919678,7.9610595703-5.0937652588,12.2807769775-2.7803955078,6.6223449707-5.5915527344,13.1953430176-8.328918457,19.5163421631-6.0301513672-10.0495605469-11.1748199463-19.2717132568-15.5909118652-27.6885070801,3.0137023926-7.6607818604,5.4850769043-18.1838989258,7.4524841309-31.6606292725h0ZM236.5845010112,391.4286782573c3.7180633545,8.0923461914,7.5001525879,16.0954589844,11.152053833,23.6827392578-4.7144927979,8.6530303955-9.2568054199,16.761138916-13.231048584,23.7467956543-3.8759765625-5.8894348145-7.4961547852-11.5668029785-10.8651885986-17.0194396973,3.2906036377-7.5568389893,6.7214660645-15.5463104248,10.1089782715-23.6134643555.9777679443-2.3299407959,1.9217071533-4.59375,2.8352050781-6.7966308594h0ZM259.4031197856,329.2371957133l11.7263793945,40.2695922852c-3.7485046387,7.9547729492-8.3149414062,17.150680542-13.8725891113,27.7840423584-1.8406677246,3.5217132568-3.6949462891,7.019241333-5.5419006348,10.4611206055-3.8461608887-8.0482025146-7.7920532227-16.472366333-11.6130065918-24.8912658691,10.9452056885-26.9272613525,16.5469665527-43.3901977539,19.3011169434-53.6234893799h0ZM281.0446603129,403.5540902446c-.203704834,1.1707305908-.4084472656,2.3782348633-.6163635254,3.6235198975-2.0516967773,7.3468780518-8.3338317871,17.9129943848-15.2879943848,28.0696716309-2.9757080078-5.9755554199-6.274810791-12.6714019775-9.7219543457-19.7946166992,2.5641174316-4.7386169434,5.1618041992-9.6085205078,7.7332458496-14.5277862549,4.1212463379-7.8844451904,7.723815918-15.0170898438,10.8727416992-21.4787750244l7.020324707,24.1079864502h0ZM305.6608407328,322.4793832133c-1.8668823242-.1470031738-3.4345397949,1.3240356445-3.5248413086,3.2938537598-.3433532715,7.5778503418-1.8574523926,28.5788879395-4.6924438477,34.6762390137-6.4480285645,13.8652496338-10.7687988281,23.0495910645-12.8425598145,27.2958221436-.1984558105.4063110352-.4147338867,1.0289916992-.6436462402,1.8017883301l-5.5912475586-19.1992492676c17.3974609375-37.3033599854,17.2126464844-48.4428100586,15.1094970703-53.4870147705-.7612609863-1.8259429932-2.7520446777-2.6890411377-4.4499206543-1.9340820312-1.6967773438.7580871582-2.454864502,2.851776123-1.6936340332,4.6766967773.8284606934,1.9855499268,1.6380004883,10.1114959717-11.9258728027,40.5793609619l-13.8085632324-47.4201202393c-.1007995605-.4273376465-.2131652832-.762298584-.3108215332-1.05418396-.6194763184-1.8490600586-2.5031738281-2.8717651367-4.2388305664-2.3058166504-1.7356567383.5670166016-2.6869506836,2.5178985596-2.141998291,4.3910980225l.1112976074.3800964355c.541809082,2.3698577881-.004196167,13.0389099121-18.810760498,60.0001678467-10.7221679688-24.205657959-19.7257080078-47.2268981934-21.4869842529-59.6977539062-.2593536377-1.8354034424-1.7938079834-3.2150878906-3.5218963623-3.1447753906-1.7363891602.0546264648-3.1109619141,1.5067749023-3.1713256836,3.3516235352-.0065002441.1931915283-.6684265137,19.5950927734-3.5618133545,39.3886566162-1.5588226318,10.6637878418-3.3276519775,18.5765838623-5.1126556396,24.4544830322-17.4197998047-34.9093475342-20.8779907227-53.350479126-20.9285888672-53.639251709-.3364257812-1.9530029297-2.0964355469-3.2969970703-3.9198608398-2.9882965088-1.8286895752.3024139404-3.0383758545,2.12940979-2.7024993896,4.0824127197.0087280273.0493469238.0224761963.1270599365.0422058105.2341308594-.2948303223-.8557434082-.8907165527-1.6044006348-1.7200012207-2.0443267822-1.6807250977-.8935546875-3.6871795654-.1900482178-4.4813995361,1.5729064941-.3303222656.7328796387-8.0244140625,18.1901855469-3.1151275635,39.809677124,2.0279541016,8.92918396,10.8199310303,19.8303222656,18.5771026611,29.4483032227,4.0433502197,5.0137634277,9.5640411377,11.8586730957,9.9910888672,14.0153961182-.1334686279,1.8941955566.0987854004,6.650680542.5205841064,12.7028961182.0023040771.0241699219.0023040771.0482788086.0050354004.0724487305,1.1565704346,16.5658569336,3.7234039307,42.7696533203,4.1114807129,46.7029418945.1571807861,1.5918273926,1.2851104736,2.9106140137,2.7646484375,3.2319030762.2489471436.0535583496.4968719482.0766601562.7408905029.0724487305,1.2103271484-.0241699219,2.3221740723-.7444458008,2.8696289062-1.9215087891.0652160645-.1406555176,2.7390441895-5.9030456543,6.9069213867-15.1116027832,6.5726928711,8.1070556641,12.2229309082,12.4026489258,12.6665649414,12.7344360352.6043701172.4504394531,1.3202667236.6824951172,2.0390014648.6677856445.1811218262-.0031433105.3624572754-.0220336914.5422058105-.0567016602.8933410645-.1753540039,1.6709747314-.7297363281,2.1549224854-1.5382385254.0791625977-.1312255859,3.4471435547-5.7603149414,8.6212310791-14.7178955078,3.1667938232,4.6641235352,6.4889984131,9.4531860352,9.9749908447,14.3682556152.6163635254.8672790527,1.5592498779,1.4080200195,2.5683135986,1.4700012207,1.006942749.0598449707,1.9781951904-.3612060547,2.6407470703-1.1519165039,1.4668579102-1.7503356934,7.3521118164-8.8577575684,14.046875-17.9570617676,4.780670166,9.4489440918,8.0325317383,15.6838684082,8.5743103027,16.7191772461.631072998,1.2063903809,1.8322753906,1.933013916,3.0870056152,1.9078063965.1596069336-.0031433105.318145752-.0178527832.4777526855-.0451660156,1.4206542969-.2456359863,2.5074157715-1.4332275391,2.7026977539-2.949432373,2.5462646484-19.8061523438,5.5586853027-41.1232452393,7.9463806152-55.6499938965.4305419922-1.6516418457.7035217285-3.2035217285.7791137695-4.6241912842,1.1854553223-6.8449401855,2.1619567871-11.5237426758,2.7604675293-12.7627410889,2.0926513672-4.2850494385,6.4323120117-13.510345459,12.8992614746-27.4165344238,3.9511413574-8.4955749512,5.2321166992-34.5072174072,5.3654785156-37.4440460205.0892333984-1.9708709717-1.342956543-3.6907501221-3.2004089355-3.8409118652h0Z" fill="#f5f1e9"/>
  <g clip-path="url(#clippath-2)">
    <path d="M273.8248421977,452.4788186381c-1.449005127-2.8402709961-3.1762390137-6.2443237305-5.107208252-10.0831298828,2.8224182129-4.0278015137,5.6458740234-8.2677001953,8.2278137207-12.4918823242-1.1885986328,8.2572021484-2.2826843262,16.2844848633-3.1206054688,22.575012207h0ZM247.820554478,458.4386269877c-3.1479034424-4.4866638184-6.146697998-8.8588867188-9.0205535889-13.1323547363,3.7442932129-6.5551452637,8.078704834-14.2474365234,12.6388549805-22.5508575439,3.3243103027,6.82081604,6.4711608887,13.1701507568,9.2820129395,18.7813873291-4.6851196289,6.504699707-9.3324279785,12.4949951172-12.9003143311,16.9018249512h0ZM222.66654752,459.3101174662c-2.4929199219-2.2764282227-6.3786315918-6.1761169434-10.4741668701-11.5940856934,2.4455566406-5.4474182129,5.2080993652-11.6487121582,8.1468353271-18.3330078125,3.2437744141,5.1617736816,6.7132873535,10.525177002,10.3974151611,16.0649719238-3.503326416,6.0921325684-6.3248748779,10.9053344727-8.0700836182,13.862121582h0ZM201.212842686,455.3054177592c-.4254608154-4.5401611328-.8538513184-9.2357788086-1.2572631836-13.8158874512,1.4196929932,2.5031738281,2.8862304688,4.8226318359,4.3570709229,6.969909668-1.1265411377,2.4979248047-2.1665802002,4.7932128906-3.0998077393,6.8459777832h0ZM169.0695168803,364.0614907573c-4.329574585-19.0638275146,2.592956543-34.9293212891,2.6635284424-35.0878753662.2514801025-.5617218018.3495483398-1.1613006592.3125762939-1.7482299805,1.0894927979,5.1365966797,6.16065979,25.3669433594,24.0509796143,59.9749298096-2.4940490723,5.2437286377-4.7739257812,7.1494598389-6.2647094727,7.821472168-1.1110992432-1.4080657959-2.3264770508-2.9232177734-3.6688079834-4.5874481201-6.8866424561-8.5386352539-15.4566192627-19.1646118164-17.0935668945-26.3728485107h0ZM197.8100106547,409.7396218608c.2189178467-2.4286499023-1.006652832-5.1481323242-3.6512756348-8.9627838135,2.0876159668-1.3324584961,4.0205535889-3.4104156494,5.8029174805-6.2517242432,4.5704498291,8.4892730713,9.8511047363,17.7376861572,15.98046875,27.7640991211-2.9608764648,6.7683105469-5.7785491943,13.1208190918-8.3147277832,18.7897949219-3.5420684814-5.6584777832-6.9111938477-12.428894043-9.3480377197-20.2723693848-.3931274414-5.6206665039-.5915679932-9.71144104-.4693450928-11.0670166016h0ZM211.1270577739,355.306592686c1.0090332031-6.9132232666,1.7514038086-13.7760162354,2.2920379639-19.8208465576,4.6464385986,13.6678314209,11.6646575928,30.4573364258,19.2690734863,47.3728637695-1.5867767334,3.87550354-3.2798919678,7.9610595703-5.0937652588,12.2807769775-2.7803955078,6.6223449707-5.5915527344,13.1953430176-8.328918457,19.5163421631-6.0301513672-10.0495605469-11.1748199463-19.2717132568-15.5909118652-27.6885070801,3.0137023926-7.6607818604,5.4850769043-18.1838989258,7.4524841309-31.6606292725h0ZM236.5845010112,391.4286782573c3.7180633545,8.0923461914,7.5001525879,16.0954589844,11.152053833,23.6827392578-4.7144927979,8.6530303955-9.2568054199,16.761138916-13.231048584,23.7467956543-3.8759765625-5.8894348145-7.4961547852-11.5668029785-10.8651885986-17.0194396973,3.2906036377-7.5568389893,6.7214660645-15.5463104248,10.1089782715-23.6134643555.9777679443-2.3299407959,1.9217071533-4.59375,2.8352050781-6.7966308594h0ZM259.4031197856,329.2371957133l11.7263793945,40.2695922852c-3.7485046387,7.9547729492-8.3149414062,17.150680542-13.8725891113,27.7840423584-1.8406677246,3.5217132568-3.6949462891,7.019241333-5.5419006348,10.4611206055-3.8461608887-8.0482025146-7.7920532227-16.472366333-11.6130065918-24.8912658691,10.9452056885-26.9272613525,16.5469665527-43.3901977539,19.3011169434-53.6234893799h0ZM281.0446603129,403.5540902446c-.203704834,1.1707305908-.4084472656,2.3782348633-.6163635254,3.6235198975-2.0516967773,7.3468780518-8.3338317871,17.9129943848-15.2879943848,28.0696716309-2.9757080078-5.9755554199-6.274810791-12.6714019775-9.7219543457-19.7946166992,2.5641174316-4.7386169434,5.1618041992-9.6085205078,7.7332458496-14.5277862549,4.1212463379-7.8844451904,7.723815918-15.0170898438,10.8727416992-21.4787750244l7.020324707,24.1079864502h0ZM305.6608407328,322.4793832133c-1.8668823242-.1470031738-3.4345397949,1.3240356445-3.5248413086,3.2938537598-.3433532715,7.5778503418-1.8574523926,28.5788879395-4.6924438477,34.6762390137-6.4480285645,13.8652496338-10.7687988281,23.0495910645-12.8425598145,27.2958221436-.1984558105.4063110352-.4147338867,1.0289916992-.6436462402,1.8017883301l-5.5912475586-19.1992492676c17.3974609375-37.3033599854,17.2126464844-48.4428100586,15.1094970703-53.4870147705-.7612609863-1.8259429932-2.7520446777-2.6890411377-4.4499206543-1.9340820312-1.6967773438.7580871582-2.454864502,2.851776123-1.6936340332,4.6766967773.8284606934,1.9855499268,1.6380004883,10.1114959717-11.9258728027,40.5793609619l-13.8085632324-47.4201202393c-.1007995605-.4273376465-.2131652832-.762298584-.3108215332-1.05418396-.6194763184-1.8490600586-2.5031738281-2.8717651367-4.2388305664-2.3058166504-1.7356567383.5670166016-2.6869506836,2.5178985596-2.141998291,4.3910980225l.1112976074.3800964355c.541809082,2.3698577881-.004196167,13.0389099121-18.810760498,60.0001678467-10.7221679688-24.205657959-19.7257080078-47.2268981934-21.4869842529-59.6977539062-.2593536377-1.8354034424-1.7938079834-3.2150878906-3.5218963623-3.1447753906-1.7363891602.0546264648-3.1109619141,1.5067749023-3.1713256836,3.3516235352-.0065002441.1931915283-.6684265137,19.5950927734-3.5618133545,39.3886566162-1.5588226318,10.6637878418-3.3276519775,18.5765838623-5.1126556396,24.4544830322-17.4197998047-34.9093475342-20.8779907227-53.350479126-20.9285888672-53.639251709-.3364257812-1.9530029297-2.0964355469-3.2969970703-3.9198608398-2.9882965088-1.8286895752.3024139404-3.0383758545,2.12940979-2.7024993896,4.0824127197.0087280273.0493469238.0224761963.1270599365.0422058105.2341308594-.2948303223-.8557434082-.8907165527-1.6044006348-1.7200012207-2.0443267822-1.6807250977-.8935546875-3.6871795654-.1900482178-4.4813995361,1.5729064941-.3303222656.7328796387-8.0244140625,18.1901855469-3.1151275635,39.809677124,2.0279541016,8.92918396,10.8199310303,19.8303222656,18.5771026611,29.4483032227,4.0433502197,5.0137634277,9.5640411377,11.8586730957,9.9910888672,14.0153961182-.1334686279,1.8941955566.0987854004,6.650680542.5205841064,12.7028961182.0023040771.0241699219.0023040771.0482788086.0050354004.0724487305,1.1565704346,16.5658569336,3.7234039307,42.7696533203,4.1114807129,46.7029418945.1571807861,1.5918273926,1.2851104736,2.9106140137,2.7646484375,3.2319030762.2489471436.0535583496.4968719482.0766601562.7408905029.0724487305,1.2103271484-.0241699219,2.3221740723-.7444458008,2.8696289062-1.9215087891.0652160645-.1406555176,2.7390441895-5.9030456543,6.9069213867-15.1116027832,6.5726928711,8.1070556641,12.2229309082,12.4026489258,12.6665649414,12.7344360352.6043701172.4504394531,1.3202667236.6824951172,2.0390014648.6677856445.1811218262-.0031433105.3624572754-.0220336914.5422058105-.0567016602.8933410645-.1753540039,1.6709747314-.7297363281,2.1549224854-1.5382385254.0791625977-.1312255859,3.4471435547-5.7603149414,8.6212310791-14.7178955078,3.1667938232,4.6641235352,6.4889984131,9.4531860352,9.9749908447,14.3682556152.6163635254.8672790527,1.5592498779,1.4080200195,2.5683135986,1.4700012207,1.006942749.0598449707,1.9781951904-.3612060547,2.6407470703-1.1519165039,1.4668579102-1.7503356934,7.3521118164-8.8577575684,14.046875-17.9570617676,4.780670166,9.4489440918,8.0325317383,15.6838684082,8.5743103027,16.7191772461.631072998,1.2063903809,1.8322753906,1.933013916,3.0870056152,1.9078063965.1596069336-.0031433105.318145752-.0178527832.4777526855-.0451660156,1.4206542969-.2456359863,2.5074157715-1.4332275391,2.7026977539-2.949432373,2.5462646484-19.8061523438,5.5586853027-41.1232452393,7.9463806152-55.6499938965.4305419922-1.6516418457.7035217285-3.2035217285.7791137695-4.6241912842,1.1854553223-6.8449401855,2.1619567871-11.5237426758,2.7604675293-12.7627410889,2.0926513672-4.2850494385,6.4323120117-13.510345459,12.8992614746-27.4165344238,3.9511413574-8.4955749512,5.2321166992-34.5072174072,5.3654785156-37.4440460205.0892333984-1.9708709717-1.342956543-3.6907501221-3.2004089355-3.8409118652h0Z" fill="none" stroke="#1d1d1b" stroke-miterlimit="10" stroke-width="3.1499998569"/>
  </g>
  <path d="M228.6331612895,320.9117410014c33.8537902832-.6594238281,66.4699401855,7.1011505127,83.2300415039,16.2729034424.0682373047-.4284057617-.067199707-4.5286712646-.0955505371-4.953918457-1.267364502-19.2538452148-40.8933105469-28.0339202881-82.9355010986-27.2149505615-42.0427398682.8200683594-68.7515869141,15.6292572021-68.2130432129,27.908996582.0383300781.8736114502.2286987305,1.7587585449.5359344482,2.6502075195,12.8825378418-7.7132873535,36.5733642578-14.0605316162,67.4781188965-14.6632385254h0Z" fill="#008939"/>
  <path d="M161.8610513041,334.1963326762c-.3631896973-1.7766113281.0601654053-3.5878448486.8676147461-5.2384643555.8180541992-1.658996582,2.0797424316-3.1384429932,3.4749755859-4.4708862305,2.8499145508-2.6386566162,6.2745819092-4.7250061035,9.8572998047-6.4490966797,7.1939544678-3.4524078369,15.028427124-5.5902099609,22.9242248535-7.0623016357,1.8799285889-.4179077148,3.7761077881-.7727966309,5.6761932373-1.1066894531,9.9088439941-1.7041625977,19.968170166-2.323638916,30.1024475098-2.2721862793,10.1251525879.0272827148,20.2545013428.5974121094,30.2473449707,1.9487915039,1.9194030762.2624816895,3.8367004395.544921875,5.7403564453.8809204102,7.9884033203,1.1214141846,15.9505615234,2.7657012939,23.3803405762,5.6889038086,3.7023010254,1.4637145996,7.2702026367,3.2802124023,10.3036499023,5.7225189209,1.4909973145,1.2337341309,2.8916931152,2.5903320312,3.9543151855,4.1705932617,1.0615539551,1.5760498047,1.8259277344,3.3337402344,2.1766357422,5.1996002197.3633117676,1.396484375,2.1409606934,1.4364013672,2.0957946777-.318145752-.2656555176-2.1913604736-1.0342407227-4.3239135742-2.150390625-6.2265167236-1.1192932129-1.909942627-2.599822998-3.5395507812-4.1748046875-5.0200500488-3.2014465332-2.9263305664-6.9142456055-5.1051025391-10.7320251465-6.9058380127-7.6671142578-3.5899353027-15.7993774414-5.8012390137-23.9662780762-7.4854431152-1.96875-.3475341797-3.9438171387-.6384277344-5.9188537598-.9082641602-10.2805175781-1.3891601562-20.6188354492-1.96875-30.9445343018-1.9970703125-10.3120574951-.0535583496-20.7463226318.5806274414-31.0048217773,2.348815918-1.9725189209.3454589844-3.9426422119.715057373-5.90184021,1.1497802734-8.1159667969,2.0569458008-16.1264190674,4.7879638672-23.5182189941,8.9281158447-3.6799316406,2.0737609863-7.2174835205,4.5244598389-10.2100830078,7.6713104248-1.467590332,1.5949554443-2.8172454834,3.3736572266-3.6948547363,5.4663085938-.8687744141,2.0632476807-1.2693328857,4.5065917969-.6528778076,6.7535858154.2914733887.8442077637.9116973877,1.0710144043,1.3623809814.9103546143.4622955322-.1638031006.7772979736-.6761932373.7060089111-1.3786468506h0Z" fill="#1d1d1b"/>
  <path d="M309.4093453715,327.6810738871c.254119873.896697998.4872131348,1.8133544922.6919555664,2.7247467041.1007995605.4567718506.1974182129.9135131836.2814025879,1.3670959473.0829467773.444152832.1701049805.9733581543.1753540039,1.1371612549.0231018066.2456970215.0356750488.487197876.0104980469.71925354-.030456543.2331085205-.1669616699.4462585449-.3569946289.5795898438-.1889953613.136505127-.4315490723.191116333-.6604614258.1575012207-.2320556641-.0356903076-.4231567383-.1784820557-.6163635254-.2782440186l-.2078857422-.1175994873-.4399414062-.2247009277-.994354248-.5029449463c-.6594238281-.3465118408-1.3345336914-.647857666-2.0097045898-.9533996582-1.3492431641-.6132049561-2.6963806152-1.2389984131-4.0729675293-1.7797546387-1.3691711426-.5648956299-2.739440918-1.1308441162-4.1317138672-1.626449585-1.3870544434-.5144805908-2.7720031738-1.041595459-4.1779785156-1.4931030273-5.6006774902-1.8983917236-11.292755127-3.530090332-17.0520019531-4.8636016846-1.8416748047-.3811340332-3.6959838867-.6887817383-5.5429382324-1.0352935791-9.6326904297-1.6579589844-19.3661956787-2.6564941406-29.1269989014-3.0701904297-9.7718200684-.3832550049-19.5455474854-.0672149658-29.2772369385.7843475342l-5.6077575684.5942840576c-7.7635803223,1.2064666748-15.4645080566,2.8455200195-23.0005493164,5.0778045654-7.5075073242,2.2974090576-14.9263916016,5.0935516357-21.6833343506,9.2253112793-1.2498168945.9103393555-.3124847412,2.4023895264,1.0522003174,1.8416900635,6.749710083-3.5311584473,14.1376190186-5.7665863037,21.5721435547-7.5032806396,7.4669799805-1.6758117676,15.0607757568-2.7646789551,22.6830444336-3.4282684326l5.466293335-.5795898438c9.5010223389-.8305511475,19.064743042-1.1402893066,28.5894012451-.7665100098,9.5277099609.4042510986,19.0417480469,1.3797149658,28.4392700195,2.997756958,1.8007202148.3391418457,3.6098632812.6373443604,5.4032897949,1.0090484619,5.6909790039.9197845459,11.3315734863,2.1346435547,16.8997497559,3.6120147705,1.3996276855.3475341797,2.7740783691.7675323486,4.1548461914,1.1770324707,1.388092041.3906097412,2.7499389648.8484039307,4.1128234863,1.3072509766,1.3744812012.4347076416,2.7121582031.9502563477,4.0571899414,1.4563446045.6730651855.2509460449,1.3492736816.4987487793,2.0023803711.7895965576l2.3267822266.9996032715c.6898803711.2982025146,1.3230285645.4598999023,1.9866027832.4084472656.6614990234-.0566864014,1.3072509766-.3275909424,1.8081054688-.7685852051.4998168945-.4389038086.8557434082-1.0405578613.979675293-1.6821136475.1123352051-.6415405273.0808410645-1.3408355713-.0472717285-2.0401306152-.1196899414-.7822723389-.2415161133-1.1928100586-.3601379395-1.6842041016-.1228637695-.4819641113-.2572631836-.9555206299-.3958435059-1.4269561768-.2793273926-.9418487549-.5816955566-1.8669128418-.9135131836-2.794052124-.1606750488-.3527984619-.3958435059-.589050293-.6467895508-.7108612061-.1354675293-.0776824951-.2551574707-.0892333984-.3969116211-.122833252-.1186523438-.0997467041-.2593383789-.1007995605-.3034362793-.0545959473-.0514526367.0419921875-.0504150391.101852417-.0504150391.1616821289.0010375977-.016784668.008392334.1480560303-.0314941406.1911010742-.0325622559.0651092529-.1543579102.0944976807-.2488708496.03465271-.1039428711.0524902344-.1721801758.1722106934-.2383422852.2677612305-.1217956543.2309875488-.1701049805.5249938965-.1007995605.8861846924h0Z" fill="#1d1d1b"/>
  <path d="M193.9301583598,156.5017068217c34.5233459473,0,62.5098571777,27.9866943359,62.5098571777,62.5096435547,0,34.5239868164-27.9865112305,62.5106811523-62.5098571777,62.5106811523-34.5233764648,0-62.5101013184-27.9866943359-62.5101013184-62.5106811523,0-34.5229492188,27.9867248535-62.5096435547,62.5101013184-62.5096435547" fill="#8abd24"/>
  <path d="M192.9203622172,162.2853066752c-.5247802734-.0145874023-1.0469665527-.0397949219-1.5752105713-.0397949219-30.8319854736,0-55.8262786865,24.9942932129-55.8262786865,55.8260803223,0,.528137207.0252380371,1.0510559082.0398101807,1.5749816895,7.8975524902-27.6639099121,29.6973266602-49.463684082,57.3616790771-57.3612670898h0Z" fill="#c1d564"/>
  <path d="M248.336103184,189.356717808c3.7516479492,29.6997680664-5.0610046387,48.5314941406-23.4692840576,66.2576293945-18.9577484131,18.255279541-46.3430023193,16.5070495605-67.8687438965,12.9643249512,23.8864593506,18.0820617676,57.8232879639,16.9596252441,80.0589294434-4.0918273926,20.8939361572-19.7820129395,24.7841949463-50.8452148438,11.2790985107-75.1301269531h0Z" fill="#008939"/>
  <path d="M189.9793221782,155.7492654155c-5.4245147705,3.7300109863-10.0436859131,8.5548706055-13.9283599854,13.8625183105-3.8867950439,5.3207702637-7.0578918457,11.1481628418-9.6182098389,17.2249450684-.5600738525,1.4756469727-1.0326843262,2.981048584-1.5518951416,4.4705810547-2.5556030273,7.796875-4.1001434326,15.8862915039-4.8222351074,24.0279846191-.688583374,8.1427612305-.6416473389,16.3652954102.4297637939,24.4828491211.169052124,1.5645141602.4424743652,3.116394043.6871185303,4.6714477539,1.3387451172,6.4407043457,3.3347015381,12.7364807129,5.9110870361,18.768737793,2.6614227295,5.9934082031,5.9381561279,11.7484741211,10.1694641113,16.7601013184.9097137451.9051208496,2.2626342773-.2225952148,1.6755828857-1.2988586426-3.6601867676-5.1281738281-6.3391723633-10.8832397461-8.4111328125-16.7989501953-1.9876556396-5.9577026367-3.3983306885-12.0980834961-4.1696472168-18.3130493164-.231842041-1.48046875-.4940185547-2.9557495117-.6539611816-4.4477844238-1.023223877-7.7332458496-1.0648956299-15.5872497559-.4088592529-23.3603820801.6885986328-7.7689819336,2.1620483398-15.4822692871,4.588180542-22.8769836426.4937133789-1.4106750488.9398651123-2.8403625488,1.4700012207-4.236328125,1.9478607178-5.9302062988,4.4973602295-11.6873474121,7.7660064697-17.0223999023,3.268661499-5.3234863281,7.2666320801-10.2460021973,12.1270751953-14.2085876465.8436889648-.8832702637-.141418457-2.3439331055-1.259979248-1.7058410645h0Z" fill="#005538"/>
  <path d="M132.8512551616,231.112577183c1.1859283447,1.2810058594,2.5266265869,2.2564697266,3.9266662598,3.1048583984.6923370361.4451904297,1.4198150635.7958984375,2.1322479248,1.198059082l2.1961669922,1.036315918c2.9645690918,1.2831115723,6.0283660889,2.2249755859,9.1115722656,3.0807495117,6.1872406006,1.5854797363,12.4850311279,2.5619812012,18.7918548584,3.2245178223,1.5295257568.1018676758,3.070098877.1522521973,4.5950164795.186920166,7.9327392578.1186523438,15.7919006348-.3486328125,23.6243591309-1.1991271973,7.8279724121-.8609924316,15.6204376221-2.1440734863,23.3127288818-4.0235900879,1.4812469482-.3475341797,2.9518585205-.7518005371,4.4233398438-1.1507873535,6.0576629639-1.9761047363,12.0235443115-4.3469848633,17.6284484863-7.4927978516,2.7919464111-1.583404541,5.4956970215-3.3495178223,8.0030975342-5.3875427246,2.4895477295-2.0559082031,4.7733154297-4.4058227539,6.6118469238-7.0854187012.6268615723-1.1150817871-.8557434082-2.0705871582-1.6999511719-1.2684020996-1.8994445801,2.3247070312-4.1853027344,4.3186645508-6.6632995605,6.0385437012-2.496887207,1.7030944824-5.1712493896,3.1479187012-7.9274902344,4.4205322266-5.5335083008,2.5241699219-11.4093017578,4.3133850098-17.3637390137,5.7182617188-1.4147796631.3832702637-2.8277587891.7728271484-4.2584838867,1.1077575684-7.4203491211,1.8133544922-15.0093383789,3.0660095215-22.6410522461,3.9049682617-7.6284637451.8305358887-15.3280029297,1.2830810547-22.9510040283,1.1686401367-1.4647369385-.0346679688-2.9137573242-.080871582-4.3683166504-.1774291992-6.1524658203-.1302185059-12.2968597412-.5670166016-18.3283691406-1.5855102539-2.9938812256-.5680541992-5.9809112549-1.2190551758-8.8475189209-2.1860961914l-2.1162719727-.7896118164c-.6743011475-.3128967285-1.3845367432-.5816955566-2.0370025635-.9302978516-1.3314208984-.6531066895-2.6046295166-1.4511108398-3.6239929199-2.3814086914-.4343414307-.3171081543-.9150695801-.1952819824-1.3469848633.0409545898-.4267272949.2289123535-.5960388184.8788452148-.1838684082,1.426940918h0Z" fill="#005538"/>
  <path d="M141.9262826274,182.3648660014c-1.8708953857,6.6605834961-2.8419952393,13.7743225098-1.7405853271,20.9237670898.5833740234,3.560546875,1.7784729004,7.0780639648,3.6134643555,10.3110046387,1.838760376,3.227722168,4.3986663818,6.1257019043,7.5144195557,8.3233642578l2.35987854,1.3818054199,2.4986877441,1.1140441895c2.2355651855.7822570801,4.546295166,1.4017333984,6.9226531982,1.5823364258,2.3690185547.1973876953,4.754196167.0493469238,7.0512695312-.3800964355,4.6084594727-.8662719727,8.8280944824-2.761505127,12.6470336914-5.0326538086,7.6617431641-4.5832519531,14.0752563477-10.461151123,20.3493347168-16.2592468262l3.5904541016-3.365234375c4.798828125-4.8716125488,9.5415649414-9.7070617676,14.6390075684-14.1210327148,2.5449829102-2.2054443359,5.1635742188-4.3211669922,7.9253845215-6.1856689453,2.7513122559-1.8608093262,5.6733703613-3.5166625977,8.7708740234-4.3640136719,1.1455383301-.4079284668.9974975586-2.1721191406-.4515075684-2.0719604492-3.577331543.6933288574-6.8114471436,2.2437438965-9.8490905762,3.9687805176-3.0476379395,1.7355651855-5.9150695801,3.7138671875-8.7012634277,5.7777404785-5.5747375488,4.1285095215-10.7788696289,8.6851806641-15.9309082031,13.1722412109l-3.5711669922,3.348236084c-6.1937255859,5.7382507324-12.4567565918,11.4166564941-19.4415588379,15.5799255371-3.4770965576,2.074798584-7.1642608643,3.6854858398-10.9350280762,4.3910827637-1.8829650879.3507080078-3.78074646.4651489258-5.6524658203.309753418-1.8772888184-.1375427246-3.7035522461-.6457519531-5.4821624756-1.2515869141l-1.984588623-.8841247559-1.8744659424-1.0993347168c-2.6038970947-1.5519104004-4.8629760742-3.7232971191-6.6060791016-6.3020935059-1.7367095947-2.5819702148-3.0252532959-5.5324401855-3.7896575928-8.6719665527-1.4792327881-6.3087158203-1.1368255615-13.1185913086.1889038086-19.694732666.1029968262-1.3068237305-1.5948486328-1.7756652832-2.060836792-.5003356934h0Z" fill="#005538"/>
  <g clip-path="url(#clippath-3)">
    <path d="M231.5260140727,268.6007363627c-3.9491424561,1.1329650879-8.0975952148,1.2495117188-12.1301116943.7024536133-4.0441741943-.5491638184-7.9818878174-1.7367248535-11.7747955322-3.3012084961-.9323120117-.3160705566-1.8614501953-.6520385742-2.7877502441-1.0079956055-4.8222351074-1.8438110352-9.5625610352-4.1558837891-14.4594421387-6.3577270508-2.4459838867-1.0983276367-4.9398345947-2.1798095703-7.5281982422-3.1353149414-2.5744934082-.9533996582-5.1981201172-1.7671508789-7.8674316406-2.4507141113-1.0244903564-.2687988281-2.062210083-.4987487793-3.1018066406-.7213439941-4.3976135254-.6352539062-8.917755127-.8988037109-13.4407348633-.1973876953-2.2690582275.3023986816-4.7238464355,1.1444702148-6.6290740967,2.6291809082-1.9292755127,1.4679260254-3.2877502441,3.3453063965-4.4461212158,5.1964416504-.34324646.8022155762,1.1251831055,1.7755432129,1.7303009033,1.2253723145,1.3028259277-1.6159667969,2.7196044922-3.0827941895,4.3408966064-4.0162658691,1.6225738525-.9481506348,3.4067382812-1.3398132324,5.3806304932-1.3692016602,3.986541748-.1270141602,8.0513916016.5932617188,11.9979248047,1.672668457.9584350586.2057800293,1.9170837402.4179077148,2.8699645996.6677856445,2.4795837402.6352539062,4.9407806396,1.3965148926,7.351272583,2.2900390625,2.3996582031.8851623535,4.7875671387,1.9172973633,7.1898651123,2.9967041016,4.7981872559,2.155670166,9.622833252,4.5150146484,14.7354888916,6.4722290039.9815368652.3779907227,1.9746398926.7370910645,2.978225708,1.0773010254,4.2814788818,1.1801757812,8.7256011963,1.9498291016,13.2019500732,2.0054931641,4.4650268555.058807373,8.9977722168-.634185791,13.1011657715-2.3803710938.7595825195-.4567260742.0875854492-2.0863342285-.7122192383-1.9981384277h0Z" fill="#005538"/>
    <path d="M159.8012521098,168.0840432475l3.047744751-1.8371887207,1.5238647461-.918548584.7618713379-.4593505859.3809356689-.2296447754c.0859069824-.0563964844.1608734131-.0846252441.314163208-.1584472656,2.0960235596-1.0159912109,4.2244720459-1.962677002,6.4146728516-2.7441711426,4.3697814941-1.5869750977,8.9102935791-2.6759338379,13.5088653564-3.2438659668,9.1988525391-1.0872802734,18.6276245117-.0975646973,27.3176422119,2.9669799805,4.3448028564,1.5237426758,8.5238037109,3.5093994141,12.4077453613,5.9567565918,3.8763885498,2.4584655762,7.469909668,5.3446960449,10.6909942627,8.5910949707,6.460647583,6.4802856445,11.2969665527,14.4991149902,14.2327575684,23.0963134766,1.4595031738,4.1006774902,2.4738006592,8.360534668,2.9819946289,12.6844177246,1.3859863281,11.2360534668-.5333862305,22.8616333008-5.4369049072,33.0749816895-4.8667449951,10.2333068848-12.7165374756,18.9997558594-22.3514556885,24.9564208984-9.610748291,6.0028686523-20.9254455566,9.2431335449-32.2568359375,9.0783081055-11.3241271973-.1123657227-22.5974731445-3.5227661133-32.083480835-9.7072753906-3.6488494873-2.3709106445-7.0563049316-5.1229248047-10.0889129639-8.2456665039-3.2184753418-3.2066650391-6.0780334473-6.7829589844-8.508682251-10.6427612305-1.2295379639-1.9225463867-2.3157653809-3.9354248047-3.2713012695-6.0101928711l-.7470550537-1.5435180664c-.260635376-.5103149414-.4981536865-1.0289916992-.681854248-1.5708007812l-1.2123565674-3.2088012695c-.4505004883-1.0563049316-.6974334717-2.1766357422-1.0188293457-3.2738952637-.2895355225-1.1067199707-.6603088379-2.195526123-.8870849609-3.3179931641-.3840332031-2.2543640137-.9518585205-4.4898071289-1.0837097168-6.7850952148-.5989990234-4.5601501465-.3701324463-9.1822509766.0732421875-13.7581481934,2.2109069824-18.3041381836,13.1368865967-35.5324401855,29.3852081299-44.9646911621,1.4988861084-1.0148010254,2.0607452393-1.8608093262,1.8279571533-2.2922363281-.227645874-.4227294922-1.2902374268-.4093017578-2.9310760498.4812011719-16.9787139893,9.236541748-29.0754394531,26.9393310547-31.9333190918,46.2759094238-.610458374,4.834197998-.9790344238,9.7503051758-.4812164307,14.6328125.0812683105,2.4559326172.6080932617,4.8594055176.9619140625,7.2880554199.2116088867,1.2085571289.5699005127,2.3855895996.8497924805,3.5804748535.311706543,1.1875610352.5518188477,2.398223877.9981231689,3.5447998047l1.2086334229,3.4828491211c.1846466064.5890808105.4235687256,1.1539611816.6862792969,1.7104492188l.7556610107,1.6821289062c.9703674316,2.2616577148,2.0821075439,4.4603881836,3.3509979248,6.5729675293,2.5092773438,4.2398986816,5.5022888184,8.2057800293,8.9088134766,11.7915039062,3.3018188477,3.3977966309,7.0088500977,6.3945007324,10.9782714844,8.9732971191,10.320022583,6.7263183594,22.5673370361,10.4317626953,34.8874969482,10.5535583496,12.3278503418.1806030273,24.6535949707-3.3505554199,35.08543396-9.868927002,10.4768981934-6.4753723145,19.0281066895-16.0272216797,24.3169403076-27.1530151367,5.3298034668-11.1037597656,7.4182434082-23.7373657227,5.9104614258-35.9698486328-.5533447266-4.7040100098-1.6568908691-9.3418579102-3.2434387207-13.8031005859-3.4471588135-9.2573242188-8.9155578613-17.752746582-16.051361084-24.5311279297-3.5563354492-3.3929748535-7.4904937744-6.3761291504-11.6988830566-8.8844604492-4.2161865234-2.4971313477-8.7185668945-4.4861450195-13.3682861328-5.9738769531-9.2999572754-2.9927062988-19.2650909424-3.7523803711-28.8689117432-2.3467712402-4.8011322021.7269287109-9.51121521,1.9963684082-14.0125579834,3.772857666-2.256149292.8762207031-4.4407653809,1.9198303223-6.5836181641,3.0332641602-.1123504639.0577392578-.3095245361.1492004395-.4693450928.2605895996l-.3745269775.240020752-.7489624023.4800720215-1.498046875.960144043-2.9960632324,1.9202270508c-3.0238952637,2.0916137695-2.0942382812,3.5870056152,1.1195983887,1.8009643555h0Z" fill="#1d1d1b"/>
  </g>
</svg>