<?xml version="1.0" encoding="UTF-8"?>
<svg id="Ebene_1" data-name="Ebene 1" xmlns="http://www.w3.org/2000/svg" viewBox="0 0 566.9290161133 566.9290161133">
  <path d="M434.6633911133,333.8217163086s24.7460021973,19.050994873,13.7139892578,25.6580047607c-82.7239990234,49.546005249-200.3959960938,24.7729949951-219.4179840088,20.3489990234,0,0-40.1130065918-8.9220123291-50.4310150146-11.5010070801-44.2379760742-11.0599975586-45.1229858398-28.31199646-45.1229858398-28.31199646l1.7699890137-14.5989990234s3.9810180664-6.1929931641,5.308013916-6.6349945068l2.6549987793-5.7510070801,4.8659973145-4.8660125732,4.8659973145-7.9629821777s5.6900024414-32.5379943848,14.5979919434-49.5460205078c8.9080200195-17.0079956055,25.216003418-32.2939758301,25.216003418-32.2939758301,0,0,5.3079986572-10.6170043945,17.6950073242-21.2340087891,12.3860015869-10.6170043945,32.7359924316-15.0400085449,32.7359924316-15.0400085449,0,0,11.9440002441-6.6359863281,19.0220031738-6.6359863281s18.1369934082,1.7689819336,18.1369934082,1.7689819336c0,0,19.4649963379.8850097656,26.9850158691,3.0970153809,7.5199890137,2.2120056152,32.7359924316,7.9629821777,42.9110107422,22.5610046387,0,0,1.9959716797.7680053711,4.6779785156,2.1119995117,6.5090026855,3.2630004883,11.7409973145,8.608001709,14.9970092773,15.1199951172l8.1940002441,16.3890075684.884979248,3.5390014648s15.9250183105,23.4459838867,17.2530212402,35.3899841309c1.3269958496,11.9440002441,7.5199890137,32.2929992676,7.5199890137,32.2929992676l3.0970153809,3.9820098877,2.6799926758.2019958496c10.591003418,6.4329986572,16.342010498,8.2030029297,25.1889953613,21.9160003662" fill="#008939"/>
  <path d="M198.8773956299,222.9334106445s-36.2750091553,27.1319885254-38.9290008545,66.6510009766l-4.4239959717,39.5189971924c10.578994751,12.620010376,26.4949951172,19.5059967041,42.93699646,18.5749969482l5.1349945068-.2899932861c-11.3699951172-59.1909942627-5.4869995117-87.6670074463,1.7410125732-101.2299957275,4.3609924316-8.1849975586,1.4869995117-18.3540039062-6.421005249-23.2010192871l-.0390014648-.0239868164Z" fill="#8abd24"/>
  <path d="M194.7483978271,214.9706115723s17.6900024414-12.2229919434,23.8880004883-15.0409851074c9.733001709-4.4240112305,24.7729949951-1.1800231934,40.1089935303,4.1289978027,7.1050109863,2.4599914551,31.5559997559,15.0409851074,36.865020752,22.4140014648,1.241973877,1.725982666,11.5019836426,18.8739929199,11.5019836426,18.8739929199l-10.9119873047-28.9010009766-35.0950012207-19.7600097656-21.2350158691-5.0130004883-21.5279998779-.8850097656-17.6949920654,15.3350219727-5.8990020752,8.8479919434Z" fill="#8abd24"/>
  <path d="M203.0063934326,212.3163146973c6.7830047607-1.7699890137,23.2980041504-14.4509887695,72.8440093994,18.2850036621,8.2680053711,5.4620056152,17.9899902344,43.6470031738,17.9899902344,43.6470031738l-24.0090026855-31.4739990234c-7.6180114746-9.9869995117-17.5350036621-18.0119934082-28.9570007324-23.2369995117-2.6329956055-1.2050170898-5.0359954834-2.2460021973-6.7630004883-2.8800048828-21.9329986572-8.0459899902-31.1049957275-4.341003418-31.1049957275-4.341003418" fill="#005538"/>
  <path d="M243.1154022217,182.087310791s38.0439910889,4.5710144043,43.9420013428,7.8150024414c5.8989868164,3.2439880371,27.4280090332,15.3359985352,30.3769836426,23.0039978027,2.949005127,7.6679992676,16.5150146484,27.4270019531,16.5150146484,24.4779968262s-15.041015625-41.2879943848-15.041015625-41.2879943848l-10.0269775391-6.1940002441-36.2749938965-10.6170043945-10.4690246582-3.833984375-19.021987915,6.6359863281Z" fill="#8abd24"/>
  <path d="M318.9083862305,196.095916748l13.3909912109,9.466003418c2.433013916,1.7189941406,4.3670043945,4.0539855957,5.6040039062,6.7640075684l15.216003418,33.3159790039-34.2109985352-49.5459899902Z" fill="#005538"/>
  <path d="M148.004196167,308.1648254395l.7239990234,2.0150146484c4.3800048828,12.1949920654.2319946289,21.362991333,11.8099975586,27.1809844971,14.2880096436,7.1809997559,45.9309997559,17.2910003662,52.495010376,20.0550079346,11.2070007324,4.7179870605,24.7729949951,10.0269927979,24.7729949951,10.0269927979l-22.4140014648-3.5390014648s-14.1560058594,1.1800079346-34.8000030518-7.0780029297c-20.6439971924-8.2579956055-46.5970001221-14.3040008545-44.8269958496-28.9019927979,1.7700042725-14.5980072021,12.2389984131-19.7590026855,12.2389984131-19.7590026855" fill="#005538"/>
  <path d="M418.6694030762,374.6688232422c3.4150085449-1.4609985352,6.8470153809-2.8110046387,10.1849975586-4.4530029297,6.7630004883-3.3280029297,13.2390136719-7.1979980469,19.782989502-10.9279937744.4110107422-.2350006104.8150024414-.341003418,1.200012207-.3619995117,1.3540039062-1.6940002441,2.0790100098-3.3850097656,2.0790100098-5.0489959717,0-1.3230133057-.8390197754-3.342010498-2.266998291-5.7650146484-1.3190002441-1.4929962158-2.8380126953-2.8909912109-4.2780151367-4.237991333-1.4499816895-1.3570098877-2.9400024414-2.68800354-4.2409973145-4.1930084229-.766998291-.8859863281-1.532989502-1.8679962158-1.9580078125-2.9499969482-1.0469970703-.7010040283-2.100982666-1.391998291-3.0199890137-2.203994751-2.5700073242-2.2720031738-4.4400024414-5.2010040283-6.7640075684-7.7040100098-.7389831543-.7959899902-.867980957-1.7179870605-.6260070801-2.5289916992-6.6149902344-5.733001709-13.2009887695-9.9499969482-17.5449829102-9.9360046387-.8630065918.0030059814-1.9400024414-1.4799957275-3.1480102539-3.949005127-.0870056152-.032989502-.1739807129-.0549926758-.2609863281-.0929870605-2.1750183105-.9440002441-3.7610168457-2.6390075684-4.6300048828-4.8299865723-.6910095215-1.7430114746-.7610168457-3.6520080566-.8619995117-5.5030212402-.0100097656-.1860046387-.0899963379-.8559875488-.0710144043-.7699890137-.050994873-.3370056152-.1039733887-.6740112305-.1619873047-1.0100097656-.1629943848-.9329833984-.3450012207-1.8619995117-.5029907227-2.7959899902-.2019958496-1.1900024414-.4840087891-2.5429992676-.4389953613-3.8280029297-5.199005127-16.1470031738-10.2750244141-34.2120056152-11.1580200195-29.716003418-.4020080566,2.0459899902-16.7749938965-34.8290100098-14.9279785156-28.3110046387.7219848633,2.549987793,3.0949707031,8.4949951172,6.4239807129,16.3619995117,19.6979980469,46.5559997559-10.5759887695,99.0490112305-60.7269897461,105.408996582l-90.9090118408,11.5300140381s24.296005249,10.9140014648,22.5260009766,19.1719970703c0,0,51.6649932861,3.1999969482,79.220993042,2.6519927979,29.7690124512-.5919952393,61.3600158691-5.8229980469,84.7019958496-12.9169921875.7860107422-.3769989014,1.575012207-.7480010986,2.3770141602-1.091003418" fill="#005538"/>
  <path d="M439.2703857422,365.5338134766c2.25-.9969940186,4.4979858398-2.0359954834,6.6789855957-3.2579956055,1.092010498-.6110076904,2.1700134277-1.2600097656,3.2060241699-2.0440063477.5180053711-.3930053711,1.0260009766-.8170013428,1.5069885254-1.3300018311.4800109863-.5229949951.8999938965-1.158996582,1.1860046387-1.8489990234.5769958496-1.4019927979.5180053711-2.9239959717.2229919434-4.2480010986-.3049926758-1.3379974365-.8379821777-2.5520019531-1.4379882812-3.6999969482-1.2130126953-2.2939910889-2.7489929199-4.3139953613-4.3659973145-6.233001709-1.6220092773-1.9169921875-3.358001709-3.7129974365-5.1520080566-5.4409942627-.8970031738-.8650054932-1.8129882812-1.7080078125-2.7430114746-2.5360107422l-1.4100036621-1.2279968262-.7169799805-.6059875488-.3640136719-.3010101318-.1860046387-.1510009766-.049987793-.0410003662c.158996582.1750030518-.3760070801-.4039916992.3550109863.3880004883l-.008026123-.0119934082-.0159912109-.0250091553-.0629882812-.0979919434c-2.6390075684-4.2120056152-5.5880126953-8.3540039062-9.3330078125-11.8970031738-1.8129882812-1.6629943848-3.7940063477-3.1450042725-5.8229980469-4.4640045166-2.2650146484-1.4700012207-4.5639953613-2.7720031738-6.8150024414-4.0859985352l-3.3500061035-1.9840087891-.1709899902-.1029968262c-.0690002441-.0459899902-.1449890137-.0769958496-.2189941406-.1099853516l-.2590026855-.1149902344-.4479980469-.199005127-.8970031738-.399017334-1.4209899902-.6329956055-1.7610168457-1.9949951172-.7179870605-3.0840148926-1.6360168457-7.0209960938-3.2699890137-14.0429992676-1.6350097656-7.0219726562c-.2640075684-1.1590270996-.658996582-2.4110107422-1.0209960938-3.5870361328-.4179992676-1.1619873047-.7959899902-2.3499755859-1.2699890137-3.4769897461-1.8049926758-4.5629882812-3.9210205078-8.9279785156-6.1409912109-13.2279968262-1.091003418-2.1019897461-2.2120056152-4.1839904785-3.3570251465-6.2519836426-1.2389831543-2.1350097656-2.5019836426-4.2530212402-3.7890014648-6.3569946289l-1.958984375-3.1440124512-.2180175781-.342010498c-.0109863281-.016998291.0010070801.0109863281-.0269775391-.0469970703l-.0950012207-.2099914551-.3829956055-.8399963379-.7640075684-1.6790161133-1.5280151367-3.3569946289c-.5199890137-1.1140136719-1.0769958496-2.2109985352-1.6139831543-3.3170166016l-3.2470092773-6.6209716797-1.6229858398-3.3099975586c-.5680236816-1.1210327148-1.2140197754-2.2480163574-1.9060058594-3.2969970703-1.3770141602-2.1290283203-2.9970092773-4.0930175781-4.791015625-5.8710327148-1.8070068359-1.7649841309-3.7879943848-3.3540039062-5.9320068359-4.6759643555-2.1439819336-1.3470153809-4.424987793-2.383026123-6.7079772949-3.3260192871-1.8370056152-.6260070801-2.2650146484.558013916-.5989990234,1.3910217285,2.2079772949,1.0119628906,4.3689880371,2.0979614258,6.3309936523,3.4399719238,1.9809875488,1.3280029297,3.7909851074,2.899017334,5.425994873,4.6210021973,1.6220092773,1.7360229492,3.0690002441,3.6329956055,4.2789916992,5.6699829102.6180114746,1.0220336914,1.1560058594,2.0470275879,1.6550292969,3.132019043l1.4899902344,3.3529968262,2.9769897461,6.7049865723c.4920043945,1.1190185547,1.0029907227,2.2290039062,1.4779968262,3.3550109863l1.3910217285,3.3930053711.6959838867,1.6969909668.3469848633.8470153809.0870056152.2120056152c.0379943848.0809936523.0950012207.2579956055.1730041504.3659973145l.2600097656.4429931641,1.8110046387,3.1700134277c1.1929931641,2.1259765625,2.3599853516,4.2659912109,3.5019836426,6.4169921875,1.1300048828,2.0409851074,2.2360229492,4.0939941406,3.308013916,6.1600036621,2.1819763184,4.2239990234,4.2539978027,8.5079956055,5.9779968262,12.8699951172.4580078125,1.0859985352.8039855957,2.1879882812,1.2009887695,3.2820129395.1929931641.5479736328.3269958496,1.0969848633.4949951172,1.6459960938.1610107422.5459899902.325012207,1.0889892578.4510192871,1.6869812012l1.6289978027,6.9970092773,3.2590026855,13.9949951172,1.6300048828,6.9980163574.9139709473,3.925994873c.1030273438.2739868164.3710327148.4629821777.5480041504.699005127l.349029541.3959960938.5959777832.674987793,1.4609985352,1.6539916992,3.7409973145,1.6720123291,3.4060058594,2.016998291c2.2700195312,1.3249969482,4.5280151367,2.6060028076,6.6549987793,3.987991333,1.9070129395,1.2400054932,3.6979980469,2.5830078125,5.3470153809,4.0950012207,3.5149841309,3.0770111084,6.4669799805,6.8720092773,9.1789855957,10.8590087891l.0639953613.0919952393.0160217285.0240020752.0079956055.0110015869c.7349853516.800994873.2099914551.2259979248.3769836426.4069976807l.0400085449.0299987793.175994873.1320037842.3550109863.2720031738.708984375.5540008545,1.4070129395,1.1349945068c.9309997559.7680053711,1.8500061035,1.550994873,2.75,2.3549957275,1.7989807129,1.6050109863,3.5390014648,3.2760009766,5.1529846191,5.0420074463,1.608001709,1.7649993896,3.125,3.625,4.2810058594,5.6289978027,1.1380004883,1.9609985352,2.0090026855,4.2480010986,1.341003418,6.074005127-.1740112305.4499969482-.4119873047.8579864502-.7439880371,1.2539978027-.3440246582.3959960938-.7620239258.7799987793-1.2070007324,1.1439971924-.891998291.7319946289-1.8940124512,1.391998291-2.9179992676,2.016998291-2.0520019531,1.2539978027-4.2190246582,2.3600006104-6.4130249023,3.4329986572-.8190002441.4450073242-1.1519775391,1.0030059814-.9639892578,1.3000030518.1849975586.2910003662.6979980469.4189910889,1.6040039062.0729980469" fill="#1d1d1b"/>
  <path d="M279.6933898926,176.3652038574c-4.783996582-.8959960938-9.5799865723-1.6789855957-14.4800109863-2.1409912109-1.2469787598-.0930175781-2.4209899902-.2220153809-3.7639770508-.1930236816-1.3540039062-.0029907227-2.6210021973.216003418-3.8840026855.4420166016-2.5090026855.4939880371-4.8890075684,1.2640075684-7.2270050049,2.1130065918-1.1009979248.4530029297-2.1910095215.924987793-3.2640075684,1.425994873-1.3999938965.6459960938-2.7769927979,1.324005127-4.1459960938,2.0469970703l-.483001709.2569885254h.0019989014l-.0939941406.0220031738-1.1320037842.2770080566c-.7509918213.1860046387-1.4900054932.3900146484-2.2319946289.5939941406-2.9560089111.8309936523-5.8720092773,1.7810058594-8.75,2.8500061035-5.7429962158,2.1560058594-11.3660125732,4.766998291-16.5540008545,8.2420043945-.9810028076.6959838867-1.9920043945,1.3399963379-2.9200134277,2.1229858398-3.8159942627,3.2770080566-7.175994873,6.8399963379-10.2799987793,10.6780090332-3.0869903564,3.8330078125-5.8729858398,7.8890075684-8.1329956055,12.2749938965-.3479919434.9190063477.7870025635,1.4620056152,1.3269958496.7310180664,2.4990081787-4.0530090332,5.5250091553-7.8090209961,8.791015625-11.2770080566,3.2569885254-3.4570007324,6.845993042-6.7010192871,10.6049957275-9.4540100098.8449859619-.7169799805,1.7949981689-1.3179931641,2.7050018311-1.9649963379,4.8389892578-3.2449951172,10.2299957275-5.7630004883,15.7679901123-7.8389892578,2.7760009766-1.0299987793,5.5989990234-1.9510192871,8.449005127-2.7520141602.7119903564-.1959838867,1.4270019531-.3930053711,2.1389923096-.5690002441l1.0650024414-.2609863281.4570007324-.1050109863c.1910095215-.0239868164.3370056152-.1610107422.5100097656-.2380065918l.5149993896-.2749938965c1.2979888916-.6849975586,2.6269989014-1.3399963379,3.9649963379-1.9580078125,1.0279998779-.4789733887,2.0670013428-.9289855957,3.1109924316-1.358001709,2.1430053711-.9729919434,4.3300018311-1.8649902344,6.5380096436-2.4779968262,1.0989990234-.2859802246,2.216003418-.5639953613,3.2850036621-.6399841309,1.0749816895-.1149902344,2.3249816895-.0849914551,3.4949951172-.0859985352,4.7699890137.0809936523,9.5960083008.4880065918,14.3890075684,1.009979248.9379882812.0140075684,1.141998291-1.2269897461.2269897461-1.4979858398" fill="#1d1d1b"/>
  <path d="M192.3394012451,217.4751281738l-.2559967041.3840026855-.3330078125.299987793-.8239898682.7560119629-1.625,1.5299987793c-1.0720062256,1.0299987793-2.1310119629,2.075012207-3.1780090332,3.1319885254-2.0950012207,2.1119995117-4.1199951172,4.2950134277-6.1060028076,6.5180053711-3.9409942627,4.4720153809-7.7089996338,9.1310119629-11.0269927979,14.166015625-.7519989014,1.2319946289-1.5140075684,2.4570007324-2.1950073242,3.7379760742-.9459991455,1.6240234375-1.7439880371,3.3470153809-2.5729980469,5.0490112305-.3880004883.8590087891-.7409973145,1.7279968262-1.112991333,2.591003418-.3789978027.8619995117-.7310028076,1.7309875488-1.0510101318,2.608001709-1.3789978027,3.483001709-2.504989624,7.0299987793-3.6179962158,10.5769958496-2.1439971924,7.1159973145-3.9479980469,14.3039855957-5.5130004883,21.5409851074l-.8789978027,4.1790161133-.5979919434,3.6569824219-.141998291.9180297852-.0620117188.4149780273c0,.0220031738.0030059814.0559997559-.0010070801.0640258789-.0039978027.0119934082.0030059814.0049743652-.0109863281.032989502l-.1140136719.199005127-.2269897461.3999938965-.4550018311.799987793-3.550994873,6.2550048828-4.6850128174,4.9920043945-7.1999969482,12.0090026855c-.5110015869,1.0319976807.5470123291,1.7120056152,1.2740020752.8190002441l7.7969970703-11.3200073242,5.0469970703-4.7409973145,4.1220092773-6.299987793,1.1109924316-1.70703125c.2050170898-.2339782715.1780090332-.533996582.2540130615-.8059692383l.1049957275-.4880065918.1950073242-.8910217285.8159942627-3.5629882812.8690032959-4.1309814453c1.5469970703-7.1540222168,3.3309936523-14.2590026855,5.4359893799-21.2420043945,1.0900115967-3.4750061035,2.1940002441-6.9520263672,3.5270080566-10.3150024414.3099975586-.8529968262.6499938965-1.6889953613,1.0119934082-2.5130004883.3570098877-.8269958496.6959991455-1.6640014648,1.0660095215-2.4819946289.7859954834-1.6060180664,1.5309906006-3.2280273438,2.4399871826-4.7860107422.6480102539-1.2210083008,1.3820037842-2.3989868164,2.1040039062-3.5840148926,2.8800048828-5.0369873047,6.2709960938-9.8239746094,9.8619995117-14.4549865723,1.81199646-2.3049926758,3.6699981689-4.5809936523,5.6040039062-6.7940063477.9669952393-1.1059875488,1.9449920654-2.2030029297,2.9389953613-3.2859802246l1.5050048828-1.608001709.7619934082-.7920227051.1910095215-.1969909668c.0889892578-.0929870605.1889953613-.175994873.2679901123-.2770080566l.3230133057-.5610046387c.4869995117-1.0429992676-.5860137939-1.6989746094-1.2920074463-.7909851074" fill="#1d1d1b"/>
  <path d="M135.8321990967,322.9767150879c-.466003418.6519927979-.9470062256,1.4720001221-1.2480010986,2.2920074463-.1569976807.4149932861-.2890014648.8419952393-.3860015869,1.2769927979-.1019897461.4450073242-.1569976807.8789978027-.2169952393,1.2649993896l-.7239990234,4.81199646-.7239990234,4.81300354-.375,2.5410003662c.0009918213.1600036621.0199890137.3529968262.0390014648.4880065918l.0579986572.3689880371c.0319976807.2470092773.0970001221.4560089111.1490020752.6809997559.0970001221.4520111084.2419891357.8720092773.3929901123,1.2890014648,1.2030029297,3.3560028076,3.3630065918,6.0950012207,5.6849975586,8.5599975586l1.8350067139,1.7550048828c.6000061035.6049957275,1.2910003662,1.0780029297,1.9349975586,1.6230010986.6640014648.512008667,1.2910003662,1.0940093994,1.9909973145,1.5480041504l2.0709991455,1.4189910889c1.3260040283.9160003662,2.7649993896,1.5980072021,4.1529998779,2.3840026855,7.3220062256,3.8899993896,15.1140136719,6.574005127,22.9710083008,8.7819976807,1.9689941406.5170135498,3.9389953613,1.1340026855,5.907989502,1.5680084229l5.9049987793,1.3739929199,11.8110046387,2.7480010986,4.541015625,1.0570068359,38.1789855957,7.7350006104c1.2520141602.158996582,1.5330047607-1.0670013428.3390045166-1.4760131836l-37.6349945068-9.9039916992-4.5360107422-1.0549926758-11.7980041504-2.745010376-5.8979949951-1.3730010986c-1.9779968262-.4360046387-3.8669891357-1.0319976807-5.8049926758-1.5399932861-7.6790008545-2.1549987793-15.2580108643-4.779006958-22.2180023193-8.4810028076-1.31300354-.7449951172-2.6940002441-1.3950042725-3.925994873-2.2519989014l-2.0180053711-1.216003418c-.68699646-.3899993896-1.2810058594-.8909912109-1.9280090332-1.3309936523-.6199951172-.4680023193-1.3039855957-.8760070801-1.8759918213-1.3960113525l-1.7729949951-1.5089874268c-2.233001709-2.103012085-4.3059997559-4.4889984131-5.4530029297-7.2129974365-.1459960938-.3380126953-.2870025635-.6760101318-.3780059814-1.0150146484-.0489959717-.1669921875-.1170043945-.3429870605-.141998291-.4989929199l-.0520019531-.2290039062c-.0159912109-.0639953613-.0179901123-.0749969482-.0229949951-.1149902344l.2070007324-2.2890014648.4469909668-4.8460083008.4459991455-4.8470001221c.0860137939-1.5829925537.4890136719-2.8999938965,1.3470001221-4.2350006104.5670013428-1.1279907227-.4939880371-1.8029937744-1.2769927979-.8139953613" fill="#1d1d1b"/>
  <path d="M445.5404052734,360.3358154297c-19.4349975586,10.8339996338-40.8089904785,17.7149963379-62.5650024414,21.6809997559l-7.8120117188,1.4880065918c-27.2059936523,4.6499938965-55.0539855957,5.3269958496-82.6380004883,3.2760009766-2.6549682617-.166015625-5.3020019531-.4420013428-7.9539794922-.6580047607-11.083984375-.796005249-22.1560058594-1.9860076904-33.1679992676-3.6240081787-5.5070037842-.8150024414-11-1.7359924316-16.4730072021-2.7689971924-5.4689941406-1.0540008545-10.9420013428-2.2149963379-16.4149932861-3.3170013428-2.1450042725-.3109893799-2.529006958,1.3290100098-.4570007324,1.9770050049,5.4309997559,1.3480072021,10.8379974365,2.75,16.2939910889,4.0559997559,5.4600067139,1.2859954834,10.9470062256,2.4589996338,16.4570007324,3.5279998779,11.0179901123,2.1459960938,22.1280059814,3.8450012207,33.296005249,5.1499938965,2.6839904785.2190093994,5.3619995117.4980010986,8.0490112305.6660003662,27.9159851074,2.074005127,56.1519775391,1.4000091553,83.8699951172-3.3369903564l7.9639892578-1.5160064697c21.9859924316-5.0279998779,43.4200134277-13.016998291,62.5780029297-24.8509979248,1.8099975586-1.220993042.9299926758-2.6569976807-1.0260009766-1.75" fill="#1d1d1b"/>
  <path d="M135.3990020752,324.8568115234c-.154006958,3.341003418-.0570068359,6.7129974365.81199646,10.0780029297.4580078125,1.6660003662,1.1139984131,3.375,2.3950042725,4.841003418,1.220993042,1.3239898682,2.5729980469,2.3869934082,3.9900054932,3.3699951172,2.8559875488,1.8990020752,5.9029998779,3.3659973145,8.9589996338,4.68699646,3.0559997559,1.3310089111,6.141998291,2.5030059814,9.1349945068,3.7570037842.7239990234.2799987793,1.4440002441.56199646,2.1499938965.8569946289.3400115967.1450042725.7220001221.2910003662,1.1330108643.43800354l1.1959991455.4360046387c4.0359954834,1.31199646,7.9920043945,2.2679901123,11.9889984131,3.2709960938,3.9869995117.9900054932,7.9779968262,1.9179992676,11.9700012207,2.8480072021l23.9550018311,5.4229888916,4.5989990234,1.0429992676c3.2200012207.6390075684,6.4379882812,1.2830047607,9.6340026855,1.966003418.7919921875.1770019531,1.6069946289.3370056152,2.379989624.5279998779l2.2810058594.608001709,2.2419891357.7720031738,2.1979980469.9189910889c5.7950134277,2.6410064697,11.0800170898,6.5990142822,15.5360107422,11.2649993896.8970031738.8470001221,1.8980102539.0820007324,1.1380004883-1-4.3320007324-5.0780029297-9.5149993896-9.4619903564-15.5190124512-12.6309967041l-2.2909851074-1.112991333-2.3670043945-.9690093994-2.4420013428-.8020019531c-.8079986572-.2480010986-1.5970001221-.4489898682-2.396987915-.6769866943-3.1880187988-.8720092773-6.3730163574-1.700012207-9.5590209961-2.5220031738l-4.6069946289-1.0450134277-23.93699646-5.4189910889c-3.9789886475-.9270019531-7.9589996338-1.8520050049-11.9149932861-2.8339996338-3.93800354-.9869995117-7.9440002441-1.9649963379-11.6920013428-3.1849975586l-1.0210113525-.3730010986c-.3329925537-.1150054932-.6849975586-.2480010986-1.0690002441-.4120025635-.7459869385-.3110046387-1.4909973145-.6029968262-2.2349853516-.8910064697-3.1380004883-1.1089935303-6.2590026855-2.095993042-9.2990112305-3.2199859619-3.0410003662-1.1130065918-6.0130004883-2.3520050049-8.7299957275-3.9450073242-1.3309936523-.81199646-2.625-1.7299957275-3.6920013428-2.7630004883-.9559936523-.9629974365-1.6369934082-2.3549957275-2.1199951172-3.8179931641-.9540100098-2.9610137939-1.2579956055-6.2320098877-1.2859954834-9.4440002441-.0780029297-1.233001709-1.3320007324-1.3520050049-1.5140075684-.0440063477" fill="#1d1d1b"/>
  <path d="M204.0583953857,212.7745056152c1.4869995117-.4469909668,2.8549957275-.9519958496,4.2570037842-1.3909912109l2.1009979248-.5890197754c.7059936523-.1659851074,1.4179992676-.300994873,2.1239929199-.4539794922,2.8460083008-.4909973145,5.7310028076-.7430114746,8.6160125732-.5469970703,5.7739868164.2729797363,11.4499969482,1.7200012207,16.9449920654,3.5989990234l3.9479980469,1.4039916992c6.7920074463,2.5889892578,13.4239959717,5.7319946289,19.7639923096,9.4299926758,1.5880126953.9179992676,3.2060241699,1.7810058594,4.7700195312,2.7449951172l4.6629943848,2.9420166016,2.3320007324,1.4710083008,1.1659851074.7349853516c.3049926758.2489929199.5419921875.3739929199.8190002441.6719970703,1.0849914551,1.0520019531,2.0720214844,2.5289916992,2.9530029297,4.0400085449.6900024414,1.1650085449,1.3050231934,2.4069824219,1.9150085449,3.6489868164,2.6470031738,5.1719970703,4.8359985352,10.6870117188,6.8760070801,16.2359924316,2.0229797363,5.5640258789,3.8819885254,11.2060241699,5.5829772949,16.8900146484.4130249023,1.0729980469,1.6329956055.7680053711,1.4650268555-.3859863281-1.3510131836-5.8150024414-2.8590087891-11.5880126953-4.5480041504-17.3280029297-1.7120056152-5.7350158691-3.5620117188-11.4380187988-5.9930114746-17.0299987793-.6449890137-1.3150024414-1.2949829102-2.6289978027-2.0570068359-3.9170227051-.9899902344-1.6730041504-2.0440063477-3.3369750977-3.6149902344-4.8769836426-.3560180664-.382019043-.9100036621-.7610168457-1.3320007324-1.0790100098l-1.1849975586-.7470092773-2.3680114746-1.4939880371-4.7369995117-2.9880065918c-1.5889892578-.9790039062-3.242980957-1.8630065918-4.8609924316-2.7989807129-6.4609985352-3.7640075684-13.2649993896-6.9990234375-20.3099975586-9.6820068359l-4.1060028076-1.4590148926c-5.8609924316-1.6040039062-11.9140014648-2.7529907227-18.0549926758-2.658996582-3.0610046387-.0130004883-6.1289978027.4450073242-9.0970001221,1.1549987793-.7369995117.2070007324-1.478012085.3980102539-2.2070007324.6190185547l-2.1529998779.7509765625c-1.4069976807.541015625-2.7990112305,1.1520080566-4.1330108643,1.6450195312-.9909973145.4539794922-.7409973145,1.691986084.4600067139,1.4429931641" fill="#1d1d1b"/>
  <path d="M217.3984069824,193.3267211914c3.1889953613-.8290100098,6.3350067139-1.4519958496,9.5639953613-1.625,3.2140045166-.1650085449,6.4420013428-.1119995117,9.6380004883.3280029297,6.4020080566.7810058594,12.6510009766,2.5729980469,18.716003418,4.800994873l4.3540039062,1.6459960938c1.9039916992.6640014648,3.7309875488,1.5460205078,5.583984375,2.3550109863l2.7730102539,1.2309875488c.9290161133.399017334,1.8139953613.9020080566,2.7229919434,1.3479919434l5.4210205078,2.7560119629,5.2929992676,3.0180053711,2.6449890137,1.5100097656c.8800048828.5079956055,1.725982666,1.0759887695,2.5899963379,1.6109924316l5.158996582,3.2579956055,1.2900085449.8150024414c.25.1439819336.3619995117.2560119629.4960021973.3649902344.1350097656.1190185547.2760009766.1889953613.416015625.3640136719.2809753418.3029785156.5719909668.5919799805.8399658203.9750061035.2800292969.3450012207.5440063477.7279968262.798034668,1.1319885254,1.0319824219,1.5899963379,1.9329833984,3.3670043945,2.7779846191,5.1690063477.6369934082,1.3999938965,1.2510070801,2.816986084,1.8269958496,4.2590026855,2.5830078125,5.9519958496,4.7879943848,12.1359863281,6.8630065918,18.3549804688,2.0639953613,6.2270202637,3.9839782715,12.5160217285,5.7640075684,18.8390197754.4299926758,1.1999816895,1.6529846191.9069824219,1.4699707031-.366027832-1.425994873-6.4429931641-2.991973877-12.850982666-4.7129821777-19.2309875488-1.7350158691-6.3779907227-3.5979919434-12.7279968262-5.9060058594-18.9989929199-.5939941406-1.4859924316-1.233001709-2.9620056152-1.9010009766-4.4309997559-.8959960938-1.9060058594-1.8459777832-3.7990112305-3.0450134277-5.6499938965-.2919921875-.4630126953-.6089782715-.9230041504-.9729919434-1.3770141602-.324005127-.4570007324-.7469787598-.9049987793-1.1709899902-1.3460083008-.1870117188-.2229919434-.4810180664-.4359741211-.7369995117-.6469726562-.2650146484-.2130126953-.5440063477-.4320068359-.7420043945-.5420227051l-1.3089904785-.8280029297-5.2390136719-3.3069763184c-.8769836426-.5440063477-1.7349853516-1.1190185547-2.6299743652-1.6360168457l-2.6940307617-1.5390014648-5.3899841309-3.0719909668-5.5400085449-2.8170166016c-.9309997559-.4569702148-1.8320007324-.9679870605-2.7859802246-1.3789978027l-2.8460083008-1.2649841309c-1.9039916992-.8309936523-3.774017334-1.7310180664-5.7430114746-2.4209899902l-4.492980957-1.6970214844c-6.4050140381-1.9509887695-12.9890136719-3.4429931641-19.7050170898-3.8789978027-3.3489990234-.266998291-6.733001709-.1340026855-10.0719909668.2300109863-3.3390045166.3659973145-6.641998291,1.2219848633-9.7680053711,2.2279968262-1.1770019531.4599914551-.8759918213,1.6820068359.4010009766,1.4609985352" fill="#1d1d1b"/>
  <path d="M338.5743103027,247.0099182129c-2.8590087891-10.7940063477-5.9219970703-21.5279846191-9.4299926758-32.1770019531l-1.4230041504-3.7690124512c-1.2600097656-3.2619934082-2.575012207-6.5079956055-4.0549926758-9.7199707031-.7560119629-1.6030273438-1.5290222168-3.2010192871-2.4309997559-4.7810058594-.466003418-.7900085449-.9280090332-1.5780029297-1.5-2.3619995117-.2520141602-.3900146484-.6020202637-.7860107422-.9280090332-1.1760253906-.3030090332-.3759765625-.8219909668-.8239746094-1.2319946289-1.1439819336l-1.283996582-.7770080566-.6470031738-.3809814453c-.2099914551-.1070251465-.4140014648-.1930236816-.6220092773-.291015625-.8259887695-.3699951172-1.6549987793-.7739868164-2.4809875488-1.1139831543-1.6510009766-.6440124512-3.3010253906-1.3120117188-4.9570007324-1.8720092773-3.308013916-1.1900024414-6.6340026855-2.2380065918-9.9640197754-3.2749938965l-3.8459777832-1.1690063477c-10.8220214844-2.8429870605-21.6870117188-5.3780212402-32.5840148926-7.7900085449-1.0799865723-.141998291-1.3829956055,1.0790100098-.3729858398,1.4680175781,10.6879882812,3.1279907227,21.3499755859,6.3799743652,31.8809814453,9.9149780273l3.8139953613,1.1580200195c3.2950134277,1.0260009766,6.5899963379,2.0659790039,9.8130187988,3.225982666,1.6309814453.5500183105,3.1979980469,1.1880187988,4.7799987793,1.8030090332.7779846191.3209838867,1.5090026855.6809997559,2.2659912109,1.016998291l.558013916.2579956055.4709777832.2860107422.950012207.5559997559c.1549987793.0929870605.217010498.199005127.3340148926.2909851074.1049804688.0899963379.2139892578.1820068359.3289794922.3370056152.2250061035.2780151367.4620056152.5249938965.6799926758.8659973145.4530029297.6180114746.8710021973,1.3280029297,1.2870178223,2.0310058594.8190002441,1.4349975586,1.5599975586,2.9620056152,2.282989502,4.4970092773,1.425994873,3.0909729004,2.7180175781,6.2799987793,3.9590148926,9.4909973145l1.4039916992,3.7200012207c4.1650085449,10.2760009766,7.9349975586,20.7649841309,11.4960021973,31.3099975586.4289855957.9939880371,1.6369934082.641998291,1.4519958496-.4320068359" fill="#1d1d1b"/>
  <path d="M272.9374084473,176.899017334l4.7640075684.8479919434,2.4049987793.4270019531,2.4739990234.2090148926c3.2030029297.2779846191,6.4029846191.6069946289,9.5879821777.9889831543,3.1840209961.3860168457,6.3610229492.825012207,9.4770202637,1.4030151367,1.5429992676.3079833984,3.1059875488.6159973145,4.5390014648,1.0570068359l4.6049804688,1.4239807129,4.416015625,1.2749938965c7.5959777832,2.2850036621,15.0369873047,5.125,21.7309875488,9.125,3.3450012207,1.9860229492,6.4530029297,4.3370056152,9.0419921875,7.1060180664.7020263672.6510009766,1.2450256348,1.4169921875,1.83203125,2.1519775391l.7349853516.9270019531.5540161133,1.258026123,2.4319763184,5.5130004883,1.8689880371,4.2399902344,16.6380004883,34.9580078125c.6210327148,1.0899963379,1.7720336914.5820007324,1.3860168457-.6119995117l-14.5929870605-35.8590087891-1.8690185547-4.2399902344-2.4320068359-5.5130004883-.6599731445-1.4990234375c-.2790222168-.5029907227-.4380187988-.5999755859-.5950317383-.8329772949l-.4949951172-.6300048828c-.6649780273-.8359985352-1.2979736328-1.7059936523-2.0689697266-2.4299926758-2.9030151367-3.1000061035-6.2820129395-5.6340026855-9.8350219727-7.7480163574-7.1159973145-4.2489929199-14.8200073242-7.1640014648-22.5889892578-9.5050048828l-4.4880065918-1.2959899902-4.716003418-1.1650085449c-1.6799926758-.407989502-3.3049926758-.6269836426-4.9400024414-.8569946289-3.2579956055-.4119873047-6.4969787598-.6679992676-9.7349853516-.8729858398-3.2380065918-.199005127-6.4720153809-.3440246582-9.7080078125-.4370117188l-2.3550109863-.0589904785-2.3809814453-.2820129395-4.8050231934-.5709838867c-1.2539978027-.0559997559-1.4379882812,1.1879882812-.2219848633,1.4979858398" fill="#1d1d1b"/>
  <path d="M411.1144104004,329.5148162842c-4.717010498,7.1920013428-10.9809875488,13.3710021973-18,18.2870025635l-1.3120117188.9319915771c-.4429931641.3010101318-.9059753418.575012207-1.3569946289.8630065918-.9129943848.5639953613-1.8059997559,1.1560058594-2.7319946289,1.6949920654-1.8869934082,1.0170135498-3.7290039062,2.1100006104-5.6940002441,2.967010498-3.8370056152,1.8999938965-7.8970031738,3.2809906006-12.0100097656,4.4819946289-.9779968262.3099975586-1.9369812012.6699981689-2.9289855957.9410095215l-3.0010070801.7489929199c-10.3949890137,2.6390075684-21.1229858398,4.1679992676-31.8890075684,5.1479949951-10.7769775391.9459991455-21.6089782715,1.4080047607-32.449005127,1.5579986572l-6.2539672852.0450134277c-17.4110107422.3609924316-34.8780212402.0589904785-52.2870178223-.978012085-1.6889953613-.0119934082-1.81199646,1.2400054932-.1320037842,1.5090026855,17.4179840088,1.7850036621,34.8950042725,2.8339996338,52.4229888916,3.2190093994l6.2970275879-.046005249c10.9169921875-.1510009766,21.8399963379-.6150054932,32.741973877-1.5720062256,10.8959960938-.9949951172,21.7870178223-2.5369873047,32.4860229492-5.2519989014l3.0869750977-.7729949951c1.0250244141-.2799987793,2.0300292969-.6529998779,3.0450134277-.9750061035,4.2109985352-1.4270019531,8.3840026855-3.0529937744,12.3000183105-5.2019958496,2.0029907227-.9799957275,3.8759765625-2.1970062256,5.7859802246-3.3370056152.9370117188-.5999908447,1.8390197754-1.2539978027,2.7590026855-1.8779907227.4550170898-.3190002441.9209899902-.6230010986,1.3659973145-.9550018311l1.3179931641-1.0220031738c3.5270080566-2.7010040283,6.8229980469-5.6979980469,9.7990112305-8.9819946289,2.9859924316-3.2750091553,5.674987793-6.8099975586,7.9349975586-10.6410064697.7699890137-1.5749969482-.3639831543-2.1269989014-1.2969970703-.7819976807" fill="#1d1d1b"/>
</svg>