<?xml version="1.0" encoding="UTF-8"?>
<svg id="Ebene_1" data-name="Ebene 1" xmlns="http://www.w3.org/2000/svg" xmlns:xlink="http://www.w3.org/1999/xlink" viewBox="0 0 566.9290161133 566.9290161133">
  <defs>
    <clipPath id="clippath">
      <path d="M255.0540008545,126.365020752c-3.4960021973,0-5.0780029297,2.0629882812-3.5359954834,4.608001709,0,0,2.5119934082,1.2569885254,2.7919921875,4.6069946289.279006958,3.3510131836-5.862991333,7.9100036621-8.0970001221,9.7300109863-2.2350006104,1.8190002441-7.1210021973,3.0929870605-7.1210021973,3.0929870605-3.9329986572,1.7080078125-4.6210021973,2.7900085449-1.5359954834,2.4169921875,0,0,5.5850067139-.675994873,8.9360046387-.675994873,3.3499908447,0,24.8099975586-.4159851074,28.9979858398-.4159851074,6.683013916,0,20.3359985352,8.0179748535,23.4370117188,4.2959899902,2.9519958496-3.5419921875,1.2900085449-10.9469909668-1.4800109863-13.7470092773-3.1369934082-3.1770019531-7.7290039062-6.9869995117-16.2169799805-9.4440002441-4.0700073242-1.1770019531-15.1910095215-4.4679870605-19.8470153809-4.4679870605h-6.328994751Z" fill="none"/>
    </clipPath>
  </defs>
  <g>
    <path d="M358.4104919434,351.8137207031c6.2609863281-2.4029998779,4.1459960938-23.0870056152-4.7250061035-46.1979980469-8.8720092773-23.1099853516-21.1399841309-39.8970031738-27.4019775391-37.4930114746-6.2610168457,2.4030151367-4.1450195312,23.0859985352,4.725982666,46.1980133057,8.8720092773,23.1109924316,21.1400146484,39.8959960938,27.4010009766,37.4929962158" fill="#005538"/>
    <path d="M358.4104919434,351.8137207031c6.2609863281-2.4029998779,4.1459960938-23.0870056152-4.7250061035-46.1979980469-8.8720092773-23.1099853516-21.1399841309-39.8970031738-27.4019775391-37.4930114746-6.2610168457,2.4030151367-4.1450195312,23.0859985352,4.725982666,46.1980133057,8.8720092773,23.1109924316,21.1400146484,39.8959960938,27.4010009766,37.4929962158Z" fill="none" stroke="#1d1d1b" stroke-width="4.7140002251"/>
    <path d="M370.7894897461,351.8137207031c6.2609863281-2.4029998779,4.1459960938-23.0870056152-4.7250061035-46.1979980469-8.8719787598-23.1099853516-21.1399841309-39.8970031738-27.4020080566-37.4930114746-6.2609863281,2.4030151367-4.1449890137,23.0859985352,4.7260131836,46.1980133057,8.8720092773,23.1109924316,21.1400146484,39.8959960938,27.4010009766,37.4929962158" fill="#005538"/>
    <path d="M370.7894897461,351.8137207031c6.2609863281-2.4029998779,4.1459960938-23.0870056152-4.7250061035-46.1979980469-8.8719787598-23.1099853516-21.1399841309-39.8970031738-27.4020080566-37.4930114746-6.2609863281,2.4030151367-4.1449890137,23.0859985352,4.7260131836,46.1980133057,8.8720092773,23.1109924316,21.1400146484,39.8959960938,27.4010009766,37.4929962158Z" fill="none" stroke="#1d1d1b" stroke-width="4.7140002251"/>
    <path d="M277.0828857422,184.158203125c-23.6479949951,9.0769958496-34.2180023193,38.8399963379-23.6089935303,66.4769897461,10.6079864502,27.6360168457,38.3789825439,42.6809997559,62.0269927979,33.6040039062,7.1159973145-2.7319946289,13.0390014648-7.3460083008,17.5650024414-13.2039794922.4060058594,2.884979248.9179992676,5.8449707031,1.5599975586,8.8589782715,5.1459960938,24.2149963379,16.0289916992,42.4180145264,24.3049926758,40.6580047607,6.8269958496-1.4510040283,9.7440185547-16.0370025635,7.6690063477-34.6899871826" fill="#005538"/>
    <path d="M366.0364074707,291.4161071777h-.0180053711l.0350036621.8789978027c.0020141602.1340026855.0039978027.2480163574.0079956055.3840026855.0030212402.0520019531.007019043.0950012207.0119934082.1480102539,0,0,.0130004883.7009887695.0380249023,2.0139770508.0159912109,1.3130187988.009979248,3.240020752-.1280212402,5.6740112305-.1529846191,2.4270019531-.4159851074,5.3819885254-1.1389770508,8.6369934082-.3590087891,1.6240234375-.8550109863,3.3160095215-1.5660095215,4.9700012207-.7220153809,1.620010376-1.7010192871,3.2750091553-3.058013916,4.2230072021-1.3329772949.970993042-2.9709777832,1.0279998779-4.6879882812.1689910889-1.7030029297-.8609924316-3.3320007324-2.3759918213-4.7709960938-4.1339874268-2.908996582-3.5340118408-5.2579956055-7.9839935303-7.3030090332-12.6890106201-2.0320129395-4.7299804688-3.717010498-9.8099975586-5.091003418-15.0459899902-.6770019531-2.6210021973-1.3139953613-5.2760009766-1.7989807129-7.966003418-.7290039062-4.2640075684-1.4609985352-8.5400085449-2.1910095215-12.8110046387l-3.0679931641,3.8059997559c-.5220031738.6470031738-1.0400085449,1.233001709-1.5620117188,1.8540039062-.5029907227.6140136719-1.0830078125,1.2269897461-1.5530090332,1.6979980469-1.0739746094,1.0790100098-2.2039794922,2.0950012207-3.3829956055,3.0370178223-2.3639831543,1.8809814453-4.9289855957,3.4559936523-7.6040039062,4.7049865723-1.3399963379.6210021973-2.7070007324,1.1610107422-4.1099853516,1.5549926758-1.391998291.4240112305-2.75.9270019531-4.1740112305,1.1140136719-1.4060058594.2469787598-2.7850036621.5989990234-4.1929931641.6219787598-1.3989868164.0690002441-2.7749938965.2870178223-4.1459960938.1560058594-6.0800170898-.0969848633-12.6110229492-1.6929931641-18.7420043945-4.7739868164l-1.1619873047-.5570068359-1.1130065918-.6669921875c-.7439880371-.4440002441-1.4920043945-.8900146484-2.2430114746-1.3370056152-1.4769897461-.9320068359-2.8549804688-2.0429992676-4.3059997559-3.0599975586-1.3229980469-1.1820068359-2.7139892578-2.3070068359-4-3.5530090332l-1.8649902344-1.9450073242c-.6270141602-.6449890137-1.2630004883-1.2859802246-1.8039855957-2.009979248-4.6610107422-5.5119934082-8.2810058594-11.9590148926-10.666015625-18.6670227051-2.3990020752-6.7059936523-3.5350036621-13.6669921875-3.483001709-20.225982666.0549926758-13.1870117188,4.9819946289-24.391998291,10.358001709-30.6459960938,2.5650024414-3.2630004883,5.1569824219-5.3980102539,6.9630126953-6.7940063477.867980957-.7539978027,1.6380004883-1.1960144043,2.1469726562-1.5140075684.5090026855-.3190002441.7750244141-.4849853516.7750244141-.4849853516.0449829102-.0250244141.0819702148-.0450134277.1269836426-.0710144043.1119995117-.074005127.2059936523-.134979248.3150024414-.2059936523l.7340087891-.4609985352-.0090026855-.0149841309c.6170043945-.4510192871,1.2639770508-.757019043,1.8209838867-1.0900268555.5599975586-.3309936523,1.0510253906-.6499938965,1.4540100098-.9459838867.8030090332-.5930175781,1.2510070801-1.0899963379,1.1440124512-1.3699951172-.1069946289-.283996582-.7730102539-.2810058594-1.8040161133-.0450134277-.5159912109.1189880371-1.1199951172.2950134277-1.7879943848.524017334-.6719970703.2199707031-1.4060058594.4909667969-2.108001709.924987793l-.0209960938-.033996582s-.3280029297.1929931641-.9519958496.5599975586c-.6100158691.3880004883-1.5719909668.8670043945-2.6930236816,1.6560058594-.5469970703.4149780273-1.1539916992.8759765625-1.8189697266,1.3789978027-.3330078125.2529907227-.6780090332.5159912109-1.0390014648.7900085449-.1800231934.1380004883-.3640136719.2769775391-.5510253906.4189758301-.1699829102.1620178223-.3429870605.3269958496-.5189819336.4950256348-1.4030151367,1.3459777832-3.0769958496,2.8109741211-4.5780029297,4.7479858398-3.1350097656,3.7309875488-6.2570037842,8.7299804688-8.4140014648,14.782989502-2.1740112305,6.033996582-3.3829956055,13.074005127-3.1950073242,20.4150085449.1679992676,7.3399963379,1.7380065918,14.9540100098,4.6020050049,22.0769958496,2.845993042,7.1300048828,7.0189971924,13.766998291,12.0869903564,19.2390136719,5.050994873,5.4859924316,10.9800109863,9.7899780273,16.9850158691,12.6319885254,6.0029907227,2.8689880371,12.0469970703,4.233001709,17.2359924316,4.575012207,1.2779846191.0279846191,2.6100158691.1569824219,3.9939880371.0969848633,1.383026123-.1040039062,2.8200073242-.2120056152,4.3130187988-.324005127,1.4700012207-.2850036621,2.9960021973-.5780029297,4.5769958496-.8829956055,1.550994873-.424987793,3.1279907227-.9769897461,4.7739868164-1.4949951172,3.2290039062-1.2139892578,6.5320129395-2.9389953613,9.7190246582-5.2529907227,1.5929870605-1.1580200195,3.1529846191-2.4640197754,4.6529846191-3.9210205078l.5629882812-.5489807129.4460144043-.4640197754.0419921875-.0569763184.0970153809-.1390075684c.0220031738.0159912109.0350036621.083984375.0589904785.1549987793l.0159912109.0579833984.0100097656.0299987793.075012207.4049987793c.1149902344.6310119629.233001709,1.2660217285.3500061035,1.9010009766.4349975586,2.5500183105,1.1049804688,5.0840148926,1.7769775391,7.6340026855,1.3779907227,5.0890197754,3.0760192871,10.1740112305,5.1679992676,15.0590209961,2.1069946289,4.8739929199,4.5540161133,9.5859985352,7.7200012207,13.7339935303,1.6010131836,2.0569915771,3.3739929199,3.9980010986,5.6329956055,5.4969940186,1.1280212402.7369995117,2.4040222168,1.3659973145,3.8529968262,1.6399993896,1.4390258789.2830047607,3.041015625.1220092773,4.3760070801-.4899902344,1.3550109863-.5930023193,2.3770141602-1.5550079346,3.1710205078-2.5279998779.7949829102-.9860076904,1.3789978027-2.0230102539,1.8619995117-3.0450134277.9469909668-2.0549926758,1.4909973145-4.0699920654,1.8999938965-5.9709777832.7940063477-3.8090209961.9819946289-7.1860046387,1.0729980469-9.9760131836.0700073242-2.7919921875-.0110168457-5.0050048828-.0800170898-6.5199890137-.0729980469-1.516998291-.1409912109-2.3340148926-.1409912109-2.3340148926h-.0419921875c-.2860107422-3.2229919434-1.0780029297-5.6449890137-1.6709899902-5.574005127-.6040039062.0710144043-.7800292969,2.4880065918-.7090148926,5.5700073242" fill="#1d1d1b"/>
    <path d="M345.9779968262,273.654510498c11.1010131836,7.1210021973,40.592010498,22.6700134277,42.7630004883,19.9920043945,3.066986084-3.7890014648-8.4100036621-18.1679992676-25.6369934082-32.1170043945-.0079956055-.0069885254-.0150146484-.0130004883-.0220031738-.0190124512-1.399017334-1.1329956055-2.4970092773-2.6049804688-3.1100158691-4.2979736328-4.8939819336-13.491027832-11.3979797363-22.9190063477-17.134979248-24.291015625-.5769958496-5.032989502-1.7980041504-10.1289978027-3.7279968262-15.158996582-10.6090087891-27.6369934082-38.3790283203-42.6820068359-62.0260009766-33.6050109863" fill="#005538"/>
    <path d="M281.6741027832,184.33203125l.0060119629.0270080566c.2149963379-.0729980469.4409790039-.1069946289.6659851074-.1390075684.1040039062-.0130004883.1920166016-.0239868164.2969970703-.0360107422.0390014648-.0109863281.0729980469-.0189819336.1119995117-.0299987793,0,0,.7229919434-.1159973145,2.0620117188-.3289794922,1.3219909668-.3130187988,3.3139953613-.3030090332,5.7850036621-.4360046387,1.2379760742.0789794922,2.6029968262.1649780273,4.0829772949.259979248,1.4700012207.1750183105,3.0360107422.5170288086,4.7020263672.7860107422,3.2679748535.8959960938,6.9209899902,1.9800109863,10.5130004883,3.9559936523,1.8559875488.8520202637,3.5950012207,2.0790100098,5.4329833984,3.2310180664.9010009766.6040039062,1.7420043945,1.3280029297,2.6329956055,1.9960021973.4400024414.341003418.8829956055.6829833984,1.3290100098,1.0269775391.4140014648.3840026855.8309936523.7680053711,1.25,1.1549987793,3.4530029297,2.9820251465,6.4609985352,6.7090148926,9.1549987793,10.6800231934.6430053711,1.016998291,1.2879943848,2.0369873047,1.9349975586,3.0609741211.5570068359,1.075012207,1.1170043945,2.1520080566,1.6770019531,3.2300109863.2699890137.5450134277.5820007324,1.0670166016.8179931641,1.6279907227l.6940002441,1.6870117188c.4530029297,1.1289978027.9580078125,2.2340087891,1.3710021973,3.3730163574.8099975586,2.2859802246,1.4809875488,4.6079711914,2.0050048828,6.9369812012.2630004883,1.1650085449.4889831543,2.3320007324.6780090332,3.4970092773l.1369934082.8729858398.157989502,1.149017334c.1470031738,1.2200012207.2929992676,2.4369812012.4380187988,3.6489868164.5749816895.1900024414,1.1470031738.3800048828,1.7149963379.5679931641.5440063477.2070007324,1.2169799805.3430175781,1.6539916992.6190185547.3469848633.1350097656.6849975586.4270019531,1.032989502.6279907227.6910095215.5270080566,1.375,1.1300048828,2.0190124512,1.8150024414,1.291015625,1.3710021973,2.4530029297,2.9200134277,3.483001709,4.5379943848,2.5809936523,4.0220031738,4.8869934082,8.8559875488,6.8519897461,14.0500183105.2010192871.5209960938.6000061035,1.6309814453,1.0880126953,2.4629821777.4849853516.8710021973,1.0699768066,1.6770019531,1.7250061035,2.4100036621.3309936523.3659973145.6770019531.7130126953,1.0409851074,1.0419921875.1820068359.1620178223.3680114746.3220214844.5570068359.4760131836l.4450073242.3569946289,1.6929931641,1.3619995117c2.2519836426,1.833984375,4.4849853516,3.7349853516,6.6709899902,5.6940002441,4.3550109863,3.9209899902,8.574005127,8.0769958496,12.1190185547,12.4299926758.8789978027,1.0880126953,1.7119750977,2.1880187988,2.4539794922,3.2920227051.3690185547.5520019531.7180175781,1.1029968262,1.0289916992,1.6489868164l.1130065918.2050170898.0379943848.0579833984.058013916.0930175781c.0400085449.0629882812.0769958496.1289672852.1130065918.1989746094.1319885254.2650146484.283996582.632019043.1329956055.9530029297-.2340087891.2380065918-.5960083008.0960083008-.9209899902.0590209961l-.2560119629-.0570068359-.1780090332-.0480041504-.4499816895-.1470031738c-.5989990234-.200012207-1.1960144043-.4110107422-1.791015625-.6310119629-1.1870117188-.4379882812-2.3569946289-.9039916992-3.5019836426-1.375-2.2900085449-.9449768066-4.4800109863-1.9159851074-6.5480041504-2.8599853516-4.1370239258-1.8940124512-7.791015625-3.6860046387-10.8229980469-5.2090148926-6.0679931641-3.0549926758-9.6459960938-5.0469970703-9.6459960938-5.0469970703-.0350036621-.0239868164-.0640258789-.0440063477-.0980224609-.0679931641-.0979919434-.0480041504-.1799926758-.0899963379-.2760009766-.1369934082l-.6159973145-.342010498-.0130004883.0230102539c-2.2059936523-1.1159973145-4.175994873-1.5380249023-4.6659851074-.7869873047-.4989929199.7649841309.8020019531,2.4639892578,2.9400024414,3.908996582l-.0299987793.0539855957s4.0149841309,2.5379943848,10.6329956055,6.2590026855c3.3119812012,1.8599853516,7.2709960938,4.0239868164,11.7489929199,6.282989502,2.2399902344,1.1289978027,4.6099853516,2.2810058594,7.1300048828,3.4010009766,1.2630004883.5570068359,2.5599975586,1.108001709,3.9320068359,1.6220092773l.6099853516.2239990234.8710021973.2890014648c.5799865723.1910095215,1.1679992676.3609924316,1.75.4960021973,1.1640014648.2749938965,2.3130187988.4010009766,3.2720031738.2249755859.4849853516-.0809936523.9209899902-.2309875488,1.3510131836-.4609985352.4069824219-.2639770508.8139953613-.6479797363,1.0959777832-1.083984375.5830078125-.8659973145.8510131836-1.8590087891.8950195312-2.9400024414.0309753418-1.0899963379-.2550048828-2.2869873047-.641998291-3.4880065918-.2470092773-.5959777832-.490020752-1.199005127-.7660217285-1.7929992676l-.3479919434-.6820068359c-.0929870605-.1869812012-.1920166016-.3649902344-.291015625-.5409851074-1.5829772949-2.8370056152-3.4439697266-5.3179931641-5.3929748535-7.7129821777-3.907989502-4.7640075684-8.2050170898-9.08203125-12.5100097656-13.0510253906-2.1529846191-1.9799804688-4.3150024414-3.8670043945-6.4519958496-5.6480102539l-.3989868164-.3349914551-.2650146484-.233001709c-.1699829102-.1539916992-.3290100098-.3159790039-.4779968262-.4829711914-.2980041504-.3330078125-.5559997559-.6880187988-.7690124512-1.0520019531-.2229919434-.3800048828-.3710021973-.7109985352-.5260009766-1.1560058594-.2309875488-.6289978027-.4580078125-1.2510070801-.6829833984-1.866027832-1.842010498-4.9149780273-3.8950195312-9.2939758301-6.0809936523-12.8899841309-1.0090026855-1.6770019531-2.1770019531-3.4580078125-3.9010009766-5.5079956055-.8619995117-1.0230102539-1.8870239258-2.1100158691-3.2150268555-3.2300109863-.3479919434-.2720031738-.7049865723-.549987793-1.0709838867-.8369750977-.3999938965-.2710266113-.8280029297-.5380249023-1.2609863281-.8100280762-.2060241699-.1409912109-.4680175781-.2579956055-.716003418-.3829956055-.1780090332-.0870056152-.1140136719-.0539855957-.1480102539-.0650024414h-.0060119629l-.0119934082.0010070801s-.0079956055-.0039978027-.0130004883-.0079956055l-.0020141602-.0029907227c-.0039672852-.0160217285.0020141602.0220031738-.0029907227-.0050048828l-.032989502-.2050170898-.1369934082-.8289794922c-.1910095215-1.1090087891-.4200134277-2.2319946289-.6809997559-3.3680114746-.5220031738-2.2729797363-1.1870117188-4.5929870605-2.0060119629-6.9169921875-.7789916992-2.342010498-1.8959960938-4.6100158691-2.9299926758-6.9450073242-.2460021973-.5889892578-.5440063477-1.157989502-.8699951172-1.7149963379l-.9440002441-1.6900024414c-.649017334-1.1199951172-1.2210083008-2.2919921875-1.9970092773-3.3479919434-.7349853516-1.0780029297-1.4720153809-2.158996582-2.2099914551-3.2420043945-.7730102539-1.0570068359-1.6430053711-2.0450134277-2.4620056152-3.0679931641l-1.2489929199-1.5130004883-1.3690185547-1.4070129395c-.9279785156-.9190063477-1.7899780273-1.8980102539-2.7649841309-2.7529907227-3.8210144043-3.5150146484-8.0760192871-6.3569946289-12.3110046387-8.641998291-2.2050170898-.983001709-4.2780151367-2.0820007324-6.4509887695-2.7300109863-1.074005127-.3479919434-2.0950012207-.7770080566-3.1500244141-1.0289916992-1.0529785156-.2480163574-2.0829772949-.4909973145-3.0859985352-.7279968262-.992980957-.274017334-1.9939880371-.382019043-2.9609985352-.5030212402-.966003418-.1209716797-1.9010009766-.2389831543-2.8049926758-.3529968262-1.8209838867-.0809936523-3.516998291-.0780029297-5.0530090332-.1099853516-1.533996582.1470031738-2.9179992676.2779846191-4.1309814453.3939819336-.6069946289.0340270996-1.1600036621.1650085449-1.6690063477.2750244141-.5079956055.1089782715-.9729919434.2079772949-1.3900146484.2969970703-.8320007324.1799926758-1.4769897461.3200073242-1.9140014648.4129943848-.4379882812.083984375-.657989502.1650085449-.657989502.1650085449l.0130004883.0610046387c-2.5279846191.9559936523-4.2269897461,2.2609863281-3.8840026855,3.1059875488.3340148926.8309936523,2.3619995117.9410095215,4.6690063477.3789978027" fill="#1d1d1b"/>
    <path d="M265.3552856445,447.0448150635l.0209960938-.016998291-.0700073242-.1240005493c-.0109863281-.0190048218-.0069885254-.0449981689-.0209960938-.0610046387-.0050048828-.0079956055-.0149841309-.0079956055-.0209960938-.0149993896,0,0-5.949005127-10.5960006714-10.8939971924-17.1549911499-4.9459991455-6.5590057373-14.7169952393-15.5570068359-14.7169952393-15.5570068359-.0039978027-.0070037842-.0019989014-.016998291-.0079956055-.0240020752-.0130004883-.0160064697-.0390014648-.0200042725-.0540161133-.0349884033l-.1049957275-.0970153809-.0209960938.0160064697c-.43699646-.2859954834-1.233001709-.1459960938-1.9400024414.4069976807-.7169952393.5620117188-1.0449981689,1.3170013428-.8520050049,1.8090057373l-.0489959717.0379943848s8.1139984131,12.6390075684,11.8610076904,17.658996582c3.7460021973,5.0200042725,14,15.373008728,14,15.373008728l.0489807129-.0380020142c.4309997559.3050003052,1.2430114746.1679992676,1.9600219727-.3939971924.7070007324-.5530014038,1.033996582-1.293006897.8609924316-1.7850036621" fill="#1d1d1b"/>
    <path d="M335.9930114746,463.7247161865l.0239868164-.0130004883-.049987793-.1340026855c-.0100097656-.0189971924-.0010070801-.0449981689-.0119934082-.0639953613-.0029907227-.0070037842-.0140075684-.0090026855-.0190124512-.0159988403,0,0-4.2619934082-11.3339996338-8.1470031738-18.5370025635-3.884979248-7.2029953003-12.1640014648-17.5289993286-12.1640014648-17.5289993286-.0049743652-.0070037842-.0009765625-.016998291-.0049743652-.0250091553-.0110168457-.0189971924-.0370178223-.0249938965-.0480041504-.0419921875l-.0890197754-.1119995117-.0239868164.0130004883c-.3869934082-.3479919434-1.1940002441-.3280029297-1.9769897461.1130065918-.7940063477.4469909668-1.2320251465,1.141998291-1.1170043945,1.6569976807l-.0530090332.0309906006s6.0880126953,13.668006897,9.0239868164,19.1760025024c2.9349975586,5.5060043335,11.4860229492,17.2410049438,11.4860229492,17.2410049438l.0539855957-.0300064087c.3789978027.3650054932,1.2019958496.3510055542,1.9960021973-.0969924927.7820129395-.4400024414,1.217010498-1.1210021973,1.1210021973-1.6320037842" fill="#1d1d1b"/>
    <path d="M342.4209899902,344.57081604c6.2609863281-2.4029998779,4.1459960938-23.0870056152-4.7250061035-46.1980133057-8.8720092773-23.1099853516-21.1399841309-39.8969726562-27.4019775391-37.492980957-6.2610168457,2.4029846191-4.1450195312,23.0859985352,4.725982666,46.1979980469,8.8720092773,23.1109924316,21.1390075684,39.8959960938,27.4010009766,37.4929962158" fill="#005538"/>
    <path d="M342.4209899902,344.57081604c6.2609863281-2.4029998779,4.1459960938-23.0870056152-4.7250061035-46.1980133057-8.8720092773-23.1099853516-21.1399841309-39.8969726562-27.4019775391-37.492980957-6.2610168457,2.4029846191-4.1450195312,23.0859985352,4.725982666,46.1979980469,8.8720092773,23.1109924316,21.1390075684,39.8959960938,27.4010009766,37.4929962158Z" fill="none" stroke="#1d1d1b" stroke-width="4.7140002251"/>
    <path d="M180.1170043945,421.8130187988l.0019989014.0269927979.1660003662.0050048828c.0249938965,0,.0489959717.016998291.0729980469.0140075684.0100097656-.0010070801.016998291-.0090026855.0279998779-.0100097656,0,0,14.0890045166.4390106201,23.6100006104-.3669891357,9.5220031738-.808013916,24.4800109863-4.4710083008,24.4800109863-4.4710083008.0099945068,0,.0189819336.0070037842.0279846191.0059967041.0260009766-.0029907227.0450134277-.0240020752.0700073242-.0289916992l.1609954834-.0370025635-.0029907227-.0279998779c.5559997559-.2250061035.9250030518-.9770050049.8349914551-1.8710021973-.0909881592-.9069976807-.6169891357-1.5800018311-1.2189941406-1.6719970703l-.0059967041-.06199646s-17.450012207.345993042-24.7130126953.9299926758c-7.2630004883.5850067139-23.8470001221,3.9540100098-23.8470001221,3.9540100098l.0050048828.06199646c-.5709991455.2099914551-.9530029297.9749908447-.8619995117,1.8819885254.0899963379.8930053711.6029968262,1.558013916,1.1920013428,1.6670074463" fill="#1d1d1b"/>
    <path d="M260.4028015137,437.9607086182l.0050048828.0269927979.1699829102-.0129852295c.0250244141-.0020141602.0510253906.0119934082.0760192871.0069885254.0109863281-.0019989014.0159912109-.0119934082.0270080566-.0139923096,0,0,14.4449768066-1.0390014648,24.1019897461-2.842010498,9.6560058594-1.800994873,24.5929870605-7.0179901123,24.5929870605-7.0179901123.0100097656-.0010070801.0190124512.004989624.0299987793.0029907227.0249938965-.004989624.0429992676-.0289916992.0670166016-.0359954834l.1609802246-.0540008545-.0039978027-.0260009766c.5460205078-.2819976807.8510131836-1.0719909668.6730041504-1.9510040283-.1809997559-.8939971924-.7850036621-1.5089874268-1.407989502-1.5369873047l-.0130004883-.0610046387s-17.8049926758,2.1730041504-25.1730041504,3.5180053711c-7.3680114746,1.3429870605-23.9979858398,6.4379882812-23.9979858398,6.4379882812l.0130004883.0600128174c-.5650024414.2689971924-.8810119629,1.0699920654-.700012207,1.9639892578.1780090332.8789978027.7659912109,1.4889984131,1.3789978027,1.5350036621" fill="#1d1d1b"/>
    <polygon points="312.303314209 425.0800170898 264.6683044434 436.1540222168 286.0523071289 456.9320144653 312.303314209 425.0800170898" fill="#003822"/>
    <polygon points="312.303314209 425.0800170898 264.6683044434 436.1540222168 286.0523071289 456.9320144653 312.303314209 425.0800170898" fill="none" stroke="#1d1d1b" stroke-linejoin="round" stroke-width="3.367000103"/>
    <path d="M313.674407959,385.6344146729c2.5599975586-2.8679962158,4.3439941406-9.2109985352,4.3439941406-16.5939941406,0-7.3820037842-1.783996582-13.7250061035-4.3439941406-16.5930023193v-19.3980102539h-6.1099853516v19.3980102539c-2.5600280762,2.8679962158-4.3440246582,9.2109985352-4.3440246582,16.5930023193,0,7.3829956055,1.783996582,13.7259979248,4.3440246582,16.5939941406v40.1900024414l-26.2210083008,32.8600006104h50.5260009766l-18.1950073242-31.4140014648v-41.6360015869Z" fill="#005538"/>
    <path d="M313.674407959,385.6344146729c2.5599975586-2.8679962158,4.3439941406-9.2109985352,4.3439941406-16.5939941406,0-7.3820037842-1.783996582-13.7250061035-4.3439941406-16.5930023193v-19.3980102539h-6.1099853516v19.3980102539c-2.5600280762,2.8679962158-4.3440246582,9.2109985352-4.3440246582,16.5930023193,0,7.3829956055,1.783996582,13.7259979248,4.3440246582,16.5939941406v40.1900024414l-26.2210083008,32.8600006104h50.5260009766l-18.1950073242-31.4140014648v-41.6360015869Z" fill="none" stroke="#005538" stroke-width="1.1840000153"/>
    <path d="M312.6358947754,339.4028167725l-.0180053711-.0010070801-.0149841309,1.0240020752c-.0050048828.1560058594-.0079956055.2880096436-.0140075684.4470062256.0019836426.06199646.0029907227.1109924316.0060119629.1730041504,0,0-.0360107422,2.6149902344-.099029541,7.2579956055-.0149841309,1.2480010986-.0319824219,2.6309967041-.050994873,4.141998291l-.0029907227.3999938965c.0369873047.1220092773.1539916992.2140045166.2279968262.3230133057.1640014648.2059936523.3280029297.4140014648.4940185547.6239929199.1769714355.2749938965.3759765625.5410003662.5369873047.8460083008.350982666.5859985352.6449890137,1.2599945068.9370117188,1.9609985352,1.1019897461,2.8549957275,1.7639770508,6.4169921875,1.8989868164,10.3359985352.1260070801,3.908996582-.1839904785,8.2639923096-1.4960021973,12.5119934082-.3359985352,1.050994873-.7380065918,2.0899963379-1.2390136719,3.0540008545-.2489929199.4850006104-.5199890137.9409942627-.8319702148,1.3650054932-.0720214844.1329956055-.5030212402.6380004883-.8130187988,1.0179901123l-.125.1510009766c-.0230102539.0570068359-.0069885254.1280059814-.0130004883.1910095215l-.0019836426.3899993896-.0050048828.7850036621c-.0270080566,2.4979858398-.0549926758,5.0579833984-.0840148926,7.6709899902-.1000061035,10.5820007324-.208984375,22.0330047607-.3209838867,33.7529907227,4.9360046387,8.6710205078,10.0379943848,17.6330108643,15.0589904785,26.4510116577l.9240112305,1.6200027466.1839904785.3199996948.0069885254.0189971924.0140075684.0349960327c.0320129395.0470046997-.0279846191.1000061035-.0749816895.0790023804-2.0390014648-.0120010376-4.0640258789-.0240020752-6.0690002441-.0349960327-4.8390197754-.013999939-9.5770263672-.0279998779-14.1520080566-.0419998169h-12.6840209961c-2.1859741211.0039978027-4.4039916992.0089950562-6.6510009766.0149993896l-1.6899719238.0049972534h-.1110229492l-.0029907227.0009994507-.0039978027.0009994507-.0119934082.0029983521-.0680236816.0130004883c7.6180114746-9.6959991455,15.6650085449-19.9349899292,23.3810119629-29.7539901733-.1139831543-11.6400146484-.2239990234-22.9869995117-.3259887695-33.4630126953-.0140075684-1.2799987793-.0280151367-2.5469970703-.0419921875-3.799987793-.007019043-.6260070801-.0150146484-1.2490081787-.0220031738-1.8680114746l-.0100097656-.925994873c-.0299987793-.4980010986.0520019531-1.0599975586-.0690002441-1.5330047607l-.4949951172-.5979919434-.2460021973-.2989959717-.1149902344-.1620025635c-.149017334-.2129974365-.3050231934-.4190063477-.4350280762-.6510009766-.2769775391-.4410095215-.5279846191-.9199981689-.7519836426-1.4130096436-.4509887695-.9839935303-.8259887695-2.0179901123-1.1230163574-3.0679931641-1.1859741211-4.2200012207-1.4429931641-8.4929962158-1.2859802246-12.3309936523.191986084-3.8400115967.8540039062-7.3350067139,1.9880065918-10.103012085.2779846191-.6929931641.600982666-1.3259887695.9389953613-1.9029998779.0820007324-.1470031738.1820068359-.2769927979.2699890137-.4160003662.092010498-.1360015869.1539916992-.2460021973.3590087891-.4919891357.1690063477-.2120056152.3370056152-.421005249.5029907227-.6300048828.0209960938-.2590026855.0010070801-.529006958.0050048828-.7870025635-.0190124512-1.4429931641-.0369873047-2.7639923096-.0530090332-3.9559936523-.0659790039-4.5520019531-.1019897461-7.1119995117-.1019897461-7.1119995117.0010070801-.0620117188.0029907227-.1110076904.0039978027-.1730041504-.0039978027-.158996582-.0079956055-.2910003662-.0140075684-.4470062256l-.0140075684-1.0240020752-.0179748535.0010070801c-.1119995117-3.591003418-.5870056152-6.3529968262-1.1860046387-6.3529968262-.6069946289,0-1.0890197754,2.8470001221-1.1900024414,6.5220031738l-.0419921875.0029907227s-.0180053711,2.2149963379-.0520019531,6.358001709c-.0079956055,1.0370025635-.016998291,2.1930084229-.0270080566,3.466003418-.0050048828.6360015869-.0100097656,1.300994873-.0159912109,1.9940032959-.0030212402.1739959717-.0050048828.3519897461-.0090026855.532989502-.1100158691.137008667-.1140136719.1070098877-.4230041504.5559997559-1.9190063477,2.8160095215-2.9550170898,6.3550109863-3.5690002441,10.3150024414-.5830078125,3.9700012207-.6960144043,8.4060058594.0149841309,13.2030029297.3870239258,2.3930053711.9470214844,4.8829956055,2.0680236816,7.3899993896.2809753418.6259918213.6109924316,1.2509918213.9869995117,1.8719940186l.5659790039.8380126953c.0510253906.0759887695.1380004883.1359863281.1100158691.237991333-.0090026855,1.1719970703-.016998291,2.3639984131-.0249938965,3.5749969482-.0630187988,10.5060119629-.133026123,22.341003418-.2100219727,35.2239990234-2.9969787598,3.6740112305-6.9570007324,8.5320129395-11.3869934082,13.9650039673-5.5130004883,6.8280029297-11.6069946289,14.3810043335-17.6709899902,21.8950042725,9.9379882812.033996582,20.2409973145.0690002441,28.7179870605.0979995728,3.7560119629,0,7.9200134277,0,12.4360046387.0009994507,2.2569885254-.0060043335,4.6019897461-.0110015869,7.0289916992-.016998291,1.4540100098-.0040054321,2.933013916-.0080032349,4.4349975586-.0110015869.6200256348.0079956055,1.2390136719-.0620040894,1.6850280762-.2630004883.4579772949-.1770019531.8859863281-.4359970093,1.2630004883-.81300354.7679748535-.7269973755,1.1899719238-1.8699951172,1.1149902344-2.8649978638-.0310058594-.483001709-.1400146484-1.0219955444-.4530029297-1.5909957886l-.9620056152-1.6669998169c-.3309936523-.5650024414-.6629943848-1.1340026855-.9979858398-1.7060012817-.6690063477-1.1450042725-1.3480224609-2.3040008545-2.0350036621-3.4790039062-1.3770141602-2.3470001221-2.7850036621-4.7519989014-4.2239990234-7.2089996338-2.7879943848-4.748008728-5.6929931641-9.6939926147-8.6870117188-14.7919998169-.0849914551-10.4010009766-.1719970703-21.0879974365-.2560119629-31.2660064697-.0219726562-2.5939941406-.0449829102-5.1539916992-.066986084-7.6689910889-.0060119629-.470993042-.0109863281-.9390106201-.016998291-1.4049987793-.0260009766-.0820007324.0679931641-.1219940186.0960083008-.1860046387.1510009766-.2249908447.3949890137-.5699920654.5719909668-.8560028076.7380065918-1.2139892578,1.2630004883-2.4499969482,1.6929931641-3.6789855957,1.6369934082-4.9270019531,1.9299926758-9.7370147705,1.7749938965-14.149017334-.2039794922-4.4179992676-.9599914551-8.487991333-2.4019775391-11.9739990234-.382019043-.8659973145-.7799987793-1.7019958496-1.2780151367-2.4819946289-.1130065918-.199005127-.2569885254-.3820037842-.3840026855-.5699920654l-.1959838867-.2779998779c-.0630187988-.0890045166-.0590209961-.0730133057-.091003418-.1150054932-.0390014648-.0590057373-.1190185547-.1029968262-.1230163574-.1750030518l-.0059814453-.216003418c-.0159912109-1.4789886475-.0299987793-2.8429870605-.0429992676-4.0749969482-.0530090332-5.0729980469-.0840148926-8.0130004883-.0840148926-8.0130004883l-.0409851074-.0029907227c-.1010131836-3.6750030518-.5830078125-6.5220031738-1.1910095215-6.5220031738-.5979919434,0-1.074005127,2.7619934082-1.1849975586,6.3529968262" fill="#1d1d1b"/>
    <line x1="313.674407959" y1="333.0501098633" x2="307.5644226074" y2="333.0501098633" fill="none" stroke="#1d1d1b" stroke-linejoin="round" stroke-width="3.367000103"/>
    <polygon points="236.8764038086 414.0063171387 181.9604034424 419.3873138428 216.9354095459 442.647315979 236.8764038086 414.0063171387" fill="#005538"/>
    <polygon points="236.8764038086 414.0063171387 181.9604034424 419.3873138428 216.9354095459 442.647315979 236.8764038086 414.0063171387" fill="none" stroke="#005538" stroke-width="1.1840000153"/>
    <polygon points="236.8764038086 414.0063171387 181.9604034424 419.3873138428 216.9354095459 442.647315979 236.8764038086 414.0063171387" fill="none" stroke="#1d1d1b" stroke-linejoin="round" stroke-width="3.367000103"/>
    <path d="M237.6990966797,385.6344146729c2.5599975586-2.8679962158,4.3439941406-9.2109985352,4.3439941406-16.5939941406,0-7.3820037842-1.783996582-13.7250061035-4.3439941406-16.5930023193v-19.3980102539h-6.1100006104v19.3980102539c-2.5599975586,2.8679962158-4.3439941406,9.2109985352-4.3439941406,16.5930023193,0,7.3829956055,1.783996582,13.7259979248,4.3439941406,16.5939941406v30.2859954834l-20.7649993896,28.6350097656,48.8800048828-1.3710021973-22.0050048828-28.93800354v-28.6119995117Z" fill="#005538"/>
    <path d="M237.6990966797,385.6344146729c2.5599975586-2.8679962158,4.3439941406-9.2109985352,4.3439941406-16.5939941406,0-7.3820037842-1.783996582-13.7250061035-4.3439941406-16.5930023193v-19.3980102539h-6.1100006104v19.3980102539c-2.5599975586,2.8679962158-4.3439941406,9.2109985352-4.3439941406,16.5930023193,0,7.3829956055,1.783996582,13.7259979248,4.3439941406,16.5939941406v30.2859954834l-20.7649993896,28.6350097656,48.8800048828-1.3710021973-22.0050048828-28.93800354v-28.6119995117Z" fill="none" stroke="#005538" stroke-width="1.1840000153"/>
    <path d="M236.6605987549,338.9166107178l-.0180053711-.0010070801-.0149993896.9460144043c-.004989624.1439971924-.0079956055.2659912109-.0139923096.4129943848.0019989014.0559997559.0029907227.1029968262.0059967041.158996582,0,0-.0319976807,2.1959991455-.0899963379,6.1219940186-.0149993896.9820098877-.0299987793,2.0720062256-.0469970703,3.2610015869-.0090026855.6100006104-.0170135498,1.2440032959-.0270080566,1.904006958-.0009918213.2449951172-.0029907227.4920043945-.0059967041.7400054932l-.0030059814.3769989014c.012008667.1219940186.1380004883.2029876709.2020111084.3079986572l.4799957275.6009979248.2649993896.3930053711c1.3470001221,2.0739898682,2.2249908447,5.033996582,2.7290039062,8.3059997559.4899902344,3.2869873047.5999908447,6.987991333.1619873047,10.845993042-.2259979248,1.9250030518-.5749969482,3.8990020752-1.1639862061,5.824005127-.2890014648.9619903564-.6340026855,1.9160003662-1.0610046387,2.81199646-.2129974365.4479980469-.43800354.8899993896-.6950073242,1.2949981689-.1189880371.2109985352-.2569885254.4060058594-.3959960938.5989990234l-.1029968262.1459960938c-.0299987793.0440063477-.0639953613.092010498-.1560058594.2010040283l-.4559936523.5530090332-.2290039062.2769927979c-.0559997559.0989990234-.0159912109.233001709-.0299987793.3480072021l-.0050048828.720993042-.0099945068,1.0220031738c-.0070037842.5670013428-.0140075684,1.1380004883-.0200042725,1.7109985352-.0130004883,1.1450042725-.0260009766,2.3029937744-.0399932861,3.470993042-.0260009766,2.3370056152-.0520019531,4.7149963379-.0790100098,7.1289978027-.049987793,5.0490112305-.1009979248,10.2440032959-.1529998779,15.524017334,6.0300140381,8.0699920654,12.3490142822,16.5269927979,18.5880126953,24.8789901733,1.0889892578,1.4459991455.7159881592.9710006714.8229980469,1.1240005493.0610046387.0559997559-.0350036621.0879974365-.0890045166.0639953613l-.074005127-.0089950562-1.8149871826.0410003662c-1.2510070801.0289993286-2.4980010986.0569992065-3.7360076904.0869979858-4.9570007324.1220016479-9.8049926758.2409973145-14.470993042.3560028076-3.7640075684.1059951782-7.6820068359.2149963379-11.7190093994.328994751-2.0179901123.0620040894-4.0670013428.1240005493-6.1409912109.1870040894l-1.3930053711.0439987183-.0200042725.0059967041-.0639953613.013999939c5.9069976807-8.2840042114,12.1159973145-16.9919967651,18.1380004883-25.4369888306-.0529937744-5.6500091553-.1069946289-11.245010376-.158996582-16.7120056152-.0279998779-2.6199951172-.0570068359-5.2100067139-.0839996338-7.7600097656-.0140075684-1.2739868164-.029006958-2.5379943848-.0440063477-3.7919921875-.0070037842-.6309967041-.0139923096-1.2590026855-.0209960938-1.8840026855l-.0059967041-.8150024414-.0019989014-.4039916992c.0029907227-.1380004883.0179901123-.2770080566-.103012085-.3699951172l-.5149993896-.625-.2319946289-.2850036621-.1119995117-.1600036621c-1.2050018311-1.6900024414-1.9850006104-3.8699951172-2.5260009766-6.0140075684-.5330047607-2.1619873047-.8489990234-4.3539886475-.9819946289-6.4969940186-.2740020752-4.2879943848.0639953613-8.3820037842.953994751-11.93699646.4609985352-1.7649993896,1.0529937744-3.4140014648,1.8430023193-4.7559967041.0919952393-.1750030518.203994751-.3290100098.3079986572-.4890136719l.1580047607-.2359924316c.0519866943-.0800018311.1940002441-.2480010986.2849884033-.3650054932l.3100128174-.3880004883.1529998779-.1920013428v-.2449951172c-.0030059814-.3280029297-.0060119629-.6519927979-.0090026855-.9739990234-.012008667-.841003418-.0230102539-1.6560058594-.0350036621-2.4459991455-.0449981689-3.1049957275-.0850067139-5.800994873-.1190032959-8.0140075684-.0679931641-4.0999908447-.1069946289-6.4149932861-.1069946289-6.4149932861l.0039978027-.0859985352c-.0039978027-.0839996338-.0079956055-.1549987793-.0140075684-.2360076904l-.0099945068-.4019927979.1329956055-.0039978027-.0159912109-.0180053711c.4700012207-.0279998779.8260040283-.0780029297,1.3809967041-.1479949951.7059936523-.0700073242,1.3350067139-.158996582,1.8619995117-.262008667,1.0520019531-.2079925537,1.6889953613-.4769897461,1.6889953613-.7749938965,0-.3040008545-.6569976807-.5760040283-1.7389984131-.7859954834-.5390014648-.1040039062-1.18699646-.1930084229-1.9100036621-.2610015869-1.0369873047-.0700073242-2.3279876709-.1190032959-3.6619873047-.1439971924l-.0440063477-.0410003662h-.1340026855c0,.0059967041-.0199890137,2.7129974365-.0569915771,7.7050018311-.0160064697,2.0489959717-.0380096436,4.566986084-.0640106201,7.5119934082-.0109863281,1.466003418-.0239868164,3.0390014648-.0369873047,4.7140045166-.0110015869.1490020752.0299987793.3190002441-.1130065918.4229888916l-.0890045166.108001709-.2129974365.3040008545c-.1409912109.2050018311-.2919921875.4069976807-.4140014648.6240081787-.5390014648.8489990234-.9559936523,1.754989624-1.3430023193,2.6900024414-1.4949951172,3.7509918213-2.1929931641,8.0439910889-2.300994873,12.6839904785-.0540008545,2.3200073242.0720062256,4.7350006104.4239959717,7.2230072021.3720092773,2.4850006104.93800354,5.0500030518,2.0640106201,7.625.2789916992.6439971924.6100006104,1.2849884033.9929962158,1.9219970703.1819915771.31199646.4219970703.6389923096.6119995117.9219970703.033996582.0720062256.1380004883.1179962158.1100006104.2109985352-.0099945068,1.1679992676-.0180053711,2.353012085-.0279998779,3.5520019531-.016998291,2.7010040283-.0359954834,5.4720001221-.0550079346,8.3050079346-.0349884033,5.4609985352-.0709991455,11.1659851074-.1089935303,17.0759887695-2.4680023193,3.325012207-5.6119995117,7.5570068359-9.0939941406,12.2480010986-4.4720001221,6.0930023193-9.3820037842,12.7810058594-14.2970123291,19.4780044556,9.2680053711-.2259979248,18.8780059814-.4599990845,26.7830047607-.6520004272,3.8170013428-.108001709,8.0899963379-.2290039062,12.7299957275-.3600006104,2.3200073242-.0709991455,4.7310028076-.1449966431,7.2239990234-.2220001221,1.7840118408-.0559997559,3.595993042-.1119995117,5.4350128174-.1689987183,1.3129882812-.0620040894,1.9239807129-.6330032349,2.3489990234-1.0859985352.2640075684-.2950057983.5379943848-.8230056763.6239929199-1.2480010986.0490112305-.2130050659.0559997559-.3590011597.0679931641-.5250015259-.0079956055-.18699646.0090026855-.3540039062-.032989502-.5719985962-.049987793-.4049987793-.2059936523-.9169998169-.5939941406-1.4420013428l-1.199005127-1.5690002441c-.5490112305-.7159957886-1.1010131836-1.4370040894-1.6560058594-2.1610031128-.8269958496-1.0749969482-1.6629943848-2.1629943848-2.5079956055-3.2609863281-1.6920013428-2.1970214844-3.4190063477-4.4400024414-5.1739959717-6.7220153809-3.3740081787-4.3729858398-6.8600006104-8.8889923096-10.4049987793-13.483001709-.0839996338-9.1369934082-.1700134277-18.3659973145-.25-27.0699920654.0059967041-.0579986572-.0250091553-.1300048828.0119934082-.1790008545l.0540008545-.0729980469.1770019531-.2560119629c.3710021973-.5289916992.6929931641-1.0829925537.9759979248-1.6349945068.5690002441-1.1039886475.9989929199-2.2180023193,1.3430023193-3.3269958496.6989898682-2.2180023193,1.0939941406-4.4199981689,1.3379974365-6.5659942627.4530029297-4.296005249.2969970703-8.3770141602-.3079986572-12.1160125732-.654006958-3.7239990234-1.6510009766-7.1559906006-3.5940093994-9.9299926758l-.1819915771-.2559967041-.0659942627-.0780029297c-.0380096436-.0530090332-.1040039062-.0950012207-.1160125732-.1560058594-.0029907227-.1909942627-.0079956055-.3769989014-.0119934082-.5599975586-.0070037842-.6920013428-.0140075684-1.3600006104-.0209960938-2.0019989014-.0140075684-1.2830047607-.0270080566-2.4629974365-.0390014648-3.5289916992-.0489959717-4.2660064697-.0769958496-6.717010498-.0769958496-6.717010498l-.0410003662-.0029907227c-.1010131836-3.3930053711-.5830078125-6.0220031738-1.1910095215-6.0220031738-.5979919434,0-1.074005127,2.5489959717-1.1849975586,5.8659973145" fill="#1d1d1b"/>
    <path d="M250.4797058105,344.1691131592c1.2169952393-4.9409942627,1.2819976807-11.2010040283-.1179962158-17.7879943848-2.9479980469-13.870010376-11.2140045166-23.8650054932-18.4629974365-22.3230133057-7.2490081787,1.541015625-10.7360076904,14.0330047607-7.7870025635,27.9030151367,1.4160003662,6.6609954834,4.0609893799,12.425994873,7.2299957275,16.4499969482,1.8650054932-3.016998291,4.966003418-5.3290100098,8.796005249-6.1430053711,3.7469940186-.7969970703,7.4379882812-.0019989014,10.3419952393,1.9010009766" fill="#5ea62b"/>
    <path d="M250.4797058105,344.1691131592c1.2169952393-4.9409942627,1.2819976807-11.2010040283-.1179962158-17.7879943848-2.9479980469-13.870010376-11.2140045166-23.8650054932-18.4629974365-22.3230133057-7.2490081787,1.541015625-10.7360076904,14.0330047607-7.7870025635,27.9030151367,1.4160003662,6.6609954834,4.0609893799,12.425994873,7.2299957275,16.4499969482,1.8650054932-3.016998291,4.966003418-5.3290100098,8.796005249-6.1430053711,3.7469940186-.7969970703,7.4379882812-.0019989014,10.3419952393,1.9010009766Z" fill="none" stroke="#1d1d1b" stroke-linejoin="round" stroke-width="4.7140002251"/>
    <path d="M320.571685791,237.4221191406c-5.483001709-36.4989929199-17.066986084-52.0880126953-41.2900085449-61.3720092773-1.5269775391-1.0419921875-3.0780029297-2.0079956055-4.6489868164-2.8999938965-6.75-13.5629882812-11.4599914551-32.6219787598-14.007019043-43.2080078125-2.725982666-1.867980957-5.6279907227-4.6649780273-6.9019775391-7.6139831543-1.2730102539-2.949005127-1.4179992676-6.5530090332-4.8130187988-10.5320129395-3.3959960938-3.9789733887-11.2869873047-6.3190002441-17.9449920654-7.0249938965-14.0389862061-1.4890136719-24.1259918213,4.4669799805-33.0609893799,13.4020080566-4.6190185547,4.6189880371-8.6280059814,10.7040100098-10.9180145264,17.0530090332-5.5469970703,4.2139892578-9.3909912109,8.424987793-8.6119995117,9.458984375.4170074463.5549926758,2.092010498.0729980469,4.4110107422-1.1309814453-2.1490020752,3.1039733887-3.2340087891,5.5019836426-2.5800018311,6.0709838867.5829925537.5069885254,2.4209899902-.5620117188,4.7830047607-2.6190185547.0859985352,1.9720153809.391998291,3.9000244141,1.0009918213,5.7360229492,3.7230072021,11.2059936523,9.6799926758,24.5549926758,5.2129974365,48.0859985352-.8809967041,4.6329956055-1.4100036621,8.4329833984-1.6989898682,11.5619812012-8.5080108643,16.7680053711-11.5279998779,37.0280151367-7.1570129395,57.5940246582,9.325012207,43.8719787598,46.7109985352,70.4739990234,94.7340087891,66.8479919434.8209838867-.0390014648,1.6399841309-.0700073242,2.4679870605-.1340026855,6.7230224609-.5279998779,12.6060180664-1.4039916992,17.7550048828-2.6050109863,1.0859985352-.2119903564,2.1360168457-.4329833984,3.1690063477-.6609802246,7.1700134277,3.8759918213,14.9410095215,5.7979888916,22.7619934082,5.282989502,6.1610107422-8.2019958496,14.4550170898-13.9880065918,24.2640075684-16.074005127,1.8039855957-.3819885254,3.6099853516-.6179962158,5.4140014648-.7369995117,7.0960083008-9.4449920654,11.3559875488-22.0919799805,11.842010498-35.975982666-19.8670043945-9.5360107422-35.3930053711-26.3619995117-44.183013916-48.5060119629" fill="#8abd24"/>
    <path d="M191.6188964844,207.7805175781l.0269927979.0050048828.1330108643-.7630004883c.0229949951-.1159973145.0449981689-.2139892578.0699920654-.3309936523.0039978027-.0460205078.0080108643-.0840148926.0110015869-.1300048828,0,0,.2859954834-1.6679992676.9190063477-4.658996582.6069946289-3.0360107422,1.5869903564-7.5220031738,1.9869995117-13.1530151367.3979949951-5.617980957.2859954834-12.4459838867-1.1900024414-19.7969970703-.7239990234-3.6699829102-1.7830047607-7.4440002441-2.9920043945-11.2250061035-.5970001221-1.8649902344-1.203994751-3.7630004883-1.8209991455-5.6860046387l-.1929931641-.6510009766-.1309967041-.5079956055c-.0600128174-.2200012207-.1060028076-.4469909668-.1520080566-.674987793-.1829986572-.908996582-.2910003662-1.8729858398-.341003418-2.9410095215-.1049957275-2.1279907227-.2109985352-4.2709960938-.3170013428-6.4239807129-.858001709.7149963379-1.8179931641,1.5159912109-2.8549957275,2.3800048828-1.0760040283.8709716797-2.266998291,1.9359741211-3.466003418,2.8049926758-.2919921875.2149963379-.6259918213.4309997559-.8949890137.5799865723l-.2010040283.1050109863-.0500030518.0269775391-.0070037842.0030212402c.0410003662.1260070801-.0930023193-.2810058594.0890045166.283996582l.0039978027.0079956055.012008667.032989502.0239868164.0670166016.0890045166.2689819336c.0530090332.1820068359.0950012207.3740234375.1269989014.5590209961.0410003662.1430053711.0700073242.2919921875.0830078125.4459838867.0939941406.574005127-.091003418.9280090332-.0709991455.8630065918-.0190124512-.0190124512.4409942627-.2389831543,1.0889892578-.1900024414.1760101318-.0019836426.3500061035.0130004883.5200042725.041015625l.9860076904.1279907227.0039978027-.0010070801.0889892578-.2189941406c.1280059814-.3510131836.3230133057-.7019958496.5060119629-1.0559997559.4019927979-.7109985352.8659973145-1.4429931641,1.379989624-2.1950073242-.5489959717-.7619934082-.9609985352-1.3829956055-1.2229919434-1.8349914551-.1410064697-.2369995117-.2369995117-.4219970703-.3270111084-.6010131836-.0379943848-.0739746094-.0779876709-.175994873-.1169891357-.2290039062-.0410003662-.0119934082-.0760040283-.0179748535-.1210021973-.0369873047-.1840057373-.0789794922-.3740081787-.1809997559-.8430023193-.6170043945-.2389984131-.2229919434-.5579986572-.5399780273-1.1349945068-1.1709899902l-.1119995117-.125c-.0279998779,0-.0180053711-.0849914551-.0749969482-.0160217285l-.2050018311.2890014648-.4090118408.5780029297-1.7559967041,2.3640136719-.0019989014.0050048828-.0070037842.0109863281s-.0240020752.0220031738-.0179901123.0160217285c.0189971924-.0180053711.0399932861-.0310058594.0609893799-.0400085449.0400085449-.0190124512.0790100098-.0209960938.1100006104-.0130004883.2100067139-.0570068359.4920043945-.0530090332.6940002441.0390014648.3910064697.0429992676.7770080566.1459960938,1.125.3039855957l.2600097656.1280212402.3710021973.1359863281c.1769866943.0719909668.0849914551.0299987793.1119995117.0379943848l.0069885254-.0079956055c.016998291-.0199890137-.0069885254-.0050048828.0330047607-.0579833984.0700073242-.0930175781.0980072021-.1600036621.1909942627-.2780151367.1590118408-.2189941406.3650054932-.4679870605.5800018311-.7229919434.4580078125-.5120239258.9609985352-1.041015625,1.5080108643-1.5610046387,1.0829925537-1.0440063477,2.2729949951-2.0570068359,3.4909973145-3.0249938965l1.0070037842-.7860107422.8449859619-.6449890137.4240112305-.3229980469c.1169891357-.1260070801.3359985352-.1750183105.3619995117-.3680114746l.7529907227-1.9459838867.4420013428-1.0350036621c2.4720001221-5.4909973145,6.0260009766-10.383026123,10.0780029297-14.2229919434,3.9860076904-3.8550109863,8.6320037842-7.5150146484,14.0570068359-9.7220153809,2.7050018311-1.1059875488,5.5899963379-1.8510131836,8.5899963379-2.149017334,3.0009918213-.2979736328,6.0919952393-.1819763184,9.2100067139.2850036621,3.100982666.4630126953,6.1940002441,1.2390136719,8.925994873,2.4010009766,1.3519897461.5840148926,2.6319885254,1.2690124512,3.612991333,2.0620117188.2299957275.2030029297.4960021973.3909912109.6780090332.6019897461l.3089904785.3040161133.3320007324.3939819336c.4390106201.524017334.8330078125,1.0700073242,1.1760101318,1.6450195312.7079925537,1.1399841309,1.2009887695,2.3979797363,1.6809997559,3.8609924316.4819946289,1.4320068359.9519958496,3.2470092773,1.9949951172,5.0239868164.9880065918,1.6799926758,2.175994873,3.0350036621,3.4169921875,4.2390136719.625.5979919434,1.266998291,1.1530151367,1.9250183105,1.674987793l.4960021973.3860168457.2509765625.1869812012.1260070801.0939941406.0440063477.0300292969.2789916992.1709899902.0970153809.2799987793.100982666.358001709.1440124512.5299987793c.2009887695.700012207.3999938965,1.3930053711.5979919434,2.0809936523.4150085449,1.3649902344.824005127,2.7030029297,1.2229919434,4.0150146484.8150024414,2.6129760742,1.6470031738,5.0939941406,2.4559936523,7.4359741211,1.625,4.6800231934,3.1860351562,8.791015625,4.5510253906,12.1890258789,1.3559875488,3.4019775391,2.5479736328,6.0799865723,3.3639831543,7.9209899902.8460083008,1.8290100098,1.3059997559,2.824005127,1.3059997559,2.824005127.016998291.0449829102.0299987793.0820007324.0450134277.1269836426.0489807129.1119995117.1099853516.1970214844.1609802246.3059997559l.3480224609.7140197754.0239868164-.0119934082c1.2810058594,2.4749755859,2.9049987793,4.0609741211,3.6879882812,3.6619873047.8290100098-.4209899902.4940185547-2.6459960938-.4899902344-5.2420043945l.0559997559-.0270080566s-.2519836426-.5959777832-.8179931641-1.9339904785c-.558013916-1.3439941406-1.4200134277-3.4360046387-2.558013916-6.4700012207-1.1399841309-3.032989502-2.5659790039-7.0010070801-4.2139892578-12.0960083008-.8219909668-2.5459899902-1.7030029297-5.3739929199-2.6069946289-8.5069885254-.4550170898-1.5660095215-.9190063477-3.2070007324-1.3760070801-4.9280090332-.2229919434-.8609924316-.4530029297-1.7389831543-.6860046387-2.6380004883-.2949829102-1.1940002441-.5960083008-2.4129943848-.9019775391-3.657989502-.4630126953-.3460083008-.966003418-.7210083008-1.5090026855-1.1260070801-.1600036621-.1189880371-.2290039062-.1770019531-.2940063477-.2339782715l-.2210083008-.1860351562c-.1479797363-.1289672852-.299987793-.2619628906-.4570007324-.3979797363-.6189880371-.5539855957-1.283996582-1.2040100098-1.9279785156-1.9530029297-.649017334-.7439880371-1.274017334-1.5950012207-1.7590332031-2.5019836426-.4609985352-.8550109863-.7749786377-1.9130249023-1.1709899902-3.3630065918-.3929901123-1.4209899902-.8829956055-3.125-1.7099914551-4.8219909668-.4029998779-.8520202637-.8970031738-1.6890258789-1.4450073242-2.4970092773-.550994873-.8170166016-1.1369934082-1.5490112305-1.9400024414-2.3880004883-1.5559997559-1.5360107422-3.3109893799-2.6240234375-5.1089935303-3.5380249023-1.8049926758-.9049682617-3.6750030518-1.6109924316-5.5839996338-2.1929931641-3.824005127-1.1539916992-7.7919921875-1.8419799805-11.907989502-2.0019836426-4.0989990234-.149017334-8.2760009766.3389892578-12.1450042725,1.4689941406-3.8650054932,1.1529846191-7.3840026855,2.8899841309-10.4120025635,4.8269958496-3.033996582,1.9400024414-5.5989990234,4.0620117188-7.7660064697,6.0590209961-1.8889923096,1.7439880371-4.0039978027,3.8479919434-5.9449920654,6.3429870605-1.9609985352,2.4809875488-3.8310089111,5.3299865723-5.4779968262,8.5780029297-.4120025635.8119812012-.8070068359,1.6499938965-1.1809997559,2.5159912109-.1950073242.4280090332-.3670043945.8720092773-.5490112305,1.3160095215l-.1790008545.4509887695-.0559997559.1629943848c-.0179901123.1239929199-.1549987793.1590270996-.2279968262.2440185547-.3209991455.2630004883-.6439971924.5270080566-.9700012207.7929992676-.7480010986.625-1.4969940186,1.2709960938-2.2440032959,1.9570007324-1.5009918213,1.4140014648-2.9659881592,2.7619934082-4.4869995117,4.9059753418-.1979980469.2990112305-.3880004883.5960083008-.5950012207.990020752l-.3059997559.6510009766c-.1179962158.3259887695-.2189941406.6689758301-.2959899902,1.009979248-.0449981689.2760009766-.0680084229.5970153809-.0650024414.8970031738.0010070801.1530151367.0099945068.3050231934.0240020752.4540100098.004989624.1239929199.0800018311.4440002441.1499938965.658996582.1590118408.483001709.3840026855.9360046387.6959991455,1.3269958496.1719970703.2050170898.3659973145.3980102539.5720062256.5680236816.1349945068.1109924316.141998291.1059875488.1669921875.1209716797l.0800018311.0450134277c.1520080566.0859985352.0940093994.050994873.1119995117.0589904785h.0130004883l.0240020752-.0039978027c.0700073242-.016998291.1459960938-.0549926758.2290039062-.0989990234.0999908447-.0679931641.0220031738.0220031738.0240020752.0480041504l-.0500030518.1409912109-.0240020752.0880126953-.1149902344.6959838867c-.0130004883.5290222168-.1450042725,1.0300292969.2939910889,2.1880187988.0559997559.1319885254.1139984131.2579956055.1809997559.3840026855.091003418.1560058594.1940002441.3099975586.3079986572.4559936523.2319946289.2940063477.4810028076.5559997559.7920074463.7640075684.6529998779.4599914551,1.2409973145.6029968262,1.7659912109.674987793.2100067139.0209960938.4230041504.0280151367.6340026855.024017334.2149963379-.0060119629.3159942627-.0260009766.4810028076-.0480041504.328994751-.0450134277.5110015869-.1029968262.7319946289-.1640014648l.1459960938-.0440063477.0250091553-.0110168457.0489959717-.0199890137c.0410003662-.0159912109.0250091553-.0140075684.0410003662-.0209960938.1309967041-.0889892578.262008667-.2200012207.4000091553-.3619995117.0319976807.0539855957.0419921875.1870117188.078994751.2929992676l.2949981689.8930053711c.6519927979,1.8209838867,1.3029937744,3.6359863281,1.949005127,5.4370117188,1.2729949951,3.5309753418,2.4099884033,6.9649963379,3.2519989014,10.3479919434,1.7200012207,6.7510070801,2.2070007324,13.2709960938,2.0639953613,18.8809814453-.1159973145,5.6400146484-.9290008545,10.2470092773-1.4499969482,13.608001709-.5429992676,3.3850097656-.7610015869,5.342010498-.7610015869,5.342010498l.0599975586.0119934082c-.2590026855,2.8590087891.2700042725,5.1459960938,1.1770019531,5.2200012207.8959960938.075012207,1.783996582-1.9339904785,2.3339996338-4.5899963379" fill="#1d1d1b"/>
    <path d="M278.2721862793,176.6442260742l-.0109863281.0140075684c.1619873047.108001709.6049804688.4100036621.9049987793.5029907227.1099853516.050994873.2019958496.0939941406.3129882812.1459960938.0450134277.0159912109.0820007324.0289916992.1260070801.0460205078,0,0,.966003418.4189758301,2.7380065918,1.1899719238.8989868164.3560180664,1.9349975586.9290161133,3.1709899902,1.541015625.6099853516.3179931641,1.283996582.625,1.9639892578,1.0130004883.6740112305.3989868164,1.3880004883.8200073242,2.1390075684,1.2649841309,6.033996582,3.4430236816,13.6470031738,9.9810180664,18.8039855957,19.8900146484,2.5930175781,4.9169921875,4.7140197754,10.5100097656,6.266998291,16.4809875488,1.5729980469,5.9650268555,2.7560119629,12.2440185547,3.6760253906,18.5890197754l.0749816895.4679870605c.0110168457.1879882812.0940246582.3850097656.1610107422.533996582l.2630004883.6370239258.4710083008,1.1479797363.9440002441,2.2940063477c.7019958496,1.4969787598,1.3719787598,3.0079956055,2.1040039062,4.4859924316,1.4939880371,2.9389953613,3.0719909668,5.8200073242,4.8219909668,8.5520019531,3.466003418,5.4819946289,7.424987793,10.4649963379,11.6029968262,14.7579956055,3.6699829102,3.7700195312,7.9389953613,7.4509887695,12.7189941406,10.7529907227,2.3810119629,1.6620178223,4.9049987793,3.2050170898,7.516998291,4.6430053711.6440124512.3780212402,1.3070068359.7230224609,1.9809875488,1.0520019531l1.0050048828.5050048828.2520141602.1260070801c.0639953613.0310058594.0220031738.0090026855.0369873047.0159912109l.0140075684.0020141602c.0429992676.0010070801.0360107422.0409851074.0400085449.0639953613l-.0390014648.9309997559-.0820007324,1.0679931641c-.4120178223,5.6960144043-1.5360107422,11.3890075684-3.3680114746,16.7430114746-.9129943848,2.675994873-2.0029907227,5.266998291-3.2590026855,7.7249908447-.6239929199,1.2310028076-1.3029785156,2.4219970703-2.0049743652,3.5850067139-.3640136719.5709991455-.7280273438,1.1389923096-1.0900268555,1.7059936523l-.5349731445.7689971924-.1170043945.1849975586-.5200195312.0640106201-1.4109802246.1839904785c-.9350280762.137008667-1.8609924316.3090057373-2.7730102539.5130004883-1.8120117188.4360046387-3.5780029297.9329986572-5.2590026855,1.5770111084-3.3659973145,1.266998291-6.4230041504,2.9399871826-9.1000061035,4.828994751-2.674987793,1.8970031738-4.9869995117,3.983001709-6.9559936523,6.095993042-.9739990234,1.0680084229-1.8769836426,2.1269989014-2.699005127,3.1809997559-.1510009766.2010040283-.299987793.4010009766-.4479980469.5980072021l-.1199951172.1649932861c-.0199890137.0270080566-.0360107422.0579986572-.0599975586.0800018311l-.1270141602.0110015869c-.3629760742.0250091553-.5659790039.0559997559-1.2489929199.0650024414-4.5929870605.1349945068-8.2919921875-.6020050049-10.7850036621-1.2270050049-1.2469787598-.3269958496-2.2049865723-.6289978027-2.8500061035-.8409881592-.6439819336-.2210083008-.9809875488-.3380126953-.9809875488-.3380126953-.0429992676-.0179901123-.0780029297-.0319976807-.1220092773-.049987793-.1139831543-.0400085449-.2099914551-.0730133057-.3219909668-.1119995117l-.7319946289-.2810058594-.0060119629.016998291c-2.5809936523-.9279937744-4.6560058594-1.5820007324-4.9559936523-1.0419921875-.2879943848.5129852295,1.4580078125,2.0829925537,4.175994873,3.2899932861l-.0140075684.0390014648s.991027832.4550018311,3.1040039062,1.1770019531c2.1100158691.7009887695,5.3730163574,1.6979980469,9.9520263672,2.1019897461,1.1429748535.0930023193,2.3659973145.1640014648,3.6659851074.1460113525l.4899902344-.0010070801.7030029297-.0269927979c.483001709-.0200042725.9729919434-.0410003662,1.4689941406-.0610046387.3780212402-.3170013428.6870117188-.8260040283,1.0400085449-1.2350006104.2260131836-.2830047607.4540100098-.5700073242.6849975586-.8600006104,1.7279968262-2.0749969482,3.8190002441-4.216003418,6.3519897461-6.2639923096,2.5470275879-2.0220031738,5.5570068359-3.9270019531,9.0700073242-5.4180145264,1.7620239258-.7289886475,3.6430053711-1.3559875488,5.6370239258-1.8349914551.9989929199-.2440032959,2.0139770508-.4550018311,3.0650024414-.6040039062.5249938965-.0749969482,1.0559692383-.141998291,1.5929870605-.1969909668l.9849853516-.0880126953c.4960021973-.033996582.9940185547-.0690002441,1.4950256348-.1039886475.3819885254-.5190124512.7869873047-1.0670013428,1.2119750977-1.6440124512.2579956055-.3549957275.5510253906-.7139892578.8150024414-1.1159973145.5370178223-.7979888916,1.1430053711-1.6519927979,1.7120056152-2.6109924316,1.183013916-1.8939971924,2.3860168457-4.1159973145,3.4989929199-6.6090087891,2.2490234375-4.9749908447,4.1370239258-11.0489959717,5.1019897461-17.5179901123.2350158691-1.6170043945.4380187988-3.2539978027.5760192871-4.9010009766.0440063477-.4119873047.0710144043-.825012207.0939941406-1.2380065918l.1140136719-2.0109863281.066986084-1.1640014648.0079956055-.1450195312.0030212402-.0729980469-.0630187988-.033996582-.2579956055-.1329956055-.516998291-.2659912109-1.9729919434-1.016998291-2.0790100098-1.0800170898c-.6739807129-.391998291-1.3459777832-.783996582-2.0149841309-1.1729736328-1.3550109863-.7510375977-2.6290283203-1.6090087891-3.9010009766-2.4290161133-5.0560302734-3.3320007324-9.4240112305-7.0400085449-12.8130187988-10.4169921875-3.0619812012-3.0469970703-6.4209899902-6.8130187988-9.6439819336-11.2760009766-3.2270202637-4.4550170898-6.3130187988-9.6000061035-8.9570007324-15.2180175781-.7010192871-1.384979248-1.2579956055-2.8540039062-1.9030151367-4.2919921875l-.1969909668-.4519958496c-.0069885254-.0130004883-.0079956055-.0209960938-.0079956055-.0209960938.0119934082.0709838867-.0140075684-.0639953613-.0310058594-.166015625l-.2120056152-1.2099914551-.424987793-2.4290161133-.4280090332-2.4369812012-.5140075684-2.433013916c-.3659973145-1.6210021973-.6529846191-3.2550048828-1.083984375-4.8649902344-1.5260009766-6.4700012207-3.6340026855-12.833984375-6.3740234375-18.6440124512-2.7339782715-5.8079833984-6.241973877-10.9960021973-10.1499938965-15.0569763184-3.8939819336-4.0870056152-8.0849914551-7.0220031738-11.7169799805-9.1870117188-1.8550109863-1.0230102539-3.5150146484-1.9809875488-5.0550231934-2.6459960938-1.5159912109-.7180175781-2.8239746094-1.3309936523-3.9289855957-1.7369995117-1.0929870605-.4360046387-1.9429931641-.774017334-2.5199890137-1.0039978027-.1300048828-.0520019531-.2440185547-.0970153809-.3430175781-.1360168457-.0209960938-.0039978027-.0769958496-.0309753418-.0989990234-.0469970703-.0830078125-.049987793-.1260070801-.0749816895-.1260070801-.0749816895l-.0260009766.032989502c-2.5489807129-1.4750061035-4.7109985352-2.2520141602-5.0039978027-1.7210083008-.2899780273.5230102539,1.2850036621,2.0690002441,3.5660095215,3.6220092773" fill="#1d1d1b"/>
    <path d="M296.0202026367,332.7872161865l-.0050048828-.0269927979-.6569824219.1209869385c-.1000061035.0140075684-.1870117188.0260009766-.2880249023.0400085449-.0399780273.0099945068-.0699768066.0200042725-.1089782715.0309906006,0,0-.875.1420135498-2.4819946289.4029998779-1.6110229492.2430114746-3.9630126953.5590057373-6.9240112305.8280029297-2.9580078125.2720031738-6.532989502.5130004883-10.5480041504.512008667-2.0039978027.0199890137-4.1210021973.0410003662-6.3320007324.0639953613-2.200012207-.0780029297-4.4819946289-.2890014648-6.8399963379-.4299926758-9.3999938965-.8340148926-19.8639984131-3.1430053711-29.5160064697-7.4250030518-9.6769866943-4.2150115967-18.4069976807-10.3860015869-24.9810028076-17.1210174561-6.6179962158-6.674987793-13.0099945068-15.6329956055-17.2279968262-25.8329772949l-1.4530029297-3.8739929199-.7309875488-1.9380187988c-.2560119629-.641998291-.4930114746-1.2890014648-.6549987793-1.9609985352-.3710021973-1.3290100098-.7420043945-2.6560058594-1.1110076904-3.9769897461-.3480072021-1.3260192871-.8000030518-2.6260070801-1.0410003662-3.9630126953-1.1770019531-5.3039855957-1.8439941406-10.5879821777-2.0570068359-15.5979919434-.4359893799-10.0360107422.9600067139-18.9080200195,2.5780029297-25.0620117188.7760009766-3.0919799805,1.5930023193-5.5220031738,2.1750030518-7.1870117188.2740020752-.8389892578.5279998779-1.4719848633.6970062256-1.9019775391.1679992676-.4290161133.2550048828-.6539916992.2550048828-.6539916992.0179901123-.0360107422.033996582-.0650024414.050994873-.1010131836.0350036621-.0969848633.0629882812-.1790161133.095993042-.2749938965l.2420043945-.6199951172-.0250091553-.0100097656c.8040161133-2.1889953613.9860076904-4.1199951172.1760101318-4.5370178223-.7949981689-.4129638672-2.3199920654.9730224609-3.4770050049,3.1930236816l-.0579986572-.024017334s-.4900054932,1.0419921875-1.31199646,2.9479980469c-.7810058594,1.9210205078-1.9140014648,4.7060241699-2.9710083008,8.2540283203-2.203994751,7.0479736328-4.1699829102,17.2049865723-3.8309936523,28.4279785156.1650085449,5.5950012207.8030090332,11.4410095215,2.1109924316,17.1580200195,1.2600097656,5.7229919434,2.9810180664,11.3829956055,5.2180175781,16.6199951172.5820007324,1.300994873,1.158996582,2.5879821777,1.7279968262,3.8619995117.2969970703.6300048828.5419921875,1.2819824219.8789978027,1.8829956055.3389892578.6000061035.674987793,1.1969909668,1.0090026855,1.7879943848.6699829102,1.183013916,1.328994751,2.3479919434,1.9779968262,3.4909973145.3349914551.5660095215.625,1.1530151367.9880065918,1.6849975586.3689880371.5289916992.7349853516,1.0530090332,1.0969848633,1.5700073242.7260131836,1.0360107422,1.4360046387,2.0480041504,2.1270141602,3.033996582.3479919434.4920043945.6899871826.9790039062,1.0289916992,1.4580078125.3399963379.4769897461.7439880371.8939819336,1.1059875488,1.333984375,1.4850158691,1.7260131836,2.8790130615,3.3450164795,4.1620178223,4.8350067139,1.4069824219,1.3730010986,2.9579925537,2.8320007324,4.6019897461,4.3830108643.4150085449.3849945068.825012207.7879943848,1.2600097656,1.1719970703.458984375.3569946289.9239959717.7189941406,1.3949890137,1.0839996338.9450073242.7299957275,1.9129943848,1.4779968262,2.9030151367,2.2409973145,1.9179992676,1.6109924316,4.208984375,2.8699951172,6.458984375,4.3179931641,2.217010498,1.5149993896,4.7539978027,2.6090087891,7.2400054932,3.8910064697,10.0930023193,4.8670043945,21.8430023193,7.7720031738,32.6809844971,8.5749969482.6770019531.06199646,1.3470153809.1640014648,2.0170288086.18800354.6709899902.016998291,1.3369750977.0319976807,2,.0480041504,1.3219909668.0289916992,2.6259765625.0589904785,3.907989502.0889892578,2.5690002441.1380004883,5.0199890137-.0929870605,7.3639831543-.2139892578,2.341003418-.1340026855,4.5670166016-.2530059814,6.6460266113-.4270019531,2.0739746094-.1970062256,4.0029907227-.4349975586,5.7639770508-.6770019531,3.5230102539-.483001709,6.3659973145-1.0229949951,8.325012207-1.4340057373,1.958984375-.4169921875,3.0369873047-.6929931641,3.0369873047-.6929931641l-.0119934082-.0599975586c2.3210144043-.6770019531,4.0459899902-1.7480010986,3.8399963379-2.6440124512-.1979980469-.8679962158-2.125-1.220993042-4.4989929199-.8609924316" fill="#1d1d1b"/>
    <path d="M249.2055053711,125.6728210449c1.6699981689,2.891998291,4.0529937744,4.6409912109,5.324005127,3.9070129395,1.2699890137-.7340087891.9469909668-3.6710205078-.7220001221-6.5630187988-1.6699981689-2.891998291-4.0530090332-4.6409912109-5.324005127-3.907989502-1.2700042725.733001709-.9479980469,3.6719970703.7220001221,6.5639953613" fill="#1d1d1b"/>
    <path d="M251.5180969238,130.9727172852c-1.5420074463-2.5450134277.0410003662-4.6069946289,3.5359954834-4.6069946289h6.328994751c4.6549987793,0,15.7780151367,3.2900085449,19.8460083008,4.4669799805,8.4890136719,2.4580078125,13.0809936523,6.2680053711,16.2189941406,9.4430236816,2.7690124512,2.8020019531,4.4309997559,10.2070007324,1.4800109863,13.7489929199-3.1029968262,3.7219848633-16.7550048828-4.2969970703-23.4360046387-4.2969970703-4.1889953613,0-25.6490020752.4169921875-29,.4169921875s-8.9360046387.6770019531-8.9360046387.6770019531c-3.0849914551.3720092773-2.396987915-.708984375,1.5360107422-2.4190063477,0,0,4.8860015869-1.2720031738,7.1199951172-3.0919799805,2.2339935303-1.8220214844,8.3780059814-6.3800048828,8.0980072021-9.7310180664-.279006958-3.3500061035-2.7920074463-4.6069946289-2.7920074463-4.6069946289" fill="#008939"/>
  </g>
  <g clip-path="url(#clippath)">
    <path d="M293.2107849121,157.7352294922c6.5849914551,0,11.9219970703-4.6530151367,11.9219970703-10.3900146484,0-5.7399902344-5.3370056152-10.3909912109-11.9219970703-10.3909912109s-11.9219970703,4.6510009766-11.9219970703,10.3909912109c0,5.7369995117,5.3370056152,10.3900146484,11.9219970703,10.3900146484" fill="#005538"/>
  </g>
  <g>
    <path d="M251.5180969238,130.9727172852c-1.5420074463-2.5450134277.0410003662-4.6069946289,3.5359954834-4.6069946289h6.328994751c4.6549987793,0,15.7780151367,3.2900085449,19.8460083008,4.4669799805,8.4890136719,2.4580078125,13.0809936523,6.2680053711,16.2189941406,9.4430236816,2.7690124512,2.8020019531,4.4309997559,10.2070007324,1.4800109863,13.7489929199-3.1029968262,3.7219848633-16.7550048828-4.2969970703-23.4360046387-4.2969970703-4.1889953613,0-25.6490020752.4169921875-29,.4169921875s-8.9360046387.6770019531-8.9360046387.6770019531c-3.0849914551.3720092773-2.396987915-.708984375,1.5360107422-2.4190063477,0,0,4.8860015869-1.2720031738,7.1199951172-3.0919799805,2.2339935303-1.8220214844,8.3780059814-6.3800048828,8.0980072021-9.7310180664-.279006958-3.3500061035-2.7920074463-4.6069946289-2.7920074463-4.6069946289Z" fill="none" stroke="#1d1d1b" stroke-linejoin="round" stroke-width="4.0409998894"/>
    <path d="M193.1692962646,275.737701416c9.9900054932,36.5319976807,42.5410003662,58.3789978027,83.8899993896,55.2559967041.7369995117-.0349884033,1.4720153809-.06300354,2.216003418-.1210021973,5.308013916-.4160003662,10.0310058594-1.0739898682,14.2359924316-1.9609985352-9.5529785156-7.3089904785-17.5069885254-18.2809906006-22.2860107422-31.5680084229-17.4839782715,5.3760070801-36.5629882812,3.9920043945-54.8519897461-4.8299865723-8.9839935303-4.3340148926-16.7740020752-10.0799865723-23.203994751-16.7760009766" fill="#5ea62b"/>
    <path d="M242.5487976074,192.2465209961c5.641998291,3.3139953613,11.7019958496,4.0109863281,16.4540100098,1.2690124512,7.8139953613-4.5130004883,9.3329772949-16.740020752,3.8889770508-28.2190246582-1.3659973145,3.616027832-3.1069946289,7.1840209961-5.259979248,10.6310119629-4.1390075684,6.625-9.3230133057,12.1099853516-15.0830078125,16.3190002441" fill="#5ea62b"/>
    <path d="M359.0538024902,288.4724121094c-7.5469970703-3.8739929199-14.4360046387-8.816986084-20.5279846191-14.7279968262-5.541015625,19.0989990234-17.3010253906,32.2779846191-30.9140014648,32.2779846191-1.9010009766,0-3.7640075684-.2689819336-5.5810241699-.7639770508,6.2710266113,11.3819885254,15.2840270996,18.5229797363,25.300994873,18.5229797363,14.3220214844,0,26.5870056152-14.5899963379,31.7220153809-35.3089904785" fill="#5ea62b"/>
    <line x1="232.2555999756" y1="424.6229095459" x2="220.7985992432" y2="439.9999084473" fill="none" stroke="#003822" stroke-linecap="round" stroke-width="3.367000103"/>
    <line x1="305.2554931641" y1="436.6416168213" x2="293.7984924316" y2="452.0186157227" fill="none" stroke="#003822" stroke-linecap="round" stroke-width="3.367000103"/>
    <path d="M203.6943054199,147.1951293945c-.6560058594-1.1459960938-1.0930023193-2.3649902344-1.2870025635-3.5620117188l-.1559906006-.3909912109c-.5279998779-1.3569946289-.7240142822-2.8349914551-.5010070801-4.1900024414l.0679931641-.3909912109c-.0419921875-1.1279907227.233001709-2.3139953613.9100036621-3.3890075684.0080108643-.157989502-.6569976807-.8949890137-.8280029297-.8630065918-1.2609863281.8110046387-2.328994751,2.0930175781-2.9689941406,3.6000061035l-.1009979248.5670166016c-.3200073242,1.9669799805-.0279998779,3.9479980469.6559906006,5.7200012207l.2050018311.509979248c.875,1.2870178223,1.9480133057,2.3550109863,3.1220092773,3.1970214844.1660003662.0369873047.8860015869-.6460266113.8809967041-.808013916" fill="#1d1d1b"/>
    <path d="M213.6076965332,141.4091186523c1.0890045166,1.2030029297,1.3800048828,2.808013916,1.0330047607,4.1549987793.0039978027.1619873047-.0140075684.325012207-.0380096436.4869995117-.1979980469,1.6929931641-1.362991333,3.2959899902-2.9109954834,4.0079956055-.1470031738.0719909668-.296005249.1400146484-.4519958496.1870117188-1.1750030518.7460021973-2.7900085449.9649963379-4.2700042725.300994873-.1820068359.0029907227-.7870025635.7919921875-.6790008545.983001709,1.453994751,1.3909912109,3.7700042725,1.9939880371,5.9340057373,1.5060119629.2529907227-.0820007324.4929962158-.1860046387.7299957275-.3010253906,2.4810028076-1.1659851074,4.2420043945-3.5899963379,4.5839996338-6.3099975586.0350036621-.259979248.0610046387-.5220031738.0599975586-.7859802246-.2050018311-2.2090148926-1.4940032959-4.2250061035-3.2649993896-5.1790161133-.2149963379-.0440063477-.7779998779.774017334-.7259979248.949005127" fill="#003822"/>
    <path d="M210.4279022217,150.1434020996c3.3390045166,0,6.0449981689-2.4970092773,6.0449981689-5.5790100098,0-3.0809936523-2.7059936523-5.5769958496-6.0449981689-5.5769958496s-6.0449981689,2.4960021973-6.0449981689,5.5769958496c0,3.0820007324,2.7059936523,5.5790100098,6.0449981689,5.5790100098" fill="#1d1d1b"/>
    <path d="M240.8468017578,114.0297241211c1.3190002441.0729980469,2.5780029297.3720092773,3.68800354.8609924316l.4129943848.0820007324c1.4250030518.2950134277,2.7720031738.9370117188,3.7870025635,1.8619995117l.2910003662.2690124512c.9680023193.5799865723,1.81300354,1.4559936523,2.3470001221,2.6099853516.1269989014.092010498,1.108001709-.0639953613,1.1730041504-.2249755859.0079956055-1.5-.4860076904-3.0930175781-1.4010009766-4.4510192871l-.4199981689-.3930053711c-1.4759979248-1.3389892578-3.2970123291-2.1739807129-5.1549987793-2.5659790039l-.5400085449-.1050109863c-1.5540008545.0320129395-3.0359954834.3519897461-4.3820037842.8770141602-.1210021973.1199951172.0610046387,1.0949707031.199005127,1.1789855957" fill="#1d1d1b"/>
    <path d="M268.5396118164,285.8797302246c-3.5249938965-9.1839904785-8.1449890137-16.1340026855-10.933013916-16.7409973145-.5609741211-.5020141602-1.1089782715-.7359924316-1.6269836426-.6539916992-1.092010498.1739807129-1.8780059814,1.7339782715-2.3269958496,4.2119750977-.6100006104-.9570007324-1.2700042725-1.4859924316-1.9530029297-1.4739990234-1.4110107422.0250244141-2.6439971924,2.3330078125-3.4949951172,6.0250244141-.9860076904-5.6610107422-2.6410064697-9.4300231934-4.4580078125-9.3980102539-.5520019531.0090026855-1.0780029297.3819885254-1.5639953613,1.0390014648-.6090087891-2.0289916992-1.4309997559-3.2600097656-2.4260101318-3.3479919434-.7529907227-.0660095215-1.5229949951.5429992676-2.2659912109,1.6549987793-.4629974365-2.1719970703-1.2140045166-3.5190124512-2.2270050049-3.6800231934-1.2259979248-.1940002441-2.6239929199,1.3789978027-3.9479980469,4.132019043-.8070068359.1000061035-1.7720031738.782989502-2.8220062256,1.9320068359.8670043945-5.058013916.592010498-8.6750183105-1.0019989014-9.2550048828-.6380004883-.233001709-1.4299926758.049987793-2.3139953613.7479858398.0760040283-1.7449951172-.2519989014-2.9360046387-1.0440063477-3.3399963379-.9949951172-.5079956055-2.5679931641.3150024414-4.4109954834,2.0899963379,1.279006958-4.5409851074,1.3589935303-7.8500061035-.0769958496-8.5809936523-2.4810028076-1.2640075684-8.5250091553,5.6260070801-13.4980010986,15.3880004883-4.9759979248,9.7640075684-6.9970092773,18.7030029297-4.5159912109,19.9679870605.9939880371.507019043,2.566986084-.3159790039,4.4099884033-2.0909729004-1.2779998779,4.5429992676-1.3589935303,7.850982666.0769958496,8.5829772949,1.4050140381.716003418,3.9540100098-1.1889953613,6.8030090332-4.7439880371-.8720092773,5.0639953613-.5960083008,8.6879882812.9989929199,9.266998291.9090118408.3320007324,2.1289978027-.3869934082,3.4869995117-1.8720092773-.8690032959,5.058013916-.5930023193,8.6750183105,1,9.2550048828,1.8619995117.6770019531,5.0080108643-2.9719848633,8.0189971924-8.833984375.3220062256,3.8259887695,1.2250061035,6.3249816895,2.6289978027,6.5469970703,1.2710113525.2009887695,2.728012085-1.507019043,4.0980072021-4.4550170898.5699920654,4.0599975586,1.671005249,6.6889953613,3.1450042725,6.8179931641,1.3639984131.1190185547,2.7879943848-1.9209899902,3.9969940186-5.316986084,1.0039978027,4.7399902344,2.5080108643,7.7980041504,4.1439971924,7.7690124512,1.4110107422-.0250244141,2.6450042725-2.3330078125,3.495010376-6.0250244141.9859924316,5.6610107422,2.6399993896,9.4320068359,4.4579925537,9.4000244141,1.9820098877-.0360107422,3.6119995117-4.5760192871,4.3219909668-11.1370239258,1.716003418,5.0290222168,3.7620239258,8.1870117188,5.4720153809,7.9170227051,1.4199829102-.2250061035,2.324005127-2.7750244141,2.6390075684-6.666015625,2.4049987793,3.6870117188,4.675994873,5.75,6.117980957,5.1969909668,2.5989990234-.9989929199,1.5230102539-10.0999755859-2.4039916992-20.3299865723" fill="#8abd24"/>
    <path d="M209.3032989502,448.9595184326l.0220031738.016998291.0950012207-.09400177c.0130004883-.013999939.0390014648-.016998291.050994873-.0329971313.0050048828-.0059967041.0019989014-.016998291.0059967041-.0230026245,0,0,8.0870056152-7.90599823,12.717010498-13.9699935913,4.6309967041-6.0640106201,10.0970001221-17.154006958,10.0970001221-17.154006958.0039978027-.004989624.0139923096-.004989624.0189971924-.0130004883.0110015869-.0159912109.0069885254-.0410003662.0159912109-.0579986572l.0599975586-.1179962158-.021987915-.0160064697c.1369934082-.4699859619-.228012085-1.1769866943-.9530029297-1.7069854736-.7350006104-.5390014648-1.533996582-.6730041504-1.9340057373-.3830108643l-.050994873-.0359954834s-9.341003418,10.3719940186-12.8970031738,14.9779968262c-3.5540008545,4.6049957275-10.1380004883,16.4489974976-10.1380004883,16.4489974976l.0500030518.0360031128c-.1560058594.46900177.2120056152,1.1910018921.9470062256,1.7300033569.7239990234.5299987793,1.5079956055.6669998169,1.9149932861.3949966431" fill="#1d1d1b"/>
    <path d="M277.7513122559,464.4320144653l.0209960938.016998291.1140136719-.1090011597c.016998291-.016998291.0439758301-.0219955444.0589904785-.0410003662.0050048828-.0069961548.0039978027-.016998291.0100097656-.0259933472,0,0,9.6559753418-9.2810058594,15.3829956055-16.3160018921,5.7269897461-7.0360031128,12.992980957-19.7400054932,12.992980957-19.7400054932.0060119629-.0069885254.0170288086-.0079956055.0230102539-.0149993896.0140075684-.0189971924.0119934082-.046005249.0249938965-.0670013428l.0790100098-.1359863281-.0209960938-.0160064697c.2059936523-.5340118408-.0939941406-1.3050079346-.7990112305-1.8600006104-.716003418-.56300354-1.5529785156-.6699981689-2.0180053711-.324005127l-.0489807129-.0379943848s-11.3160095215,12.1100006104-15.7070007324,17.453994751c-4.3900146484,5.3450012207-12.9470214844,18.9540023804-12.9470214844,18.9540023804l.0490112305.0390014648c-.225982666.5329971313.0729980469,1.3209991455.7890014648,1.8840026855.7059936523.5549926758,1.5260009766.6659927368,1.9960021973.3399963379" fill="#1d1d1b"/>
  </g>
</svg>