<?xml version="1.0" encoding="UTF-8"?>
<svg id="Ebene_1" data-name="Ebene 1" xmlns="http://www.w3.org/2000/svg" xmlns:xlink="http://www.w3.org/1999/xlink" viewBox="0 0 566.9290161133 566.9290161133">
  <defs>
    <clipPath id="clippath">
      <rect x="437.141998291" y="327.3280181885" width="19.0719909668" height="4.9400024414" fill="none"/>
    </clipPath>
    <clipPath id="clippath-1">
      <rect x="437.141998291" y="327.3270263672" width="19.0719909668" height="4.9409942627" fill="none"/>
    </clipPath>
    <clipPath id="clippath-2">
      <rect x="80.5278015137" y="327.3280181885" width="49.7581939697" height="4.9400024414" fill="none"/>
    </clipPath>
    <clipPath id="clippath-3">
      <rect x="80.5279998779" y="327.3270263672" width="49.7590026855" height="4.9409942627" fill="none"/>
    </clipPath>
  </defs>
  <g>
    <path d="M503.946105957,327.327911377c0,1.6190032959-24.2789916992,2.9329986572-54.2300109863,2.9329986572-29.949005127,0-54.2279968262-1.3139953613-54.2279968262-2.9329986572s24.2789916992-2.9329986572,54.2279968262-2.9329986572c29.9510192871,0,54.2300109863,1.3139953613,54.2300109863,2.9329986572" fill="#005538"/>
    <path d="M159.7763977051,327.327911377c0,1.6190032959-24.2789916992,2.9329986572-54.2299957275,2.9329986572-29.949005127,0-54.2280044556-1.3139953613-54.2280044556-2.9329986572s24.2789993286-2.9329986572,54.2280044556-2.9329986572c29.9510040283,0,54.2299957275,1.3139953613,54.2299957275,2.9329986572" fill="#005538"/>
    <rect x="351.4563874912" y="257.677960817" width="148.178701458" height="2.5249224822" transform="translate(54.3373959032 591.1206202748) rotate(-73.1442527257)" fill="#f5f1e8"/>
    <rect x="469.9449774223" y="184.0125774285" width="2.5254809464" height="149.8552696426" transform="translate(-58.3763794639 166.0562483579) rotate(-18.8419278511)" fill="#f5f1e8"/>
    <rect x="128.4966973707" y="184.8509972879" width="2.525411716" height="148.1788495404" transform="translate(-69.5080544842 48.7497343516) rotate(-16.8556468549)" fill="#f5f1e8"/>
    <rect x="9.1699680229" y="257.6774789967" width="149.8552696426" height="2.5254665061" transform="translate(-188.1268495016 254.9043890222) rotate(-71.1580721489)" fill="#f5f1e8"/>
    <path d="M471.3374023438,248.2088012695c0,13.3099975586-10.7900085449,24.1000061035-24.0989990234,24.1000061035-13.3099975586,0-24.0989990234-10.7900085449-24.0989990234-24.1000061035s10.7890014648-24.1000061035,24.0989990234-24.1000061035c13.3089904785,0,24.0989990234,10.7900085449,24.0989990234,24.1000061035M488.150390625,248.2088012695c0-22.9039916992-18.5679931641-41.4729919434-41.4729919434-41.4729919434s-41.4720153809,18.5690002441-41.4720153809,41.4729919434c0,19.825012207,13.9130249023,36.3900146484,32.5060119629,40.4899902344v9.0840148926h-23.5400085449v17.9209899902h23.5400085449v18.2490081787h17.9329833984v-18.2490081787h24.6600036621v-17.9209899902h-24.6600036621v-9.0840148926c18.5930175781-4.0999755859,32.5060119629-20.6649780273,32.5060119629-40.4899902344" fill="#008939"/>
    <path d="M123.228302002,275.4454345703c9.4110107422,9.4119873047,9.4110107422,24.6699829102-.0009918213,34.0809936523-9.4110031128,9.4119873047-24.6700057983,9.4119873047-34.0810012817,0-9.4100036621-9.4110107422-9.4100036621-24.6690063477,0-34.0809936523,9.4109954834-9.4100036621,24.6699981689-9.4110107422,34.081993103,0M176.246307373,223.2194213867l-8.6049957275.0969848633h-43.1490020752v17.9340209961h21.0410003662l-16.6600036621,16.6600036621c-16.0459976196-10.2470092773-37.5970001221-8.3720092773-51.6159973145,5.6470031738-16.1959991455,16.1959838867-16.1959991455,42.4539794922,0,58.6509857178,16.1969985962,16.1959991455,42.4550018311,16.1959991455,58.6510009766,0,14.0189971924-14.0189971924,15.8939971924-35.5699920654,5.646987915-51.6160125732l16.6600036621-16.6599731445v21.0409851074h17.9340057373v-43.1489868164l.0970001221-8.6050109863Z" fill="#008939"/>
    <path d="M95.8877029419,331.958114624l.0059967041-.0149993896-1.4179992676-.4360046387c-.2159957886-.0659942627-.3969955444-.1289978027-.6129989624-.2079925537-.0839996338-.0279998779-.1529998779-.0510101318-.2369995117-.0790100098,0,0-.3040008545-.1089935303-.8909988403-.3199920654-.5859985352-.2089996338-1.4430007935-.5599975586-2.5410003662-1.0500030518-2.1760025024-1.0059967041-5.3460006714-2.6280059814-8.8020019531-5.4620056152-.861000061-.7079925537-1.7539978027-1.4729919434-2.6259994507-2.3409881592-.9179992676-.8229980469-1.6999969482-1.8540039062-2.6129989624-2.8330078125-1.7589950562-2.016998291-3.3899993896-4.4189910889-4.875-7.1139984131-.4219970703-.6459960938-.672996521-1.3960113525-1.0219955444-2.1070098877-.3190002441-.7249755859-.6830062866-1.4440002441-.9800033569-2.2039794922-.2620010376-.7720031738-.5279998779-1.5540161133-.7990036011-2.3480224609-.1319961548-.3959960938-.2789993286-.7929992676-.4019927979-1.1979980469-.0970001221-.4129943848-.1950073242-.8289794922-.293006897-1.2469787598-.1949996948-.8359985352-.391998291-1.683013916-.5909957886-2.5400085449-.1190032959-.8710021973-.2389984131-1.7539978027-.3600006104-2.6449890137-.1569976807-.8880004883-.1839981079-1.7980041504-.2129974365-2.716003418-.0110015869-.9190063477-.1300048828-1.8460083008-.0579986572-2.7820129395.0569915771-3.7550048828.7579956055-7.6229858398,1.9339981079-11.4570007324,1.1749954224-3.8489990234,3.1500015259-7.5489807129,5.5899963379-11.0050048828,4.8860015869-6.9360046387,12.4560012817-12.4889831543,21.236000061-15.0109863281,4.3810043335-1.266998291,9.0449981689-1.7870178223,13.6979980469-1.4819946289,4.6529998779.3160095215,9.2820053101,1.4750061035,13.5760040283,3.4150085449,1.050994873.532989502,2.1599960327.9539794922,3.1529998779,1.5979919434l2.3970031738,1.3979797363.7559967041.4420166016.1900024414.1099853516.0939941406.0549926758c.0310058594.0150146484.0529937744-.0399780273.0800018311-.0559692383l.3099975586-.308013916,1.2409973145-1.2340087891,5.6159973145-5.5650024414c4.7220153809-4.6899719238,9.4450073242-9.3809814453,14.1470031738-14.050994873-7.591003418-.0260009766-15.8219909668-.0549926758-23.9139938354-.0830078125.016998291-4.6729736328.0329971313-9.157989502.0490036011-13.54296875,4.7059936523.008972168,8.7639923096.0159912109,12.7249908447.0229797363,5.7530059814,0,11.7299957275.0010070801,17.8830108643.0010070801,3.0759887695-.0039978027,6.1969909668-.007019043,9.3549957275-.0120239258,1.5820007324-.0159912109,3.1729888916-.033996582,4.7729949951-.0509643555.8000030518-.0100097656,1.6020050049-.0210266113,2.4070129395-.0320129395l.1189880371-.0020141602h.0039978027l.0090026855-.0029907227.0200042725-.0019836426.0030059814.0239868164.0009918213.0079956055v.0759887695l-.0059967041.7930297852c-.0090026855,1.0579833984-.0190124512,2.1189880371-.0280151367,3.1819763184-.0279846191,2.1280212402-.0119934082,4.2630004883-.0059814453,6.4060058594.0149841309,4.2890014648.0309906006,8.6119995117.0459899902,12.949005127.0390014648,8.0069885254.0780029297,16.0719909668.1180114746,24.0629882812-4.7430114746.0330200195-9.4049987793.0650024414-14.0050048828.0970153809-.0440063477-8.0970153809-.0870056152-15.8690185547-.1270141602-23.4410095215-6.0029907227,6.0679931641-11.8619842529,11.9909973145-17.5179901123,17.708984375-.7969970703.8050231934-1.5899963379,1.6060180664-2.3800048828,2.4030151367l-.3739929199.3779907227-.18699646.1890258789c-.0599975586.0629882812.0599975586.1499938965.0820007324.2229919434l.5379943848.9190063477.9739990234,1.6659851074c.8520050049,1.3210144043,1.4440002441,2.7619934082,2.1280059814,4.1390075684,1.1449890137,2.8439941406,2.1499938965,5.7080078125,2.6119995117,8.6180114746,1.1450042725,5.782989502.7779998779,11.4979858398-.3970031738,16.5929870605-1.1920013428,5.1099853516-3.3040008545,9.6149902344-5.8280029297,13.3020019531-.6490020752.907989502-1.3229980469,1.7679901123-1.9579925537,2.6219940186-.6570129395.8370056152-1.3910064697,1.574005127-2.0540008545,2.3339996338-1.3509979248,1.5-2.7870025635,2.7579956055-4.1690063477,3.8780059814-2.7850036621,2.2200012207-5.4560012817,3.7709960938-7.716003418,4.8539886475-2.2629928589,1.0839996338-4.1069946289,1.7400054932-5.3709945679,2.125-1.2610015869.404006958-1.9390029907.5570068359-1.9390029907.5570068359-.0859985352.0189971924-.1569976807.033996582-.2439956665.0540008545-.2229995728.0590057373-.4080047607.1069946289-.6259994507.1649932861-.4770050049.1320037842-.966003418.2089996338-1.4510040283.3110046387l.0059967041.0160064697c-5.0919952393,1.0889892578-9.1769943237,1.1839904785-9.2059936523,1.7879943848-.0559997559.5090026855,4.3029937744,1.3450012207,9.8689956665.3359985352l.0120010376.0370025635s.1320037842-.0249938965.3980026245-.0729980469c.2689971924-.0420074463.6650009155-.1329956055,1.1940002441-.2600097656,1.0550003052-.2489929199,2.6510009766-.6289978027,4.7109985352-1.3729858398,2.0599975586-.7370147705,4.6070022583-1.8030090332,7.4549942017-3.495010376,2.8280029297-1.7030029297,6.0250091553-3.9729919434,9.0620117188-7.2270050049,3.0839996338-3.1889953613,6.0899963379-7.3179931641,8.3259887695-12.466003418,2.2230072021-5.1279907227,3.762008667-11.2779846191,3.5710144043-18.0709838867.0309906006-1.699005127-.2210083008-3.4169921875-.3850097656-5.1790161133-.3300018311-1.7359924316-.578994751-3.5319824219-1.1279907227-5.2959899902-.4300079346-1.7969970703-1.1380004883-3.5459899902-1.8150024414-5.3399963379-.4049987793-.8699951172-.8140106201-1.7489929199-1.2279968262-2.6360168457-.1920166016-.4509887695-.449005127-.8709716797-.6940002441-1.2989807129l-.5500183105-.9570007324-.1029968262-.1809997559c-.0220031738-.0589904785-.1099853516-.1270141602-.0209960938-.1709899902l.3020019531-.2950134277c.68800354-.6849975586,1.3840026855-1.375,2.0849914551-2.0719909668,1.4130096436-1.4039916992,2.8520050049-2.8340148926,4.3160095215-4.2890014648,2.0099945068-1.9940185547,4.0919952393-4.0559997559,6.2429962158-6.1890258789-.0090026855.2620239258-.0200042725.5440063477-.0309906006.8680114746-.0060119629.1499938965-.0100097656.3089904785-.016998291.4800109863-.0040130615.6539916992-.0090026855,1.358001709-.0150146484,2.1189880371-.0149841309,3.7019958496-.0349884033,8.5459899902-.0629882812,15.3390197754,4.8589935303.0249938965,10.6789855957.0529785156,21.6309967041.1069946289.0390014648-7.1780090332.0890045166-15.9769897461.141998291-25.5700073242.0189971924-4.4389953613.0399932861-9.0629882812.0609893799-13.7730102539.0150146484-2.3549804688.029006958-4.7309875488.0440063477-7.117980957.0429992676-3.1170043945.0870056152-6.2480163574.1310119629-9.3770141602-3.658996582.0310058594-7.3320007324.0629882812-10.9770050049.0939941406-2.9149932861-.008972168-5.8079986572-.016998291-8.6439971924-.0249938965-5.6719970703-.0109863281-11.1159973145-.0220031738-16.0570068359-.0320129395-5.0480041504-.0009765625-10.5379943848-.0019836426-20.5029983521-.0029907227.0049972534,6.0380249023.0120010376,12.4819946289.0219955444,22.4030151367,3.7649993896-.0079956055,7.6439971924-.0140075684,11.8780059814-.0230102539,1.720993042-.0039978027,3.5130004883-.0090026855,5.4029998779-.0140075684l.5609893799-.0019836426.0210113525-.0020141602.0469970703-.0039978027.1159973145-.0079956055-.0639953613.0780029297-.0410003662.0489807129-.1849975586.1900024414-.5780029297.58203125c-1.5410003662,1.5529785156-3.1000061035,3.1239929199-4.6739959717,4.708984375-1.5730133057,1.5870056152-3.1609954834,3.1870117188-4.762008667,4.799987793l-1.2019958496,1.2130126953-.2010040283.2059936523-.0429992676.0490112305c-.0299987793.0269775391-.0739898682-.0249938965-.1089935303-.0350036621l-1.3470001221-.7709960938c-8.5400009155-4.5559997559-18.8390045166-6.141998291-28.4940032959-4.2730102539-9.6709976196,1.8020019531-18.5559997559,7.0830078125-24.6300048828,14.3150024414-3.0569915771,3.592010498-5.5539932251,7.5799865723-7.2629928589,11.7890014648-1.6790008545,4.2189941406-2.6669998169,8.5710144043-3.0550041199,12.8359985352-.3519973755,4.2770080566.0349998474,8.4309997559.7729988098,12.3229980469.4869995117,1.9230041504.8940048218,3.825012207,1.6030044556,5.5859985352.5680007935,1.8110046387,1.4020004272,3.4630126953,2.1679992676,5.0850067139.3489990234.8300018311.8629989624,1.5579986572,1.2949981689,2.31300354.4530029297.7429962158.8740005493,1.4929962158,1.3380050659,2.1959991455.5029983521.6770019531.9989929199,1.3439941406,1.4850006104,1.9980010986.4969940186.6479949951.9379959106,1.3199920654,1.4959945679,1.8789978027,1.0810012817,1.1409912109,2.0360031128,2.3229980469,3.111000061,3.2989959717.5230026245.5019989014,1.0449981689.983001709,1.5800018311,1.4250030518.5229949951.4559936523,1.0419998169.8899993896,1.5709991455,1.2859954834,4.1739959717,3.2610015869,8.0500030518,5.0570068359,10.7369995117,6.1020050049,1.3489990234.5240020752,2.4110031128.875,3.1370010376,1.0829925537.7239990234.2109985352,1.1029968262.3209991455,1.1029968262.3209991455l.013999939-.0359954834c5.4710006714,1.4410095215,9.8820037842.9530029297,9.8670043945.4400024414.0189971924-.608001709-4.0470046997-1.0149993896-9.0380020142-2.5" fill="#1d1d1b"/>
    <path d="M121.537902832,272.6957092285l.0110015869-.0130004883-.4020004272-.3120117188c-.0589981079-.0489807129-.1100006104-.0919799805-.1699981689-.141998291l-.0730056763-.0469970703s-.1329956055-.1040039062-.3899993896-.3029785156c-.2509994507-.2090148926-.6370010376-.4920043945-1.172996521-.8090209961-1.0429992676-.6730041504-2.6090011597-1.617980957-4.75-2.4049987793-1.0520019531-.4469909668-2.2720031738-.7420043945-3.5859985352-1.0899963379-.6700057983-.1130065918-1.3650054932-.2290039062-2.0830001831-.3500061035-.7200012207-.108001709-1.4750061035-.1210021973-2.2480010986-.1879882812-3.09400177-.1270141602-6.5960006714.3099975586-10.0820007324,1.6189880371-3.4779968262,1.3130187988-6.8809967041,3.5500183105-9.6760025024,6.558013916-1.4349975586,1.4729919434-2.6129989624,3.2200012207-3.6849975586,5.0369873047-.9769973755,1.8680114746-1.8460006714,3.8350219727-2.3510055542,5.9140014648-2.3369903564,8.2919921875.1450042725,17.5979919434,5.2910003662,23.4120178223,2.5070037842,2.9509887695,5.9150085449,5.5479888916,9.9190063477,7.2069854736,4.0069961548,1.6179962158,8.5739974976,2.2710113525,13.0189971924,1.7120056152,4.4390029907-.5780029297,8.7620010376-2.262008667,12.2310028076-4.9239959717,3.4819946289-2.620010376,6.2409973145-5.9920043945,7.8970031738-9.6199951172,1.6940002441-3.6090087891,2.4140014648-7.3470153809,2.4349975586-10.683013916.0289916992-3.3489990234-.6260070801-6.2850036621-1.4329986572-8.6069946289-.2180023193-.5759887695-.4260101318-1.1239929199-.6220092773-1.6409912109-.2429962158-.4960021973-.4720001221-.9630126953-.68699646-1.399017334-.3990020752-.8850097656-.8800048828-1.5690002441-1.233001709-2.1459960938-.3499984741-.5790100098-.641998291-1.0100097656-.8739929199-1.2810058594-.2180023193-.2789916992-.3310012817-.424987793-.3310012817-.424987793l-.046005249-.0719909668c-.050994873-.0600280762-.0929946899-.1119995117-.141998291-.1710205078l-.3129959106-.4010009766-.0130004883.0100097656c-1.1910018921-1.3399963379-2.4800033569-1.9779968262-2.8460006714-1.5930175781-.4140014648.4250183105.2089996338,1.6510009766,1.1469955444,3.0120239258l-.0299987793.0239868164s.111000061.1560058594.3209991455.4530029297c.1910018921.3089904785.5610046387.7059936523.8790054321,1.3210144043.1699981689.2979736328.3579940796.6319885254.564994812.9949951172.1040039062.1820068359.2099990845.3710021973.3229980469.5679931641.091003418.2070007324.1870040894.4230041504.2850036621.6449890137.1959991455.4460144043.40599823.9210205078.6289978027,1.425994873.171005249.524017334.3540039062,1.0760192871.546005249,1.6570129395.6849975586,2.3359985352,1.125,5.2470092773.8489990234,8.433013916-.0149993896.799987793-.2299957275,1.5979919434-.3339996338,2.4219970703-.1600036621.8159790039-.4039993286,1.6329956055-.6230010986,2.4649963379-.577003479,1.6229858398-1.236000061,3.2879943848-2.2200012207,4.816986084-3.6610031128,6.3139953613-11.2220001221,10.7290039062-18.4970016479,10.7100067139-3.6209945679.1280059814-7.0719985962-.7489929199-9.9290008545-2.1039886475-2.8740005493-1.3500061035-5.1449966431-3.2090148926-6.8129959106-5.0060119629-1.6809997559-1.7869873047-3.3420028687-4.1730041504-4.4620056152-7.0950012207-1.1279907227-2.907989502-1.7059936523-6.3309936523-1.4509963989-9.8569946289.3120040894-3.5150146484,1.4760055542-7.091003418,3.4449996948-10.183013916,2.0110015869-3.0650024414,4.7689971924-5.6309814453,7.8249969482-7.375,3.0620040894-1.7539978027,6.4250030518-2.6049804688,9.5030059814-2.8190002441,3.0919952393-.2159729004,5.90599823.2460021973,8.1640014648.9300231934,2.2829971313.6519775391,3.9649963379,1.6299743652,5.1219940186,2.282989502.5890045166.3160095215.9810028076.6650085449,1.2789993286.8519897461.2890014648.2019958496.4410018921.308013916.4410018921.308013916l.0240020752-.0289916992c1.3600006104.9369812012,2.5859985352,1.5609741211,3.0120010376,1.1469726562.3839950562-.366973877-.2540054321-1.6559753418-1.59400177-2.8469848633" fill="#1d1d1b"/>
    <path d="M438.6856994629,332.9867095947l.0180053711-.016998291-.0100097656-.0010070801.0130004883-.8069915771c.0039978027-.1220092773.0090026855-.2259979248.0130004883-.3509979248-.0010070801-.0559997559-.0029907227-.1009979248-.0039978027-.1569976807,0,0,.0360107422-5.2770080566.1199951172-17.075012207-4.799987793-.0359954834-13.117980957-.1009979248-23.358001709-.1799926758.0060119629-.1829986572.0110168457-.3890075684.0180053711-.6150054932.0050048828-.3909912109.0119934082-.8179931641.0180053711-1.2760009766.0119934082-1.2539978027.0239868164-2.6790008545.0369873047-4.2329864502.0230102539-2.6760253906.0490112305-5.791015625.0769958496-9.0370178223.2310180664.0079956055.483001709.0160217285.7530212402.024017334.7399902344.0079956055,1.5289916992.0159912109,2.3619995117.0249938965,1.7200012207.0140075684,3.6199951172.0299987793,5.6479797363.0469970703,4.5600280762.0299987793,9.700012207.0639953613,14.9690246582.0979919434.016998291-2.9979858398.033996582-6.0350036621.050994873-9.1090087891l.0069885254-1.6539916992.0029907227-.8320007324.0030212402-.4159851074c-.0620117188-.091003418-.2480163574-.0870056152-.365020752-.1350097656-.9729919434-.2640075684-1.9489746094-.5289916992-2.9269714355-.7940063477-1.1840209961-.2769775391-2.3190002441-.7279968262-3.467010498-1.1510009766-4.5630187988-1.7569885254-8.9209899902-4.3719787598-12.608001709-7.8259887695-3.7040100098-3.4290161133-6.7990112305-7.5989990234-9.0090026855-12.2290039062-2.2430114746-4.6189880371-3.4549865723-9.7369995117-3.7109985352-14.8789978027-.2290039062-5.1489868164.4899902344-10.3370056152,2.2059936523-15.1520080566,1.700012207-4.8190002441,4.3510131836-9.258972168,7.6809997559-13.0029907227,6.6539916992-7.5419921875,16.0090026855-12.092010498,25.2189941406-13.0360107422,4.8520202637-.4909973145,9.9810180664-.1219787598,14.967010498,1.291015625,4.9850158691,1.4029846191,9.8160095215,3.8590087891,14.0289916992,7.2559814453,4.2260131836,3.3790283203,7.7480163574,7.7600097656,10.2680053711,12.683013916,2.5220031738,4.9270019531,3.9920043945,10.4299926758,4.2579956055,16.0050048828.7010192871,11.1820068359-3.8719787598,22.4140014648-11.5789794922,29.9540100098-3.8370056152,3.7789916992-8.3229980469,6.7979736328-13.1240234375,8.6879882812-.6039733887.2229919434-1.2079772949.4459838867-1.8079833984.6669921875l-.899017334.3320007324-.9209899902.2530212402c-.9179992676.2489929199-1.8320007324.4979858398-2.7439880371.7459716797l-.8440246582.2290039062c-.2019958496-.009979248-.134979248.1880187988-.1449890137.3260192871l.0010070801.4379882812.0079956055,1.7439880371c.0199890137,3.2680053711.0400085449,6.4820251465.0589904785,9.6300048828,9.4190063477-.0749816895,17.5190124512-.1380004883,24.8560180664-.1969909668.0619812012,6.2579956055.1069946289,10.9200134277.1479797363,15.1119995117-11.4669799805.1000061035-19.0829772949.1679992676-24.4449768066.2149963379.0820007324,12.4609985352.1119995117,17.0660095215.1119995117,17.0660095215-.0010070801.0559997559-.0030212402.1019897461-.0039978027.1569976807.0039978027.125.0069885254.2289886475.0130004883.3509979248l.0130004883.8069915771-.0100097656.0010070801.0180053711.016998291c-.9219970703.0500030518-1.7890014648.095993042-2.574005127.1380004883-1.0769958496.0650024414-2.0379943848.1470031738-2.8399963379.2440032959-1.6050109863.1929931641-2.5790100098.4429931641-2.5790100098.7200012207,0,.2789916992.9750061035.5299987793,2.5820007324.7220001221.8040161133.0970001221,1.7659912109.1799926758,2.8450012207.2449951172.2690124512.0139923096.5459899902.029006958.8299865723.0449981689.3530273438.012008667.7140197754.0249938965,1.0830078125.0370025635.9210205078.0180053711,1.8800048828.0359954834,2.8680114746.0540008545.0010070801-.1060028076.0019836426-.2230072021.0039978027-.3399963379l.0390014648.0289916992s.0010070801-1.0469970703.0159912109-17.8769989014c.0890197754.0030059814.2310180664.0059967041.532989502.012008667.5900268555.0039978027,1.4950256348.0089874268,2.9250183105.016998291,3.6669921875.0079956055,10.032989502.0199890137,21.2739868164.0419921875.0060119629-1.6719970703.016998291-4.5039978027.0790100098-20.7420043945-2.8070068359-.016998291-7.4559936523-.0419921875-24.5249938965-.1350097656.0079956055-.1959838867.0159912109-.4069824219.0249938965-.6299743652.0069885254-.7320251465.0159912109-1.5110168457.0249938965-2.3310241699.0079956055-.8489990234.016998291-1.7409973145.0249938965-2.675994873.0050048828-.1529846191.0090026855-.3089904785.0140075684-.4679870605-.0530090332-.166015625.1709899902-.1190185547.2690124512-.1669921875.3459777832-.0880126953.6979980469-.1770019531,1.0559997559-.2680053711.533996582-.132019043,1.074005127-.2709960938,1.6049804688-.4760131836,1.0650024414-.3959960938,2.199005127-.7239990234,3.3050231934-1.2149963379,1.0919799805-.516998291,2.2639770508-.9609985352,3.3799743652-1.5859985352.5590209961-.3119812012,1.125-.6260070801,1.6980285645-.9459838867l.8649902344-.4820251465.8320007324-.5569763184c4.4949951172-2.9200134277,8.9020080566-6.9519958496,12.3769836426-12.075012207,3.4080200195-5.1340026855,6.0599975586-11.2590026855,6.9530029297-17.8710021973.9530029297-6.5690002441.5200195312-13.549987793-1.6770019531-19.9880065918-2.1389770508-6.4479980469-5.7959899902-12.3370056152-10.3959960938-17.033996582-4.6449890137-4.6629943848-10.199005127-8.0950012207-15.8419799805-10.1789855957-5.6520080566-2.1040039062-11.3619995117-2.8340148926-16.4630126953-2.6860046387-1.0429992676.0549926758-2.1109924316.091003418-3.1940002441.1730041504-1.0759887695.1629943848-2.1709899902.3289794922-3.2860107422.4970092773-1.125.1209716797-2.2179870605.5-3.3519897461.7639770508-.5639953613.1459960938-1.1340026855.2929992676-1.7070007324.4420166016-.5559997559.2009887695-1.1170043945.4039916992-1.683013916.6079711914-4.5279846191,1.5960083008-9.0729980469,4.0530090332-13.1719970703,7.4370117188-4.083984375,3.3930053711-7.7229919434,7.6840209961-10.4609985352,12.683013916-2.7399902344,4.9909973145-4.5659790039,10.6889953613-5.1299743652,16.6279907227-.5930175781,5.9320068359.1119995117,12.0790100098,2.008972168,17.8819885254,1.8600158691,5.8260192871,5.1050109863,11.2140197754,9.2420043945,15.7340087891,4.1029968262,4.5700073242,9.2700195312,8.0989990234,14.800994873,10.5200195312.6809997559.333984375,1.3880004883.5939941406,2.1030273438.8369750977l2.1279907227.7530212402c.3559875488.1189880371.7239990234.1969909668,1.0849914551.2969970703l.9309997559.2420043945.1820068359.0409851074c.0270080566.0109863281.0729980469.0060119629.0830078125.0310058594l.0019836426.0919799805.0119934082,1.2110290527.0110168457,2.1259765625.0119934082,2.0010070801.0130004883.4190063477c-9.0759887695.0589904785-17.8349914551.1149902344-23.3880004883.1520080566.0490112305,8.6989746094.0950012207,16.8099822998.1189880371,21.1029815674,10.2200012207-.06199646,18.7450256348-.1139984131,23.6820068359-.1439971924.0720214844,12.137008667.1050109863,17.7890014648.1050109863,17.7890014648l.0390014648-.0289916992c.0019836426.1169891357.0029907227.2339935303.0039978027.3399963379.9880065918-.0180053711,1.9459838867-.0359954834,2.8680114746-.0540008545.3689880371-.012008667.7299804688-.0249938965,1.0829772949-.0370025635.283996582-.0159912109.5599975586-.0310058594.8300170898-.0449981689,1.0789794922-.0650024414,2.0409851074-.1479949951,2.8450012207-.2449951172,1.6069946289-.1920013428,2.5799865723-.4430084229,2.5799865723-.7220001221,0-.2770080566-.9719848633-.5270080566-2.5769958496-.7200012207-.8020019531-.0970001221-1.7630004883-.1790008545-2.8399963379-.2440032959-.7850036621-.0420074463-1.6530151367-.0879974365-2.574005127-.1380004883" fill="#1d1d1b"/>
    <path d="M472.0864868164,245.0690307617l.016998291-.0010070801-.0629882812-.5050048828c-.007019043-.0769958496-.0130004883-.1439819336-.0209960938-.2219848633l-.0180053711-.0830078125s-.0209960938-.1690063477-.0610046387-.4899902344c-.0299987793-.325012207-.1029968262-.8000183105-.2590026855-1.4030151367-.2609863281-1.2129821777-.700012207-2.9889831543-1.6560058594-5.0579833984-.4280090332-1.0610046387-1.0820007324-2.1329956055-1.7659912109-3.3070068359-.3940124512-.5530090332-.8030090332-1.1279907227-1.2250061035-1.7200012207-.4339904785-.5859985352-.9570007324-1.1300048828-1.4580078125-1.7229919434-2.0969848633-2.2780151367-4.8819885254-4.4440002441-8.2729797363-5.9850158691-3.3880004883-1.5299987793-7.3760070801-2.3549804688-11.4790039062-2.2030029297-2.0570068359.0250244141-4.125.4280090332-6.1670227051.9550170898-2.0119934082.6300048828-4.0169677734,1.4060058594-5.8459777832,2.5199890137-7.5150146484,4.2109985352-12.3390197754,12.5469970703-12.8130187988,20.2960205078-.3139953613,3.8599853516.2610168457,8.1059875488,1.9180297852,12.1099853516,1.6909790039,3.9769897461,4.4569702148,7.6690063477,7.9969787598,10.4169921875,3.5469970703,2.7300109863,7.7940063477,4.5970153809,12.1300048828,5.166015625,4.3150024414.6109924316,8.6499938965.1770019531,12.3869934082-1.2180175781,3.7489929199-1.3549804688,6.9010009766-3.4889831543,9.2749938965-5.8329772949,2.3880004883-2.3460083008,4.0010070801-4.8860168457,5.074005127-7.0989990234.2520141602-.5610046387.4930114746-1.0950012207.7200012207-1.5989990234.1780090332-.5230102539.3460083008-1.0160217285.5029907227-1.4760131836.3430175781-.907989502.4860229492-1.7309875488.6450195312-2.3900146484.1619873047-.6569824219.2600097656-1.1689758301.2869873047-1.5229797363.0440063477-.3510131836.0670166016-.5350036621.0670166016-.5350036621l.0180053711-.0840148926c.0079956055-.0780029297.0139770508-.1439819336.0209960938-.2209777832l.0629882812-.5039978027-.016998291-.0030212402c.1050109863-1.7899780273-.3540039062-3.1519775391-.8859863281-3.1389770508-.5940246582.0069885254-1.0200195312,1.3159790039-1.3180236816,2.9399719238l-.0379943848-.0029907227s-.033996582.1880187988-.0939941406.5469970703c-.0830078125.3550109863-.1040039062.8970031738-.3129882812,1.5559997559-.091003418.3309936523-.1920166016.700012207-.3040161133,1.1029968262-.0549926758.2010192871-.1130065918.4110107422-.1719970703.6289978027-.0830078125.2120056152-.1679992676.4320068359-.2560119629.6590270996-.175994873.4529724121-.3639831543.9389953613-.5629882812,1.4519958496-.2479858398.4920043945-.5100097656,1.0130004883-.7850036621,1.5579833984-1.1679992676,2.1369934082-2.9159851074,4.507019043-5.3630065918,6.5650024414-.5769958496.5549926758-1.2919921875.967010498-1.949005127,1.4769897461-.6909790039.4630126953-1.4399719238.8670043945-2.1839904785,1.3010253906-1.5549926758.7399902344-3.1979980469,1.4519958496-4.9739990234,1.8369750977-7.0559997559,1.8770141602-15.5229797363-.3479919434-20.6539916992-5.5049743652-2.6499938965-2.4710083008-4.4700012207-5.5320129395-5.532989502-8.5090026855-1.0770263672-2.9880065918-1.3690185547-5.908996582-1.2780151367-8.3590087891.074005127-2.4519958496.5870056152-5.3139953613,1.8609924316-8.1709899902,1.258026123-2.8550109863,3.2709960938-5.6840209961,5.9450073242-7.9970092773,2.7059936523-2.2650146484,6.0570068359-3.9700012207,9.6360168457-4.7659912109,3.5889892578-.7440185547,7.3539733887-.608001709,10.7479858398.3199768066,3.4060058594.9240112305,6.3850097656,2.700012207,8.7139892578,4.7250061035,2.3380126953,2.0350036621,4.0010070801,4.3520202637,5.1140136719,6.4309997559,1.1539916992,2.075012207,1.6520080566,3.9580078125,2.0069885254,5.2369995117.1940002441.6400146484.2239990234,1.1640014648.3030090332,1.5060119629.0620117188.3469848633.0939941406.5299987793.0939941406.5299987793l.0379943848-.0039978027c.2980041504,1.625.7239990234,2.9329833984,1.3180236816,2.9410095215.5319824219.0130004883.9909973145-1.3500061035.8859863281-3.1400146484" fill="#1d1d1b"/>
    <path d="M482.1787109375,164.3248291016c-.4039916992-1.4280090332-1.4920043945-2.9909973145-2.9630126953-2.7929992676-.867980957.1170043945-1.5409851074.8460083008-1.9219970703,1.6359863281-.3809814453.7900085449-.5459899902,1.6670227051-.8670043945,2.483001709-.6289978027,1.5960083008-1.8799743652,2.9380187988-3.4289855957,3.6760253906-.1109924316.0529785156-.2229919434.1059875488-.3340148926.1619873047-10.2769775391,1.7799987793-41.475982666,6.2919921875-94.1510009766-7.9750061035-53.867980957-14.5889892578-93.076965332-11.9989929199-93.076965332-11.9989929199v12.2099914551l1.5359802246,8.7680053711c2.9309997559-5.074005127,63.2560119629-3.566986084,93.1860046387,3.3670043945,51.1709899902,11.8529968262,93.1860046387,3.9280090332,93.1860046387,3.9280090332,0,0,3.5390014648-.9460144043,5.0009765625-1.9750061035.5100097656-.3600158691.974029541-.783996582,1.3970031738-1.2440185547,2.4810180664-2.7009887695,3.4370117188-6.7169799805,2.4370117188-10.2439880371" fill="#008939"/>
    <path d="M378.5133972168,166.2508239746c20.3299865723,5.5069885254,41.2760009766,9.3429870605,62.3659973145,9.9869995117,7.0350036621.2149963379,13.5190124512-.175994873,20.5460205078-.9230041504,3.6409912109-.3869934082,9.5759887695-1.5610046387,12.9209899902-3.2120056152,3.3199768066-1.6369934082,3.0090026855-5.583984375,4.8699951172-5.8349914551,1.4700012207-.1979980469,2.558013916,1.3659973145,2.9620056152,2.7940063477.050994873.175994873.0739746094.358001709.1149902344.5379943848.3859863281-1.7359924316.3710021973-3.5629882812-.1149902344-5.2739868164-.4039916992-1.4280090332-1.4920043945-2.9920043945-2.9620056152-2.7940063477-.8689880371.1159973145-1.5419921875.8460083008-1.9230041504,1.634979248-.3800048828.791015625-.5440063477,1.6670227051-.8670043945,2.483001709-.6289978027,1.5970153809-1.8800048828,2.9390258789-3.4289855957,3.6780090332-.1100158691.0530090332-.2229919434.1060180664-.3330078125.1610107422-10.2770080566,1.7810058594-41.4769897461,6.2909851074-94.1510009766-7.9739990234-53.8689880371-14.5899963379-93.0780029297-12.0010070801-93.0780029297-12.0010070801v4.7359924316s39.2090148926-2.5879821777,93.0780029297,12.0010070801" fill="#8abd24"/>
    <path d="M73.1266021729,164.3248291016c.4039993286-1.4280090332,1.4919967651-2.9909973145,2.9619979858-2.7929992676.8690032959.1170043945,1.5419998169.8460083008,1.9230041504,1.6359863281.3809967041.7900085449.5459976196,1.6670227051.8669967651,2.483001709.6289978027,1.5960083008,1.8800048828,2.9380187988,3.4290008545,3.6760253906.1100006104.0529785156.2229995728.1059875488.3339996338.1619873047,10.2760009766,1.7799987793,41.4759979248,6.2919921875,94.1510009766-7.9750061035,53.8679962158-14.5889892578,92.5800170898-11.2919921875,92.5800170898-11.2919921875l.701965332,10.800994873-1.7409667969,9.4700012207c-2.9310302734-5.074005127-63.2560119629-3.566986084-93.1860046387,3.3670043945-51.1710128784,11.8529968262-93.1860122681,3.9280090332-93.1860122681,3.9280090332,0,0-3.5390014648-.9460144043-5.0009994507-1.9750061035-.5100021362-.3600158691-.9739990234-.783996582-1.3970031738-1.2440185547-2.4809951782-2.7009887695-3.43699646-6.7169799805-2.43699646-10.2439880371" fill="#008939"/>
    <path d="M378.5133972168,166.2508239746c20.3299865723,5.5069885254,41.2760009766,9.3429870605,62.3659973145,9.9869995117,7.0350036621.2149963379,13.5190124512-.175994873,20.5460205078-.9230041504,3.6409912109-.3869934082,9.5759887695-1.5610046387,12.9209899902-3.2120056152,3.3199768066-1.6369934082,3.0090026855-5.583984375,4.8699951172-5.8349914551,1.4700012207-.1979980469,2.558013916,1.3659973145,2.9620056152,2.7940063477.050994873.175994873.0739746094.358001709.1149902344.5379943848.3859863281-1.7359924316.3710021973-3.5629882812-.1149902344-5.2739868164-.4039916992-1.4280090332-1.4920043945-2.9920043945-2.9620056152-2.7940063477-.8689880371.1159973145-1.5419921875.8460083008-1.9230041504,1.634979248-.3800048828.791015625-.5440063477,1.6670227051-.8670043945,2.483001709-.6289978027,1.5970153809-1.8800048828,2.9390258789-3.4289855957,3.6780090332-.1100158691.0530090332-.2229919434.1060180664-.3330078125.1610107422-10.2770080566,1.7810058594-41.4769897461,6.2909851074-94.1510009766-7.9739990234-53.8689880371-14.5899963379-93.0780029297-12.0010070801-93.0780029297-12.0010070801v4.7359924316s39.2090148926-2.5879821777,93.0780029297,12.0010070801" fill="#8abd24"/>
    <path d="M177.0738983154,166.2508239746c-20.3300018311,5.5069885254-41.2760009766,9.3429870605-62.3659973145,9.9869995117-7.0350036621.2149963379-13.5190048218-.175994873-20.546005249-.9230041504-3.6409988403-.3869934082-9.5759963989-1.5610046387-12.9209976196-3.2120056152-3.3199996948-1.6369934082-3.0090026855-5.583984375-4.8700027466-5.8349914551-1.4699935913-.1979980469-2.5579986572,1.3659973145-2.9619979858,2.7940063477-.0510025024.175994873-.0739974976.358001709-.1149978638.5379943848-.3860015869-1.7359924316-.3710021973-3.5629882812.1149978638-5.2739868164.4039993286-1.4280090332,1.4920043945-2.9920043945,2.9619979858-2.7940063477.8690032959.1159973145,1.5419998169.8460083008,1.9230041504,1.634979248.3799972534.791015625.5439987183,1.6670227051.8669967651,2.483001709.6290054321,1.5970153809,1.8800048828,2.9390258789,3.4290008545,3.6780090332.1100006104.0530090332.2229995728.1060180664.3330001831.1610107422,10.2770004272,1.7810058594,41.4770050049,6.2909851074,94.1510009766-7.9739990234,53.8690032959-14.5899963379,93.0780181885-12.0010070801,93.0780181885-12.0010070801v4.7359924316s-39.2090148926-2.5879821777-93.0780181885,12.0010070801" fill="#8abd24"/>
    <path d="M259.966796875,419.3443145752c0-.0079956055,6.6270141602-274.3100128174,9.1260070801-274.3050079346h16.4129943848c2.4849853516,0,10.4370117188,274.1450042725,10.4370117188,274.1450042725l-35.9760131836.1600036621Z" fill="#005538"/>
    <path d="M355.6601867676,442.6399154663h-157.1510009766v-.2659988403c0-14.5449981689,22.1009979248-26.3359985352,34.9649963379-26.3359985352h89.4750061035c12.8639831543,0,32.7109985352,11.7910003662,32.7109985352,26.3359985352v.2659988403Z" fill="#008939"/>
    <path d="M291.037689209,133.9217224121c0,7.2250061035-5.8569946289,13.0820007324-13.0809936523,13.0820007324-7.2250061035,0-13.0820007324-5.8569946289-13.0820007324-13.0820007324,0-7.2239990234,5.8569946289-13.0809936523,13.0820007324-13.0809936523,7.2239990234,0,13.0809936523,5.8569946289,13.0809936523,13.0809936523" fill="#008939"/>
    <path d="M284.9552001953,116.7765197754c0,4.5159912109-3.1329956055,8.175994873-6.9979858398,8.175994873-3.8670043945,0-7-3.6600036621-7-8.175994873s4.7689819336-17.8179931641,7-17.8179931641c1.9689941406,0,6.9979858398,13.3020019531,6.9979858398,17.8179931641" fill="#008939"/>
    <path d="M282.4229125977,133.9389038086c0,2.5559997559-2.0729980469,4.6289978027-4.6289978027,4.6289978027s-4.6289978027-2.0729980469-4.6289978027-4.6289978027,2.0729980469-4.6289978027,4.6289978027-4.6289978027,4.6289978027,2.0729980469,4.6289978027,4.6289978027" fill="#8abd24"/>
    <path d="M281.0184936523,115.4475097656c0,1.9530029297-1.3710021973,3.5360107422-3.0629882812,3.5360107422-1.6910095215,0-3.0610046387-1.5830078125-3.0610046387-3.5360107422s2.7349853516-7.3559875488,3.0610046387-7.3559875488c0,0,3.0629882812,5.4029846191,3.0629882812,7.3559875488" fill="#8abd24"/>
    <path d="M286.2120056152,149.4815063477l1.2309875488,20.1140136719s6.5690002441-1.8930053711,11.5780029297-2.1430053711l-9.4790039062-17.9710083008h-3.3299865723Z" fill="#005538"/>
    <path d="M268.4227905273,149.9024047852l-1.2309875488,20.1130065918s-6.5690002441-1.8930053711-11.5780181885-2.141998291l9.479019165-17.9710083008h3.3299865723Z" fill="#005538"/>
    <path d="M355.6326904297,441.8583145142h-157.1239929199v-.5059967041c0-1.1010055542.1909942627-2.1820068359.5519866943-3.1350021362l.2779998779-.7319946289,155.5010070801-.1800079346.0090026855.0180053711c.5700073242,1.2099914551.850982666,2.6789932251.7969970703,4.1649932861l-.0130004883.3700027466Z" fill="#005538"/>
    <path d="M358.5409851074,455.3185195923h-166.2700042725c-1.6669921875,0-3.0179901123-2.81199646-3.0179901123-6.2789993286v-.1269989014c0-3.4680023193,1.3509979248-6.2799987793,3.0179901123-6.2799987793h166.2700042725c1.6659851074,0,3.0159912109,2.81199646,3.0159912109,6.2799987793v.1269989014c0,3.4670028687-1.3500061035,6.2789993286-3.0159912109,6.2789993286" fill="#008939"/>
    <path d="M102.4046020508,183.3985290527c0-3.2489929199,2.6440048218-5.891998291,5.891998291-5.891998291,3.2480010986,0,5.7600021362,2.6470031738,5.8910064697,5.891998291.1229934692,3.0260009766-2.5760040283,5.7709960938-5.8910064697,5.891998291-3.2490005493,0-5.891998291-2.6430053711-5.891998291-5.891998291M104.9296035767,183.3985290527c0,1.8569946289,1.5100021362,3.3670043945,3.3669967651,3.3670043945,1.8570022583,0,3.3660049438-1.5100097656,3.3660049438-3.3670043945s-1.5090026855-3.3670043945-3.3660049438-3.3670043945c-1.8569946289,0-3.3669967651,1.5100097656-3.3669967651,3.3670043945" fill="#005538"/>
    <path d="M105.9171981812,183.0971069336l.016998291.0020141602.0200042725-.0460205078c.0029983521-.0069885254.0159988403-.0109863281.016998291-.0180053711l-.0039978027-.0079956055s.0949935913-.2579956055.3639984131-.566986084c.2519989014-.3130187988.7399978638-.6329956055,1.2699966431-.6979980469.53099823-.0620117188,1.0849990845.1329956055,1.388999939.4750061035.3280029297.3369750977.4280014038.7529907227.4230041504,1.0709838867.0029983521.3340148926-.0429992676.7090148926-.3230056763,1.0880126953-.2609939575.3659973145-.7799987793.6399841309-1.3359985352.6199951172-.5530014038-.0079956055-1.0849990845-.3220214844-1.3769989014-.6430053711-.297996521-.3229980469-.4099960327-.6019897461-.4099960327-.6019897461l.0039978027-.0090026855c-.0009994507-.0079956055-.013999939-.0119934082-.016998291-.0190124512l-.0200042725-.0449829102-.016998291.0009765625c-.1220016479-.1449890137-.5650024414-.2899780273-1.1240005493-.299987793-.5609970093-.0119934082-1.0159988403.2359924316-1.0670013428.592010498l-.0369949341.0039978027s0,.157989502.0379943848.4400024414c.0439987183.2789916992.1180038452.6929931641.324005127,1.1689758301.3829956055.9390258789,1.3489990234,2.1950073242,2.9580001831,2.7210083008,1.5609970093.5690002441,3.6309967041.217010498,4.9779968262-.9629821777,1.3970031738-1.133026123,1.9619979858-2.916015625,1.9100036621-4.1560058594.0189971924-1.2520141602-.6600036621-2.9810180664-2.0950012207-4.0390014648-.7050018311-.5270080566-1.5680007935-.8869934082-2.4500045776-1.007019043-.8839950562-.1159973145-1.763999939,0-2.5319976807.2920227051-1.5589981079.5959777832-2.466003418,1.8469848633-2.8140029907,2.7760009766-.1909942627.4689941406-.2509994507.8729858398-.2889938354,1.1459960938-.0300064087.2749938965-.0279998779.4270019531-.0279998779.4270019531l.0369949341.0050048828c.0510025024.3559875488.5060043335.6039733887,1.0670013428.5929870605.5589981079-.0100097656,1.0019989014-.1560058594,1.1240005493-.3020019531" fill="#1d1d1b"/>
    <path d="M101.4972991943,184.2555236816l-.016998291.0020141602.0069961548.1399841309c.0019989014.0209960938-.0069961548.041015625-.0029983521.0620117188l.0090026855.0220031738s-.0090026855.1889953613.0519943237.5269775391c.0510025024.3399963379.1410064697.841003418.3730010986,1.4370117188.4189987183,1.1889953613,1.4879989624,2.8150024414,3.4309997559,3.8269958496.9670028687.4930114746,2.1060028076.8160095215,3.3870010376.7959899902,1.2369995117-.033996582,2.4680023193-.3379821777,3.5870056152-.9489746094,2.2399978638-1.1600036621,3.9579925537-3.5690002441,4.0970001221-6.133026123.06199646-1.2659912109-.1610031128-2.4579772949-.6860046387-3.6789855957-.5319976807-1.1910095215-1.3860015869-2.2980041504-2.4779968262-3.1189880371-1.09400177-.8160095215-2.4150009155-1.3470153809-3.7260055542-1.4680175781-1.3050003052-.1329956055-2.5759963989.0679931641-3.6529998779.5299987793-2.1889953613.916015625-3.4150009155,2.6640014648-3.9079971313,3.933013916-.2649993896.641998291-.3639984131,1.1879882812-.4189987183,1.5579833984-.0670013428.3670043945-.0569992065.574005127-.0569992065.574005127l-.0090026855.0220031738c-.0039978027.0220031738.0049972534.0409851074.0029983521.0629882812l-.0069961548.1390075684.016998291.0020141602c.0449981689.5049743652.4940032959.8689880371,1.0439987183.8569946289.5709991455-.0100097656,1.016998291-.2860107422,1.1510009766-.5970153809l.0390014648.0039978027s.0270004272-.1529846191.1100006104-.4159851074c.0929946899-.2590026855.2200012207-.6390075684.4869995117-1.0429992676.5-.8059997559,1.5530014038-1.7600097656,2.9079971313-1.967010498,1.3499984741-.2569885254,2.796005249.25,3.6159973145,1.2120056152.8700027466.9360046387,1.1190032959,2.2019958496,1.0900039673,3.0100097656-.0029983521.6909790039-.3160018921,1.7579956055-1.2590026855,2.6289978027-.4639968872.4209899902-1.0419998169.7819824219-1.6809997559.9790039062-.6439971924.2039794922-1.2159957886.2319946289-1.8849945068.1099853516-1.2850036621-.2460021973-2.3020019531-1.1409912109-2.7860031128-1.9230041504-.2630004883-.3889770508-.3909988403-.7529907227-.486000061-1.0029907227-.0830001831-.2550048828-.1139984131-.4020080566-.1139984131-.4020080566l-.0390014648.0039978027c-.1340026855-.3110046387-.5800018311-.5869750977-1.1510009766-.5969848633-.5499954224-.0100097656-.9990005493.3519897461-1.0439987183.8569946289" fill="#1d1d1b"/>
    <path d="M447.0090942383,189.2897033691c-3.2489929199,0-5.891998291-2.6430053711-5.891998291-5.8909912109,0-3.2480163574,2.6430053711-5.891998291,5.891998291-5.891998291s5.891998291,2.6439819336,5.891998291,5.891998291c0,3.2479858398-2.6430053711,5.8909912109-5.891998291,5.8909912109M447.0090942383,180.0317077637c-1.8569946289,0-3.3670043945,1.5100097656-3.3670043945,3.3670043945s1.5100097656,3.3659973145,3.3670043945,3.3659973145,3.3670043945-1.5090026855,3.3670043945-3.3659973145-1.5100097656-3.3670043945-3.3670043945-3.3670043945" fill="#005538"/>
    <path d="M447.3103942871,181.0194091797l-.0020141602.016998291.0450134277.0199890137c.0079956055.0030212402.0119934082.0160217285.0190124512.016998291l.0079956055-.0039978027s.2579956055.0950012207.566986084.3640136719c.3130187988.2519836426.6329956055.7399902344.6979980469,1.2699890137.0620117188.5310058594-.1329956055,1.0850219727-.4750061035,1.3890075684-.3369750977.3280029297-.7529907227.4280090332-1.0709838867.4230041504-.3340148926.0029907227-.7090148926-.0429992676-1.0880126953-.3229980469-.3659973145-.2610168457-.6399841309-.7799987793-.6199951172-1.3359985352.0079956055-.5530090332.3220214844-1.0849914551.6430053711-1.3770141602.3229980469-.2980041504.6019897461-.4100036621.6019897461-.4100036621l.0090026855.0039978027c.0079956055-.0009765625.0119934082-.0139770508.0190124512-.016998291l.0449829102-.0199890137-.0009765625-.016998291c.1449890137-.1220092773.2899780273-.5650024414.299987793-1.1239929199.0119934082-.5610046387-.2359924316-1.0160217285-.592010498-1.0670166016l-.0039978027-.0369873047s-.157989502,0-.4400024414.0379943848c-.2789916992.0440063477-.6929931641.1180114746-1.1689758301.324005127-.9390258789.3829956055-2.1950073242,1.3489990234-2.7210083008,2.9580078125-.5690002441,1.5610046387-.217010498,3.6309814453.9629821777,4.9779968262,1.133026123,1.3970031738,2.916015625,1.9620056152,4.1560058594,1.9100036621,1.2520141602.0189819336,2.9810180664-.6600036621,4.0390014648-2.0950012207.5280151367-.7050170898.8880004883-1.5680236816,1.007019043-2.450012207.1159973145-.8840026855,0-1.7640075684-.2920227051-2.5319824219-.5959777832-1.5590209961-1.8469848633-2.466003418-2.7760009766-2.8140258789-.4689941406-.1909790039-.8739929199-.2509765625-1.1459960938-.2890014648-.2749938965-.0299987793-.4270019531-.0279846191-.4270019531-.0279846191l-.0050048828.0369873047c-.3559875488.050994873-.6039733887.5060119629-.5929870605,1.0670166016.0100097656.5589904785.1560058594,1.0019836426.3020019531,1.1239929199" fill="#1d1d1b"/>
    <path d="M447.8676147461,190.1974182129l.0020141602.016998291.1399841309-.0079956055c.0209960938-.0010070801.041015625.0079956055.0620117188.0039978027l.0229797363-.0090026855s.1889953613.0090026855.5280151367-.0539855957c.3399963379-.0490112305.8419799805-.1400146484,1.4379882812-.3730163574,1.1910095215-.4209899902,2.8190002441-1.4949951172,3.8290100098-3.4440002441,1.0050048828-1.9129943848,1.1690063477-4.7019958496-.1140136719-6.9970092773-1.1969909668-2.3129882812-3.725982666-3.875-6.1279907227-4.0389709473-1.1889953613-.1060180664-2.5069885254.0799865723-3.7340087891.6119995117-1.2200012207.5399780273-2.3309936523,1.4169921875-3.1369934082,2.516998291-1.6679992676,2.2109985352-1.8609924316,5.2389831543-.9209899902,7.3769836426.9119873047,2.1960144043,2.6619873047,3.425994873,3.9329833984,3.9209899902.641998291.266998291,1.1889953613.3670043945,1.5590209961.4230041504.3699951172.0670166016.5759887695.0570068359.5759887695.0570068359l.0230102539.0090026855c.0209960938.0039978027.0409851074-.0050048828.0619812012-.0039978027l.1390075684.0079956055.0029907227-.016998291c.5060119629-.0450134277.8690185547-.4930114746.858001709-1.0440063477-.009979248-.5709838867-.2859802246-1.016998291-.5969848633-1.1510009766l.0039978027-.0390014648s-.1539916992-.0269775391-.4169921875-.1109924316c-.2600097656-.092010498-.6400146484-.2200012207-1.0450134277-.4880065918-.8089904785-.5-1.7619934082-1.5579833984-1.966003418-2.9159851074-.2579956055-1.342010498.2630004883-2.8210144043,1.2200012207-3.6580200195.9389953613-.8859863281,2.1199951172-1.0909729004,2.9270019531-1.032989502.8129882812.0270080566,1.907989502.3590087891,2.7709960938,1.2449951172.4140014648.4440002441.7510070801,1.0020141602.9400024414,1.6220092773.1750183105.6239929199.2059936523,1.3089904785.0859985352,1.9429931641-.2409973145,1.2879943848-1.1390075684,2.3089904785-1.9219970703,2.7950134277-.3880004883.2630004883-.7550048828.391998291-1.0039978027.4869995117-.2550048828.0829772949-.4030151367.1139831543-.4030151367.1139831543l.0040283203.0390014648c-.3110046387.1340026855-.5880126953.5800170898-.5980224609,1.1510009766-.0109863281.550994873.3529968262.9989929199.8590087891,1.0440063477" fill="#1d1d1b"/>
    <path d="M234.5724029541,424.7409210205h87.220993042c8.8170166016,0,20.9930114746,4.0370025635,27.449005127,9.9309997559-3.1409912109-9.7610015869-19.0260009766-17.2019958496-29.7120056152-17.2019958496h-82.8059997559c-10.8599853516,0-28.8249969482,7.6849975586-31.8959960938,17.6809997559,6.9420013428-6.1549987793,20.6889953613-10.4100036621,29.7440032959-10.4100036621" fill="#8abd24"/>
    <path d="M361.4135131836,446.9962158203c-.3900146484-2.5299987793-1.5280151367-4.3629989624-2.8720092773-4.3629989624h-166.271987915c-1.3440093994,0-2.4820098877,1.8330001831-2.8720092773,4.3629989624h172.0160064697Z" fill="#8abd24"/>
    <polygon points="295.792388916 412.0453186035 260.1663818359 412.2743225098 259.9783935547 415.9083251953 295.883392334 416.0453186035 295.792388916 412.0453186035" fill="#005538"/>
  </g>
  <g>
    <g opacity=".3999939859">
      <g clip-path="url(#clippath)">
        <g clip-path="url(#clippath-1)">
          <rect x="437.141998291" y="327.3270263672" width="19.0719909668" height="4.9409942627" fill="#005538"/>
        </g>
      </g>
    </g>
    <path d="M503.946105957,327.327911377c0,1.6190032959-24.2789916992,2.9329986572-54.2300109863,2.9329986572-29.949005127,0-54.2279968262-1.3139953613-54.2279968262-2.9329986572h-.0209960938c0,19.2919921875,24.2969970703,34.9299926758,54.2709960938,34.9299926758,29.9730224609,0,54.2709960938-15.6380004883,54.2709960938-34.9299926758h-.0629882812Z" fill="#008939"/>
    <g opacity=".3999939859">
      <g clip-path="url(#clippath-2)">
        <g clip-path="url(#clippath-3)">
          <rect x="80.5279998779" y="327.3270263672" width="49.7590026855" height="4.9409942627" fill="#005538"/>
        </g>
      </g>
    </g>
    <path d="M159.7763977051,327.327911377c0,1.6190032959-24.2789916992,2.9329986572-54.2299957275,2.9329986572-29.949005127,0-54.2280044556-1.3139953613-54.2280044556-2.9329986572h-.0209960938c0,19.2919921875,24.2969970703,34.9299926758,54.2709960938,34.9299926758,29.9729995728,0,54.2710037231-15.6380004883,54.2710037231-34.9299926758h-.06300354Z" fill="#008939"/>
    <path d="M355.2831115723,435.6418151855l.016998291-.0059967041c-.1260070801-.3639984131-.299987793-.7050018311-.4469909668-1.0599975586-.0690002441-.1600036621-.1270141602-.2980041504-.1960144043-.4620056152-.032989502-.0610046387-.0610046387-.1089935303-.0939941406-.1699981689,0,0-.175994873-.3390045166-.5119934082-.9880065918-.3550109863-.6380004883-.9070129395-1.5670013428-1.7149963379-2.7009887695-1.6300048828-2.2470092773-4.375-5.2720031738-8.4920043945-8.1460113525-4.1109924316-2.8349914551-9.5220031738-5.7169952393-16.2969970703-7.0159912109-1.6710205078-.3180084229-3.5249938965-.4799957275-5.2879943848-.4790039062-1.7380065918-.0180053711-3.516998291-.0350036621-5.3350219727-.0540008545-3.634979248-.0350036621-7.4270019531-.0729980469-11.3419799805-.1100006104-15.6610107422-.1300048828-33.3180236816-.2749938965-51.0490112305-.4219970703-4.4329986572-.0279998779-8.8699951172-.0559997559-13.2819976807-.0830078125-2.2060089111-.0129852295-4.4060058594-.0259857178-6.595993042-.0379943848-1.0450134277-.0019989014-2.2970123291-.0209960938-3.4600067139.0950012207-1.1739959717.091003418-2.3190002441.2660064697-3.4510040283.4730072021-4.5059967041.8809967041-8.7120056152,2.4449920654-12.6179962158,4.408996582-3.8970031738,1.9769897461-7.5039978027,4.3809967041-10.6190032959,7.2639923096-3.0800018311,2.8769989014-6.0009918213,6.4970092773-7.4519958496,11.1399993896-.2040100098.5660095215-.3040008545,1.1760101318-.4510040283,1.7670059204-.0370025635.1479949951-.0639953613.2989959717-.0820007324.4529953003l-.091003418.6480026245c-.0930023193.5640029907-.1169891357,1.0800018311-.1309967041,1.59400177l-.0180053711,1.5419998169-.0089874268.7719955444-.0010070801.3880004883c.0189971924.1130065918-.06300354.3220062256.1199951172.2760009766,1.0210113525.0550003052,1.9690093994.1800003052,3.092010498.1460037231,2.4169921875-.0050048828,4.8609924316-.0120010376,7.3269958496-.0180053711,8.8959960938-.0409927368,18.1139984131-.0839996338,27.3789978027-.1269989014,18.5299987793-.1479949951,37.2519989014-.297996521,53.978012085-.4309997559,33.4530029297-.3709945679,58.9270019531-.6539993286,58.9270019531-.6539993286.0659790039.0029983521.1199951172.0039978027.1849975586.0060043335.1689758301-.0050048828.3110046387-.0090026855.4779968262-.0130004883l1.0979919434-.013999939-.0010070801-.0170059204c3.8460083008-.1039962769,6.8059997559-.5459976196,6.8059997559-1.1019973755,0-.5660018921-3.050994873-1.013999939-6.9879760742-1.108001709l-.0030212402-.0379943848s-29.0589904785-.2030029297-64.2030029297-.4460067749c-17.5709838867-.1059951782-36.6640014648-.2199935913-54.4059906006-.3259963989-8.8710021973-.0429992676-17.4049987793-.0839996338-25.2409973145-.1210021973-.9799957275-.0039978027-1.9479980469-.0079956055-2.9049987793-.0120010376l-.716003418-.0019989014-.2740020752-.0009994507-.0079956055-.0029983521-.0299987793-.0039978027c-.0220031738.0039978027.0009918213-.0500030518,0-.0390014648l-.0010070801.0199966431.0350036621-.2509994507c.029006958-.189994812.0870056152-.3759994507.1269989014-.5629959106.0839996338-.3759994507.1679992676-.7470092773.3020019531-1.108001709.925994873-2.9230041504,2.720993042-5.4349975586,4.6360015869-7.4889984131,3.8529968262-4.1179962158,9.6689910889-7.9900054932,16.5999908447-10.5379943848,3.4550018311-1.2520141602,7.2320098877-2.2130126953,11.0000152588-2.25,4.1510009766-.0190124512,8.4219970703-.0380096436,12.7709960938-.0559997559,17.3930053711-.1100158691,36.0199890137-.2270050049,53.1260070801-.3350067139,8.533996582-.0590057373,16.6909790039-.1159973145,24.1229858398-.1670074463,3.4700012207.092010498,6.8200073242.9570007324,9.8129882812,2.046005249,3.0050048828,1.0989990234,5.6850280762,2.4790039062,7.9920043945,3.9389953613,4.641998291,2.9110107422,7.716003418,6.1809997559,9.4400024414,8.6290130615.8829956055,1.220993042,1.4250183105,2.2489929199,1.7830200195,2.9469909668.3279724121.7109985352.5009765625,1.0859985352.5009765625,1.0859985352l.0370178223-.0130004883c1.5239868164,3.3670043945,1.742980957,6.310005188,2.350982666,6.3390045166.2760009766.0029983521.541015625-.7350006104.6190185547-2.0179977417.0879821777-1.2779998779-.1640014648-3.0820083618-.8590087891-4.9800033569" fill="#1d1d1b"/>
    <path d="M73.8733978271,331.7384185791c-10.2220001221-.4609985352-16.7290000916-1.1560058594-16.7290000916-1.9320068359h-.0180015564c0,16.5540008545,20.8499984741,29.9740142822,46.5699996948,29.9740142822,2.841003418,0,5.6190032959-.1730041504,8.3209991455-.4869995117-20.7890014648-2.4140014648-36.7729949951-13.7030029297-38.1439971924-27.5550079346" fill="#8abd24"/>
    <path d="M482.0357055664,331.7384185791c10.2219848633-.4609985352,16.7290039062-1.1560058594,16.7290039062-1.9320068359h.0180053711c0,16.5540008545-20.8500061035,29.9740142822-46.5700073242,29.9740142822-2.841003418,0-5.6190185547-.1730041504-8.3210144043-.4869995117,20.7890014648-2.4140014648,36.7730102539-13.7030029297,38.1440124512-27.5550079346" fill="#8abd24"/>
    <path d="M273.342590332,408.9801177979c-3.0650024414.0240020752-5.5549926758-2.4649963379-5.5320129395-5.5299987793.2980041504-38.078994751,2.1190185547-258.4160003662,4.4030151367-258.4109954834h10.1719970703c2.2720031738,0,5.1979980469,220.408996582,5.6849975586,258.3089904785.0390014648,3.0420074463-2.4020080566,5.5350036621-5.4450073242,5.5590057373l-9.282989502.0729980469Z" fill="#008939"/>
    <path d="M194.4239044189,442.5689163208l.0010070801-.016998291-.6590118408-.013999939c-.0999908447-.0040054321-.1849975586-.0080032349-.2879943848-.0130004883-.0379943848.0019989014-.0709991455.0029983521-.1110076904.0049972534,0,0-.2179870605-.0039978027-.6380004883-.0130004883-.1629943848-.0089950562-.5609893799-.0159988403-1.0099945068.0449981689-.4409942627.0920028687-.9179992676.31300354-1.3779907227.6950073242-1.6650085449,1.5179977417-2.3990020752,4.1529998779-2.2180023193,7.3499984741.0599975586.8089981079.1999969482,1.6619949341.487991333,2.5469970703.3290100098.8860015869.6780090332,1.7990036011,1.6959991455,2.7030029297.5230102539.4309997559,1.1840057373.7369995117,1.8980102539.7539978027.4819946289.0100021362.9720001221.0189971924,1.4700012207.0279998779.9319915771.016998291,1.8939971924.0329971313,2.8839874268.0510025024,3.9570007324.0660018921,8.358001709.138999939,13.0579986572.2169952393,18.8020019531.2980041504,42.3940124512.608001709,61.5550079346.6539993286,19.1609802246.0470046997,44.032989502-.2630004883,64.1139831543-.5839996338,5.0200195312-.0849990845,9.741027832-.1660003662,13.9980163574-.2369995117,2.1289978027-.0400009155,4.1410217285-.0759963989,6.0180053711-.1119995117.9379882812-.016998291,1.842010498-.033996582,2.7099914551-.0499954224l.3229980469-.0070037842c.1580200195.0060043335.3290100098-.0130004883.4899902344-.0349960327.3270263672-.0240020752.6440124512-.1210021973.9299926758-.2610015869.5680236816-.2630004883,1.0890197754-.75,1.3760375977-1.1470031738,1.191986084-1.675994873,1.3909912109-3.2789993286,1.509979248-4.6459960938.0859985352-1.3759994507-.049987793-2.5250015259-.2590026855-3.4840011597-.4229736328-1.9000015259-1.1989746094-2.8509979248-1.1989746094-2.8509979248-.0260009766-.0410003662-.0469970703-.074005127-.0740356445-.1150054932-.0679931641-.1049957275-.1489868164-.1800003052-.2329711914-.2760009766-.1690063477-.2019958496-.4039916992-.4279937744-.666015625-.6159973145l-.0100097656.0149993896c-.3359985352-.2389984131-.7109985352-.391998291-1.0830078125-.4589996338-.3569946289-.0510025024-.79296875-.0289993286-.991973877.0110015869-.4909973145.0650024414-.9289855957.1470031738-1.2959899902.2440032959-.7319946289.1929931641-1.1770019531.4429931641-1.1770019531.7199935913,0,.2830047607.4580078125.5360031128,1.2109985352.7310028076.3769836426.0970001221.8269958496.1790008545,1.3309936523.2429962158.1519775391.0180053711.2070007324.0300064087.2659912109.0480041504.0620117188.0209960938.125.0319976807.1820068359.0699996948.1229858398.0459976196.2239990234.1399993896.3219909668.2269973755l-.0229797363.0310058594c-.1040039062-.0559997559.5469970703.3099975586.9920043945,1.9639968872.208984375.8109970093.3299865723,1.8590011597.2409667969,3.1119995117-.0440063477.608001709-.1499633789,1.2539978027-.3469848633,1.8819961548-.1920166016.6180038452-.4949951172,1.2570037842-.8540039062,1.6290054321-.1480102539.1459960938-.2520141602.21900177-.4290161133.2569961548-.0390014648.0130004883-.0819702148.0080032349-.1229858398.0130004883l-.2119750977-.0029983521c-.2340087891-.0029983521-.4710083008-.0049972534-.7080078125-.0090026855-.9550170898-.0109939575-1.9460144043-.0229949951-2.9720153809-.0349960327-2.0530090332-.0230026245-4.241973877-.0480041504-6.5429992676-.0749969482-4.6019897461-.0520019531-9.6470031738-.108001709-14.9219970703-.1660003662-21.0950012207-.2290039062-45.8430175781-.46900177-60.4519958496-.5130004883-14.608001709-.0450057983-38.7969970703.1949996948-59.3330078125.4459991455-5.1349945068.0659942627-10.0399932861.1289978027-14.5110015869.1859970093-2.2229919434.0299987793-4.3369903564.0589981079-6.3179931641.0859985352-.3350067139.0130004883-.5540008545-.1299972534-.949005127-.7859954834-.3369903564-.5890045166-.5589904785-1.3250045776-.68699646-2.0350036621-.2389984131-1.43699646-.1649932861-2.8740005493.1170043945-3.9570007324.1399993896-.5499954224.3309936523-1.0289993286.5429992676-1.391998291.1060028076-.1819992065.2149963379-.3290023804.3190002441-.4509963989.108001709-.1090011597.1369934082-.1450042725.2369995117-.2089996338.0829925537-.0530014038.1709899902-.0810012817.2559967041-.1030044556.1159973145-.0149993896.095993042-.0159988403.3339996338-.0189971924.3659973145-.0050048828.6770019531-.0090026855.9279937744-.013999939.5020141602-.0080032349.7660064697-.0120010376.7660064697-.0120010376l.0010070801-.0390014648c2.3639984131-.0930023193,4.1940002441-.5410003662,4.1940002441-1.1070022583,0-.5559997559-1.7750091553-.9990005493-4.0850067139-1.1019973755" fill="#1d1d1b"/>
    <path d="M293.6499023438,150.3107299805l-.0010070801.016998291,1.3190002441.0199890137c.200012207.007019043.3710021973.0110168457.574005127.016998291.0799865723-.0009765625.1449890137-.0019836426.2239990234-.0029907227,0,0,1.7529907227.0559997559,4.9689941406.158996582,3.2149963379.1610107422,7.8959960938.3869934082,13.7340087891.9320068359,11.675994873,1.0199890137,28.0029907227,3.2090148926,46.3600158691,7.3909912109,2.2899780273.5380249023,4.617980957,1.0850219727,6.975982666,1.6390075684,2.3439941406.6159973145,4.7189941406,1.2390136719,7.1210021973,1.8699951172,2.416015625.6360168457,4.8590087891,1.2790222168,7.325012207,1.9290161133,2.4819946289.6309814453,4.9649963379,1.3589782715,7.5130004883,1.9140014648,10.1259765625,2.4729919434,20.7069702148,4.4729919434,31.4129943848,5.816986084,10.7070007324,1.3219909668,21.550994873,1.9410095215,32.1409912109,1.6140136719,5.2929992676-.1600036621,10.5260009766-.5859985352,15.6219787598-1.3099975586,1.2800292969-.1790161133,2.5290222168-.3710021973,3.8010253906-.5870056152.2879943848-.0559997559.6270141602-.0679931641.8609924316-.2250061035l.6570129395-.3219909668c.3670043945-.1960144043.7249755859-.408996582,1.0570068359-.6510009766.6699829102-.4800109863,1.2709960938-1.0419921875,1.7849731445-1.6750183105.5170288086-.6309814453.9470214844-1.333984375,1.2780151367-2.0859985352.3399963379-.7749938965.5090026855-1.4579772949.6729736328-1.9499816895.1640014648-.5120239258.3050231934-.8059997559.4200439453-.9440002441l.0059814453-.0020141602v.0029907227h.0020141602c-.0330200195-.0379943848.0639648438.0720214844.1529846191.2070007324.0879821777.1270141602.1709899902.2880249023.2420043945.4550170898.0749816895.1870117188.1239929199.3030090332.1809997559.5559997559.0609741211.2309875488.1129760742.467010498.1480102539.7070007324.0829772949.4769897461.1209716797.9679870605.1129760742,1.4639892578-.0079956055,1.9800109863-.7359924316,4.0310058594-2.032989502,5.5549926758-.316986084.3900146484-.6860046387.740020752-1.0459899902,1.0200195312-.2100219727.1600036621-.2930297852.2129821777-.5130004883.333984375-.200012207.1110229492-.4440307617.2250061035-.6960144043.3359985352-.5119934082.2210083008-1.0760192871.4290161133-1.6520080566.6230163574l-.875.2810058594-.4409790039.1309814453-.2100219727.0590209961-.0559692383.009979248c-2.4820251465.4429931641-5.1270141602.783996582-7.75,1.0960083008-10.5540161133,1.2309875488-21.6180419922,1.6629943848-32.7140197754,1.5130004883-11.1000061035-.2019958496-22.2489929199-1.0970153809-33.032989502-2.641998291-2.6890258789-.4380187988-5.3590087891-.8739929199-8.0090026855-1.3059997559-2.6499938965-.4349975586-5.2450256348-1.0369873047-7.8330078125-1.5390014648-2.5639953613-.4979858398-5.1799926758-1.1109924316-7.7590026855-1.5790100098-2.5780029297-.4790039062-5.1289978027-.8939819336-7.6459960938-1.2630004883-10.0660095215-1.4570007324-19.5700073242-2.2609863281-28.1480102539-2.7989807129-8.5780029297-.5250244141-16.2339782715-.7440185547-22.6269836426-.7790222168-6.3940124512-.0379943848-11.524017334.1190185547-15.0570068359.3150024414-3.5320129395.1950073242-5.4679870605.4080200195-5.4679870605.4080200195-.0790100098.0049743652-.1450195312.0090026855-.2250061035.0149841309-.2059936523.0230102539-.3780212402.0419921875-.5809936523.0660095215l-1.3340148926.1549987793.0029907227.0159912109c-2.3309936523.3139953613-4.3970031738.8139953613-5.8150024414,1.4729919434-.7059936523.3260192871-1.25.7070007324-1.5429992676,1.0680236816-.2979736328.3809814453-.2819824219.675994873-.1659851074.7269897461.1390075684.0660095215.3179931641-.0050048828.6440124512-.0969848633.3419799805-.0940246582.8729858398-.2190246582,1.5739746094-.3370056152,1.399017334-.2380065918,3.4450073242-.4560241699,5.7709960938-.6629943848l.008026123.0379943848s2.1380004883-.2539978027,6.0549926758-.433013916c3.9129943848-.1820068359,9.5989990234-.2739868164,16.6099853516-.1119995117,7.0090026855.1570129395,15.3430175781.5530090332,24.5370178223,1.3059997559,9.1879882812.7699890137,19.2619934082,1.8460083008,29.6199951172,3.7019958496,2.5870056152.4649963379,5.1860046387.9970092773,7.7799987793,1.6050109863,2.6610107422.5759887695,5.3439941406,1.1560058594,8.041015625,1.7389831543,5.4169921875,1.0600280762,10.9159851074,2.0450134277,16.4599914551,2.7530212402,11.0769958496,1.4939880371,22.2770080566,2.2579956055,33.0719909668,2.3529968262,10.799987793.108001709,21.1879882812-.4800109863,30.6970214844-1.6340026855,1.1889648438-.1369934082,2.366973877-.3059997559,3.5309753418-.4739990234.5840148926-.091003418,1.1650085449-.183013916,1.7430114746-.2730102539l.4779968262-.083984375c.1130065918-.0130004883.3059997559-.075012207.366973877-.0890197754l.2220153809-.0619812012.8640136719-.257019043c1.1489868164-.3649902344,2.2539978027-.7379760742,3.4549865723-1.3359985352,1.3829956055-.6979980469,2.3370056152-1.6340026855,3.1669921875-2.617980957,1.666015625-1.9949951172,2.5939941406-4.3810119629,2.9060058594-6.740020752.1510009766-1.1839904785.1470031738-2.3689880371-.0180053711-3.5209960938-.0899658203-.5799865723-.2049865723-1.1279907227-.3689880371-1.7049865723-.1910095215-.6350097656-.4449768066-1.2270202637-.7929992676-1.800994873-.2879943848-.4479980469-.5720214844-.9120178223-1.3389892578-1.5520019531-.7100219727-.5639953613-1.7789916992-1.1369934082-3.2560119629-.9620056152-.8949890137.1229858398-1.75.550994873-2.4289855957,1.199005127-.7280273438.7049865723-1.0660095215,1.3399963379-1.3500061035,1.9779968262-.5130004883,1.2470092773-.6560058594,2.1409912109-.9440002441,2.658996582-.2860107422.5960083008-.7290039062,1.1480102539-1.2650146484,1.5880126953-.2709960938.2169799805-.5639953613.4049987793-.8720092773.5569763184l-.0759887695.0370178223c-.0219726562.0069885254.033996582-.0039978027-.0579833984.0109863281l-.7659912109.1280212402c-4.0950317383.6879882812-8.4470214844,1.2079772949-13.0160217285,1.5189819336-9.1289978027.6499938965-19.0780029297.5039978027-29.3179931641-.3290100098-10.2420043945-.8710021973-20.774017334-2.4539794922-31.1499938965-4.550994873-2.5859985352-.566986084-5.1679992676-1.1329956055-7.740020752-1.6969909668-2.574005127-.5589904785-5.1089782715-1.2510070801-7.6439819336-1.8659973145-5.0530090332-1.2359924316-10.1380004883-2.5820007324-15.0849914551-3.7109985352-19.8530273438-4.5559997559-38.2420043945-6.9460144043-51.6100158691-7.9190063477-6.683013916-.5320129395-12.1170043945-.7040100098-15.8739929199-.7940063477-3.757019043-.0780029297-5.841003418-.0520019531-5.841003418-.0520019531l-.0029907227.0390014648c-4.7850036621.0620117188-8.4860229492.7019958496-8.450012207,1.2760009766.0409851074.5460205078,3.6000061035.8030090332,8.2239990234.9320068359" fill="#1d1d1b"/>
    <path d="M261.1828918457,148.9575195312l.0010070801-.016998291-1.3290100098-.0249938965c-.2019958496-.0060119629-.3739929199-.0119934082-.5799865723-.0190124512-.0800170898.0029907227-.1450195312.0029907227-.2239990234.0039978027,0,0-1.7630004883,0-4.9980163574.0010070801-3.233001709.0589904785-7.9409942627.1409912109-13.8170013428.5270080566-11.7499847412.7009887695-28.203994751,2.5059814453-46.737991333,6.4010009766-2.31300354.5019836426-4.6629943848,1.0109863281-7.0450134277,1.5279846191-2.3669891357.5830078125-4.766998291,1.175994873-7.1940002441,1.774017334-2.4129943848.5969848633-4.8529968262,1.2009887695-7.316986084,1.8119812012-2.4559936523.5939941406-4.9200134277,1.2640075684-7.4389953613,1.7760009766-10.0209960938,2.2929992676-20.4590148926,4.1300048828-30.9820098877,5.3210144043-10.5229949951,1.1659851074-21.1369934082,1.6669921875-31.4329986572,1.2609863281-5.1479949951-.1959838867-10.2109985352-.6449890137-15.1199951172-1.3710021973-1.216003418-.174987793-2.4779968262-.3769836426-3.6350097656-.5789794922.0900115967.049987793-.4499969482-.2100219727-.7579956055-.4460144043-.3390045166-.2470092773-.6519927979-.5409851074-.9140014648-.8699951172-.2649993896-.3259887695-.4810028076-.6879882812-.6429901123-1.0610046387-.1590118408-.350982666-.2950134277-.8609924316-.5060119629-1.5299987793-.2089996338-.6470031738-.5119934082-1.5090026855-1.1510009766-2.3299865723-.7350006104-.9570007324-1.8049926758-1.6520080566-2.9729919434-1.8050231934-.2689971924-.0180053711-.4909973145-.0469970703-.7129974365-.0299987793-1.1809997559.0320129395-2.3030090332.641998291-3.1260070801,1.5270080566-.6969909668.7789916992-1.0800018311,1.5090026855-1.3899993896,2.3210144043-.0760040283.1979980469-.141998291.4119873047-.2010040283.6119995117l-.1349945068.5459899902c-.095993042.3639831543-.1450042725.7359924316-.2089996338,1.1059875488-.0939941406.7430114746-.1459960938,1.4940185547-.1139984131,2.2440185547.1139984131,2.9869995117,1.2050018311,5.9899902344,3.3099975586,8.333984375.512008667.5809936523,1.1020050049,1.1300048828,1.783996582,1.6220092773.8020019531.5619812012,1.4930114746.8529968262,2.171005249,1.1430053711.675994873.2789916992,1.3379974365.5130004883,2,.7279968262l.9989929199.3079833984.5190124512.1470031738c.3769989014.1029968262.5099945068.1000061035.6819915771.1390075684,2.675994873.450012207,5.328994751.7869873047,8.0319976807,1.0849914551,10.7870025635,1.1849975586,22.0080108643,1.5330200195,33.266998291,1.257019043,11.2590026855-.3320007324,22.5490112305-1.3840026855,33.4590148926-3.0950012207,2.7179870605-.483001709,5.4199829102-.9630126953,8.0979919434-1.4400024414,2.675994873-.4890136719,5.3020019531-1.1300048828,7.9140014648-1.6790161133,2.6380004883-.5569763184,5.1239929199-1.1799926758,7.6449890137-1.6739807129,2.5140075684-.507019043,5.0150146484-.9530029297,7.4860076904-1.3529968262,9.8950042725-1.5880126953,19.3099975586-2.5490112305,27.8059997559-3.2310180664,8.5-.6719970703,16.095993042-1.0310058594,22.4349975586-1.1879882812,6.3390045166-.158996582,11.4199981689-.1060180664,14.9060058594.0159912109,3.4869842529.1199951172,5.3790130615.2879943848,5.3790130615.2879943848.0769958496.0079956055.141998291.0160217285.2189941406.0249938965.2030029297.0130004883.3710021973.0250244141.5709838867.0380249023l1.3000183105.125v-.0180053711c2.2799987793.2039794922,4.2779846191.4199829102,5.6659851074.6659851074.6969909668.1210021973,1.2310180664.2530212402,1.6010131836.3690185547.3559875488.1159973145.5699768066.2460021973.7030029297.175994873.1219787598-.0469970703.0950012207-.4150085449-.2550048828-.8280029297-.342010498-.3959960938-.9280090332-.7860107422-1.6710205078-1.1199951172-1.4909973145-.6740112305-3.6189880371-1.1730041504-6.0130004883-1.483001709v-.0390014648s-2.2169799805-.2890014648-6.191986084-.5209960938c-3.9759979248-.233001709-9.7140045166-.3959960938-16.7729949951-.3170166016-7.0579986572.075012207-15.43800354.375-24.6959991455,1.0260009766-9.2560119629.6700134277-19.3970031738,1.632019043-29.9400024414,3.3980102539-2.6350097656.4429931641-5.2950134277.9540100098-7.9689941406,1.549987793-2.6270141602.5400085449-5.2750091553,1.0840148926-7.9380187988,1.6310119629-2.6549987793.574005127-5.3689880371.924987793-8.0659942627,1.4020080566-2.6959991455.4909973145-5.4309997559.7909851074-8.1559906006,1.1510009766-10.9130096436,1.3699951172-21.9400024414,2.0239868164-32.5559997559,2.0299987793-10.6130065918.0239868164-20.8300018311-.6289978027-30.0930023193-1.8070068359-1.1580047607-.1430053711-2.2969970703-.3049926758-3.4179992676-.4779968262-.5570068359-.0890197754-1.1110076904-.1780090332-1.6600036621-.2680053711l-.6190032959-.1090087891-.7539978027-.2239990234c-1.0030059814-.3129882812-2.0019989014-.6669921875-2.8070068359-1.0529785156-.1959991455-.0950012207-.3779907227-.1920166016-.5139923096-.2780151367-.1069946289-.0650024414-.2779998779-.1849975586-.425994873-.3089904785-.3010101318-.2490234375-.6060028076-.541015625-.8710021973-.8640136719-1.0899963379-1.2519836426-1.7680053711-2.8399963379-1.9929962158-4.4140014648-.1160125732-.7869873047-.125-1.5709838867-.0350036621-2.3190002441.0419921875-.3739929199.1149902344-.7380065918.2079925537-1.091003418.0820007324-.3389892578.1719970703-.5559997559.3010101318-.8020019531.0549926758-.0979919434.1119995117-.1929931641.1729888916-.2749938965.0299987793-.0399780273.0599975586-.0859985352.091003418-.1170043945.0229949951-.0260009766.0149993896-.0189819336.0149993896-.0189819336l.0030059814.0010070801c.0179901123.0619812012-.0850067139-.199005127.2129974365.384979248.2509918213.5160217285.4219970703,1.5820007324,1.0269927979,2.8450012207.5780029297,1.1929931641,1.4250030518,2.2520141602,2.4730072021,3.108001709.5269927979.4250183105,1.1069946289.7980041504,1.733001709,1.1040039062l.6210021973.3020019531c.2239990234.075012207.5349884033.0989990234.7200012207.1380004883l.7879943848.1310119629c4.2259979248.6999816895,8.7310028076,1.2229919434,13.421005249,1.5209960938,9.3839874268.6279907227,19.5279998779.4010009766,29.9279937744-.524017334,10.3970031738-.9700012207,21.0459899902-2.6649780273,31.5-4.8989868164,2.6050109863-.5989990234,5.2050018311-1.1970214844,7.7959899902-1.791015625,2.5930175781-.5820007324,5.1360168457-1.316986084,7.6860046387-1.9629821777,5.1119995117-1.3190002441,10.0140075684-2.6650085449,14.9110107422-3.8560180664,19.5409851074-4.7200012207,37.6879882812-7.2369995117,50.8789978027-8.2659912109,6.595993042-.5639953613,11.9559936523-.7430114746,15.658996582-.8479919434,3.7049865723-.0830078125,5.7529907227-.0599975586,5.7529907227-.0599975586l.0050048828-.0390014648c4.7180175781-.0590209961,8.375-.2539978027,8.4200134277-.808013916.0539855957-.5629882812-3.5150146484-1.2569885254-8.1780090332-1.3999938965" fill="#1d1d1b"/>
    <path d="M285.7148132324,156.9224243164l-.016998291-.0010070801.1010131836,1.9169921875c.0119934082.2920227051.0229797363.5400085449.0349731445.8370056152.0090026855.115020752.0150146484.2080078125.024017334.3229980469,0,0,.5180053711,10.2010192871,1.1359863281,27.2690124512.6300048828,17.0660095215,1.3980102539,40.9939880371,2.2140197754,68.4169921875.7819824219,27.4240112305,1.6619873047,58.342010498,2.5479736328,89.3920135498.4300231934,15.5249938965.8600158691,31.0819854736,1.2810058594,46.2529907227.2109985352,7.5850067139.4190063477,15.0729980469.6230163574,22.4109954834.0029907227.1369934082,0,.0500183105,0,.0840148926,0,0,.0019836426.0159912109-.0079956055.0119934082l-.016998291-.0020141602-.8090209961.0010070801c-1.8159790039.0060119629-3.6219787598.0110168457-5.4169921875.016998291-3.5899963379.0119934082-7.1359863281.0230102539-10.6300048828.0350036621-4.4459838867.0190124512-9.0050048828.0370178223-14.5090026855.0599975586h-.0010070801c1.3060302734-54.408996582,2.9080200195-121.1449890137,4.1890258789-174.5679931641.6940002441-26.8850097656,1.3629760742-50.4190063477,1.9849853516-67.3670043945.3110046387-8.4739990234.6090087891-15.3020019531.8999938965-20.0679931641.0820007324-1.1879882812.1549987793-2.2489929199.2190246582-3.1770019531.0399780273-.4590148926.0769958496-.8869934082.1109924316-1.2799987793.0279846191-.2720031738.0549926758-.5190124512.0780029297-.7430114746.0220031738-.1789855957.0439758301-.341003418.0749816895-.4809875488.0150146484-.0690002441.0299987793-.1360168457.0620117188-.1889953613.0419921875-.0450134277.1109924316-.0140075684.157989502-.024017334.2040100098-.0039978027.3280029297-.0059814453.3680114746-.0069885254h.3939819336c.075012207.0409851074.0780029297.0419921875.0780029297.0419921875.0530090332.033996582.0980224609.0630187988.1520080566.0960083008.1889953613.1090087891.4949951172.2579956055.7569885254.3859863281.6210021973.2990112305,1.2650146484.5530090332,1.9230041504.7590026855l.0030212402-.0180053711c3.5019836426,1.074005127,6.8280029297.4320068359,8.8280029297-.5229797363,1.0019836426-.4609985352,1.7899780273-1.0160217285,2.1669921875-1.3840026855.1879882812-.2470092773.424987793-.199005127.5610046387-.2959899902.1439819336-.0660095215.2289733887-.133026123.2289733887-.2020263672,0-.0719909668-.0879821777-.1399841309-.275970459-.2070007324-.1800231934-.0309753418-.4980163574-.2319946289-.8280029297-.0269775391-.3900146484.1629943848-.6870117188.2529907227-1.0890197754.3909912109-.3939819336.1300048828-.8450012207.2640075684-1.3429870605.3900146484-1.9750061035.509979248-4.899017334.75-7.8479919434-.3380126953l.0069885254-.0379943848s-.0110168457.0059814453-.433013916-.1600036621c-.2129821777-.0809936523-.5260009766-.2120056152-.9789733887-.4349975586-.2590026855-.1350097656-.3790283203-.1849975586-.9780273438-.5440063477-.134979248-.050994873-.2449951172-.2090148926-.4140014648-.1799926758h-1.8399963379c-.0629882812.0149841309-.358001709.0830078125-.8719787598.2019958496-.1220092773.0480041504-.2890014648.0220031738-.4110107422.1399841309-.1109924316.1200256348-.2009887695.2550048828-.2869873047.4219970703-.1770019531.3260192871-.2970275879.7950134277-.383026123,1.3460083008-.0459899902.2730102539-.083984375.575012207-.1189880371.8710021973-.0239868164.2210083008-.050994873.4530029297-.0780029297.6960144043-.0419921875.4400024414-.0889892578.9179992676-.1390075684,1.4349975586-.0799865723,1.0260009766-.1729736328,2.2019958496-.2760009766,3.5199890137-.3729858398,5.2640075684-.7739868164,12.782989502-1.2059936523,22.0419921875-.8609924316,18.5200195312-1.8320007324,43.9930114746-2.8110046387,72.2040100098-.908996582,28.2130126953-1.9059753418,59.1619873047-2.8559875488,88.6260070801-.8510131836,29.8849945068-1.658996582,58.2639923096-2.3020019531,80.8540039062.4349975586.4549865723.8630065918.9010009766,1.1149902344,1.1649780273.4410095215.4520263672.875.8960266113,1.1270141602,1.1540222168,4.9609985352-.0160217285,8.8880004883-.0290222168,12.6090087891-.041015625,5.3289794922-.0239868164,11.0959777832-.0480041504,17.2239990234-.0729980469,1.8059997559-.0090026855,3.6380004883-.0180053711,5.4960021973-.0279846191.7869873047-.0030212402,1.5759887695-.007019043,2.367980957-.0110168457.1860046387-.0130004883.4250183105.0260009766.5670166016-.0299987793l-.0180053711-.5960083008-.0360107422-1.1940002441c-.0379943848-1.258972168-.0759887695-2.5260009766-.1149902344-3.800994873-.1000061035-3.2329864502-.2030029297-6.5479888916-.3089904785-9.9349975586-.4450073242-13.5439910889-.9280090332-28.2309875488-1.4290161133-43.4599914551-1.0379943848-30.4550018311-2.2179870605-63.0700073242-3.3810119629-93.0180053711-1.1599731445-29.950012207-2.3089904785-57.233001709-3.2529907227-77.0299987793-.4700012207-9.8980102539-.8890075684-17.9230041504-1.2059936523-23.4760131836-.3370056152-5.5539855957-.5260009766-8.6319885254-.5260009766-8.6319885254l-.0379943848-.0019836426c-.2560119629-3.4470214844-.6040039062-6.5-1.0039978027-8.6900024414-.200012207-1.0940246582-.4129943848-1.9720153809-.6360168457-2.5780029297-.1119995117-.3030090332-.2250061035-.5370178223-.3459777832-.7010192871-.0650024414-.0869750977-.1190185547-.1459960938-.2100219727-.2109985352-.0419921875-.0269775391-.0870056152-.049987793-.1609802246-.0589904785-.0570068359-.0010070801-.0770263672.0199890137-.0770263672.0369873047.075012207.0710144043.0890197754.2020263672.0559997559.3500061035-.0179748535.1600036621-.033996582.3880004883-.0459899902.6840209961-.0270080566.5919799805-.0390014648,1.4479980469-.033996582,2.5149841309.0069885254,2.1329956055.0790100098,5.108001709.233001709,8.4700012207" fill="#1d1d1b"/>
    <path d="M285.816192627,115.3960266113l.016998291-.0020141602-.0149841309-.2169799805c-.0020141602-.0330200195.0049743652-.0620117188-.0010070801-.0950012207l-.0110168457-.0350036621s-.0799865723-1.1470031738-.4469909668-2.9689941406c-.3609924316-1.8260192871-.9859924316-4.3359985352-1.9519958496-7.158996582-.4909973145-1.4130249023-1.0469970703-2.8980102539-1.8070068359-4.4420166016l-.1529846191-.3039855957-.2600097656-.4530029297c-.1629943848-.3059997559-.3720092773-.6019897461-.5759887695-.9030151367-.4179992676-.5789794922-.8880004883-1.1239929199-1.4309997559-1.4189758301-.266998291-.1640014648-.5559997559-.2380065918-.8600158691-.3110046387-.3139953613-.1119995117-.6539916992-.0370178223-.9530029297.0139770508-.6099853516.1000061035-1.1609802246.4609985352-1.6789855957.9430236816-.5100097656.4859924316-.9890136719,1.1489868164-1.3699951172,1.7559814453-.241027832.3640136719-.291015625.4700012207-.4250183105.6880187988l-.3309936523.5829772949c-.424987793.7750244141-.800994873,1.5470275879-1.1520080566,2.3130187988-.6940002441,1.5319824219-1.2770080566,3.0429992676-1.7699890137,4.4949951172-.4890136719,1.4540100098-.949005127,3.0350036621-1.3120117188,4.7449951172-.1789855957.858001709-.3379821777,1.7420043945-.4349975586,2.7050170898-.0480041504.4719848633-.0769958496,1.0039978027-.0599975586,1.5469970703.0280151367.5209960938.0650024414,1.0419921875.1610107422,1.5579833984.3429870605,2.0679931641,1.3020019531,4.0590209961,2.7709960938,5.5639953613,1.4400024414,1.5270080566,3.4899902344,2.4760131836,5.4679870605,2.5720214844,1.9810180664.1109924316,3.8000183105-.5940246582,5.0450134277-1.5620117188,1.266998291-.966003418,2.066986084-2.1130065918,2.5599975586-3.1119995117.5090026855-1.0010070801.6979980469-1.8720092773.8370056152-2.4549865723.0950012207-.5960083008.1380004883-.9179992676.1380004883-.9179992676l.009979248-.0380249023c.0039978027-.033996582-.0039978027-.0650024414,0-.0989990234l.0150146484-.2249755859-.016998291-.0020141602c.0119934082-.8020019531-.4630126953-1.3949890137-1.0020141602-1.3819885254-.5829772949.0090026855-1.0019836426.5189819336-1.191986084,1.1210021973l-.0379943848-.0040283203s-.0380249023.291015625-.1849975586.7890014648c-.1500244141.4950256348-.3910217285,1.2150268555-.883026123,1.9690246582-.4899902344.7460021973-1.2189941406,1.5439758301-2.1819763184,2.0579833984-.9530029297.5130004883-2.1380004883.7220153809-3.2720031738.4140014648-1.1230163574-.2959899902-2.1860046387-1.0719909668-2.9010009766-2.1669921875-.7200012207-1.0870056152-1.1090087891-2.4169921875-1.132019043-3.7070007324-.0479736328-1.1860046387.3229980469-2.6740112305.6530151367-3.9890136719.3550109863-1.3259887695.7359924316-2.5429992676,1.0809936523-3.5709838867.6900024414-2.0299987793,1.6279907227-4.8590087891,2.9559936523-7.4410095215.0980224609-.1969909668.0700073242-.1619873047.0850219727-.208984375.0090026855-.0330200195.0220031738-.0710144043.0449829102-.1100158691.0549926758-.100982666.1450195312-.0520019531.2109985352-.0010070801.0429992676.0380249023.0549926758.0230102539.166015625.1920166016.1959838867.3200073242.3859863281.6499938965.5709838867.9869995117.3710021973.6739807129.7189941406,1.3710021973,1.0460205078,2.0610046387,1.3089904785,2.7709960938,2.300994873,5.4360046387,2.9129943848,7.3649902344.617980957,1.9379882812.8209838867,3.1210021973.8209838867,3.1210021973l.0390014648-.0050048828c.1860046387.6440124512.6280212402,1.108001709,1.1979980469,1.1270141602.5530090332.016998291.9990234375-.6060180664.9970092773-1.3810119629" fill="#1d1d1b"/>
    <path d="M284.3049926758,123.6199035645l-.0090026855.0140075684c.0700073242.0469970703.1409912109.0889892578.2050170898.1430053711l.0829772949.0729980469.0370178223.0199890137s.0659790039.050994873.1929931641.1470031738c.1260070801.0969848633.316986084.2349853516.5400085449.4429931641.4679870605.3860168457,1.0939941406,1.0180053711,1.7569885254,1.8880004883.6560058594.8730163574,1.3210144043,2.016998291,1.7850036621,3.3970031738.4379882812,1.3829956055.7049865723,2.9979858398.5249938965,4.6960144043-.1539916992,1.6869812012-.6709899902,3.4429931641-1.6409912109,4.9939880371-.9750061035,1.5350036621-2.2990112305,2.9270019531-3.916015625,3.8370056152-3.1889953613,1.9440002441-7.2439880371,1.9279785156-10.1959838867.6019897461-.8850097656-.4020080566-1.7579956055-.925994873-2.5849914551-1.5709838867-.8030090332-.6740112305-1.5490112305-1.4620056152-2.1870117188-2.358001709-1.2440185547-1.8130187988-1.9880065918-4.0599975586-1.9880065918-6.3500061035-.0199890137-2.283996582.6940002441-4.5289916992,1.9010009766-6.324005127,1.0629882812-1.7399902344,3.3299865723-3.4060058594,3.4700012207-3.3810119629.0870056152.0970153809.1780090332.1760253906.2969970703.2750244141l.3439941406.2779846191c.1700134277.1440124512.3550109863.266998291.5310058594.3949890137.7269897461.483001709,1.4880065918.8400268555,2.2399902344,1.0490112305,1.5100097656.425994873,2.8940124512.3059997559,3.9320068359.0110168457,1.0469970703-.2950134277,1.766998291-.7380065918,2.2250061035-1.0530090332.4540100098-.3229980469.6669921875-.5230102539.6669921875-.5230102539l.0450134277-.0279846191c.0390014648-.0290222168.0599975586-.0650024414.0950012207-.0960083008l.2229919434-.2109985352-.0109863281-.0130004883c.7399902344-.8130187988.8129882812-1.7440185547.3559875488-2.0469970703-.4750061035-.3190002441-1.2080078125-.0220031738-1.8619995117.4289855957l-.0260009766-.0279846191c-.0130004883-.0350036621-.2879943848.3670043945-1.467010498.8949890137-.5869750977.2399902344-1.4369812012.4689941406-2.5449829102.3110046387-.5480041504-.0870056152-1.1499938965-.2770080566-1.7610168457-.6440124512-.3059997559-.1799926758-.6119995117-.4059753418-.907989502-.6809997559-.4630126953-.4140014648-1.0780029297-1.2689819336-1.6199951172-1.9869995117-.5469970703.1480102539-1.5130004883.625-2.699005127,1.2420043945-.3510131836.1770019531-.4960021973.3000183105-.7200012207.4320068359-.2149963379.1329956055-.4379882812.2749938965-.6560058594.4440002441-.4519958496.316986084-.907989502.7009887695-1.3819885254,1.125-1.8730163574,1.6979980469-3.7120056152,4.4700012207-4.375,7.8290100098-.7189941406,3.3289794922-.1180114746,7.1129760742,1.5299987793,10.1189880371,1.6340026855,3.0280151367,4.2229919434,5.1780090332,6.532989502,6.2799987793,1.5690002441.7820129395,3.5729980469,1.3930053711,5.8020019531,1.4949951172,2.217010498.1069946289,4.6719970703-.2739868164,6.9450073242-1.3139953613,2.2539978027-1.0570068359,4.3569946289-2.6679992676,5.8429870605-4.7420043945,1.5180053711-2.0429992676,2.483001709-4.4580078125,2.7750244141-6.8429870605l.1059875488-.8860168457c.0069885254-.2949829102.0150146484-.5889892578.0230102539-.8809814453.0319824219-.5809936523-.0260009766-1.1540222168-.0610046387-1.7140197754-.1260070801-1.1210021973-.3680114746-2.1829833984-.6860046387-3.1649780273-.6789855957-1.9530029297-1.6610107422-3.5570068359-2.6730041504-4.7270202637-1.0059814453-1.1779785156-1.9819946289-1.9700012207-2.6860046387-2.4639892578-.7109985352-.4859924316-1.125-.7200012207-1.125-.7200012207l-.0209960938.0320129395c-.9620056152-.4880065918-1.9010009766-.3890075684-2.1159973145.117980957-.2269897461.5249938965.233001709,1.1889953613.9140014648,1.7380065918" fill="#1d1d1b"/>
    <path d="M502.5187988281,332.040512085l-.016998291-.0039978027c-.0469970703.2539978027-.1109924316.5039978027-.1910095215.75-.0359802246.112991333-.0659790039.2079925537-.1040039062.3229980469-.0090026855.0449981689-.0179748535.0829925537-.0289916992.1280059814,0,0-.0729980469.2459869385-.2129821777.720993042-.1710205078.4629974365-.4070129395,1.1569976807-.7840270996,2.0249938965-.7389831543,1.7400054932-2.0849914551,4.1860046387-4.3219909668,6.8450012207-2.2250061035,2.6600036621-5.3970031738,5.4629974365-9.4010009766,7.9869995117-4.0220031738,2.4940032959-8.8529968262,4.728012085-14.2640075684,6.3490142822-10.800994873,3.2879943848-23.8659973145,4.203994751-36.4479980469,2.0469970703-6.2789916992-1.0850067139-12.4329833984-2.9420013428-17.9979858398-5.5940093994-5.558013916-2.6409912109-10.5440063477-6.1009979248-14.2340087891-10.2129974365-1.9970092773-2.2099914551-3.7879943848-4.7529907227-5.0379943848-7.6900024414-.6170043945-1.4680023193-1.1459960938-3.0179901123-1.425994873-4.6629943848-.0390014648-.1930084229-.0790100098-.3890075684-.1199951172-.5890045166-.0060119629-.0229949951-.0090026855-.0249938965.009979248-.0200042725l.0180053711-.0029907227.6199951172.0890045166c.7350158691.1029968262,1.4630126953.1879882812,2.1900024414.2639923096,1.4540100098.1529998779,2.9020080566.2689971924,4.3570251465.3730010986,2.9069824219.2030029297,5.8309936523.3480072021,8.7649841309.4629974365,5.8659973145.2299957275,11.766998291.3440093994,17.5799865723.3950042725,11.6240234375.0979919434,22.8870239258-.0579986572,32.741027832-.341003418,9.8559875488-.2830047607,18.2979736328-.7099914551,24.2779846191-1.1389923096,5.9790039062-.4190063477,9.5019836426-.8690032959,9.5019836426-.8690032959.0480041504-.0030059814.0890197754-.0050048828.1380004883-.0090026855.125-.0180053711.2300109863-.033996582.3530273438-.050994873l.8139953613-.1060028076-.0039978027-.0180053711c1.4219970703-.2220001221,2.674987793-.5520019531,3.5529785156-.9700012207.4370117188-.2099914551.7830200195-.4339904785.9860229492-.6929931641.0979919434-.1230010986.1609802246-.2680053711.1429748535-.3730010986-.0209960938-.1100006104-.100982666-.1300048828-.1649780273-.1269989014-.0670166016-.0039978027-.0140075684.0179901123-.1270141602-.0370025635-.1619873047-.1289978027-.1309814453-.1139984131-.2539978027-.1430053711-.1889953613-.0299987793-.5379943848-.0309906006-.9719848633-.0260009766-.8740234375.0160064697-2.1340026855.0700073242-3.5570068359.1910095215l-.0060119629-.0380096436s-3.716003418.4150085449-10.032989502.6980133057c-6.3099975586.2989959717-15.1820068359.5209960938-25.3560180664.5699920654-10.174987793.050994873-21.6549682617-.0520019531-33.174987793-.3829956055-5.7590026855-.1660003662-11.5289916992-.387008667-17.1400146484-.7050018311-2.8039855957-.1600036621-5.5709838867-.3439941406-8.2630004883-.5760040283-1.3449707031-.1170043945-2.6729736328-.2469940186-3.9649658203-.4019927979-.6460266113-.0770111084-1.2840270996-.1620025635-1.9020080566-.2580108643l-.5379943848-.0889892578c-.3090209961-.0570068359-.6090087891-.1009979248-.9320068359-.1809997559-.1560058594-.0250091553-.3270263672-.0989990234-.4689941406-.0830078125l-.3489990234.3020019531-.0870056152.0760040283-.0429992676.0370025635c-.0180053711.004989624-.0520019531-.0449981689-.0770263672-.0650024414l-.3279724121-.3229980469-.6889953613-.6829986572c-.8200073242-.1650085449-1.4210205078.0759887695-1.4780273438.3499908447.0020141602.0220031738-.0139770508.0550079346.0090026855.0610046387-.0159912109.0379943848.1090087891-.0480041504.0450134277.0319976807l-.1409912109.3899993896-.2820129395.783996582c-.6050109863.8140106201-.1999816895,2.6730041504-.1239929199,4.1979980469.0149841309.233001709.0369873047.3150024414.0589904785.4300079346l.0630187988.3370056152.1289672852.6739959717c.0770263672.4519958496.1790161133.8959960938.3070068359,1.3320007324l.365020752,1.3099975586.4469909668,1.2680053711c1.2269897461,3.3649902344,3.1119995117,6.2559967041,5.0130004883,8.6159973145,3.0209960938,3.7200012207,7.2879943848,7.3259887695,12.449005127,10.2729949951,5.1539916992,2.9649963379,11.1799926758,5.2870025635,17.600982666,6.800994873,12.8520202637,3.0560150146,27.2550048828,2.853012085,39.7680053711-.4239959717,6.2560119629-1.6230010986,12.0390014648-3.9779968262,16.9080200195-6.8690032959,4.875-2.8759918213,8.8389892578-6.25,11.6299743652-9.5839996338,2.7980041504-3.3359985352,4.4519958496-6.5429992676,5.2950134277-8.8519897461.2009887695-.5830078125.3800048828-1.1000061035.5350036621-1.5480041504.1219787598-.4589996338.225982666-.8480072021.3099975586-1.1629943848.1770019531-.625.233001709-.9640045166.233001709-.9640045166l-.0379943848-.0100097656c.266998291-1.3899993896.2909851074-2.6659851074.2030029297-3.6119995117-.133026123-.9499969482-.3340148926-1.5679931641-.5800170898-1.7119903564l-.2649841309-.2630004883c-.0490112305.0410003662-.0620117188.0839996338-.0620117188.1269989014,0,.0440063477.0140075684.0870056152.0620117188.1289978027l.008972168.0070037842h-.0009765625c-.524017334.2949981689-.8510131836,2.2939910889-1.4970092773,4.7129974365" fill="#1d1d1b"/>
    <path d="M158.349105835,332.040512085l-.016998291-.0039978027c-.0469970703.2539978027-.1110076904.5039978027-.1909942627.75-.0360107422.112991333-.0670013428.2079925537-.1040039062.3229980469-.0090026855.0449981689-.0180053711.0829925537-.029006958.1280059814,0,0-.0729980469.2459869385-.2139892578.720993042-.1700134277.4629974365-.4060058594,1.1569976807-.7830047607,2.0249938965-.7389984131,1.7400054932-2.0850067139,4.1860046387-4.3220062256,6.8450012207-2.2249908447,2.6600036621-5.3970031738,5.4629974365-9.4010009766,7.9869995117-4.021987915,2.4940032959-8.8519897461,4.728012085-14.2639923096,6.3490142822-10.8010025024,3.2879943848-23.8660049438,4.203994751-36.4480056763,2.0469970703-6.2789993286-1.0850067139-12.4329986572-2.9420013428-17.9980010986-5.5940093994-5.5579986572-2.6409912109-10.5439987183-6.1009979248-14.2339935303-10.2129974365-1.9970016479-2.2099914551-3.7870025635-4.7529907227-5.0380020142-7.6900024414-.6170043945-1.4680023193-1.1460037231-3.0179901123-1.4260025024-4.6629943848-.0390014648-.1930084229-.078994751-.3890075684-.1199951172-.5890045166-.0060043335-.0229949951-.0090026855-.0249938965.0099945068-.0200042725l.0180053711-.0029907227.6199951172.0890045166c.7350006104.1029968262,1.4630050659.1879882812,2.1900024414.2639923096,1.4530029297.1529998779,2.9020004272.2689971924,4.3570022583.3730010986,2.9069976807.2030029297,5.8309936523.3480072021,8.7649993896.4629974365,5.8649978638.2299957275,11.766998291.3440093994,17.5799942017.3950042725,11.6240005493.0979919434,22.8870010376-.0579986572,32.7410049438-.341003418,9.8560028076-.2830047607,18.2980041504-.7099914551,24.2779998779-1.1389923096,5.9790039062-.4190063477,9.5019989014-.8690032959,9.5019989014-.8690032959.0480041504-.0030059814.0890045166-.0050048828.1380004883-.0090026855.125-.0180053711.2299957275-.033996582.3529968262-.050994873l.8139953613-.1060028076-.0039978027-.0180053711c1.4220123291-.2220001221,2.6750030518-.5520019531,3.5530090332-.9700012207.43699646-.2099914551.782989502-.4339904785.9859924316-.6929931641.0980072021-.1230010986.1600036621-.2680053711.1430053711-.3730010986-.0209960938-.1100006104-.1009979248-.1300048828-.1650085449-.1269989014-.066986084-.0039978027-.0139923096.0179901123-.1269989014-.0370025635-.1619873047-.1289978027-.1309967041-.1139984131-.2539978027-.1430053711-.1889953613-.0299987793-.5379943848-.0309906006-.9720001221-.0260009766-.8739929199.0160064697-2.1349945068.0700073242-3.5569915771.1910095215l-.0060119629-.0380096436s-3.7159881592.4150085449-10.032989502.6980133057c-6.3099975586.2989959717-15.1820068359.5209960938-25.3560028076.5699920654-10.1750030518.050994873-21.6549987793-.0520019531-33.1750030518-.3829956055-5.7589950562-.1660003662-11.5289993286-.387008667-17.1399993896-.7050018311-2.8059997559-.1600036621-5.5709991455-.3439941406-8.2630004883-.5760040283-1.3450012207-.1170043945-2.672996521-.2469940186-3.9649963379-.4019927979-.6460037231-.0770111084-1.2840042114-.1620025635-1.9020004272-.2580108643l-.5380020142-.0889892578c-.3089981079-.0570068359-.6090011597-.1009979248-.9329986572-.1809997559-.1549987793-.0250091553-.3260040283-.0989990234-.4680023193-.0830078125l-.3489990234.3020019531-.0869979858.0760040283-.0429992676.0370025635c-.0180053711.004989624-.0530014038-.0449981689-.077003479-.0650024414l-.3279953003-.3229980469-.6890029907-.6829986572c-.8209991455-.1650085449-1.4209976196.0759887695-1.4779968262.3499908447.0019989014.0220031738-.013999939.0550079346.0089950562.0610046387-.0159988403.0379943848.1090011597-.0480041504.0449981689.0319976807l-.1409988403.3899993896-.2819976807.783996582c-.6050033569.8140106201-.1999969482,2.6730041504-.1240005493,4.1979980469.0130004883.233001709.0370025635.3150024414.0589981079.4300079346l.06300354.3370056152.1289978027.6739959717c.077003479.4519958496.1790008545.8959960938.3069992065,1.3320007324l.3650054932,1.3099975586.4469985962,1.2680053711c1.2269973755,3.3649902344,3.1119995117,6.2559967041,5.0130004883,8.6159973145,3.0199966431,3.7200012207,7.2879943848,7.3259887695,12.4489974976,10.2729949951,5.1539993286,2.9649963379,11.1780014038,5.2870025635,17.6009979248,6.800994873,12.8519973755,3.0560150146,27.2549972534,2.853012085,39.7679977417-.4239959717,6.2559967041-1.6230010986,12.0390014648-3.9779968262,16.9080047607-6.8690032959,4.875-2.8759918213,8.8390045166-6.25,11.6300048828-9.5839996338,2.7979888916-3.3359985352,4.4519958496-6.5429992676,5.2949981689-8.8519897461.2010040283-.5830078125.379989624-1.1000061035.5350036621-1.5480041504.1219940186-.4589996338.2259979248-.8480072021.3099975586-1.1629943848.1770019531-.625.233001709-.9640045166.233001709-.9640045166l-.0380096436-.0100097656c.266998291-1.3899993896.2910003662-2.6659851074.2030029297-3.6119995117-.1329956055-.9499969482-.3339996338-1.5679931641-.5800018311-1.7119903564l-.2649993896-.2630004883c-.0489959717.0410003662-.06199646.0839996338-.06199646.1269989014,0,.0440063477.0139923096.0870056152.06199646.1289978027l.0090026855.0070037842h-.0010070801c-.5239868164.2949981689-.8509979248,2.2939910889-1.4969940186,4.7129974365" fill="#1d1d1b"/>
  </g>
</svg>