<?xml version="1.0" encoding="UTF-8"?>
<svg id="Ebene_1" data-name="Ebene 1" xmlns="http://www.w3.org/2000/svg" xmlns:xlink="http://www.w3.org/1999/xlink" viewBox="0 0 566.9291338583 566.9291338583">
  <defs>
    <clipPath id="clippath">
      <rect x="36.4645669291" y="136.4645669291" width="493.5849609375" height="295.3609924316" fill="none"/>
    </clipPath>
    <clipPath id="clippath-1">
      <rect x="36.4645669291" y="136.4645669291" width="493.5849609375" height="295.3609924316" fill="none"/>
    </clipPath>
  </defs>
  <g clip-path="url(#clippath)">
    <path d="M436.6105630229,169.0067422221c-1.492980957-12.7911987305-14.4020080566-17.9881896973-20.1690063477-27.9401550293-.9129943848.3045349121-1.8369750977.6090698242-2.7509765625.9136352539-22.0160217285-11.0817871094-46.6260070801,10.5218200684-44.7490234375,33.4516296387-7.6340026855,1.0118103027-16.1809997559,1.7486877441-22.1049804688,7.4565124512-15.1090087891,13.537902832-9.4310302734,35.6620788574.8259887695,50.0939025879-13.5190124512,3.1831054688-26.5160217285,12.9582824707-28.599029541,27.4982910156-2.4259643555,11.592010498,5.2560424805,22.8709716797,16.0630187988,26.7319946289-.8939819336,27.3110046387,35.3670043945,27.0749969482,50.0739746094,12.0540161133-4.400970459-1.0610351562-8.6159667969-3.5270080566-10.4429626465-7.8690185547,4.8039855957-3.8020019531,4.6960144043-11.1900024414,4.4010009766-16.8779907227-.7860107422-.8550109863-1.5719909668-1.7100219727-2.3680114746-2.5549926758,2.3980102539-5.6880187988,11.7900085449-6.9260253906,12.0350036621-14.3430175781-1.2079772949-5.0690002441-5.5899963379-8.4880065918-8.4190063477-12.6539916992,6.6710205078-2.3870239258,12.2309875488,7.0350036621,17.8600158691,10.3850097656,3.9099731445-3.5170288086,25.341003418,1.3429870605,34.4580078125,13.2209777832.2359924316-17.6639709473,11.6380004883-52.2138977051,7.1189575195-46.1719970703,8.83203125,3.1340026855,15.0900268555-4.4111022949,16.7890319824-12.2114868164,9.1560058594-15.7973937988,2.6130065918-45.3388977051-20.0220031738-41.1833190918h0Z" fill="#8abd24"/>
    <path d="M498.3565652201,223.0106484721c-2.6629943848-5.6293029785-6.3659973145-10.6395874023-11.9760131836-13.6359863281,11.2290039062-19.6878051758-5.2559509277-47.2350158691-28.274017334-45.4667053223-2.6919555664-18.6169433594-24.3539733887-32.6852416992-41.6649780273-22.8413696289,5.766998291,9.951965332,18.6760253906,15.1489562988,20.1690063477,27.9401550293,22.6350097656-4.1555786133,29.1780090332,25.385925293,20.0220031738,41.1833190918-1.699005127,7.8003845215-7.9570007324,15.345489502-16.7890319824,12.2114868164-14.3339538574,11.6221008301-19.343963623,30.1900024414-13.8329772949,47.7260131836,5.3940124512,5.8459777832,13.134979248,8.9400024414,21.0930480957,8.3209838867,1.7779541016-.3039855957,2.7009277344,1.0710144043,3.1829223633,2.5550231934,1.2870483398.5109863281,2.5840454102,1.0209960938,3.9100341797,1.4629821777.9039916992.2270202637,1.8170166016.4430236816,2.7409667969.649017334l.8840332031.2359619141c4.0280151367,3.3600158691,8.8909912109,5.5900268555,14.0679931641,6.4640197754,1.3170166016.3340148926,2.6230163574.7660217285,3.8710021973,1.3260192871,1.2770080566.6289978027,2.25,1.7789916992,3.5660095215,2.3379821777,12.8599853516,11.0719909668,36.7630004883.1969909668,35.8200073242-17.1719970703-1.9459838867-6.4649963379,6.708984375-7.3880004883,8.9199829102-12.4280090332,13.242980957-17.2609863281-3.7330322266-46.5571899414-25.7099914551-40.8688964844h0Z" fill="#008939"/>
    <path d="M406.0085732768,241.7945535014c11.1409912109,6.6409912109,12.2109985352,20.0419921875,9.175994873,31.4970092773-2.4370117188,2.4069824219-4.9320068359,4.9609680176-8.2630004883,6.0909729004-1.5220031738-.0199890137-3.0350036621-.009979248-4.558013916.1080322266-.0880126953.5299682617-.2749938965,1.5809936523-.3629760742,2.1119995117-.9240112305,6.4449768066-6.632019043,10.3549804688-11.9960327148,13.0469970703-.7369689941,1.0310058594-1.4149780273,2.1119995117-2.1419677734,3.1529846191-.8050231934.6189880371-1.6889953613,1.100982666-2.6620483398,1.4640197754-4.400970459-1.0610351562-8.6159667969-3.5270080566-10.4429626465-7.8690185547,4.8039855957-3.8020019531,4.6960144043-11.1900024414,4.4010009766-16.8779907227-.7860107422-.8550109863-1.5719909668-1.7100219727-2.3670349121-2.5549926758,2.3970336914-5.6880187988,11.7890319824-6.9260253906,12.0340270996-14.3430175781-1.2079772949-5.0690002441-5.5899963379-8.4880065918-8.4190063477-12.6539916992,6.6710205078-2.3870239258,12.2309875488,7.0350036621,17.8600158691,10.3850097656,3.9099731445-3.5170288086,10.6399841309-7.3779907227,7.7420043945-13.558013916h0Z" fill="#008939"/>
    <path d="M502.9665810893,223.9161660502c6.1549987793-.2857055664,12.1759643555,2.5079956055,16.4229736328,6.9512023926,2.1560058594,2.1992797852,3.9379882812,4.771270752,5.2520141602,7.5611877441,1.333984375,2.7779846191,2.2299804688,5.7680053711,2.5650024414,8.8120117188.208984375,1.5179748535.1910400391,3.049987793.1309814453,4.5679931641-.1510009766,1.509979248-.3389892578,3.0229797363-.7780151367,4.4700012207-.3729858398,1.466003418-.9849853516,2.850982666-1.6459350586,4.199005127-.3970336914.6380004883-.7220458984,1.3209838867-1.1710205078,1.924987793l-.6540527344.9200134277-.2119750977.299987793c-.0629882812.092010498-.1049804688.1730041504-.1539916992.2619934082l-.0939941406.1730041504-.2239990234.4070129395c-.6539916992,1.0749816895-1.8189697266,1.9889831543-3.0729980469,2.8930053711-1.2590332031.924987793-2.6860351562,1.775970459-4.0110473633,3.134979248-.3189697266.3659973145-.6549682617.6970214844-.9239501953,1.1499938965-.1360473633.2200012207-.291015625.4179992676-.4030151367.658996582l-.3150024414.7380065918c-.2079467773.4909973145-.2630004883,1.0480041504-.3569946289,1.5719909668.0109863281.5150146484-.0310058594,1.0679931641.0650024414,1.5540161133l.1480102539.7290039062c.0289916992.1059875488.0350341797.1099853516.0319824219.2890014648l.0020141602,1.0999755859c-.0549926758.7290344238-.075012207,1.4650268555-.2290039062,2.1800231934-.9550170898,5.8110046387-5.233001709,10.7600097656-10.5320129395,13.4979858398-5.2779846191,2.7779846191-11.7189941406,3.6040039062-17.1620178223,1.5859985352-1.3460083008-.5139770508-2.6369628906-1.1639709473-3.7979736328-2.0049743652-.2980041504-.199005127-.5629882812-.4430236816-.8469848633-.6610107422l-.2550048828-.2040100098c-.1920166016-.1389770508-.291015625-.2489929199-.450012207-.3359985352l-.225982666-.1050109863-.1130065918-.0529785156-.0440063477-.0239868164-.1719970703-.0960083008c-.4750366211-.2760009766-1.0350036621-.7610168457-1.7789916992-1.3130187988-.3870239258-.2799987793-.7700195312-.5459899902-1.3290405273-.8269958496-.4779663086-.2219848633-.8289794922-.3659973145-1.2539672852-.533996582-.8160400391-.3190002441-1.6440124512-.5899963379-2.4750061035-.824005127-.2420043945-.0599975586-.3209838867-.1040039062-.7730102539-.191986084l-.550994873-.108001709c-.367980957-.0660095215-.7299804688-.1629943848-1.0959777832-.2420043945-.7250061035-.1849975586-1.447052002-.3829956055-2.1549987793-.6239929199-2.841003418-.9400024414-5.5200195312-2.3489990234-7.9000244141-4.1440124512-.3099975586-.2359924316-.5639648438-.4270019531-.9069824219-.7149963379l-.4340209961-.3519897461c-.1449890137-.1180114746-.2789916992-.2560119629-.4739990234-.2760009766l-.9609985352-.2610168457-2.3430175781-.5799865723-.4869384766-.1199951172-.4810180664-.1849975586-1.092010498-.4200134277-1.092010498-.4190063477c-.158996582-.0639953613-.1329956055-.050994873-.1889953613-.083984375l-.0190124512-.0620117188.0060119629.0030212402-.1690368652-.3370056152c-.2599487305-.4770202637-.5939941406-.9770202637-1.0849609375-1.4460144043-.4819946289-.466003418-1.1520385742-.8840026855-1.8859863281-1.0870056152-.7330322266-.2099914551-1.4680175781-.2059936523-2.092010498-.1040039062l.2049865723-.025970459c-4.2349853516.2749938965-8.5349731445-.5730285645-12.2959594727-2.5140075684-1.8840332031-.9570007324-3.6460266113-2.1580200195-5.1990356445-3.5880126953-.3880004883-.3590087891-.7779846191-.7139892578-1.1340026855-1.1049804688l-.0989990234-.1040039062-.0059814453-.0130310059-.0120239258-.059967041-.1519775391-.591003418-1.783996582-6.858001709-3.4110107422,3.074005127c-.5700378418.5079650879-1.1430053711.9949951172-1.7210083008,1.4479980469l-.4339904785.3459777832-.3210144043.2420043945-.4179992676.3059997559c-1.7749938965,1.3059997559-3.6669921875,2.4479980469-5.6429748535,3.4170227051l-1.0440368652.5109863281-.2869873047,1.1389770508-.0369873047.1459960938-.2919921875.2890014648c-.4630126953.4530029297-.9179992676.899017334-1.3730163574,1.3180236816-.907989502.8429870605-1.8179931641,1.5989990234-2.7519836426,2.2109985352-.467010498.300994873-.9390258789.5699768066-1.4170227051.7980041504l-.3609924316.1570129395-.1809997559.075958252-.125.0460205078.0130004883-.0039978027.0599975586-.0029907227-.2250061035.0059814453-2.1849975586.0520019531-1.949005127.0490112305-.9880065918.0239868164-.4939880371.0119934082-.2469787598.0060119629c-.075012207.0100097656-.1950073242-.0310058594-.1790161133.0840148926l-.5749816895,3.3379821777-.1370239258.7890014648-.0690002441.3450012207c-.0489807129.2269897461-.0759887695.466003418-.1399841309.6849975586-.2260131836.8789978027-.5890197754,1.7169799805-1.0379943848,2.5270080566-.9370117188,1.6069946289-2.325012207,3.0429992676-3.9530029297,4.2959899902-.8190002441.6240234375-1.6950073242,1.2050170898-2.6010131836,1.7590026855-.4639892578.266998291-.9190063477.5420227051-1.3989868164.7950134277l-.7149963379.3829956055-1.3140258789.6770019531-2.240020752,3.2979736328-.0129699707.0210266113c-.1470031738.1019897461-.3469848633.2300109863-.525970459.3320007324-.1860351562.1059875488-.3780517578.2049865723-.575012207.2969970703l-.3000183105.1329956055-.7950134277.3089904785-1.1569824219,1.0950012207c-.2489929199.2250061035-.4739990234.4719848633-.7399902344.6820068359-.5330200195.4169921875-1.0260009766.8770141602-1.5859985352,1.2650146484-1.0960083008.8029785156-2.2420043945,1.5520019531-3.4519958496,2.2049865723-2.4070129395,1.3260192871-4.9970092773,2.3649902344-7.6690063477,3.1199951172-5.3370056152,1.4970397949-11.0500183105,1.906036377-16.3840026855.8570251465-5.291015625-1.0650024414-10.200012207-3.8040161133-12.7680053711-8.241027832-1.2980041504-2.1920166016-2.0539855957-4.7200012207-2.325012207-7.3649902344l-.0999755859-.9940185547c-.0250244141-.1649780273-.0180053711-.3349914551-.0200195312-.5029907227l-.0050048828-.608001709-.0230102539-2.1839904785-.0049743652-.5539855957c-.0090026855-.1790161133.049987793-.4150085449-.1610107422-.4220275879l-.884979248-.3599853516c-1.1060180664-.4580078125-2.6380004883-1.0449829102-2.966003418-1.2700195312-.592010498-.3059692383-1.1970214844-.5859985352-1.7510070801-.9619750977-4.558013916-2.7630004883-8.1700439453-7.1600036621-9.783996582-12.175994873-.8110046387-2.5020141602-1.1150512695-5.1470031738-.8540039062-7.7420043945l.3109741211-2.0110168457.3930358887-2.0469970703c.1029968262-.6989746094.3629760742-1.3029785156.5319824219-1.9609985352.1000061035-.3209838867.1779785156-.6489868164.2950134277-.9649963379l.3800048828-.9360046387c1.9549865723-5.0349731445,5.6279907227-9.3479919434,10.0449829102-12.6569824219,2.2019958496-1.6750183105,4.6289978027-3.0770263672,7.1669921875-4.2300109863.6249694824-.3110046387,1.2720031738-.5729980469,1.9240112305-.8229980469.6489868164-.2560119629,1.2929992676-.5290222168,1.9620056152-.7300109863l1.0009765625-.3309936523c.7430114746-.2689819336,1.4650268555-.4196777344,2.1850280762-.6235961914l4.3269958496-1.1538085938c-.8150024414-1.1932067871-1.6510009766-2.3719787598-2.450012207-3.5770874023l-1.2059936523-1.8019104004-.1510009766-.2252807617-.0690307617-.1139221191-.134979248-.2213134766-.2689819336-.442565918c-.724029541-1.1772155762-1.3730163574-2.3751220703-2.0090026855-3.5911254883-1.2390136719-2.4418945312-2.308013916-4.9671936035-3.1700134277-7.5502929688-1.6999816895-5.1640014648-2.5550231934-10.6030883789-2.0279846191-15.8606872559.2929992676-2.6152038574.8909912109-5.1820068359,1.9159851074-7.5648193359,1.0290222168-2.3766784668,2.399017334-4.6036987305,4.1340026855-6.5492858887.8439941406-.9508972168,1.8590087891-1.9332885742,2.8139953613-2.7715148926.9519958496-.8566894531,1.9620056152-1.549987793,3.0799865723-2.1637878418,2.20703125-1.2418823242,4.7350158691-2.0466003418,7.3720092773-2.6369018555,1.7620239258-.3916015625,3.5810241699-.682800293,5.4370117188-.9404907227l3.6369934082-.4792175293,2.8349914551-.3694763184.0629882812-.1192016602-.0079650879-.1784973145-.0159912109-.3571166992-.0320129395-.7141113281-.0650024414-1.4281921387-.0639953613-1.4282836914.0109863281-.7169189453.0290222168-1.3576049805c.1009521484-.8728942871.1149902344-1.7522888184.2850036621-2.6172790527.2219848633-1.7451171875.7059936523-3.449798584,1.2219848633-5.1354064941,2.1409912109-6.4950866699,6.341003418-12.4122009277,11.8819885254-16.5231018066,2.7430114746-2.0938110352,5.8540039062-3.6592102051,9.1020202637-4.7066345215,3.266998291-.9688720703,6.6999816895-1.4136047363,10.0789489746-1.0372924805,1.6960449219.128326416,3.3540344238.543762207,4.9930419922,1.0053405762.7969970703.308380127,1.6259765625.5274963379,2.3999938965.9008178711l1.7700195312.7938537598.2889709473.1300964355.1440124512.0650024414.1499938965-.035369873.6010131836-.2024841309,1.0960083008-.3699035645,1.3109741211-.446685791.433013916-.1465148926c.1019897461-.0264282227.1910095215-.0862731934.2850036621-.1326904297l.2640075684-.1387634277.5619812012-.2988891602c.7390136719-.4244689941,1.5289916992-.7339172363,2.3040161133-1.0764770508,1.5780029297-.6170043945,3.2239990234-1.0461425781,4.8989868164-1.307220459,6.7350158691-1.0109863281,13.8470153809,1.166809082,19.4050292969,5.3571472168,2.7909545898,2.086151123,5.2619628906,4.6372680664,7.1929321289,7.546661377.9609985352,1.4548034668,1.8370361328,2.9741210938,2.5130004883,4.5802001953.1930541992.3919067383.3229980469.8081970215.4890441895,1.2109069824.1659851074.4031066895.309967041.813293457.433013916,1.2304992676.1229858398.416595459.2849731445.8236083984.3779907227,1.2479858398l.1600036621.6321105957c.050994873.2196044922.100982666.3554992676.1959533691.8286132812l.4210205078,2.242980957.1040039062.558807373c-.0149841309.1344909668.108001709.0936889648.199005127.0932006836l.2820129395-.0119934082,1.125-.0480957031,1.1229858398-.0479125977c.3510131836-.0126037598.8239746094-.0434875488.9700012207-.025604248l1.3019714355.041809082c1.7320251465.1000976562,3.4630126953.3429870605,5.140045166.811706543,3.3769836426.8631896973,6.5390014648,2.5010986328,9.3629760742,4.5894775391,5.6100158691,4.2593078613,9.7150268555,10.5216064453,11.5229797363,17.3782043457.873046875,3.4342041016,1.2100219727,7.0169067383.8060302734,10.5345153809-.0579833984.8848876953-.2670288086,1.7463989258-.4010009766,2.6206054688-.2319946289.8512878418-.3809814453,1.729095459-.6900024414,2.558380127l-.4199829102,1.2582092285-.5110473633,1.2239990234-.126953125.3063964844c-.0490112305.1094055176-.0640258789.1708984375-.1750183105.3879089355l-.4590148926.8945922852c-.2979736328.5931091309-.6289672852,1.1947937012-.8969726562,1.7758178711,1.449005127.7922973633,3.0599975586,1.759979248,3.7539978027,2.2953796387.8789978027.6589050293,1.717010498,1.3743286133,2.5079650879,2.1441040039,1.5710449219,1.554107666,2.9420471191,3.3217163086,4.1360473633,5.2156982422,1.6219787598,2.5133972168,2.6149902344,3.7402038574,3.0539855957,3.5346069336.3979797363-.1818847656.2350158691-1.833190918-1.3349914551-4.5961914062-1.2319946289-2.0227050781-2.6690063477-3.9428100586-4.3500061035-5.6580200195-.8470153809-.8507080078-1.7510070801-1.6478881836-2.7049865723-2.3858032227-1.1450195312-.8450012207-1.5280151367-1.0762939453-2.1030273438-1.4077758789.0869750977-.2172241211.2340087891-.4508972168.3469848633-.6728210449l.1800231934-.3350830078.2539978027-.5741271973.5759887695-1.3233947754.4790039062-1.3615722656c.3480224609-.899810791.5310058594-1.8492126465.7940063477-2.7749023438.1650390625-.9470214844.4010009766-1.8853149414.4819946289-2.8450012207.4990234375-3.8223266602.1939697266-7.7140197754-.6940002441-11.4463195801-1.8459777832-7.449005127-6.1499938965-14.2833862305-12.2439880371-19.0687866211-3.0679931641-2.3484191895-6.5540161133-4.2261962891-10.3269958496-5.2572937012-1.8730163574-.552520752-3.8160095215-.8601989746-5.7640075684-1.0023193359l-1.466003418-.0690917969c-.3150024414-.0168151855-.3029785156-.0071105957-.4140014648-.0075073242l-.2609863281.0045166016-.2579956055.0043945312-.1090087891-.0202941895-.0190124512-.1220092773-.0749816895-.4804992676-.2890014648-1.2341918945c-.1010131836-.4792175293-.2700195312-.9383239746-.4020080566-1.408416748-.1329650879-.4707946777-.2879943848-.933380127-.4649963379-1.3880004883-.1770019531-.454284668-.3200073242-.9234924316-.5260009766-1.3653869629-.7330322266-1.8103942871-1.6799926758-3.5222167969-2.7280273438-5.161315918-2.1049804688-3.2774047852-4.8029785156-6.1566162109-7.885925293-8.5372009277-1.5500488281-1.1817932129-3.1950683594-2.2438049316-4.9260559082-3.1579589844-1.740020752-.8955688477-3.5610046387-1.6450195312-5.4440002441-2.2225952148-3.7639770508-1.1460876465-7.8079833984-1.5484619141-11.7699890137-1.0166931152-1.9769897461.2741088867-3.9299926758.7529296875-5.8039855957,1.4530029297-.9210205078.3831787109-1.8570251465.742980957-2.7320251465,1.2221679688l-.6649780273.3419799805c-.099029541.0475158691.0139770508.0031433105-.2960510254.1047973633l-1.3179626465.4262695312-.217010498.066619873-.1099853516-.0021057129-.0939941406-.0505371094-.6560058594-.3045959473c-.8870239258-.4383850098-1.8450317383-.7218933105-2.7680053711-1.0859069824-1.8989868164-.5759887695-3.8379821777-1.0820922852-5.8270263672-1.2710266113-3.967956543-.4991149902-8.0129699707-.0467224121-11.8299560547,1.0285949707-3.7960205078,1.1517333984-7.4000244141,2.9119567871-10.5700073242,5.248840332-6.3940124512,4.606262207-11.2660217285,11.2076721191-13.8690185547,18.6930541992-.6059875488,1.9533996582-1.157989502,3.9359130859-1.4239807129,5.9779968262-.1920166016,1.0097045898-.2220153809,2.0458068848-.3320007324,3.06640625l-.0530395508,2.2139892578-2.0329589844.270904541c-1.9210205078.2672119141-3.8710327148.5762939453-5.8320007324,1.01171875-2.933013916.6581726074-5.9270019531,1.5843811035-8.717010498,3.1473999023-.7070007324.3625793457-1.3689880371.8302001953-2.0440063477,1.2613830566-.6380004883.4889221191-1.3139953613.9559936523-1.8809814453,1.4936218262-1.1930236816,1.0506896973-2.2350158691,2.0614013672-3.2940063477,3.2469787598-2.0729980469,2.3268127441-3.7470092773,5.0290222168-4.983001709,7.8992004395-1.2359924316,2.8775024414-1.949005127,5.9432067871-2.2879943848,9.0068969727-.6130065918,6.1571044922.3880004883,12.2579040527,2.2539978027,17.9413146973.949005127,2.8435058594,2.1159973145,5.5994873047,3.4659729004,8.2576904297.6880187988,1.3192138672,1.4039916992,2.636505127,2.1790161133,3.8959960938l.5020141602.8260192871.0299987793-.0110168457-1.1040039062.3648986816c-.7470092773.2279052734-1.4680175781.5292053223-2.1940002441.8163146973-.7290039062.2805786133-1.4519958496.5749816895-2.1530151367.9208984375-2.8429870605,1.2930908203-5.5709838867,2.8675842285-8.0799865723,4.7715759277-2.5150146484,1.8910217285-4.8349914551,4.0729980469-6.8470153809,6.5450134277-2.0220031738,2.4629821777-3.6489868164,5.2780151367-4.8469848633,8.2610168457l-.449005127,1.1219787598c-.1390075684.3770141602-.2380065918.7690124512-.358001709,1.1540222168-.2059936523.7709960938-.509979248,1.5489807129-.6269836426,2.3159790039l-.4470214844,2.3090209961-.3609924316,2.3729858398c-.3330078125,3.2950134277.0570068359,6.6499938965,1.0679626465,9.7709960938,2.0270385742,6.2640075684,6.4120483398,11.5540161133,11.9490356445,14.9210205078.6770019531.4509887695,1.4110107422.8020019531,2.1340026855,1.1729736328.9649963379.4990234375.8340148926.4010009766,1.091003418.5150146484l.1669921875.0679931641-.0019836426.0350036621.0059509277.5c.0030517578.2009887695-.001953125.4020080566.0250549316.6040039062l.1189880371,1.2139892578c.3299865723,3.225982666,1.2789916992,6.5,3.0029907227,9.4010009766,1.6929931641,2.9230041504,4.2070007324,5.3320007324,7.0150146484,7.0690002441,2.816986084,1.75,5.9199829102,2.8739929199,9.0559692383,3.5119934082,6.2950134277,1.2290039062,12.7010192871.7360076904,18.7330322266-.9460144043,3.0180053711-.8529663086,5.9530029297-2.0269775391,8.7269897461-3.5539855957,1.3909912109-.7539978027,2.7279968262-1.6229858398,4.016998291-2.5690002441.6530151367-.4569702148,1.2529907227-1.0009765625,1.8789978027-1.5009765625.3139953613-.25.5939941406-.5469970703.8919677734-.8190307617l.4520263672-.4309692383.4880065918-.216003418c.3210144043-.149017334.6369934082-.3130187988.9469909668-.4899902344.3160095215-.1820068359.5980224609-.3600158691.9210205078-.5830078125l.6909790039-.5100097656c.2050170898-.1979980469.3389892578-.4580078125.490020752-.6619873047l1.6109924316-2.3720092773,1.0029907227-.5320129395c.5310058594-.2819824219,1.0550231934-.5959777832,1.5800170898-.899017334,1.0440063477-.6369628906,2.074005127-1.3179931641,3.0729980469-2.0799560547,1.9840087891-1.5300292969,3.8609924316-3.4060058594,5.2340087891-5.757019043.6649780273-1.1829833984,1.2119750977-2.4559936523,1.5549926758-3.7929992676.091003418-.3309936523.1390075684-.6610107422.2080078125-.9920043945l.1049804688-.550994873.0059814453-.0369873047h.0290222168l1.7690124512-.0420227051.8249816895-.0199890137c.3399963379.041015625.6280212402-.1510009766.9580078125-.2510070801.3030090332-.1119995117.408996582-.149017334.6140136719-.2409973145l.5449829102-.2389831543c.7139892578-.3380126953,1.3890075684-.7250061035,2.0289916992-1.1380310059,1.2729797363-.8359985352,2.3910217285-1.7809753418,3.416015625-2.7299804688.5149841309-.4750061035,1.0019836426-.9519958496,1.4809875488-1.4219970703l1.115020752-1.1010131836.174987793-.1739807129.0569763184-.2180175781.1110229492-.4380187988.2210083008-.8759765625-1.3309936523,1.6510009766c2.2469787598-1.1010131836,4.3959960938-2.3989868164,6.4099731445-3.8800048828l.4680175781-.3559875488.1170043945-.0889892578.0019836426-.0040283203v-.0019836426l.0019836426-.0130004883.0210266113-.0400085449-.0050048828-.1229858398c.0050048828.0149841309-.0260009766-.1060180664.0700073242.2510070801l.2109985352.7829589844c.0100097656.1540222168.141998291.2380371094.2369689941.3440246582l.3000183105.3049926758.509979248.5189819336c.4379882812.4610290527.9120178223.883026123,1.3850097656,1.3060302734,1.8960266113,1.6879882812,4.0330200195,3.0989685059,6.3100280762,4.2109985352,4.5469970703,2.2529907227,9.7120056152,3.1899719238,14.7469787598,2.7779846191l.2050170898-.0260009766.1090087891-.0109863281.0319824219-.0660095215-.0289916992.050994873.0419921875.0280151367c.0540161133.0429992676.1520080566.1610107422.2510070801.3359985352l.0829772949.1619873047.20703125.5320129395.3559875488,1.009979248,3.2279968262,1.1920166016,1.1650085449.4250183105.6489868164.2369689941.6860046387.1570129395,2.3460083008.5419921875c.2729492188.0710144043.1359863281.0330200195.2039794922.0500183105l.0730285645.0440063477c.2749938965.2249755859.6649780273.5159912109.9979553223.7609863281,2.7850341797,2.0319824219,5.8980102539,3.6040039062,9.1770324707,4.6329956055.8179931641.2640075684,1.6499938965.4799804688,2.4859924316.6779785156.4210205078.0850219727.8380126953.1870422363,1.2610168457.258026123l.6340026855.1130065918c-.0560302734-.016998291.25.0610046387.3969726562.0989990234.7180175781.1909790039,1.4240112305.4099731445,2.108001709.6649780273.3250427246.1210327148.7180175781.2810058594.9720153809.3920288086.1610107422.0780029297.4530029297.2529907227.717010498.4439697266.5579833984.3870239258,1.2149963379.9650268555,2.1339416504,1.4970092773l.3570556641.1920166016.1140136719.0570068359.0479736328.0199890137.032989502.0220031738.2180175781.16796875c.3559875488.2680053711.6940002441.5599975586,1.066986084.8040161133,1.4630126953,1.0230102539,3.0769958496,1.8090209961,4.7390136719,2.4110107422,1.6649780273.6109924316,3.4069824219.9539794922,5.1459960938,1.1259765625,1.7409973145.1740112305,3.4909667969.1530151367,5.2080078125-.0659790039,3.4409790039-.4010009766,6.7550048828-1.5069885254,9.7749938965-3.1380004883,1.5029907227-.8330078125,2.9329528809-1.7969970703,4.2659606934-2.8880004883,1.3200073242-1.1099853516,2.532043457-2.3529968262,3.6070556641-3.7139892578,1.0859375-1.3529968262,1.9699707031-2.875,2.6919555664-4.4640197754.7260131836-1.5899963379,1.2330322266-3.2890014648,1.4830322266-5.0249938965.1649780273-.8619995117.1849975586-1.7420043945.2319946289-2.6140136719l-.0230102539-1.309967041c.0239868164-.2260131836-.0690307617-.6140136719-.1270141602-.9000244141l-.1029663086-.4499816895c-.2340087891-1.1900024414.1680297852-2.1010131836,1.049987793-3.0960083008.9010009766-.9760131836,2.2299804688-1.8439941406,3.5479736328-2.8269958496,1.3120117188-.9940185547,2.7680664062-2.0890197754,3.7950439453-3.782989502l.3489990234-.6540222168.0489501953-.0919799805h-.0059814453l-.0040283203.0039672852.0450439453-.0659790039.091003418-.1319885254.7279663086-1.0570068359c.4949951172-.6979980469.8630371094-1.4769897461,1.2969970703-2.2130126953.7340698242-1.5429992676,1.3950195312-3.1289978027,1.7930297852-4.7879943848.466003418-1.641998291.657043457-3.3389892578.7930297852-5.0260009766.0459594727-1.6910095215.0319824219-3.3869934082-.2200317383-5.0539855957-.4240112305-3.3430175781-1.4520263672-6.5800170898-2.9469604492-9.5720214844-1.4740600586-3.0029907227-3.4440307617-5.7573852539-5.8250732422-8.11328125-2.3589477539-2.3756103516-5.1819458008-4.307800293-8.2899169922-5.611907959-3.0930480957-1.3428039551-6.5190429688-1.882598877-9.8740539551-1.7216186523-1.608001709.1357116699-2.7850036621.4526062012-3.5160217285.8173217773-.7379760742.3442077637-1.0579528809.6482849121-.9999694824.8717956543.058013916.2233886719.4920043945.3682861328,1.2610168457.3937988281.7659912109.0035095215,1.883972168-.0226135254,3.3489990234-.0654907227h0Z" fill="#1d1d1b"/>
  </g>
  <path d="M403.3295571635,429.8255288432c3.1540222168-21.2369689941,10.4620056152-90.3889770508,10.7539672852-100.5749816895-3.2219543457-7.6629943848-9.29296875-13.7539978027-14.6869506836-19.9729919434-.1470031738-.1569824219-.4420166016-.4819946289-.589050293-.6390075684-.2259521484-.225982666-.66796875-.657989502-.8849487305-.8840026855-.2449951172-.2359924316-.7260131836-.7169799805-.9720153809-.9630126953-.2460021973-.2449951172-.7270202637-.7269592285-.9629821777-.9719848633-.216003418-.2260131836-.6580200195-.66796875-.8740234375-.8939819336-.1569824219-.1480102539-.4719848633-.4520263672-.6289978027-.6000366211-2.1609802246-2.2199707031-4.7449951172-4.0369873047-6.6219787598-6.5229797363.7269897461-1.0409851074,1.4049987793-2.1219787598,2.1419677734-3.1529846191,8.508026123,7.6229858398,16.8590087891,15.4039916992,24.541015625,23.8729858398-.225982666-8.882019043,3.2719726562-19.6489868164-3.3399963379-26.9779968262-.1180114746-.1279907227-.333984375-.3930053711-.441986084-.5209960938-.108001709-.1369934082-.324005127-.4020080566-.4320068359-.5299987793-.9930114746-1.2770080566-2.0050048828-2.5350036621-2.9869995117-3.8020019531-.108001709-.1380004883-.324005127-.3930053711-.4320068359-.5209960938-.1180419922-.1470031738-.3540039062-.441986084-.4719848633-.5889892578-1.1790161133-1.6510009766-2.3480224609-3.4490356445-4.4410095215-3.9790039062.0889892578-.5299987793.275970459-1.58203125.3639831543-2.1119995117,1.5230102539-.1180114746,3.0360107422-.1280212402,4.558013916-.1080322266-.3729858398.4420166016-1.1189880371,1.3359985352-1.5029907227,1.7880249023,3.4679870605,3.8020019531,6.5729980469,7.8890075684,9.9429931641,11.7789916992-.0889892578-6.5529785156-.0299987793-13.1149902344-.1770019531-19.657989502,3.0350036621-11.4550170898,1.9649963379-24.8560180664-9.175994873-31.4970092773-7.2010498047-7.4663085938-14.6970214844-14.6575927734-21.6040039062-22.408996582,13.2630004883,7.1913757324,24.2269897461,18.7449951172,33.3439941406,30.6220092773.2359619141-17.6638183594-.7269897461-35.9761962891-4.9519958496-53.335723877,3.1839904785,3.3500976562,2.3680114746,8.8517150879,5.7969970703,12.1427001953,1.4440002441-3.2713928223.8249816895-7.1519775391,2.8099975586-10.2072753906-3.0849914551,13.2724914551-1.3269958496,26.888885498.5500183105,40.2692871094,9.4700012207-11.9459838867,19.9529724121-24.2360839844,32.0659790039-34.0701904297-4.1359863281,6.3367004395-9.6569824219,11.5532836914-14.1760253906,17.5953063965-14.3339538574,11.6219787598-19.343963623,30.1898803711-13.8329772949,47.7258911133,1.592010498,14.9329833984,1.816986084,30.1119689941,4.3130187988,44.9169921875,12.6929931641-7.899017334,17.8109741211-22.0749816895,16.7800292969-36.5960083008,1.7779541016-.3039855957,2.7009277344,1.0710144043,3.1829223633,2.5550231934-.7079467773,3.2810058594-1.001953125,6.6409912109-.9429626465,10.0109863281,2.3380126953-2.367980957,4.2239990234-5.2369995117,4.8529968262-8.5469970703.9039916992.2250061035,1.8170166016.4420166016,2.7409667969.6480102539-3.1149902344,6.4539794922-7.9190063477,12.3289794922-8.8809509277,19.6190185547,8.300994873-3.6060180664,15.7679748535-8.8420410156,23.8329772949-12.9190368652,1.3170166016.3340148926,2.6230163574.7660217285,3.8710021973,1.3260192871-14.3729858398,7.3190002441-28.175994873,16.6719970703-38.1670227051,29.708984375-12.3389892578,11.2389984131-3.1729736328,84.3780059814-2.1619873047,98.416015625.2560119629,1.237991333.4720153809,2.4960021973.6780090332,3.7629699707l-.8559875488,6.7959899902h-31.9240112305" fill="#005538"/>
  <path d="M403.3295571635,429.8255288432l1.9779968262.2940368652c1.5870056152-10.6910095215,4.2010192871-33.2789916992,6.4609985352-54.5140075684,1.1299743652-10.6150054932,2.1700134277-20.8830108643,2.9460144043-29.1420135498.3890075684-4.129989624.7109985352-7.7569885254.9459838867-10.6779785156.2349853516-2.9250183105.3829956055-5.1260070801.4230041504-6.478012085l.0119934082-.4329986572-.16796875-.4000091553c-1.7130126953-4.071975708-4.1510009766-7.6599884033-6.8090209961-10.9980010986-2.6600036621-3.3389892578-5.5460205078-6.4359893799-8.2109985352-9.5089874268l-.0249938965-.0299987793-.0260009766-.0279846191c-.1280212402-.1360168457-.4230041504-.4600219727-.5899963379-.6390380859l-.0230102539-.0229797363-.0220031738-.0230102539c-.1219787598-.1219787598-.2879943848-.2859802246-.4510192871-.4469909668-.1610107422-.1599731445-.3219604492-.3220214844-.4019775391-.4049682617l-.0300292969-.031036377-.0299682617-.0299987793c-.2149963379-.2050170898-.7019958496-.6909790039-.9440002441-.9339904785-.2420043945-.2420043945-.7279968262-.7290039062-.9339904785-.9429931641l.0019836426.0019836426c-.1259765625-.1319885254-.2920227051-.299987793-.4570007324-.4680175781-.1640014648-.1659851074-.3280029297-.3319702148-.4169921875-.4259643555l-.0379943848-.0390014648-.0390014648-.0370178223c-.1350402832-.1260070801-.4500427246-.4309997559-.6289978027-.6000061035l-1.3680114746,1.458984375,1.433013916-1.3949584961c-1.1690063477-1.199005127-2.3890075684-2.2330322266-3.5079956055-3.2490234375-1.1210021973-1.0139770508-2.1380004883-2.0059814453-2.950012207-3.083984375l-1.5969848633,1.2049865723,1.6399841309,1.1449890137c.7640075684-1.0959777832,1.4389953613-2.1699829102,2.1300048828-3.1359863281l-1.6280212402-1.1619873047-1.3349914551,1.4889831543c8.4890136719,7.6059875488,16.7880249023,15.341003418,24.3950195312,23.7270202637l3.616973877,3.987991333-.1370239258-5.3820037842c-.0059509277-.2689971924-.0099487305-.5409851074-.0099487305-.8150024414-.0079956055-4.0399932861.7290039062-8.6979980469.7359924316-13.3769836426-.0010070801-2.4410400391-.2060241699-4.9040222168-.8829956055-7.300994873-.6750183105-2.3930358887-1.8410339355-4.7200012207-3.6969909668-6.774017334l-.0080566406-.0079956055-.0079650879-.0079956055-.1609802246-.1880187988c-.0760192871-.092010498-.1549987793-.1869812012-.2230224609-.2679748535l-1.5269775391,1.2909851074,1.5719909668-1.2350158691c-.1329956055-.1699829102-.342010498-.425994873-.4779968262-.5869750977l-1.5260009766,1.2919921875,1.5789794922-1.2269897461c-1.0059814453-1.2950134277-2.0179748535-2.5520019531-2.9849853516-3.8000183105l-.0040283203-.0050048828-.0039672852-.0060119629c-.1550292969-.1949768066-.366027832-.4429626465-.4780273438-.5759887695l-1.5269775391,1.291015625,1.5610046387-1.2490234375c-.1170043945-.1469726562-.3529968262-.441986084-.4710083008-.5899658203l-1.5619812012,1.25,1.6279907227-1.1630249023c-.575012207-.7989807129-1.2070007324-1.7449951172-2.0710144043-2.6399841309-.8559875488-.8890075684-2.0119934082-1.740020752-3.5060119629-2.115020752l-.491973877,1.9390258789,1.9729919434.3289794922c.0849609375-.5109863281.2720031738-1.5620117188.3640136719-2.1129760742l-1.9730224609-.3280029297.1540222168,1.9939880371c1.0719909668-.0830078125,2.1569824219-.1099853516,3.2630004883-.1099853516.3699951172,0,.7409973145.0029907227,1.1159973145.0079650879l.0249938965-2-1.5280151367-1.2909851074c-.3789978027.450012207-1.1259765625,1.3439941406-1.5,1.7850036621l-1.1380004883,1.342010498,1.1860046387,1.299987793c3.3880004883,3.7120056152,6.483001709,7.783996582,9.9080200195,11.740020752l3.5849914551,4.1399841309-.074005127-5.4760131836c-.0880126953-6.5229797363-.0289916992-13.0909729004-.1770019531-19.675994873l-1.9989929199.0450134277,1.933013916.5119934082c.9579772949-3.6180114746,1.5289916992-7.4299926758,1.5289916992-11.2180175781-.0010070801-4.3539733887-.7550048828-8.6869812012-2.5970153809-12.6049804688-1.8370056152-3.9140014648-4.7919921875-7.391998291-9.016998291-9.9039916992l-1.0239868164,1.7179870605,1.4389953613-1.3880004883c-7.2369995117-7.5032958984-14.7130126953-14.6774902344-21.549041748-22.3515014648l-1.4939575195,1.3305053711-.9530029297,1.7580871582c12.8789978027,6.9761047363,23.6860046387,18.3168945312,32.7099609375,30.0819091797l3.5100402832,4.5720214844.0769958496-5.7630310059c.0209960938-1.6189880371.032989502-3.2449951172.032989502-4.875-.0009765625-16.2424926758-1.1489868164-32.9600830078-5.0409851074-48.9606018066l-1.9440002441.4729003906-1.449005127,1.3776245117c.575012207.6058959961,1,1.3371887207,1.3649902344,2.2273864746.549987793,1.3301086426.9130249023,2.9905090332,1.4770202637,4.749206543.2850036621.87890625.6269836426,1.7850952148,1.1059875488,2.6780090332.4769897461.8916931152,1.0970153809,1.7707824707,1.9129943848,2.5533752441l2.0610046387,1.978302002,1.1530151367-2.613494873c.8769836426-2.0080871582,1.0759887695-3.9803161621,1.3489990234-5.6849975586.2619934082-1.7200927734.5820007324-3.1333007812,1.3089904785-4.2406921387l-1.6770019531-1.0892944336-1.949005127-.4528198242c-1.2579956055,5.4143066406-1.7309875488,10.857208252-1.7309875488,16.2780151367.0010070801,8.3277893066,1.1119689941,16.6084899902,2.2489929199,24.7221069336l.6480102539,4.6219787598,2.8999938965-3.6570129395c9.4370117188-11.9073791504,19.8389892578-24.0858764648,31.7600097656-33.7603759766l-1.2610168457-1.5527954102-1.674987793-1.0932006836c-3.9540100098,6.0803833008-9.4370117188,11.2717895508-14.1029968262,17.4904785156l1.6019592285,1.1980285645-1.259979248-1.5536193848c-10.9949951172,8.9078063965-16.7679748535,21.7915039062-16.759979248,35.2205200195,0,4.8659973145.7529907227,9.8049621582,2.2789916992,14.658996582l1.907989502-.6000061035-1.9889831543.2120056152c1.5830078125,14.8110046387,1.8049926758,30.0299682617,4.3299865723,45.0370025635l.4960021973,2.941986084,2.5320129395-1.5759887695c6.1470031738-3.8220214844,10.6410217285-9.0740203857,13.5610046387-15.0730133057,2.9229736328-6,4.2909851074-12.7359924316,4.2919921875-19.6130065918,0-1.2460021973-.0450134277-2.4970092773-.1340332031-3.7489929199l-1.994934082.1409912109.3369750977,1.9720153809.1459960938-.0140075684.1110229492.0190124512c.0289306641.0119934082.1299743652.0749816895.2719726562.283996582.1390075684.2040100098.2929992676.5319824219.4140014648.9110107422l1.9029541016-.6170043945-1.9549560547-.4219970703c-.6810302734,3.1599731445-.9960327148,6.3769836426-.9960327148,9.5959777832,0,.2909851074.0029907227.5810241699.0079956055.8720092773l.0840454102,4.7510070801,3.3389892578-3.3810119629c2.5199584961-2.5539855957,4.6619873047-5.7449951172,5.3949890137-9.5789794922l-1.9649963379-.3730163574-.4849853516,1.9400024414c.9199829102.2300109863,1.8499755859.450012207,2.7899780273.6600036621l.4359741211-1.9519958496-1.8019714355-.8690185547c-1.483001709,3.0800170898-3.4449768066,6.141998291-5.2079772949,9.4190063477-1.757019043,3.2769775391-3.3229980469,6.7969970703-3.8540039062,10.8070068359l-.4630126953,3.5050048828,3.2420043945-1.408996582c8.5459899902-3.7200317383,16.0419921875-8.9850158691,23.9400024414-12.9680175781l-.9030151367-1.7850036621-.491973877,1.9389953613c1.2239990234.3099975586,2.4219970703.7080078125,3.5439758301,1.2120056152l.8190002441-1.8249816895-.907989502-1.7820129395c-14.5190124512,7.3970031738-28.5880126953,16.8949890137-38.8470153809,30.2740020752l1.5879821777,1.2169952393-1.3469848633-1.4789886475c-1.5629882812,1.4349822998-2.6739807129,3.4109802246-3.5719909668,5.7779846191-1.3370056152,3.5560150146-2.1779785156,8.0639953613-2.716003418,13.2430114746-.533996582,5.1769866943-.7489929199,11.0149841309-.7489929199,17.1519927979,0,12.5890045166.9070129395,26.4349975586,1.8880004883,38.2080078125.4909667969,5.8850097656,1,11.2509918213,1.4250183105,15.6729736328.424987793,4.4200286865.7649841309,7.907989502.9149780273,9.9850311279l.0090026855.1319732666.0270080566.1290283203c.2460021973,1.1940002441.4579772949,2.4239959717.6619873047,3.6789855957l1.9739990234-.3210144043-1.9839782715-.2499847412-.6360168457,5.0459747314h-30.1600036621v2l1.9779968262.2940368652-1.9779968262-.2940368652v2.0000305176h33.6870117188l1.1139526367-8.8320159912-.0469970703-.2850036621c-.2079467773-1.2789764404-.427947998-2.5640106201-.6929626465-3.8459777832l-1.9590148926.404006958,1.9949951172-.1430358887c-.1569824219-2.1779785156-.4979858398-5.6589813232-.9219970703-10.0799713135-1.2739868164-13.2490081787-3.2959899902-34.8929901123-3.2949829102-53.4990081787-.0010070801-8.0550079346.382019043-15.5409851074,1.3439941406-21.4560089111.4779663086-2.9549713135,1.1040039062-5.5169830322,1.8629760742-7.5279998779.7540283203-2.0149993896,1.6560058594-3.4529876709,2.5240478516-4.2319946289l.132019043-.1199951172.1079711914-.141998291c9.7239990234-12.6939697266,23.2619628906-21.9010009766,37.4880371094-29.141998291l3.7229614258-1.8960266113-3.8120117188-1.7109985352c-1.3729858398-.6159667969-2.7890014648-1.0829772949-4.1979980469-1.4409790039l-.7260131836-.1839904785-.66796875.3379821777c-8.2330322266,4.1719970703-15.6710205078,9.3790283203-23.7279663086,12.8699951172l.7969665527,1.8340454102,1.9819946289.2619628906c.4320068359-3.2799987793,1.7489929199-6.341003418,3.4129943848-9.4389953613,1.658996582-3.0960083008,3.6560058594-6.199005127,5.2869873047-9.5729980469l1.0960083008-2.2710266113-2.4609985352-.549987793c-.907989502-.2030029297-1.8049926758-.4149780273-2.691986084-.6369934082l-2.0550231934-.5140075684-.3949890137,2.0810241699c-.5249938965,2.7879943848-2.1549987793,5.333984375-4.3110046387,7.5149841309l1.4230041504,1.4060058594,1.9989929199-.0359802246c-.0039978027-.2670288086-.0069885254-.5340270996-.0069885254-.8010253906,0-2.958984375.2889709473-5.8929748535.9060058594-8.7529907227l.1130065918-.5260009766-.166015625-.5130004883c-.2760009766-.8349914551-.6650390625-1.725982666-1.3850097656-2.5290222168-.3610229492-.3979797363-.816986084-.7689819336-1.3699951172-1.0349731445-.5520019531-.2680053711-1.1959838867-.4169921875-1.8469848633-.4150085449-.2730102539,0-.5480041504.024017334-.8210144043.0710144043l-1.7859802246.3059692383.1289978027,1.8070068359c.0820007324,1.1600036621.1239929199,2.3170166016.1239929199,3.466003418,0,6.3480224609-1.2670288086,12.4840087891-3.8880004883,17.8610229492-2.625,5.3789672852-6.5859985352,10.0079956055-12.0780029297,13.4289855957l1.0570068359,1.6979980469,1.9719848633-.3329925537c-2.466003418-14.603012085-2.6959838867-29.7410125732-4.2959899902-44.796005249l-.0209960938-.1979980469-.0599975586-.1890258789c-1.4060058594-4.4739990234-2.0950012207-9.0069885254-2.0950012207-13.4599609375.0069885254-12.2940063477,5.2309570312-23.9585266113,15.2789916992-32.1134033203l.1929931641-.1566162109.1489868164-.199005127c4.3720092773-5.8652038574,9.9320068359-11.1069946289,14.2500305176-17.7001037598l6.9819946289-10.6976013184-9.9179992676,8.0518188477c-12.3059997559,9.9934997559-22.8690185547,22.3952026367-32.3730163574,34.3808898926l1.5680236816,1.2420043945,1.9799804688-.2769775391c-1.1359863281-8.0960083008-2.2120056152-16.1974182129-2.2100219727-24.1671142578,0-5.1889038086.4530334473-10.3198242188,1.6280212402-15.3724060059l2.5780029297-11.0934143066-6.2040100098,9.5512084961c-1.2579956055,1.9479980469-1.6209716797,4.0028076172-1.9059753418,5.8045959473-.2750244141,1.8173217773-.4890136719,3.4212036133-1.0559997559,4.6844177246l1.8299865723.8076782227,1.3850097656-1.4426879883c-.625-.6007080078-1.0760192871-1.3121948242-1.4600219727-2.1799926758-.5799865723-1.2960205078-.9509887695-2.9249267578-1.4819946289-4.6636047363-.2689819336-.8688049316-.583984375-1.7666931152-1.0229797363-2.6581115723-.4380493164-.8898925781-1.0050048828-1.7752990723-1.766998291-2.5758972168l-5.1670227051-5.4378051758,1.7739868164,7.2884216309c3.7860107422,15.5517883301,4.9290161133,31.9608764648,4.9280090332,48.0146789551,0,1.6109924316-.0119934082,3.2190246582-.032989502,4.8210144043l2,.0270080566,1.5859985352-1.2180175781c-9.208984375-11.9899902344-20.3300170898-23.7554931641-33.975982666-31.1622009277l-10.058013916-5.4533081055,7.6109924316,8.5420227051c6.9770202637,7.8285827637,14.4930114746,15.0372009277,21.6570129395,22.4674987793l.1860046387.191986084.2299804688.1369934082c3.5400085449,2.1170043945,5.9040222168,4.9110107422,7.4450073242,8.1719970703,1.5360107422,3.2590332031,2.2179870605,7.0060119629,2.217010498,10.9010009766.0009765625,3.3840332031-.5140075684,6.8700256348-1.3959960938,10.1930236816l-.0720214844.2739868164.0060119629.283996582c.1470031738,6.5010070801.0880126953,13.0570068359.1770019531,19.6400146484l2-.0270080566,1.5109863281-1.3089904785c-3.3150024414-3.825012207-6.4289855957-7.9270019531-9.975982666-11.8179931641l-1.4779968262,1.3479919434,1.5260009766,1.29296875c.391998291-.4629821777,1.1380004883-1.3559570312,1.5059509277-1.7909851074l2.731048584-3.2349853516-4.2340393066-.0549926758c-.3869628906-.0050354004-.775970459-.0079956055-1.1669616699-.0079956055-1.1710205078,0-2.3600158691.0279846191-3.5710144043.1219787598l-1.5610046387.1210021973-.2579956055,1.5440063477c-.0849914551.5109863281-.2720031738,1.5620117188-.3630065918,2.1119995117l-.3029785156,1.8150024414,1.783996582.4530029297c.5979919434.1549987793,1.074005127.4679870605,1.6199951172,1.0239868164.5379943848.5489807129,1.0799865723,1.3269958496,1.6849975586,2.1780090332l.0310058594.0449829102.0350036621.0419921875c.1170043945.1470336914.3529968262.4420166016.4709777832.5900268555l.0170288086.0209960938.0179748535.0209960938c.1029968262.1220092773.3249816895.3850097656.3860168457.4649963379l-.0079956055-.0109863281c.9979858398,1.2869873047,2.009979248,2.5449829102,2.9879760742,3.8039855957l.0260009766.0330200195.0270080566.0319824219c.0800170898.0939941406.3040161133.3690185547.3860168457.4739990234l.0229797363.0289916992.0230102539.0270080566c.0390014648.0469970703.1229553223.1480102539.2109985352.2530212402.091003418.108001709.1789855957.2139892578.2879943848.3329772949l1.4700012207-1.3569946289-1.4850158691,1.3399963379c1.4099731445,1.5670166016,2.2760314941,3.2789916992,2.8180236816,5.1829833984.5390014648,1.9020385742.733001709,3.9970092773.7319641113,6.2120361328.007019043,4.2529907227-.7279663086,8.8909759521-.7359619141,13.3769836426,0,.3059997559.0039978027.6120147705.0119934082.9160003662l1.9989929199-.0500030518,1.4810180664-1.3439941406c-7.757019043-8.5510253906-16.1600341797-16.3779907227-24.6870117188-24.0189819336l-1.6640014648-1.491027832-1.2980041504,1.8179931641c-.782989502,1.0970153809-1.4639892578,2.1840209961-2.1539916992,3.1710205078l-.8320007324,1.1909790039.875,1.158996582c1.0650024414,1.4080200195,2.2770080566,2.5680236816,3.4570007324,3.6380004883,1.1829833984,1.0700073242,2.3359985352,2.0549926758,3.3280029297,3.0760192871l.0319519043.0320129395.0330200195.0319824219c.1350097656.1260070801.4490356445.4299926758.6290283203.5989990234l1.367980957-1.458984375-1.4449768066,1.3819885254c.1259765625.1329956055.2919921875.300994873.4570007324.4689941406.1640014648.1650085449.326965332.3320007324.4169921875.4250183105l.0019836426.0029907227c.2660217285.2760009766.7430114746.7529907227.991973877,1.0020141602.2490234375.2479858398.7250366211.7249755859,1.0010375977.9909667969l1.3850097656-1.4429931641-1.4450073242,1.3829956055c.1359863281.1420288086.3039550781.3090209961.4750061035.4790039062.1690063477.1669921875.3370056152.3330078125.4400024414.4370117188l1.4149475098-1.4150085449-1.458984375,1.3680114746c.1270141602.1359863281.4220275879.4599914551.5890197754.6380004883l1.4590148926-1.3670043945-1.5110168457,1.3099975586c2.7290039062,3.1450042725,5.5749816895,6.2030029297,8.1050109863,9.3809967041,2.5310058594,3.1770019531,4.7409973145,6.466003418,6.25,10.0570068359l1.842956543-.7750091553-1.9989624023-.0579986572c-.033996582,1.195022583-.1780090332,3.3829956055-.4109802246,6.2720031738-.8150024414,10.1340026855-2.7090148926,29.0379943848-4.7430114746,47.7080078125-2.0320129395,18.6669921875-4.2090454102,37.1340179443-5.5800170898,46.3589935303l-.3400268555,2.2940063477h2.3190307617v-2.0000305176" fill="#1d1d1b"/>
  <path d="M266.1135537455,426.8355691264c2.4210205078-5.4540252686,3.7770080566-11.4850311279,3.7770080566-17.8359985352,0-14.783996582-7.2959899902-27.8550262451-18.4749908447-35.837020874-6.8059997559-23.175994873-28.2190093994-40.1040039062-53.5970001221-40.1040039062-20.6800231934,0-38.7220001221,11.2460021973-48.3820037842,27.9470062256-5.5840148926-2.5639801025-11.7899932861-4.0039978027-18.337097168-4.0039978027-16.3148040771,0-30.545791626,8.8829956055-38.1487121582,22.0699920654-5.5367889404-3.8470001221-12.2580871582-6.108001709-19.5108032227-6.108001709-18.9120788574,0-34.2432098389,15.3310089111-34.2432098389,34.2430267334,0,7.3030090332,2.288848877,14.0699920654,6.1844482422,19.6289978027h220.7323608398" fill="#008939"/>
  <path d="M90.183469517,390.9205453227c5.9433898926,0,11.5870819092,1.2699890137,16.6896972656,3.536026001,10.0744018555-11.9200286865,25.1271972656-19.4980163574,41.9564056396-19.4980163574,9.4289855957,0,18.300994873,2.3789978027,26.0540008545,6.5650024414.2109985352-21.2919921875,17.5289916992-38.4889984131,38.8699951172-38.4889984131,12.2109985352,0,23.0970001221,5.6359863281,30.2229919434,14.4420013428-10.0549926758-14.7370147705-26.9699859619-24.4180145264-46.157989502-24.4180145264-20.6800231934,0-38.7220001221,11.2460021973-48.3820037842,27.9470062256-5.5840148926-2.5639801025-11.7899932861-4.0039978027-18.337097168-4.0039978027-16.3148040771,0-30.5457000732,8.8829956055-38.1488037109,22.0699920654-5.536605835-3.8470001221-12.2579956055-6.108001709-19.5107116699-6.108001709-18.9120788574,0-34.2432098389,15.3310089111-34.2432098389,34.2430267334,0,7.3030090332,2.2888183594,14.0699920654,6.1845092773,19.6289978027h3.9801025391c2.5814208984-20.2540283203,19.8670196533-35.9150238037,40.8221130371-35.9150238037h0Z" fill="#8abd24"/>
  <path d="M94.2727639506,379.3345467875c1.7608032227-2.4249725342,3.8229064941-4.5889892578,6.0065002441-6.5389862061,2.1858978271-1.9529876709,4.5626983643-3.6490020752,7.0753936768-5.0380096436.5417175293-.4169921875,1.1123046875-.7919921875,1.69480896-1.1479797363,5.9705963135-3.8520202637,12.9523010254-6.0810241699,20.0516967773-6.4130249023l2.0492095947-.0689849854c5.7061920166-.6180114746,11.6661834717-.0230102539,17.3641967773,1.8499908447.6109924316.0360107422,1.5059967041-1.8600006104,1.0299835205-2.3050079346-5.5059967041-3.1489868164-11.8149871826-5.1709899902-18.3864898682-5.7949981689l-2.358001709.0760040283c-8.175201416.3809967041-16.2512054443,2.9580078125-23.1303863525,7.3979949951-.6704101562.4140014648-1.3272094727.8470001221-1.9533996582,1.325012207-2.5048065186,2.1459960938-4.7397003174,4.5599975586-6.6727142334,7.1560058594-1.9311065674,2.5939941406-3.6295928955,5.3269958496-4.945098877,8.2189941406-.1396942139.6319885254,1.6876068115,1.6599884033,2.1743011475,1.282989502h0Z" fill="#1d1d1b"/>
  <path d="M151.2185494731,360.5325448344c4.9290161133-7.5,11.6880187988-13.6909942627,19.4420166016-17.9019927979,7.7599945068-4.2140045166,16.4969940186-6.3789978027,25.1660003662-6.3780059814,1.0379943848-.0319824219,2.0749816895-.095993042,3.1130065918-.0319824219,1.0369873047.0389862061,2.0769958496.0399932861,3.1100006104.1520080566,10.7699737549.821975708,21.203994751,5.1059875488,29.4979705811,12.0260009766,4.1460266113,3.4539794922,7.757019043,7.5529785156,10.6730194092,12.0919799805,1.4530029297,2.2740020752,2.7340087891,4.6560058594,3.828994751,7.1210021973.5430145264,1.2339935303,1.0400085449,2.4889984131,1.4890136719,3.7610015869l.1679992676.4769897461.2799987793.8460235596.3150024414.9619750977.1569824219.4810028076c.0840148926.1390075684.2850189209.2010040283.4220123291.3050079346l2.5160064697,1.5569915771c1.6609954834,1.1480102539,3.2969970703,2.3500061035,4.75,3.7600250244,3.2219848633,2.7409973145,5.8859863281,6.1369781494,7.9859924316,9.858001709,2.0149841309,3.7629699707,3.4859924316,7.8789825439,4.0719909668,12.1759796143l.2210083008,1.6119689941.1119995117,1.6250152588c.1029968262,1.0860290527.0899963379,2.1710205078.0660095215,3.2600097656-.0690002441,2.175994873-.3370056152,4.3550109863-.7890014648,6.507019043l-.1019897461.4649963379c-.0230102539.0919952393-.0379943848.2489929199-.0490112305.3139953613l-.0249938965.2050018311-.1119995117.8210144043c-.0780029297.5469970703-.1710205078,1.0909881592-.2700195312,1.6359558105-.2030029297,1.0860137939-.4479980469,2.1670074463-.7349853516,3.2380065918-.1430053711.5350341797-.2990112305,1.0680236816-.4630126953,1.5980072021l-.4739990234,1.4459991455c-.0989990234.3079986572-.2119750977.6220092773-.3309936523.9440155029-.2530212402.1179656982-.6280212402.0659637451-.9530029297.1069793701-1.3229980469.2150115967-1.858001709,2.3110351562.3710021973,2.5250244141l1.2149963379.0220031738.6139831543.0109863281.308013916.0050048828.1540222168.0030212402.0759887695-.1170349121c.3349914551-.7300109863.6819763184-1.4599914551,1.0019836426-2.2199859619l.4010009766-.9510040283.3290100098-.8249969482c.2129821777-.5540008545.4179992676-1.1100006104.6099853516-1.6720123291.3840026855-1.1230010986.7250061035-2.2619781494,1.0220031738-3.4139862061.1459960938-.5770111084.2860107422-1.1559906006.4100341797-1.7380065918l.1799621582-.8749847412.0420227051-.2200164795.0270080566-.1090087891.108001709-.3689727783c.6489868164-2.303024292,1.1069641113-4.6719970703,1.3469848633-7.0740203857.1089782715-1.1999664307.2019958496-2.4119873047.1750183105-3.6180267334l-.0050354004-1.8139648438-.1209716797-1.8119812012c-.3340148926-4.8440093994-1.6610107422-9.6190185547-3.683013916-14.0850067139-2.1050109863-4.4230041504-4.9239807129-8.5650177002-8.4700012207-12.0320129395-1.7090148926-1.6500091553-3.6210021973-3.0699920654-5.5760040283-4.4110107422l-.9839935303-.6109924316c-.171005249-.1060028076-.1600036621-.0979919434-.1490020752-.091003418.004989624.0030059814.0099945068.0059967041.0019989014.0019989014l.0019989014.0019989014-.2749938965-.7919921875c-.5030059814-1.4230041504-1.0590057373-2.8269958496-1.6670074463-4.208984375-1.2249908447-2.758026123-2.657989502-5.4239959717-4.282989502-7.9660186768-3.262008667-5.078994751-7.2950134277-9.6549835205-11.9320068359-13.5180053711-4.6280212402-3.8779754639-9.8829956055-6.9850006104-15.4580078125-9.2910003662-5.5809936523-2.3109893799-11.5390014648-3.6649780273-17.5479888916-4.1669921875-1.154006958-.1210021973-2.3159942627-.1280059814-3.4740142822-.1699829102-1.1589813232-.0660247803-2.3179931641-.0010223389-3.475982666.0359802246-9.6650085449.654006958-19.0980224609,3.7270050049-27.1590270996,8.8419952393-8.0629730225,5.1139984131-14.7589874268,12.1910095215-19.3719787598,20.3670043945-.7819976807,1.6629943848,1.0599822998,2.6679992676,2.1549835205,1.3159942627" fill="#1d1d1b"/>
  <g clip-path="url(#clippath-1)">
    <path d="M261.6635720561,425.8255593608l-61.6320037842-1.4899902344h-91.5275115967l-61.6319885254,1.4899902344c-1.9877929688.171005249-1.9877929688,1.8480224609,0,2.0200195312l61.6319885254,1.4899597168h91.5275115967l61.6320037842-1.4899597168c1.9879760742-.1719970703,1.9879760742-1.8490142822,0-2.0200195312h0Z" fill="#1d1d1b"/>
    <path d="M46.0635659526,425.5885445903c-4.374420166-7.5380096436-5.389251709-16.5839691162-3.1341247559-24.4899902344.2129211426-.9550170898.4835510254-1.8970031738.715423584-2.8479766846,1.4606018066-4.8810119629,4.2012939453-9.3450317383,7.7480926514-13.0000305176,3.6327056885-3.5739746094,8.1007080078-6.3020019531,12.9660949707-7.8069915771l2.8450164795-.7279968262c3.9453887939-1.1239929199,8.1886901855-1.4509887695,12.3802947998-.967010498,4.1900024414.507019043,8.3469085693,1.8510131836,12.1225128174,4.0100097656.8094940186.282989502,2.0403900146-1.4150085449,1.4008789062-2.1000061035-3.7035827637-2.8579864502-8.0413818359-4.9889831543-12.6852874756-6.2169952393-4.6475982666-1.2030029297-9.5798034668-1.5299987793-14.4636993408-.8509979248l-3.4212036133.8739929199c-5.8544921875,1.8049926758-11.2241973877,5.0810089111-15.5730895996,9.3760070801-4.2645874023,4.3739929199-7.5490112305,9.7419891357-9.3057861328,15.6139984131-.288848877,1.1399993896-.6075744629,2.2759857178-.8590698242,3.4240112305-.6662902832,4.8849945068-.325378418,9.8160095215.9026489258,14.4589691162,1.2476501465,4.6380004883,3.3928527832,8.9680175781,6.2667541504,12.6610107422.6873779297.6360321045,2.3804016113-.6020050049,2.094543457-1.4100036621h0Z" fill="#1d1d1b"/>
  </g>
  <path d="M375.7265603373,326.996549351h7.1059875488c1.0540161133,0,1.9080200195.8540039062,1.9080200195,1.9069976807v96.9619903564c0,1.0539855957-.8540039062,1.907989502-1.9080200195,1.907989502h-7.1059875488c-1.0529785156,0-1.907989502-.8540039062-1.907989502-1.907989502v-96.9619903564c0-1.0529937744.8550109863-1.9069976807,1.907989502-1.9069976807" fill="#008939"/>
  <path d="M373.6545693705,326.8505532573c-.3500366211.3489990234-.6240234375.7850036621-.7610168457,1.2689971924-.0739746094.2400054932-.1069946289.4900054932-.117980957.7400054932l-.0130310059.5019989014-.0469665527,1.9469909668-.0930175781,3.8930053711-.1860046387,7.7870178223-.3720092773,15.5739898682-.7459716797,31.1490020752v35.3440093994c.0050048828.1149902344-.0090026855.6019592285.0100097656.9929962158.0079956055.4039916992.0899658203.7840118408.1999816895,1.157989502.4710083008,1.4870147705,1.7550048828,2.6620025635,3.2940063477,2.9699859619.3810119629.0820007324.7820129395.1030273438,1.1870117188.0970153809h6.2169799805c.3760070801.0020141602.8040161133.008972168,1.1889953613-.0400085449,1.5620117188-.1979675293,2.9290161133-1.275970459,3.5050048828-2.7219848633.1480102539-.3600006104.2340087891-.7420043945.2890014648-1.1310119629.0379943848-.3730010986.0320129395-.8499908447.0310058594-1.1559906006v-42.620010376l-.7449951172-31.1479949951-.3720092773-15.5739898682-.0939941406-3.8930206299-.0459594727-1.9469909668-.0300292969-1.1800079346c-.0230102539-.4749908447-.1290283203-.9400024414-.3510131836-1.3519897461-.425994873-.8310089111-1.2470092773-1.4350128174-2.1610107422-1.5960083008-.2290039062-.0399932861-.4599914551-.0559997559-.6969909668-.0540008545l-.6440124512.0090026855-.9730224609.0240020752-3.893951416.0930023193c-2.0090026855.1709899902-2.0090026855,1.8479919434,0,2.0189971924l3.893951416.0939941406.9730224609.0230255127.3290100098.0110015869.2610168457.020980835c.3439941406.0570068359.6429443359.3049926758.7659912109.6239929199.0659790039.1580047607.0759887695.3320007324.0650024414.4990234375l-.0230102539.7649841309-.0469970703,1.9469909668-.092956543,3.8930206299-.373046875,15.5739898682-.7449951172,31.1479949951v42.6689910889h-5.9209899902v-35.5619812012l-.7460021973-31.1490020752-.3720092773-15.5739898682-.1860046387-7.7870178223-.0939941406-3.8930053711-.0459899902-1.9469909668-.0110473633-.4710083008.0210266113-.2200012207c.0270080566-.1459960938.1050109863-.2799987793.2040100098-.3979949951.2340087891-.3829956055.6029968262-.8049926758.6369934082-1.2760009766.0020141602-.2239990234-.1310119629-.4759979248-.5-.5969848633-.3540039062-.1149902344-.9880065918-.0670166016-1.5719909668.4509887695" fill="#1d1d1b"/>
  <path d="M266.2735574076,327.4545724223h7.1059875488c1.0530395508,0,1.9080200195.8539886475,1.9080200195,1.907989502v96.9619750977c0,1.053024292-.8549804688,1.9080047607-1.9080200195,1.9080047607h-7.1059875488c-1.0539855957,0-1.907989502-.8549804688-1.907989502-1.9080047607v-96.9619750977c0-1.0540008545.8540039062-1.907989502,1.907989502-1.907989502" fill="#008939"/>
  <path d="M264.2005593608,327.3095681498c-.3489990234.3479766846-.6239929199.7839813232-.7600097656,1.2679901123-.074005127.2399902344-.1069946289.4909973145-.117980957.7399902344l-.0140075684.5030059814-.0459899902,1.9459991455-.0930175781,3.8939971924-.1869812012,7.7870025635-.3720092773,15.574005127-.7449951172,31.1479949951v35.3449859619c.0039978027.115020752-.0090026855.6010284424.0090026855.9930114746.0090026855.4030151367.091003418.7839813232.2009887695,1.1580047607.4700012207,1.4869689941,1.7550048828,2.6609802246,3.2940063477,2.9700012207.3800048828.0810241699.7819824219.1019897461,1.1869812012.0970153809h6.2170410156c.3759765625.0010070801.8029785156.0079650879,1.1879882812-.041015625,1.5629882812-.1980285645,2.9289855957-1.2760314941,3.5059814453-2.7210083008.1470031738-.3599853516.2340087891-.7429962158.2880249023-1.1309967041.0389709473-.3729858398.0319824219-.8510131836.0319824219-1.1560058594v-42.6199798584l-.7460021973-31.1480102539-.3720092773-15.574005127-.0929870605-3.8939971924-.0469970703-1.9470062256-.0289916992-1.1799926758c-.024017334-.4750061035-.1290283203-.9389953613-.3510131836-1.3509979248-.425994873-.8309936523-1.2480163574-1.4359893799-2.1619873047-1.5970001221-.2280273438-.0390014648-.4600219727-.0559997559-.6970214844-.0539855957l-.6430053711.009979248-.9739990234.0230102539-3.8930053711.0930023193c-2.009979248.1719818115-2.009979248,1.8479919434,0,2.0200042725l3.8930053711.0929870605.9739990234.0229949951.3280029297.012008667.2610168457.0209960938c.3450012207.0559997559.6439819336.3040008545.7659912109.6230163574.0660095215.1579742432.0769958496.3319854736.0650024414.4989776611l-.0230102539.7649993896-.0469665527,1.9470062256-.0930175781,3.8939971924-.3720092773,15.574005127-.7449951172,31.1480102539v42.6689910889h-5.9219970703v-35.56300354l-.7449951172-31.1479949951-.3729858398-15.574005127-.1860351562-7.7870025635-.0929870605-3.8939971924-.0469970703-1.9459991455-.0100097656-.4710083008.0199890137-.2209777832c.0270385742-.1460113525.1060180664-.2800140381.2040100098-.3980102539.2350158691-.3830108643.6040039062-.8040008545.6380004883-1.2759857178.0020141602-.2230072021-.1310119629-.4760131836-.5010070801-.5960235596-.3540039062-.1159973145-.9879760742-.0670013428-1.5719909668.4510192871" fill="#1d1d1b"/>
  <path d="M375.7265603373,326.996549351h7.1059875488c1.0540161133,0,1.9080200195.8540039062,1.9080200195,1.9069976807v96.9619903564c0,1.0539855957-.8540039062,1.907989502-1.9080200195,1.907989502h-7.1059875488c-1.0529785156,0-1.907989502-.8540039062-1.907989502-1.907989502v-96.9619903564c0-1.0529937744.8550109863-1.9069976807,1.907989502-1.9069976807" fill="#008939"/>
  <path d="M373.8335549662,327.0285470317c-.3179931641.3200073242-.5679931641.7180023193-.6909790039,1.1600036621-.0670166016.2189941406-.0960083008.4470062256-.1060180664.6750030518l-.009979248.4980010986-.0350036621,1.9469909668-.0700073242,3.8930053711-.1390075684,7.7870178223-.2800292969,15.5739898682-.5589599609,31.1490020752v35.3440093994c.0279541016.4479827881-.0670166016.6350097656.083984375,1.6009521484.3220214844,1.5910339355,1.7460021973,2.8570251465,3.3670043945,2.9770507812l.2990112305.0139770508.1679992676.0009765625h6.9709777832c1.6200256348.0220336914,3.1580200195-1.1129455566,3.615020752-2.6669769287.1189880371-.3709869385.1690063477-.8209838867.1679992676-1.1509857178v-43.2260131836l-.5589904785-31.1479949951-.2790222168-15.5739898682-.0699768066-3.8930206299-.0350036621-1.9469909668-.016998291-.9729919434c-.0039978027-.1290130615-.0020141602-.4080047607-.0500183105-.6360168457-.041015625-.2359924316-.1159973145-.4659881592-.2169799805-.6829986572-.3980102539-.8710021973-1.2640380859-1.4929962158-2.2080078125-1.5930023193-.1159973145-.0159912109-.2350158691-.0149993896-.3500061035-.0189971924l-.2430114746.0039978027-.4869995117.0090026855-.9730224609.016998291-3.893951416.0700073242c-2.0090026855.1289978027-2.0090026855,1.3860015869,0,1.5149993896l3.893951416.0699920654.9730224609.0170288086.4869995117.008972168.2430114746.0040130615.1350097656.0149993896c.3500061035.0519866943.6609802246.300994873.7879943848.6209869385l.0650024414.2460021973c.0149841309.0899963379.0090026855.1380004883.0079956055.3340148926l-.0180053711.9729919434-.0350036621,1.9469909668-.0690002441,3.8930206299-.2799987793,15.5739898682-.5589904785,31.1479949951v41.4080200195l-.0010070801,1.8639526367-.0320129395.0220031738h-4.8489685059l-2.2620544434-.0009613037-.025970459-.0229949951-.0019836426-9.3060150146v-26.8569946289l-.5580444336-31.1490020752-.2799682617-15.5739898682-.1389770508-7.7870178223-.0700073242-3.8930053711-.0350036621-1.9469909668-.0079956055-.4750061035c.0019836426-.095993042.0069885254-.1929931641.032989502-.2849884033.041015625-.18800354.1440124512-.3600006104.2730102539-.5070037842.367980957-.4609985352.799987793-.7350006104.816986084-1.0980072021.0020141602-.1659851074-.1300048828-.3589782715-.4689941406-.43800354-.325012207-.0749969482-.8959960938-.0069885254-1.4240112305.4700012207" fill="#1d1d1b"/>
  <path d="M266.2735574076,327.4545724223h7.1059875488c1.0530395508,0,1.9080200195.8539886475,1.9080200195,1.907989502v96.9619750977c0,1.053024292-.8549804688,1.9080047607-1.9080200195,1.9080047607h-7.1059875488c-1.0539855957,0-1.907989502-.8549804688-1.907989502-1.9080047607v-96.9619750977c0-1.0540008545.8540039062-1.907989502,1.907989502-1.907989502" fill="#008939"/>
  <path d="M264.3805520366,327.4865548442c-.3190002441.3199920654-.5690002441.7180175781-.6909790039,1.1600036621-.0670166016.2189941406-.0970153809.4479980469-.1059875488.6750030518l-.0100402832.4989929199-.0349731445,1.9459991455-.0700073242,3.8939971924-.1400146484,7.7870025635-.2789611816,15.574005127-.5590209961,31.1479949951v35.3449859619c.0269775391.4479980469-.0670166016.6350097656.083984375,1.6010131836.3210144043,1.5909881592,1.7449951172,2.8570098877,3.3670349121,2.9759979248l.2979736328.0150146484.1679992676.0009765625h6.9719848633c1.6190185547.0220031738,3.1570129395-1.1140136719,3.615020752-2.6679992676.1180114746-.3699798584.1690063477-.8209838867.1679992676-1.1499786377v-43.2259979248l-.5589904785-31.1480102539-.2800292969-15.574005127-.0690002441-3.8939971924-.0349731445-1.9470062256-.0180053711-.9729919434c-.0039978027-.1279907227-.0010070801-.4069976807-.049987793-.6360015869-.041015625-.2360076904-.116027832-.466003418-.217010498-.6820068359-.3970031738-.8719940186-1.2640075684-1.4939727783-2.2070007324-1.5939788818-.1159973145-.0160217285-.2360229492-.0140228271-.3510131836-.0189971924l-.242980957.0049743652-.4860229492.0080108643-.9739990234.0179901123-3.8930053711.0700073242c-2.009979248.1279907227-2.009979248,1.3860015869,0,1.5140075684l3.8930053711.0699920654.9739990234.0180053711.4860229492.0079956055.242980957.0050048828.1350097656.0140075684c.3500061035.0520019531.6610107422.300994873.7880249023.6209869385l.0659790039.2460021973c.0139770508.0910186768.0079956055.1389923096.007019043.3339996338l-.0170288086.9729919434-.0349731445,1.9470062256-.0700073242,3.8939971924-.2800292969,15.574005127-.5579833984,31.1480102539v41.4070129395l-.0020141602,1.8639831543-.0310058594.0229949951h-4.8499755859l-2.2609863281-.0020294189-.0270385742-.0229644775-.0009765625-9.3050079346v-26.858001709l-.5589904785-31.1479949951-.2790222168-15.574005127-.1399841309-7.7870025635-.0700073242-3.8939971924-.0350036621-1.9459991455-.0069885254-.4750061035c.0019836426-.095993042.0059814453-.1940002441.0319824219-.2859954834.041015625-.18800354.1440124512-.3600006104.274017334-.5070037842.366973877-.4609985352.7989807129-.7350006104.816986084-1.0979766846.0010070801-.166015625-.1300048828-.3590240479-.4689941406-.43800354-.3259887695-.0740203857-.8970031738-.007019043-1.4240112305.4699859619" fill="#1d1d1b"/>
  <path d="M402.462552769,355.4785744975h-146.1309814453c-1.5800170898,0-2.8619995117-1.2810058594-2.8619995117-2.8620300293v-14.0410003662c0-1.5799865723,1.2819824219-2.8609924316,2.8619995117-2.8609924316h146.1309814453c1.5800170898,0,2.8610229492,1.2810058594,2.8610229492,2.8609924316v14.0410003662c0,1.5810241699-1.2810058594,2.8620300293-2.8610229492,2.8620300293" fill="#8abd24"/>
  <path d="M402.462552769,335.7145516703h-10.6979980469c-15.3280029297,13.8359985352-68.5859985352,16.1340026855-112.2459716797,16.1340026855-9.8550109863,0-18.4990234375-.1179962158-26.0490112305-.4589996338v1.2269897461c0,1.5810241699,1.2819824219,2.8620300293,2.8619995117,2.8620300293h146.1309814453c1.5800170898,0,2.8610229492-1.2810058594,2.8610229492-2.8620300293v-14.0410003662c0-1.5799865723-1.2810058594-2.8609924316-2.8610229492-2.8609924316" fill="#008939"/>
  <path d="M256.4105813334,351.5095650981c-.9980163574-.0370025635-1.9780273438-.0760192871-2.9410095215-.120010376v-12.8140106201c0-1.5799865723,1.2819824219-2.8609924316,2.8619995117-2.8609924316h135.4329833984c-1.2959899902,1.1690063477-2.8619995117,2.2559967041-4.6709899902,3.2660064697h-127.8210144043c-1.5809631348,0-2.8619689941,1.2809906006-2.8619689941,2.8619995117v9.6670074463" fill="#cbde9b"/>
  <path d="M256.4105813334,355.4785744975h-.0790100098c-1.5800170898,0-2.8619995117-1.2810058594-2.8619995117-2.8620300293v-1.2269897461c.9629821777.0439910889,1.9429931641.0830078125,2.9410095215.120010376v3.9690093994M405.3235757182,338.9805581401h-18.2300109863c1.8089904785-1.0100097656,3.375-2.0970001221,4.6709899902-3.2660064697h10.6979980469c1.5800170898,0,2.8610229492,1.2810058594,2.8610229492,2.8609924316v.4050140381" fill="#90c093"/>
  <path d="M269.8265664409,343.6635567973h0c-1.3119812012,0-2.384979248-1.074005127-2.384979248-2.3850097656,0-1.3119812012,1.0729980469-2.384979248,2.384979248-2.384979248,1.3110046387,0,2.3850097656,1.0729980469,2.3850097656,2.384979248,0,1.3110046387-1.074005127,2.3850097656-2.3850097656,2.3850097656h0Z" fill="#005538"/>
  <path d="M269.8265664409,352.7205483744h0c-1.3119812012,0-2.384979248-1.0729980469-2.384979248-2.3839874268h0c0-1.3120117188,1.0729980469-2.3850097656,2.384979248-2.3850097656,1.3110046387,0,2.3850097656,1.0729980469,2.3850097656,2.3850097656h0c0,1.3109893799-1.074005127,2.3839874268-2.3850097656,2.3839874268h0Z" fill="#005538"/>
  <path d="M389.361570103,343.6635567973h0c-1.3120117188,0-2.3850097656-1.074005127-2.3850097656-2.3850097656,0-1.3119812012,1.0729980469-2.384979248,2.3850097656-2.384979248s2.3850097656,1.0729980469,2.3850097656,2.384979248c0,1.3110046387-1.0729980469,2.3850097656-2.3850097656,2.3850097656h0Z" fill="#005538"/>
  <path d="M389.361570103,352.7205483744h0c-1.3120117188,0-2.3850097656-1.0729980469-2.3850097656-2.3839874268h0c0-1.3120117188,1.0729980469-2.3850097656,2.3850097656-2.3850097656s2.3850097656,1.0729980469,2.3850097656,2.3850097656h0c0,1.3109893799-1.0729980469,2.3839874268-2.3850097656,2.3839874268h0Z" fill="#005538"/>
  <path d="M252.7125680278,339.7035500834l-.279006958,11.6500244141-.0179901123.7279968262c-.0010070801.2689819336-.0220031738.4239807129-.0050048828.799987793.0249786377.6659851074.2420043945,1.3269958496.595993042,1.8979949951.6930084229,1.1490020752,2.074005127,1.8929901123,3.3930053711,1.8760070801l5.825012207.1389923096,23.300994873.5590209961h69.2070007324l46.6019897461-1.1170043945c1.5039978027-.1290130615,1.5039978027-1.3870239258,0-1.5149993896l-46.6019897461-1.1179962158h-69.2070007324l-23.300994873.5589752197-5.825012207.1399993896c-.6309967041.0380096436-1.1790008545-.2369995117-1.5390014648-.7310028076-.1669921875-.2449951172-.2859954834-.5279998779-.31199646-.8329772949-.0189971924-.1090240479-.0160064697-.4410247803-.0240020752-.6569976807l-.0180053711-.7279968262-.2789916992-11.6500244141c-.1289978027-1.5030059814-1.3860015869-1.5030059814-1.5149993896,0h0Z" fill="#1d1d1b"/>
  <path d="M403.9225747416,355.9265572856c1.2059936523-.4900054932,2.0929870605-1.6879882812,2.2139892578-3.0099945068.0299987793-.3620147705.0230102539-.5639953613.0320129395-.8340148926l.0179748535-.7679901123.0350036621-1.5360107422.1390075684-6.1429901123.0700073242-3.0709838867.0350036621-1.536026001.0090026855-.3839874268c.0029907227-.1240081787-.0039978027-.3430023193-.0170288086-.5100097656-.0380249023-.3569946289-.1129760742-.7129974365-.2449951172-1.050994873-.5059814453-1.3590087891-1.7940063477-2.4020080566-3.2659912109-2.5850067139-.173034668-.0249938965-.3850097656-.032989502-.5289916992-.0390014648l-.3840026855-.0090026855-.7680358887-.0179901123-1.535949707-.0349884033-24.5730285645-.558013916h-72.9839782715l-24.5729980469.558013916-12.2870178223.2799835205-6.1429748535.1390228271-1.5360107422.0349731445-.7680053711.0180053711c-.2689819336.0090026855-.4720153809.0019989014-.833984375.0319976807-1.3220214844.1210021973-2.5190124512,1.0080108643-3.0100097656,2.2140045166-.3290100098.9870147705.1289978027,1.4869995117.4479980469,1.4599914551.3609924316-.0119934082.6559906006-.3579711914.9379882812-.8479766846.3190002441-.6880187988,1.0320129395-1.1470031738,1.758026123-1.1770019531l3.0039978027.0609893799,6.1429748535.1389923096,12.2870178223.2799987793,24.5729980469.5590057373h72.9839782715l24.5730285645-.5590057373,1.535949707-.0349884033.7680358887-.0179901123.3840026855-.0080108643c.1109924316.0010070801.1560058594-.0010070801.2369995117.0039978027.5759887695.0350036621,1.1300048828.4279937744,1.3720092773.9799957275.0639953613.137008667.0989990234.283996582.1269836426.4340057373.007019043.0879974365.0159606934.125.0200195312.2570037842l.008972168.3839874268.0350036621,1.536026001.0700073242,3.0709838867.1389770508,6.1429901123.0610351562,3.0050201416c-.0299987793.725982666-.4890136719,1.4389801025-1.1770019531,1.7579803467-.4890136719.2819976807-.8359985352.5770263672-.8480224609.9370269775-.0269775391.3189697266.4730224609.7779846191,1.4600219727.4479827881h0Z" fill="#1d1d1b"/>
  <path d="M402.462552769,380.2275521586h-146.1309814453c-1.5800170898,0-2.8619995117-1.2810058594-2.8619995117-2.8619995117v-14.0410003662c0-1.5809936523,1.2819824219-2.8619995117,2.8619995117-2.8619995117h146.1309814453c1.5800170898,0,2.8610229492,1.2810058594,2.8610229492,2.8619995117v14.0410003662c0,1.5809936523-1.2810058594,2.8619995117-2.8610229492,2.8619995117" fill="#8abd24"/>
  <path d="M402.462552769,360.462552769h-10.6979980469c-15.3280029297,13.837020874-68.5859985352,16.1350097656-112.2459716797,16.1350097656-9.8550109863,0-18.4990234375-.1189880371-26.0490112305-.4590148926v1.2270050049c0,1.5809936523,1.2819824219,2.8619995117,2.8619995117,2.8619995117h146.1309814453c1.5800170898,0,2.8610229492-1.2810058594,2.8610229492-2.8619995117v-14.0410003662c0-1.5809936523-1.2810058594-2.8619995117-2.8610229492-2.8619995117" fill="#008939"/>
  <path d="M256.4105813334,376.2575509379c-.9980163574-.0359954834-1.9780273438-.0759887695-2.9410095215-.1190032959v-12.8139953613c0-1.5809936523,1.2819824219-2.8619995117,2.8619995117-2.8619995117h135.4329833984c-1.2959899902,1.1699981689-2.8609924316,2.2560119629-4.6699829102,3.266998291h-127.8220214844c-1.5809631348,0-2.8619689941,1.2810058594-2.8619689941,2.8610076904v9.6669921875" fill="#cbde9b"/>
  <path d="M256.4105813334,380.2275521586h-.0790100098c-1.5800170898,0-2.8619995117-1.2810058594-2.8619995117-2.8619995117v-1.2270050049c.9629821777.0430145264,1.9429931641.0830078125,2.9410095215.1190032959v3.9700012207M405.3235757182,363.72955106h-18.2290039062c1.8089904785-1.0109863281,3.3739929199-2.0970001221,4.6699829102-3.266998291h10.6979980469c1.5800170898,0,2.8610229492,1.2810058594,2.8610229492,2.8619995117v.4049987793" fill="#90c093"/>
  <path d="M269.8265664409,368.4115578959h0c-1.3119812012,0-2.384979248-1.0730133057-2.384979248-2.3840026855h0c0-1.31199646,1.0729980469-2.3850097656,2.384979248-2.3850097656,1.3110046387,0,2.3850097656,1.0730133057,2.3850097656,2.3850097656h0c0,1.3109893799-1.074005127,2.3840026855-2.3850097656,2.3840026855h0Z" fill="#005538"/>
  <path d="M269.8265664409,377.4695565532h0c-1.3119812012,0-2.384979248-1.0729980469-2.384979248-2.3850097656,0-1.3109893799,1.0729980469-2.3849945068,2.384979248-2.3849945068,1.3110046387,0,2.3850097656,1.074005127,2.3850097656,2.3849945068,0,1.3120117188-1.074005127,2.3850097656-2.3850097656,2.3850097656h0Z" fill="#005538"/>
  <path d="M389.361570103,368.4115578959h0c-1.3120117188,0-2.3850097656-1.0730133057-2.3850097656-2.3840026855h0c0-1.31199646,1.0729980469-2.3850097656,2.3850097656-2.3850097656s2.3850097656,1.0730133057,2.3850097656,2.3850097656h0c0,1.3109893799-1.0729980469,2.3840026855-2.3850097656,2.3840026855h0Z" fill="#005538"/>
  <path d="M389.361570103,377.4695565532h0c-1.3120117188,0-2.3850097656-1.0729980469-2.3850097656-2.3850097656,0-1.3109893799,1.0729980469-2.3849945068,2.3850097656-2.3849945068s2.3850097656,1.074005127,2.3850097656,2.3849945068c0,1.3120117188-1.0729980469,2.3850097656-2.3850097656,2.3850097656h0Z" fill="#005538"/>
  <path d="M252.7125680278,364.4515511821l-.279006958,11.6510009766-.0179901123.7279968262c-.0010070801.2689971924-.0220031738.4230041504-.0050048828.7990112305.0249786377.6669921875.2420043945,1.3279876709.595993042,1.8989868164.6930084229,1.149017334,2.074005127,1.8920135498,3.3930053711,1.875l5.825012207.1399993896,23.300994873.5590057373h69.2070007324l46.6019897461-1.1179962158c1.5039978027-.1280059814,1.5039978027-1.3860015869,0-1.5149993896l-46.6019897461-1.1170043945h-69.2070007324l-23.300994873.5590057373-5.825012207.1389923096c-.6309967041.0380096436-1.1790008545-.2359924316-1.5390014648-.7299957275-.1669921875-.245010376-.2859954834-.529006958-.31199646-.8339996338-.0189971924-.108001709-.0160064697-.4399871826-.0240020752-.6560058594l-.0180053711-.7279968262-.2789916992-11.6510009766c-.1289978027-1.5030059814-1.3860015869-1.5030059814-1.5149993896,0h0Z" fill="#1d1d1b"/>
  <path d="M403.9225747416,380.6755502055c1.2059936523-.4900054932,2.0929870605-1.68800354,2.2139892578-3.0099945068.0299987793-.3619995117.0230102539-.5650024414.0320129395-.833984375l.0179748535-.7680206299.0350036621-1.5359954834.1390075684-6.1429901123.0700073242-3.0720062256.0350036621-1.5359954834.0090026855-.3840179443c.0029907227-.1239776611-.0039978027-.3419952393-.0170288086-.5089874268-.0380249023-.3570098877-.1129760742-.7139892578-.2449951172-1.0519866943-.5059814453-1.3590087891-1.7940063477-2.4020080566-3.2659912109-2.5850219727-.173034668-.0240020752-.3850097656-.0319976807-.5289916992-.0390014648l-.3840026855-.0090026855-.7680358887-.016998291-1.535949707-.0349884033-24.5730285645-.5590057373h-72.9839782715l-24.5729980469.5590057373-12.2870178223.279006958-6.1429748535.1399841309-1.5360107422.0350036621-.7680053711.0180206299c-.2689819336.008972168-.4720153809.0019836426-.833984375.0309753418-1.3220214844.1220092773-2.5190124512,1.0079956055-3.0100097656,2.2140045166-.3290100098.987991333.1289978027,1.487991333.4479980469,1.4609985352.3609924316-.0130004883.6559906006-.3589935303.9379882812-.8489990234.3190002441-.68800354,1.0320129395-1.1470031738,1.758026123-1.175994873l3.0039978027.0599975586,6.1429748535.1399993896,12.2870178223.2789916992,24.5729980469.5590057373h72.9839782715l24.5730285645-.5590057373,1.535949707-.033996582.7680358887-.0180053711.3840026855-.0089874268c.1109924316.0019989014.1560058594,0,.2369995117.004989624.5759887695.0350036621,1.1300048828.428024292,1.3720092773.9800109863.0639953613.1359863281.0989990234.283996582.1269836426.4329986572.007019043.0880126953.0159606934.1259918213.0200195312.2569885254l.008972168.3840179443.0350036621,1.5359954834.0700073242,3.0720062256.1389770508,6.1429901123.0610351562,3.004989624c-.0299987793.7260131836-.4890136719,1.43800354-1.1770019531,1.7580108643-.4890136719.2819976807-.8359985352.5769958496-.8480224609.93699646-.0269775391.3190002441.4730224609.7779998779,1.4600219727.4479980469h0Z" fill="#1d1d1b"/>
  <path d="M413.1735818217,404.3145577739h-166.2930297852c-1.5809936523,0-2.8619995117-1.2810058594-2.8619995117-2.8619842529v-5.9580230713c0-1.5799713135,1.2810058594-2.8609771729,2.8619995117-2.8609771729h166.2930297852c1.5809631348,0,2.8619689941,1.2810058594,2.8619689941,2.8609771729v5.9580230713c0,1.5809783936-1.2810058594,2.8619842529-2.8619689941,2.8619842529" fill="#8abd24"/>
  <path d="M412.7935769389,392.6335732768h-12.1180114746c-17.3630065918,8.1769866943-77.6929931641,9.5359802246-127.1489868164,9.5359802246-11.1640014648,0-20.9560089111-.0699920654-29.508026123-.271987915v.7259674072c0,.9340209961,1.4510040283,1.6910247803,3.2420196533,1.6910247803h165.5330047607c1.7909851074,0,3.241973877-.7570037842,3.241973877-1.6910247803v-8.2990112305c0-.9339752197-1.4509887695-1.6909484863-3.241973877-1.6909484863" fill="#008939"/>
  <path d="M244.0525643657,401.8985574076c-.0110015869,0-.0229949951,0-.0340118408-.0009918213v-.4449920654c0,.1519927979.012008667.300994873.0340118408.4459838867M244.0185525248,395.4945504496v-1.1700286865c0-.7119750977.8430175781-1.3209686279,2.0370178223-1.5709533691-1.1790008545.3539886475-2.0370178223,1.4479980469-2.0370178223,2.7409820557" fill="#90c093"/>
  <path d="M247.349561436,401.9685494731c-1.1190032959-.0210113525-2.2180023193-.0440063477-3.2969970703-.0699920654-.0220031738-.1449890137-.0340118408-.2939910889-.0340118408-.4459838867v-5.9580230713c0-1.2929840088.8580169678-2.3869934082,2.0370178223-2.7409820557.3719787598-.0780181885.7789916992-.1199951172,1.2050018311-.1199951172h153.4149932861c-1.4679870605.6909637451-3.2409973145,1.3330078125-5.2900390625,1.9299926758h-144.7939605713c-1.7910003662,0-3.2420043945.7569732666-3.2420043945,1.6919708252v5.7130126953" fill="#cbde9b"/>
  <path d="M247.349561436,404.3145577739h-.0889892578c-1.791015625,0-3.2420196533-.7570037842-3.2420196533-1.6910247803v-.7259674072c.0110168457.0009918213.0230102539.0009918213.0340118408.0009918213,1.078994751.0259857178,2.1779937744.0489807129,3.2969970703.0699920654v2.3460083008M416.0355508159,394.5635659526h-20.6500244141c2.049041748-.5969848633,3.822052002-1.2390289307,5.2900390625-1.9299926758h12.1180114746c1.7909851074,0,3.241973877.7569732666,3.241973877,1.6909484863v.2390441895" fill="#90c093"/>
  <path d="M324.912564976,391.8755471537l-51.4429931641-.5589904785-25.7220001221-.2789916992c-.4720001221-.0110168457-1.2440032959-.0180206299-1.904006958.1159820557-.6909942627.1500091553-1.3399963379.2779998779-2.2420043945.921005249-.3949890137.2990112305-.7319946289.6729736328-.9509887695,1.1119995117-.2250061035.4420013428-.2850189209.9349975586-.2799987793,1.4389953613l-.0180053711,1.6720123291-.033996582,3.2149963379-.0180053711,1.608001709-.0090026855.8039855957c.0070037842.1540222168-.041015625.8320007324.0690002441,1.2880096436.2040100098,1.0050048828,1.0079956055,1.7750091553,1.9340057373,2.2270050049.7529907227.3670043945,1.4309844971.5099639893,2.129989624.6009979248.3259887695.0370025635.733001709.0529937744.9900054932.0529937744l.8029937744.0089874268,1.608001709.0170288086,6.4299926758.0699920654h152.7930297852l3.2159729004-.0350189209c.466003418-.0029754639,1.2450256348.0019989014,1.9300231934-.1439819336.3499755859-.06199646.7070007324-.1649780273,1.066986084-.2940063477.1909790039-.0739898682.3399963379-.1329956055.5700073242-.2479858398.2359924316-.1210021973.4609985352-.2560272217.6690063477-.4130096436.8559875488-.6050109863,1.3809814453-1.595993042,1.3229980469-2.6459960938l-.0180053711-1.717010498-.0350036621-3.2150115967-.016998291-1.6079864502-.0090026855-.8039855957-.0039978027-.4920196533c0-.2559967041-.0109863281-.5099945068-.0650024414-.7519836426-.1829833984-.9980010986-.9719848633-1.7670135498-1.8739929199-2.2159881592-.7799987793-.375-1.4320068359-.5040283203-2.1300048828-.5880279541-.3290100098-.0349731445-.7099914551-.0449981689-.9899902344-.041015625l-.8030090332.0090332031-1.6080322266.0169830322-3.2149658203.0350189209-25.7220153809.2789916992-51.4429931641.5589904785c-3.3179931641.1289825439-3.3179931641,1.3860015869,0,1.5149993896l51.4429931641.5589752197,25.7220153809.2790222168,3.2149658203.0350189209,1.6080322266.0179901123.8030090332.008026123c.2569885254.0029907227.4109802246.0139770508.6149902344.0379943848.3640136719.0440063477.7709655762.1649932861.9530029297.2669830322l.0849914551.1220245361-.033996582,2.7609558105-.0350036621,3.2150115967-.016998291,1.4970092773-.0429992676.049987793-.0140075684.0009918213-.1689758301.0670013428c-.1470031738.0449981689-.3059997559.0930175781-.4850158691.1180114746-.3699951172.0660095215-.6699829102.0560150146-1.2730102539.0490112305l-3.2159729004-.0350036621h-152.7930297852l-6.4299926758.070022583-1.608001709.0169830322-.8029937744.0090026855c-.2799987793.0040130615-.408996582-.0010070801-.6170043945-.0149993896-.3620147705-.0340118408-.7459869385-.1260070801-.9589996338-.229019165l-.0839996338-.0669708252-.0709991455-5.9270172119-.016998291-1.5429840088.0660095215-.1800231934c-.046005249.0009918213.3669891357-.1940155029.7179870605-.2530212402.3920135498-.0820007324.700012207-.0909881592,1.2970123291-.0929870605l25.7220001221-.2790222168,51.4429931641-.5589752197c3.3190002441-.1289978027,3.3190002441-1.3860168457,0-1.5149993896h0Z" fill="#1d1d1b"/>
</svg>