<?xml version="1.0" encoding="UTF-8"?>
<svg id="Ebene_1" data-name="Ebene 1" xmlns="http://www.w3.org/2000/svg" xmlns:xlink="http://www.w3.org/1999/xlink" viewBox="0 0 566.9291338583 566.9291338583">
  <defs>
    <clipPath id="clippath">
      <rect x="102.4645669291" y="104.4645669291" width="360.1549987793" height="358.1809997559" fill="none"/>
    </clipPath>
  </defs>
  <g clip-path="url(#clippath)">
    <path d="M166.1360757182,412.0645577739l2.24168396,1.6640014648c2.5591125488,1.9100189209,5.4541168213,3.7919921875,9.3931121826,6.1110076904,5.9360046387,3.3869781494,12.7269897461,6.5649871826,20.7196960449,9.6919555664,7.2709960938,2.8170471191,14.8949890137,5.4110412598,22.2680053711,7.9200439453,12.4440002441,4.3489990234,28.9400024414,9.734954834,46.4319763184,12.9099731445,17.175994873,3.158996582,33.5670166016,3.781036377,48.7260131836,1.850982666l6.0859985352-.9199829102c.699005127-.1469726562,1.3999938965-.2879638672,2.1000061035-.4299926758,1.282989502-.258972168,2.5660095215-.516998291,3.8470153809-.8099975586.716003418-.1959838867,1.4339904785-.384979248,2.1529846191-.575012207,1.2639770508-.3329772949,2.5299987793-.6659851074,3.782989502-1.0369873047.7100219727-.2379760742,1.4230041504-.4680175781,2.1350097656-.6999816895,1.3040161133-.4230041504,2.5350036621-.8220214844,3.7619934082-1.2650146484,7.8190002441-2.8479919434,15.2470092773-6.5290222168,22.0679931641-10.9349975586.6310119629-.4369812012,1.2670288086-.8649902344,1.9049987793-1.2939758301,1.133026123-.7630004883,2.2040100098-1.483001709,3.2430114746-2.2480163574l5.1230163574-3.7799987793c2.7959899902-2.0310058594,5.5889892578-4.1670074463,8.2899780273-6.233001709l1.865020752-1.4250030518c2.1859741211-1.6369934082,4.3499450684-3.3740234375,6.4440002441-5.0530090332,1.1849975586-.9509735107,2.367980957-1.9010162354,3.5619812012-2.838973999l4.8460083008-4.036026001c1.7250061035-1.4349975586,3.2720031738-2.73097229,4.7510070801-4.0729980469,6.5269775391-5.6369934082,12.591003418-11.5669708252,18.0889892578-17.6809844971,5.8219909668-6.5050201416,10.800994873-13.2709960938,14.7900390625-20.1020050049,3.8229370117-6.5040130615,7.2559204102-13.9109954834,10.5-22.6549987793,1.676940918-4.2509918213,2.8989868164-8.5680084229,3.7769775391-11.8610076904,1.1669921875-4.7869873047,1.9429931641-8.5390014648,2.4970092773-12.0899963379,2.5049743652-15.3659973145,3.1809692383-31.4750061035,2.0689697266-49.2720031738-1.0980224609-16.7340087891-3.816986084-32.6959838867-8.0799560547-47.4349975586-4.6840820312-16.1459960938-11.2270507812-30.2395019531-19.447052002-41.886505127-4.475982666-6.3182983398-9.4719848633-11.875-14.8479919434-16.5111999512-.5279846191-.4273071289-1.0480041504-.8648071289-1.5679931641-1.3017883301-.9229736328-.7778015137-1.7950134277-1.5122070312-2.6890258789-2.1640014648-.5709838867-.4229125977-1.1159667969-.8330078125-1.6599731445-1.2422180176-.9299926758-.6991882324-1.858001709-1.3970031738-2.8059997559-2.0776977539l-4.5520019531-3.2215881348-4.532989502-3.0390930176c-11.9210205078-7.7686157227-24.4400024414-14.5391235352-37.1740112305-20.0981140137-12.2340087891-5.3984985352-24.800994873-9.7388000488-37.3630065918-12.9053039551-23.9659729004-6.037109375-47.6639709473-7.5957336426-68.5359954834-4.50390625-9.608001709,1.3403015137-18.9690093994,3.7158203125-27.8520050049,7.0644226074l-4.566986084,1.7919921875-7.1960144043,3.1659851074c-.9939880371.4951171875-1.9809875488.9771118164-2.9559936523,1.4522094727-2.6510009766,1.2938842773-5.1560058594,2.5161132812-7.437286377,3.8291015625-13.6167144775,7.3926086426-22.8355102539,14.7041015625-28.1846160889,19.5433959961-.028793335.0263977051-.05809021.0518188477-.087387085.0767211914-2.3125,1.9564819336-4.0259246826,3.7250976562-5.4022979736,5.1454772949-.3877105713.4004211426-.7432098389.7671203613-1.0694122314,1.0942077637l-2.12449646,2.1758117676-4.720703125,5.5795898438c-.8842926025,1.0386047363-1.8867034912,2.2157897949-2.8954925537,3.6239929199l-4.1186065674,5.5166015625c-.8746032715,1.1972961426-1.7773895264,2.5743103027-2.7328948975,4.0317993164-.549911499.8384094238-1.1157989502,1.7011108398-1.7095031738,2.5810241699-1.2061004639,1.7294921875-2.3345031738,3.6616821289-3.529296875,5.7075805664-.4169921875.7138061523-.8413085938,1.4399108887-1.2774047852,2.1733093262-1.37840271,2.2290039062-2.6434936523,4.6576843262-3.9833831787,7.2294921875l-2.3296051025,4.4545898438-3.783203125,8.0981140137c-.5467987061,1.1549987793-1.0380096436,2.3519897461-1.5576019287,3.6189880371-.291015625.7109985352-.5848999023,1.4270019531-.8916015625,2.1440124512-.25440979.6340026855-.5516967773,1.3379821777-.8520050049,2.0469970703-.5644989014,1.3359985352-1.0981903076,2.5970153809-1.5547027588,3.9029846191l-.44090271,1.1860046387c-1.4452972412,3.8780212402-2.9400024414,7.8880004883-4.3007965088,12.0250244141-1.5282897949,4.5350036621-3.028793335,9.3569946289-4.4678039551,14.3599853516-1.4291992188,4.9580078125-2.7221832275,10.1640014648-3.8427886963,15.4750061035-1.2373046875,5.8369750977-2.1151885986,11.2719726562-2.6850128174,16.6210021973-.6723632812,6.1959838867-.9326324463,11.9719848633-.7958984375,17.6649780273.0624847412,2.8070068359.251449585,5.7019958496.5956878662,9.1120300293.09034729.6839599609.1767730713,1.3709716797.263671875,2.0579833984.29347229,2.3279876709.5966796875,4.7349853516,1.0659484863,7.1079864502,2.0762023926,12.0560150146,5.9203948975,24.7280273438,11.4408874512,37.7490081787,2.8052062988,6.4109954834,5.9312133789,12.671005249,9.2754058838,18.5699920654,3.8393096924,6.5850067139,7.6899108887,12.433013916,11.75050354,17.837020874,4.717300415,6.1499786377,9.4750976562,11.5130004883,14.5243988037,16.3659973145l.7313995361.6750030518c1.1000976562,1.0189819336,2.1396942139,1.9810028076,3.2686157227,2.8709716797l2.2196960449,1.8260192871h0ZM298.1705605815,460.3065469096c-10.3909912109,0-21.1679992676-1.0219726562-32.2380065918-3.0589904785-17.9629821777-3.259979248-34.7979736328-8.7550048828-47.4559936523-13.1790161133-7.4140014648-2.5219726562-15.108001709-5.1400146484-22.5254821777-8.0129699707-8.3238220215-3.2569885254-15.4151000977-6.5790405273-21.6905059814-10.1600189209-4.2070007324-2.4760284424-7.2972869873-4.4890136719-10.0610046387-6.549987793l-2.3052062988-1.7109985352c-.0469055176-.0359954834-.0927886963-.0720062256-.1381835938-.1090087891l-2.2309112549-1.8360137939c-1.2905883789-1.0149841309-2.4819946289-2.1199798584-3.6343078613-3.18699646l-.7670898438-.7080230713c-5.3641967773-5.1549835205-10.3525085449-10.775970459-15.3076019287-17.2359619141-4.24659729-5.6520080566-8.2445983887-11.7210083008-12.2436981201-18.5810089111-3.4833984375-6.1439971924-6.7182006836-12.6220092773-9.6352081299-19.2889862061-5.74659729-13.5520172119-9.7431793213-26.745010376-11.89503479-39.2460174561-.5009765625-2.5279998779-.8198242188-5.0569915771-1.12840271-7.504989624-.0869140625-.6909790039-.1738433838-1.3809814453-.2651367188-2.0700073242-.0048828125-.0349731445-.0087890625-.0709838867-.0127105713-.1059875488-.3662109375-3.6210021973-.5673675537-6.7049865723-.6342773438-9.7059936523-.14402771-5.9990234375.12890625-12.0780029297.833984375-18.5769958496.5947418213-5.5820007324,1.509765625-11.25,2.7964019775-17.3200073242,1.1547851562-5.4739990234,2.4892578125-10.8460083008,3.9643554688-15.9640197754,1.4677276611-5.1019897461,3.0000305176-10.0260009766,4.5537261963-14.6340026855,1.3950042725-4.242980957,2.9136047363-8.3179931641,4.3822937012-12.258972168l.4160003662-1.1170043945c.5068969727-1.4510192871,1.1094055176-2.8760070801,1.6924133301-4.2539978027.2836914062-.6710205078.5653991699-1.3360290527.8334960938-2.0020141602.3217926025-.7550048828.6019897461-1.4379882812.8804016113-2.1180114746.5311889648-1.2959899902,1.0809936523-2.6369934082,1.6986846924-3.9409790039l3.81590271-8.1670227051c.0215148926-.0453796387.0435180664-.0897827148.06690979-.1342773438l2.3574066162-4.5073242188c1.400894165-2.6894836426,2.7241973877-5.2294921875,4.2065887451-7.6259765625.3950042725-.6654968262.8094940186-1.375,1.2177124023-2.0732116699,1.2680969238-2.1708984375,2.4653930664-4.2211914062,3.8017883301-6.1372070312.5454101562-.8090820312,1.0941925049-1.6459960938,1.6278991699-2.4595031738,1.0054016113-1.5336914062,1.9556121826-2.9823913574,2.9566040039-4.3529968262l4.0975952148-5.48828125c1.1402130127-1.5923156738,2.2436981201-2.8876953125,3.2173156738-4.0313110352l4.7480773926-5.6123046875c.0527038574-.0625.1518096924-.1742858887.2090148926-.2329101562l2.2352905273-2.2889709473c.3286132812-.3296203613.6606140137-.6729125977,1.0239105225-1.0479125977,1.3979949951-1.4424133301,3.30909729-3.4150085449,5.8642883301-5.5809936523,5.6387023926-5.095703125,15.3096160889-12.7626953125,29.4219055176-20.4234008789,2.4125976562-1.3896179199,5.0214080811-2.6625976562,7.7837982178-4.0101928711.9810028076-.4786071777,1.9750061035-.9639282227,2.9770050049-1.4629211426.0500030518-.0249023438.0999908447-.0488891602.1510009766-.0712890625l7.8999938965-3.4736022949c.0440063477-.0191040039.0890045166-.0372009277.1330108643-.0541992188l4.1279907227-1.595703125c9.3970031738-3.5425109863,19.2640075684-6.0469360352,29.3550109863-7.4546508789,21.7439880371-3.2211608887,46.3899841309-1.6161804199,71.2420043945,4.64453125,12.9429931641,3.2627258301,25.8859863281,7.7319335938,38.4669799805,13.2837219238,13.074005127,5.7080078125,25.9370422363,12.6636047363,38.2210083008,20.6683959961l6.1690063477,4.1924133301,3.1199951172,2.2084960938c1.0079956055.7240905762,1.9769897461,1.4522094727,2.9479980469,2.1820983887.5310058594.3995056152,1.0620117188.7998962402,1.5989990234,1.1972961426,1.0700073242.7798156738,2.0780029297,1.6283874512,3.050994873,2.4483032227.4980163574.4188842773.9960327148.8382873535,1.5020141602,1.2474975586.0299682617.0234069824.0579833984.0469055176.0859985352.0712890625,5.8209838867,5.0137023926,11.2169799805,11.0054016113,16.0359802246,17.8086242676,8.6730041504,12.2875976562,15.5530090332,27.0834960938,20.4540100098,43.9794921875,4.4049987793,15.2249755859,7.2109985352,31.6879882812,8.3419799805,48.9360046387,1.1470336914,18.3359680176.4459838867,34.9559936523-2.1419677734,50.8199920654-.5800170898,3.7299957275-1.3920288086,7.6599884033-2.6259765625,12.7199859619-.9470214844,3.5490112305-2.241027832,8.1170043945-4.0230407715,12.633026123-3.3630065918,9.0659790039-6.9689941406,16.8379669189-10.9969787598,23.6900024414-4.2220153809,7.2290039062-9.4780273438,14.3769836426-15.6200256348,21.2379760742-5.6989746094,6.3380126953-11.975982666,12.4759979248-18.658996582,18.2490081787-1.5189819336,1.3780059814-3.1260070801,2.7250213623-4.9129943848,4.2120056152l-4.9209899902,4.095993042c-1.2520141602.9869842529-2.4189758301,1.9219970703-3.5849914551,2.858001709-2.1380004883,1.7149810791-4.349029541,3.4889984131-6.6040039062,5.1769866943l-1.8330078125,1.4010162354c-2.7340087891,2.092010498-5.5620117188,4.2549743652-8.4070129395,6.3210144043l-5.1059875488,3.7689819336c-1.1610107422.8529968262-2.3439941406,1.6489868164-3.4869995117,2.4190063477-.6270141602.4209899902-1.2539672852.8430175781-1.875,1.2730102539-.0299987793.0209960938-.0599975586.0409851074-.091003418.0619506836-7.2739868164,4.7030334473-15.1900024414,8.6280517578-23.5289916992,11.6670532227-1.3439941406.4849853516-2.6879882812.9209594727-3.9890136719,1.342956543-.7099914551.2300415039-1.4189758301.4600219727-2.1259765625.6979980469-.0380249023.0120239258-.0770263672.0250244141-.1170043945.0370483398-1.342010498.3979492188-2.6960144043.7559814453-4.0500183105,1.1119689941-.7219848633.1900024414-1.441986084.3800048828-2.1610107422.5770263672-.0469665527.0130004883-.093963623.0249938965-.1419677734.0350036621-1.3630065918.3129882812-2.7280273438.5889892578-4.0930175781.8649902344-.716003418.1449890137-1.4320068359.2900085449-2.1470031738.4400024414-.0660095215.0149841309-.1319885254.0260009766-.1979980469.0359802246l-6.2639770508.9450073242c-6.0760192871.7749938965-12.3210449219,1.1619873047-18.7110290527,1.1619873047h0Z" fill="#f5f0e8"/>
    <path d="M166.1360757182,412.0645577739l2.24168396,1.6640014648c2.5591125488,1.9100189209,5.4541168213,3.7919921875,9.3931121826,6.1110076904,5.9360046387,3.3869781494,12.7269897461,6.5649871826,20.7196960449,9.6919555664,7.2709960938,2.8170471191,14.8949890137,5.4110412598,22.2680053711,7.9200439453,12.4440002441,4.3489990234,28.9400024414,9.734954834,46.4319763184,12.9099731445,17.175994873,3.158996582,33.5670166016,3.781036377,48.7260131836,1.850982666l6.0859985352-.9199829102c.699005127-.1469726562,1.3999938965-.2879638672,2.1000061035-.4299926758,1.282989502-.258972168,2.5660095215-.516998291,3.8470153809-.8099975586.716003418-.1959838867,1.4339904785-.384979248,2.1529846191-.575012207,1.2639770508-.3329772949,2.5299987793-.6659851074,3.782989502-1.0369873047.7100219727-.2379760742,1.4230041504-.4680175781,2.1350097656-.6999816895,1.3040161133-.4230041504,2.5350036621-.8220214844,3.7619934082-1.2650146484,7.8190002441-2.8479919434,15.2470092773-6.5290222168,22.0679931641-10.9349975586.6310119629-.4369812012,1.2670288086-.8649902344,1.9049987793-1.2939758301,1.133026123-.7630004883,2.2040100098-1.483001709,3.2430114746-2.2480163574l5.1230163574-3.7799987793c2.7959899902-2.0310058594,5.5889892578-4.1670074463,8.2899780273-6.233001709l1.865020752-1.4250030518c2.1859741211-1.6369934082,4.3499450684-3.3740234375,6.4440002441-5.0530090332,1.1849975586-.9509735107,2.367980957-1.9010162354,3.5619812012-2.838973999l4.8460083008-4.036026001c1.7250061035-1.4349975586,3.2720031738-2.73097229,4.7510070801-4.0729980469,6.5269775391-5.6369934082,12.591003418-11.5669708252,18.0889892578-17.6809844971,5.8219909668-6.5050201416,10.800994873-13.2709960938,14.7900390625-20.1020050049,3.8229370117-6.5040130615,7.2559204102-13.9109954834,10.5-22.6549987793,1.676940918-4.2509918213,2.8989868164-8.5680084229,3.7769775391-11.8610076904,1.1669921875-4.7869873047,1.9429931641-8.5390014648,2.4970092773-12.0899963379,2.5049743652-15.3659973145,3.1809692383-31.4750061035,2.0689697266-49.2720031738-1.0980224609-16.7340087891-3.816986084-32.6959838867-8.0799560547-47.4349975586-4.6840820312-16.1459960938-11.2270507812-30.2395019531-19.447052002-41.886505127-4.475982666-6.3182983398-9.4719848633-11.875-14.8479919434-16.5111999512-.5279846191-.4273071289-1.0480041504-.8648071289-1.5679931641-1.3017883301-.9229736328-.7778015137-1.7950134277-1.5122070312-2.6890258789-2.1640014648-.5709838867-.4229125977-1.1159667969-.8330078125-1.6599731445-1.2422180176-.9299926758-.6991882324-1.858001709-1.3970031738-2.8059997559-2.0776977539l-4.5520019531-3.2215881348-4.532989502-3.0390930176c-11.9210205078-7.7686157227-24.4400024414-14.5391235352-37.1740112305-20.0981140137-12.2340087891-5.3984985352-24.800994873-9.7388000488-37.3630065918-12.9053039551-23.9659729004-6.037109375-47.6639709473-7.5957336426-68.5359954834-4.50390625-9.608001709,1.3403015137-18.9690093994,3.7158203125-27.8520050049,7.0644226074l-4.566986084,1.7919921875-7.1960144043,3.1659851074c-.9939880371.4951171875-1.9809875488.9771118164-2.9559936523,1.4522094727-2.6510009766,1.2938842773-5.1560058594,2.5161132812-7.437286377,3.8291015625-13.6167144775,7.3926086426-22.8355102539,14.7041015625-28.1846160889,19.5433959961-.028793335.0263977051-.05809021.0518188477-.087387085.0767211914-2.3125,1.9564819336-4.0259246826,3.7250976562-5.4022979736,5.1454772949-.3877105713.4004211426-.7432098389.7671203613-1.0694122314,1.0942077637l-2.12449646,2.1758117676-4.720703125,5.5795898438c-.8842926025,1.0386047363-1.8867034912,2.2157897949-2.8954925537,3.6239929199l-4.1186065674,5.5166015625c-.8746032715,1.1972961426-1.7773895264,2.5743103027-2.7328948975,4.0317993164-.549911499.8384094238-1.1157989502,1.7011108398-1.7095031738,2.5810241699-1.2061004639,1.7294921875-2.3345031738,3.6616821289-3.529296875,5.7075805664-.4169921875.7138061523-.8413085938,1.4399108887-1.2774047852,2.1733093262-1.37840271,2.2290039062-2.6434936523,4.6576843262-3.9833831787,7.2294921875l-2.3296051025,4.4545898438-3.783203125,8.0981140137c-.5467987061,1.1549987793-1.0380096436,2.3519897461-1.5576019287,3.6189880371-.291015625.7109985352-.5848999023,1.4270019531-.8916015625,2.1440124512-.25440979.6340026855-.5516967773,1.3379821777-.8520050049,2.0469970703-.5644989014,1.3359985352-1.0981903076,2.5970153809-1.5547027588,3.9029846191l-.44090271,1.1860046387c-1.4452972412,3.8780212402-2.9400024414,7.8880004883-4.3007965088,12.0250244141-1.5282897949,4.5350036621-3.028793335,9.3569946289-4.4678039551,14.3599853516-1.4291992188,4.9580078125-2.7221832275,10.1640014648-3.8427886963,15.4750061035-1.2373046875,5.8369750977-2.1151885986,11.2719726562-2.6850128174,16.6210021973-.6723632812,6.1959838867-.9326324463,11.9719848633-.7958984375,17.6649780273.0624847412,2.8070068359.251449585,5.7019958496.5956878662,9.1120300293.09034729.6839599609.1767730713,1.3709716797.263671875,2.0579833984.29347229,2.3279876709.5966796875,4.7349853516,1.0659484863,7.1079864502,2.0762023926,12.0560150146,5.9203948975,24.7280273438,11.4408874512,37.7490081787,2.8052062988,6.4109954834,5.9312133789,12.671005249,9.2754058838,18.5699920654,3.8393096924,6.5850067139,7.6899108887,12.433013916,11.75050354,17.837020874,4.717300415,6.1499786377,9.4750976562,11.5130004883,14.5243988037,16.3659973145l.7313995361.6750030518c1.1000976562,1.0189819336,2.1396942139,1.9810028076,3.2686157227,2.8709716797l2.2196960449,1.8260192871h0ZM298.1705605815,460.3065469096c-10.3909912109,0-21.1679992676-1.0219726562-32.2380065918-3.0589904785-17.9629821777-3.259979248-34.7979736328-8.7550048828-47.4559936523-13.1790161133-7.4140014648-2.5219726562-15.108001709-5.1400146484-22.5254821777-8.0129699707-8.3238220215-3.2569885254-15.4151000977-6.5790405273-21.6905059814-10.1600189209-4.2070007324-2.4760284424-7.2972869873-4.4890136719-10.0610046387-6.549987793l-2.3052062988-1.7109985352c-.0469055176-.0359954834-.0927886963-.0720062256-.1381835938-.1090087891l-2.2309112549-1.8360137939c-1.2905883789-1.0149841309-2.4819946289-2.1199798584-3.6343078613-3.18699646l-.7670898438-.7080230713c-5.3641967773-5.1549835205-10.3525085449-10.775970459-15.3076019287-17.2359619141-4.24659729-5.6520080566-8.2445983887-11.7210083008-12.2436981201-18.5810089111-3.4833984375-6.1439971924-6.7182006836-12.6220092773-9.6352081299-19.2889862061-5.74659729-13.5520172119-9.7431793213-26.745010376-11.89503479-39.2460174561-.5009765625-2.5279998779-.8198242188-5.0569915771-1.12840271-7.504989624-.0869140625-.6909790039-.1738433838-1.3809814453-.2651367188-2.0700073242-.0048828125-.0349731445-.0087890625-.0709838867-.0127105713-.1059875488-.3662109375-3.6210021973-.5673675537-6.7049865723-.6342773438-9.7059936523-.14402771-5.9990234375.12890625-12.0780029297.833984375-18.5769958496.5947418213-5.5820007324,1.509765625-11.25,2.7964019775-17.3200073242,1.1547851562-5.4739990234,2.4892578125-10.8460083008,3.9643554688-15.9640197754,1.4677276611-5.1019897461,3.0000305176-10.0260009766,4.5537261963-14.6340026855,1.3950042725-4.242980957,2.9136047363-8.3179931641,4.3822937012-12.258972168l.4160003662-1.1170043945c.5068969727-1.4510192871,1.1094055176-2.8760070801,1.6924133301-4.2539978027.2836914062-.6710205078.5653991699-1.3360290527.8334960938-2.0020141602.3217926025-.7550048828.6019897461-1.4379882812.8804016113-2.1180114746.5311889648-1.2959899902,1.0809936523-2.6369934082,1.6986846924-3.9409790039l3.81590271-8.1670227051c.0215148926-.0453796387.0435180664-.0897827148.06690979-.1342773438l2.3574066162-4.5073242188c1.400894165-2.6894836426,2.7241973877-5.2294921875,4.2065887451-7.6259765625.3950042725-.6654968262.8094940186-1.375,1.2177124023-2.0732116699,1.2680969238-2.1708984375,2.4653930664-4.2211914062,3.8017883301-6.1372070312.5454101562-.8090820312,1.0941925049-1.6459960938,1.6278991699-2.4595031738,1.0054016113-1.5336914062,1.9556121826-2.9823913574,2.9566040039-4.3529968262l4.0975952148-5.48828125c1.1402130127-1.5923156738,2.2436981201-2.8876953125,3.2173156738-4.0313110352l4.7480773926-5.6123046875c.0527038574-.0625.1518096924-.1742858887.2090148926-.2329101562l2.2352905273-2.2889709473c.3286132812-.3296203613.6606140137-.6729125977,1.0239105225-1.0479125977,1.3979949951-1.4424133301,3.30909729-3.4150085449,5.8642883301-5.5809936523,5.6387023926-5.095703125,15.3096160889-12.7626953125,29.4219055176-20.4234008789,2.4125976562-1.3896179199,5.0214080811-2.6625976562,7.7837982178-4.0101928711.9810028076-.4786071777,1.9750061035-.9639282227,2.9770050049-1.4629211426.0500030518-.0249023438.0999908447-.0488891602.1510009766-.0712890625l7.8999938965-3.4736022949c.0440063477-.0191040039.0890045166-.0372009277.1330108643-.0541992188l4.1279907227-1.595703125c9.3970031738-3.5425109863,19.2640075684-6.0469360352,29.3550109863-7.4546508789,21.7439880371-3.2211608887,46.3899841309-1.6161804199,71.2420043945,4.64453125,12.9429931641,3.2627258301,25.8859863281,7.7319335938,38.4669799805,13.2837219238,13.074005127,5.7080078125,25.9370422363,12.6636047363,38.2210083008,20.6683959961l6.1690063477,4.1924133301,3.1199951172,2.2084960938c1.0079956055.7240905762,1.9769897461,1.4522094727,2.9479980469,2.1820983887.5310058594.3995056152,1.0620117188.7998962402,1.5989990234,1.1972961426,1.0700073242.7798156738,2.0780029297,1.6283874512,3.050994873,2.4483032227.4980163574.4188842773.9960327148.8382873535,1.5020141602,1.2474975586.0299682617.0234069824.0579833984.0469055176.0859985352.0712890625,5.8209838867,5.0137023926,11.2169799805,11.0054016113,16.0359802246,17.8086242676,8.6730041504,12.2875976562,15.5530090332,27.0834960938,20.4540100098,43.9794921875,4.4049987793,15.2249755859,7.2109985352,31.6879882812,8.3419799805,48.9360046387,1.1470336914,18.3359680176.4459838867,34.9559936523-2.1419677734,50.8199920654-.5800170898,3.7299957275-1.3920288086,7.6599884033-2.6259765625,12.7199859619-.9470214844,3.5490112305-2.241027832,8.1170043945-4.0230407715,12.633026123-3.3630065918,9.0659790039-6.9689941406,16.8379669189-10.9969787598,23.6900024414-4.2220153809,7.2290039062-9.4780273438,14.3769836426-15.6200256348,21.2379760742-5.6989746094,6.3380126953-11.975982666,12.4759979248-18.658996582,18.2490081787-1.5189819336,1.3780059814-3.1260070801,2.7250213623-4.9129943848,4.2120056152l-4.9209899902,4.095993042c-1.2520141602.9869842529-2.4189758301,1.9219970703-3.5849914551,2.858001709-2.1380004883,1.7149810791-4.349029541,3.4889984131-6.6040039062,5.1769866943l-1.8330078125,1.4010162354c-2.7340087891,2.092010498-5.5620117188,4.2549743652-8.4070129395,6.3210144043l-5.1059875488,3.7689819336c-1.1610107422.8529968262-2.3439941406,1.6489868164-3.4869995117,2.4190063477-.6270141602.4209899902-1.2539672852.8430175781-1.875,1.2730102539-.0299987793.0209960938-.0599975586.0409851074-.091003418.0619506836-7.2739868164,4.7030334473-15.1900024414,8.6280517578-23.5289916992,11.6670532227-1.3439941406.4849853516-2.6879882812.9209594727-3.9890136719,1.342956543-.7099914551.2300415039-1.4189758301.4600219727-2.1259765625.6979980469-.0380249023.0120239258-.0770263672.0250244141-.1170043945.0370483398-1.342010498.3979492188-2.6960144043.7559814453-4.0500183105,1.1119689941-.7219848633.1900024414-1.441986084.3800048828-2.1610107422.5770263672-.0469665527.0130004883-.093963623.0249938965-.1419677734.0350036621-1.3630065918.3129882812-2.7280273438.5889892578-4.0930175781.8649902344-.716003418.1449890137-1.4320068359.2900085449-2.1470031738.4400024414-.0660095215.0149841309-.1319885254.0260009766-.1979980469.0359802246l-6.2639770508.9450073242c-6.0760192871.7749938965-12.3210449219,1.1619873047-18.7110290527,1.1619873047h0Z" fill="none" stroke="#010101" stroke-miterlimit="10" stroke-width="3"/>
  </g>
  <path d="M310.8175637553,191.2370583842c3.9770202637,1.1174926758,7.8390197754,2.486907959,11.5559997559,4.0853881836,34.5159912109,14.7331237793,57.4909973145,48.5921020508,58.3259887695,86.237121582.1440124512,6.3719787598-.3550109863,12.8629760742-1.5369567871,19.3809814453-1.4090270996,7.7760009766-3.7170410156,15.1570129395-6.7950134277,22.0690002441-14.8739929199,33.4050140381-47.7720336914,55.6739959717-84.4530029297,56.9410095215-6.7650146484.2369842529-13.6560058594-.2389831543-20.5849914551-1.4949951172-7.0630187988-1.2800140381-13.8150177002-3.3000030518-20.1670227051-5.9859924316-33.7030029297-14.1280059814-56.5365905762-46.4290008545-58.737487793-82.799041748-.4582214355-7.5529785156-.0307006836-15.2739868164,1.378692627-23.0499572754,1.1813964844-6.5190124512,2.9934997559-12.7710266113,5.3648986816-18.6880187988,13.9958953857-34.9570007324,47.3889007568-58.5989990234,84.8929138184-60.2789916992,4.134979248-.2001953125,8.324005127-.1209106445,12.5409851074.2573852539,3.0039978027.2409057617,6.0190124512.645111084,9.0460205078,1.1936950684,3.1189880371.5653076172,6.1869812012,1.2744140625,9.1689758301,2.1324157715h0ZM446.0315530131,313.0605599711c1.5880126953-8.7639923096,2.4450073242-17.4959869385,2.6270141602-26.1280059814,1.4240112305-70.0090026855-42.2019958496-133.5360107422-107.9109802246-157.4010009766-8.6210021973-3.1427001953-17.6380310059-5.5960083008-26.9810180664-7.2893066406-9.5229797363-1.7261047363-19.0019836426-2.591003418-28.3590087891-2.6478881836-69.68699646-.4866943359-132.5773010254,43.6293945312-155.7595977783,109.5181884766-2.8580932617,8.1480102539-5.1227874756,16.6240234375-6.7111968994,25.3880004883-1.8388061523,10.1459960938-2.6968994141,20.2490234375-2.6526947021,30.2100219727.3079986572,68.2039794922,43.2702941895,129.5739898682,107.3954925537,153.1269836426,8.8050231934,3.2350158691,17.9970092773,5.7549743652,27.5310058594,7.483001709,9.4230041504,1.7080078125,18.7980041504,2.5770263672,28.0569763184,2.6500244141,68.4500427246.5919799805,130.3890075684-41.8330078125,154.6440124512-105.6910247803,3.5379943848-9.31199646,6.2810058594-19.074005127,8.1199951172-29.2189941406h0Z" fill="#008939"/>
  <path d="M362.1405618022,202.5299660991c-23.5139770508-15.0346984863-41.1029968262-14.2539978027-51.3229980469-11.2929077148,3.9770202637,1.1174926758,7.8390197754,2.486907959,11.5559997559,4.0853881836,34.5159912109,14.7331237793,57.4909973145,48.5921020508,58.3259887695,86.237121582.1440124512,6.3719787598-.3550109863,12.8629760742-1.5369567871,19.3809814453-1.4090270996,7.7760009766-3.7170410156,15.1570129395-6.7950134277,22.0690002441-14.8739929199,33.4050140381-47.7720336914,55.6739959717-84.4530029297,56.9410095215-6.7650146484.2369842529-13.6560058594-.2389831543-20.5849914551-1.4949951172-7.0630187988-1.2800140381-13.8150177002-3.3000030518-20.1670227051-5.9859924316-33.7030029297-14.1280059814-56.5365905762-46.4290008545-58.737487793-82.799041748-.4582214355-7.5529785156-.0307006836-15.2739868164,1.378692627-23.0499572754,1.1813964844-6.5190124512,2.9934997559-12.7710266113,5.3648986816-18.6880187988,13.9958953857-34.9570007324,47.3889007568-58.5989990234,84.8929138184-60.2789916992,4.134979248-.2001953125,8.324005127-.1209106445,12.5409851074.2573852539-36.4129943848-28.6940002441-93.6874084473,21.0056152344-95.575302124,23.4756164551-2.0391998291,2.6489868164-3.1711883545,40.0429992676-22.2339935303,62.2079772949-19.0637054443,22.1650085449,20.0415039062,89.6959991455,61.1312866211,111.7800140381,41.0899963379,22.0850067139,125.291015625-19.4460144043,143.4640197754-45.4250030518,18.174987793-25.9779968262,21.5789794922-112.5979919434-17.2480163574-137.4195861816h0Z" fill="#005538"/>
  <path d="M287.9145791362,379.9505593608c-6.7650146484.2369842529-13.6560058594-.2389831543-20.5849914551-1.4949951172-7.0630187988-1.2800140381-13.8150177002-3.3000030518-20.1670227051-5.9859924316-6.5520019531,17.8649597168-15.7509918213,44.908996582-19.483001709,65.367980957,8.8050231934,3.2350158691,17.9970092773,5.7549743652,27.5310058594,7.483001709,9.4230041504,1.7080078125,18.7980041504,2.5770263672,28.0569763184,2.6500244141,4.2460327148-17.8130187988,7.7510375977-42.1890258789,4.6470336914-68.0200195312h0Z" fill="#8abd24"/>
  <path d="M340.7475869487,129.5315530131c-8.6210021973-3.1427001953-17.6380310059-5.5960083008-26.9810180664-7.2893066406-9.5229797363-1.7261047363-19.0019836426-2.591003418-28.3590087891-2.6478881836-4.0239868164,19.4340820312-5.125,47.9815979004-5.3459777832,68.0592041016,7.0870056152-.3309936523,14.3209838867.134185791,21.5870056152,1.4510803223,7.2679748535,1.3173217773,14.2049865723,3.4206237793,20.7249755859,6.2178039551,11.649017334-23.6965026855,16.4479980469-48.0601806641,18.3740234375-65.7908935547h0Z" fill="#8abd24"/>
  <path d="M446.0315530131,313.0605599711c1.5880126953-8.7639923096,2.4450073242-17.4959869385,2.6270141602-26.1280059814-17.4930114746-4.3419799805-41.9060058594-8.1569824219-67.9590148926-5.3729858398.1440124512,6.3719787598-.3550109863,12.8629760742-1.5369567871,19.3809814453-1.4090270996,7.7760009766-3.7170410156,15.1570129395-6.7950134277,22.0690002441,18.283996582,6.675994873,45.3999938965,15.8050079346,65.5439758301,19.2700042725,3.5379943848-9.31199646,6.2810058594-19.074005127,8.1199951172-29.2189941406h0Z" fill="#8abd24"/>
  <path d="M189.80376981,266.6205727885c1.1813964844-6.5190124512,2.9934997559-12.7710266113,5.3648986816-18.6880187988-23.4214935303-11.7510070801-47.620300293-16.7460021973-65.5207061768-18.8200073242-2.8580932617,8.1480102539-5.1227874756,16.6240234375-6.7111968994,25.3880004883-1.8388061523,10.1459960938-2.6968994141,20.2490234375-2.6526947021,30.2100219727,20.0798034668,3.8249816895,48.6747894287,4.7939758301,68.1410064697,4.9599609375-.4582214355-7.5529785156-.0307006836-15.2739868164,1.378692627-23.0499572754h0Z" fill="#8abd24"/>
  <path d="M298.5495583842,443.5625283549s51.1600341797-10.5769958496,58.2650146484-21.054977417c7.1040039062-10.4760131836-80.0209960938-1.0370025635-58.2650146484,21.054977417h0Z" fill="#8abd24"/>
  <path d="M247.7305733989,139.2768533061s-16.933013916.8338012695-18.8939971924-3.4244995117c-1.9609985352-4.2593078613,42.6560058594-11.3933105469,42.7630004883-5.521484375.1069946289,5.8753967285-19.7030029297,8.8832702637-23.8690032959,8.9459838867h0Z" fill="#8abd24"/>
  <path d="M443.3905618022,319.7025735209c-5.4450073242,23.5229797363-16.1770019531,45.7779541016-31.2389526367,64.5649871826-15.0240478516,18.8159790039-34.2680358887,34.1860046387-55.8550415039,44.6900177002-21.5720214844,10.5379943848-45.4770202637,16.1640014648-69.4129943848,16.3139953613-23.9320068359.2359924316-47.8770141602-4.9970092773-69.5110168457-15.0570068359-10.3649902344-4.8070068359-20.2847900391-10.6090240479-29.404586792-17.5040130615-11.8855133057-8.9189910889-22.5554046631-19.4700012207-31.5597991943-31.3009796143-8.9957122803-11.8359985352-16.3606109619-24.9070129395-21.8146972656-38.7330169678-2.728012085-6.9119873047-4.9819030762-14.012008667-6.7348175049-21.2340087891-1.7282867432-7.2279815674-2.9551849365-14.5749969482-3.6703948975-21.9700164795-.2174835205-1.8459472656-.3324890137-3.6999816895-.4409942627-5.5549621582l-.175994873-2.7810058594-.0738067627-2.7860107422c-.1318969727-3.7129821777-.1047058105-7.4319763184.0527038574-11.1449890137.3112945557-7.425994873,1.1359863281-14.8300170898,2.4612121582-22.1459960938,1.3285980225-7.3140258789,3.1536865234-14.5370178223,5.4653778076-21.6029968262,2.3697967529-7.041015625,5.1042175293-13.966003418,8.3898925781-20.6350097656,6.570526123-13.3314208984,14.9783172607-25.7499084473,24.919921875-36.8013000488,19.9239044189-22.0541992188,45.9980010986-38.5743103027,74.5699920654-46.8364868164,2.7259979248-.8626098633,5.5180053711-1.4837036133,8.2810058594-2.2113342285l4.1900024414-.9026794434,2.0949859619-.4479064941,2.1120147705-.3659973145,4.2229919434-.7255859375,4.2489929199-.5632324219c1.4140014648-.2095947266,2.8359985352-.3468017578,4.2590026855-.4688720703,1.4230041504-.1249084473,2.8439941406-.2791137695,4.2690124512-.3810119629,23.7919921875-1.8374938965,48.0449829102,1.6640930176,70.3729858398,10.2915039062,22.3600158691,8.5400085449,42.7749938965,22.1885986328,59.2870178223,39.6221923828,16.5269775391,17.4172058105,29.1319580078,38.5776977539,36.5869750977,61.4677124023,7.467010498,22.8819885254,9.7960205078,47.4729919434,6.6090087891,71.4159851074-.5409851074,4.6380004883-.4400024414,7.0380249023.1409912109,7.1460113525.5540161133.1040039062,1.5960083008-2.1140289307,2.3600158691-6.8019866943,3.5449829102-24.2620239258,1.5109863281-49.3480224609-5.8179626465-72.8110046387-7.3150634766-23.4739990234-19.9310302734-45.3110961914-36.6750488281-63.4139099121-16.7249755859-18.1180114746-37.5699768066-32.462310791-60.5559997559-41.5790100098-22.950012207-9.203704834-48.0029907227-13.1640014648-72.7469787598-11.5720825195-1.4800109863.1058959961-2.95703125.2646789551-4.4360046387.3949890137-1.4790039062.1275024414-2.9559936523.270904541-4.4260253906.487487793l-4.4140014648.5861206055-4.3899841309.7529907227-2.1929931641.3812866211-2.1780090332.4644165039-4.3529968262.9389953613c-2.8719940186.753112793-5.7720031738,1.4027099609-8.6040039062,2.2965087891-29.6860046387,8.5877990723-56.7593841553,25.7376098633-77.455581665,48.6484069824-10.3278961182,11.4791870117-19.0650024414,24.3830871582-25.891418457,38.2367858887-3.4131774902,6.9290161133-6.2579956055,14.1260070801-8.7181854248,21.4430236816-2.4000091553,7.3359680176-4.2954101562,14.8369750977-5.6748046875,22.4319763184-1.3760070801,7.5950012207-2.232711792,15.2850036621-2.5559997559,22.9979858398-.1632995605,3.8569946289-.1916046143,7.7189941406-.0558013916,11.5780334473l.0777893066,2.8939819336.1817016602,2.8900146484c.1130065918,1.9279785156.2338104248,3.8540039062.458404541,5.7720031738.7433929443,7.6849975586,2.0186004639,15.3189849854,3.8150024414,22.828994751,1.8208007812,7.504989624,4.1622009277,14.8809967041,6.9958953857,22.0609893799,5.6656036377,14.3630065918,13.3149108887,27.9370117188,22.6581115723,40.2289886475,9.3517913818,12.2880096436,20.4331817627,23.2489929199,32.7821960449,32.5150146484,9.4759979248,7.1620025635,19.782699585,13.1939849854,30.5546875,18.1869659424,22.6190032959,10.166015625,47.4609985352,15.2470397949,72.1839904785,14.6910400391,24.7239990234-.4700012207,49.2750244141-6.5970153809,71.2870178223-17.7009887695,22.0310058594-11.0700073242,41.5230102539-27.070022583,56.6199951172-46.4810180664,15.1389770508-19.3840179443,25.766998291-42.199005127,30.9890136719-66.1500091553.9339904785-4.6569976807.7299804688-7.100982666.1779785156-7.1969909668-.5850219727-.1039886475-1.5149536133,2.1099853516-2.6409912109,6.6420135498h0Z" fill="#1d1d1b"/>
  <path d="M307.1075723002,188.958066685c-7.0149841309-1.7538146973-14.2080078125-2.7109069824-21.4549865723-2.8983154297-1.8100280762-.0409851074-3.6260375977-.0333862305-5.433013916.0318908691l-5.4200134277.3747253418c-1.8129882812.0726928711-3.600982666.387878418-5.3959960938.6399841309-1.7929992676.2687988281-3.5999755859.4718017578-5.3619995117.915802002-7.1399841309,1.3406982422-14.0559997559,3.7325134277-20.6979980469,6.6715087891l-2.4790039062,1.1387939453-1.2399902344.570098877c-.407989502.1998901367-.8000183105.4312133789-1.2019958496.6453857422l-4.7890014648,2.6230163574c-3.0690002441,1.9530029297-6.1940002441,3.842010498-9.0550079346,6.1065979004-5.8220062256,4.3739929199-11.2449951172,9.341003418-15.9199981689,14.9630126953-.5899963379.6969909668-1.2239990234,1.3589782715-1.7770080566,2.0859985352l-1.6519927979,2.1889953613c-1.0780029297,1.4750061035-2.2630004883,2.8789978027-3.2071075439,4.449005127l-2.9795837402,4.6119995117-2.6413116455,4.816986084c-6.8810882568,12.9530029297-10.6523895264,27.5200195312-11.2389984131,42.2210083008-.0770874023,3.5219726562-.0480041504,7.0559692383.3168945312,10.5640258789l.5151977539,5.2629699707.8778991699,5.2159729004c3.3756103516,18.031036377,11.8972167969,35.0390167236,24.2660217285,48.5730285645,6.1729888916,6.7749786377,13.2899780273,12.6920166016,21.091003418,17.5110015869,3.9049835205,2.3999938965,7.9659881592,4.5489807129,12.1609802246,6.3899993896,4.1499938965,1.9270019531,8.5090026855,3.4380187988,12.9100036621,4.7050170898,8.8200073242,2.4969787598,17.9760131836,3.7890014648,27.1479797363,3.7959747314,1.1460266113.0040130615,2.2930297852-.0199890137,3.4370117188-.0549926758l3.4300231934-.2339935303,3.4299926758-.2430267334c1.1400146484-.1149902344,2.2709960938-.3099822998,3.4069824219-.4609832764l3.4039916992-.4869995117c1.132019043-.1779785156,2.2450256348-.4649963379,3.3680114746-.691986084l3.3610229492-.7270050049c1.1189880371-.2460021973,2.2070007324-.6169891357,3.3109741211-.921005249,17.6470031738-4.992980957,33.8190307617-14.9990081787,46.1840209961-28.5349884033l1.7749938965-1.9600219727.8869934082-.9799957275.8179931641-1.0379943848,3.2690124512-4.1570129395c1.9840393066-2.9109954834,4.0769958496-5.7599945068,5.7619934082-8.862991333,7.3940124512-12.7460021973,11.6440124512-27.1949920654,12.7380065918-41.7880096436.5559997559-7.3049926758.233001709-14.6689758301-.8869934082-21.8889770508-1.1119995117-7.2149963379-2.8930053711-14.349029541-5.6390075684-21.1100158691-.592010498-1.7260131836-1.3779907227-3.3719787598-2.1400146484-5.0269775391-.7690124512-1.6520385742-1.4719848633-3.3340148926-2.3939819336-4.9080200195-.8829956055-1.5919799805-1.7239990234-3.2080078125-2.641998291-4.7770080566l-2.9479980469-4.5929870605c-4.1140136719-5.9970092773-8.8259887695-11.5670166016-14.075012207-16.5820007324-5.333984375-4.9270019531-11.1629943848-9.2853088379-17.3739929199-13.0083007812l-4.758026123-2.6148986816c-.7789611816-.4606933594-1.616973877-.8081970215-2.4359741211-1.1901855469l-2.466003418-1.1292114258c-3.2520141602-1.5769042969-6.6659851074-2.8031005859-10.1000061035-3.9169006348-2.6959838867-.7698059082-4.2029724121-.557220459-4.3540039062-.0090026855-.1549987793.5653991699,1.0150146484,1.459197998,3.5639953613,2.4067993164,3.3170166016,1.1571044922,6.6070251465,2.4179077148,9.7380371094,4.0241088867l2.3709716797,1.1488037109c.7880249023.387878418,1.5930175781.7409057617,2.3400268555,1.2060852051l4.5579833984,2.6354064941c5.9389953613,3.7402954102,11.4799804688,8.0773010254,16.5220031738,12.938293457,4.9570007324,4.950012207,9.3729858398,10.4110107422,13.1979980469,16.2529907227l2.733001709,4.4680175781c.8469848633,1.5239868164,1.617980957,3.0919799805,2.4309997559,4.633972168.8529968262,1.5230102539,1.4869995117,3.1520385742,2.1889953613,4.7470092773.6940002441,1.5989990234,1.4140014648,3.1860046387,1.9410095215,4.8489990234,2.484954834,6.5130004883,4.0269775391,13.3500061035,4.9350280762,20.2280273438.9159545898,6.8829956055,1.0699462891,13.8689880371.3929748535,20.7679748535-1.3380126953,13.7970275879-5.649017334,27.3110046387-12.8390197754,39.0900268555-1.5709838867,2.9089813232-3.5419921875,5.5719909668-5.3939819336,8.3029785156l-3.0640258789,3.8930206299-.7639770508.9739837646-.8330078125.9179992676-1.6640014648,1.8349914551c-11.5859985352,12.6850128174-26.7539978027,22.0680084229-43.283996582,26.7440032959-1.0350036621.283996582-2.0530090332.6369934082-3.1019897461.8660125732l-3.149017334.6779785156c-1.0520019531.212020874-2.0929870605.4850158691-3.1530151367.6500091553l-3.1889953613.4540252686c-1.0639648438.141998291-2.1229858398.3269805908-3.1909790039.4349975586l-3.2130126953.2239990234-3.2139892578.2229766846c-1.074005127.032989502-2.1480102539.0559844971-3.2210083008.0520019531-8.5889892578-.0050048828-17.1839904785-1.2179870605-25.4499816895-3.5589752197-4.1280212402-1.1910095215-8.1890258789-2.5930480957-12.092010498-4.4100036621-3.9370117188-1.7270202637-7.7380065918-3.7410125732-11.3970031738-5.9870300293-7.3050079346-4.5139923096-13.9739990234-10.0569915771-19.7600097656-16.4069976807-11.5939941406-12.6859741211-19.5815887451-28.6329803467-22.7420959473-45.5199737549l-.8247070312-4.8840026855-.4797973633-4.9309997559c-.3473815918-3.2850341797-.3707885742-6.5970153809-.2997894287-9.8970336914.2503967285-13.7849731445,3.4883880615-27.600982666,9.7306976318-39.9799804688l2.3977050781-4.6139831543,2.7299957275-4.4299926758c.8589935303-1.5110168457,1.9589996338-2.8610229492,2.9510040283-4.2850036621l1.5209960938-2.115020752c.5100097656-.7030029297,1.1009979248-1.342010498,1.6470031738-2.016998291,4.3249969482-5.4440002441,9.3899993896-10.2879943848,14.8619995117-14.5889892578,2.6849975586-2.2269897461,5.6369934082-4.092010498,8.5350036621-6.0321044922l4.533996582-2.6123046875c.3800048828-.2138977051.7519836426-.4451904297,1.1389923096-.6452941895l1.1780090332-.571105957,2.3549957275-1.1438903809c6.31300354-2.9580993652,12.9169921875-5.4124145508,19.7729797363-6.8510131836,1.690032959-.4684753418,3.4280395508-.6982116699,5.1530151367-.9956970215,1.7279968262-.2809143066,3.450012207-.6268920898,5.2020263672-.7325134277l5.2389831543-.4783935547c1.7529907227-.1015930176,3.5029907227-.1467895508,5.2569885254-.1454772949,7.008026123.0279846191,14.0530090332.8055725098,20.9070129395,2.3639831543,2.6669921875.5311889648,4.1300048828.3851013184,4.2949829102-.1766967773.1620178223-.546081543-1.0100097656-1.5194091797-3.708984375-2.2789916992h0Z" fill="#1d1d1b"/>
  <path d="M286.8285500834,381.6905801127c.9240112305,10.98097229.6410217285,22.0249786377-.5009765625,32.9439849854-.5770263672,5.4600067139-1.382019043,10.8929901123-2.3940124512,16.2830047607-.4960021973,2.6969909668-1.0599975586,5.3810119629-1.6709899902,8.0519714355-.291015625,1.3380126953-.6240234375,2.6680297852-.9470214844,3.9980163574l-.242980957.9980163574-.1300048828.4969787598-.0639953613.2480163574-.0310058594.1170043945-.0039978027.0010070801c-.0200195312,0-.0379943848-.0090026855-.0539855957-.0250244141l-1.1020202637-.0289916992c-1.3030090332-.0419921875-2.6059875488-.0939941406-3.9069824219-.1679992676-13.541015625-.7510375977-27.0000152588-3.2049865723-39.9349975586-7.2860107422l-2.4190063477-.782989502-2.1670074463-.7399902344c.0050201416-.0160217285-.0070037842.0379638672.0080108643-.0350036621.6569976807-3.3309936523,1.425994873-6.6560058594,2.2449951172-9.9730072021,1.6559906006-6.633026123,3.5449981689-13.2320251465,5.5650024414-19.7980194092.7820129395-2.5229797363,1.5739898682-5.0439758301,2.3949890137-7.5579986572,1.2360076904-4.2129821777,2.5189971924-8.4169921875,3.8480072021-12.6089935303l2.0159912109-6.2830047607.9370117188-2.8850097656.2899932861-1.0539855957.56199646.1529846191.1560058594.0420379639.5899963379.2059936523,1.2169952393.4109954834c1.6260070801.5359954834,3.2660217285,1.0289916992,4.9150085449,1.4779968262,3.3000183105.8970184326,6.6399841309,1.620010376,10.0029907227,2.1699981689,6.7250061035,1.1029968262,13.5490112305,1.5030212402,20.3210144043,1.1910095215,2.1799926758-.2690124512,2.0690002441-2.3630065918-.0460205078-2.5239868164-6.6029663086-.0660095215-13.1779785156-.8250274658-19.5879821777-2.2490386963-3.2059936523-.7099761963-6.3699951172-1.5829620361-9.4739990234-2.6170043945-1.5520019531-.516998291-3.0890045166-1.0739593506-4.608001709-1.6719970703l-2.7320098877-1.1119995117-4.1019897461-1.7649841309-5.6620025635,14.7030181885c-1.5729980469,4.1429901123-3.1029968262,8.3049926758-4.5880126953,12.4869995117-.8299865723,2.5399475098-1.6309814453,5.0909729004-2.4219665527,7.6459960938-2.0460205078,6.6499786377-3.9650268555,13.3489990234-5.6580200195,20.1329803467-.8389892578,3.39402771-1.6289978027,6.8070220947-2.3099975586,10.2590179443l-.9739990234,5.0479736328c-.0010070801.0950317383-.0840148926.2370300293-.016998291.2929992676l.3040008545.1099853516.6089935303.2200317383,1.2169952393.4400024414,2.4360046387.8749694824,2.7389984131.9389953613,2.5140075684.8140258789c13.4389953613,4.2380065918,27.3989868164,6.7840270996,41.4709777832,7.5649719238,1.3520202637.0770568848,2.7060241699.1310119629,4.0600280762.1760559082l2.8809814453.0609741211,1.991027832.0270080566.9959716797.0130004883.2489929199.0029907227.1240234375.0019836426.0289916992-.1199645996.1130065918-.4840087891.884979248-4.0759887695.2380065918-1.1650085449.1929931641-1.0379943848c.2550048828-1.3829956055.5190124512-2.7640075684.7420043945-4.1530151367.4720153809-2.7729797363.8949890137-5.5529785156,1.2490234375-8.3410339355.7269897461-5.5739593506,1.2380065918-11.1719665527,1.5149841309-16.7799835205.5429992676-11.2099761963.1970214844-22.4690093994-1.3640136719-33.5569610596-.4389648438-2.1340179443-2.5179748535-1.8620300293-2.5090026855.2760009766h0Z" fill="#1d1d1b"/>
  <path d="M339.3065774272,130.9968545268c-1.591003418,10.9981079102-3.9750061035,21.8656921387-7.241027832,32.428894043-1.6319885254,5.2808227539-3.4849853516,10.4841003418-5.566986084,15.5816955566-.5079956055,1.2794189453-1.0399780273,2.5483093262-1.6040039062,3.8029174805-.5549926758,1.2579956055-1.0879821777,2.5251159668-1.6899719238,3.7602844238-.5950317383,1.2380981445-1.1520385742,2.4930114746-1.7760314941,3.7149963379l-.4669799805.9172058105c-.1100158691.2216186523-.0700073242.1262207031-.0860290527.1484069824l-.0149841309-.0016784668c-.0179748535-.007019043-.0350036621-.0174255371-.0439758301-.0431213379l-1.0650024414-.4125976562c-1.2930297852-.4877929688-2.5950012207-.9499816895-3.9049987793-1.3883056641-5.7710266113-1.9114990234-11.7109985352-3.2890930176-17.7250061035-4.1292114258-3.0090026855-.4155883789-6.0360107422-.7022705078-9.0719909668-.8411865234-1.5180053711-.0722961426-3.0370178223-.1092834473-4.5570373535-.1072998047l-1.2619934082.0082092285.1840209961-8.7243041992c.1189880371-3.9953918457.2519836426-7.9901123047.4440002441-11.979095459.3689880371-7.978515625.9150085449-15.9417114258,1.7219848633-23.8529968262l.433013916-3.9465026855.4960021973-3.9318237305.4719848633-4.1034851074.5589904785-4.0821838379.166015625-1.0127258301.016998291-.1089782715-.0019836426-.0104980469-.0030212402-.0219116211-.0059814453-.0475158691c.009979248-.0452880859-.0460205078-.2026977539.0269775391-.2086791992.0650024414-.0186157227.1420288086-.037689209.233001709-.0545959473l1.9430236816-.0034179688c5.4979858398.0280151367,11.0019836426.3541259766,16.4849853516.9434204102,10.9639892578,1.196472168,21.8439941406,3.4856872559,32.4010009766,6.8838806152,2.0859985352.5202941895,2.825012207-1.4416809082.8399963379-2.3804931641-10.5149841309-4.0421142578-21.4739990234-6.9984130859-32.6450195312-8.8500061035-5.5879821777-.9169921875-11.2289733887-1.5678100586-16.8979797363-1.9122924805l-2.2449951172-.1201171875-3.950012207-.1104736328-.5-.0130004883-.25-.0065002441c-.0709838867.0135803223-.0479736328.1408996582-.0769958496.2057800293l-.2030029297.9583129883-.4070129395,1.9371948242-.6189880371,2.9127197266-.8129882812,4.184387207-.7200012207,4.1907958984-.508026123,4.0317993164-.4429626465,4.0320129395c-.8230285645,8.0694885254-1.3740234375,16.1389770508-1.7480163574,24.2060852051-.1940002441,4.0336914062-.3290100098,8.0667114258-.4479980469,12.099395752l-.1380004883,6.0487060547-.1370239258,9.3175964355,4.4390258789-.1690063477,1.1100158691-.0375061035.9819641113-.0158691406,1.0670166016-.0063171387c1.4230041504-.0021057129,2.8459777832.0327148438,4.2680053711.1004943848,2.8429870605.1299133301,5.6799926758.3988037109,8.5010070801.7882995605,5.6430053711.7882080078,11.2149658203,2.0811157227,16.617980957,3.8708190918,1.2269897461.4106750488,2.4470214844.8433837891,3.6570129395,1.2998962402l.9049987793.3504943848.8349914551.3349914551.9309997559.3860168457,3.716003418,1.5475769043,1.7480163574-3.8303833008.7939758301-1.7470092773.4299926758-.9765014648c.575012207-1.3009033203,1.0809936523-2.6304931641,1.6240234375-3.9431762695.5490112305-1.3101196289,1.0269775391-2.6480102539,1.5270080566-3.9760131836.508972168-1.325012207.983001709-2.6615905762,1.4339904785-4.0061950684,1.8479919434-5.3607177734,3.4479980469-10.7944030762,4.8139953613-16.2763061523,2.733001709-10.9652099609,4.532989502-22.1177978516,5.5220031738-33.3132019043.0390014648-2.187713623-2.0469970703-2.3981933594-2.5079956055-.290802002h0Z" fill="#1d1d1b"/>
  <path d="M444.4935586284,314.4125497172c-1.1869812012,5.4010162354-2.6560058594,10.7319946289-4.3779602051,15.9700012207-.8630371094,2.6179962158-1.7900390625,5.2140197754-2.782043457,7.7819976807l-.3739624023.9520111084-.1550292969.3389892578-.1500244141.3180236816-.0719604492.1519775391c-.048034668.0059967041-.1180114746-.0260009766-.1750183105-.0369873047l-.6709899902-.1840057373c-.6050109863-.1320037842-1.325012207-.2789916992-1.9799804688-.4429931641-10.7270202637-2.5090179443-21.3010253906-5.8460083008-31.7720336914-9.4520111084-2.5299987793-.7969970703-5.0559997559-1.6049804688-7.5759887695-2.4409942627-3.5159912109-1.1539916992-7.0199890137-2.3510131836-10.5180053711-3.5660095215l-7.3590087891-2.6079864502.791015625-2.0119934082c.6510009766-1.7130126953,1.2540283203-3.4440155029,1.8089904785-5.1900024414,1.1110229492-3.4920196533,2.0330200195-7.0440216064,2.7489929199-10.6360015869.7200317383-3.591003418,1.2510375977-7.2189941406,1.5740356445-10.8699951172.1619873047-1.8240356445.2749938965-3.6540222168.3359680176-5.4860229492l.0370178223-1.3739624023.0159912109-1.2200317383v.0020141602l-.0039978027.0009765625h-.0029907227l.5419921875-.049987793,1.1199951172-.1029663086,4.4940185547-.2880249023c2.9989929199-.1430053711,6.0019836426-.2250061035,9.0079956055-.2230224609,2.6219787598.0150146484,5.2449951172.0500183105,7.8659973145.1810302734,10.9620361328.1689758301,21.9489746094,1.2899780273,32.8129882812,3.2199707031,1.3599853516.2310180664,2.7139892578.4970092773,4.0679931641.7609863281l1.9960021973.4010009766.7640075684.1240234375c.0460205078.0280151367.183013916-.0139770508.1569824219.0710144043l.0100097656.1879882812.0190124512.391998291.0069885254.2030029297.0039978027.3110046387-.0130004883,1.032989502c-.0189819336,1.3780212402-.0639953613,2.7550048828-.1159973145,4.1329956055-.225982666,5.5100097656-.7299804688,11.0160217285-1.5079956055,16.4909973145-.158996582,2.1390075684,1.8999938965,2.5340270996,2.4880065918.4260101318,1.0989685059-5.5059967041,1.924041748-11.0739898682,2.467010498-16.6789703369.1319580078-1.4010314941.2569885254-2.8040161133.3539428711-4.2090454102l.0720825195-1.0539855957.0809326172-1.5719909668.0730285645-1.6940002441.0369567871-.8550109863c0-.0689697266.0130310059-.1479797363.0020446777-.208984375l-.2019958496-.0529785156-.4050292969-.1050415039-5.3689880371-1.3939819336c-1.3620300293-.3470153809-2.725982666-.6929931641-4.0969848633-1.0060119629-10.9530029297-2.5820007324-22.1289978027-4.3619995117-33.4289855957-5.1679992676-2.70703125-.1350097656-5.4210205078-.1719970703-8.1340332031-.1869812012-3.1109924316-.0020141602-6.2230224609.0820007324-9.333984375.2309875488l-4.6629943848.299987793-7.4810180664.6860046387.0690002441,5.3500061035-.0179748535,1.4410095215-.0340270996,1.2869873047c-.0579833984,1.716003418-.1629943848,3.4299926758-.3150024414,5.1409912109-.3029785156,3.4210205078-.8020019531,6.8260192871-1.475982666,10.1950378418-.6719970703,3.3699951172-1.5369873047,6.6989746094-2.5780029297,9.9719848633-.5199890137,1.6359863281-1.0849914551,3.2579803467-1.6950073242,4.8629760742l-.466003418,1.2000274658-.2399902344.5979919434-.4719848633,1.1389923096-2.132019043,4.9140014648,8.3789978027,3.0269927979,5.283996582,1.865020752c3.5290222168,1.2249908447,7.0660095215,2.4339752197,10.6180419922,3.5999755859,2.5449829102.8440246582,5.0999755859,1.661026001,7.6599731445,2.4680023193,10.7850036621,3.0520019531,21.6690063477,5.8360137939,32.7779846191,7.7900085449l5.5559997559.9239959717.4220275879.0700073242.2109985352.0349884033.1049804688.0170135498c.041015625.0159912109.0700073242.0110015869.074005127-.0379943848l.29296875-.8260192871.5800170898-1.6360015869.5650024414-1.6209869385.3340454102-1.0130157471c.867980957-2.6819763184,1.6669921875-5.384979248,2.3969726562-8.1039886475,1.458984375-5.4379882812,2.6489868164-10.9409942627,3.5469970703-16.4839935303.1900024414-2.1800079346-1.8770141602-2.5319976807-2.4800109863-.4740142822h0Z" fill="#1d1d1b"/>
  <path d="M188.2838723491,268.0085732768c-.6883087158,3.5679931641-1.1755981445,7.1799926758-1.4642944336,10.8139953613-.1440124512,1.8159790039-.237411499,3.6389770508-.2799072266,5.4639892578l-.0592956543,3.4939880371c-1.057800293-.050994873-1.3346099854-.1119689941-3.6719055176-.200958252l-5.6460876465-.2670288086c-3.7622070312-.200012207-7.5224151611-.4140014648-11.2766113281-.6790161133-7.5090942383-.5129699707-15.0018005371-1.1649780273-22.4441986084-2.0379943848-2.6358032227-.225982666-5.2641143799-.4960021973-7.8848114014-.7950134277-3.4105834961-.3789672852-6.8014984131-.8429870605-10.1702880859-1.3759765625-.4221038818-.0640258789-.8438110352-.1289978027-1.2610931396-.2070007324l-.6279144287-.1109924316c-.155090332-.0280151367-.0605926514-.0109863281-.0861053467-.0150146484h.0028076172l.0068054199.0020141602.0614929199-3.0200195312c.2073974609-6.8039855957.8479003906-13.5939941406,1.9033050537-20.3190002441,1.061706543-6.7250061035,2.5401000977-13.383972168,4.4353027344-19.9230041504.4703979492-1.6359863281.9723968506-3.2619934082,1.4958953857-4.8819885254l.4678955078-1.4239807129-.0101928711-.0010070801,1.1504058838.1459655762,2.5408935547.3550415039c1.6923980713.2469787598,3.3825073242.509979248,5.0688018799.7939758301,2.5931854248.4390258789,5.1785888672.9219970703,7.7534942627,1.4530029297,7.9290008545,1.4010009766,15.7810974121,3.266998291,23.4971923828,5.6130065918,3.8490142822,1.1960144043,7.6811981201,2.4680175781,11.4438171387,3.924987793,1.8942871094.6990356445,3.7567901611,1.4750366211,5.6203918457,2.2520141602.9380950928.3760070801,1.8569030762.7929992676,2.7771911621,1.2080078125l1.3184051514.5479736328-.8861999512,2.7700195312c-.4565887451,1.441986084-.879196167,2.8940124512-1.2678985596,4.3540039062-.7777099609,2.9209899902-1.4204101562,5.8720092773-1.9226074219,8.8439941406-.2015991211,2.1940002441,1.8679046631,2.5320129395,2.4763183594.4909973145.6499938965-2.8639831543,1.4338989258-5.6940002441,2.3439941406-8.4770202637.4549865723-1.3919677734.941696167-2.7729797363,1.4597930908-4.1399841309l.9184112549-2.3469848633,1.334197998-3.25-4.1815032959-2.1210021973c-.9163970947-.4769897461-1.8325958252-.9550170898-2.7681121826-1.3920288086-1.8588867188-.900970459-3.7207946777-1.799987793-5.6164855957-2.6229858398-3.7672119141-1.7049865723-7.6147003174-3.2260131836-11.4919128418-4.6719970703-7.7710876465-2.8439941406-15.7229919434-5.2099914551-23.7917022705-7.1040039062-2.6505889893-.5459899902-5.3107910156-1.0429992676-7.978302002-1.4949951172-1.7346954346-.2919921875-3.4727935791-.5629882812-5.213180542-.8160095215l-2.6128997803-.3649902344-4.0223999023-.5010070801-1.2879943848-.1549987793-.6440124512-.0769958496c-.0933990479.0090026855-.2456970215-.0749816895-.290802002.0110168457l-.1060943604.3069763184-.8480987549,2.4559936523-.7648162842,2.25-.4124908447,1.2600097656c-.5435943604,1.6809997559-1.0645904541,3.3699951172-1.5531005859,5.0680236816-1.9676971436,6.7899780273-3.5031890869,13.7039794922-4.6053924561,20.6869812012-1.0960998535,6.983001709-1.7613067627,14.0350036621-1.9766082764,21.1020202637l-.057800293,2.6510009766-.020401001,4.7299804688-.000793457.649017334-.0003967285.3249816895v.0810241699l.0786895752.0159912109.1596069336.0279846191,1.2765960693.2310180664,2.5652923584.4579772949,1.8507080078.3290405273c.4354095459.0809631348.8710021973.1469726562,1.3065032959.2129516602,3.4842071533.5520324707,6.9692993164,1.0280151367,10.4547119141,1.416015625,2.68019104.3059997559,5.3605957031.5809936523,8.0408935547.8099975586,7.6088867188.466003418,15.2050933838.7010192871,22.7937011719.7959899902,3.7942962646.0550231934,7.5864868164.0600280762,11.3771057129.0500183105l13.3295898438-.1190185547-.2893981934-4.3169555664-.0844116211-1.6400146484-.0520935059-1.3190002441c-.0571899414-1.7610168457-.0652008057-3.524017334-.0240020752-5.2880249023.0832061768-3.5279846191.3594970703-7.0569763184.8354949951-10.5650024414.1480102539-2.125-1.908493042-2.5349731445-2.4910888672-.4099731445h0Z" fill="#1d1d1b"/>
  <path d="M125.6933724711,252.3165566752l1.2980041504.4700012207.192276001-.5369873047-.0074920654.0069885254c-.0079956055,0,.0299987793-.0039978027-.0067901611-.0050048828l-.0061035156-.0010070801c.1540985107.0299987793-1.3426055908-.2609863281-.709487915-.1359863281l-.0008087158.0019836426-.0017089844.0050048828-.0033874512.0110168457-.0067138672.0199890137-.0270996094.0820007324-.0540924072.1650085449-.1082000732.3290100098-.216506958.6599731445-.4230804443,1.3179931641-.2116088867.6590270996c-.0626068115.1769714355-.0904083252.1689758301-.1354980469.2529907227-.0815124512.1220092773-.1582946777.2189941406-.2304992676.2909851074-.0567016602.0720214844-.1604003906.132019043-.3056945801.0670166016-.1308135986-.0719909668-.2351074219-.1570129395-.3154144287-.2279968262-.0554046631-.0500183105-.0988922119-.099029541-.1305847168-.1449890137l-.0214080811-.0340270996-.2261047363-.0719909668-.4556884766-.1430053711-1.8227081299-.574005127-1.737701416-.3149719238-7.1357116699-1.2930297852.1734161377-.9559936523.0463867188.0079956055,7.4226989746.3989868164,3.7113037109.1990356445,1.8557128906.0999755859.9277954102.049987793.1159973145.0060424805.1188049316-.615020752c.0028991699-.0090026855.0001831055-.0030212402.0001831055-.0030212402-.0047912598.0060119629-.0081787109.0050354004.0010986328.0020141602,0,0,.0043182373-.0009765625-.0037841797-.0009765625-.0255126953-.0020141602.0467987061.0029907227.112197876.0130004883l.1962890625.033996582.4183044434.0849914551c.2825927734.0530090332.5766143799.0710144043.816192627-.0400085449.2366027832-.1059875488.4105072021-.3619995117.365020752-.6929931641-.1076965332-.4030151367-.3428039551-.7749938965-.6773071289-1.0469970703-.1659088135-.1369934082-.3571014404-.2489929199-.5603027344-.3269958496-.0964050293-.0400085449-.2173919678-.0710144043-.300201416-.0930175781l-.1108093262-.033996582-.8862762451-.2789916992-1.7726135254-.558013916-3.5451965332-1.1159973145-7.0905151367-2.2319946289-2.3963012695-.4339904785c-.3396759033-.0490112305-.6805419922-.0800170898-.983795166-.0459899902-.4713134766.0399780273-.8715515137.1439819336-1.2364044189.300994873-.3874206543.1640014648-.8158416748.4429931641-1.1318817139.75-.3087921143.299987793-.5323791504.5929870605-.7576599121,1.0029907227-.2182617188.4030151367-.3570556641.907989502-.4394226074,1.4370117188l-.9645996094,5.3219909668c-.0881500244.4930114746-.07081604.958984375.002456665,1.3659973145.0796051025.4200134277.1801147461.7369995117.3779296875,1.1159973145.1943359375.3760070801.4851989746.7510070801.7704467773,1.0159912109.2674865723.2550048828.5919342041.4790039062.9863891602.6720275879.3898620605.1969909668.8740692139.3139648438,1.3714904785.3909912109l1.4748840332.266998291,1.7135772705.3110046387,5.8995056152,1.0690002441,1.737701416.3150024414,1.9081878662.1029968262.4770202637.0249938965.2403869629.0130004883.44480896.050994873,1.7348937988.1920166016c.8323974609.0769958496,1.5061035156-.1020202637,2.0616912842-.3630371094.3017120361-.1479797363.6134033203-.383972168.8425140381-.6499633789.2324981689-.2660217285.354095459-.5320129395.4986877441-.8480224609.2971954346-.617980957.3592071533-1.4749755859.4445037842-2.2420043945l.1170043945-1.0929870605.0407867432-.6870117188.1837158203-2.8249816895c.0673980713-.6459960938-.1390991211-1.3070068359-.5373077393-1.7860107422-.1979064941-.2409973145-.4425964355-.4420166016-.7154998779-.5870056152-.1362915039-.0729980469-.2792053223-.1319885254-.4250030518-.175994873-.1499938965-.0449829102-.3146057129-.074005127-.3349914551-.0709838867l-1.374206543-.1329956055c-.5111999512.1039733887-.9729003906,2.1489868164-.5560913086,2.4629821777h0Z" fill="#1d1d1b"/>
  <path d="M458.4185769389,311.9685647319l-.6729736328,2.0570068359-.3370361328,1.0289916992-.1679992676.5139923096c-.0419616699.0910186768-.0759887695.1439971924-.1140441895.2109985352-.1419677734.2470092773-.2569580078.4620056152-.5289611816.5009918213-.2519836426.058013916-.5039978027-.1069946289-.6539916992-.237991333-.0450134277-.0370025635-.0849914551-.0729980469-.1200256348-.1079864502.0220336914-.0100097656-.1419677734-.0540161133-.2229919434-.0840148926l-.2970275879-.0960083008-1.1849975586-.3880004883-2.3709716797-.775970459-1.5930175781-.2890167236-4.1429443359-.7509918213-1.5230712891-.2760162354h.0010375977-.0010375977l.174041748-.9559936523.8730163574.157989502,13.6359863281.5790100098c.467956543-.1329956055.841003418-2.1959991455.450012207-2.4840240479l-12.9710083008-4.2449951172-1.9810180664-.3589782715-.3299865723-.0420227051c-1.3450012207-.1569824219-2.6669616699.2239990234-3.7139892578,1.031036377-1.0480041504.8199768066-1.7380065918,1.9659729004-1.9529724121,3.3630065918l-.5720214844,3.1859893799c-.2170410156,1.3670043945.1249694824,2.6439971924.8900146484,3.7229919434.7909545898,1.06300354,1.8919677734,1.766998291,3.2859802246,1.9969940186l2.6199645996.4749908447,4.1430358887.7510070801,1.5929870605.2890014648,2.4930419922.1050109863,1.2459716797.0530090332.3109741211.0129852295c.1220092773.0079956055.1600036621.0010070801.3850097656.0270080566l1.0960083008.1119995117c.6340026855.0599822998,1.1979980469-.0010070801,1.7359924316-.1529998779.5390319824-.1650085449,1.0530090332-.4420013428,1.4729919434-.825012207.8800048828-.7740020752,1.2180175781-1.850982666,1.2920227051-3.0260009766l.0769958496-.8439941406.0229492188-.5399932861.0460510254-1.0820159912.0919799805-2.1619873047c-.1329956055-.4680023193-2.1959533691-.841003418-2.4839782715-.4499969482h0Z" fill="#1d1d1b"/>
  <path d="M252.5835854838,441.4545266459l2.0599822998.6630249023,1.0309906006.3309936523.5150146484.166015625.2059936523.1090087891c.2590026855.1229858398.4630126953.3020019531.5020141602.5700073242.0529785156.2559814453-.0790100098.5079956055-.2140197754.6649780273l-.0589904785.0729980469c-.0209960938.0270080566-.0330200195.0120239258-.075012207.1600036621l-.2120056152.6570129395-.4219665527,1.3150024414-.8460235596,2.6309814453-.3000030518,1.6560058594-.8939819336,4.9299926758-.9700164795-.175994873.2740020752-1.5589904785.6029968262-14.1719970703c-.1319885254-.4840087891-2.1969909668-.8470153809-2.4859924316-.4370117188l-4.2720031738,13.525970459-.3099975586,1.757019043-.158996582.9040222168c-.25,1.4519958496.1230010986,2.8479919434.9609985352,3.9769592285.8569946289,1.1220092773,2.091003418,1.8330383301,3.5870056152,2.0300292969l7.8079833984,1.4150085449,2.0079956055-11.0799865723.3000183105-1.6570129395.1309814453-2.7590026855.0660095215-1.3800048828.0330200195-.6900024414c-.0010070801-.0770263672.0269775391-.316986084.0469970703-.5150146484l.0629882812-.6000061035c.1329956055-1.2329711914-.2030029297-2.3779907227-.9360046387-3.2739562988-.7409973145-.8970336914-1.8099975586-1.3710327148-2.9570007324-1.4580383301l-.8489990234-.0809631348-.5409851074-.0260314941-1.0810241699-.0520019531-2.1619873047-.1029663086c-.4850006104.1299438477-.8589935303,2.1929931641-.4499816895,2.4839477539h0Z" fill="#1d1d1b"/>
  <path d="M313.56158231,110.2221352885c.0749816895-.0405883789.1600036621-.0326843262.2069702148.0065612793.024017334.0194702148.0370178223.0463256836.0390319824.0731811523.0009765625.0156555176,0,.0285644531-.0010070801.0414733887l.2680053711.0895385742,2.218963623.7343139648c.2690429688.1792602539.4930114746.2614135742.565032959.4999694824.083984375.2425231934-.1000061035.5099487305-.2390136719.6438598633l-.0849914551.0815124512-.041015625.0325927734c-.0119934082.0021972656-.0490112305.1384277344-.0719909668.2010803223l-.3150024414.9600219727-.6300048828,1.9200134277-.2869873047,1.5838012695-1.2109985352,6.6834106445-.9549865723-.1731262207c-.1220092773.2358093262-.0430297852-.6328735352-.031036377-1.138092041l.0710144043-1.6948852539.1409912109-3.3899230957.2820129395-6.7796325684c-.1329956055-.4648132324-2.1959838867-.8386535645-2.4840087891-.4502258301l-2.1149902344,6.447479248-1.0570068359,3.2236938477-.5289916992,1.611907959c-.1870117188.5969848633-.3090209961.8305969238-.6300048828,2.1687011719l-.0760192871.4224853516c-.1479797363.9338989258-.0589904785,1.7318115234.2390136719,2.5202941895.2760009766.7274169922.7539978027,1.3929138184,1.3460083008,1.891998291.5950012207.4984130859,1.2560119629.8336181641,2.1049804688,1.0173339844l4.115020752.7501831055c.9700012207.1517028809,1.7950134277.0567016602,2.6099853516-.2767944336.8129882812-.3269042969,1.5380249023-.9088134766,2.0390319824-1.6112976074.5069580078-.6647033691.7769775391-1.5646057129.9179992676-2.5372009277l.3389587402-1.8695983887,1.0330200195-5.7021179199.2870178223-1.5836791992.083984375-2.0190124512.0419921875-1.0095214844c.007019043-.1015014648,0-.1293640137.0180053711-.2913208008l.0480041504-.4598083496.0929870605-.9032592773c.058013916-.7120666504-.0190124512-1.3298339844-.2219848633-1.9108886719-.2109985352-.5868835449-.575012207-1.1389770508-1.050994873-1.5520629883-.4810180664-.4229736328-1.0280151367-.6771240234-1.6369934082-.8197631836-.6210327148-.1500854492-1.3059997559-.1727294922-1.9340209961-.2427062988l-2.425994873-.1073608398-.3120117188-.0141906738c-.1959838867-.0192260742-.3929748535-.0193481445-.5880126953-.0035400391-.3909606934.0358886719-.7699584961.1489257812-1.1069641113.3251342773-.675994873.3500061035-1.1849975586.9583740234-1.4070129395,1.6479797363-.0679931641.9295349121,2.1499938965.8598937988,2.3340148926.9614868164h0Z" fill="#1d1d1b"/>
  <path d="M458.7345559428,311.6925484965l-15.6060180664-2.8279876709c-.54296875-.0989990234-1.0639648438.2619934082-1.1619567871.8059997559l-.9320373535,5.1380004883c-.0979614258.5429992676.2630615234,1.0639953613.8060302734,1.1620025635l15.6059875488,2.828994751c.5440063477.0979919434,1.0639953613-.262008667,1.1629943848-.8059997559l.9309997559-5.1379852295c.0980224609-.5440216064-.2619934082-1.0640258789-.8059997559-1.1630249023h0Z" fill="#f5f1e9"/>
  <path d="M252.2955605815,441.1365639994l-2.828994751,15.6050109863c-.0980072021.54296875.262008667,1.0639953613.8059997559,1.1619873047l5.137008667.9309997559c.5429992676.0989990234,1.0639953613-.2619934082,1.1619873047-.8049926758l2.8290100098-15.6060180664c.0979919434-.5429992676-.2620239258-1.0629882812-.8059997559-1.1619873047l-5.137008667-.9309997559c-.5439910889-.0979919434-1.0639953613.2619628906-1.1620025635.8059997559h0Z" fill="#f5f1e9"/>
  <path d="M312.3975503276,109.5299050639l-2.8280029297,15.6040649414c-.0989685059.5433959961.2620239258,1.0637817383.8050231934,1.1622924805l5.1380004883.9310913086c.5429992676.0985107422,1.0629882812-.2622070312,1.1620178223-.8056030273l2.8279724121-15.6040649414c.0989990234-.5434265137-.2619934082-1.0638122559-.8059997559-1.1622924805l-5.1369934082-.9310913086c-.5429992676-.0985107422-1.0629882812.2621765137-1.1620178223.8056030273h0Z" fill="#f5f1e9"/>
  <path d="M127.1273629496,251.5905740092l-15.6040039062-2.8280029297c-.5434417725-.0989990234-1.0638122559.2619934082-1.162322998.8049926758l-.9312896729,5.1389770508c-.0984954834.5430297852.2621917725,1.0630187988.8056335449,1.1620178223l15.6040802002,2.8280029297c.5434112549.0989990234,1.0637969971-.2619934082,1.1623077393-.8049926758l.9313049316-5.1390075684c.0984954834-.5429992676-.2622070312-1.0640258789-.8057098389-1.1619873047h0Z" fill="#f5f1e9"/>
</svg>