<?xml version="1.0" encoding="UTF-8"?>
<svg id="Ebene_1" data-name="Ebene 1" xmlns="http://www.w3.org/2000/svg" xmlns:xlink="http://www.w3.org/1999/xlink" viewBox="0 0 566.9291338583 566.9291338583">
  <defs>
    <clipPath id="clippath">
      <rect x="103.4645669291" y="114.4645669291" width="359.6590118408" height="339.6699829102" fill="none"/>
    </clipPath>
    <clipPath id="clippath-1">
      <rect x="103.4645669291" y="114.4645669291" width="359.6590118408" height="339.6699829102" fill="none"/>
    </clipPath>
  </defs>
  <g clip-path="url(#clippath)">
    <path d="M140.9859597514,174.9279458354c-2.3302001953-3.1347961426-5.4557037354-5.6636047363-8.8842926025-7.592010498-.4062042236-.2438964844-.8528900146-.3987731934-1.2796020508-.5974731445-4.471206665-1.9937133789-9.2669067383-3.19921875-14.1280975342-3.5427246094l-1.4028930664-.0950927734c-.979598999-.0012817383-1.9606781006.0636901855-2.9359588623.1031188965-.9767913818.1229858398-1.9515838623.1586914062-2.918838501.3552856445l-1.4474182129.2601928711-1.4303588867.3798217773c-.9428405762.2954711914-1.8835754395.6313781738-2.7472839355,1.192779541-.3193969727.2412109375.0559387207.7478027344.3941345215.646697998.7925720215-.4122924805,1.7003936768-.6457824707,2.6042327881-.8335876465l1.3781280518-.2261962891,1.4012451172-.1123962402c.927734375-.0984191895,1.8776550293-.0392150879,2.8092346191-.0675964355.9389953613.0547790527,1.875869751.0825805664,2.8082733154.174987793l1.3429107666.0914001465c4.6575012207.3261108398,9.2595977783,1.4906921387,13.4962921143,3.3800048828.4041900635.1883850098.8310089111.3338012695,1.2124023438.5653991699,3.404296875,1.5014038086,6.6038970947,3.5987854004,9.1463012695,6.4024963379.296295166.2255859375.7883911133-.1661987305.5815887451-.4851074219h0Z" fill="#1d1d1b"/>
    <path d="M141.716962559,178.1576516459c-2.7590942383-2.7647094727-6.217590332-4.8147888184-9.8890991211-6.2268981934-.4371948242-.1826171875-.9015960693-.2712097168-1.3526000977-.4060974121-4.7124938965-1.3260192871-9.6322021484-1.825012207-14.491897583-1.4617004395l-1.4019012451.108795166c-.9694976807.1405029297-1.9308624268.3467102051-2.8901824951.5267028809-.9486999512.263092041-1.9080505371.4393920898-2.8367156982.7738952637l-1.3945617676.466796875-1.3603668213.5827026367c-.8901672363.428894043-1.7724304199.8973083496-2.5458374023,1.5776977539-.2811584473.2847900391.16355896.7318115234.4835510254.5829162598.7245788574-.5226135254,1.5890808105-.8849182129,2.4562530518-1.2015991211l1.3309173584-.4231262207,1.370223999-.313873291c.9037475586-.231628418,1.8522186279-.3105163574,2.7699279785-.4734191895.9370269775-.0816040039,1.8680877686-.1896057129,2.8040924072-.2330932617l1.3419952393-.1036987305c4.6555938721-.3511047363,9.3778076172.1354980469,13.8432006836,1.391998291.4272003174.1279907227.8706054688.2102050781,1.2814025879.3840026855,3.5857086182.9931945801,7.0550994873,2.6058044434,9.9763031006,5.0122070312.3258972168.1802978516.7561035156-.278503418.5052947998-.5642089844h0Z" fill="#1d1d1b"/>
  </g>
  <path d="M142.8816659282,171.3784463237c-3.8571014404-.6162109375-7.8601989746-.2434082031-11.6609039307.770904541-.4611053467.1090087891-.8889007568.3102111816-1.3330993652.466003418-4.5924987793,1.6955871582-8.8668060303,4.1820983887-12.5859985352,7.3312072754l-1.0704956055.9115905762c-.7020111084.6831970215-1.3588104248,1.4148864746-2.0294036865,2.124206543-.6131134033.7702026367-1.2858734131,1.4765930176-1.8408508301,2.2927856445l-.8542785645,1.1971130371-.7584991455,1.2708129883c-.4684143066.8699645996-.9071655273,1.7672729492-1.1332855225,2.772277832-.0601654053.395690918.5623016357.4961853027.7337799072.187713623.2793273926-.8486022949.7660217285-1.649810791,1.2817230225-2.4154052734l.8284301758-1.124420166.9243621826-1.0589904785c.5953216553-.7183837891,1.3165283203-1.3393859863,1.9634094238-2.0104064941.7104034424-.6164855957,1.4002990723-1.2508850098,2.1322174072-1.8359985352l1.0249938965-.8723754883c3.5611877441-3.019317627,7.6683959961-5.399810791,12.0202026367-7.0064086914.4208068848-.1473999023.8278961182-.3414001465,1.2624969482-.4421081543,3.4851074219-1.3028869629,7.2399902344-2.0361938477,11.0177001953-1.8050842285.3697052002-.045501709.4481964111-.6695251465.0774993896-.7534179688h0Z" fill="#1d1d1b"/>
  <path d="M398.3055856059,383.1625497172c4.3059692383,1.1900177002,8.5139770508,1.9609832764,13.008972168,1.3680114746,7.5360107422-.9930114746,14.673034668-4.4839935303,20.5659790039-9.2319946289,3.8610229492-3.1100158691,7.2440185547-6.7420349121,10.6440124512-10.3350372314,4.3190002441-4.5629882812,8.8789978027-9.3259735107,15.0119934082-11.3139801025-2.5569458008-1.7030029297-5.4329833984-3.0110015869-8.3109741211-4.0679931641-5.0840148926-1.8659973145-10.5780029297-2.7600097656-15.9730224609-2.9820098877-7.842956543-.3239898682-15.7529907227.870010376-23.2200012207,3.2720031738-9.268951416,2.9820098877-17.9020080566,7.6230010986-26.7039794922,11.7230224609,3.0310058594,6.0969696045,5.3159790039,13.5109558105,10.2720031738,18.3399963379,1.1609802246,1.1309967041,2.5130004883,2.2779693604,4.0239868164,2.8919830322.0109863281.0050048828.6650390625.300994873.6810302734.3359985352h0Z" fill="#008939"/>
  <path d="M394.241559727,372.3005502055l-.6359863281-.0620117188-.0370178223.1840057373c1.2470397949.8300170898,2.8070373535,1.3860168457,4.200012207,1.9290008545,5.4289855957,2.1159973145,10.8700256348,2.8229827881,16.650970459,2.0090026855.4360046387-.0929870605.8200073242-.2370147705,1.2340393066-.3960113525l-.0830383301-.2489929199-21.3289794922-3.4149932861h0Z" fill="#005538"/>
  <path d="M431.5175607035,363.16654752c-5.7169799805,1.1520233154-11.5909729004,2.0199890137-17.4320068359,2.178024292h-11.7379760742c-2.1470336914-.0149993896-4.7590332031-.2920379639-6.8320007324.2779998779.3680114746.2989654541.7369689941.3809814453,1.1809997559.5260009766,3.1619873047.9169921875,6.6929626465,1.2569732666,9.9710083008,1.4239654541,8.6279907227.4410095215,17.0360107422-.5680084229,24.8499755859-4.4059906006h0Z" fill="#005538"/>
  <path d="M433.4095589946,353.1975533793c-8.5679931641-.5720062256-16.7960205078.6999969482-24.9879760742,3.1609954834-4.592010498,1.3800048828-9.1430358887,3.0930023193-13.2690124512,5.5489959717,1.6599731445-.1469726562,3.2050170898-.4640045166,4.825012207-.8349914551,5.6000061035-1.5110015869,11.208984375-2.9960021973,16.9169921875-4.0420074463l22.583984375-3.0349884033c-.5520019531-.2120056152-1.316986084-.2290039062-1.9119873047-.3079986572l-4.1570129395-.4900054932h0Z" fill="#005538"/>
  <path d="M198.837476475,384.3505379985c-.086807251-.2329711914-.1037139893-.3249969482-.2841186523-.5410003662-.9145965576-1.0950012207-2.595489502-2.075012207-3.7036895752-3.0449981689l-8.8180084229-8.2389831543c-5.1510925293-5.1790161133-9.9839935303-10.7810211182-14.3081817627-16.6690063477l-3.6925201416-5.3110046387c-.8228912354-1.2359924316-1.6092987061-2.6089935303-2.6287841797-3.6889953613l.0208892822.3390045166c.1821136475,3.2189941406-.1811981201,6.6969909668-.4971160889,9.9039916992-1.326385498,13.4640045166-5.1028747559,27.229019165-14.4250793457,37.4550018311-2.4282989502,2.6640014648-5.1105957031,5.0370178223-8.033203125,7.1449890137-1.2882080078.9300231934-2.5973968506,1.8260192871-3.9653015137,2.6360168457-3.1037902832,1.8380279541-7.2679901123,3.7669830322-8.8975067139,7.2440032959-.2731933594.5830078125-.5721893311,1.3330078125-.520690918,1.9909820557.0971984863,1.236038208.832611084,2.3510131836,1.7821044922,3.1090087891,2.2153015137,1.7709960938,5.3270874023,2.2630157471,8.0571899414,2.6080169678,3.0323028564.3829956055,6.3185119629.1640014648,9.3403015137-.1959991455,11.5628967285-1.3780059814,23.0236968994-6.5110321045,32.1261138916-13.7050170898,7.3761901855-5.8299865723,13.9116821289-12.7319793701,18.4476013184-21.0360107422h0Z" fill="#005538"/>
  <path d="M143.5337502787,144.533658726l-.7742767334.9020996094c-.2725067139-.0032043457-.6184082031-.0450134277-.8824157715.0164794922-3.3348846436-.2431030273-7.4111022949.3973999023-10.0567932129,2.6332092285-.7007904053.5923156738-1.3405914307,1.307220459-1.7057952881,2.1531066895-2.429107666,3.4010925293-4.2294006348,6.8851013184-5.4396972656,10.8886108398-.3512115479,1.1624755859-.7639007568,2.4149780273-.7341156006,3.6389770508-.0301971436.5308227539.0498046875,1.0130004883-.353302002,1.4217224121l-.1397857666.0803833008c-.3806152344,1.2146911621.2944946289,2.6842041016-.245513916,3.7194213867l.3696136475.2888793945.1004943848.957611084c-.3820953369.3129882812-.4423980713.2663879395-.908996582.3306884766l.7872924805.2185974121c.2064971924,1.1102905273.4326934814,2.7646179199,1.0267028809,3.7221984863.2672119141.4063110352.5870056152.7156982422.592300415,1.2095031738,1.6233978271,2.0273132324,2.7259979248,3.0852966309,5.2467041016,3.7929992676l.3058013916.4669189453c2.1188964844,7.2262878418,9.4258880615,13.3662719727,15.8235931396,16.8309936523,2.4736938477,1.3396911621,5.0727996826,2.304901123,7.7767944336,3.0615844727,1.06640625.2985229492,2.321395874.4384155273,3.329208374.852722168l.2105102539,1.3653869629.2471923828,4.0570068359c-.6052093506,12.5718078613-5.1925964355,24.8197937012-7.9440002441,37.0447998047-6.3076019287,28.0299987793-5.658203125,57.092010498,5.5587005615,83.8099975586,1.7342987061,4.1309967041,3.6260986328,8.2269897461,5.8060913086,12.1429901123,1.2381134033,2.2239990234,2.8768157959,4.3820037842,3.8721160889,6.716003418,1.0194854736,1.0800018311,1.8058929443,2.4530029297,2.6287841797,3.6889953613l3.6925201416,5.3110046387c4.3241882324,5.8879852295,9.1570892334,11.4899902344,14.3081817627,16.6690063477l8.8180084229,8.2389831543c1.1082000732.9699859619,2.7890930176,1.9499969482,3.7036895752,3.0449981689.1804046631.216003418.1973114014.3080291748.2841186523.5410003662.8052978516.2970428467,1.5096893311.9680328369,2.1947937012,1.4770355225l3.2362976074,2.2799987793c3.1109924316,2.1289672852,6.3329925537,4.2199707031,9.6399993896,6.0359802246-.8950042725-4.0490112305-1.6750030518-8.0620117188-2.0529937744-12.1989898682-1.4309997559-15.6650085449,1.2559814453-32.2010040283,7.0539855957-46.7720184326l.2480010986-.7449951172c-.9469909668-1.5209960938-2.4889984131-2.9819946289-3.6109924316-4.4179992676-2.3960113525-3.0670013428-4.6490020752-6.296005249-6.6320037842-9.6490020752-11.3634033203-19.2129974365-17.7304992676-41.6959991455-17.6039123535-64.0529937744.0510253906-8.9450073242,1.141998291-17.7959899902,1.9851074219-26.6839904785.5424041748-5.7180175781.9101104736-11.4190063477.8647155762-17.1653137207-.0393981934-4.9659118652-.37890625-10.043182373-1.8041992188-14.8289794922-1.4454040527-4.8538208008-4.0268096924-9.6408996582-7.7089080811-13.1727294922l-4.5363006592-3.9769897461c-1.8448944092-1.7628173828-3.4071960449-3.7535095215-4.6934967041-5.9544067383-3.487121582-5.9668884277-3.9078979492-13.0259094238-7.8695983887-18.8862915039-4.4519042969-6.5858154297-11.024017334-10.058013916-18.8273010254-10.9923095703-.9849090576-.1181030273-1.991104126-.1293945312-2.9808044434-.0791931152-.6259918213.0321960449-1.4107971191.1845092773-2.0191955566.0325927734l-.186920166-.0662841797h0Z" fill="#8abd24"/>
  <path d="M157.7766702006,205.8125588725c2.6385040283.2564086914,5.1619873047.4436035156,7.7727966309-.2033081055l.3849029541-.0972900391,3.092590332-.9580078125c3.9058074951-1.5289001465,6.5281982422-3.7636108398,8.2267913818-7.6304931641-.2607879639-.0345153809-.4713745117.1410827637-.703994751.2503967285-4.658493042,2.1839904785-8.7041931152,3.5835876465-13.913192749,3.5722961426-1.5848999023-.0032043457-3.4530029297-.3977966309-4.9772033691-.2080993652l-.1298065186,1.217590332.2471160889,4.0569152832h0Z" fill="#005538"/>
  <path d="M141.8770577739,145.4522378276c-3.3348846436-.2431030273-7.4111022949.3973999023-10.0567932129,2.6332092285-.7007904053.5923156738-1.3405914307,1.307220459-1.7057952881,2.1531066895-2.429107666,3.4010925293-4.2294006348,6.8851013184-5.4396972656,10.8886108398-.3512115479,1.1624755859-.7639007568,2.4149780273-.7341156006,3.6389770508-.0301971436.5308227539.0498046875,1.0130004883-.353302002,1.4217224121l-.1397857666.0803833008c-.3806152344,1.2146911621.2944946289,2.6842041016-.245513916,3.7194213867l.3696136475.2888793945.1004943848.957611084c-.3820953369.3129882812-.4423980713.2663879395-.908996582.3306884766l.7872924805.2185974121c.2064971924,1.1102905273.4326934814,2.7646179199,1.0267028809,3.7221984863.2672119141.4063110352.5870056152.7156982422.592300415,1.2095031738,1.6233978271,2.0273132324,2.7259979248,3.0852966309,5.2467041016,3.7929992676l.3058013916.4669189453.491897583.083984375c3.9517059326.5231933594,5.9568023682-.5083007812,9.0517883301-2.8992919922l1.8316192627,1.4595031738c3.2423858643,2.3656005859,7.775894165,3.4123840332,11.7239990234,2.7959899902,4.5018005371-.7027893066,7.1309967041-3.008605957,9.734085083-6.5704040527l4.037612915,3.8600158691c-.3097991943-.9821166992-.6059112549-1.9091186523-1.1809997559-2.7738952637-1.3039093018-1.9605102539-3.5470123291-4.2225036621-5.9604034424-4.5950317383-.5473022461-.0843811035-.5995941162-.0643005371-1.0311126709.2359008789l-.071975708.7185058594c.5476837158.8012084961,1.5546875,1.1902160645,2.3941955566,1.6379089355-.4195098877.6412963867-.8455047607,1.2825927734-1.3627166748,1.8507995605-1.9268035889,2.1196899414-4.7946929932,3.6358032227-7.6794891357,3.7568054199-3.8398895264.1607055664-8.1822052002-1.1568908691-10.9942016602-3.8520202637-1.9610137939-1.8797912598-2.0152130127-12.3291931152-2.086807251-15.4361877441l1.4237060547-.8659057617c2.8904876709-1.9100036621,6.1502075195-4.1023864746,8.2718963623-6.8818969727.5648956299-.7402038574,1.2319946289-1.7873840332,1.3304138184-2.7373046875.0747833252-.7261962891-.158706665-1.2975769043-.6003112793-1.8584899902-1.7122039795-2.1763916016-5.5722961426-3.0889892578-8.1681060791-3.4518127441h0Z" fill="#010101"/>
  <path d="M130.1144692729,150.2385537455c-2.429107666,3.4010925293-4.2294006348,6.8851013184-5.4396972656,10.8886108398-.3512115479,1.1624755859-.7639007568,2.4149780273-.7341156006,3.6389770508-.0301971436.5308227539.0498046875,1.0130004883-.353302002,1.4217224121l-.1397857666.0803833008c-.3806152344,1.2146911621.2944946289,2.6842041016-.245513916,3.7194213867l.3696136475.2888793945.1004943848.957611084c-.3820953369.3129882812-.4423980713.2663879395-.908996582.3306884766l.7872924805.2185974121c.2064971924,1.1102905273.4326934814,2.7646179199,1.0267028809,3.7221984863.2672119141.4063110352.5870056152.7156982422.592300415,1.2095031738,1.6233978271,2.0273132324,2.7259979248,3.0852966309,5.2467041016,3.7929992676.095703125-.1455078125.1554870605-.3230895996.287399292-.4367980957.1634979248-.1415100098,3.8054046631-.8056945801,4.5904998779-1.1541137695,1.400390625-.6215820312,2.4644927979-1.4465942383,3.5711975098-2.4917907715-1.3040008545-4.7432861328-1.4284973145-9.9317932129-1.4776000977-14.8153076172l-.7324981689-.4075012207c-3.8099060059-2.296081543-5.5485992432-6.8215942383-6.5406951904-10.9640808105h0Z" fill="#8bbe28"/>
  <path d="M383.3285653422,361.5945718119c-.8309936523-1.1940307617-1.4189758301-2.7300262451-2.0679931641-4.0400238037l-3.3229980469-6.2239990234c-4.3249816895-7.6179962158-9.4379882812-15.0269927979-15.0100097656-21.7859954834-8.5700073242-10.3939971924-19.1119995117-19.759979248-30.532989502-26.908996582-17.7460021973-11.108001709-37.366027832-19-53.541015625-32.5820007324-8.1510009766-6.8450012207-15.4849853516-15.0490112305-20.8519897461-24.266998291-7.6820068359-13.1960144043-11.341003418-28.3640136719-12.4049987793-43.4960021973-.654006958-9.286895752-.245010376-18.6243896484-1.0850067139-27.8952026367-1.5429992676-17.0350952148-8.1470184326-33.6398010254-21.5220031738-44.8309936523-10.7989959717-9.0360717773-24.1616973877-13.688873291-38.2341003418-12.3971862793-9.6726074219.8878479004-19.0639953613,5.3305053711-26.4304046631,11.5702819824-5.5377960205,4.690612793-10.1532897949,10.2479858398-14.791305542,15.7962036133l.186920166.0662841797c.6083984375.1519165039,1.3932037354-.0003967285,2.0191955566-.0325927734.9897003174-.050201416,1.9958953857-.0389099121,2.9808044434.0791931152,7.8032836914.9342956543,14.3753967285,4.4064941406,18.8273010254,10.9923095703,3.9617004395,5.8603820801,4.3824768066,12.9194030762,7.8695983887,18.8862915039,1.2863006592,2.2008972168,2.8486022949,4.1915893555,4.6934967041,5.9544067383l4.5363006592,3.9769897461c3.6820983887,3.531829834,6.2635040283,8.3189086914,7.7089080811,13.1727294922,1.4252929688,4.7857971191,1.7648010254,9.863067627,1.8041992188,14.8289794922.0453948975,5.746307373-.3223114014,11.4472961426-.8647155762,17.1653137207-.8431091309,8.8880004883-1.9340820312,17.7389831543-1.9851074219,26.6839904785-.1265869141,22.3569946289,6.2405090332,44.8399963379,17.6039123535,64.0529937744,1.983001709,3.3529968262,4.2359924316,6.5820007324,6.6320037842,9.6490020752,1.1219940186,1.4360046387,2.6640014648,2.8970031738,3.6109924316,4.4179992676l-.2480010986.7449951172c-5.7980041504,14.5710144043-8.4849853516,31.1070098877-7.0539855957,46.7720184326.3779907227,4.1369781494,1.157989502,8.1499786377,2.0529937744,12.1989898682,5.3710021973,20.4850158691,17.5309906006,39.4839782715,36.0970001221,50.3100280762,6.1719970703,3.5989685059,12.9010009766,6.0489501953,19.9920043945,6.9879455566,2.1940002441.2900085449,4.8139953613.2720336914,6.9809875488-.1799621582,1.842010498-.3850402832,4.1350097656-.9540405273,5.2179870605-2.6359863281.524017334-.8130187988.5960388184-1.7960205078.4070129395-2.7320251465-.2520141602-1.2520141602-1.0379943848-2.583984375-1.8049926758-3.6000061035-1.5030212402-1.9909973145-3.4649963379-3.7819824219-5.1730041504-5.6079711914-3.1750183105-3.3920288086-6.191986084-6.9150390625-8.8020019531-10.7670135498-3.8110046387-5.6199951172-6.7469787598-11.4730072021-9.1679992676-17.8180084229.0790100098-.099029541.125-.2379760742.2380065918-.2979888916.1049804688-.0570068359,2.507019043.4270019531,2.7700195312.4679870605l7.093963623,1.0440063477c33.9080200195,3.591003418,68.5110168457-1.5999908447,99.9580078125-14.7849884033,1.0589904785,1.6999969482,1.7590332031,3.7489624023,2.7319946289,5.521987915,1.6690063477,3.0400238037,3.924987793,5.9019927979,6.1190185547,8.583984375,9.8229980469,12.0009918213,25.382019043,19.6740264893,40.7600097656,21.14402771,6.3519592285.6069641113,14.433013916.5419921875,20.2879638672-2.3049926758,1.5630493164-.7610168457,2.8850097656-1.8260498047,4.2180175781-2.9270324707-6.1909790039-4.8819885254-11.1159667969-10.7830047607-15.7279663086-17.1479797363-4.0090332031-5.5310211182-7.5850219727-10.9960327148-12.7580566406-15.5639953613-1.8379821777-1.6240081787-3.9049987793-2.8990478516-6.0419921875-4.0880279541-2.1069641113-1.1709899902-4.2699584961-2.1259918213-6.4649658203-3.1079864502-.5140380859-.2299804688-1.949005127-.6930236816-2.3110351562-1.065032959-.1090087891-.1109771729-.1489868164-.2749786377-.2229614258-.4119720459-.0159912109-.0350036621-.6700439453-.3309936523-.6810302734-.3359985352-1.5109863281-.6140136719-2.8630065918-1.7609863281-4.0239868164-2.8919830322-4.9560241699-4.8290405273-7.2409973145-12.2430267334-10.2720031738-18.3399963379h0Z" fill="#008939"/>
  <path d="M295.5005624125,304.7915322612c-.5440063477-.0849609375-1.108001709-.0179748535-1.6259765625.173034668-.6310119629.2339782715-.9810180664.6929931641-1.240020752,1.2979736328-.3959960938.9210205078-.3119812012,1.8060302734.1010131836,2.7090148926.4309692383.9410095215,1.3619995117,1.7049865723,2.3200073242,2.0520019531.5329589844.0769958496,1.1059875488.174987793,1.616973877-.0530090332.6570129395-.2929992676,1.1099853516-.983001709,1.3559875488-1.632019043.3300170898-.8709716797.3489990234-1.7879638672-.0739746094-2.6380004883-.5429992676-1.092956543-1.3190002441-1.5709838867-2.4540100098-1.908996582h0Z" fill="#8bbe28"/>
  <path d="M336.4905831645,337.0515572856c-.5310058594-.0160064697-1.1420288086.0319976807-1.6530151367.18699646-.625.1889953613-1.0639953613.7140045166-1.358001709,1.2720031738-.3680114746.6989898682-.1910095215,2.0979919434.1329956055,2.7949981689.566986084,1.220993042,1.5180053711,1.7489929199,2.7019958496,2.2389984131.433013916-.0050048828.9140014648.0019989014,1.3359985352-.1090087891.6839904785-.1799926758,1.3710021973-.8519897461,1.6799926758-1.4739990234.3390197754-.6849975586.3910217285-1.6559906006.116027832-2.3689880371-.5159912109-1.3400115967-1.6929931641-2.0530090332-2.9559936523-2.5410003662h0Z" fill="#8bbe28"/>
  <path d="M277.407575352,315.5605447123c-.5559997559-.0469970703-1.1900024414-.0889892578-1.7399902344.0050048828-.7820129395.1320037842-1.2490234375.6849975586-1.7080078125,1.2770080566-.2030029297.7419891357-.2340087891,1.6059875488.0440063477,2.3320007324.525970459,1.3769989014,1.6459655762,2.4189910889,2.9629821777,3.0279998779.5209960938.0439910889,1.0610046387.0559997559,1.5789794922-.0330047607.649017334-.1119995117,1.2940368652-.5610046387,1.6390075684-1.1230010986l.1040039062-.1809997559c.1210021973-.2059936523.2430114746-.3990020752.3160095215-.6300048828.2139892578-.6790008545.1839904785-1.7859954834-.1900024414-2.4120025635l-.1119995117-.1729888916c-.7319946289-1.1610107422-1.6730041504-1.5820007324-2.8949890137-2.0900115967h0Z" fill="#8bbe28"/>
  <path d="M322.6555611918,318.780545933c-.7470092773-.0759887695-1.6619873047-.1790008545-2.3639831543.1230010986-.6630249023.2870025635-1.2890319824.8820037842-1.5140075684,1.5800018311-.3070068359.9510040283-.1400146484,2.1110076904.2929992676,2.9929962158.6159973145,1.2550048828,1.5809936523,1.9140014648,2.8770141602,2.3450012207.6409606934.0110015869,1.4839782715.0870056152,2.0859680176-.1259918213.7520141602-.2660064697,1.4400024414-1.0059967041,1.7630004883-1.716003418.3780212402-.8320007324.2530212402-1.7369995117-.0830078125-2.5639953613-.5569763184-1.3740081787-1.7889709473-2.0599975586-3.0579833984-2.6350097656h0Z" fill="#8bbe28"/>
  <path d="M301.5025460551,329.0665566752c-.4249572754.0390014648-.8619995117.0759887695-1.2679748535.2149963379-.9930114746.3379974365-1.3809814453.9299926758-1.8400268555,1.8300018311-.0739746094,1.1049957275.0590209961,1.783996582.6450195312,2.7299957275.9809875488,1.5839996338,2.3359985352,2.2200012207,4.100982666,2.6139984131.483001709-.0299987793,1.0350036621-.1809997559,1.4590148926-.4169921875.7640075684-.4240112305,1.342010498-1.2949981689,1.4980163574-2.1450042725.1639709473-.8910064697-.1220092773-1.8930053711-.6410217285-2.6240081787-1.0700073242-1.5069885254-2.2059936523-1.8809967041-3.9540100098-2.2029876709h0Z" fill="#8bbe28"/>
  <path d="M389.1465890239,390.9855477641l-.3460388184.0379943848c.6770324707,1.4730224609,1.4700012207,2.7600097656,2.4020080566,4.0810241699l.9580078125,1.2259979248c7.3109741211,7.9729614258,17.4279785156,12.1780090332,28.1429748535,12.7379760742.1750183105-.0169830322.0660400391.0070037842.3059997559-.1359863281-6.2939453125-2.0410003662-12.4449462891-4.9459838867-18.0619506836-8.4310302734-4.6849975586-2.9069824219-8.9320373535-6.3169555664-13.4010009766-9.5159759521h0Z" fill="#005538"/>
  <path d="M380.1785409282,393.9085519145c1.5950012207,3.3789825439,3.2520446777,6.5090026855,5.724029541,9.3460083008,7.8799743652,9.0449981689,19.1599731445,14.8049926758,30.9109802246,16.841003418,2.4270019531.4199829102,4.783996582.5539855957,7.2319946289.7110137939l.0530090332-.0650177002c-.0639953613-.3800048828-.907989502-.4390106201-1.2919921875-.5330200195-4.7860107422-1.1629943848-9.4769897461-2.9700012207-13.9299926758-5.0579833984-7.8270263672-3.6709899902-14.8020324707-8.6640014648-21.2549743652-14.3810272217l-7.4430541992-6.8609771729h0Z" fill="#005538"/>
  <path d="M187.7553689311,149.4066445659c0-5.7526855469,4.6634063721-10.4161071777,10.4160919189-10.4161071777,5.753112793,0,10.4161071777,4.6634216309,10.4161071777,10.4161071777,0,5.7527160645-4.6629943848,10.4161071777-10.4161071777,10.4161071777-5.7526855469,0-10.4160919189-4.6633911133-10.4160919189-10.4161071777h0Z" fill="#f5f0e8"/>
  <path d="M187.9770638774,150.050443394c0-5.3359069824,4.2904052734-9.6614990234,9.582901001-9.6614990234s9.5825958252,4.325592041,9.5825958252,9.6614990234-4.2901000977,9.6614990234-9.5825958252,9.6614990234-9.582901001-4.325592041-9.582901001-9.6614990234h0Z" fill="#1d1d1b"/>
  <path d="M256.99857877,355.7495553325l-.099029541-.0310058594c-.475982666.1860046387-.3029785156.0449981689-.5969848633.425994873-1.6219940186,2.1020050049-2.8339996338,5.2520141602-3.9250183105,7.6870117188-3.8149719238,8.5100097656-5.4469909668,17.7700042725-4.991973877,27.0749816895.3020019531,6.1640014648,1.3439941406,12.2540283203,2.033996582,18.375.2579956055,2.2830200195.521987915,5.7780151367-1.1139984131,7.6230163574-.6760101318.7630004883-1.8350067139,1.0709686279-2.8150177002,1.1100006104-4.0259857178.1609802246-8.3999786377-3.0179901123-11.2849884033-5.6409912109-4.1280059814-3.7519989014-7.2599945068-8.2410125732-9.9160003662-13.1220245361-8.108001709-14.9039916992-9.8849945068-31.4109954834-8.1049957275-48.0879821777l1.1429901123-7.3190002441,1.1340026855-5.6730041504c.1780090332-.8419952393.5620117188-1.8020019531.4880065918-2.6549987793l-.0400085449-.3440093994c-5.7980041504,14.5710144043-8.4849853516,31.1070098877-7.0539855957,46.7720184326.3779907227,4.1369781494,1.157989502,8.1499786377,2.0529937744,12.1989898682,5.3710021973,20.4850158691,17.5309906006,39.4839782715,36.0970001221,50.3100280762,6.1719970703,3.5989685059,12.9010009766,6.0489501953,19.9920043945,6.9879455566,2.1940002441.2900085449,4.8139953613.2720336914,6.9809875488-.1799621582,1.842010498-.3850402832,4.1350097656-.9540405273,5.2179870605-2.6359863281.524017334-.8130187988.5960388184-1.7960205078.4070129395-2.7320251465-.2520141602-1.2520141602-1.0379943848-2.583984375-1.8049926758-3.6000061035-1.5030212402-1.9909973145-3.4649963379-3.7819824219-5.1730041504-5.6079711914-3.1750183105-3.3920288086-6.191986084-6.9150390625-8.8020019531-10.7670135498-3.8110046387-5.6199951172-6.7469787598-11.4730072021-9.1679992676-17.8180084229-1.2640075684-3.3969726562-2.1180114746-7.1769714355-2.8489990234-10.7230072021-1.3600158691-6.6039886475-2.0399932861-13.5119934082-1.5899963379-20.2529907227.4880065918-7.3149871826,2.108001709-14.2729949951,3.7820129395-21.375h0Z" fill="#005538"/>
  <path d="M367.7155587504,394.5295693705c-2.9939880371-4.9200439453-6.3599853516-8.3910064697-11.6260070801-10.8440093994-5.8609619141-2.7299957275-11.8939819336-3.3930206299-18.2380065918-4.0540161133l-13.5820007324-1.4700012207c-12.9829711914-1.5499725342-25.9779968262-3.3190155029-38.4349975586-7.4440155029-6.7859802246-2.2469787598-13.2779846191-5.0949554443-19.3799743652-8.8369903564-1.6679992676-1.0229949951-3.2820129395-2.1479797363-4.8219909668-3.3559875488-1.1740112305-.9219970703-2.9770202637-2.8659973145-4.3430175781-3.2910003662l-.2909851074.5160064697c-1.6740112305,7.1020050049-3.2940063477,14.0600128174-3.7820129395,21.375-.4499969482,6.7409973145.2299804688,13.6490020752,1.5899963379,20.2529907227.7309875488,3.5460357666,1.5849914551,7.3260345459,2.8489990234,10.7230072021.0790100098-.099029541.125-.2379760742.2380065918-.2979888916.1049804688-.0570068359,2.507019043.4270019531,2.7700195312.4679870605l7.093963623,1.0440063477c33.9080200195,3.591003418,68.5110168457-1.5999908447,99.9580078125-14.7849884033h0Z" fill="#8bbe28"/>
  <path d="M211.8555733989,381.9445626567c-.4200134277-4.5960083008-.4760131836-9.2680053711-.2120056152-13.9429931641-20.7514038086-8.1870117188-38.7587127686-19.6380157471-53.045501709-33.5710144043.9225006104,1.9329986572,1.8926849365,3.8430023193,2.9319915771,5.7099914551,1.2381134033,2.2239990234,2.8767089844,4.3820037842,3.8722076416,6.716003418,1.0193939209,1.0800018311,1.8057098389,2.4530029297,2.628692627,3.6889953613l3.6925201416,5.3110046387c2.3805999756,3.2409973145,4.9271697998,6.384979248,7.584274292,9.4300079346,9.657913208,10.3300018311,21.1284179688,19.2099914551,34.0548095703,26.2890014648-.6569976807-3.1850128174-1.2089996338-6.3700256348-1.5069885254-9.6309967041h0Z" fill="#005538"/>
  <path d="M253.1175668071,379.2675607035c-.1929931641,6.0549926758.4730072021,12.203994751,1.6889953613,18.1099853516.5690002441,2.7619934082,2.274017334,7.8919830322,3.1260070801,10.0500183105,9.824005127,1.8819732666,20.074005127,2.9010162354,30.6569824219,2.9749908447,1.4950256348.0019836426,2.990020752.0039825439,4.4840087891-.0280151367.0850219727-.0009918213.1690063477-.0019836426.2539978027-.0039825439,14.842010498-.3319854736,29.6319885254-2.2990112305,44.0520019531-5.8349914551.7710266113-.1970214844,1.5400085449-.3970031738,2.3059997559-.6030273438.4899902344-.1259765625.9790039062-.2549743652,1.4679870605-.3849945068,9.1409912109-2.5429840088,17.9010009766-5.766998291,26.1820373535-9.6089935303-2.9020385742-4.6010131836-6.199005127-7.9020080566-11.2460327148-10.2529907227-5.8609619141-2.7299957275-11.8939819336-3.3930206299-18.2380065918-4.0540161133l-7.241973877-.7839813232c-13.3439941406,2.1519927979-27.217010498,3.2779998779-41.3949890137,3.2779998779-12.4640197754,0-24.5299987793-.9900360107-36.0970153809-2.858001709h0Z" fill="#005538"/>
  <path d="M198.8580605815,145.8617532084c0,1.3476867676-1.0924835205,2.4401855469-2.4402008057,2.4401855469-1.3477020264,0-2.4401855469-1.0924987793-2.4401855469-2.4401855469,0-1.3477172852,1.0924835205-2.4403076172,2.4401855469-2.4403076172,1.3477172852,0,2.4402008057,1.092590332,2.4402008057,2.4403076172h0Z" fill="#f5f0e8"/>
  <path d="M204.6015603373,152.3064553569c0,2.1408996582-1.7353973389,3.8764953613-3.8762969971,3.8764953613s-3.8764953613-1.7355957031-3.8764953613-3.8764953613,1.7355957031-3.8764038086,3.8764953613-3.8764038086,3.8762969971,1.7355041504,3.8762969971,3.8764038086h0Z" fill="#f5f0e8"/>
  <path d="M195.1064584086,181.9663369487c-2.0458984375-1.4468994141-4.2796020508-2.6703796387-6.6517028809-3.61328125l-.874786377-.2666015625c-3.0506134033-.8600158691-6.2272033691-1.2847900391-9.3894042969-1.2322998047-.3039093018.0060119629-.6083831787.0003051758-.9119110107.016204834-2.529586792.2890930176-5.001083374.8436889648-7.3810882568,1.6120910645-.2205963135.116607666-.0650024414.7260131836.1804046631.7355957031,2.4221038818-.3953857422,4.8626861572-.5625915527,7.2714996338-.4739990234.287399292-.0152893066.5751953125-.009185791.8627929688-.0149841309,2.9920959473-.050201416,5.9828033447.3520812988,8.8537902832,1.1604919434l.8232116699.2511901855c2.3408966064.5422058105,4.6376037598,1.3761901855,6.8273010254,2.4749145508.237701416.0615844727.5675048828-.4739074707.3898925781-.6493225098h0Z" fill="#1d1d1b"/>
  <path d="M192.04646085,170.0603616069c-2.2602844238-1.0819091797-4.6680908203-1.9118041992-7.1651000977-2.4418945312l-.9071960449-.1156311035c-3.1519012451-.3340759277-6.3546905518-.2180786133-9.4627990723.3661193848-.2985992432.0570068359-.5997161865.1026000977-.8961029053.1694030762-2.4450073242.7107849121-4.7877960205,1.6735839844-7.0043945312,2.8316955566-.1977996826.1520996094.0581054688.7265930176.3017120361.6947021484,2.320892334-.7975158691,4.6984863281-1.3731994629,7.0878753662-1.69140625.2807006836-.0635070801.5654144287-.1058959961.8479156494-.1600036621,2.9409942627-.5531921387,5.9566955566-.6600952148,8.9227905273-.3465881348l.8536987305.1091003418c2.3988037109.1403808594,4.8032073975.5758056641,7.1466064453,1.2901000977.2445983887.020690918.4795837402-.5625915527.2749938965-.7055969238h0Z" fill="#1d1d1b"/>
  <path d="M188.6973702739,160.463346226c-2.4680023193-.433807373-5.0103149414-.5853881836-7.557800293-.4241027832l-.9049072266.1327209473c-3.1256103516.526184082-6.1790008545,1.4996948242-9.0155029297,2.8984985352-.2720947266.1352844238-.549911499.2601928711-.8173828125.404296875-2.1635131836,1.342376709-4.1610107422,2.8999938965-5.9843139648,4.6117858887-.1496124268.1997070312.2514953613.6841125488.4774932861.587890625,2.0208129883-1.3924865723,4.1558074951-2.5867004395,6.3715209961-3.5359802246.2532958984-.13671875.5160827637-.254119873.7735748291-.3822021484,2.6837158203-1.3240966797,5.5594024658-2.2384033203,8.5006103516-2.7344055176l.8515014648-.1246948242c2.3481140137-.5101928711,4.7810058594-.737701416,7.2301940918-.6801147461.2412109375-.0458984375.3105010986-.6709899902.075012207-.753692627h0Z" fill="#1d1d1b"/>
  <path d="M147.4886605571,145.5624673198c3.2590179443.2527770996,6.6103057861,1.1111755371,9.5820922852,2.5163879395,2.9922180176,1.412902832,5.6538085938,3.4580993652,7.7728118896,5.9813842773,1.0550079346,1.270111084,1.9938049316,2.6318054199,2.7538909912,4.0760192871.7674102783,1.4512939453,1.3846282959,2.999786377,1.9339141846,4.5975952148,1.1029052734,3.1932067871,1.9314880371,6.6026916504,3.384185791,9.9244995117,1.471496582,3.3551025391,3.5632171631,6.350982666,6.2279052734,8.9347839355l3.8692016602,3.4540100098c.69090271.5914001465,1.1645965576,1.1060180664,1.7274017334,1.7294006348.5315856934.6134033203,1.0478057861,1.2427978516,1.5191040039,1.9096069336,1.9105987549,2.6477050781,3.3408813477,5.6651000977,4.3140869141,8.8094787598.977722168,3.1395263672,1.44140625,6.4521179199,1.6470031738,9.8093261719.3640136719,6.7445983887-.0451965332,13.616607666-.7016906738,20.4346008301-.6768035889,6.8389892578-1.5688018799,13.7269897461-2.0563049316,20.7109680176-.5101013184,6.9820251465-.4703979492,14.0850219727.2023010254,21.0960083008.6939086914,7.0160217285,1.9570007324,13.9770202637,3.7770080566,20.7930297852,1.8272857666,6.5059814453,4.1502990723,12.8689880371,6.9402923584,19.0219726562,1.6243133545,3.541015625,3.3707122803,7.0300140381,5.3186950684,10.4060058594,1.8790130615,3.4140014648,4.0810089111,6.7320098877,6.4120025635,9.8630065918.6029968262.8020019531,1.1410064697,1.5220031738,1.8260040283,2.3670043945.6760101318.8170013428,1.3329925537,1.5209960938,1.9109954834,2.1969909668l.5190124512.6260070801-.7380065918,1.9349975586c-1.3470001221,3.6580047607-2.5010070801,7.4140014648-3.4459991455,11.2050018311-1.8899993896,7.5899963379-2.9799957275,15.3829803467-3.1689910889,23.2200164795-.0950012207,3.9219665527.049987793,7.8379669189.425994873,11.7659759521.2049865723,1.9729919434.4939880371,3.9259796143.8369903564,5.854019165l.0570068359.3189697266-2.6549987793-1.7249908447c-2.4350128174-1.603012085-5.06199646-3.520980835-7.0023040771-4.921005249h0l-.1910095215-.2479858398-.1903991699-.2189941406c-.2496948242-.2789916992-.492980957-.5119934082-.7305908203-.7250213623-.4747009277-.4229888916-.9298095703-.7709960938-1.3561096191-1.0889892578l-1.1858978271-.8810119629-.4595947266-.3690032959-.5279083252-.4889526367-4.3928833008-4.1050262451c-1.4454956055-1.3689880371-2.9710998535-2.7369995117-4.3510131836-4.1039886475-1.362991333-1.3840179443-2.7509002686-2.8480072021-4.0803985596-4.3090209961-2.6714935303-2.9370117188-5.2235870361-5.9809875488-7.6425933838-9.1239929199l-1.7702178955-2.3520050049-1.7134857178-2.4599914551-1.7131958008-2.4640045166c-.5390014648-.7570037842-1.0370178223-1.6100006104-1.6772918701-2.5359954834-.3203125-.4609985352-.666305542-.9349975586-1.0727996826-1.408996582-.1486206055-.1720123291-.0843963623-.0970001221-.0990142822-.1140136719l-.0274047852-.06199646-.2964935303-.6159973145c-.5127105713-1.0180053711-1.0746002197-1.9470062256-1.6221008301-2.8249969482-1.1320037842-1.762008667-2.0299072266-3.2689971924-2.9532928467-5.0690002441-1.81690979-3.4850006104-3.4734954834-7.1049957275-4.9546051025-10.7890014648-2.9881896973-7.3170013428-5.2262115479-14.93800354-6.7180938721-22.7079925537-1.2151031494-6.3800048828-1.9253082275-12.8590087891-2.1679992676-19.3600158691-.6355133057-13.5759887695.7877960205-27.2609863281,3.7385864258-40.5970153809,1.4921112061-6.6559753418,3.4723052979-13.2959594727,5.0233001709-20.1269836426.7749023438-3.4150085449,1.4435119629-6.8789978027,1.8782043457-10.3959960938.224395752-1.7566833496.3684082031-3.5299072266.4584960938-5.308013916l.0240020752-.3984680176c.0144042969-.1600036621-.0299987793-.4277038574-.0305023193-.4969177246l-.0603942871-.6458129883-.1206054688-1.291595459-.1206970215-1.291595459-.087097168-.9619750977c-.0339050293-.3659362793-.0573120117-.7397155762-.12449646-1.0770263672-.0657958984-.3388977051-.0937042236-.7065734863-.1902160645-1.0205993652l-.9984893799-.3742980957c-.6378936768-.2485046387-1.4170074463-.4296875-2.0523986816-.5571899414-.4324035645-.0870056152-.8348999023-.1654968262-1.1896972656-.2537231445l-1.1819915771-.3296813965c-1.5983123779-.470489502-3.1576080322-1.0278015137-4.6570129395-1.6991882324-2.9638061523-1.366607666-5.8526000977-3.1741027832-8.4284973145-5.2596130371-2.5783996582-2.0895996094-4.9268035889-4.4903869629-6.6331939697-7.2438964844-.2227020264-.3392028809-.4276123047-.6863098145-.608001709-1.0442199707-.1891174316-.354095459-.3902130127-.7040710449-.5388946533-1.0728759766-.1514129639-.3670043945-.3481140137-.721496582-.4617156982-1.099395752l-.2619018555-.7487182617c-.1325836182-.3082885742-.245300293-.6232910156-.4684906006-.8739013672-.3143005371-.6195983887-.9838104248-.8667907715-1.6206054688-1.0552978516l-.4271850586-.1211853027c-.0586090088-.0178222656-.0938110352-.0277099609-.1400146484-.0487060547-.0968017578-.0443115234-.3082885742-.1524963379-.4524993896-.2347106934-.632598877-.3551940918-1.2348022461-.8186950684-1.7565002441-1.3377990723-.2592010498-.2597961426-.4963989258-.533996582-.7035980225-.8179931641-.2019958496-.2738037109-.3764038086-.5816955566-.5567932129-.932800293-.3495025635-.6794128418-.6326141357-1.4155883789-.8551025391-2.1770019531-.4468994141-1.5231933594-.6712188721-3.1405944824-.641708374-4.7271118164.074005127-3.2147827148,1.0292053223-6.4963989258,2.2168121338-9.6424865723.5934906006-1.5365905762,1.3315887451-3.1228027344,2.1253967285-4.4855957031.4151916504-.6694030762.9394073486-1.3555908203,1.4427947998-2.1311035156.2512969971-.3887939453.49949646-.8028869629.7135009766-1.2662963867.124206543-.2731933594.1573028564-.3616027832.2438049316-.5202026367.0783996582-.1448059082.1691894531-.2881164551.2705993652-.428894043.8453979492-1.1483154297,2.2131958008-2.0411987305,3.67628479-2.6011047363,1.4815216064-.5683898926,3.108001709-.8573913574,4.7409057617-.9277954102.7198028564-.0458068848,1.3377990723-.0852050781,1.846496582-.1174926758l.2633056641-.0168151855-.0070953369-.0032958984c-.030090332-.0139160156.1291046143-.0237121582.2182006836-.0404052734.0982055664-.013092041.1929016113-.0256958008.283996582-.037902832.1786956787-.0231933594.3356018066-.0444946289.4744110107-.0720825195,1.1839904785-1.9189147949.3136901855-1.8623046875-.6390075684-1.3843994141-.0941009521-.0292053223-.1970062256-.0610046387-.30859375-.0955200195-.0514068604-.0119934082-.1047973633-.0243835449-.1603088379-.0372924805-.0639953613-.0065917969-.0673065186-.0260009766-.2564086914.0018005371l.2558135986-.0199890137c-.5525054932-.1112060547-1.2362976074-.1943054199-2.0357055664-.1952209473-1.8203887939.0473022461-3.6520996094.3292236328-5.4156951904.9674072266-1.7552032471.6516113281-3.4562072754,1.6466064453-4.7116088867,3.2702941895-.1551971436.2072143555-.300994873.4268188477-.4329986572.6596069336-.1278839111.2174072266-.2634887695.5280151367-.3218994141.646697998-.1538848877.3197021484-.3549957275.6473083496-.5794067383.9801940918-.4485015869.6688232422-.9897918701,1.348815918-1.5034942627,2.1393127441-.9759979248,1.6090087891-1.7187957764,3.1623840332-2.4078979492,4.8364868164-1.2990875244,3.2846069336-2.4060974121,6.7260131836-2.5695953369,10.4499206543-.066116333,1.87109375.1567993164,3.7244873047.6491851807,5.5291748047.2469177246.902923584.5682220459,1.7951049805.9937133789,2.6625976562.2059936523.4219055176.4498901367.8739013672.7522888184,1.3037109375.2946166992.4204101562.6188964844.8070983887.9640045166,1.1659240723.6915130615.7127685547,1.4611968994,1.3283691406,2.3265075684,1.8383789062.2305908203.133392334.4006958008.229309082.6935882568.3721923828.149307251.0717163086.3192138672.1315002441.4668121338.1782226562l.1954040527.0605773926c.1685943604.058013916.3850860596.0940246582.4514923096.2879943848.0584106445.0743103027.0756988525.1680297852.1056060791.2552185059l.1558990479.479309082c.1329956055.4531860352.3455963135.8668823242.5182952881,1.300994873.1706085205.4364013672.3910064697.8428039551.6021118164,1.2551879883.2034912109.4179992676.4305877686.819519043.6748962402,1.2090148926,1.8925933838,3.1701049805,4.4174957275,5.8220825195,7.1599884033,8.1315917969,2.7629089355,2.3105163574,5.7462005615,4.2655944824,9.033996582,5.8569946289,1.6447143555.7723999023,3.3394012451,1.4109191895,5.0498046875,1.9479064941l1.3103027344.3901977539c.4824066162.128692627.9280090332.2218017578,1.3415985107.313293457.2102966309.0484924316.279006958.0680236816.4199981689.1122131348.0612945557.0204772949.1216888428.0426940918.1799926758.0686950684.0115203857.0603942871.0095062256.1303100586.0148162842.1943054199l.1300811768,1.8180847168.0975036621,1.2936096191.0487060547.6467895508c.0101928711.1463012695.008392334.0938110352.0072021484.1495056152l-.0196990967.2485961914c-.1157073975,1.6747131348-.2808990479,3.3489074707-.5252990723,5.0194091797-.4739990234,3.341796875-1.1761016846,6.6687927246-1.9917907715,9.9857788086-1.6299133301,6.6360168457-3.7278137207,13.2330322266-5.3883209229,20.0520019531-3.2696838379,13.6140136719-4.99659729,27.6630249023-4.592086792,41.7530212402.2516021729,6.7399902344.9886016846,13.4719848633,2.2532958984,20.1109924316,1.5521087646,8.0859985352,3.8849945068,16.0330047607,7.0028991699,23.6660003662,1.5317993164,3.8059997559,3.237701416,7.5400085449,5.1524047852,11.2140045166.4902954102.9299926758.9517059326,1.7989959717,1.5110931396,2.7610015869.5481109619.9349975586,1.1089019775,1.7980041504,1.628112793,2.6329956055.5209960938.8339996338,1.0009002686,1.6360015869,1.3959960938,2.4219970703l.1425933838.2929992676.2096099854.4589996338c.1122894287.1979980469.1268005371.4150085449.3346862793.5950012207l.4046020508.4510040283c.2510070801.2920074463.5029144287.6329956055.758102417,1,.5106048584.733001709,1.0346984863,1.6239929199,1.6632995605,2.5160064697l1.7438964844,2.5079956055,1.7474060059,2.5090026855,1.8712005615,2.4869995117c2.5057983398,3.2559967041,5.1457977295,6.404006958,7.9072113037,9.4400024414,1.3882904053,1.5249633789,2.7774963379,2.991973877,4.2481842041,4.4850006104,1.4878082275,1.4729919434,2.9715118408,2.799987793,4.4575958252,4.2070007324l4.4569091797,4.1640014648.5834960938.5390014648c.2848052979.2469787598.4846038818.3999938965.7181091309.5820159912l1.2440795898.924987793c.3835144043.2850036621.727722168.5539703369,1.0062255859.8029937744.138885498.1239929199.2588806152.2419891357.3448944092.3389892578l.0595855713.0660095215c.2866210938-.2389984131.532913208-.4329986572.7228088379-.574005127l.1310119629-.0970001221c.2671813965-.1959991455-1.721206665,1.2320098877-.8896179199.6639709473-.0085906982.0430145264-.0137023926.0850219727.0045166016.1120147705l.271484375.7390136719,1.0688171387.4360198975.2157897949.1019744873.0617980957.0380096436.1441040039.0970001221c.2080993652.1449890137.4665985107.3539886475.7888946533.6090240479l.2604064941.201965332.2775878906.2030334473.4705047607.3309631348.9411010742.6630249023c1.2419128418.8829650879,2.5274963379,1.7779693604,3.8085021973,2.6220092773l1.9360046387,1.2679595947,1.1340026855.719039917,1.9309997559,1.184967041c2.5879974365,1.5360107422,5.0579833984,2.845993042,7.625,4.2890014648l-1.2580108643-5.737991333-.6000061035-2.8489990234-.4770050049-2.5040130615c-.3259887695-1.8349761963-.5969848633-3.6650085449-.7859802246-5.492980957-.3510131836-3.6810150146-.4930114746-7.416015625-.4010009766-11.134979248.1789855957-7.4470367432,1.2169799805-14.8840332031,3.0209960938-22.1260375977.9039916992-3.625,1.9970092773-7.18699646,3.2919921875-10.7019958496l.5100097656-1.3389892578.2910003662-.762008667c.1630096436-.4069976807.31199646-.8849945068.4479827881-1.3260040283l.2090148926-.674987793c.0310058594-.1119995117.0800018311-.2260131836.0950012207-.3360137939l-.1920013428-.2969970703c-.2599945068-.3970031738-.504989624-.7910003662-.7779998779-1.1799926758-.1300048828-.1970062256-.2770080566-.3860015869-.4209899902-.5760040283l-.3390197754-.4340057373-.5029907227-.6029968262c-.6650085449-.7749938965-1.3110046387-1.470993042-1.8529968262-2.1279907227-.5180053711-.6380004883-1.1289978027-1.4459991455-1.6730041504-2.1720123291-2.2299957275-3.0009918213-4.2680053711-6.0639953613-6.075012207-9.3479919434-1.8739929199-3.2440032959-3.550994873-6.5989990234-5.1139831543-10.0039978027-2.6824035645-5.9169921875-4.9169006348-12.0380249023-6.6741943359-18.2919921875-1.8665161133-6.5200195312-3.2018127441-13.1940307617-3.991607666-19.9339904785-.7671051025-6.75-.9313049316-13.531036377-.5574951172-20.3550109863.3526000977-6.8300170898,1.1139984131-13.6870117188,1.6765899658-20.6280212402.5406951904-6.9579772949.8430023193-13.9489746094.3357086182-21.021484375-.2805023193-3.5361938477-.8388061523-7.1195068359-1.9818115234-10.5740966797-1.1340942383-3.4394226074-2.7611083984-6.7299194336-4.9532012939-9.6585998535-.5413970947-.7358093262-1.1346893311-1.4360961914-1.7484893799-2.1177062988-.6026916504-.653503418-1.3303985596-1.3883056641-1.9682006836-1.9063110352l-3.9338989258-3.3869934082c-2.3418884277-2.1875915527-4.3483123779-4.9274902344-5.6983032227-7.8905944824-1.3851013184-3.0014953613-2.2682037354-6.329498291-3.4758911133-9.6531982422-.6049041748-1.6611022949-1.2989044189-3.3251953125-2.1776885986-4.9176940918-.8810272217-1.6010131836-1.9437255859-3.0830078125-3.1242218018-4.4515075684-2.3802947998-2.7364196777-5.3704071045-4.9458007812-8.6615142822-6.425994873-1.6437835693-.7448120117-3.3566894531-1.3174133301-5.0974884033-1.7362060547-1.7626953125-.4104003906-3.4629974365-.7095031738-5.3314971924-.7968139648-.56980896-.005279541-1.0771942139.0331115723-1.5218048096.0931091309-.4361877441.0545043945-.8754882812.1586914062-1.1515045166.250213623-.5895996094.1893920898-.9028930664.316192627-1.1096801758.4494018555l.0247955322.0076904297c-.2951049805.0827026367-.3580169678.2601013184-.1811981201.5104064941l.0251922607.0076904297c.1623077393.2354125977.6898040771.458404541,1.3719940186.5174865723.6133117676.0454101562,1.4342041016.1061096191,2.4615020752.1821289062h0Z" fill="#1d1d1b"/>
  <path d="M247.8155648539,223.0185525248c2.2189941406,9.8370056152,5.925994873,19.4629821777,11.4510192871,28.0800170898,5.4969787598,8.6159973145,12.4739685059,16.2339782715,20.3319702148,22.7709960938,1.9209899902,1.516998291,3.8779907227,2.9869689941,5.8840026855,4.3719787598,10.4040222168,7.2960205078,21.6449890137,12.9450073242,32.4949951172,18.9200134277,5.4169921875,2.9850158691,10.8020324707,6.0489807129,15.8810119629,9.4039916992,5.074005127,3.3769836426,9.8910217285,7.1569976807,14.4130249023,11.2590026855,1.741973877,1.5749969482,3.4409790039,3.1970062256,5.0879821777,4.8699951172,7.0729980469,6.7819976807,13.342010498,14.4690093994,18.9040222168,22.6399993896,1.3819885254,2.0420074463,2.7279968262,4.1390075684,3.9989624023,6.2300109863,1.2480163574,2.1239929199,2.4550170898,4.3129882812,3.6870117188,6.4689941406.5519714355.9989929199,1.0490112305,2.1930084229,1.7440185547,3.367980957l.2739868164.4430236816c.0829772949.129989624.2279663086.3419799805.2530212402.3690032959.0279846191.0389862061.0969543457.1790008545.1719665527.3209991455l.2109985352.4089813232.8220214844,1.6560058594c1.076965332,2.2300262451,2.1079711914,4.5220031738,3.2619628906,6.7780151367,1.0290222168,1.6949920654,2.5050354004.896987915,1.8200073242-.8760375977-1.0139770508-2.2479705811-1.9199829102-4.5659790039-2.9039916992-6.8889770508l-.7590026855-1.7429962158-.1969909668-.4349975586c-.0659790039-.1360015869-.1230163574-.2830047607-.2470092773-.5160064697-.1520080566-.23097229-.1779785156-.2799987793-.2590026855-.4159851074l-.200012207-.3650054932c-.533996582-1.0050048828-.9449768066-2.1480102539-1.5350036621-3.3710021973-1.1379699707-2.2449951172-2.2349853516-4.4929962158-3.409942627-6.7400054932-1.2150268555-2.2440032959-2.465057373-4.4199981689-3.7790527344-6.5869903564-5.2639465332-8.625-11.2979736328-16.8380126953-18.3029785156-24.2610015869-1.7109985352-1.7389984131-3.4769897461-3.4240112305-5.2860107422-5.0599975586-4.699005127-4.2620239258-9.7049865723-8.1910095215-14.9960021973-11.7130126953-5.3129882812-3.5079956055-10.7649841309-6.6029968262-16.2479858398-9.6269836426-10.949005127-6.0220031738-22.0279846191-11.608001709-32.0360107422-18.6340332031-1.9339904785-1.3349914551-3.8070068359-2.742980957-5.6419677734-4.1919555664-7.8070373535-5.8620300293-14.8570251465-12.8270263672-20.5260314941-20.8100280762-5.6859741211-7.9649963379-9.7519836426-17.0849914551-12.4069824219-26.617980957-.6220092773-1.8130187988-2.2590026855-1.450012207-1.9580078125.4939880371h0Z" fill="#1d1d1b"/>
  <g clip-path="url(#clippath-1)">
    <path d="M387.8895699809,373.7425820659c1.8239746094,3.6359710693,4.1880187988,7.1609802246,7.8519897461,9.675994873.4549865723.3119506836,1.0419921875.5739898682,1.4880371094.8149719238l1.2679443359.7700195312c.8510131836.5019683838,1.6660461426,1.0629730225,2.5820007324,1.4620056152,1.7840270996.866973877,3.5299987793,1.7329864502,5.1700134277,2.7049713135,1.6679992676.9900360107,3.2760009766,2.0280151367,4.6910400391,3.1979980469,1.3799438477,1.1440124512,2.7399902344,2.5679779053,3.9839477539,3.9850158691,2.5140380859,2.870010376,4.6990356445,6.0799713135,6.9050292969,9.3740081787,1.1039733887,1.5449981689,2.2179870605,3.1119995117,3.375,4.6699981689,2.158996582,2.9109649658,4.4439697266,5.7679748535,6.9300231934,8.4799804688,1.2419433594,1.3550109863,2.5339660645,2.6740264893,3.8809814453,3.9429779053.3409729004.3130493164.6719665527.6360473633,1.0209960938.9420166016l.79296875.7070159912-.1359558105.088973999c-.2810058594.1820220947-.5620422363.3479919434-.8430175781.4980316162-1.1659851074.591003418-2.5280151367,1.1009674072-3.9100036621,1.4609985352-2.7870178223.737991333-5.791015625,1.0289916992-8.8149719238,1.0619812012-3.0200500488.0339813232-6.1119995117-.1819915771-9.1110534668-.5969848633-3.0090026855-.4409942627-5.9879455566-1.1089935303-8.907989502-1.9830169678-.8689880371-.2869873047-1.7489624023-.5409851074-2.6089782715-.8549957275-.8559875488-.3249969482-1.7209777832-.6260223389-2.5699768066-.9699859619-7.1760559082-2.6399993896-13.9300231934-6.6259918213-19.5640563965-11.883026123-1.4139709473-1.3199920654-2.7169494629-2.7059783936-4.0149536133-4.1789550781-1.2910461426-1.4910125732-2.5470275879-2.9880218506-3.7000427246-4.5420532227-1.1719665527-1.5589752197-2.1430053711-3.1429595947-3.1129455566-4.9009857178-.9800109863-1.7319946289-1.9440307617-3.4729919434-2.9860229492-5.208984375-.9549865723-1.3009796143-2.3530273438-.3689880371-1.7590332031.9919891357.9010009766,1.7370147705,1.7550048828,3.5369873047,2.6260070801,5.3269958496.8410339355,1.7850341797,1.8370361328,3.6699981689,2.9590148926,5.3660125732,1.115020752,1.717010498,2.3220214844,3.3489990234,3.5390014648,4.9460296631,1.2369995117,1.5959777832,2.5630187988,3.1989440918,3.9719848633,4.6869659424,5.656036377,5.9779968262,12.6019897461,10.6979827881,20.1669921875,14.0310211182.9170227051.3720092773,1.8520507812.6989746094,2.7780456543,1.049987793.9309692383.3379821777,1.8829956055.6149902344,2.8229675293.9250183105,3.1600036621.9459533691,6.3880004883,1.6699829102,9.658996582,2.1489868164,3.2890319824.4529724121,6.5440368652.6799621582,9.8710021973.6459960938,3.3160400391-.0400085449,6.6820068359-.3450012207,10.0369873047-1.2279968262,1.6860351562-.4480285645,3.3200073242-1.0340270996,4.9830322266-1.883026123.41796875-.2239990234.8200073242-.4629821777,1.2050170898-.7119750977.1289672852-.0799865723.5440063477-.3649902344.8469543457-.5790100098.3190002441-.233001709.6340026855-.4690093994.9410095215-.7100067139,1.2180175781-.9669799805,2.3859863281-1.9539794922,3.5880126953-2.9369812012-1.4010009766-1.1270294189-2.7960205078-2.2640075684-4.1809997559-3.4170074463-.1659851074-.1389923096-.3640136719-.2979888916-.4980163574-.421005249l-.2399902344-.213973999-.4790039062-.4270019531c-.3219604492-.2820129395-.6289672852-.5820159912-.9449768066-.8720245361-1.2490234375-1.1770019531-2.4549865723-2.4069824219-3.6220397949-3.679977417-2.3349914551-2.5459899902-4.5129699707-5.2660064697-6.6019897461-8.0830230713-1.1159667969-1.5019836426-2.2109680176-3.0420074463-3.3229980469-4.5979919434-2.424987793-3.1709747314-4.933013916-6.4169769287-7.8579711914-9.3670043945-1.4809875488-1.4779968262-2.9600219727-2.8639984131-4.7280273438-4.1590118408-1.7390136719-1.2599945068-3.5589904785-2.2689819336-5.3730163574-3.1989898682-1.8489685059-.9449920654-3.7269592285-1.7319946289-5.5739440918-2.4909820557-.9370117188-.3399963379-1.8050231934-.8569946289-2.6980285645-1.3100128174l-1.3310241699-.6950073242c-.4389648438-.2080078125-.7809448242-.3209838867-1.1649780273-.5470123291-1.4920043945-.8469696045-2.9570007324-2.1859893799-4.1950073242-3.5679779053-1.2459716797-1.4179992676-2.3280029297-3.0190124512-3.3069763184-4.700012207-.8489990234-1.2459869385-2.3620300293-.5199890137-1.7770080566.9600372314h0Z" fill="#1d1d1b"/>
    <path d="M364.4915902446,394.7305428813c-9.8030395508,3.8000030518-19.9050292969,6.8060150146-30.1760253906,8.9940185547-10.266998291,2.1929931641-20.6790161133,3.7139892578-31.1450195312,4.3509674072-10.4599914551.6520385742-20.9629821777.6000366211-31.3779907227-.3309631348l-3.8999938965-.3950195312-.9750061035-.0980224609-.4879760742-.0499725342c-.2050170898-.0230102539-.0310058594.0010223389-.282989502-.0490264893l-1.9420166016-.4139862061-2.507019043-.5189971924c-1.2109985352-.2239685059-2.5279846191-.578994751-3.5650024414-.5479888916-.9729919434.0629882812-1.7389831543.2210083008-1.992980957.6690216064l-.0150146484.0209655762c.6459960938.5350189209.1730041504.1650390625.3140258789.2920074463l-.0180358887.0500030518-.0339660645.0930023193-.0670166016.1870269775-.1459960938.3999938965c-.0899963379.302947998-.2690124512.576965332-.3370056152,1.0169830322l-.0620117188.3149871826c.0010223389.116027832.092010498.2770385742.133026123.4130096436.1059875488.2849884033.2069702148.5669708252.3309936523.8599700928l.7260131836,1.7500305176,1.0709838867,2.4770202637c.5369873047,1.2269744873,1.0879821777,2.4469909668,1.6549987793,3.662979126,1.1400146484,2.4329986572,2.3190002441,4.845993042,3.6879882812,7.2460021973,1.3620300293,2.3409881592,2.9389953613,4.4520111084,4.5419921875,6.5030059814,1.6200256348,2.0469970703,3.3270263672,4.0009765625,5.0720214844,5.8959960938,2.2760009766,2.532989502,4.8529968262,4.7460021973,6.3089904785,6.9940185547.3550109863.5539550781.6400146484,1.1309509277.7820129395,1.5999755859.1409912109.4429931641.132019043.8380126953.0760192871,1.008972168-.0220031738.1140441895-.1710205078.3400268555-.5190429688.5950012207-.3389892578.2490234375-.8799743652.4890136719-1.509979248.6820373535-.3179931641.0969848633-.6570129395.1860046387-1.016998291.2699890137-.3670043945.0840148926-.7539978027.1650085449-1.074005127.2210083008-.683013916.117980957-1.4049987793.1889648438-2.1350097656.2210083008-.7299804688.0299987793-1.4709777832.0249938965-2.2049865723-.0220031738-.7380065918-.0400390625-1.4349975586-.1350402832-2.2319946289-.2560424805-3.091003418-.4679870605-6.1380004883-1.241973877-9.0939941406-2.2929992676-5.9090270996-2.0989685059-11.4470062256-5.325958252-16.4390258789-9.2489929199-4.9859924316-3.9219665527-9.4899902344-8.4920043945-13.2769775391-13.6260070801-3.7990112305-5.1179504395-7.0570068359-10.6669921875-9.591003418-16.5499725342-.6350097656-1.4689788818-1.2660064697-2.9410095215-1.8050231934-4.4500274658-.5919799805-1.4889526367-1.0799865723-3.0159606934-1.5799865723-4.5389862061-.5140075684-1.520980835-.8869934082-3.0449829102-1.341003418-4.5659790039-.328994751-1.4949951172-.6789855957-3.1490020752-.9700012207-4.7080078125-.5969848633-3.175994873-1.021987915-6.2779693604-1.2009887695-9.4889678955-.1979980469-3.1950378418-.2310028076-6.4030456543-.1119995117-9.6090240479.2679901123-6.4100189209,1.1390075684-12.8070068359,2.6109924316-19.0650024414.558013916-2.4080047607,1.2070007324-4.7940063477,1.9430084229-7.1529998779.3690032959-1.1790008545.7440032959-2.3560028076,1.1639862061-3.5180053711.2070007324-.5820007324.3970031738-1.1699981689.625-1.7440032959l.6920166016-1.8139953613c.2579956055-.6459960938.4189758301-1.25.612991333-1.8760070801l.1410064697-.4649963379c.0539855957-.0809936523-.0260009766-.1449890137-.0650024414-.2139892578l-.1340026855-.2050018311-.5350036621-.81300354c-.1879882812-.2660064697-.3649902344-.5379943848-.5709838867-.7949981689l-.2920227051-.3780059814-.1779785156-.216003418-.700012207-.8089904785-1.3159942627-1.4609985352-.5730133057-.6740112305-.5979919434-.7529907227c-1.5970001221-2.029006958-3.1109924316-4.1159973145-4.5239868164-6.2630004883-2.7710266113-4.3139953613-5.3110046387-8.904006958-7.5390014648-13.5839996338-4.4723205566-9.383026123-7.7525024414-19.3500061035-9.7633209229-29.5729980469-2.0131988525-10.2350158691-2.6788787842-20.6940002441-1.9988861084-31.1620178223.5848999023-10.4719848633,2.0785980225-21.0129699707,2.0965881348-31.6809692383-.1465911865-4.1346130371-1.824005127-4.0793151855-2.0194091797-.0330200195-.2609863281,10.4930114746-1.9877929688,20.9110107422-2.8354797363,31.5250244141-.9424133301,10.609954834-.5194091797,21.4329833984,1.3052978516,31.9859619141,1.820892334,10.5610351562,4.9566040039,20.9110107422,9.3507080078,30.7180175781,2.2028808594,4.9140014648,4.6744995117,9.6539916992,7.5065002441,14.3000030518,1.4399871826,2.3020019531,2.9799804688,4.532989502,4.600982666,6.6959991455l.6160125732.8139953613c.2309875488.300994873.4609832764.5800018311.6889953613.8529968262l1.3010101318,1.5149993896.5809936523.7030029297.1329956055.1699981689c.0180053711.0230102539.0050048828.0090026855.0079956055.0149993896l-.0019836426.0070037842s-.0210266113.0260009766-.0170135498-.0059967041l-.6599884033,1.733001709c-.2390136719.6029968262-.4390106201,1.2189941406-.6560058594,1.8300018311-.4400024414,1.2189941406-.8340148926,2.4529876709-1.2210083008,3.6899871826-.7720031738,2.4730072021-1.4519958496,4.9739990234-2.0369873047,7.4970092773-1.5420074463,6.5579986572-2.4560089111,13.2630157471-2.7380065918,20.004989624-.1260070801,3.3720092773-.091003418,6.7530059814.1190032959,10.1280059814.1849975586,3.3640136719.6529998779,6.7969970703,1.2759857178,10.0879974365.3139953613,1.6760253906.6430053711,3.2439880371,1.024017334,4.9619903564.4809875488,1.6340026855.8970031738,3.3100128174,1.4359893799,4.9070129395.5260009766,1.6050109863,1.0420074463,3.2130279541,1.6649932861,4.7850036621.5700073242,1.5899963379,1.2350158691,3.1449890137,1.9060058594,4.6959686279,2.6770019531,6.2100372314,6.1230010986,12.094039917,10.1679992676,17.5410308838,4.0320129395,5.4610137939,8.8460083008,10.3580169678,14.2030029297,14.570022583,5.3500061035,4.2019958496,11.3330078125,7.701965332,17.8379821777,10.0179748535,3.2460021973,1.1530151367,6.6070251465,2.008972168,10.024017334,2.525970459.8299865723.1280212402,1.7649841309.2540283203,2.6719970703.3030090332.907989502.0570373535,1.8150024414.0639953613,2.7279968262.0260314941.9140014648-.0409851074,1.8340148926-.1270141602,2.7720031738-.2890014648.4909973145-.0870361328.908996582-.1770324707,1.3440246582-.2760314941.441986084-.1029663086.8989868164-.2199707031,1.367980957-.3639831543.9369812012-.2960205078,1.9429931641-.6809997559,2.9450073242-1.3939819336.4969787598-.3570251465.9850158691-.798034668,1.407989502-1.3309936523.4060058594-.5050354004.8130187988-1.2420043945,1.0020141602-1.9320068359.4020080566-1.4200134277.2460021973-2.7330322266-.091003418-3.8580322266-.3429870605-1.1059875488-.825012207-2.0029602051-1.3500061035-2.8359985352-1.0899963379-1.6759643555-2.2850036621-2.9359741211-3.4680175781-4.1770019531l-1.7339782715-1.7719726562c-.558013916-.5700073242-1.0899963379-1.141998291-1.6460266113-1.7450256348-1.6839904785-1.8279724121-3.3079833984-3.6900024414-4.8299865723-5.6119995117-1.5119934082-1.9339599609-2.9700012207-3.8949737549-4.1510009766-5.9329528809-1.3020019531-2.161026001-2.5039978027-4.4710388184-3.6600036621-6.7970581055-.576965332-1.1659545898-1.1419677734-2.3409729004-1.691986084-3.5229797363l-.4109802246-.8869934082-.0980224609-.2129821777-.009979248-.0150299072-.0190124512-.0279846191-.0820007324-.1330108643c-.0270080566-.0479736328-.0670166016-.1079864502-.0870056152-.1649932861.0419921875-.0029907227.0899963379-.0009918213.1439819336.0009918213.2180175781.0280151367-.2459716797-.0820007324,1.5599975586.2630004883l1.9440307617.3660125732c.0709838867.0199737549.5689697266.1080169678.6940002441.1000213623l.4999694824.0389862061.9990234375.0779876709,3.9949951172.3100280762c10.6619873047.6999511719,21.358001709.4999694824,31.9730224609-.4120330811,10.6199645996-.8979797363,21.1459655762-2.6900177002,31.491973877-5.1549987793,10.3489990234-2.4609985352,20.4970092773-5.742980957,30.3110351562-9.8159790039,3.759979248-1.6870269775,3.0859680176-3.2230377197-.7510070801-1.8740234375h0Z" fill="#1d1d1b"/>
    <path d="M195.133268101,210.35455106c-.0377044678-3.6123962402-.2846984863-7.2698974609-1.0572967529-10.8828125-.7762145996-3.6136779785-2.0870056152-7.1297912598-3.9789123535-10.3574829102-.9525909424-1.6083068848-2.0372924805-3.1549987793-3.3031005859-4.5658874512-.3065948486-.3531188965-.6472930908-.7058105469-.9931945801-1.057220459-.3406982422-.3414001465-.6647033691-.6123046875-.9978027344-.9219055176l-1.9856872559-1.8027954102-.9929199219-.9013977051c-.3302001953-.3000793457-.6798858643-.6083068848-.9289855957-.8760986328-.5850067139-.6040039062-1.141708374-1.2336120605-1.663192749-1.8908996582-1.0377349854-1.3110961914-1.9705047607-2.734588623-2.7133178711-4.2152099609-1.5173034668-2.9602966309-2.3780975342-6.3356018066-3.4595947266-9.8180847168-.5444946289-1.7409973145-1.1547088623-3.5161132812-1.9558868408-5.2611083984-.7893981934-1.745300293-1.8244018555-3.4553833008-2.9864044189-4.9809875488-2.3267974854-3.0937194824-5.3930969238-5.7066040039-8.8699035645-7.4971008301-1.7344970703-.9010009766-3.5591125488-1.6094055176-5.4199066162-2.1408996582-.9310913086-.2615966797-1.8698883057-.4915161133-2.8148956299-.6712036133-.4714050293-.1050109863-.9458007812-.166809082-1.4196014404-.2448120117l-.7174072266-.108795166c-.0888977051-.0109863281-.0653991699-.0102844238-.0653991699-.0102844238v-.0029296875l.0013122559-.0056762695.3981933594-.4659118652c2.8636016846-3.349609375,5.7925109863-6.5783996582,8.9672088623-9.4747924805,3.1635894775-2.895904541,6.5968933105-5.3869934082,10.338104248-7.4052124023,3.7329711914-2.002532959,7.7177886963-3.5233154297,11.8193817139-4.4137878418,2.0612182617-.4402770996,4.1034088135-.7410888672,6.2343139648-.8279418945,2.1130981445-.1402587891,4.2330932617-.1057434082,6.3424987793.0432739258,8.44140625.6248779297,16.6756896973,3.5766906738,23.7286987305,8.3414611816,7.1210021973,4.7174072266,12.9619903564,11.154296875,17.1009979248,18.6387023926,1.608001709,2.8638916016,2.9819946289,5.8701171875,4.095993042,8.9787902832,1.2369995117,3.2177124023,2.2380065918,6.5386047363,3.0190124512,9.9213256836.7679901123,3.3898925781,1.2769927979,6.8304748535,1.6369934082,10.3133850098.6809997559,6.9891967773.6970062256,14.1340026855,1.078994751,21.3364868164.0989837646,1.8024291992.2190093994,3.603515625.3780059814,5.4139099121.1699981689,1.8518066406.4349975586,3.6322937012.7109985352,5.4248046875.5680084229,3.5722045898,1.2550048828,7.1120910645,2.0529937744,10.6300964355.8010101318,3.516998291,1.7110137939,7.0119934082,2.7870025635,10.4639892578,1.0830078125,3.450012207,2.3129882812,6.8680114746,3.9110107422,10.1570129395,1.4109954834,2.4909973145,2.8550109863,1.6260070801,1.8299865723-.8540039062-1.4200134277-3.199005127-2.5059967041-6.5709838867-3.4459991455-9.9769897461-.9339904785-3.4110107422-1.7089996338-6.8730163574-2.3759918213-10.3550109863-.6629943848-3.483001709-1.2190246582-6.9899902344-1.6520080566-10.4992980957-.2079925537-1.75-.4060058594-3.5176086426-.5029907227-5.2326049805-.0930023193-1.7566833496-.1500091553-3.5276794434-.1849975586-5.2987976074-.1340026855-7.0900878906.1059875488-14.2684936523-.3460083008-21.546081543-.2469940186-3.6419067383-.658996582-7.304901123-1.3479919434-10.919921875-.7020111084-3.6141052246-1.6440124512-7.1924743652-2.853012085-10.6948852539-1.1979980469-3.3395996094-2.6799926758-6.587890625-4.4239959717-9.6968078613-2.254989624-4.0488891602-4.9649963379-7.8655090332-8.1100006104-11.3024902344-3.1509857178-3.4375-6.7100067139-6.4889221191-10.578994751-9.0575866699-7.7030029297-5.2052001953-16.7976989746-8.4841003418-26.13671875-9.1716003418-2.3320007324-.1656799316-4.67578125-.2017211914-7.0076904297-.0485534668-2.321395874.0957336426-4.7043914795.4383850098-6.99609375.9319152832-4.6065063477,1.0002746582-9.0214996338,2.6920471191-13.1363983154,4.8996887207-4.1054077148,2.208770752-7.9313049316,4.9927368164-11.3358917236,8.1128234863-3.4089202881,3.1112060547-6.4731140137,6.4996948242-9.3967132568,9.9182128906l-6.0995941162,7.263092041,2.9721069336,1.0546875c.4560852051.1589050293,1.0362854004.4231262207,1.9496917725.4204101562.4423980713.0101928711.9411010742-.0382080078,1.421295166-.0806884766.4794006348-.040222168.9288024902-.0446166992,1.3748931885-.0404052734.2295074463.0017089844.4566192627.0057983398.6806030273.0191040039l.3356170654.0217895508.2684020996.0222167969.6112823486.0719909668c.4104156494.0536804199.8255004883.0906066895,1.2299041748.1679992676.8170013428.1253967285,1.6224975586.2943115234,2.4200897217.487701416,1.592300415.3949890137,3.1379089355.9352111816,4.6037139893,1.6322021484,2.9353942871,1.3874816895,5.5265960693,3.4353027344,7.5918884277,5.9849853516,2.1112060547,2.5194091797,3.4535064697,5.5072021484,4.6036987305,8.8356018066,1.1604309082,3.294708252,2.1819152832,6.8802185059,4.0475158691,10.2480163574.9232940674,1.6842956543,2.0172119141,3.2303771973,3.2484893799,4.6811828613.6156005859.7227172852,1.2691040039,1.4120178223,1.9517822266,2.0690917969.377822876.370513916.7116394043.6395263672,1.0528259277.9297180176l1.0238952637.866607666,2.0476989746,1.7333068848c.3320007324.2873840332.7033996582.5811767578,1.0030059814.86328125.2896881104.2773132324.5816955566.5563049316.8723907471.8688964844,1.1672058105,1.2114868164,2.1955108643,2.5726013184,3.1152038574,4.0080871582,1.8292999268,2.8838195801,3.1679992676,6.1090087891,4.008895874,9.4580078125.8432006836,3.3612060547,1.2104034424,6.8684082031,1.3688964844,10.3991088867.2222137451,2.7276000977,1.9000091553,2.7514038086,2.0190124512-.0559997559h0Z" fill="#1d1d1b"/>
  </g>
  <path d="M397.6575448344,381.4035317729c-1.5879821777-.838973999-3.0479736328-2.3109893799-4.2819519043-3.7899932861-1.2340087891-1.513961792-2.2690429688-3.2060089111-3.1840209961-4.9809875488-.9100341797-1.7820129395-1.7060241699-3.6440124512-2.4849853516-5.5399780273l-1.1680297852-2.8670196533-.5670166016-1.3739929199-.1849975586-.5069885254-.0699462891-.1980133057c-.032043457-.0670013428.1239624023-.0660095215.1729736328-.0999908447l.4169921875-.1450195312c.0540161133-.0220031738.0139770508.0019836426.1439819336-.0559844971l.3560180664-.1570129395.7119750977-.31300354,1.4190063477-.6309967041,5.6540527344-2.5119934082c3.7609863281-1.6570129395,7.5239868164-3.228012085,11.326965332-4.5760040283,1.7989807129-.699005127,3.6149902344-1.3359985352,5.4379882812-1.9109954834,7.532043457-2.3500061035,15.4700012207-3.4250030518,23.3040466309-2.8980102539,3.9179992676.2580108643,7.7979431152.8910064697,11.4949645996,2.0130004883,1.8359985352.5530090332,3.6739807129,1.2590026855,5.4329833984,2.0480041504l.4100341797.18800354-.0050048828.0019989014-.5210266113.3190002441c-.4979553223.2980041504-.9719848633.6190032959-1.4429931641.9429931641-1.8800048828,1.3050079346-3.5649719238,2.7830047607-5.1510009766,4.2940063477-1.4809875488,1.4250030518-2.8730163574,2.8880157471-4.2339782715,4.3269958496-2.7529907227,3.0890045166-5.4360351562,6.1380157471-8.3569946289,8.8600158691-2.9060058594,2.7189788818-6.1010131836,5.0879821777-9.5969848633,6.9739990234-3.4910583496,1.8759765625-7.2570495605,3.2609863281-11.1650085449,3.9520111084-3.8460388184.7299499512-7.8520202637.3019866943-11.8100280762-.6070098877-1.5579833984-.2370147705-2.0349731445,1.3719787598-.5039672852,1.9549865723,4.001953125,1.1799926758,8.3559875488,1.9420013428,12.7079467773,1.3880004883,4.2710571289-.4909973145,8.4400024414-1.7449798584,12.3380126953-3.5470123291,3.8959960938-1.804977417,7.5400390625-4.1839752197,10.8349914551-6.9149932861,3.2960205078-2.7230072021,6.2610168457-5.7189941406,9.183013916-8.6239776611,1.3569946289-1.4340209961,2.6940002441-2.8360290527,4.0640258789-4.1540374756,1.4619750977-1.3939666748,2.9609985352-2.7009735107,4.5459899902-3.7989807129.3970031738-.2729949951.7939758301-.5429992676,1.2019958496-.7850036621l.3040161133-.1889953613.0759887695-.0469970703.1609802246-.0839996338.3480224609-.1780090332,1.3929748535-.7129974365c.4809875488-.233001709,1.092010498-.4270019531,1.632019043-.6430053711l1.7030029297-.629989624,3.4190063477-1.2220001221-4.6130065918-3.0010070801c-.7730102539-.5090026855-1.6449890137-.9980010986-2.5220336914-1.4749908447-.4440002441-.2230072021-.9169921875-.4800109863-1.3339538574-.6720123291l-1.0060424805-.4729919434c-1.9719848633-.8840026855-3.958984375-1.6470031738-6.0390014648-2.2760009766-4.133972168-1.2539978027-8.3809814453-1.93800354-12.6210021973-2.2189941406-8.5009460449-.5690002441-17.049987793.595993042-25.1229858398,3.1159973145-1.949005127.6139984131-3.8670043945,1.2879943848-5.7549743652,2.0209960938-3.8930358887,1.6499938965-7.6550292969,3.4969940186-11.3470153809,5.3959960938l-5.5100097656,2.8560028076-2.9559936523,1.516998291-2.3869934082,1.1740112305-.5889892578.2899932861-.2930297852.1439971924-.0729980469.0359954834c-.0029907227.0200195312.0200195312.0490112305.0299987793.0720214844l.0750427246.1509857178.5969848633,1.1970214844,1.843963623,3.7479705811,1.340057373,2.7970123291c.9059448242,1.8730010986,1.8479614258,3.759979248,2.9299621582,5.5969848633,1.0889892578,1.8320159912,2.3259887695,3.6150054932,3.8039855957,5.2180023193.7490234375.8020019531,1.5260314941,1.5479888916,2.3730163574,2.2330169678.8489990234.6870117188,1.7760314941,1.3349609375,2.8419799805,1.8079986572.8150024414.2649841309,1.2690124512-.0220031738,1.515045166-.3990325928.2619934082-.4019775391,0-1.0499572754-.6480407715-1.425994873h0Z" fill="#1d1d1b"/>
  <path d="M197.2348611186,385.1295754741c-5.2553863525,8.5279693604-12.7523956299,15.5429840088-20.9644927979,21.1269683838-8.2714080811,5.4589996338-17.7535095215,9.158996582-27.43800354,10.2319946289-2.3209991455.3260192871-4.6731109619.5240020752-6.9196929932.4970245361-.7318115234-.0109863281-1.4544219971-.0490112305-2.1615142822-.120010376-.67578125-.0710144043-1.5073852539-.1860046387-2.2086029053-.2980041504-1.4447021484-.2349853516-2.797088623-.5589752197-3.8840942383-1.0849761963-.5271911621-.2470397949-1.0533905029-.5970458984-1.3780975342-.8820495605-.3170013428-.2859649658-.5417938232-.634979248-.6371917725-.9169921875-.0475158691-.1239776611-.0680084229-.3269805908-.062210083-.2689666748-.0095825195.0549926758.0185089111-.1340026855.1068115234-.3539886475.205291748-.532043457.4683990479-.9780273438.816696167-1.4440155029.6869049072-.9250183105,1.7454071045-1.7749786377,2.93359375-2.5670318604,1.2031097412-.7949676514,2.5446014404-1.5229644775,3.9731903076-2.3499908447,1.4090118408-.8740081787,2.7772216797-1.8229980469,4.1648101807-2.7359924316,1.3683929443-.9379730225,2.6692047119-1.9739990234,3.9369049072-3.0489959717,5.0639038086-4.2819976807,9.3386993408-9.6630096436,12.3438110352-15.5819854736,3.0328826904-5.9190216064,4.9739837646-12.2730102539,6.2128753662-18.6730041504.4899291992-2.4630126953.8410186768-4.9410095215,1.1358032227-7.4200134277l.2238006592-2.7169952393.0971069336-1.3509979248.0453948975-.6800079346c.0055084229-.0799865723.0021057129-.0699920654.0021057129-.0699920654l-.0032958984-.0079956055-.0066070557-.0200042725c-.0353088379-.1069946289-.0631103516-.3079986572-.1055908203-.6029968262-.0055084229-.0709991455-.0426025391-.2180023193-.0272064209-.2470092773.0314025879.0080108643.0639038086.0260009766.0988922119.0520019531.0705108643.0520019531.1473083496.1390075684.2523956299.245010376l.1717071533.1799926758c.0933074951.1119995117.0150909424-.0229949951.4373016357.56199646l1.8815155029,2.5599975586c2.6360778809,3.4010009766,5.3690795898,6.6230163574,8.2599945068,9.7469940186,1.4417114258,1.5590057373,2.9147949219,3.087020874,4.4176025391,4.5840301514.7479858398.7369842529,1.513381958,1.501953125,2.30078125,2.2299804688l2.3637084961,2.1039886475,4.7245025635,4.2040100098,1.1804962158,1.050994873.5906982422.5250091553c.2442016602.2030029297.4645080566.3730010986.6876983643.5359802246.886505127.6500091553,1.7592010498,1.2030181885,2.4740142822,1.8150024414.333984375.245010376.6836853027.4370269775.86378479.3920288086.2004089355-.0180206299.4934997559.1310119629.7012176514.0199737549.1964874268-.1060028076.4417877197-.2029724121.4200897217-.6619873047-.0760955811-.4669952393-.2389984131-.8180084229-.6256103516-1.2430114746-.8470916748-.7959899902-1.7299957275-1.4079742432-2.504989624-2.0419921875-.1938171387-.1560058594-.3797912598-.3179931641-.5339050293-.4570007324l-.5603027344-.549987793-1.12109375-1.1000213623-4.4821014404-4.3979797363-2.2395935059-2.1979980469c-.7195129395-.7340087891-1.4044036865-1.4890136719-2.1152038574-2.2609863281-1.4007110596-1.5390319824-2.7694091797-3.1040039062-4.1042022705-4.6970214844-2.6656951904-3.174987793-5.2110900879-6.4980010986-7.5625-9.8560028076l-1.7248077393-2.6049957275-1.3610992432-2.0240020752c-.5442047119-.7729949951-1.0582885742-1.6539916992-1.6138000488-2.4900054932-1.1381835938-1.7169952393-2.0811920166-2.6319885254-3.0211791992-3.7769927979l-1.5567016602-1.779006958c-.491317749-.5359954834-.6893157959-.6899871826-1.3451080322-1.3860015869l.3192901611,6.5170135498c.0981140137,2.0679931641-.0238952637,3.7309875488-.1685943604,5.4869995117l-.1168060303,1.2409973145-.0759887695.6559906006-.1599121094,1.3200073242-.3446807861,2.6179962158c-.2817077637,2.3650054932-.6152191162,4.7230224609-1.0783081055,7.046005249-1.1692047119,6.0469818115-2.9883117676,11.9469909668-5.7498016357,17.3349914551-2.7518005371,5.3979949951-6.5220031738,10.1440124512-11.1434936523,14.0660095215-1.1518096924.9759979248-2.3357086182,1.9209899902-3.5852050781,2.7749938965-1.2658996582.8260040283-2.5037994385,1.6910247803-3.7872161865,2.4930267334-1.3152923584.7639770508-2.7684936523,1.5459594727-4.2146911621,2.4999847412-1.438293457.9669799805-2.9286956787,2.0930023193-4.1571044922,3.7120056152-.6063842773.7969970703-1.1483917236,1.7379760742-1.5076904297,2.6889801025-.1896972656.5199890137-.3887939453,1.1040344238-.4329071045,1.9530181885-.0152893066.8519897461.129119873,1.4390106201.3292999268,2.0659942627.4238128662,1.2199707031,1.1407012939,2.2069854736,1.9936065674,2.9890136719.8654022217.7649688721,1.6949005127,1.2659759521,2.5968017578,1.7049865723,1.7821960449.8489990234,3.5616912842,1.2299957275,5.2396087646,1.5099945068.8653869629.1359863281,1.6057891846.2399902344,2.5072937012.3369903564.8714904785.087020874,1.7346954346.1309967041,2.5888977051.1439971924,2.6340026855.0290374756,5.1588897705-.1930084229,7.6681976318-.5419921875,5.2641906738-.8290100098,10.3519897461-2.3990020752,15.1760864258-4.4869842529,4.8317108154-2.0790252686,9.3829193115-4.7380065918,13.6008148193-7.8229980469,4.216293335-3.1230010986,8.0312042236-6.6030273438,11.567199707-10.4200286865,3.5065002441-3.8229980469,6.6409912109-8.0130157471,9.1309967041-12.5680084229.8471069336-1.8409881592-.6478881836-2.6039886475-1.7462005615-1.0149536133h0Z" fill="#1d1d1b"/>
  <path d="M365.5005624125,394.3295571635c-25.2690124512,9.7549743652-52.4030151367,14.4290008545-79.282989502,13.5659942627l-4.8270263672-.1220092773c-1.6089782715-.0419921875-3.2139892578-.1709747314-4.8209838867-.2519836426l-2.2780151367-.1310119629-2.2769775391-.203994751-4.5610046387-.4120025635-7.3609924316-.6920013428.0009765625.0019989014-.3639831543-.9909973145-.7290039062-2.1290130615c-.4700012207-1.4279785156-.9179992676-2.8710021973-1.3049926758-4.2899932861-.1930236816-.7209625244-.3610229492-1.3809661865-.4970092773-2.0900115967l-.4200134277-2.2069854736c-.2609863281-1.4739837646-.4799804688-2.9539794922-.6599731445-4.4359893799-.358001709-2.9639892578-.5530090332-5.940032959-.5390014648-8.9050292969.0130004883-2.9579467773.2579956055-5.912979126.6599731445-8.8829803467.4090270996-2.9659881592.9650268555-5.929977417,1.6090087891-8.9020080566l.9070129395-4.0399932861.384979248.4029998779.3710327148.3670043945c.1229858398.1199951172.2739868164.257019043.4580078125.4090118408.3129577637.2579803467.4989624023.3929901123.7569885254.5929870605,1.9189758301,1.4680175781,3.9989929199,2.8180084229,6.050994873,3.9990081787,4.1260070801,2.407989502,8.4509887695,4.4399871826,12.8729858398,6.1659851074,3.1110229492,1.2140045166,6.2730102539,2.2710113525,9.4710083008,3.2010040283,6.7100219727,1.8210144043,13.5199890137,3.0449981689,20.3190002441,3.9770050049,6.7959899902.916015625,13.6049804688,1.6229858398,20.3880004883,2.2020111084l10.1700134277.9089813232c3.3619689941.3090362549,6.674987793.7010192871,9.8710021973,1.486038208,3.1879882812.7799987793,6.2909851074,1.9609832764,9.0189819336,3.6949768066,2.7369995117,1.7300109863,5.0279846191,4.0999755859,6.9239807129,6.8139801025,1.5230407715,2.0470275879,3.0040283203,1.2490234375,1.6730041504-1.1309814453-1.8879699707-2.9319915771-4.309967041-5.6510162354-7.2699890137-7.6740112305-2.9529724121-2.0289916992-6.2539978027-3.4140014648-9.6350097656-4.3760223389-3.3869934082-.9629516602-6.8399963379-1.4939575195-10.2369995117-1.9319458008l-10.1289978027-1.2800140381c-13.4669799805-1.7250061035-26.9559936523-3.546005249-39.6979980469-7.4920349121-3.0619812012-.8899841309-6.0879821777-1.9019775391-9.049987793-3.0579833984-4.2090148926-1.641998291-8.2950134277-3.5639953613-12.1739807129-5.8279876709-1.9620361328-1.1310119629-3.774017334-2.3110046387-5.5370178223-3.6570129395l-.6119995117-.4769897461c-.0399780273-.0319976807-.1040039062-.0879974365-.1880187988-.171005249l-.2459716797-.2440032959-.2630310059-.2749938965-.5379943848-.5939941406c-.3890075684-.4309997559-.7669677734-.8800048828-1.1479797363-1.3280029297-1.507019043-1.8059997559-3.0400085449-3.7799987793-4.5480041504-5.654006958l-2.1270141602,8.9620056152-1.125,4.9750061035c-.6599884033,3.0479888916-1.242980957,6.141998291-1.674987793,9.2799835205-.4250030518,3.1330108643-.6920013428,6.3309936523-.7059936523,9.5340270996-.0149993896,3.1969604492.1949920654,6.3799743652.5749969482,9.5310058594.1909942627,1.575958252.4239959717,3.1439666748.6999969482,4.7030029297l.4429931641,2.3309783936c.1550140381.8039855957.3659973145,1.6390075684.5720062256,2.4049987793.4239959717,1.5520019531.8899993896,3.0520019531,1.3829803467,4.549987793l.7680206299,2.2420043945.4320068359,1.1770019531c.2859954834.7119903564.5479888916,1.4619903564.9789886475,2.0259857178.141998291.0960083008.2940063477.1790161133.4360046387.262008667l.1090087891.0620269775.0559997559.0329742432c.0289916992-.0209960938-.1510009766.2490081787-.0610046387.1400146484l.0299987793.0119781494.2369995117.0970153809c.3309936523.1100006104.600982666.3010253906.9810180664.3449859619l1.8519592285.1739959717,2.2950134277.216003418,4.592010498.4320220947,4.641998291.4179992676,2.325012207.208984375,2.3349914551.1340026855c1.6479797363.0840148926,3.2940063477.2150115967,4.9429931641.2579803467l4.9479980469.1260070801c27.5709838867-.1229858398,54.9679870605-5.9189910889,80.1120300293-16.6959991455,2.3959655762-1.1449737549,1.7319946289-2.6849975586-.7630310059-1.8699798584h0Z" fill="#1d1d1b"/>
</svg>