<?xml version="1.0" encoding="UTF-8"?>
<svg id="Ebene_1" data-name="Ebene 1" xmlns="http://www.w3.org/2000/svg" xmlns:xlink="http://www.w3.org/1999/xlink" viewBox="0 0 566.9291338583 566.9291338583">
  <defs>
    <clipPath id="clippath">
      <rect x="95.4645669291" y="105.4645669291" width="374.1140441895" height="357.8110046387" fill="none"/>
    </clipPath>
    <clipPath id="clippath-1">
      <path d="M157.1837746928,201.2017800639s2.7938079834-76.8215942383-41.9027099609-77.5194091797c0,0-40.6884002686,26.7320861816,4.190612793,194.845199585l37.712097168-117.3257904053" fill="none"/>
    </clipPath>
    <clipPath id="clippath-2">
      <rect x="95.4645669291" y="105.4645669291" width="374.1140441895" height="357.8110046387" clip-path="url(#clippath-1)" fill="none"/>
    </clipPath>
    <clipPath id="clippath-3">
      <path d="M330.1595742534,123.6823708842s37.7129821777,36.3151855469-4.1900024414,194.845199585c-30.0299987793-14.6650238037-37.7120056152-117.3257904053-37.7120056152-117.3257904053,0,0-2.7940063477-76.8215942383,41.9020080566-77.5194091797" fill="none"/>
    </clipPath>
    <clipPath id="clippath-4">
      <path d="M120.5250680278,425.3565804789c28.7783966064,28.7789764404,165.0955047607,33.4269866943,202.790512085-4.7040252686,9.3289794922-29.0349731445,11.1019897461-218.583404541-21.8040161133-253.4754943848-33.5719909668-35.5972900391-146.4071960449-27.0745849609-167.4657897949,4.0114135742-7.8144073486,11.5358886719-13.7542114258,41.7060852051-19.7700042725,78.7670898438-4.1080932617,25.3090209961-9.7218170166,54.4150085449-10.1978607178,80.6959991455-.7053375244,38.9409790039,6.8971557617,76.5149841309,16.4471588135,94.7050170898" fill="none"/>
    </clipPath>
    <clipPath id="clippath-5">
      <path d="M130.6455819438,163.4896828959c-9.079208374,10.475402832-20.6226196289,67.7658996582-19.5545196533,81.7098999023.8016204834,10.4639892578,97.404510498,32.9109802246,108.9324951172,33.7969970703,20.1330108643,1.5489807129,108.9610290527-27.5119934082,110.3570251465-36.591003418,1.3969726562-9.0790100098-13.2690124512-67.0436096191-20.2530212402-76.8213195801-6.983001709-9.7767944336-55.1709899902-26.5380859375-94.9789886475-25.1412963867-39.8072052002,1.3969116211-79.2880096436,17.029296875-84.5029907227,23.0467224121" fill="none"/>
    </clipPath>
    <clipPath id="clippath-6">
      <rect x="95.4645669291" y="105.4645669291" width="374.1140441895" height="357.8110046387" fill="none"/>
    </clipPath>
    <clipPath id="clippath-7">
      <rect x="95.4645669291" y="105.4645669291" width="374.1140441895" height="357.8110046387" fill="none"/>
    </clipPath>
  </defs>
  <polyline points="469.5346047709 434.3995644877 302.9965798686 459.6735818217 376.003568394 385.7785775493 469.5346047709 434.3995644877" fill="#8abd24"/>
  <path d="M335.6815774272,435.095578892l4.4069824219-4.7480163574c14.0310058594,2.9689941406,29.1790161133,3.6880493164,41.9640197754,1.9850158691,12.4020080566-1.6520080566,20.4010009766-5.2990264893,22.6779785156-10.0309906006,4.2090148926-8.7480163574-12.7760009766-18.3950500488-36.1690063477-22.3650360107l-.2109985352-.0349731445,2.4990234375-2.6920013428.2539978027.0419769287c28.3800048828,4.7080078125,50.0130004883,16.382019043,45.8649902344,27.3350372314-2.3039855957,6.0819854736-12.0299987793,10.8589630127-27.674987793,13.0629730225-16.2650146484,2.291015625-35.7080078125,1.3609924316-53.6119995117-2.5539855957h0Z" fill="#008939"/>
  <path d="M410.5565774272,404.5675637553l-4.0100097656.3999938965c-.808013916.0810394287-1.3989868164.8020019531-1.3179931641,1.611038208.0809936523.8089752197.8020019531,1.3989868164,1.6109924316,1.3179779053l4.0100097656-.3999938965c.8079833984-.0800018311,1.3989868164-.8020019531,1.3179931641-1.6100006104-.0809936523-.8090057373-.8020019531-1.3989868164-1.6109924316-1.3190155029" fill="#1d1d1b"/>
  <path d="M399.4815652201,405.6725900004l-12.2200012207,1.2189788818c-.8089904785.0810089111-1.3999938965.8020019531-1.3190002441,1.6109771729.0809936523.8080444336.8020019531,1.3990478516,1.6109924316,1.3180084229l12.2210083008-1.2189788818c.808013916-.0810089111,1.399017334-.8020019531,1.3180236816-1.6110076904-.0810241699-.808013916-.8020019531-1.3989868164-1.6110229492-1.3179779053h0ZM375.0405556987,408.1105630229l-12.2209777832,1.2190093994c-.8090209961.0810089111-1.399017334.8020019531-1.3190002441,1.6110076904.0809936523.8079833984.8020019531,1.3989868164,1.6109924316,1.3180084229l12.2210083008-1.2190093994c.8089904785-.0810089111,1.3989868164-.8020019531,1.3179931641-1.6110076904-.0809936523-.8079833984-.8020019531-1.3989868164-1.6100158691-1.3180084229h0Z" fill="#1d1d1b"/>
  <path d="M354.4395730326,410.1655556987l-4.574005127.4560394287c-.808013916.0809783936-1.399017334.8020019531-1.3179931641,1.6109771729.0809936523.8090057373.8020019531,1.3989868164,1.6109924316,1.3180084229l4.5729980469-.4560089111c.8089904785-.0809783936,1.3989868164-.8020019531,1.3179931641-1.6109771729-.0799865723-.8080291748-.8020019531-1.3990478516-1.6099853516-1.3180389404" fill="#1d1d1b"/>
  <path d="M406.6915566752,407.9035775493c-.7479858398,0-1.3869934082-.5660247803-1.4629821777-1.3260040283-.0800170898-.808013916.5090332031-1.5289764404,1.3190307617-1.6100158691l4.0099487305-.3999938965c.7920227051-.0790100098,1.5290222168.5100097656,1.6100158691,1.3200073242.0799865723.8079833984-.5100097656,1.529006958-1.3190002441,1.6099853516l-4.0100097656.399017334-.1470031738.0070037842h0Z" fill="#005538"/>
  <path d="M387.4055764506,409.8275887797c-.7470092773,0-1.3860168457-.5660095215-1.4630126953-1.3250427246-.0799560547-.809967041.5100097656-1.5299682617,1.3190002441-1.6109771729l12.2210388184-1.2189788818c.8119506836-.0770263672,1.5299682617.5099639893,1.6109619141,1.3179779053.0800170898.8099975586-.5100097656,1.5299987793-1.3190002441,1.6119995117l-12.2200012207,1.2179870605-.1489868164.0070343018h0ZM362.9635598491,412.2655618022c-.7469787598,0-1.3869934082-.566986084-1.4629821777-1.3259735107-.0800170898-.8090362549.509979248-1.5300140381,1.3179931641-1.6110076904l12.2210083008-1.2190246582c.8129882812-.0789794922,1.5299987793.5100097656,1.6109924316,1.3190155029s-.5090026855,1.5299987793-1.3179931641,1.6110076904l-12.2210083008,1.2190093994-.1480102539.0069732666h0Z" fill="#005538"/>
  <path d="M350.0105569194,413.5585763285c-.7470092773,0-1.3869934082-.5670166016-1.4629821777-1.3260040283-.0799865723-.8089752197.509979248-1.5299987793,1.3179931641-1.6109771729l4.574005127-.4560394287c.8070068359-.0810089111,1.5299987793.5100097656,1.6109924316,1.3180389404.0799865723.809967041-.5100097656,1.530960083-1.3179931641,1.6119689941l-4.574005127.4560089111-.1480102539.0070037842h0Z" fill="#005538"/>
  <path d="M392.2335793803,444.6035744975c-.3020019531,0-.608001709-.092010498-.8710021973-.2860107422l-3.6360168457-2.6740112305c-.6549987793-.4819946289-.7949829102-1.4029846191-.3139953613-2.0579833984.4819946289-.6539916992,1.4039916992-.7959899902,2.058013916-.3139953613l3.6370239258,2.674987793c.6539611816.4819946289.7940063477,1.4030151367.3129577637,2.0580444336-.2879943848.3919677734-.7339782715.5989685059-1.1869812012.5989685059h0Z" fill="#005538"/>
  <path d="M362.7655618022,422.9355752299c-.3030090332,0-.6090087891-.0919952393-.8710021973-.2860107422l-8.1499938965-5.9919891357c-.6539916992-.4810028076-.7950134277-1.4020080566-.3129882812-2.0570220947.4809875488-.6549987793,1.4029846191-.796005249,2.0569763184-.3139801025l8.1500549316,5.9920043945c.6539611816.4819946289.7949523926,1.4029998779.3129577637,2.058013916-.2879943848.3909759521-.7340087891.5989837646-1.1860046387.5989837646h0ZM382.5556008647,437.486570103c-.3030395508,0-.6090393066-.092010498-.8710327148-.2860107422l-9.8949890137-7.2749938965c-.6540222168-.4819946289-.7950134277-1.4029846191-.3130187988-2.0579833984.4810180664-.6529998779,1.4030151367-.7960205078,2.0570068359-.31300354l9.8949890137,7.2750091553c.6540222168.4809875488.7950134277,1.4019775391.3130187988,2.0579833984-.2879638672.3909912109-.7340087891.5989990234-1.1859741211.5989990234h0Z" fill="#005538"/>
  <path d="M352.4445779155,415.3475625346c-.3020019531,0-.608001709-.0929870605-.8710021973-.2869873047l-2.433013916-1.7889862061c-.6549987793-.4810333252-.7949829102-1.4020080566-.3139953613-2.0570220947.4819946289-.6539916992,1.4040222168-.7949981689,2.058013916-.3139801025l2.4329833984,1.7889862061c.6549987793.4819946289.7950134277,1.4029998779.3139953613,2.0579833984-.2879943848.391998291-.7339782715.6000061035-1.1869812012.6000061035h0Z" fill="#005538"/>
  <path d="M429.9825723002,418.457563145l-.091003418-.0030059814-8.4729919434-.5189666748c-.8110046387-.0500488281-1.4290161133-.748046875-1.3789672852-1.5590362549.0499572754-.81199646.7559509277-1.4390106201,1.5589599609-1.3789978027l8.4719848633.5200195312c.8120117188.0489807129,1.4290161133.7469787598,1.3789978027,1.5579681396-.0479431152.781036377-.6949768066,1.382019043-1.4669799805,1.382019043h0Z" fill="#005538"/>
  <path d="M458.9945657084,433.9035622905c-.0899963379,0-.1799926758-.0079956055-.2719726562-.0249938965l-12.7280273438-2.3760070801c-.7990112305-.1489868164-1.325012207-.9169921875-1.175994873-1.7169799805.149017334-.7990112305.9150085449-1.3300170898,1.717010498-1.1760253906l12.7279663086,2.3760070801c.7990112305.149017334,1.325012207.9169921875,1.1760253906,1.7170410156-.132019043.7069702148-.75,1.200958252-1.4450073242,1.200958252h0Z" fill="#005538"/>
  <path d="M387.7415749858,399.4035622905c-.5950012207,0-1.1560058594-.3639984131-1.3779907227-.9550018311-.2849731445-.7610168457.0999755859-1.6089782715.8619995117-1.8940124512l3.7849731445-1.4199523926c.757019043-.2840423584,1.6090087891.0989837646,1.8940124512.8609771729.2860107422.7609863281-.0989990234,1.6090087891-.8609924316,1.8950042725l-3.7850036621,1.4199829102c-.1700134277.0629882812-.3450012207.0930023193-.516998291.0930023193h0Z" fill="#005538"/>
  <path d="M423.8815591166,439.0645730326c-.158996582,0-.3209838867-.0249938965-.4809875488-.0799865723l-8.9819946289-3.1010131836c-.7690124512-.2659912109-1.1759643555-1.1040039062-.9110107422-1.8720092773.266998291-.7689819336,1.1029968262-1.174987793,1.8720092773-.9110107422l8.9819946289,3.1010131836c.7689819336.2659912109,1.175994873,1.1040039062.9119873047,1.8720092773-.2109985352.6100158691-.7819824219.9909973145-1.391998291.9909973145h0Z" fill="#005538"/>
  <g clip-path="url(#clippath)">
    <path d="M353.9225747416,449.3485696147c-.7409973145,0-1.3789978027-.558013916-1.4609985352-1.3119812012l-.5130004883-4.6880187988c-.0890197754-.8089904785.4949951172-1.5360107422,1.3029785156-1.6230163574.815032959-.0859985352,1.5350036621.4940185547,1.6230163574,1.3020324707l.5130004883,4.6889953613c.0889892578.8079833984-.4949951172,1.5349731445-1.3030090332,1.6230163574l-.1619873047.008972168h0Z" fill="#005538"/>
    <path d="M467.7055642436,432.3115517924l-92.1740112305-49.5309906006-4.1709594727,4.1399993896-8.9960327148,9.1060333252-66.4420166016,67.2489776611,53.08203125-8.0559997559,12.6550292969-1.9200134277,105.4689941406-17.5130004883c3.383972168-.6869812012,3.1319580078-2.3450012207-.3030395508-1.9969787598l-105.9159545898,14.5659790039-12.6550292969,1.9210205078-38.1849975586,5.7949829102,55.8519897461-56.5310211182,8.9960021973-9.10496521,1.4119873047-1.4700012207.1340026855-.1410369873.0010070801-.0049438477.0010070801-.0120391846.009979248-.0299987793,90.2980041504,45.3260192871c3.1390380859,1.4379882812,3.9120178223-.0500183105.9320068359-1.7920227051h0Z" fill="#1d1d1b"/>
    <path d="M195.1872689555,146.2327554057c.450302124-4.6860046387-4.0474090576-19.7073974609,10.6363067627-31.907623291,7.6430053711-6.3503112793,24.0870056152-8.3105773926,34.4099731445.6257019043,8.1380310059,7.0450439453,11.2610321045,31.907043457,11.2610321045,31.907043457l-15.0149993896-2.5023193359s-1.2130126953-19.4903869629-5.5930175781-23.8697814941c-4.3799743652-4.3796081543-18.1149902344-1.2365112305-20.6169891357,3.7687988281-2.5019989014,5.0050964355-3.3260040283,16.4053955078-3.3260040283,16.4053955078l-11.7563018799,5.5727844238" fill="#8bbe28"/>
    <path d="M157.1837746928,201.2017800639s2.7938079834-76.8215942383-41.9027099609-77.5194091797c0,0-40.6884002686,26.7320861816,4.190612793,194.845199585l37.712097168-117.3257904053" fill="#015538"/>
  </g>
  <g clip-path="url(#clippath-2)">
    <path d="M85.6141183207,123.3097512553c23.9646453857,16.0381164551,42.0552520752,40.6564025879,50.2030639648,68.316619873.570892334,1.9391784668,1.562789917,4.287689209,3.5815887451,4.3793945312,1.3960876465.0632019043,2.5379943848-1.0556030273,3.4277038574-2.133605957,9.7328948975-11.7929992676,11.9322967529-28.534576416,8.595703125-43.4570922852-3.3366088867-14.9223937988-11.6031036377-28.291595459-20.9731140137-40.3750305176-5.3692932129-6.925201416-12.387588501-14.1200561523-21.1472015381-13.8591918945-8.2881317139.2462768555-14.6826019287,7.0647583008-20.0639953613,13.3726196289l-3.6237487793,13.7562866211" fill="#00442b"/>
  </g>
  <path d="M180.9282815287,155.8074624369s-14.6759185791-39.6387939453-27.236114502-40.5058898926c-27.6665039062-1.9100341797-38.4111022949,8.3807983398-38.4111022949,8.3807983398,0,0,24.4434967041,24.4428100586,27.2367095947,64.9486999512l38.4105072021-32.8236083984" fill="#028a39"/>
  <path d="M330.1595742534,123.6823708842s37.7129821777,36.3151855469-4.1900024414,194.845199585c-30.0299987793-14.6650238037-37.7120056152-117.3257904053-37.7120056152-117.3257904053,0,0-2.7940063477-76.8215942383,41.9020080566-77.5194091797" fill="#015538"/>
  <g clip-path="url(#clippath-3)">
    <path d="M339.0245644877,140.8343789409c-4.2189941406-12.6651000977-8.8649902344-17.1520080566-8.8649902344-17.1520080566-25.7420043945.4018859863-35.7300109863,26.0527038574-39.5729980469,47.7366027832-1.2210083008,14.3532104492-.9940185547,28.9339904785-.4710083008,43.3366088867,9.5030212402-28.3330993652,26.6029968262-54.0501098633,48.908996582-73.9212036133" fill="#00442b"/>
  </g>
  <path d="M268.3535744975,156.6218850444s-1.9960021973-33.032409668,23.3959960938-41.3203125c11.9680175781-3.9066467285,38.4100036621,8.3807983398,38.4100036621,8.3807983398,0,0-27.2219848633,23.8500061035-27.2369995117,64.9486999512l-34.5690002441-32.009185791" fill="#028a39"/>
  <path d="M120.5250680278,425.3565804789c28.7783966064,28.7789764404,165.0955047607,33.4269866943,202.790512085-4.7040252686,9.3289794922-29.0349731445,11.1019897461-218.583404541-21.8040161133-253.4754943848-33.5719909668-35.5972900391-146.4071960449-27.0745849609-167.4657897949,4.0114135742-7.8144073486,11.5358886719-13.7542114258,41.7060852051-19.7700042725,78.7670898438-4.1080932617,25.3090209961-9.7218170166,54.4150085449-10.1978607178,80.6959991455-.7053375244,38.9409790039,6.8971557617,76.5149841309,16.4471588135,94.7050170898" fill="#028a39"/>
  <g clip-path="url(#clippath-4)">
    <path d="M189.7279641459,401.3035409282c36.2886047363.3430480957,71.3966064453,3.6300354004,106.1866149902-6.6919555664,9.5949707031-2.8470153809,39.4159851074-15.0160064697,43.7949829102-18.14402771,8.1440124512-5.816986084,6.5550231934,2.9440155029,12.808013916,10.7579956055,5.8800048828,7.3470001221,7.1669921875,17.6020202637,5.2509765625,26.8140258789-3.1699829102,15.2399902344-14.2949829102,27.9560241699-27.5879821777,36.0599975586-13.291015625,8.1019897461-28.6499938965,12.1189880371-43.9360046387,15.0569763184-32.2289886475,6.1940002441-65.2899932861,8.0429992676-98.0090026855,5.4800109863-16.8589935303-1.3219909668-33.816192627-3.8579711914-49.4842834473-10.2210083008-15.6680145264-6.3629760742-30.0706176758-16.8499755859-38.7440795898-31.367980957-4.9528961182-8.291015625-7.911819458-17.6349945068-9.9128265381-27.0830078125-1.4580993652-6.8849945068-7.1157073975-29.0830078125,2.5674285889-31.4060058594,7.740814209-1.8559875488,21.1733703613,11.3040161133,27.5951538086,14.6190185547,21.3251190186,11.0119934082,45.5799102783,15.9010009766,69.4710083008,16.1259613037h0Z" fill="#005538"/>
    <path d="M184.0805642436,202.8671853373c34.2510070801.3998718262,67.3870239258,4.2253723145,100.2239990234-7.7887268066,9.0559997559-3.313079834,37.2020263672-17.4744873047,41.3350219727-21.1152954102,7.6869812012-6.7694091797,6.1869812012,3.4270935059,12.0889892578,12.5202941895,5.549987793,8.5503234863,6.7639770508,20.4841003418,4.9559936523,31.2061157227-2.9920043945,17.7359924316,7.6940002441,22.9700012207-4.8519897461,32.3989868164-12.5450134277,9.4300231934-48.2269897461,23.6700134277-62.6560058594,27.0900268555-30.4190063477,7.208984375-49.108001709,12.8059692383-79.9891967773,9.8229980469-15.9122924805-1.5370178223-44.4319000244-7.9360351562-59.2203216553-15.3410339355-14.788482666-7.4059753418-37.0754394531-16.5639648438-45.260925293-33.458984375-4.6754150391-9.6480102539,1.2253570557-23.5690002441-.6633605957-34.5650939941-1.3764801025-8.0126953125-6.7158966064-33.8467102051,2.4231872559-36.5500183105,7.3058166504-2.1609802246,19.9844207764,13.1551208496,26.045715332,17.0140075684,20.1275024414,12.8143005371,43.020401001,18.50390625,65.5688934326,18.7667236328" fill="#005538"/>
  </g>
  <path d="M130.6455819438,163.4896828959c-9.079208374,10.475402832-20.6226196289,67.7658996582-19.5545196533,81.7098999023.8016204834,10.4639892578,97.404510498,32.9109802246,108.9324951172,33.7969970703,20.1330108643,1.5489807129,108.9610290527-27.5119934082,110.3570251465-36.591003418,1.3969726562-9.0790100098-13.2690124512-67.0436096191-20.2530212402-76.8213195801-6.983001709-9.7767944336-55.1709899902-26.5380859375-94.9789886475-25.1412963867-39.8072052002,1.3969116211-79.2880096436,17.029296875-84.5029907227,23.0467224121" fill="#028a39"/>
  <g clip-path="url(#clippath-5)">
    <path d="M117.4851662944,201.1807839701c3.833404541-16.7098083496,8.783203125-32.6407165527,13.1604156494-37.6911010742,5.2149810791-6.0174255371,44.6957855225-21.649810791,84.5029907227-23.0467224121,1.5749969482-.0552978516,3.1609954834-.0820922852,4.7590026855-.0820922852,38.7949981689,0,83.5129852295,15.8333129883,90.2199859619,25.2233886719,1.6060180664,2.2474975586,3.616027832,7.0400085449,5.7449951172,13.2005004883-20.4519958496-4.5623779297-41.1309814453-8.0938720703-61.9389953613-10.5769958496-13.1609954834-1.5705871582-26.5399780273-2.6972961426-39.8389892578-2.6972961426-18.6310119629,0-37.1008911133,2.2121887207-54.5676879883,8.5144042969-17.9196166992,6.4660949707-32.3918151855,14.7690124512-42.0417175293,27.1559143066" fill="#479836"/>
  </g>
  <path d="M197.9205758403,274.1235635112c-1.9130096436,2.5249938965-2.7619171143,20.2680053711-1.8030090332,22.9250183105.9600067139,2.658996582,15.6269989014,9.4499816895,43.0480041504.6139831543,3.9300079346-1.266998291,3.516998291-22.033996582.9589996338-24.3119812012-2.5579833984-2.2780151367-39.3259887695-3.0230102539-42.203994751.7729797363h0Z" fill="#015538"/>
  <path d="M200.7445657084,270.8465859721c-1.6559906006,2.1909790039-2.3899993896,17.593963623-1.5599975586,19.8999938965.8309936523,2.3079833984,13.5229949951,8.2030029297,37.2530212402.532989502,3.4019775391-1.1000061035,3.0439758301-19.1269836426.8299713135-21.1040039062-2.2129974365-1.9779968262-34.0319824219-2.6239929199-36.5229949951.6710205078h0Z" fill="#f6c145"/>
  <path d="M136.3772713969,330.1695687602c-4.1441955566,6.0240020752-8.4517059326,69.5500183105,1.2893829346,79.2940063477,8.9765167236,8.9789886475,135.3419189453,12.5260009766,160.7509155273,2.666015625,12.5130004883-12.5130157471,8.4949951172-75.8480224609,4.7420043945-81.4780273438-3.7540283203-5.6309967041-158.0683135986-6.2070007324-166.7823028564-.4819946289h0Z" fill="#8bbe28"/>
  <path d="M274.4165627787,375.4395882914c-3.6340026855,0-6.5799865723-2.9460296631-6.5799865723-6.5800170898,0-3.6340179443,2.9459838867-6.578994751,6.5799865723-6.578994751,3.6329956055,0,6.5790100098,2.9449768066,6.5790100098,6.578994751,0,3.6339874268-2.9460144043,6.5800170898-6.5790100098,6.5800170898h0ZM274.4165627787,357.4365670512c-6.3089904785,0-11.4230041504,5.1140136719-11.4230041504,11.4230041504,0,6.3090209961,5.1140136719,11.4230041504,11.4230041504,11.4230041504,6.308013916,0,11.4219970703-5.1139831543,11.4219970703-11.4230041504,0-6.3089904785-5.1139831543-11.4230041504-11.4219970703-11.4230041504h0Z" fill="#028a39"/>
  <path d="M270.5165688823,348.6995675395s-.5790100098,15.0330200195,1.1560058594,16.0460205078c1.7349853516,1.0109710693,4.6260070801,1.4450073242,5.3489990234-.2900085449.7220153809-1.7350006104.1439819336-15.324005127.1439819336-15.324005127" fill="#028a39"/>
  <path d="M150.633771641,338.2835671733c-6.2145080566,1.1909942627.9668884277,9.4949951172,4.0687866211,10.8190155029,3.1013031006,1.3249969482,124.4320220947,3.5259857178,129.6310272217,1.703994751,5.1999816895-1.8210144043,11.4939880371-11.4480133057,3.2049865723-12.6250152588-8.2890014648-1.1779937744-127.5572052002-1.6889953613-136.904800415.1020050049h0Z" fill="#015538"/>
  <path d="M111.6689584086,246.1365639994c.6059112549-8.2770080566,1.4360046387-16.5239868164,2.7449188232-24.6399841309l.3111877441-2.9300231934c1.154510498-10.1399841309,3.1554107666-20.1525878906,6.4156036377-29.762298584.2946014404-.9298095703.6093139648-1.8526000977.9636077881-2.7616882324,2.3165893555-7.8231201172,5.4064941406-15.4718933105,9.0777893066-22.8836975098.2387084961-.7821960449-1.2099914551-1.6268920898-1.7521972656-1.0043945312-4.5796966553,7-8.6649932861,14.3959960938-12.0263061523,22.1842956543-.3672943115.9447937012-.6946868896,1.9039001465-1.0016021729,2.8702087402-3.3905029297,9.9922790527-5.4611968994,20.3865966797-6.6444854736,30.7895812988l-.3191986084,3.0039978027c-.3390960693,8.4129943848-.1750030518,16.7789916992.2111968994,25.1069946289.1557006836.8090209961,1.8325958252.8260192871,2.0194854736.0270080566h0Z" fill="#1d1d1b"/>
  <path d="M242.4675729106,277.6975686381c8.2599945068-1.3899841309,16.470993042-3.1229858398,24.5980072021-5.2179870605,8.1309814453-2.0790100098,16.1889648438-4.4810180664,24.1419677734-7.2270202637,1.8890380859-.6999816895,3.7610168457-1.441986084,5.632019043-2.1879882812,4.8609924316-1.9540100098,9.6809997559-4.0150146484,14.4349975586-6.2280273438,2.375-1.133972168,4.7239990234-2.2159729004,7.1100158691-3.4499816895,2.3800048828-1.2379760742,4.7959899902-2.6519775391,7.0029907227-4.5249938965,2.2099914551-1.8489990234,4.1480102539-4.2850036621,5.3569946289-6.9760131836,1.2640075684-2.6809692383,1.8719787598-5.54296875,2.1350097656-8.3379821777.4909973145-5.6130065918-.3559875488-11.016998291-1.3200073242-16.1679992676-.3840026855-1.9930114746-.7680053711-3.9869995117-1.2349853516-5.9620056152-4.224029541-16.4225158691-11.0639953613-32.0805053711-20.1410217285-46.2174072266-.9800109863-1.3104858398-2.4029846191-.4238891602-1.7319946289,1.0401000977,8.1149902344,14.4627075195,13.8589782715,30.1600036621,16.9970092773,46.2832946777.4530029297,1.9130249023.824005127,3.8440246582,1.1959838867,5.774017334.9530029297,5.0319824219,1.6820068359,10.0220031738,1.2560119629,14.7929992676-.3989868164,4.7749938965-2.1900024414,9.0589904785-5.7539978027,11.9630126953-3.5100097656,2.9819946289-8.3550109863,5.0039672852-12.9819946289,7.2489624023-4.666015625,2.173034668-9.4030151367,4.1980285645-14.183013916,6.1200256348-1.8399963379.7339782715-3.6809997559,1.4630126953-5.5390014648,2.1520080566-7.6499938965,3.1629638672-15.4449768066,6.0019836426-23.3479919434,8.5319824219-7.8980102539,2.5460205078-15.9160003662,4.7449951172-24.0190124512,6.6090087891-1.5419921875.4869995117-1.2309875488,2.1350097656.3920135498,1.9819946289h0Z" fill="#1d1d1b"/>
  <path d="M197.7405679057,273.8425881694c-8.4696960449-2.008026123-16.838394165-4.3570251465-25.0877990723-7.0140075684-1.0037994385-.257019043-2.0077972412-.5130310059-3.004699707-.7950134277-5.2066192627-1.3930053711-10.3639068604-2.9600219727-15.4998016357-4.5889892578-5.1159973145-1.6879882812-10.2136993408-3.4360046387-15.2402954102-5.3690185547-.9723968506-.3559875488-1.9340057373-.7399902344-2.8952026367-1.1229858398-8.2257995605-2.7040100098-16.3529052734-5.7640075684-24.3200073242-9.25-.8288879395-.2210083008-1.5977935791,1.2689819336-.9164886475,1.799987793,7.5815887451,4.4049987793,15.4100952148,8.4220275879,23.4075012207,12.1030273438.9776916504.3899841309,1.9554901123.7799682617,2.9434967041,1.141998291,5.1100006104,1.9649658203,10.2868041992,3.7399597168,15.4821014404,5.4549865723,5.2142028809,1.6539916992,10.4493865967,3.2439880371,15.733795166,4.657989502,1.0119018555.2860107422,2.0308990479.5460205078,3.049697876.8059997559,8.6250152588,1.7290039062,17.2984161377,3.1260070801,25.9967041016,4.1650085449.862991333-.0160217285,1.146987915-1.6690063477.3509979248-1.9889831543h0Z" fill="#1d1d1b"/>
  <path d="M311.6065652201,167.0907571147c-1.2899780273-1.9878845215-2.7440185547-4.1011962891-4.4389953613-5.908203125-1.6820068359-1.841583252-3.5749816895-3.5003967285-5.6300048828-4.9433898926-1.0289916992-.7211914062-2.1040039062-1.3772888184-3.2099914551-1.9813842773-.5530090332-.3041992188-1.1180114746-.5827026367-1.6880187988-.8564147949l-1.674987793-.7265014648-6.7019958496-2.8818054199c-9.0520019531-3.5393981934-18.3320007324-6.6551818848-27.8789978027-8.699798584-2.291015625-.4599914551-4.5690002441-.9961853027-6.8899993896-1.2833862305-11.9820098877-2.0558166504-24.1640014648-2.7944030762-36.2989959717-2.5588989258-12.1360015869.2580871582-24.2597045898,1.4943847656-36.1764221191,3.8571777344-2.2880859375.4613037109-4.5553894043,1.0272216797-6.8338775635,1.5364074707l-3.5409088135.9093017578c-1.183303833.2889099121-2.3325042725.7099914551-3.4995117188,1.0585021973l-6.9689941406,2.1932983398c-2.2998962402.7973937988-4.5658874512,1.695892334-6.8468933105,2.5384216309l-3.4136047363,1.2830810547c-1.1277923584.4527893066-2.2310028076.9702148438-3.346786499,1.4519958496l-6.6690063477,2.9392089844-6.4920043945,3.3063049316-1.6201934814.8273925781-.8565979004.4360961914-.5919036865.2964172363c-.1983947754.1074829102-.4451141357.1648864746-.4993896484.4170837402l-1.6923065186,3.5928039551-3.0638122559,6.5440979004c-.6802062988,1.7437133789.8197937012,2.4937133789,1.8065032959.9031982422l3.3970031738-6.3775024414.8491973877-1.5942993164.424697876-.7971801758.2642059326-.4765014648c.0666046143-.1287231445.2485961914-.1311035156.3919067383-.2144165039l.7721862793-.3436889648,1.637512207-.7321166992,6.5440979004-2.9194030762,6.6956939697-2.5464782715c1.1179962158-.415802002,2.2218017578-.8668212891,3.3498077393-1.2532958984l3.4108886719-1.0839233398c2.2770080566-.7092895508,4.5338897705-1.4737854004,6.82081604-2.1369934082l6.9177856445-1.7901000977c1.1562957764-.2811889648,2.2929992676-.6347961426,3.4636993408-.8563842773l3.4993133545-.7073059082c2.2225799561-.49609375,4.4333953857-1.0498962402,6.6653900146-1.5,11.6254882812-2.304901123,23.4575042725-3.5097961426,35.2975006104-3.7621154785,11.8379974365-.2299804688,23.720993042.4887084961,35.3929901123,2.4936218262,2.262008667.2776794434,4.4779968262.8027038574,6.7090148926,1.2504882812,9.3959960938,1.507598877,18.591003418,4.0786132812,27.6350097656,7.0845031738l6.7109985352,2.483795166,1.6739807129.6246948242c.5280151367.2217102051,1.0559997559.4475097656,1.5719909668.6985168457,1.0340270996.4978027344,2.0480041504,1.0453796387,3.0250244141,1.6578979492,1.9530029297,1.2255859375,3.7819824219,2.6659851074,5.4349975586,4.2985839844,1.6879882812,1.6310119629,3.0729980469,3.4320983887,4.508972168,5.4092102051,1.2109985352,1.4269104004,2.5840148926.4631958008,1.6530151367-1.1606140137h0Z" fill="#1d1d1b"/>
  <path d="M337.9245889018,131.4577615092c-1.7450256348-4.0982055664-4.7390441895-7.6553039551-8.2790222168-10.395904541-3.5480041504-2.7590026855-7.5959777832-4.7895812988-11.7890014648-6.2951660156-1.0230102539-.3051147461-2.0539855957-.5718078613-3.0879821777-.8187255859-5.3900146484-1.2387084961-10.891998291-1.7795715332-16.450012207-1.4917907715-1.3909912109.0800476074-2.7860107422.2015991211-4.1930236816.4285888672-1.4209594727.2684936523-2.866973877.559753418-4.2369689941,1.0412597656-2.7610168457.9111022949-5.3519897461,2.2438354492-7.7140197754,3.8708496094-.8619995117.6802062988-1.7909851074,1.2893981934-2.592010498,2.0375976562-6.6479797363,6.383605957-10.3209838867,14.9916992188-11.4329833984,23.5844116211-.0019836426.8599853516,1.6560058594,1.1184997559,1.9860229492.3696899414,1.9989624023-8.0310974121,6.4149780273-15.4321899414,12.7069702148-20.1631164551.6820068359-.6453857422,1.4720153809-1.1460876465,2.1979980469-1.7314758301,1.9940185547-1.3692016602,4.149017334-2.4710083008,6.4070129395-3.217010498,1.1270141602-.4005126953,2.2799987793-.6220092773,3.4530029297-.8526916504,1.2030029297-.1953125,2.4460144043-.3040161133,3.691986084-.3757019043,5.0040283203-.2633056641,10.1279907227.2353820801,15.0369873047,1.3678894043.9430236816.2254943848,1.8810424805.4678039551,2.8060302734.7442016602,3.9329833984.9104003906,7.7699890137,2.3052978516,11.2080078125,4.3845825195,3.4319763184,2.0694274902,6.4469909668,4.8829345703,8.4729919434,8.4136047363.5059814453.6130065918,2.0479736328-.0502929688,1.808013916-.9010925293h0Z" fill="#1d1d1b"/>
  <path d="M331.253568394,292.2935769389c3.75-9.5610046387,6.9120178223-19.3550109863,9.6809997559-29.2750244141,2.6929931641-9.941986084,4.7670288086-20.0589904785,6.358001709-30.2699890137l.7980041504-7.3800048828c2.433013916-25.6233825684.8039855957-51.6611022949-5.0059814453-76.754486084-.5830078125-2.4058227539-1.1270446777-4.8219909668-1.7440185547-7.2189025879l-1.5369873047-4.9352111816-.7680053711-2.4656066895-.3840026855-1.2322998047-.1920166016-.6159973145-.0959777832-.3079833984c-.0330200195-.1069030762-.1130065918-.3037109375-.1719970703-.4496154785-.5210266113-1.1954956055-1.0960083008-1.9199829102-1.7109985352-2.6994018555-.6180419922-.750793457-1.2690124512-1.4447937012-1.9980163574-2.0944824219-.7449951172-.6481018066-1.5029907227-1.2580871582-2.5700073242-1.7978210449-.6940002441-.3613891602-1.449005127-.5546875-2.199005127-.5765991211-.1879882812-.032989502-.3739929199.0210266113-.5610046387.0380249023-.184967041.0301818848-.3759765625.0391845703-.5389709473.1403808594-.3340148926.1754150391-.690032959.2882995605-.9990234375.5043945312l-1.2339782715,1.0081176758c-.3380126953.2844848633-.6889953613.5542907715-1.0160217285.8507995605l-1.9549865723,1.7850036621-1.8670043945,1.8713989258-1.7739868164,1.9555053711c-2.3040161133,2.658782959-4.3600158691,5.5192871094-6.141998291,8.5330810547-3.5639953613,6.0259094238-6.0350036621,12.6751098633-7.1730041504,19.5357971191-.2050170898,2.025604248,1.458984375,2.2437133789,1.9840087891.3778076172,1.4139709473-6.5417785645,4.0909729004-12.7728881836,7.7439880371-18.3175048828,1.8269958496-2.7729797363,3.8989868164-5.3764953613,6.1829833984-7.7664794922l1.7510070801-1.7518005371,1.8299865723-1.6640014648,1.9030151367-1.5743103027c.3170166016-.2612915039.6560058594-.4953918457.983001709-.7444152832l.4939880371-.3682861328.2130126953-.1578063965.0700073242-.045501709c.1379699707-.1125793457.3319702148-.0386962891.4389648438.0516052246.4440307617.2539978027,1.0250244141.7243041992,1.5340270996,1.2258911133.5209960938.5110168457,1.0119934082,1.0901184082,1.4479980469,1.6769104004.4240112305.5661010742.8399963379,1.2528076172.966003418,1.6373901367l2.5100097656,9.649017334c.6039733887,2.3469848633,1.1359863281,4.7127075195,1.7070007324,7.0679931641,5.6869812012,24.5674133301,7.282989502,50.0440063477,4.8999633789,75.158416748l-.7809753418,7.2340087891c-1.0729980469,10.0719604492-2.6260070801,20.116973877-4.8059997559,30.0509643555-2.2550048828,9.9110107422-4.9110107422,19.757019043-8.1709899902,29.423034668-.4870300293,1.9189758301,1.083984375,2.5069580078,1.8989868164.6879882812h0Z" fill="#1d1d1b"/>
  <g clip-path="url(#clippath-6)">
    <path d="M136.0516640971,157.662564976c-.1772003174-2.5640869141-.6430053711-5.0535888672-1.2158966064-7.5180053711-.5770874023-2.4642028809-1.278793335-4.9002990723-2.0986022949-7.3135986328l-.7713928223-1.6521911621c-1.3825073242-2.846496582-2.9331054688-5.6282958984-4.7772979736-8.2916870117-.9598999023-1.3157043457-1.9270019531-2.6299133301-3.1060028076-3.8487243652-1.1728973389-1.2156982422-2.4262084961-2.4124755859-4.0532073975-3.3623046875-.2843933105-.200592041-.6387023926-.3503723145-.9694061279-.5148925781-.3458862305-.1509094238-.6485900879-.3421936035-1.0336914062-.4502868652-1.5321960449-.4721984863-3.3580932617-.4859008789-4.9494018555.0018005371-1.6528930664.4562072754-2.8599853516,1.5096740723-3.8907012939,2.509979248-1.9191894531,2.1457214355-3.0107879639,4.5368041992-3.8657226562,6.9232177734-.0670471191.5158081055,1.465927124,1.1965026855,1.8258361816.8631896973,1.2199859619-2.046081543,2.7077941895-3.9512939453,4.3827972412-5.1730041504.8577880859-.5228881836,1.7033843994-.9855957031,2.5023956299-.9769897461.7935943604-.0264892578,1.5190124512.1143188477,2.2788085938.5480957031.1885986328.0353088379.3843841553.1790161133.5782928467.2578125.1941070557.0994873047.3926849365.1632995605.5867919922.3096008301,2.0720977783,1.2431945801,3.9685974121,3.4693908691,5.6178131104,5.7808837891,1.6390838623,2.3676147461,3.0811920166,4.94140625,4.3694000244,7.5960998535l.7210998535,1.5444946289c1.2053985596,2.0604248047,2.3221893311,4.1923217773,3.3286895752,6.3768005371,1.00340271,2.1836242676,1.9122009277,4.4272155762,2.5451965332,6.7097167969.2462158203.4170837402,1.9094085693.1994018555,1.9942016602-.3200073242h0Z" fill="#1d1d1b"/>
    <path d="M109.9361703227,268.4475686381c-2.662399292-14.0530090332-4.6499176025-28.216003418-6.0089416504-42.4110107422l-.6360931396-5.0799865723c-1.0415496826-8.8129882812-1.8397521973-17.6539001465-2.3374328613-26.5050964355-.4596557617-8.8565063477-.7271575928-17.7126159668-.1962585449-26.4635925293.1278839111-1.6782226562.2411346436-3.3597106934.4161224365-5.0299072266.5083312988-6.9862976074,1.5077209473-13.9736022949,3.7241668701-20.5921936035,1.0205383301-3.3445129395,2.4930419922-6.5101013184,4.1064300537-9.603302002.9131164551-1.4794006348,1.7235107422-3.0414123535,2.7929992676-4.4232177734.5173950195-.7023925781.9933013916-1.4423828125,1.5464172363-2.1188964844l1.7044830322-1.9978942871c.7857055664-1.1130065918-.3721923828-2.3276977539-1.4593963623-1.3959960938l-1.9250030518,1.9642028809c-.6277923584.6684875488-1.178894043,1.4028015137-1.7730865479,2.1036987305-1.224105835,1.380279541-2.187713623,2.9469909668-3.258605957,4.4480895996-1.9235076904,3.1263122559-3.7107086182,6.3771972656-5.0288696289,9.813293457-2.8189239502,6.8189086914-4.3702697754,14.0577087402-5.4036102295,21.2935180664-.1822662354,1.7417907715-.3004608154,3.4855041504-.4323577881,5.2278747559-.5487976074,9.0731201172-.2700042725,18.0879211426.1941223145,27.0491027832.5042266846,8.9689025879,1.3119659424,17.912322998,2.3650817871,26.8223266602l.6429748535,5.134979248c2.3639221191,14.2179870605,5.3505401611,28.3090209961,8.9969482422,42.2100219727.4689178467,1.3199768066,2.1027984619.941986084,1.969909668-.4460144043h0Z" fill="#1d1d1b"/>
  </g>
  <path d="M176.4674660991,141.7965676616c-.4906005859-2.0105895996-1.1629943848-3.9696044922-1.9337005615-5.8894042969-.7650909424-1.9238891602-1.6519012451-3.800201416-2.6465911865-5.6239013672-1.975112915-3.6589050293-4.341796875-7.1271972656-7.2628173828-10.296295166l-1.1494903564-1.0479125977-1.216293335-1.0009765625c-4.399307251-3.4403686523-9.7951049805-5.2741699219-15.1405029297-5.7947387695-2.6822052002-.2734680176-5.3739013672-.2398071289-8.0265960693.063293457-.6653137207.0617675781-1.3231048584.1739196777-1.983505249.2684020996l-1.8844909668.3199157715c-1.2528076172.2192077637-2.511505127.4584655762-3.7703094482.7249755859-.9679107666.2041320801-1.9369049072.4211730957-2.9039001465.6665039062-3.9718017578,1.2521972656-7.9167022705,2.8349304199-11.5070953369,5.1129455566-.4568939209.3056945801-.8617095947.5492858887-1.3567047119.9053955078-.462600708.3426818848-.8726043701.6829833984-1.2756958008,1.033996582-.8032073975.6994018555-1.5547943115,1.4323120117-2.2772064209,2.1976928711-1.4329986572,1.5360107422-2.7566986084,3.2009887695-3.7584075928,5.1199951172-.276184082.8297119141,1.2453155518,1.5456237793,1.7407073975,1.024017334,1.061706543-1.537689209,2.4412994385-2.9035949707,3.916595459-4.1344909668.7410125732-.6126098633,1.5116119385-1.1968078613,2.2991027832-1.7266235352.8005981445-.5604858398,1.5171966553-.9245910645,2.412902832-1.3500976562,3.4503936768-1.6326904297,7.2001953125-2.6303100586,11.0160980225-3.3314819336.8993988037-.228515625,1.8101043701-.4325256348,2.7261047363-.6256103516,1.19090271-.2521972656,2.3925018311-.4808959961,3.6062927246-.6932067871l1.8185119629-.308807373c.5790863037-.0811767578,1.1559906006-.1821899414,1.7380981445-.2346801758,2.3225860596-.266418457,4.6661987305-.2928161621,6.9671936035-.0574035645,4.5986022949.4469909668,9.0472106934,2.0071105957,12.5643005371,4.7598876953l1.0139007568.8341064453.9849090576.8982849121c2.8630065918,2.4196166992,5.4732971191,5.3484191895,7.7260894775,8.5239257812,1.1384124756,1.5838928223,2.1884918213,3.2395935059,3.1300048828,4.9559936523.9476013184,1.7127990723,1.8115997314,3.4812927246,2.5062866211,5.3137817383.3968200684.6635131836,2.0114135742.2085266113,1.9262084961-.6074829102h0Z" fill="#1d1d1b"/>
  <path d="M122.0769784282,425.5735757182c-5.3085174561-16.2610321045-9.1374053955-32.9530029297-11.4966125488-49.8060150146-.341796875-2.0079650879-.7368927002-4.0079803467-.9743041992-6.0319824219l-1.063583374-7.875c-.3525085449-2.6259918213-.5328063965-5.2710113525-.8081970215-7.9049987793l-.379699707-3.9560089111c-.1254119873-1.3180084229-.1647186279-2.6439971924-.2513122559-3.9649963379l-.4539031982-7.9340057373-.1474914551-7.9459991455c-.0135040283-1.3239898682-.0746002197-2.6490020752-.0493011475-3.9730072021l.079498291-3.9729919434c.075302124-2.6470031738.0550994873-5.2989959717.2080078125-7.9430084229l.4648895264-7.9329833984c.0836029053-2.0369873047.3264007568-4.0610046387.5153045654-6.0889892578,1.0778961182-16.9830322266,3.633392334-33.9170227051,7.6968994141-50.5330200195.2515869141-1.6450195312-1.3603057861-2.108001709-1.946105957-.5400085449-5.0537109375,16.4690246582-8.6356964111,33.4300231934-10.7296295166,50.6140136719-.1921539307,2.0629882812-.4378051758,4.1219787598-.5238647461,6.1930236816l-.4727783203,8.0699615479c-.154876709,2.6900177002-.1360015869,5.3860015869-.2120513916,8.0790100098l-.0801239014,4.0410003662c-.0254364014,1.3470001221.0357818604,2.6940002441.0495300293,4.0410003662l.1507873535,8.0809936523.4608612061,8.0700073242c.0881500244,1.3439941406.1289825439,2.6920013428.2562103271,4.032989502l.3854827881,4.0230102539c.2795257568,2.6790161133.4645996094,5.3690032959.8225097656,8.0399932861l1.0817108154,8.0099945068c.2424621582,2.0590209961.6431121826,4.0940093994.9907531738,6.1360015869,3.387512207,16.9760131836,8.2421112061,33.6180267334,14.5268096924,49.6580352783.7028045654,1.5189819336,2.275100708.9359741211,1.8997039795-.6860198975h0Z" fill="#1d1d1b"/>
  <path d="M324.4815652201,419.6275765727c2.891998291-16.1269989014,5.1300048828-32.3920135498,6.7080078125-48.7410125732.1289978027-1.9609832764.282989502-3.9209747314.3659973145-5.8850097656.5889892578-10.2089691162.841003418-20.4329833984.9450073242-30.6569824219-.0039978027-10.2239990234-.1570129395-20.450012207-.6470031738-30.6640014648-.0629882812-1.9649963379-.1979980469-3.925994873-.3090209961-5.8890075684-1.41796875-16.3629760742-3.4969787598-32.6479797363-6.2329711914-48.8029785156-.3770141602-1.5480041504-2.0370178223-1.3099975586-2,.2789916992,1.742980957,16.2359924316,2.8219909668,32.5219726562,3.2409973145,48.8039855957.1099853516,1.9460144043.2439880371,3.8910217285.3070068359,5.8399963379.4849853516,10.1290130615.6369628906,20.2700195312.6409606934,30.4090118408-.1029663086,10.1389923096-.3529968262,20.2780151367-.9369812012,30.4019927979-.0820007324,1.9479980469-.2349853516,3.8910064697-.3639831543,5.8359985352-.5770263672,16.2780151367-1.8140258789,32.5530090332-3.716003418,48.7709960938-.0520019531,1.5880126953,1.6059875488,1.842010498,1.9979858398.2980194092h0Z" fill="#1d1d1b"/>
  <path d="M321.5335671733,420.7755715678l-2.9479980469,2.2149810791c-1.0280151367.6770324707-2.0820007324,1.3190155029-3.1189880371,1.9790039062l-1.5599975586.9830322266-1.6280212402.8769683838-3.2590026855,1.7390136719c-1.1059875488.5429992676-2.242980957,1.0300292969-3.3609924316,1.5469970703-1.1279907227.4979858398-2.225982666,1.0530090332-3.391998291,1.4710083008-2.3110046387.8739929199-4.5769958496,1.8429870605-6.9450073242,2.5659790039-9.3629760742,3.1510009766-19.050994873,5.3180236816-28.8229980469,6.8510131836-2.3199768066.4750061035-4.674987793.7770080566-7.0139770508,1.1610107422-12.1920166016,1.8719787598-24.5510253906,2.7209777832-36.9050140381,2.9270019531-12.3570098877.2059936523-24.7310028076-.3880004883-37.0001068115-1.7670288086-2.3633880615-.2339782715-4.7124023438-.5649719238-7.0614013672-.8949890137-9.8370819092-1.1480102539-19.6329956055-2.8219909668-29.1847991943-5.4049987793l-3.5588989258-1.0369873047-1.7814025879-.5190124512-1.7509918213-.5989990234-3.5063934326-1.1979675293-3.4346160889-1.3700256348-1.7182922363-.6889953613-1.6674957275-.7890014648c-1.1049041748-.5379638672-2.2421112061-1.0270080566-3.3246002197-1.6060180664l-3.2113037109-1.8079681396c-1.0762023926-.5970153809-2.041015625-1.3490142822-3.0707092285-2.0170135498-1.6365966797-.9600219727-2.7174835205.3249969482-1.2056884766,1.620010376,1.0310974121.7470092773,2.0121002197,1.5849761963,3.0912017822,2.2579803467l3.2329864502,2.0369873047c1.0911102295.6549987793,2.2300109863,1.2150268555,3.3451080322,1.8270263672l1.6829986572.8999938965,1.7273101807.7950134277,3.462890625,1.583984375,3.5307006836,1.4069824219,1.7676849365.7030029297,1.7931213379.6210021973,3.5902862549,1.2430114746c9.6330108643,3.125,19.5269165039,5.3249816895,29.4922943115,6.992980957,2.3961181641.3370056152,4.7923126221.6730041504,7.1984100342.9120178223,12.4987030029,1.4049987793,25.0717010498,2.0069885254,37.6347198486,1.7980041504,12.5599975586-.208984375,25.1259765625-1.0720214844,37.5749816895-2.9810180664,2.3890075684-.391998291,4.791015625-.7009887695,7.1669921875-1.1869812012,9.9030151367-2.0620117188,19.6980285645-4.766998291,29.1369934082-8.4750061035,2.3810119629-.8600158691,4.6720275879-1.9739990234,6.9930114746-2.9880065918,1.1690063477-.4859924316,2.2790222168-1.1149902344,3.4130249023-1.6849975586,1.1239929199-.5889892578,2.2629699707-1.1449584961,3.3729553223-1.7609863281l3.2700195312-1.9580078125,1.6289978027-.9859924316,1.5630187988-1.095993042c1.0379638672-.7350311279,2.0879821777-1.450012207,3.1119995117-2.200012207l2.9360046387-2.4409942627c1.4400024414-1.3600158691.3089904785-2.6000061035-1.2870178223-1.5570068359h0Z" fill="#1d1d1b"/>
  <path d="M138.4201791118,408.5895669291c-2.1862030029-7.2919921875-4.1658172607-14.6470031738-4.9610137939-22.0039825439l-.4089813232-2.6150054932c-1.3125-9.0950164795-.4606170654-18.3480224609,1.1962890625-27.5970153809l.4801025391-2.6940002441,2.5456848145-22.7760009766c-.0389862061-.7589874268-1.6864013672-1.0719909668-1.9842987061-.3759918213l-5.4877929688,22.2969970703-.4816894531,2.7030181885c-1.6907196045,9.4179840088-2.6369171143,19.3509979248-1.220916748,29.1299743652.1464996338.933013916.2764129639,1.8699951172.4382019043,2.8000183105,1.8718109131,7.691986084,4.8648071289,14.8469848633,7.9934234619,21.841003418.417678833.6360015869,1.9853820801.0399780273,1.8909912109-.7090148926h0Z" fill="#1d1d1b"/>
  <path d="M305.5215737651,333.7565743754l-.1960144043-1.5179901123c-.0859985352-.6199951172-.2760009766-1.2300109863-.5599975586-1.7950134277-.5650024414-1.1309967041-1.5280151367-2.0699920654-2.6940002441-2.6139984131-.1469726562-.0649871826-.2919921875-.1340026855-.4449768066-.1850128174l-.2270202637-.0819854736-.0139770508-.0050048828-.2050170898-.0420074463-.0230102539-.0029754639-.0480041504-.007019043-.0949707031-.0130004883-.7590332031-.1060028076-1.5189819336-.2129974365-3.0379943848-.4259796143-6.0809936523-.8530273438c-2.0270080566-.2879943848-4.0549926758-.5799713135-6.091003418-.7789916992l-12.2130126953-1.3419799805-12.2449951172-1.0310211182c-1.9590148926-.1119995117-3.9179992676-.2070007324-5.8789978027-.2469940186-20.3899841309-.7320098877-40.7940063477-.5-61.1563110352.4559936523-1.9574890137.091003418-3.9158935547.1649932861-5.8711853027.2949981689-16.3125,1.4270019531-32.5718994141,3.2360076904-48.7417144775,5.7660217285-1.5571899414.3789825439-1.3115844727,2.0379943848.2611083984,2.0029754639,16.2083892822-1.533996582,32.4944915771-2.3479919434,48.7563018799-2.7769927979,1.9432983398-.1289978027,3.8894042969-.2019958496,5.8345947266-.2919921875,20.2351989746-.950012207,40.5061950684-1.1810150146,60.7362060547-.4540100098,1.9460144043.0390014648,3.8890075684.1329956055,5.8309936523.2449951172l12.1920166016.2819976807,12.1829833984.5920257568c2.0350036621.0749816895,4.0599975586.2409973145,6.0870056152.4049835205l6.0829772949.4770050049,3.0440368652.2399902344,1.5219726562.1190032959.7610168457.0599975586.0950012207.0070037842.0480041504.0039978027.0239868164.0020141602c-.0820007324-.0180206299.200012207.0410003662-.1809997559-.0390167236l.0090026855.0020141602.1350097656.0399932861c.0919799805.021987915.1779785156.0600128174.2679748535.0909881592.7019958496.2730102539,1.3210144043.7950134277,1.7120056152,1.4650115967.1950073242.3349914551.3380126953.7030029297.4179992676,1.0889892578l.2869873047,1.5019989014c.4190368652,1.5320129395,2.075012207,1.2670288086,1.9950256348-.3189849854h0Z" fill="#1d1d1b"/>
  <path d="M300.9455849955,409.1085793803c2.3869934082-6.8929901123,4.7129821777-13.8239898682,6.7070007324-20.9220428467l.5269775391-2.5909576416c1.7660217285-8.9909973145,2.8850097656-18.2409820557,2.6070251465-27.5370025635-.0010375977-.8930053711-.049041748-1.7850036621-.1140136719-2.6760101318-.9120178223-7.4230041504-2.6740112305-14.6639862061-5.0790100098-21.6029815674-.341003418-.6440124512-1.9550170898-.1880187988-1.9479980469.5309906006,1.4149780273,7.0869903564,2.1360168457,14.2509918213,2.033996582,21.3470001221.0630187988.8460083008.1090087891,1.691986084.1090087891,2.5409851074.2640075684,8.8240356445-.7950134277,17.6720123291-2.5159912109,26.4360351562l-.5140075684,2.5269622803c-.9859924316,7.1360168457-2.3380126953,14.2799987793-3.7619934082,21.4170227051-.016998291.7229766846,1.6000061035,1.1659851074,1.949005127.5299987793h0Z" fill="#1d1d1b"/>
  <g clip-path="url(#clippath-7)">
    <path d="M134.7698800395,403.8125588725l.93359375,3.2520141602.4668884277,1.6269989014c.0712127686.2449798584.1636199951.5890197754.3027191162.9160003662.1293792725.3259887695.2938842773.6369934082.4794769287.9350128174.7442169189,1.1929931641,1.9331207275,2.1180114746,3.3037109375,2.5469818115.1638031006.0490112305.3619995117.1029968262.5022125244.1350250244l.4143829346.0929870605.828918457.1849822998,1.6581878662.3699951172,6.6402130127,1.467010498,6.676574707,1.2909851074c8.9188232422,1.632019043,17.8947143555,3.0140075684,26.917098999,4.0059967041,2.166015625.1720123291,4.3273010254.4140319824,6.4971008301.5300140381,11.2716064453.8439788818,22.5756072998,1.1449890137,33.8746032715,1.1029968262,11.2990112305-.0689849854,22.6050109863-.504989624,33.8710021973-1.5419769287,2.1700134277-.1470184326,4.3299865723-.4260101318,6.4940185547-.6470184326,9.0109863281-1.1659851074,17.9669799805-2.7739868164,26.8289794922-4.7680206299l3.3180236816-.771987915,1.6579589844-.3859863281.8290405273-.1920166016c.3280029297-.0809783936.7269897461-.2020111084,1.0650024414-.3589782715,1.4019775391-.615020752,2.5269775391-1.774017334,3.1019897461-3.1550140381.1409912109-.3239898682.266998291-.7439880371.3299865723-1.0179748535l.200012207-.8220062256.3999938965-1.6439971924,3.2010192871-13.1530456543c.2939758301-1.7289428711-1.324005127-2.1709747314-1.949005127-.5319671631l-3.9190063477,12.9570159912-.4899902344,1.6199645996-.2450256348.8090057373c-.0809936523.2709960938-.1309814453.3890075684-.2220153809.5780029297-.333984375.6860198975-.9359741211,1.2170257568-1.617980957,1.4660186768-.1790161133.0689849854-.3259887695.1019744873-.5469970703.1450195312l-.8280029297.1449890137-1.6569824219.2900085449-3.3110351562.5799865723c-8.8379821777,1.4829864502-17.7399902344,2.5809631348-26.6779785156,3.2399749756-2.1340026855.2170257568-4.2610168457.4930114746-6.4039916992.6380004883-11.1140136719,1.0230102539-22.2870178223,1.4540252686-33.4559936523,1.5220031738-11.1700134277.041015625-22.3489990234-.2550048828-33.490020752-1.0899963379-2.1452941895-.1139678955-4.2799987793-.3539886475-6.4205932617-.5239715576-8.9593963623-.4880371094-17.8957977295-1.3640441895-26.8038024902-2.4920196533l-6.6740875244-.912979126-6.6472167969-1.0890350342-1.6622924805-.2760009766-.8314056396-.1379852295-.4156951904-.0690307617-.3191986084-.0649719238c-.7968139648-.1989898682-1.533706665-.6949768066-2.0260009766-1.3899993896-.1220092773-.1740112305-.2346038818-.3559875488-.3240966797-.5509796143-.0946044922-.1860046387-.1604003906-.3850250244-.262298584-.675994873l-.5556030273-1.5980224609-1.1111907959-3.1970062256c-.6909179688-1.6119995117-2.2895202637-1.1050109863-1.925201416.6109924316h0Z" fill="#1d1d1b"/>
    <path d="M196.503568394,140.7102639506l-.4649963379-3.359588623c-.016998291-.1258239746-.046005249-.3191223145-.0469970703-.3598022461l-.0039978027-.3692016602-.0150146484-.804107666c-.0289916992-.5339050293.0250091553-1.0704040527.0490112305-1.6032104492.1380004883-2.1318969727.56300354-4.2323913574,1.233001709-6.2373962402,1.3389892578-4.0092773438,3.6640014648-7.6502990723,6.675994873-10.4214782715.6820068359-.6982116699,1.3849945068-1.3804016113,2.1519927979-1.9790039062,3.8960113525-3.2200927734,8.9720001221-4.9266967773,14.0800018311-5.1003723145,5.0970153809-.1714782715,10.31199646,1.2767944336,14.358001709,4.1758117676l1.1459960938.8997497559c.3780212402.308013916.7310180664.6596984863,1.1000061035.9858093262,1.5830078125,1.3316955566,3.0699920654,2.854675293,4.4129943848,4.5174865723,1.3290100098,1.6743164062,2.5370025635,3.4641113281,3.6029968262,5.3444213867,2.0370178223,3.775177002,3.6420135498,7.951385498,3.7320098877,12.2362976074.1549987793.8182983398,1.8239898682,1.0066833496,2.0179901123.0778808594.4179992676-4.7913818359-.8269958496-9.4804077148-2.5889892578-13.8401794434-1.8639984131-4.3389282227-4.3639984131-8.4398193359-7.7570037842-11.9828796387-.4389953613-.3925476074-.8569946289-.8020629883-1.3159942627-1.177734375l-1.4060058594-1.1021728516c-5.1210021973-3.6573486328-11.3359985352-5.3176879883-17.4579925537-5.132019043-6.1070098877.2020568848-12.262008667,2.2536010742-17.074005127,6.214263916-.9349975586.7357788086-1.7920074463,1.5609741211-2.6179962158,2.4096374512-3.2490081787,3.7439880371-5.4324951172,8.25390625-6.4474029541,12.9562988281-.5070953369,2.3518981934-.7187957764,4.7572021484-.6100006104,7.1392822266.037689209.595703125.0469970703,1.1899108887.1416931152,1.7801208496l.1148071289.884185791.0610961914.4747924805.1156005859.4711914062.8307037354,3.2883300781c.3352966309.824798584,1.9815063477.5039978027,1.9824981689-.3864135742h0Z" fill="#1d1d1b"/>
  </g>
  <path d="M236.7955605815,137.7471597026c.5400085449-2.7822875977.1340026855-5.6261901855-.6809997559-8.2648925781-.833984375-2.6492004395-2.1029968262-5.154510498-3.7679748535-7.4570007324-.433013916-.5205993652-.9360046387-.9899902344-1.4030151367-1.4844055176-1.2949981689-1.2222900391-2.68699646-2.3819885254-4.3529968262-3.2596740723-.7880096436-.4873046875-1.7190093994-.806427002-2.6100006104-1.1596069336-.966003418-.2351074219-1.9109954834-.5314025879-2.9590148926-.5395202637-1.0259857178-.120513916-2.0529937744.0574951172-3.0589752197.2134094238l-1.4560241699.4295043945c-.4849853516.1452026367-.9069824219.3970031738-1.3609924316.5982055664-1.7479858398.8911743164-3.266998291,2.0874938965-4.4739990234,3.4609985352-.5070037842.5036010742-.9029846191,1.0723876953-1.3330078125,1.6223754883-1.5179901123,2.4849243164-2.4949951172,5.1531066895-2.9869995117,7.8892211914-.4839935303,2.7279968262-.5119934082,5.5570983887.2090148926,8.2417907715.2519836426.5065002441,1.8819885254.1055908203,1.9859924316-.366607666-.158996582-2.36328125.3349914551-4.7451782227,1.1879882812-6.9398803711.853012085-2.1971130371,2.115020752-4.2260131836,3.6290130615-5.858215332.3269958496-.4116821289.625-.858581543.9969940186-1.2132873535.8880004883-1.0265197754,1.9429931641-1.8099060059,3.0210113525-2.3640136719.2759857178-.1131896973.5379943848-.2951049805.8199920654-.3663024902.2799987793-.0767822266.5570068359-.1600036621.8340148926-.2501831055.5629882812-.0584106445,1.1229858398-.1983032227,1.6869812012-.1060180664.5570068359-.0245056152,1.1440124512.1930236816,1.7270050049.3083190918.578994751.2548828125,1.1760101318.4230957031,1.7440032959.7877807617,1.1640014648.598815918,2.2460021973,1.498626709,3.2619934082,2.4548034668.3699951172.399017334.7720031738.7618103027,1.1199951172,1.1848144531,1.683013916,1.5611877441,3.1670074463,3.4430847168,4.296005249,5.5160827637,1.1179962158,2.0698242188,1.9080047607,4.3633117676,1.9180145264,6.686920166.1399841309.4536743164,1.7900085449.7686767578,2.0059814453.2353820801h0Z" fill="#1d1d1b"/>
  <path d="M198.7505776713,283.1815774272c-.0820007324-1.399017334.049987793-2.7800292969.2289886475-4.1270141602.2490081787-1.3330078125.620010376-2.6210021973,1.1820068359-3.791015625,1.1329956055-2.3349609375,3.1020050049-4.0609741211,5.4349975586-4.7389831543.578994751-.1770019531,1.1790008545-.2879943848,1.7849884033-.3429870605.6230163574-.0670166016,1.404006958-.1060180664,2.0970153809-.1510314941,1.4280090332-.0829772949,2.8529968262-.1409912109,4.2779846191-.1699829102,2.8490142822-.0579833984,5.6940155029.0029907227,8.5450134277.1549987793,1.362991333.0110168457,2.7420043945.0490112305,4.0989990234.0950012207,1.737991333.0640258789,3.3519897461.2059936523,4.7119903564.6280212402.6630096436.2149963379,1.3190155029.483001709,1.7770233154.850982666.2630004883.1369934082.5049743652.3689880371.7479858398.6029968262.1210021973.1170043945.2509918213.2149963379.3690185547.342010498l.338973999.4159851074c.9080047607,1.1040039062,1.6630096436,2.4930114746,2.2160186768,3.9780273438.5369873047,1.4960021973.8999786377,3.0749816895,1.0749816895,4.6559753418.324005127,3.1540222168-.2059936523,6.4010009766-2.0350036621,7.9739990234-1.0449829102.9720153809-2.2789916992,1.6590270996-3.7179870605,2.1139831543-1.4379882812.4540405273-3.0709838867.666015625-4.7730102539.7920227051-1.3079986572.0980224609-2.675994873.1329956055-4.0559997559.175994873-1.4450073242.1000061035-2.9230041504.208984375-4.4059906006.3460083008-1.5390167236.1560058594-2.8780059814.3330078125-4.2700042725.4190063477-2.7730102539.1740112305-5.5870056152.1629943848-8.2389831543-.2890014648-1.3200073242-.2269897461-2.6060180664-.5679931641-3.717010498-1.1000061035-.2830047607-.1280212402-.5530090332-.2680053711-.7890014648-.4360046387l-.3710021973-.2379760742-.3179931641-.2730102539c-.2140197754-.1650085449-.2640075684-.2239990234-.3560028076-.3890075684-.1100006104-.2210083008-.2230072021-.5159912109-.3229980469-.824005127-.3970184326-1.2559814453-.6790008545-2.6719970703-.9260101318-4.0699768066-.2469940186-1.4070129395-.4540100098-2.8310241699-.6340026855-4.2590026855-.2579956055-1.091003418-1.9319915771-.983001709-2.0130004883.1659851074.0590209961,1.466003418.1450042725,2.9309997559.2749938965,4.4029846191.1350097656,1.4780273438.2880096436,2.9410095215.6330108643,4.4930114746.0909881592.3910217285.1970062256.7900085449.3699951172,1.2369995117.1840057373.5090026855.5700073242,1.0459899902.9100189209,1.3520202637l.4729919434.4749755859c.1649932861.141998291.3379974365.2680053711.5079956055.4020080566.3390045166.2789916992.6940002441.5069885254,1.0559997559.7139892578,1.4450073242.8510131836,2.9620056152,1.3760070801,4.4710083008,1.7760009766,3.0279846191.782989502,6.0579986572,1.041015625,9.0829925537,1.1140136719,1.512008667.0359802246,3.0680084229-.032989502,4.425994873-.0520019531,1.4160003662-.0090026855,2.8410186768.0069885254,4.2979888916.0310058594,1.4000091553-.0440063477,2.8130187988-.0780029297,4.279006958-.1870117188,1.8970031738-.1439819336,3.8820037842-.3769836426,5.9010162354-1.0060119629,2.0099945068-.6209716797,4.021987915-1.716003418,5.6199951172-3.216003418.2009887695-.1900024414.4020080566-.3619689941.5999908447-.5709838867l.5839996338-.716003418c.1849975586-.242980957.3950195312-.4810180664.5500183105-.7340087891l.4239807129-.7719726562c.1340026855-.2600097656.2870025635-.5190124512.3990020752-.7810058594l.2880096436-.791015625.2779998779-.7939758301.1799926758-.791015625c.4640045166-2.1109924316.533996582-4.191986084.31199646-6.2019958496-.4749908447-4.007019043-1.6779937744-7.9190063477-4.4209899902-11.324005127l-.5270080566-.6289978027c-.1889953613-.2040100098-.4100036621-.3930053711-.6149902344-.5889892578-.4119873047-.3910217285-.8340148926-.7730102539-1.3610076904-1.0899963379-.9940032959-.7230224609-2.0399932861-1.1400146484-3.0909881592-1.4820251465-2.1080169678-.6439819336-4.137008667-.7719726562-6.0039978027-.8499755859-1.4230194092-.0480041504-2.8230133057-.0859985352-4.2420043945-.0980224609-2.9550018311.0960083008-5.9179992676.2850036621-8.8640136719.5989990234-1.4729919434.1560058594-2.9409790039.342010498-4.4019775391.5540161133-.7490234375.1139831543-1.416015625.200012207-2.2270202637.3540039062-.8309936523.1510009766-1.6499938965.3789672852-2.4349975586.6950073242-1.5739898682.6229858398-3.016998291,1.5869750977-4.1750030518,2.7989807129-1.1599884033,1.2099914551-2.0419921875,2.6430053711-2.6209869385,4.1459960938-.5720062256,1.5090026855-.8710021973,3.0650024414-1.0209960938,4.6059875488-.0770111084,1.5420227051-.0810241699,3.075012207.1329956055,4.5680236816.2579956055,1.1619873047,1.9209899902.9240112305,2.0130004883-.1549987793h0Z" fill="#1d1d1b"/>
</svg>