<?xml version="1.0" encoding="UTF-8"?>
<svg id="Ebene_1" data-name="Ebene 1" xmlns="http://www.w3.org/2000/svg" xmlns:xlink="http://www.w3.org/1999/xlink" viewBox="0 0 566.9291338583 566.9291338583">
  <defs>
    <clipPath id="clippath">
      <rect x="88.4645669291" y="161.4645669291" width="388.0700073242" height="245.4479980469" fill="none"/>
    </clipPath>
    <clipPath id="clippath-1">
      <rect x="88.4645669291" y="161.4645669291" width="388.0700073242" height="245.4479980469" fill="none"/>
    </clipPath>
    <clipPath id="clippath-2">
      <rect x="88.4645669291" y="161.4645669291" width="388.0700073242" height="245.4479980469" fill="none"/>
    </clipPath>
  </defs>
  <path d="M413.0396096537,399.8465707133c-.5280151367-.3140106201.3079528809-5.7409973145.3079528809-6.0800018311,0-2.1380004883,11.1220092773-3.8710021973,24.8399963379-3.8710021973,13.7189941406,0,24.8400268555,1.733001709,24.8400268555,3.8710021973v6.0800018311" fill="#028a39"/>
  <path d="M463.7855813334,399.4115731547l.2789916992-4.4980010986.0350341797-.5620117188c.0179748535-.2789916992.0219726562-.5869903564-.0020141602-.8739929199-.065032959-.5859985352-.4520263672-1.0859985352-.9180297852-1.453994751-.2059936523-.1860046387-.5400085449-.3820037842-.7109985352-.4840087891-.1939697266-.1019897461-.3939819336-.2149963379-.5849609375-.300994873-.3860473633-.1820068359-.7670288086-.3390045166-1.1460266113-.4779968262-3.0270080566-1.0770111084-6.0290222168-1.6180114746-9.0550231934-2.1280059814l-2.1839904785-.1929931641c-7.5690002441-.5640106201-15.1130065918-.56300354-22.6819763184.004989624l-2.1840209961.1940002441c-3.0260009766.5110015869-6.0289916992,1.0550079346-9.0559997559,2.1410064697-.3789978027.1409912109-.7619934082.3020019531-1.1480102539.4839935303-.3840026855.2030029297-.7639770508.3659973145-1.2859802246.7929992676-.4559936523.3810119629-.841003418.8930053711-.8770141602,1.4900054932l-.0870056152,1.2910003662c-.0469970703.7550048828-.0889587402,1.5149993896-.1119995117,2.2830047607-.0119934082.783996582-.052947998,1.504989624.0780334473,2.4239959717.0179748535.0749969482.0869750977.2010040283.1519775391.2689971924.0780029297.0839996338.1199951172.0950012207.2630004883.1909942627.2590026855.1270141602.3999938965-.0139923096.4800415039-.157989502.0799560547-.1439971924.1789550781-.3450012207.3539428711-.3350067139.0860290527.0440063477.1270141602-.0439910889.1730041504-.06199646.0440063477-.0390014648.0660095215-.0330047607.0800170898-.1040039062-.0110168457-.5760040283.099029541-1.3569946289.2070007324-2.0650024414.1119995117-.7249908447.2450256348-1.453994751.382019043-2.1879882812l.1040039062-.5520019531.0520019531-.2760009766.0299987793-.1110076904c.0140075684-.1559906006.1599731445-.2579956055.2829589844-.3190002441.0690002441-.033996582.3900146484-.1699981689.6860351562-.2709960938.3089599609-.1000061035.6319885254-.1920013428.9699707031-.2709960938,2.731048584-.6150054932,5.716003418-.8020019531,8.6440124512-.9219970703l2.1070251465-.18800354c7.326965332-.550994873,14.7659606934-.5520019531,22.0929870605-.0050048828l2.1079711914.18699646c2.9280395508.1190032959,5.9129943848.3020019531,8.6499938965.9120025635.3380432129.0770111084.6650085449.1679992676.9730529785.2680053711.1599731445.0469970703.2939758301.1060028076.4419555664.158996582.1580200195.0760040283.1570129395.0550079346.2420043945.1000061035.1270141602.0589904785.2720336914.1559906006.3020019531.3079986572l.0350341797.2399902344.0339660645.5620117188.2799987793,4.4980010986c.1279907227.5799865723,1.3859863281.5799865723,1.5150146484,0h0Z" fill="#010101"/>
  <path d="M448.1755959819,398.8725716899c-8.4390258789.3699951172-16.8890380859.0999908447-25.2869873047-.8099975586-1.3440551758-.1450042725-2.5000305176,1.2539978027-2.5000305176,2.5,0,1.4729919434,1.1519775391,2.3539886475,2.5000305176,2.5,8.3979492188.9099884033,16.8479614258,1.1799926758,25.2869873047.8099975586,3.2049560547-.1410064697,3.2229614258-5.141998291,0-5h0Z" fill="#045638"/>
  <path d="M447.6405618022,164.0299660991c-4.8259887695-.3343505859-9.658996582-.5541992188-14.4959716797-.647277832-4.4970092773-.0865478516-9.4560241699.4336547852-13.8130187988,1.7731323242-3.0660095215.9427490234-1.7579956055,5.770690918,1.3299865723,4.8213500977,1.9200439453-.5903930664,3.8470458984-1.6350708008,5.842010498-1.6452026367,2.3779907227-.0120849609,4.7560119629.0107421875,7.1329956055.0606079102,4.6730041504.0979614258,9.342010498.3143920898,14.0039978027.6373901367,1.3480224609.0934448242,2.5-1.2158813477,2.5-2.5,0-1.4307861328-1.1479797363-2.4063110352-2.5-2.5h0Z" fill="#8bbe28"/>
  <path d="M141.346662266,283.2625710795c2.5863037109,5.5050048828,4.2990112305,11.2689819336,5.1379089355,17.2460021973-7.4312133789-.6119995117-15.0372924805,1.1839904785-21.4653015137,4.9869995117-.6734924316-1.5620117188-1.3470916748-3.125-2.0205993652-4.6870117188-.5886993408-1.3659973145-1.5466003418-2.3120117188-2.6883087158-2.9029846191-.3257904053-3.8090209961-.7919921875-7.4980163574-1.5772857666-11.4200134277.0270080566-.0010070801.0556945801-.0010070801.0825958252-.0019836426,7.6067962646-.1140136719,15.1907043457-1.2319946289,22.5309906006-3.2210083008h0ZM159.9843728373,261.3333718608c.7750091553-3.8170166016,2.4010009766-7.1140136719,6.6159973145-7.700012207,3.0649108887-.4199829102,6.3069152832.2210083008,9.3050079346.7860107422,3.6399078369.6740112305,7.2579956055,1.5599975586,10.9418945312,1.9909057617,3.5843048096.4090881348,7.2133026123.4541015625,10.8202972412.2431030273,3.7059936523-.2100219727,7.3789978027-.9070129395,11.0850067139-1.1060180664,5.0229949951-.7520751953,10.0679931641-1.3499755859,15.091003418-1.924987793,4.6360015869-.5419921875,9.4479827881-1.8030090332,14.1169891357-1.0071105957,5.0340118408.8410949707,7.8660125732,4.713104248,8.6069946289,9.5812988281.4320220947,2.8880004883.3660125732,5.8310241699.2770233154,8.740020752-.1110229492,3.4959716797-.0880126953,7.0039672852-.2100219727,10.5-.1219940186,3.8499755859-.3759918213,7.6889953613-.7409820557,11.5169677734-.3210144043,3.3300170898-.7089996338,6.8920288086.8179779053,9.9790039062.0390167236.0110168457.0790100098.0230102539.1180267334.033996582-.6710205078.3050231934-1.3100280762.7010192871-1.8930206299,1.1780090332-3.9329986572-.6189880371-7.8569793701-1.2590026855-11.8329772949-1.6319885254-4.7350006104-.4429931641-9.4920196533-.6860046387-14.25-.8630065918-17.2810211182-.6750183105-34.6623077393-.5419921875-51.7773284912,2.2680053711-1.7081756592.2820129395-3.4046936035.6029968262-5.0970916748.9380187988-.0288085938-.5230102539-.0716094971-1.0440063477-.1112060547-1.5660400391.8733062744-.16796875,1.7445068359-.3489990234,2.6194000244-.5009765625-3.2969818115-6.8259887695-5.1220855713-14.2830200195-5.7199859619-21.8280029297-.5200042725-6.549987793-.0880126953-13.1879882812,1.2169952393-19.6271972656h0ZM250.0085732768,302.2465798686c-.3160095215.0029907227-.6310119629.0299682617-.9459991455.0749816895.0830078125-.5149841309.8000030518-.5400085449.9459991455-.0749816895h0ZM410.1745583842,271.7335793803c-2.1239929199-5.3770141602-6.3829956055-10.466217041-12.125-12.0812988281-3.5289916992-.9959106445-7.3020019531-.8298950195-10.9309692383-.8079223633-3.8280334473.010925293-7.6450195312.0440063477-11.4620361328.199005127-6.1839904785.2438964844-12.9989929199.6199951172-18.4869689941,3.8062133789-6.1510314941,3.5619812012-7.8110046387,10.4329833984-9.1820068359,16.9269714355-1.5829772949,7.45703125-2.257019043,15.024017334-2.5010070801,22.6360168457,0,.032989502-.0220031738.0660095215-.0220031738.1000061035,5.4769897461,1.2059936523,10.7980041504,3.2969970703,15.9309997559,5.4649963379,4.3120117188,1.8309936523,8.541015625,3.858001709,12.6719970703,6.0729980469-1.9679870605-.6360015869-3.9979858398-.9270019531-6.0599975586-1.0079956055-3.2969665527-1.6300048828-6.6499633789-3.1549987793-10.0520019531-4.5450134277-3.7290039062-1.5269775391-7.5459899902-2.8540039062-11.3070068359-4.3039855957-.1770019531.233001709-.4649963379.3760070801-.8189697266.3099975586-7.0800170898-1.3719787598-14.2390136719-2.2790222168-21.4410095215-2.7879943848-12.6119995117-.8850097656-25.291015625-.608001709-37.9030151367.242980957-6.3399963379.4210205078-12.6679992676,1.0180053711-18.9849853516,1.616027832-4.0820007324.3889770508-8.1629943848.7439880371-12.2439880371,1.1029663086-1.199005127-1.4409790039-2.7350006104-2.2039794922-4.3440246582-2.3909912109-3.4969787598-13.2340087891-3.9469909668-27.0069885254-1.2249755859-40.4769897461.5309906006-2.6442871094.929977417-5.8422851562,2.3019866943-8.2092895508,1.3379974365-2.345916748,3.6060028076-2.1569213867,5.9300079346-1.6380004883,6.4720153809,1.4609985352,12.9880065918,2.7660827637,19.5710144043,3.6739807129,6.6709899902.9071044922,13.4199829102,1.3930969238,20.157989502,1.1390991211,6.7699890137-.2430725098,13.4969787598-1.1949768066,20.2019958496-2.134979248,3.2189941406-.4541015625,6.4270019531-.8959960938,9.6470031738-1.2610168457,2.9869995117-.3429870605,6.0520019531-.7859802246,9.0610046387-.4869995117,2.3119812012.2319946289,4.6129760742.8849182129,6.383972168,2.467010498,1.9580078125,1.7589111328,2.699005127,4.3368835449,3.0310058594,6.8701782227.6969909668,5.3220214844.8190002441,10.7870178223.6640014648,16.1860046387.1990356445-.9179992676.3980102539-1.8249816895.6189880371-2.7209777832.9080505371-3.7510070801,2.0800170898-7.5570068359,4.5700378418-10.5880126953,2.0909729004-2.533996582,4.9449768066-4.2371826172,7.9869689941-5.3663024902,2.2130126953-.8188781738,4.5480041504-1.3829040527,6.925994873-1.7588806152,1.0400390625-.1770019531,2.0800476074-.3099975586,3.1310424805-.4201049805-.1210327148-.1439208984-.2210388184-.3099975586-.2430419922-.5419921875-.2550048828-2.3460083008-.4979858398-4.6909179688-.8849487305-7.0260009766-1.3720397949-8.2970275879-5.0120544434-16.7389221191-13.6640014648-19.4489135742-3.983001709-1.2510070801-8.2090148926-1.3389892578-12.3470458984-1.361114502-4.7460021973-.0108947754-9.4920043945.0111083984-14.2379760742.0111083984-19.5270080566.0110168457-39.0540161133.220916748-58.5820007324.4640197754-19.5490112305.2549743652-39.0980224609.508972168-58.6470031738.4648742676-9.7360076904-.0328979492-19.4720153809-.1329956055-29.2082214355-.3540039062-9.1819763184-.1988830566-18.3650817871-.8848876953-27.5369873047-.9739685059-6.671005249-.0550231934-14.6591033936.6199951172-19.2949981689,6.063079834-2.7100067139,3.186920166-3.4739990234,7.4349975586-4.171005249,11.428894043-.7519989014,4.2810974121-1.4489898682,8.5851135254-2.4110107422,12.8221130371,1.228012085,0,2.478012085.0230102539,3.7060241699.1109924316.1183929443.0068054199.2360839844.0177001953.354385376.0256958008-3.3791046143.5545959473-6.7579956055,1.1092224121-10.1371002197,1.6636962891l-14.7312011719.0202026367c-2.3894958496-1.4804992676-5.3632965088-2.0029907227-8.1682891846-.9640808105-5.0537872314,1.8717041016-7.7249298096,6.5456848145-7.7598419189,11.7196960449-.4760742188,2.0069885254-.7082519531,4.0820007324-.8359985352,6.1219787598-.242980957,3.8060302734-.2879638672,7.6230163574-.3319702148,11.4280090332-.2770385742,27.0729980469,1.1736450195,53.658996582,17.9450073242,77.9759979248,1.2499847412,1.6480102539,2.5,3.2860107422,3.7399902344,4.9450073242,1.3710021973,1.8260040283,2.7210083008,3.5849914551,5.0440063477,4.171005249,2.0579986572.5199890137,4.2709960938.3880004883,6.3730010986.4099884033,2.2568969727.0220031738,4.5140075684.0440063477,6.7710113525.0770111084,9.1049957275.1109924316,18.1989746094.220993042,27.304977417.2989959717,18.4200134277.1770019531,36.8412017822.3099975586,55.2732086182.3320007324,18.5530090332.0220031738,37.1070098877-.0670013428,55.6600036621-.2880096436,18.4869995117-.220993042,36.9750061035-.5749969482,55.4620056152-1.1059875488,17.1260070801-.5090026855,31.4629821777-1.1399993896,48.5899963379-2.0140075684,1.6699829102.449005127,3.0009765625.449005127,4.149017334-.0659942627.5199584961-.0220031738,1.0399780273-.0449981689,1.5490112305-.0670013428.0999450684-.0550079346.2099609375-.0879974365.3319702148-.1100006104,8.0429992676-.8300018311,11.992980957-8.5859985352,14.6040039062-15.2900085449,2.9429931641-7.5449981689,5.6529846191-15.2119903564,8.1319885254-22.9239959717,4.5029907227-14.0279998779,8.208984375-28.4550170898,10.0010070801-43.1029968262.841003418-6.8810119629,1.083984375-14.1719970703-1.4940185547-20.7439880371h0Z" fill="#028a39"/>
  <path d="M210.169584019,272.7125832866c1.1799926758.0679931641,2.3569946289.1569824219,3.5359802246.2369995117-.0299987793,1.0739746094.141998291,2.1669921875.5010070801,3.1929931641-3.3949890137-1.2550048828-6.8179931641-2.5599975586-10.2760009766-3.733001709,2.0800018311.083984375,4.1600036621.1839904785,6.2390136719.3030090332h0ZM167.724775059,276.8535744975c-.0853881836-.7180175781-.1563110352-1.4390258789-.2098999023-2.1640014648.5479125977.1719970703,1.0899810791.358001709,1.6260070801.5629882812-.4923095703.5020141602-.9629058838,1.0379943848-1.4161071777,1.6010131836h0ZM226.6915871928,280.5385720561c1.424987793-.2799987793,2.8119812012-.6530151367,4.1609802246-1.1210021973.0200042725-.0039978027.0400085449-.0069885254.0600128174-.0110168457,1.2079925537-.225982666,2.1940002441-.6599731445,2.9799957275-1.2379760742.5859985352-.2770080566,1.1659851074-.5700073242,1.7369995117-.8850097656.9769897461.2399902344,2.1899871826.5299987793,3.3859863281.7869873047-.3819885254.3280029297-.7519836426.6540222168-1.0950012207.9410095215-1.5119934082,1.2619934082-2.7119750977,2.6189880371-3.6940002441,4.1449890137-2.5119781494-.8719787598-5.0239868164-1.7449951172-7.5349731445-2.617980957h0ZM363.4935586284,254.3651711772c-5.424987793-4.9464111328-15.6499938965-3.7348937988-22.458984375-4.1354064941-8.2659912109-.4862060547-16.5360107422-.908782959-24.808013916-1.2673034668-33.4209899902-1.4481811523-66.8869781494-1.8538818359-100.3329772949-1.2171020508-18.8760070801.3594055176-37.7430114746,1.0621032715-56.595199585,2.07421875-7.0214996338.3768920898-8.9338989258,8.49609375-5.679901123,12.6329956055-.5420074463,1.0579833984-.8854064941,2.2379760742-1.0000152588,3.4370117188-1.312789917,13.741973877,2.1809082031,27.5819702148,9.6952056885,39.1469726562,4.0249023438,6.1950073242,13.8013000488,3.8270263672,13.9760131836-3.7849731445.1124725342-4.9010314941-.1034088135-11.9760131836,3.6690826416-15.7340087891.4117126465-.4100036621.8675231934-.7310180664,1.342590332-1.0110168457,1.835723877,3.2310180664,3.6713256836,6.4610290527,5.507019043,9.6910095215,4.1041870117,7.2210083008,16.5401916504,2.4149780273,13.708190918-5.7789916992-.1519927979-.4390258789-.3139953613-.8720092773-.4779968262-1.3040161133,14.7770080566,5.0190124512,29.4840087891,10.2579956055,44.2250061035,15.3800048828,4.2890014648,1.4899902344,9.9809875488-2.5289916992,9.4940032959-7.2319946289-.2960205078-2.8529968262-1.2140045166-5.4570007324-2.6610107422-7.6040039062,1.3500061035-1.1159973145,2.5780181885-2.2990112305,3.6049957275-3.8110046387,2.4460144043-3.600982666,3.5800170898-8.2070007324,1.9860229492-12.3290100098,10.2639770508.467010498,20.549987793,1.9540100098,30.6829833984,3.1410217285,9.5700073242,1.1210021973,19.2049865723,2.0629882812,28.8529968262,1.7619934082,4.7200012207-.1480102539,9.425994873-.6289978027,14.0890197754-1.3760070801,2.4179992676-.3880004883,4.825958252-1.0979919434,7.2629699707-1.3349914551.3659973145-.0350036621.9240112305-.0780029297,1.3720092773-.1190185547-1.7689819336,6.8010253906,6.6269836426,13.9169921875,12.1860046387,7.5380249023,3.7680053711-4.3229980469,9.9620056152-4.7830200195,13.367980957-9.9540100098,3.4170532227-5.1860046387,3.9030151367-12.332611084-1.0079956055-16.8103942871h0Z" fill="#028a39"/>
  <g clip-path="url(#clippath)">
    <path d="M119.1803719828,376.1485726664c.0360107422,1.7350006104-.0426025391,9.3300018311.0102996826,11.0649871826.1688079834,5.4410095215.337310791,10.8830108643.5062103271,16.324005127.0089874268.2890014648.0251922607.6000061035.2018890381.828994751.2317047119.3000030518.6538085938.3590087891,1.0316009521.3940124512.8684082031.0820007324,1.7368927002.1629943848,2.6053009033.2439880371.467590332.0440063477.9678955078.0820007324,1.3787994385-.1459960938.504196167-.2789916992.7299041748-.8710021973.9170074463-1.4160003662,3.0481872559-8.879989624,4.9616088867-17.8889923096,6.8721923828-27.0719909668" fill="#f5f1e9"/>
    <path d="M131.8739754985,376.6385629008c-1.578994751,5.75-3.1741943359,11.4840087891-5.0586090088,17.0760040283l-.5589904785,2.0379943848c-.4986877441,1.762008667-1.021697998,3.5149993896-1.5879974365,5.2510070801l-.4324035645,1.2989959717-.2141113281.6350097656-.0860900879.2279968262.0036010742-.0080108643-.6929931641-.0629882812-1.6922149658-.1580047607-.0266876221-.8619995117-.1723937988-5.5590057373-.0663146973-2.1369934082c-.2555084229-2.9689941406-.608001709-5.9400024414-.783996582-8.9069976807l-.5668029785-8.9069976807c-.1289978027-.5720062256-1.386505127-.5470123291-1.5143890381.0319976807l-.5500946045,8.9519958496c-.1961212158,2.9869995117-.216217041,5.9640045166-.332901001,8.9459991455l.0662994385,2.137008667.1723937988,5.5589904785.021484375.6950073242.0164031982.5269927979c.0068054199.2319946289.0123138428.4649963379.040802002.6889953613.0935058594.8790130615.5821990967,1.6590118408,1.3357086182,2.0870056152.3667907715.2120056152.7888946533.341003418,1.2444915771.4029998779l1.0742034912.1069946289,1.3842926025.1300048828.7301025391.0659942627c.3844909668.0320129395.9083099365.029006958,1.3363037109-.0729980469.8963012695-.1899871826,1.666595459-.7859954834,2.1233978271-1.5849914551.1187133789-.2019958496.2151031494-.3990020752.3111114502-.6289978027l.1604919434-.4220123291.2303924561-.6819915771.44581604-1.3399963379c.583480835-1.7880096436,1.1206970215-3.5890045166,1.6315765381-5.3940124512l.5721130371-2.0859985352c1.1977996826-5.9109954834,2.0680084229-11.8309936523,2.9189910889-17.7359924316-.0081787109-.5899963379-1.2395935059-.8460083008-1.4829864502-.3090057373h0Z" fill="#010101"/>
  </g>
  <path d="M365.6315591166,375.0405709575c1.2530212402,8.5540008545,2.6580200195,16.8539886475,4.8410339355,25.266998291.1659851074.6409912109.343963623,1.300994873.7529907227,1.8209991455,1.0309753418,1.3090057373,3.0069885254,1.2180023193,4.6599731445,1.0039978027.4800109863-.06199646,1.0090332031-.1499938965,1.3130493164-.5260009766.2459716797-.3049926758.2809753418-.7239990234.3059997559-1.1150054932.4599914551-7.3099975586,1.0109558105-14.6289978027.5329589844-21.9549865723l-.3929748535-4.7590026855" fill="#f5f1e9"/>
  <path d="M376.9245583842,375.2635629008l.08203125,4.391998291c-.0029907227,1.4340057373-.0440063477,2.8890075684-.1140136719,4.3330078125-.1440124512,2.8930053711-.4110107422,5.7809906006-.7399902344,8.6730041504l-.1090087891,2.0859985352-.4040222168,6.5269927979-.2519836426.0299987793c-.5230102539.0590057373-1.0219726562.0950012207-1.4469604492.0709991455-.4300537109-.016998291-.7740478516-.1029968262-.9720458984-.1989898682-.1929931641-.1160125732-.2569580078-.1520080566-.3699951172-.3740081787-.1210021973-.2270050049-.2520141602-.7180023193-.3980102539-1.3059997559l-.4230041504-1.68800354-.7949829102-3.391998291-.4429931641-2.033996582c-1.5650024414-5.5979919434-2.8779907227-11.2989959717-4.0959777832-17.0319976807-.2100219727-.5410003662-1.4550476074-.3600006104-1.4990234375.220993042.4840087891,5.8560028076,1.0670166016,11.7220001221,1.9260253906,17.5870056152l.4529724121,2.0769958496.8119812012,3.467010498.433013916,1.7269897461c.1480102539.546005249.2720031738,1.2120056152.6719970703,2.0429992676.3880004883.8470001221,1.2139892578,1.6670074463,2.0750427246,2.0700073242.8629760742.4129943848,1.6979675293.5399932861,2.4369506836.5780029297.7480163574.0390014648,1.4240112305-.0200042725,2.0670166016-.091003418.191986084-.0240020752.9669799805-.0980072021,1.4639892578-.2929992676.5390014648-.1910095215,1.0159912109-.5140075684,1.3729858398-.9510040283.3930053711-.4850006104.6090087891-1.0879974365.6809997559-1.7310028076.0190124512-.1609954834.031036377-.3219909668.041015625-.4850006104l.016998291-.2729949951.0310058594-.4860076904.1239929199-1.9459991455.2370300293-3.9059906006.1109619141-2.1159973145c-.0419921875-2.9580078125-.143951416-5.9290008545-.3739624023-8.8930053711-.1170043945-1.4839935303-.2630310059-2.9570007324-.4500427246-4.4450073242l-.6399841309-4.3649902344c-.174987793-.5550079346-1.4279785156-.4510040283-1.5100097656.1239929199h0Z" fill="#010101"/>
  <polygon points="441.0095803569 392.5325600932 435.4055764506 392.5325600932 435.4055764506 222.316861851 441.0095803569 222.316861851 441.0095803569 392.5325600932 441.0095803569 392.5325600932" fill="#045638"/>
  <path d="M439.1945779155,224.0854775737c-.125.0056762695-.2430114746.0278930664-.3630065918.0486755371-.3909912109-.2541809082-.8450012207-.4044799805-1.3160095215-.383392334-1.3859863281.0621032715-2.4609985352,1.0982055664-2.5,2.5-.1439819336,5.145904541-.0979919434,10.2944030762.1360473633,15.436920166.0569458008,1.2502746582-1.0060424805,12.9920043945.2539672852,13.1612854004,1.1170043945.1499938965,5.25-14.787902832,5.5359802246-15.9404907227.3460388184-1.391204834.4340515137-2.8206176758.4820251465-4.2478027344.0909729004-2.6917114258.1809997559-5.3834228516.2709960938-8.0751953125.0439758301-1.3081970215-1.1809692383-2.5589904785-2.5-2.5h0Z" fill="#028a39"/>
  <path d="M434.7995583842,226.6629617045l-.8939819336,96.9886016846v68.8809967041h1.5c.1210327148-.1389923096-1.0490112305,1.217010498-.5540161133.6430053711v-.0009918213l-.001953125-.0010070801-.0030517578-.0039978027-.0479736328-.0559997559-.7630004883-.904006958v.0010070801c.3289794922.8909912109,1.3779907227,1.3439941406,2.2809753418,1.5240020752.615020752.1279907227,1.1870117188.1839904785,1.7660217285.2079925537.5800170898.0189971924,1.1530151367.0079956055,1.782989502-.0800018311.1700134277-.0249938965.2940063477-.0449981689.5220031738-.0970001221.2460327148-.0569915771.4849853516-.1389923096.7139892578-.2369995117.4380493164-.2089996338.8860168457-.5179901123,1.0440063477-.983001709l.1369934082-.2189941406.2270202637-.3639984131v-68.3110046387l-.8940124512-96.9886016846c-.1029968262-3.1280822754-1.1090087891-3.1280822754-1.2120056152,0l-.8939819336,96.9886016846v67.8809967041l.2269897461-.7929992676c-.0289916992.046005249-.0880126953.1399993896-.0719604492.1150054932l-.2250366211.0379943848c-.3720092773.0530090332-.8150024414.0670013428-1.2460021973.0520019531-.4320068359-.016998291-.8710021973-.0639953613-1.2469787598-.1429901123l-.041015625-.0100097656v-67.1399993896l-.8940124512-96.9886016846c-.1029968262-3.1280822754-1.1089782715-3.1280822754-1.2120056152,0h0Z" fill="#010101"/>
  <line x1="435.4055764506" y1="222.316861851" x2="441.0095803569" y2="222.316861851" fill="none" stroke="#1e1e1c" stroke-linecap="round" stroke-linejoin="round" stroke-width="2.5"/>
  <path d="M419.0476052592,246.2843606303l.7449951172-8.2510986328v-12.2532958984l-.7449951172-8.2510986328c-.0860290527-.2661132812-.924041748-.2661132812-1.0100097656,0l-.7450256348,8.2510986328v12.2532958984l.7450256348,8.2510986328c.0859680176.266204834.9239807129.266204834,1.0100097656,0h0Z" fill="#010101"/>
  <path d="M419.8095681498,248.490476353c0,.6900024414-.5669555664,1.2489929199-1.266998291,1.2489929199-.699005127,0-1.266998291-.5589904785-1.266998291-1.2489929199s.5679931641-1.2490234375,1.266998291-1.2490234375c.7000427246,0,1.266998291.5590209961,1.266998291,1.2490234375h0Z" fill="none" stroke="#1e1e1c" stroke-linecap="round" stroke-linejoin="round" stroke-width="2.5"/>
  <path d="M461.8995950053,393.446561558c-.1420288086.1820068359-.308013916.3470001221-.5230102539.4710083008-1.6950073242.9759979248-3.5029907227,1.0520019531-5.3980102539,1.2420043945-2.0540161133.2059936523-4.1079711914.3579864502-6.1699829102.4469909668-3.9849853516.1719970703-7.9820251465.2890014648-11.9710388184.2799987793-4.1469726562-.0090026855-8.2959899902-.0989990234-12.4389953613-.2929992676-1.9360046387-.091003418-3.8689880371-.2099914551-5.8039855957-.3139953613-1.8269958496-.0989990234-3.5639953613-.2550048828-5.2130126953-1.1130065918-.1799926758-.0939941406-.3249816895-.2050018311-.4530029297-.3239898682-.5419921875.4829864502-.8889465332,1.1779937744-.8889465332,1.9609985352v5.9250030518h50.3349609375v-5.9250030518c0-1.0380096436-.6040039062-1.9260101318-1.4749755859-2.3570098877h0Z" fill="#045638"/>
  <path d="M121.9732644389,260.4578835795c1.8399047852.0249938965,3.7250061035-.024017334,5.6159057617-.0260009766.1739959717.1629943848.4891052246.1729736328.6730194092.0049743652,2.9690856934.0160217285,5.9389801025.1750183105,8.7540893555.9510192871,2.3498840332.6477050781,4.4769897461,1.8336791992,6.0419921875,3.7316894531,1.6128997803,1.9559936523,2.6119995117,4.3959960938,3.5130157471,6.7390136719,1.9230041504,5,3.1898803711,10.2339782715,4.0829925537,15.508972168,1.0028991699,5.9260253906,1.5308990479,11.9180297852,2.0458984375,17.9030151367-2.5209960938.6190185547-5.0319061279,1.2769775391-7.5249023438,2.0150146484-8.1529998779,2.4169921875-16.2230072021,5.3519897461-23.8721008301,9.0939788818-.0390014648-2.5299987793-.0928955078-5.0590057373-.1940002441-7.5869903564-.3338928223-8.3829956055-1.150894165-16.7470092773-2.9438934326-24.9519958496-.8950042725-4.0960083008-2.0040130615-8.1450195312-3.2700042725-12.141998291-.9149932861-2.8880004883-1.904006958-5.8590087891-3.7180023193-8.325012207-1.016998291-1.3819885254-2.2940063477-2.5246887207-3.7770080566-3.2756958008,4.8560028076.1279907227,9.7110137939.2940063477,14.5729980469.3600158691" fill="#8bbe28"/>
  <path d="M197.2405679057,258.0466592143c10.8350067139-.712097168,21.7720031738-2.9772033691,32.4840087891-4.0644836426,5.5270080566-.9192199707,12.6679992676-.1564025879,14.5250091553,6.0968933105.9339752197,2.7015075684.9940032959,5.663482666.9799957275,8.5094909668-.1650085449,7.1470031738-.1820068359,14.2470092773-.7660064697,21.3550109863-.1899871826,2.5140075684-.4050140381,5.0870056152-.375,7.5959777832.0890045166,2.7630004883-.5220031738,4.9360351562-3.808013916,4.5-23.3699798584-2.766998291-47.2319793701-2.7869873047-70.5570831299.308013916-3.1596069336.4029846191-5.2909851074-1.5870056152-6.0587005615-4.5179748535-3.2485961914-10.8380126953-4.3162078857-22.1960144043-2.5603942871-33.5010375977.9104003906-7.3448791504,4.5970916748-10.3605957031,11.9850006104-9.0634765625,7.9267883301,1.4317016602,15.8491821289,3.1873779297,23.9631958008,2.786895752" fill="#8bbe28"/>
  <path d="M252.2555672953,303.945554478c-3.0169830322-11.7049865723-3.7250061035-24.2209777832-2.0160064697-36.1789855957.4340057373-3.0350036621,1.0230255127-6.0480041504,1.7600097656-9.0234069824.291015625-1.1730041504.5470123291-2.3970031738.9840087891-3.5269775391.6699981689-1.7330322266,1.7510070801-2.257019043,3.5749816895-1.9190063477,6.1540222168,1.1380004883,12.2090148926,2.6619873047,18.4070129395,3.600982666,5.9429931641.8999938965,11.9410095215,1.5150146484,17.9559936523,1.592010498,6.2440185547.0799865723,12.4600219727-.5109863281,18.6459960938-1.3129882812,6.1920166016-.8020019531,12.3619995117-1.7820129395,18.5780029297-2.3870239258,4.891998291-.475982666,11.5140075684-.9499816895,13.5059814453,4.7520141602,1.075012207,3.0794067383,1.0100097656,6.6654052734,1.1530151367,9.8873901367.157989502,3.5530090332.1750183105,7.1119995117.0530395508,10.666015625-.248046875,7.2269897461-1.1760559082,14.3729858398-2.399017334,21.4949951172-.0420227051.2479858398.0209655762.4609985352.141998291.625-23.9920043945-4.1040039062-48.5830078125-3.0380249023-72.6990356445-.5200195312-5.9059753418.6170043945-11.7719726562,1.4360351562-17.645980835,2.25" fill="#8bbe28"/>
  <path d="M386.2145974467,272.2855813334c1.1229858398-2.6480102539,2.4450073242-5.2579956055,4.0439758301-7.0800170898,1.5419921875-1.7559814453,9.1229858398-5.4716796875,10.9750366211-2.916015625-4.9940490723-6.8906860352-17.2220153809-3.3816833496-24.0780334473-2.8176879883-8.875.7290039062-18.8120117188.625-25.1790161133,7.9907226562-3.3899841309,3.9209899902-4.7779846191,9.1619873047-5.6959838867,14.2630004883-1.2369689941,6.8709716797-1.8070068359,13.8619995117-1.700012207,20.8429870605.0150146484.9570007324,17.3430175781,6.9209899902,19.2050476074,7.7389831543,3.3119812012,1.4540100098,6.5819702148,2.9920196533,9.8609619141,4.5190124512,4.5109863281,2.1000061035,4.9469909668,2.4620056152,4.8550109863-2.5950012207-.2090148926-11.5130004883,1.1999816895-23.1109924316,5.3569946289-33.9049987793.6859741211-1.782989502,1.4580078125-3.9240112305,2.3560180664-6.0409851074" fill="#8bbe28"/>
  <path d="M369.8706033061,258.8727700541c-1.050994873.1109924316-2.091003418.9314880371-3.1310424805,1.1084899902-.9509887695-.5090026855-1.8899841309,1.2727050781-2.3659973145.2217102051-.608001709-1.3280029297-.4989929199-7.399017334-.675994873-8.849029541-.9079589844-7.2349853516-6.2179870605-13.7399902344-13.1329650879-16.0859680176-4.1710510254-1.4049987793-8.6740112305-1.3829956055-13.0770263672-1.3280029297-59.0459899902.6310119629-118.0919952393,1.2619934082-177.1490936279,1.891998291-6.9250183105.0670166016-14.5811157227.4320068359-19.5381164551,5.2780151367-4.8008880615,4.701965332-5.6528930664,13.1303710938-8.650894165,19.1483764648-1.2279968262-.0879821777-2.658203125.1784973145-3.8872833252.1784973145.9629821777-4.2369995117,2.0392913818-9.8678894043,2.7912902832-14.1498718262.6969909668-3.9940185547,1.4609985352-8.2420043945,4.1709899902-11.4280090332,4.6360168457-5.4440002441,12.6240081787-6.1180114746,19.2950134277-6.0630187988,9.1719970703.0880126953,18.3539886475.774017334,27.5370025635.9730224609,9.7360839844.2219848633,19.4720916748.3209838867,29.2080993652.3549804688,19.5489807129.0440063477,39.0979919434-.2109985352,58.6470031738-.4649963379,19.5269775391-.2439880371,39.0539855957-.4539794922,58.5809936523-.4649963379,4.7469787598,0,9.492980957-.0220031738,14.2389831543-.0110168457,4.1380310059.0220336914,8.3640441895.1110229492,12.3470458984,1.3610229492,8.6519470215,2.7099914551,12.2919616699,11.1520080566,13.6640014648,19.449005127.3869628906,2.3349914551.6299438477,4.6799926758.8849487305,7.0260009766.0220031738.2319946289.1210021973.3979797363.2430419922.5419921875" fill="#8bbe28"/>
  <path d="M245.1645791362,274.9725625346c-.0659942627,9.365020752-.4430084229,18.7340087891.8619995117,28.008026123-26.3560180664-4.4970092773-53.4150085449-4.8450012207-79.87840271-1.0260009766l-.0790100098.4489746094c-1.112991333-7.7539978027-1.4440002441-15.6199951172-.9840087891-23.4389953613.1062011719-1.8219909668.4293212891-3.9450073242,2.3420257568-4.5870056152.8814849854-.2949829102,1.8572845459-.1279907227,2.6775970459.3099975586,1.8740844727,1,2.7923126221,2.8940124512,4.088394165,4.4450073242,8.1828918457,9.7950134277,29.0773925781,8.3439941406,42.5634002686,6.4880065918,1.345993042-.1849975586,1.5360107422-2.0520019531.2590026855-2.5150146484-1.9900054932-.7200012207-3.9810028076-1.4410095215-5.9700012207-2.1609802246-.4489898682-.1630249023-.953994751-.3800048828-1.0989990234-.8350219727-.2819976807-.8800048828.9459991455-1.4179992676,1.8639984131-1.5199890137,10.7850036621-1.2059936523,17.6300048828-2.4110107422,28.4149932861-3.6170043945h4.9390106201Z" fill="#068a38"/>
  <path d="M352.7635781596,293.0315530131c-.4200134277-.3719787598-.1390075684-.1029663086,0,0h0Z" fill="#068a38"/>
  <path d="M379.2605569194,300.4205605815c.1770019531,1.2749938965-1.2489624023,2.2980041504-2.533996582,2.2359924316-.9689941406-.0459899902-9.9459838867-3.8289794922-13.4359741211-4.8930053711-2.6600341797-.8109741211-12.9939880371-3.5949707031-13.8809814453-3.9739990234-2.217010498-.9489746094-1.974029541-4.7619628906-2.3550415039-6.4169921875-.1879577637-.8129882812-.2300109863-1.6209716797-.1809997559-2.4190063477-.2770080566-.0219726562-.5530090332-.0059814453-.7979736328.0740356445-.224029541.0719909668-.440032959.1789550781-.6459960938.3019714355.0299682617-1.699005127.0379638672-3.3970031738.0189819336-5.0959777832-.0140075684-1.3030090332-.0780029297-2.7080078125-.8829956055-3.733001709-1.4899902344-1.8960266113-4.4319763184-1.3970031738-6.7610168457-.7710266113-16.6049804688,4.4590148926-34.0019836426,5.9540100098-51.1259765625,4.4060058594-.6979980469-.0629882812-.9260253906.916015625-.274017334,1.1719970703,1.6470031738.6459960938,3.3380126953,1.1820068359,5.0559997559,1.6020202637,1.0180053711.2489929199.9219970703,1.7149963379-.1159973145,1.8599853516-13.9540100098,1.949005127-29.7609863281-1.6730041504-41.5859832764-8.8259887695-2.8860015869,5.9859924316-3.4080047607,18.6329956055,1.0339813232,24.5229797363.4779968262.6329956055,1.0240020752,1.125,1.6159973145,1.5140380859.5620117188,3.174987793,2.925994873,5.9409790039,7.1080322266,5.8709716797,24.975982666-.4169921875,49.9509887695-.833984375,74.9269714355-1.2509765625,3.4649963379-.058013916,5.6809997559-2.0350341797,6.6600036621-4.533996582,0,0,.0010070801,0,.0010070801-.0010375977.54296875.0850219727,1.1459960938.1540222168,1.6959838867.0840148926.5859985352.2109985352,1.2050170898.3070068359,1.8179931641.2680053711-.0220031738.091003418-.0379943848.1510009766-.0379943848.1510009766,0,0,6.9899902344,1.1559753418,9.0960083008,1.8259887695,5.675994873,1.8070068359,8.9450073242,3.3760070801,14.0530090332,6.441986084,2.7939758301,1.6760253906,7.9539794922,3.4350280762,10.366973877,5.6250152588,1.2350158691-5.2400054932,1.6289978027-10.6769866943,1.1640014648-16.0410003662h0Z" fill="#068a38"/>
  <path d="M139.8485696147,299.6415688823c2.4700012207-.5629882812,5.0790100098-1.199005127,6.8760070801-2.9850158691,2.6549987793-2.6380004883,2.6940002441-6.8460083008,2.5599975586-10.5859985352,1.6889953613,1.7680053711,2.2899932861,4.2820129395,2.824005127,6.6680297852.758895874,3.384979248,1.5168914795,6.7699890137,2.2749938965,10.1549682617.1139984131.507019043.2239990234,1.058013916.0089111328,1.5310058594-.2989196777.658996582-1.0889129639.9060058594-1.7880096436,1.0889892578-9.6180114746,2.5210266113-18.8778991699,6.4040222168-27.4179077148,11.4960174561-2.2819976807,1.3610076904-4.7140045166,2.9420013428-7.4119873047,2.7490081787-.345993042-4.3310089111-1.8450012207-13.9480285645,2.7730102539-16.5769958496,2.0759887695-1.183013916,5.941986084-.5930175781,8.3079833984-1.0360107422,3.6839904785-.6909790039,7.3388977051-1.6719970703,10.9929962158-2.5039978027" fill="#068a38"/>
  <path d="M457.6405618022,163.9656045268l-38.8659667969,1c-1.141998291,0-2.1370239258.7781677246-2.4130249023,1.8864746094l-13.3860168457,52.9100952148c-.3889465332,1.5676879883.7970275879,2.0843811035,2.4120178223,2.0843811035l33.1979980469,2.5452270508,32.4420166016-1.5452270508c1.6149902344,0,2.8010253906-1.5166931152,2.4119873047-3.0843811035l-13.3869934082-53.9100952148c-.2749938965-1.1083068848-1.2700195312-1.8864746094-2.4120178223-1.8864746094h0Z" fill="#028a39"/>
  <path d="M457.0805642436,164.4258401225c-1.6709594727-.4839477539-3.3549804688-.9207763672-5.0530090332-1.3009643555-.1889953613-.0295410156-.3769836426-.0633544922-.5659790039-.0921630859-3.2699890137-.4993286133-6.5939941406-.7790527344-9.9250183105-.8569335938l-.0039978027.0001220703c-.2949829102.2196044922-.6649780273.3693847656-1.1179504395.3996582031-4.0190429688.2685546875-8.0800170898.0537719727-12.089050293.4800415039-.1390075684.0883789062-.2879943848.1677246094-.458984375.2244873047-1.0589904785.3522949219-2.1979980469.4066772461-3.3130187988.4454345703-.2290039062.0508422852-.4599914551.102355957-.7039794922.1596679688-1.0270080566.2411499023-2.058013916.4618530273-3.0439758301.8422241211-1.2260437012.4725952148-2.640045166,1.1195068359-4.0410461426,1.2982177734-.4389953613,2.8916625977-.7719726562,5.8051452637-2.2239990234,8.4176330566-.200958252.3634033203-.5029907227.6178894043-.8459777832.7737121582l-9.9240112305,39.1493835449c-.7769775391,3.1262207031,1.6889953613,6.1134033203,4.9060058594,5.9436035156l1.5880126953-5.1760864258,9.5449829102-34.3704223633c1.5050048828-6.2548828125,7.1010131836-10.6632995605,13.533996582-10.6632995605l25.0300292969.0418701172c-.6979980469-1.8389282227-1.1640319824-3.8125610352-1.2930297852-5.7161865234h0Z" fill="#8bbe28"/>
  <path d="M473.4395730326,219.762174351l-13.3869934082-53.9101257324c-.3539733887-1.6206665039-2.066986084-2.0694580078-3.5200195312-1.8579711914l9.9410095215,43.4702758789c1.2050170898,5.2682189941-2.4270019531,10.4172058105-7.7940063477,11.0501098633-12.8529663086,4.0101928711-39.6489868164,1.0382080078-54.3299865723-1.1851806641-1.2079772949,1.8269958496-2.7390136719,4.6312866211,1.0379943848,4.5172729492l33.1979980469,2.5452270508,32.4420166016-1.5452270508c1.6149902344,0,2.8010253906-1.5166931152,2.4119873047-3.0843811035h0Z" fill="#005538"/>
  <path d="M271.0365884135,292.7125832866l-97.0917205811,1.2539672852c-9.6447906494.125-9.6714935303,15.125,0,15l97.0917205811-1.2539672852c9.6449890137-.1240234375,9.6709899902-15.125,0-15h0Z" fill="#068a38"/>
  <path d="M125.5379617045,313.5225655864c-2.4390869141,1.1390075684-5.3459777832,3.3569946289-4.3259887695,5.8480072021,37.286895752-4.9130096436,75.0675964355-6.074005127,112.5856018066-3.4580078125,6.8879852295.4799957275,13.7759857178,1.0870056152,20.6809997559,1.0830078125,8.9869995117-.0060119629,17.9360046387-1.0470123291,26.8900146484-1.8209991455,31.891998291-2.7570037842,64.076965332-2.1230010986,95.8369750977,1.8889923096-12.9580078125-7.4579772949-28.9580078125-15.0310058594-44.2489624023-16.2239990234-4.6840209961-.365020752-21.0900268555-1.5799865723-25.7800292969-1.3000183105-17.7909851074,1.0630187988-28.1610107422,1.4300231934-45.8970031738,3.1800231934-10.0289916992.9889831543-11.1930084229,1.1860046387-20.8540039062-.4460144043-20.3809814453-3.4429931641-41.1889953613-2.7639770508-61.662689209-.5529785156-10.2419128418,1.1059875488-20.3819122314,2.8089904785-30.5859069824,4.1729736328-8.4799957275,1.1329956055-14.8059997559,3.9700317383-22.6390075684,7.6290130615" fill="#8bbe28"/>
  <path d="M165.0850808451,278.9645669291c.1062774658-1.8219909668.4292755127-3.9450073242,2.3415985107-4.5870056152.8814849854-.2949829102,1.8571929932-.1279907227,2.6775054932.3099975586,1.87449646,1,2.792678833,2.8930053711,4.0889892578,4.4450073242,8.2066955566,9.8239746094,29.1994018555,8.3349914551,42.6814117432,6.4720153809,1.3149871826-.1820068359,1.5-2.007019043.2509918213-2.4590148926-2.0270080566-.7340087891-4.0540161133-1.4680175781-6.0800018311-2.2009887695-.4489898682-.1630249023-.953994751-.3800048828-1.0989990234-.8350219727-.2819976807-.8800048828.9459991455-1.4179992676,1.8639984131-1.5199890137,10.7850036621-1.2059936523,17.6300048828-2.4110107422,28.4149932861-3.6170043945h4.8740081787c.0419921875-2.125.0810089111-4.2519836426.1300048828-6.3840026855.0140075684-2.8460083008-.0460205078-5.8079833984-.9799957275-8.5094909668-1.8570098877-6.2533874512-8.9980010986-7.0161132812-14.5250091553-6.0968933105-10.7120056152,1.0872802734-21.6490020752,3.3523864746-32.4840087891,4.0644836426l-.1879882812.0052185059c-8.1140136719.4005737305-16.0364074707-1.3551025391-23.9631958008-2.7868041992-7.3879089355-1.2972106934-11.0746002197,1.7185974121-11.9850006104,9.0634765625-1.7558135986,11.3050231934-.6881103516,22.6630249023,2.5603942871,33.5010375977.4006958008,1.5299682617,1.1810913086,2.7919921875,2.2774047852,3.6019897461-1.0041046143-7.4390258789-1.2979125977-14.9739990234-.8571014404-22.467010498h0Z" fill="#8bbe28"/>
  <g clip-path="url(#clippath-1)">
    <path d="M166.6646706889,301.8845803569c.8692016602.4299926758,1.8927001953.6119995117,3.058807373.4629821777,22.9440917969-3.0439758301,46.4080963135-3.0679931641,69.412109375-.4349975586-23.9960021973-3.4219970703-48.4730224609-3.4410095215-72.470916748-.0279846191h0Z" fill="#8bbe28"/>
    <path d="M415.9915749858,170.5530984233l1.1889953613-3.791595459c.0459899902-.1211242676.0709838867-.2504577637.1290283203-.3614501953.0799865723-.1003723145.1969909668-.164855957.309967041-.2211914062l.1849975586-.0833740234.2870178223-.1129760742c.1989746094-.0713195801.4010314941-.141998291.6119995117-.204284668.8359985352-.2576904297,1.7219848633-.4537353516,2.6089782715-.6299743652,1.7799987793-.3458557129,3.5930175781-.5952148438,5.4120178223-.7839660645,3.6409912109-.3744506836,7.3110046387-.5264587402,10.9709777832-.4814147949,3.6540222168.0379943848,7.2990112305.3389587402,10.9180297852.8238830566,1.8079833984.2460327148,3.6089782715.5509033203,5.3969726562.9020385742.8940124512.173034668,1.783996582.3677368164,2.6679992676.5709838867.7880249023.1811523438,2.1050109863.5125732422,1.9260253906.490020752l4.0789794922,16.3711853027,2.0450134277,7.6810913086,5.3200073242,19.9766845703,2.4849853516,9.332611084-.0620117188.0217895508c-.6539916992.2111206055-1.4719848633.3973999023-2.2659912109.5478210449-1.6099853516.3082885742-3.2879638672.5282897949-4.966003418.720489502-6.7439880371.7326049805-13.6079711914,1.0086975098-20.4509887695,1.1412963867-6.8500061035.1141967773-13.7109680176.048614502-20.5459899902-.2514953613-2.6280212402-.1174926758-5.2530212402-.269317627-7.8640136719-.4801025391-2.7279968262-.1750183105-5.4559936523-.4005126953-8.1109924316-.7806091309-.6610107422-.0973815918-1.3190002441-.2036743164-1.9540100098-.3322753906-.3209838867-.061920166-.6310119629-.1321105957-.9360046387-.2066040039l-.7129821777-.1956176758c-.0559692383-.0127868652-.2060241699-.0408935547-.1719970703-.1399841309l.0079956055-.0661010742c.0079956055-.041015625-.0110168457.0205993652.0450134277-.2124023438l.2390136719-1.0092163086,3.8239746094-16.1474914551,7.6560058594-32.2933044434c.4039916992-2.1058959961-.815032959-2.4166259766-1.4679870605-.3741760254l-8.7390441895,32.0176696777-4.3649902344,16.0099182129-.2730102539,1.0007019043-.2109985352.7925109863c-.0919799805.3135986328-.1640014648.6258850098-.1889953613.9270935059.0170288086.5210876465.2100219727,1.142578125.633026123,1.5516052246.4130249023.4233703613.9889831543.7130737305,1.5850219727.9694824219.375.137512207.5269470215.1962890625.7119750977.2509155273.1839904785.0559692383.375.1227722168.5550231934.1688842773.3639831543.1026000977.7249755859.1965942383,1.0809631348.2780151367.7139892578.1694946289,1.4180297852.3074951172,2.1210021973.4353942871,2.8070373535.4982910156,5.5870056152.8197937012,8.3710327148,1.0935058594,2.6690063477.2152709961,5.3339538574.3692932129,7.9979553223.4884643555,6.9299926758.3040161133,13.8529968262.369934082,20.7780151367.2547302246,6.9290161133-.1356201172,13.8479919434-.4095153809,20.8049926758-1.1643066406,1.7420043945-.2001037598,3.4830322266-.4258117676,5.257019043-.7648925781.8959960938-.1748046875,1.7649841309-.3567199707,2.7499694824-.6768188477.3720092773-.1593017578.75-.2481994629,1.1180114746-.4654846191.1810302734-.1010131836.3779907227-.187713623.5459899902-.3003234863.158996582-.1198730469.3150024414-.2454833984.4640197754-.3743896484.2440185547-.2906799316.507019043-.5950012207.5759887695-.988494873.1459960938-.1632995605.0870361328-.349609375.1409912109-.5234069824.050994873-.1656799316.007019043-.3764953613-.0189819336-.5791015625l-2.8179931641-10.6358032227-5.3160095215-19.9652709961-2.0440063477-7.6767272949-2.4559936523-8.6329040527-1.2270202637-4.3165283203-.6139526367-2.1583557129-.3420410156-1.2097473145c-.1669921875-.6770324707-.5229492188-1.2485656738-.8819885254-1.7860717773-1.9559631348-.512298584-2.4530029297-.5863647461-3.4739990234-.7979125977-.9269714355-.1803894043-1.8539733887-.3506164551-2.783996582-.4983215332-1.858001709-.3004760742-3.7220153809-.5516052246-5.592010498-.7421569824-3.7399902344-.373840332-7.5019836426-.5564880371-11.2579956055-.4691467285-3.7489624023.0803833008-7.4879760742.3613891602-11.2030029297.8704528809-1.8579711914.2565307617-3.7099914551.5739746094-5.5539855957.9971618652-.9230041504.2164611816-1.8409729004.4503479004-2.7660217285.7692260742-.2309875488.0770874023-.4639892578.1666259766-.6979980469.2601318359l-.3539733887.1537475586c-.1140136719.0579223633-.3059997559.1409606934-.4340209961.2261352539-.2900085449.1650390625-.5589904785.3662414551-.7539672852.6321411133-.1020202637.1321716309-.1350402832.2888793945-.190032959.4486083984-.0379943848.1608581543-.125.3116149902-.1069946289.4889221191l-1.0789794922,3.8014526367c-.4950256348,2.0780639648.7159729004,2.4431762695,1.4459838867.4190063477h0Z" fill="#010101"/>
  </g>
  <path d="M413.2426125834,394.5935647319l.7279663086.5359954834.3629760742.2670135498c.1710205078.0970001221.341003418.2929992676.5550231934.3349914551l1.0109863281.2649993896.8999938965.2200012207c1.200012207.2799987793,2.3999938965.5059967041,3.6030273438.7220001221,2.4049682617.4219970703,4.8159790039.7649993896,7.2309875488,1.0610046387l1.7409973145.0719909668c6.0360107422.2109985352,12.0539855957.2130126953,18.1030273438-.0649871826l1.7449645996-.0950012207c2.4190063477-.3310089111,4.8359985352-.7210083008,7.2449951172-1.2480010986,1.2050476074-.2660064697,2.4080200195-.5700073242,3.6100158691-.9700012207.6010131836-.2060089111,1.2009887695-.4290008545,1.8029785156-.7310028076.3020019531-.1580047607.6030273438-.3229980469.9070129395-.5540008545.282989502-.1959991455.6520080566-.5610046387.8250427246-.9730072021.0889587402-.3359985352-.2620239258-.5979919434-.5850219727-.6899871826-.3300170898-.0950012207-.6329956055-.103012085-.7490234375-.0180053711-.126953125.1940002441-.5960083008.4239959717-1.0950012207.5820007324-.5069885254.1609954834-1.0619812012.2769927979-1.6219787598.375-1.1279907227.1900024414-2.2940063477.3000030518-3.466003418.3730010986-2.3480224609.141998291-4.7220153809.1549987793-7.0969848633.1109924316l-1.7010192871.092010498c-5.9049987793.271987915-11.8630065918.2709960938-17.7850036621.0629882812l-1.7070007324-.0699920654c-2.3840026855.078994751-4.7680053711.1100006104-7.1440124512.0650024414-1.1860046387-.0260009766-2.3739929199-.0640106201-3.5480041504-.1520080566l-1.634979248-.1479949951c-.0859985352-.0019989014-.1380004883-.0480041504-.2319946289-.0850067139l-.4010009766-.2079925537-.8010253906-.4179992676c-.4619750977-.1360015869-1.1279907227.9309997559-.801940918,1.2859954834h0Z" fill="#010101"/>
  <path d="M462.2895791362,394.2425668071l-.041015625,2.3000030518-.0209655762,1.1499938965-.0109863281.5749969482c-.0100097656.1760101318-.0230407715.3040008545-.0420532227.4560089111-.1819458008,1.175994873-.9779663086,2.1889953613-1.9949951172,2.6040039062-.2489929199.1119995117-.5119934082.1809997559-.7760009766.2220001221-.2760009766.0439910889-.4949951172.0309906006-.9440002441.0519866943l-2.2879943848.0570068359-4.5799560547.0650024414-2.1830444336.1399993896c-3.782989502.2290039062-7.5729980469.3959960938-11.3219909668.3970031738-3.7090148926-.0240020752-7.4840087891-.3170013428-11.2449951172-.6820068359l-2.1709899902-.2259979248c-3.0420227051-.1450042725-6.0930175781-.341003418-9.1310119629-.5930023193l-.5060119629-.0419921875c-.0859985352-.0060119629-.1610107422-.0160064697-.2380065918-.0450134277-.1549682617-.0479888916-.3029785156-.1459960938-.4169616699-.2809906006-.1149902344-.1340026855-.1990356445-.3030090332-.2290344238-.4920043945l-.0060119629-.0359954834c-.0009765625.0099945068-.0019836426-.0469970703-.0039978027.0180053711l-.0009765625-.0360107422-.0039978027-.1439971924-.0079956055-.2879943848-.0160217285-.575012207-.1279907227-4.6029968262c-.1090087891-.5970001221-1.3659973145-.6380004883-1.5140075684-.0500030518l-.4309692383,4.5839996338-.0530395508.574005127-.0269775391.2859954834-.0140075684.1430053711-.0029907227.0359954834-.0010070801.0900115967v.1069946289c0,.5760040283.1629943848,1.1629943848.4669799805,1.6690063477.3000183105.5079956055.7440185547.9409942627,1.2770080566,1.2289886475.2630004883.1480102539.5559997559.2560119629.8450012207.3260040283l.6300048828.1349945068c3.0260009766.6260070801,6.0559997559,1.1950073242,9.1059875488,1.716003418l2.2080078125.2299957275c3.8340148926.3710021973,7.6780090332.6740112305,11.6050109863.700012207,3.8840332031-.0010070801,7.7239990234-.1720123291,11.5590209961-.404006958l2.2099609375-.141998291,4.5870361328-.6260070801,2.291015625-.3379974365c.3119506836-.0559997559.8619995117-.1109924316,1.3299560547-.2559967041.4790039062-.141998291.9420166016-.3370056152,1.3640136719-.5939941406,1.7189941406-.9970092773,2.7819824219-2.887008667,2.8229980469-4.7700042725.0040283203-.2290039062-.0079956055-.4850006104-.0220031738-.6909942627l-.0599975586-.5730133057-.1189880371-1.1459960938-.2370300293-2.2919921875c-.1539916992-.5879974365-1.4100036621-.5330047607-1.5139770508.0639953613h0Z" fill="#010101"/>
  <g clip-path="url(#clippath-2)">
    <path d="M153.4060799907,304.6405618022c-.300491333-7.8119812012-.6500091553-15.6959838867-2.0937042236-23.5639953613-.2194976807-.9299926758-.445892334-1.8600158691-.6962890625-2.7850036621-.6458129883-2.4049987793-1.4056091309-4.7899780273-2.3041992188-7.1300048828-.8871154785-2.2879943848-1.865814209-4.7470092773-3.586807251-6.9580078125-1.7530059814-2.2869873047-4.3590087891-3.8136901855-6.9683074951-4.5527954102-1.4893035889-.4145812988-2.704498291-.4777832031-3.9694061279-.6088867188-1.2496795654-.1066894531-2.4815826416-.174407959-3.713394165-.2347106934l-2.8334960938-.1102905273c-1.9747009277.032989502-3.9312896729.079498291-5.9076080322.1654052734-1.983001709.112487793-3.8239898682.1666870117-5.7707977295.104888916-3.8654937744-.0924072266-7.7837982178-.4104003906-11.7485961914-.3876037598-.7747955322.1009216309-.7931060791,1.3587036133-.0567932129,1.5137023926,3.8452911377.3441162109,7.6867980957,1.0274047852,11.6140899658,1.4992980957,1.949005127.2520141602,4.0164031982.3890075684,5.9403991699.4609985352,1.9304046631.1000061035,3.8802032471.2390136719,5.8103942871.3910217285l2.775604248.1079711914c1.1984100342.0590209961,2.3964080811.125,3.5711975098.2260131836,1.1513061523.108001709,2.3824920654.2180175781,3.2381134033.4720153809,2.0532989502.5950012207,3.8421020508,1.6739807129,5.0682983398,3.2679748535,1.2891998291,1.6410217285,2.1806030273,3.7530212402,3.0372924805,5.990020752.846206665,2.2030029297,1.5662078857,4.4609985352,2.1820068359,6.7550048828.2386932373.8809814453.4550018311,1.7699890137.6653900146,2.6609802246,2.0984039307,7.3710021973,3.19871521,15.1019897461,4.2375030518,22.8470153809.1929016113.7409973145,1.446105957.6340026855,1.5091094971-.1310119629h0Z" fill="#010101"/>
    <path d="M115.4426705668,373.8545663188c-.7637939453-.8099975586-1.5891876221-1.5570068359-2.3006896973-2.4140014648l-2.1596069336-2.5379943848-1.9887084961-2.6730041504c-.6633911133-.8899993896-1.2281951904-1.8509979248-1.8465881348-2.7709960938-2.370300293-3.7550048828-4.3715057373-7.7340087891-6.0567016602-11.841003418-3.3164520264-8.2469940186-5.4014129639-16.9559936523-6.6616973877-25.7630004883-.3303222656-2.1060028076-.6560058594-4.2140045166-.8957519531-6.3359985352-1.3417053223-11.0269927979-1.546661377-22.195022583-1.1157226562-33.3450164795.1047363281-2.7909851074.2544250488-5.5769958496.402130127-8.3909912109l.1805114746-4.1609802246c.0964355469-1.2210083008.3657226562-2.4349975586.7886810303-3.6010131836.8387298584-2.3309936523,2.3156890869-4.4710083008,4.1984863281-6.0189819336,1.8692626953-1.5510253906,4.1904602051-2.466003418,6.3582611084-2.2080078125.830291748.1090087891,1.6311950684.375,2.3943939209.7659912109.7503051758.424987793,1.4600067139.9689941406,2.1013031006,1.6289978027,1.3834075928,1.3390197754,2.4570007324,3.1470031738,3.3243103027,5.0589904785.441192627.9590148926.7937927246,1.9680175781,1.151184082,2.9850158691l1.0241088867,3.2049865723c1.3492889404,4.2750244141,2.5173034668,8.5570068359,3.3776855469,12.9349975586,1.7451171875,8.7530212402,2.4860229492,17.7200317383,2.7942047119,26.7140045166.1730194092,1.7360076904,1.4308013916,1.7230072021,1.5145111084-.0299987793.0625915527-9.0309906006-.3045959473-18.129989624-1.717010498-27.1450042725-.6929016113-4.5069885254-1.7183837891-8.9859924316-2.9046936035-13.3639831543-1.1302032471-4.2440185547-2.3601989746-9.1629943848-5.8778076172-12.9750061035-.8643798828-.8895874023-1.8732910156-1.6817932129-3.0082855225-2.3135070801-1.1536102295-.6030883789-2.4253997803-1.0260925293-3.7409973145-1.1907043457-1.7135009766-.1983947754-3.4396057129.05859375-4.9907989502.6199035645-1.5572814941.5613098145-2.956161499,1.4096069336-4.1836090088,2.4184875488-2.4527740479,2.0278320312-4.267868042,4.683807373-5.3382720947,7.6288146973-.5349578857,1.4729919434-.8810272217,3.0230102539-1.0048370361,4.6010131836l-.1864471436,4.2549743652c-.146697998,2.7950134277-.2984161377,5.6170043945-.4042510986,8.4380187988-.4359893799,11.2909851074-.2321777344,22.657989502,1.1401824951,33.9400024414.2456359863,2.1709899902.5788879395,4.3329925537.9181518555,6.4929962158,1.6653747559,8.9759979248,4.176651001,17.8430023193,7.9444732666,26.1959991455,1.9109954834,4.1620025635,4.1443023682,8.1790008545,6.7470092773,11.9470062256.6770935059.9239959717,1.2987976074,1.8859863281,2.0203857422,2.7749938965l2.1612091064,2.6669921875,2.3296051025,2.5210113525c.7668762207.8470001221,1.6483001709,1.5849914551,2.4657897949,2.3809967041,1.3574066162,1.1479949951,2.1824035645.1979980469,1.0458984375-1.0950012207h0Z" fill="#010101"/>
  </g>
  <path d="M120.7927682231,318.1845681498c2.4154968262-1.8320007324,5.2427062988-3.1739959717,8.1065063477-4.3439941406,2.8805999756-1.1550140381,5.8340911865-2.1500091553,8.8364868164-2.9960021973,5.9990081787-1.7109985352,12.1352081299-2.9649963379,18.2994232178-3.9869995117,1.467300415-.2909851074,2.9445953369-.5390014648,4.4163818359-.8110046387,15.3587188721-2.6220092773,30.983001709-3.8099975586,46.5790100098-3.7490234375,1.5-.0129699707,2.9989929199.0380249023,4.4980010986.0600280762,12.5239868164-.0880126953,25.0900115967.616973877,37.521987915,2.483001709,1.2200164795.0780029297,1.4530029297-1.1580200195.2680053711-1.491027832-12.391998291-2.6159667969-25.0299987793-4.0809936523-37.7099914551-4.7409667969-1.5200042725-.0220336914-3.0400085449-.074005127-4.5599975586-.0610046387-15.8110046387-.0610046387-31.62550354,1.1399841309-47.2352142334,3.8039855957-1.4973907471.2760009766-2.9985961914.5280151367-4.4927978516.825012207-6.2048034668,1.4099731445-12.363494873,3.050994873-18.3840942383,5.1599731445-3.011505127,1.0450439453-5.9789123535,2.2420043945-8.8760986328,3.6080169678-2.8834075928,1.3850097656-5.7308959961,2.9349975586-8.229095459,5.0700073242-.912399292.9129943848-.015914917,1.800994873.9614868164,1.1699981689h0Z" fill="#010101"/>
  <path d="M251.3225686381,304.6265847514l19.7030029297-2.0010375977c6.5690307617-.5729980469,13.149017334-.9859619141,19.7310180664-1.2049865723,13.158996582-.4309997559,26.3419799805-.1050109863,39.3670043945,1.3980102539l4.6769714355.5289916992,4.6600036621.6380004883,3.9799804688.6310119629.9120178223-1.4810180664.2099914551-.3399963379.1200256348-.1949768066.0619812012-.1010131836c.016998291-.0140075684.0060119629-.0400085449.0459899902-.0440063477l.1459960938.0010070801.5850219727.0019836426c.141998291.0300292969.0619812012-.0879821777.0890197754-.1350097656l.009979248-.1869812012c.009979248-.2510070801.0359802246-.4939880371.0549926758-.7399902344l.0940246582-.9320068359.0399780273-.3459777832.0390319824-.2810058594c.1649780273-1.0030212402.3139648438-2.0120239258.4229736328-3.024017334.225982666-2.024017334.3389892578-4.0570068359.3729858398-6.0610046387.0599975586-4.033996582-.0449829102-7.8590087891.1220092773-11.7909851074.0520019531-1.9940185547.0590209961-3.9890136719.024017334-5.983001709l-.0860290527-2.9909973145-.1099853516-2.9420166016c-.074005127-1.9869995117-.1739807129-4.0660095215-.6350097656-6.1983032227-.1219787598-.5328063965-.2550048828-1.0673828125-.4329833984-1.6007995605-.1650085449-.5256958008-.4340209961-1.1198730469-.6940002441-1.6611022949-.5850219727-1.0998840332-1.4440307617-2.0924987793-2.4530029297-2.8486938477-2.075012207-1.4922790527-4.449005127-1.921295166-6.5739746094-2.0441894531-2.1570129395-.1206054688-4.2090148926.0736999512-6.1820373535.2657775879-3.9619750977.3939208984-7.884979248.9323120117-11.783996582,1.4733276367-7.7940063477,1.0942993164-15.5180053711,2.1493835449-23.2399902344,2.1873779297-3.0989990234.0172119141-6.2149963379-.124206543-9.3219909668-.379699707-3.2490234375-.2218017578-6.4980163574-.5731811523-9.7430114746-1.0109863281-3.2229919434-.4309082031-6.4379882812-1.0299072266-9.675994873-1.6625976562l-4.8720092773-.9509887695-2.4519958496-.457824707-1.2309875488-.2183837891c-.3789978027-.0643920898-.875-.1650085449-1.4280090332-.1851196289-.5440063477-.0200805664-1.166015625.0303955078-1.7980041504.2711181641-.6340026855.2387084961-1.2009887695.695892334-1.578994751,1.1789855957-.3860015869.4865112305-.6230010986.9848022461-.8029937744,1.4562988281-.1699981689.4457092285-.3020172119.874420166-.4210205078,1.3036193848-.2359924316.8554077148-.4059753418,1.6810913086-.5889892578,2.4649047852-.1900024414.8170776367-.3690032959,1.6358947754-.5369873047,2.4572753906-.6920166016,3.2780151367-1.1240234375,6.6270141602-1.5230102539,9.8959960938-.407989502,3.2890014648-.783996582,6.5950317383-1.0190124512,9.9230041504-.4659881592,6.6440124512-.2959899902,13.4400024414,1.2560119629,19.9800109863.7220001221,2.5090026855,1.9289855957,2.1480102539,1.4799957275-.324005127-1.3269958496-6.3929748535-1.3090057373-12.975982666-.6699981689-19.483001709.3229980469-3.2600097656.7859954834-6.5140075684,1.283996582-9.7730102539.4939880371-3.2799682617,1.0000152588-6.4809875488,1.7630004883-9.6553955078.1860046387-.7929992676.3819885254-1.5838012695.5890045166-2.3709716797.2150115967-.8200073242.4019927979-1.6091308594.6279907227-2.341003418.1119995117-.3639221191.2350006104-.7223205566.3690032959-1.0451049805.1210021973-.2962036133.2640075684-.5440979004.4010009766-.6996154785.1409912109-.1567993164.2460174561-.226776123.3890075684-.2771911621.1449890137-.0463867188.3619995117-.0736083984.641998291-.0534057617.274017334.0168151855.5899963379.0845031738,1.0209960938.1724853516l1.2040100098.2488098145,2.408996582.5202026367,4.8320007324,1.0855102539c3.2309875488.7264099121,6.5,1.4324035645,9.816986084,1.9718017578,3.2929992676.5390930176,6.6090087891.9931030273,9.949005127,1.3158874512,3.2030029297.2632141113,6.4190063477.4100952148,9.6520080566.3923034668,8.033996582-.0406799316,15.9530029297-1.1324157715,23.733001709-2.2229003906,3.8949890137-.5405883789,7.7699890137-1.0715942383,11.6399841309-1.4559936523,1.9389953613-.191986084,3.8210144043-.3562011719,5.5980224609-.2535095215,1.7719726562.0885009766,3.424987793.4868164062,4.5659790039,1.3222961426.5579833984.4303283691,1.016998291.9467163086,1.3630065918,1.5854187012.150970459.3476867676.3069763184.6483764648.4379882812,1.0597839355.1350097656.3992004395.2390136719.8211975098.3370056152,1.2466125488.3740234375,1.7189941406.4810180664,3.5889892578.549987793,5.5299987793l.1110229492,2.9559936523.0830078125,2.908996582c.0350036621,1.9389953613.0279846191,3.8800048828-.0220336914,5.8200073242-.1690063477,3.933013916-.0650024414,7.9799804688-.1229858398,11.8139953613-.0330200195,1.9299926758-.1399841309,3.8300170898-.350982666,5.717010498-.1020202637.9429931641-.240020752,1.8809814453-.3939819336,2.8199768066l-.0640258789.4490356445-.0440063477.3869628906-.0570068359.5370178223h.0020141602-.0020141602l-.0939941406-.0149841309-.3759765625-.0599975586-1.5029907227-.2380371094-4.7490234375-.6499633789-4.7619934082-.5390014648c-13.2900085449-1.1550292969-26.6230163574-1.1040039062-39.8690185547-.2960205078-6.625.4069824219-13.233001709,1.0090026855-19.816986084,1.7720031738l-19.6970062256,2.5619812012c-2.5269927979.4240112305-2.3509979248,1.6700134277.203994751,1.5010375977h0Z" fill="#010101"/>
  <path d="M377.1325661967,374.8535744975c.4169921875.0149993896.8280029297-.0510101318,1.2380065918-.125l1.2349853516-.2040100098c.8190002441-.1559906006,1.5989990234-.4759979248,2.4020080566-.7119903564.7539978027-.3500061035,1.5260009766-.6890106201,2.25-1.1000061035l1.049987793-.6770019531c.358001709-.2169952393.6979980469-.4570007324,1.0090332031-.7319946289,2.6159973145-2.0610046387,4.6709899902-4.7020111084,6.3289794922-7.5080108643,1.6239929199-2.8329925537,2.9169921875-5.8299865723,3.8910217285-8.9329986572,1.0519714355-2.9889984131,2.0349731445-5.9069976807,3.1450195312-8.9120025635,1.0979919434-2.9909973145,2.2039489746-5.9799957275,3.1879577637-9.0119934082,1.0480041504-3.0119934082,1.966003418-6.0659942627,2.9020080566-9.1159973145,1.799987793-6.1220092773,3.4349975586-12.3000030518,4.7859802246-18.5530090332l.8489990234-4.516998291c.274017334-1.5079956055.5020141602-3.0249938965.7550048828-4.5369873047.5960083008-3.9450073242,1.1090087891-7.9050292969,1.4290161133-11.9000244141.1550292969-2.0009765625.2819824219-3.9969787598.3170166016-6.0409851074l.0050048828-.9060058594c-.0060424805-.1269836426-.0370178223-.2439880371-.0510253906-.3429870605l-.032989502-.1870117188-.0640258789-.3720092773-.2590026855-1.4909667969c-.2039794922-.9920043945-.3809814453-1.9860229492-.6229858398-2.9760131836-.4540100098-1.9810180664-.9899902344-3.9580078125-1.7080078125-5.9129943848-.7149963379-1.9510192871-1.5879821777-3.8950195312-2.8699951172-5.7210083008-1.2359924316-1.7990112305-3.076965332-3.5877990723-5.566986084-4.3197937012-1.2260131836-.3615112305-2.532989502-.4142150879-3.7360229492-.2294006348-1.2109680176.1808776855-2.3199462891.5799865723-3.3379821777,1.0647888184-2.0360107422.9884033203-3.7329711914,2.299407959-5.2820129395,3.7344055176-1.5559997559,1.4389953613-2.9289855957,3.0589904785-4.1279602051,4.7859802246-1.190032959,1.7340087891-2.2130432129,3.5740356445-3.041015625,5.4930114746-.4260253906.9770202637-.7730102539,1.907989502-1.1290283203,2.8280029297-.3439941406.9530029297-.7159423828,1.8970031738-1.0239868164,2.8619995117-2.6029968262,7.683013916-3.9010009766,15.7290039062-4.3059997559,23.7519836426-.0799865723,1.5440063477-.1279907227,3.0880126953-.1369934082,4.6310424805-.0289916992,1.5199584961.0249938965,3.145980835.016998291,4.5499725342v.4280090332c0,.078994751-.0030212402.2129974365.0010070801.1779937744.0050048828.0050048828.009979248.0149993896.0119934082.0270080566.0010070801.0119934082-.0060119629.021987915-.0149841309.0260009766-.024017334-.0010070801.0190124512.0229949951-.099029541-.0180053711-.0390014648-.0149993896-.0029907227.0039978027-.1040039062-.0390014648l-.2569580078-.1089935303-.5210266113-.2250061035-1.0749816895-.4790039062c-.4920349121-.2089996338-1.2200012207-.6770019531-1.8790283203-1.0670013428-2.7129821777-1.6459960938-5.4790039062-3.3139953613-8.4469909668-4.7279968262-.7409973145-.3550109863-1.5110168457-.683013916-2.2949829102-.9909973145-.7579956055-.2860107422-1.5180358887-.5639953613-2.2820129395-.8269958496-1.5260009766-.5270080566-3.0630187988-1.0090026855-4.6040039062-1.4580078125-1.5419616699-.449005127-3.0889892578-.8649902344-4.6340026855-1.2619934082l-2.308013916-.5880126953-1.9669799805-.5219726562c-.0939941406-.0469970703-.2809753418-.0310058594-.2879943848-.1810302734l-.0210266113-.4539794922-.0149841309-2.3510131836c.0069885254-1.5670166016.0480041504-3.1350097656.1229858398-4.7019958496.1510009766-3.1340026855.4370117188-6.2630004883.865020752-9.375.2219848633-1.5570068359.4360046387-3.1199951172.7749938965-4.6029968262.342010498-1.5020141602.7879943848-2.9930114746,1.3079833984-4.4580078125,1.0510253906-2.9199829102,2.358001709-5.7860107422,4.0920410156-8.3229980469.6309814453-1.0020141602.7829589844-1.6510009766.5119628906-1.8930053711-.2439575195-.2210083008-.9559631348.0120239258-1.7460021973,1.0140075684-1.925994873,2.6520080566-3.3549804688,5.5700073242-4.5399780273,8.5759887695-.5840148926,1.508026123-1.0960083008,3.0460205078-1.5050048828,4.6260070801-.4129638672,1.5980224609-.6729736328,3.174987793-.9460144043,4.75-.5299682617,3.157989502-.9149780273,6.342010498-1.1629943848,9.5380249023-.1239929199,1.5979919434-.2129821777,3.1999816895-.2679748535,4.8029785156l-.0550231934,2.4060058594.1730041504,1.8129882812c.0230102539.0660095215-.0220031738.1760253906.058013916.2059936523.0229797363.0770263672.0599975586.1440124512.0999755859.2100219727.0960083008.1159973145.216003418.208984375.3380126953.299987793.2510070801.1770019531.5539855957.3090209961.8659973145.4260253906l.4750061035.1669921875.3809814453.1209716797.5860290527.1780090332,1.1559753418.3360290527,2.283996582.6539916992c1.5150146484.4369812012,3.0190124512.8889770508,4.5090332031,1.3709716797,1.4899902344.4819946289,2.9649658203.9940185547,4.4219665527,1.5450134277.7279968262.2749938965,1.449005127.5630187988,2.1670227051.858001709.6829833984.2929992676,1.3639831543.6060180664,2.0429992676.9559936523,2.7220153809,1.3960113525,5.3530273438,3.0810089111,8.0109863281,4.8040008545.6960144043.4309997559,1.2789916992.8690032959,2.2239990234,1.3339996338l1.0830078125.5220031738.5629882812.262008667.2870483398.1319885254c.0789489746.0390014648.302947998.1190032959.4479675293.1770019531.3229980469.1300048828.6470336914.2579956055,1.0269775391.3370056152.1809997559.0379943848.3680114746.1100006104.5450134277.1190032959l.5299987793.021987915c.6730041504-.032989502,1.3700256348-.3019866943,1.8330383301-.8199920654.2139587402-.2640075684.4379882812-.5200042725.5479736328-.8740081787.0599975586-.1709899902.1470336914-.3249969482.1869812012-.5099945068l.1020507812-.5659942627c.0879821777-.4090118408.0859680176-.6780090332.1119689941-.9930114746l.0299987793-.4399871826.0069885254-.3180084229c.0079956055-1.6340026855-.0440063477-3.0449981689-.0159912109-4.56300354.0090026855-1.4939880371.0549926758-2.9869995117.1319885254-4.4769897461.3909912109-7.7449951172,1.641998291-15.4479980469,4.1140136719-22.7420043945.2919921875-.9179992676.6470031738-1.8120117188.9719848633-2.717010498.3570251465-.9219970703.7010498047-1.8419799805,1.0660095215-2.674987793.7369995117-1.7080078125,1.6439819336-3.3349914551,2.6879882812-4.8590087891,1.0540161133-1.5159912109,2.2510070801-2.9270019531,3.5960083008-4.1699829102,1.3389892578-1.2489929199,2.8209838867-2.3640136719,4.3469848633-3.0979919434,1.5300292969-.7450256348,3.0840148926-1.0200195312,4.4110107422-.6170043945,1.3340454102.3859863281,2.5710449219,1.4479980469,3.5480041504,2.8800048828.9949951172,1.408996582,1.774017334,3.0929870605,2.4120178223,4.8469848633.6449890137,1.7550048828,1.1479797363,3.5979919434,1.5749816895,5.466003418.2279968262.9289855957.3970031738,1.8809814453.592010498,2.8229980469l.2469787598,1.4279785156.0970153809.558013916-.0059814453.575012207c-.0320129395,1.9059753418-.1540222168,3.8549804688-.3050231934,5.7909851074-.3110046387,3.8810119629-.8129882812,7.7609863281-1.3970031738,11.6270141602-.2479858398,1.4840087891-.4719543457,2.9710083008-.7409973145,4.4519958496l-.833984375,4.4389953613c-1.1480102539,6.1860046387-2.5810241699,12.324005127-4.1800231934,18.4230041504-.8369750977,3.0390014648-1.6549682617,6.0859985352-2.6049804688,9.095993042-.8850097656,3.029006958-1.8930053711,6.0200042725-2.8939819336,9.0160064697-1.0020446777,2.9759979248-1.9570007324,6.0979919434-2.9200439453,9.1219940186-.8379516602,2.9750061035-1.9899902344,5.8699951172-3.4409790039,8.5850067139-1.4829711914,2.6879882812-3.3280029297,5.1889953613-5.6469726562,7.1279907227-.2760009766.262008667-.5770263672.4869995117-.8940429688.6900024414l-.9289550781.6399993896c-.6400146484.3890075684-1.3210449219.7080078125-1.9890441895,1.0469970703-.7129821777.2250061035-1.4019470215.5410003662-2.134979248.7010040283l-1.1060180664.2140045166c-.3689880371.0800018311-.7380065918.1529998779-1.1189880371.1470031738-2.2969970703.1979980469-2.4989929199,1.4609985352.1109924316,1.5110015869h0Z" fill="#010101"/>
  <path d="M115.2522713969,375.4995705912c1.4044952393.8849945068,3.1306915283,1.3990020752,4.7792053223,1.4429931641l4.6667022705.2369995117c3.1118927002.1490020752,6.2245025635.2429962158,9.3371887207.3339996338,6.2253112793.1640014648,12.4492034912.2350006104,18.6676177979.2940063477,12.4420928955.0999908447,24.8367919922.2299957275,37.2275848389.841003418l8.9129943848.3109893799c15.4580078125.5790100098,30.9570007324,1.3639984131,46.5130004883,1.2850036621,15.5209960938-.0939941406,31.0039978027-.4900054932,46.4930114746-.925994873l8.9309997559-.2649993896c12.425994873-.5709991455,24.8479919434-1.1890106201,37.2680053711-1.870010376,12.4199829102-.6899871826,24.8359985352-1.396987915,37.2489929199-2.345993042,2.3970031738-.2760009766,2.3089904785-1.5299987793-.0960083008-1.5110015869-12.4049987793.574005127-24.8339538574.9100036621-37.2579650879,1.2270050049-12.4250183105.3079986572-24.8520202637.5529937744-37.2790222168.7509918213l-8.9230041504.2660064697c-15.4700012207.4349975586-30.950012207.8309936523-46.4000091553.9239959717-15.421005249.0800018311-30.8689880371-.7019958496-46.3559875488-1.2830047607l-8.9390106201-.3109893799c-12.462097168-.2409973145-24.9378967285.0019989014-37.358291626.2749938965-6.2135009766.1269989014-12.4223022461.2420043945-18.6285858154.2640075684-3.102722168.0029907227-6.2058105469.0019989014-9.3068237305-.0530090332l-4.6513824463-.0970001221c-1.4605102539-.0009918213-2.8254089355-.3690032959-4.0809173584-1.0950012207-2.1384887695-1.1100006104-2.7764892578-.0260009766-.7682952881,1.3050079346h0Z" fill="#010101"/>
  <path d="M123.7997720073,358.9205605815c-.2119903564-3.7229919434-.1932983398-7.4570007324-.1062011719-11.1929931641l-.0953063965-1.3339996338c-.3247833252-4.625-.5377807617-9.2729949951-.7234802246-13.9290008545l-.0532073975-1.3430023193-1.5561065674-11.1979980469c-.1441955566-.3569946289-1.4005889893-.2980041504-1.5131988525.0690002441l-.6779022217,11.2740020752.0534057617,1.3470001221c.1864929199,4.6730041504.4004974365,9.3540039062.7297973633,14.0429992676l.0966033936,1.3529968262c.6600952148,3.7369995117,1.3901977539,7.4720001221,2.3505096436,11.154006958.1819915771.3419952393,1.4219970703.1319885254,1.4950866699-.2430114746h0Z" fill="#010101"/>
  <path d="M378.3985574076,357.6595742534c-24.208984375,1.2429962158-48.4649963379,1.4909973145-72.7119750977,1.5349884033l-8.7090148926.1309967041c-30.2009887695.3990020752-60.4149780273.3340148926-90.6239929199.0360107422l-8.7109985352-.0899963379c-12.12840271.0279998779-24.2574920654.0289916992-36.3854827881-.0490112305-12.1255187988-.0849914551-24.2620239258-.1859893799-36.3632202148-.5820007324-2.3452911377.0140075684-2.428894043,1.2690124512-.0843048096,1.5130004883,12.1349029541.7700042725,24.2589111328,1.2430114746,36.3905029297,1.700012207,12.1304016113.4509887695,24.2626037598.8239898682,36.3965148926,1.1679992676l8.7189941406.0889892578c30.2339935303.2990112305,60.4700012207.3639984131,90.7109985352-.0350036621l8.7200012207-.1309967041c24.2699890137-.7899932861,48.5440063477-1.783996582,72.758972168-3.7749938965,2.3370056152-.2729949951,2.2420043945-1.5279998779-.1069946289-1.5099945068h0Z" fill="#010101"/>
  <path d="M380.9836098979,358.0735604594c.6399536133-3.9809875488.9589538574-7.9759979248,1.2389526367-11.9689941406l-.0399780273-1.4309997559c-.157989502-4.9579925537-.4289855957-9.8999938965-.7700195312-14.8370056152l-.1010131836-1.4239959717-1.0349731445-5.8979949951c-.3800048828-1.983001709-.7049865723-3.8789978027-1.233001709-5.9410095215-.0680236816-.1199951172-.1400146484-.1219940186-.3809814453-.2989959717-.2150268555-.0829925537-.3440246582.0500030518-.4410400391.18699646-.0959777832.137008667-.2079467773.3140106201-.384979248.3190002441-.1940002441-.0919952393-.2469787598.0500030518-.2730102539.1170043945.1119995117,1.8430023193.092010498,3.8979949951.091003418,5.8520050049l-.0830078125,5.9349975586.1000366211,1.4120025635c.3379821777,4.8959960938.6069641113,9.8000030518.7629699707,14.6940002441l.0400085449,1.4109954834c.4629821777,3.9160003662.8880004883,7.8439941406.9989929199,11.7619934082.1030273438.3850097656,1.3559875488.4900054932,1.5100402832.1100006104h0Z" fill="#010101"/>
  <path d="M352.8025796244,267.6945779155c1.8239746094-1.7480163574,3.9909973145-3.0300292969,6.3110046387-3.8690185547,2.316986084-.858001709,4.8019714355-1.2409973145,7.3109741211-1.4619750977.592010498-.1020202637,1.1940002441-.1810302734,1.8000183105-.2540283203,3.1499938965-.3979797363,6.375-.5269775391,9.7119750977-.8255004883,3.3370056152-.3424987793,6.508026123-.7965698242,9.6970214844-1.0079956055.6100158691-.0411987305,1.2189941406-.0738830566,1.8269958496-.0997009277,2.5249938965-.2801818848,5.0599975586-.4158935547,7.5109863281-.1307067871,2.4180297852.3005065918,4.8510131836,1.0191040039,6.4779968262,2.7739257812.3790588379.2639770508,1.4380187988-.4219970703,1.1810302734-.9479980469-.8239746094-1.1915283203-1.9709777832-2.149597168-3.2180175781-2.8468017578-1.2470092773-.7088012695-2.5859985352-1.2005004883-3.9349975586-1.5623168945-2.7070007324-.7125854492-5.4549865723-.9461975098-8.1650085449-1.033203125-.6470031738.0274047852-1.2919921875.0621032715-1.9349975586.1055908203-3.3330078125.2217102051-6.6349487305.6932067871-9.7969970703,1.0162353516-3.1699829102.2854003906-6.4809570312.41796875-9.8160095215.8371887207-.641998291.0766906738-1.284942627.1617126465-1.9309997559.2717895508-2.6569824219.6217956543-5.3349609375,1.4324951172-7.7969970703,2.7626953125-2.4609985352,1.307800293-4.6739501953,3.1018066406-6.3599853516,5.2578125-.2720031738.4729919434.6979980469,1.2749938965,1.1260070801,1.0140075684h0Z" fill="#010101"/>
  <path d="M370.2165810893,258.2207619975l-.2939758301-4.9903869629c-.0570068359-.8366088867-.1180114746-1.6729125977-.2100524902-2.5238037109-.0899963379-.8689880371-.2529907227-1.6968078613-.3939819336-2.5337219238-.6469726562-3.3291931152-1.6319885254-6.6500854492-3.3110046387-9.7017822266-1.6270141602-3.0616149902-4.0969543457-5.7943115234-7.1940002441-7.591583252-3.1409606934-1.7758178711-6.6499938965-2.5008239746-10.0490112305-2.8124084473-3.4249572754-.3134155273-6.759979248-.2778015137-10.083984375-.3369140625l-9.9920043945-.1319885254-19.9809875488-.1222229004-9.5700073242.0759277344-49.7590026855.3948059082-24.8669891357.1971740723-12.433013916.0987243652-12.4239959717-.1349182129-9.5539855957-.1160888672c-3.321105957-.0054931641-6.6602172852.0386047363-9.9677124023-.007598877-3.3103942871-.0487976074-6.629486084-.1497192383-9.9562988281-.2545166016-3.3271942139-.1044006348-6.662399292-.2113037109-10.0057983398-.2687988281-3.3398895264-.0374755859-6.6851959229-.1246948242-10.1109008789.1279907227-3.3996887207.2672119141-6.8795013428.8551025391-10.1083984375,2.3579101562-3.2103118896,1.4705200195-6.0717010498,4.0885009766-7.5210113525,7.3700866699-1.4981994629,3.2391357422-1.9036865234,6.6747131348-2.4685974121,9.9205322266l-1.7029876709,9.8110961914c-.3486938477,2.5505981445.8755950928,2.8389892578,1.4795074463.3247070312l1.9893798828-9.8187255859c.6539154053-3.2727966309,1.1672058105-6.5390014648,2.5716094971-9.3393859863,1.3455963135-2.8036193848,3.7684020996-4.8928222656,6.6238861084-6.1253051758,2.8654174805-1.2410888672,6.0783233643-1.7144165039,9.3011169434-1.8737182617,3.2233886719-.1499938965,6.5428924561.0239257812,9.8557891846.1551208496,3.3115081787.149810791,6.6276092529.3489074707,9.9515075684.5463867188,3.3243103027.1979064941,6.6568908691.3928222656,10.0019989014.5357055664,3.3480072021.140411377,6.6678009033.1889953613,10.0038909912.2879943848l9.5770111084.1164245605,12.453994751.134979248,12.4460144043-.0986022949,24.8909912109-.1972961426,49.7560119629-.3948059082,9.5629882812-.0758972168,19.9649963379-.4364929199,9.9829711914-.1473999023c3.3310241699-.0357971191,6.6640625-.1578979492,9.8800354004.0490112305,3.2149963379.1995849609,6.3929748535.8004760742,9.1139831543,2.2430725098,2.7110290527,1.479309082,4.9640197754,3.7900085449,6.5360107422,6.5585021973,1.617980957,2.7467041016,2.6489868164,5.8612060547,3.3569946289,9.0375061035.157989502.8000183105.3389892578,1.6031188965.4420166016,2.388092041.1090087891.8015136719.1929931641,1.6237182617.2719726562,2.4460144043l.4320068359,4.9701843262c.3470458984,2.5890197754,1.5960083008,2.432800293,1.5110168457-.1135864258h0Z" fill="#010101"/>
  <path d="M166.4738595317,301.8735635112c-1.7727813721-3.7279968262-2.8584899902-7.7210083008-3.6591949463-11.7749938965-.7867889404-4.0490112305-1.1777801514-8.166015625-1.1965789795-12.2760009766-.0194091797-4.1119995117.3338928223-8.2189941406,1.022277832-12.2630004883.3665924072-2,.721206665-4.1159973145,1.3354187012-5.8207092285.3144989014-.8559875488.7139892578-1.6184997559,1.2191009521-2.2255859375.4575805664-.548614502,1.0548858643-.9496154785,1.7825927734-1.2229919434,1.3973999023-.5758056641,3.1500091553-.6056213379,5.0319061279-.3984069824,1.2492828369.1105041504,2.5039825439.390411377,3.7559051514.5757751465,1.2511901855.2049255371,2.4992828369.4010009766,3.7902832031.6856079102,1.2850036621.2571105957,2.5487976074.5352172852,3.8511962891.7749023438l4.0013122559.6220092773c5.3354949951.7368164062,10.8135070801.4468078613,15.9945068359-.1135864258,1.3190002441-.0994262695,2.7159881592-.303314209,3.9179992676-.4304199219l.9029846191-.0766906738.2200012207-.012512207c.1040039062.0022888184.3670043945-.0311889648.4250030518-.0437011719l.483001709-.0707092285,1.9300079346-.2828979492,7.7299804688-1.033782959,3.8659973145-.5111999512c1.3140258789-.1721191406,2.5870056152-.2959899902,3.9329986572-.5119934082l3.8260040283-.5534057617c1.2460021973-.1557922363,2.4690246582-.2549133301,3.6620178223-.25.9100036621.0062866211,1.8299865723.0713806152,2.6719970703.2232055664.8280029297.151184082,1.6280059814.4047851562,2.3559875488.7634887695,1.5500183105.6964111328,2.7259979248,1.8930969238,3.5380096436,3.5003051758.8090057373,1.5903015137,1.2179870605,3.496307373,1.4350128174,5.471282959.2169952393,1.9780273438.2399749756,4.0200195312.2219848633,6.0980224609-.0370025635,2.0869750977-.0040130615,4.1879882812-.0040130615,6.2799987793-.0049743652,2.0939941406.0390167236,4.1940002441-.0049743652,6.2820129395l-.2880249023,6.2459716797-.3059844971,6.2869873047c-.0410003662,1.0700378418-.0410003662,2.1580200195.0609893799,3.2520141602l.0950164795.8229980469c.0449981689.3070068359.1190032959.5570068359.1779937744.8359985352.103012085.5469970703.3000030518,1.0790100098.4900054932,1.6100158691.0309906006.0729980469.06300354.1440124512.0930023193.1999816895.0199890137.041015625.0399932861.0729980469.0599975586.1010131836.81300354,1.0980224609,1.6000061035.5130004883,1.3059997559-.5899963379-.0010223389-.0149841309-.0030059814-.032989502-.0050201416-.0530090332-.0059814453-.0540161133-.0179748535-.117980957-.033996582-.1859741211-.1399841309-.4640197754-.2929992676-.9210205078-.3589782715-1.4110107422-.108001709-.4850158691-.149017334-.9260253906-.1740112305-1.4470214844-.0490112305-.9959716797-.0039978027-2.0079956055.0799865723-3.0279846191l.5840148926-6.25.5699920654-6.2940063477c.1380004883-2.0970153809.18699646-4.1889953613.2840118408-6.283996582.0939941406-2.0950012207.154006958-4.1849975586.2839813232-6.2850036621.1110229492-2.1069946289.1890258789-4.2630004883.0470275879-6.4620056152-.1480102539-2.1849975586-.4890136719-4.4761962891-1.4800262451-6.6858825684-.4940032959-1.099609375-1.1549835205-2.1575927734-2.0069885254-3.0901184082-.8620147705-.9440002441-1.8970031738-1.7103881836-3.0050048828-2.2832946777-1.0729980469-.5283813477-2.2040100098-.8819885254-3.3489990234-1.0908813477-1.1340026855-.2026367188-2.2249908447-.2737121582-3.3199920654-.2831115723-1.4170074463-.0057067871-2.8000030518.1112060547-4.1420135498.2784118652l-3.9219970703.5665893555c-1.2309875488.1994934082-2.5559997559.3312988281-3.8289794922.4978027344l-3.8950195312.5148925781-7.7869873047,1.0416870117-1.9430084229.2847290039-.4850006104.0711669922c-.1029968262.0140075684-.0010070801.0018310547-.0610046387.0072021484l-.2679901123.0153198242c-.3570098877.022277832-.7060089111.0534057617-1.0480041504.0885925293-1.391998291.1487121582-2.578994751.3282165527-3.8619995117.4251098633-5.1800079346.5574035645-10.2129974365.8152770996-15.2343902588.1244812012l-3.7337036133-.5809936523c-1.2632141113-.2321777344-2.5491027832-.5144958496-3.8225097656-.7692871094-1.2579956055-.2781066895-2.5874938965-.4909057617-3.9113922119-.707611084-1.328414917-.197479248-2.6284942627-.4844055176-3.9805145264-.6058044434-2.0799865723-.2146911621-4.4816894531-.2932739258-6.8361968994.658203125-1.2104949951.5123901367-2.3813018799,1.3616943359-3.2093963623,2.4739074707-.7874908447,1.047088623-1.3003997803,2.2044067383-1.657699585,3.3284912109-.6896972656,2.283996582-.9042053223,4.3443908691-1.2066955566,6.4734191895-.5297088623,4.2459716797-.7062988281,8.532989502-.4964141846,12.7979736328.2093048096,4.2650146484.8046112061,8.5060119629,1.8018188477,12.6459960938,1.0028991699,4.116027832,2.3204040527,8.2250366211,4.3217926025,11.9930114746.832901001,1.4240112305,1.9447021484.8349914551,1.3635864258-.658996582h0Z" fill="#010101"/>
  <path d="M249.5495889018,358.8525674174l1.2679748535-15.425994873.0180206299-1.8470001221.1860046387-19.217010498.0179901123-1.8479919434-.967010498-15.4470062256c-.1239929199-.5-1.3809967041-.5220031738-1.5149993896-.0260009766l-1.266998291,15.4250030518-.0180053711,1.8489990234-.1869812012,19.2369995117-.0180053711,1.8500061035.9680023193,15.4459991455c.1230010986.4989929199,1.3809967041.5009918213,1.5140075684.0039978027h0Z" fill="#010101"/>
  <path d="M247.1765725444,317.4595620463c-11.9930114746-1.362991333-24.0010070801-2.483001709-36.0449981689-3.4309997559l-4.3359985352-.1859893799c-15.1020050049-.6549987793-30.1846160889.0319976807-45.1826019287,1.004989624l-4.3252868652.2929992676c-12.0114135742,1.2070007324-23.9771118164,2.5970001221-35.9664154053,3.733001709-1.153793335.2040100098-1.0762939453,1.4600067139.0962982178,1.5110015869,12.0583953857-.3939971924,24.1041107178-1.0419921875,36.1305999756-1.5029907227l4.3102111816-.2920074463c14.9407806396-.9700012207,29.8951873779-1.6479949951,44.7891998291-1l4.31199646.1849975586c12.0240020752.2010040283,24.0689849854.5769958496,36.0899963379,1.1950073242,1.171005249-.0319976807,1.2800140381-1.2850036621.1269989014-1.5100097656h0Z" fill="#010101"/>
  <path d="M251.583570225,318.9655740092c12.0229949951-.7020111084,24.0520172119-1.1809997559,36.0770111084-1.4170074463l4.3129882812-.2050018311c7.4779968262-.3600006104,14.9609985352-.5559997559,22.4429931641-.7089996338,7.4810180664-.0839996338,14.9640197754-.1450042725,22.4390258789.0359954834,1.4369812012.0220031738,2.875.046005249,4.3099975586.103012085,12.0069885254-.0200042725,24.0229797363.3559875488,35.9879760742,1.4959869385,1.1700439453.0100097656,1.3400268555-1.2369995117.1950378418-1.5019989014-11.9420471191-1.8889923096-24.0020446777-3.0149993896-36.0760498047-3.7429962158-1.4469909668-.0559997559-2.893951416-.0809936523-4.341003418-.1029968262-7.5289611816-.1820068359-15.0539855957-.1210021973-22.575958252-.0370025635-7.5210266113.1549987793-15.041015625.3509979248-22.5520019531.7129974365l-4.3320007324.2060089111c-12.0390014648.983001709-24.0480041504,2.2079925537-36.0240020752,3.6529998779-1.1510009766.2289886475-1.0350036621,1.4819946289.1359863281,1.5090026855h0Z" fill="#010101"/>
</svg>