<?xml version="1.0" encoding="UTF-8"?>
<svg id="Ebene_1" data-name="Ebene 1" xmlns="http://www.w3.org/2000/svg" xmlns:xlink="http://www.w3.org/1999/xlink" viewBox="0 0 566.9291338583 566.9291338583">
  <defs>
    <clipPath id="clippath">
      <rect x="99.4645669291" y="158.4645669291" width="366.2420196533" height="251.4540100098" fill="none"/>
    </clipPath>
    <clipPath id="clippath-1">
      <rect x="99.4645669291" y="158.4645669291" width="366.2420196533" height="251.4540100098" fill="none"/>
    </clipPath>
    <clipPath id="clippath-2">
      <rect x="99.4645669291" y="158.4645669291" width="366.2420196533" height="251.4540100098" fill="none"/>
    </clipPath>
  </defs>
  <polyline points="430.2025582621 268.0595681498 438.616559727 251.6883828471 432.7585885356 384.8785836528 424.3445870707 384.4545876811 430.2025582621 268.0595681498" fill="#8abd24"/>
  <path d="M429.350568516,269.9135720561l-5.0520019531,78.1520080566-.4710083008,9.3639984131-1.450012207,28.8030090332,12.1710510254.612991333,2.8139953613-63.9739990234.4119873047-9.3670043945.9169921875-30.8860168457.4580078125-15.4429931641.6579589844-19.9780883789-5.6770019531,11.304107666-3.7359619141,7.5270080566c-1.0400085449,2.3049926758.0780029297,2.8800048828,1.3469848633.6929931641l3.8120117188-7.1600036621,1.8710021973-3.3825073242-.2720031738,3.6744995117-.4270019531,7.2149963379-.8989868164,15.4240112305-1.7990112305,30.8480072021-.4110107422,9.366973877-2.6479797363,60.2030181885-4.6570129395-.2339935303,1.2609863281-25.0590057373.4710083008-9.3639984131,2.8200073242-78.2639923096c-.0019836426-2.5289916992-1.2579956055-2.592010498-1.5130004883-.0760192871h0Z" fill="#1d1d1b"/>
  <path d="M452.3285958598,181.99517606l8.4239501953-8.9823913574v194.9938049316c0,5.4399871826-3.1889648438,10.4349975586-8.1249694824,12.7229919434l-50.2940063477,23.31300354-3.5439758301-7.6430053711,50.2939453125-23.31300354c1.9720458984-.9140014648,3.2450561523-2.907989502,3.2450561523-5.0799865723v-186.0114135742" fill="#8abd24"/>
  <path d="M451.5705697368,185.6570718119l-1.116973877,151.3845062256v30.9540100098c-.007019043.2649841309-.0270080566.516998291-.0810241699.7709960938-.208984375,1.0119934082-.8700256348,1.9329833984-1.7609863281,2.4499969482l-16.7530212402,7.7879943848-35.5590209961,16.483001709,5.1220397949,11.0449981689,49.5610046387-22.9729919434,1.4949951172-.6940002441c.4989624023-.2319946289.9800109863-.4459991455,1.5609741211-.75,1.1030273438-.5769958496,2.1510009766-1.2700042725,3.0890197754-2.091003418,1.8710021973-1.6430053711,3.3800048828-3.7050018311,4.3089904785-6.0179901123.467010498-1.1529998779.8180236816-2.358001709,1.0029907227-3.592010498.1930236816-1.2260131836.1950378418-2.5399932861.1879882812-3.5739898682v-51.0960083008l-1.0539550781-144.80809021-7.2929992676,7.8695983887c-3.2460021973,3.6492004395-2.3280334473,4.5095825195,1.1049499512,1.0361938477l4.5460205078-4.7535095215-1.0540161133,140.6558074951v51.0960083008c.0060424805,1.1619873047-.0009765625,2.0519866943-.1439819336,3.0019989014-.1400146484.9409942627-.4110107422,1.8609924316-.7679748535,2.7429962158-.7059936523,1.7720031738-1.8699951172,3.3499908447-3.2960205078,4.6060028076-.7159729004.6289978027-1.516998291,1.1539916992-2.3569946289,1.5949859619-.391998291.2100067139-.9129943848.4470062256-1.4119873047.6770019531l-1.4949951172.6930084229-46.1600036621,21.396987915-1.966003418-4.2409820557,32.1560058594-14.9060058594,8.4649963379-3.9230041504,4.2319946289-1.9620056152,2.1159973145-.9809875488,1.058013916-.4900054932.5289916992-.2449951172c.2070007324-.1050109863.4630126953-.2220153809.6780090332-.3570098877,1.799987793-1.050994873,3.1049804688-2.8709869385,3.5279541016-4.908996582.1090087891-.5059967041.1550292969-1.0319976807.1620483398-1.5439910889v-30.9540100098l-1.1180419922-151.3845062256c-.1279907227-4.8825073242-1.3859863281-4.8825073242-1.5149841309,0h0Z" fill="#1d1d1b"/>
  <polygon points="399.6305367778 403.8485848735 104.4291512797 376.5345895121 206.4365670512 167.453580601 461.6125924418 162.2245461772 399.6305367778 403.8485848735 399.6305367778 403.8485848735" fill="#008939"/>
  <path d="M206.4365670512,167.453580601l250.450012207-2.9350585938-12.0430297852,47.3662719727s-227.196975708-33.7183227539-330.7607727051,138.0847930908l92.3537902832-182.5160064697h0Z" fill="#005538"/>
  <g clip-path="url(#clippath)">
    <path d="M218.6825692485,168.0169656108l-99.0173950195,206.7555999756M230.590589268,167.9268777201l-97.0016174316,208.3097076416M244.5955636332,167.6667764018l-98.4000854492,212.9098052979M257.5525643657,166.9664285014l-94.5767059326,211.8131561279M270.1595895121,167.9268777201l-93.1483154297,212.6497039795M300.2745797465,166.2660500834l-87.5450134277,218.6125335693M312.8815743754,166.2660500834l-83.9930114746,218.6125335693M326.8885629008,164.8653542826l-84.6079864502,221.2522277832M340.1955697368,165.4678628276l-81.1210021973,222.2037200928M354.9025704692,164.1649758647l-80.5409851074,227.616607666M388.5195748637,164.8653542826l-73.8880004883,229.0782318115M402.5275704692,164.1649758647l-71.0820007324,229.7786102295M416.5065743754,165.4678628276l-68.6069946289,231.4307250977M431.4805733989,162.2245461772l-64.4940185547,234.674041748M447.350568516,164.1649758647l-65.1480102539,236.2895965576M200.3375680278,182.1947915385l257.1809997559-4.4590148926M194.6788766215,194.6941811869l259.138671875-2.7965087891M188.0101754496,207.1934792826l262.107421875-1.1338806152M182.5539681743,219.6927773784l263.8626098633.5288085938M176.0873696635,232.1921670268l266.6282196045,2.1913146973M170.0248696635,245.744596226l268.9907073975,3.8538818359M156.3537728618,277.5205972026l272.959777832,8.8419799805M149.0441720317,294.6885659526l275.1683959961,10.5050048828M143.1352670024,307.1885659526l277.3763122559,12.166015625M137.2263772319,319.6875893901l279.5851898193,13.828994751M131.3174722026,332.1865670512l281.7931060791,15.4920196533M125.4085671733,344.68658231l284.0010223389,17.154006958M111.1774728129,359.5655801127l290.6491088867,19.6100006104" fill="none" stroke="#8abd24" stroke-miterlimit="10" stroke-width="1.5"/>
    <polygon points="196.2513711284 383.5205819438 190.4523751567 381.0135781596 284.0445687602 164.5500466655 289.8435799907 167.0571877787 196.2513711284 383.5205819438 196.2513711284 383.5205819438" fill="#8abd24"/>
    <polygon points="196.2513711284 383.5205819438 190.4523751567 381.0135781596 284.0445687602 164.5500466655 289.8435799907 167.0571877787 196.2513711284 383.5205819438 196.2513711284 383.5205819438" fill="none" stroke="#1d1d1b" stroke-miterlimit="10" stroke-width="1.5"/>
  </g>
  <polygon points="296.0695626567 395.1355874369 289.0925729106 392.7535836528 366.8225533793 165.0750100444 375.2135751078 164.3400552104 296.0695626567 395.1355874369 296.0695626567 395.1355874369" fill="#8abd24"/>
  <g clip-path="url(#clippath-1)">
    <polygon points="296.0695626567 395.1355874369 289.0925729106 392.7535836528 366.8225533793 165.0750100444 375.2135751078 164.3400552104 296.0695626567 395.1355874369 296.0695626567 395.1355874369" fill="none" stroke="#1d1d1b" stroke-miterlimit="10" stroke-width="2"/>
  </g>
  <polyline points="159.853971226 263.3075845073 160.0010812114 259.0965859721 434.4835641215 264.5865762065 434.3355538676 271.9565713237 159.853971226 263.3075845073" fill="#8abd24"/>
  <path d="M163.6668832133,264.1855752299l158.5816955566,6.1149902344,18.9909973145.5989990234,94.9320068359,2.991027832.2239990234-11.1409912109-99.0710144043-1.9820251465-18.9969787598-.3800048828-159.0599975586-2.0662841797-.0158081055.529296875c-.1009216309,6.5719909668,1.2159881592,4.899017334,1.4722900391,1.2409973145l.0102996826-.2210083008,157.5171966553,4.2659912109,18.9980163574.3800048828,95.3209533691,1.9070129395-.0719604492,3.5989990234-91.1409912109-2.8720092773-18.991027832-.5979919434-158.6519927979-3.8809814453c-5.1197052002-.0330200195-5.159286499,1.2239685059-.0476837158,1.5139770508h0Z" fill="#1d1d1b"/>
  <path d="M109.2734658549,373.8105752299l284.849105835,25.6750030518,63.3959960938-234.0177154541-250.0419921875,3.249420166-98.2031097412,205.0932922363h0ZM402.0215890239,407.2415749858l-302.4363250732-27.9819946289,104.8573150635-214.924987793,261.2640075684-5.3536376953-63.6849975586,248.2606201172h0Z" fill="#8abd24"/>
  <g clip-path="url(#clippath-2)">
    <polygon points="394.1225716899 399.4855782817 457.5185677836 165.4678628276 207.140577061 167.9285867045 109.2734658549 373.8105752299 394.1225716899 399.4855782817 394.1225716899 399.4855782817" fill="none" stroke="#1d1d1b" stroke-miterlimit="10" stroke-width="1.5"/>
    <path d="M100.7653481791,378.0035836528l30.6503295898-60.6620025635,3.5897979736-7.3029785156,37.345199585-75.9697265625,3.5897979736-7.3026123047,29.3131103516-61.3193969727c.8899841309-2.0048828125.1380004883-2.374786377-.9060058594-.4454956055l-30.6506958008,60.6620178223-3.5897979736,7.3025817871-37.345123291,75.9696044922-3.5897827148,7.3030090332-29.3130950928,61.3189849854c-.8901367188,2.0050201416-.1376342773,2.3750152588.9062652588.4460144043h0Z" fill="#1d1d1b"/>
    <path d="M205.4965646098,165.0972268412l.3680114746-.8277587891,74.1119995117-.6065063477,9.0629882812-.1672668457,94.2840270996-1.740234375,9.0629882812-.1672973633,37.8389892578-1.0710144043,18.9190063477-.5354919434,9.4590148926-.2677612305,4.7299804688-.1338806152,1.1820068359-.0334472656.2959899902-.0083618164c-.0130004883-.3411865234.1099853516-.3487243652.0029907227-.2875671387-.0139770508.0030822754-.0749816895.037109375-.1129760742.0390319824-.0360107422.0125732422-.1600341797.0310974121-.1449890137.0246887207v.0484619141c-.0039978027.0518188477-.0190124512.1257629395-.0390014648.2015991211-.2270202637.7601928711-.4040222168,1.5257873535-.608001709,2.2883911133-.5540161133,2.3794555664.2559814453,2.5979614258.9739990234.2631835938.2189941406-.7561950684.4129638672-1.5254821777.6529846191-2.270904541.0320129395-.1141662598.0610046387-.2330322266.0769958496-.377532959.007019043-.1454467773.0390014648-.3162231445-.0939941406-.592590332-.0619812012-.133392334-.208984375-.2726135254-.358001709-.338470459-.1449890137-.0619812012-.2760009766-.0722961426-.3739929199-.0718994141l-.2960205078.0025634766-1.1829833984.0101928711-4.7310180664.0407409668-9.4619750977.0815124512-18.924987793.1629943848-37.8480224609.325958252-9.0610351562.1672668457-94.2679748535,1.740020752-9.0609741211.1672363281-74.7700195312,2.0719909668-.6139984131,1.4643859863c-.8829956055,2.2778015137-.1119995117,2.6080932617.9279937744.3977661133h0Z" fill="#1d1d1b"/>
    <path d="M103.3021676371,380.6175820659l157.3694152832,16.0570068359,18.8589782715,1.7449951172,124.2810058594,11.4989929199,3.3390197754-10.8079986572c.9069824219-2.9639892578,1.8540039062-5.9169921875,2.7120056152-8.8960113525,1.7359924316-5.9499816895,3.5480041504-11.879989624,5.1979980469-17.8539886475,1.6909790039-5.9619903564,3.3710021973-11.9279937744,4.967956543-17.9140014648,1.6420288086-5.9759979248,3.2130432129-11.9680023193,4.7720336914-17.9639892578,1.6210021973-6.1100006104,3.1340026855-12.2460021973,4.6979980469-18.3690032959,12.3659973145-51.3139953613,23.0880126953-102.9381103516,35.4869995117-154.1672058105,1.0719604492-4.9882202148-.5530395508-5.4035339355-1.9580078125-.4939575195-13.3729858398,51.030456543-25.0739746094,102.4731445312-38.3780212402,153.4431610107-1.5610046387,6.1100006104-3.0709533691,12.2339935303-4.6879577637,18.3279876709-1.5550231934,5.9800109863-3.1220092773,11.9570159912-4.7579956055,17.9140167236-1.5930175781,5.9689941406-3.2670288086,11.9149780273-4.9530029297,17.8560028076-1.6440429688,5.9549713135-3.4480285645,11.8600006104-5.1780395508,17.7879943848-.8549804688,2.9669952393-1.7979736328,5.9060058594-2.6999816895,8.858001709l-2.1399841309,6.925994873-120.2420043945-11.125-18.8590087891-1.7449951172-157.6433410645-13.0890045166c-5.095703125-.3000030518-5.2501983643,1.3699951172-.1860656738,2.0110015869h0Z" fill="#1d1d1b"/>
  </g>
</svg>