<?xml version="1.0" encoding="UTF-8"?>
<svg id="Ebene_1" data-name="Ebene 1" xmlns="http://www.w3.org/2000/svg" xmlns:xlink="http://www.w3.org/1999/xlink" viewBox="0 0 566.9291338583 566.9291338583">
  <defs>
    <clipPath id="clippath">
      <rect x="62.4645669291" y="156.4645669291" width="441.7870025635" height="255.4950256348" fill="none"/>
    </clipPath>
    <clipPath id="clippath-1">
      <rect x="62.4645669291" y="156.4645669291" width="441.7870025635" height="255.4950256348" fill="none"/>
    </clipPath>
    <clipPath id="clippath-2">
      <rect x="62.4645669291" y="156.4645669291" width="441.7870025635" height="255.4950256348" fill="none"/>
    </clipPath>
    <clipPath id="clippath-3">
      <rect x="62.4645669291" y="156.4645669291" width="441.7870025635" height="255.4950256348" fill="none"/>
    </clipPath>
  </defs>
  <polyline points="475.0145699809 246.7332742045 481.9375436137 233.2630898784 477.1175973246 342.8495766948 470.1945626567 342.5015847514 475.0145699809 246.7332742045" fill="#8abd24"/>
  <path d="M474.1795480082,248.2517983744l-4.3549804688,64.2917785645-.3870239258,7.7050018311-1.2099914551,24.0310058594,10.6800231934.5379943848,2.3299865723-52.970993042.3390197754-7.7070007324.6759643555-25.4159851074.3380126953-12.7086181641.5380249023-17.2428894043-8.0759887695,16.2288818359c-.8350219727,1.9068908691.2829589844,2.4819030762,1.3479614258.6924133301l1.6049804688-2.9941101074.7860107422-1.4656982422.4400024414-.7908935547,1.5140075684-2.6889038086-.2470092773,3.1117858887-.0570068359.6614074707-.0809631348,1.2091064453-.1940307617,3.1722106934-.7789916992,12.6893005371-1.5569763184,25.3769836426-.3390197754,7.7070007324-2.1640014648,49.2010040283-3.166015625-.1600036621,1.0209960938-20.2849884033.3880004883-7.7050170898,2.1220092773-64.4046936035c-.0239868164-2.081817627-1.2799682617-2.1449890137-1.5130004883-.0760803223h0Z" fill="#1d1d1b"/>
  <path d="M493.2195870707,175.920377476l6.9309692383-7.3905944824v160.4387817383c0,4.4760131836-2.6239929199,8.5860137939-6.6849975586,10.4680175781l-41.3809814453,19.1820068359-2.916015625-6.2890014648,41.3809814453-19.1809997559c1.6220092773-.7519989014,2.6700439453-2.3930053711,2.6700439453-4.1800231934v-153.0481872559" fill="#8abd24"/>
  <path d="M492.4615914653,178.9332864116l-1.1170043945,124.5572814941v25.4680175781c-.0060424805.1969909668-.0200500488.3789978027-.0599975586.5659942627-.1520385742.7420043945-.6390380859,1.421005249-1.2919921875,1.7979888916l-13.7550048828,6.3930206299-29.5590209961,13.7019958496,4.492980957,9.6900024414,41.0800170898-19.0410003662,1.2299804688-.5709991455c.4110107422-.1910095215.8030395508-.3650054932,1.2969970703-.6230010986.9320068359-.4880065918,1.8160400391-1.0729980469,2.6069946289-1.7660064697,1.5790100098-1.3849945068,2.8520507812-3.1239929199,3.6350097656-5.0760040283.3940429688-.9729919434.6900024414-1.9889984131.8460083008-3.0299987793.1640014648-1.0330047607.1649780273-2.1529998779.158996582-2.9919891357v-42.0410003662l-1.0529785156-119.5140991211-6.2449951172,6.7510986328c-2.6539916992,3.0180969238-1.7369995117,3.8784790039,1.1049804688,1.0361938477l3.4970092773-3.6349182129-1.0540161133,115.3617248535v42.0410003662c.0050048828.9679870605-.0010070801,1.6629943848-.1149902344,2.4199981689-.1110229492.7480010986-.3270263672,1.4789886475-.6099853516,2.1809997559-.5620117188,1.4099884033-1.4890136719,2.6660003662-2.6229858398,3.6649932861-.5690307617.5-1.2060546875.9170074463-1.8740234375,1.2680053711-.3060302734.1640014648-.7390136719.3609924316-1.149017334.550994873l-1.2300109863.5700073242-37.6779785156,17.4649963379-1.3380126953-2.8860015869,26.1560058594-12.1239929199,6.9639892578-3.2290039062,3.483001709-1.6140136719,1.7409973145-.8069915771.8699951172-.4029998779.4360046387-.2019958496c.175994873-.0890045166.3999938965-.1920166016.5860290527-.3090057373,1.5619812012-.9109954834,2.6920166016-2.4889984131,3.059967041-4.2559967041.0940246582-.4400024414.1340026855-.8959960938.140045166-1.3399963379v-25.4680175781l-1.1180419922-124.5572814941c-.1279907227-4.0172119141-1.3859863281-4.0172119141-1.5149536133,0h0Z" fill="#1d1d1b"/>
  <polygon points="449.8605477641 358.4585854838 206.9725625346 335.9855782817 290.9025704692 163.9557473491 500.8585641215 159.6533486674 449.8605477641 358.4585854838 449.8605477641 358.4585854838" fill="#005538"/>
  <path d="M290.9025704692,163.9557473491l206.0670166016-2.4149475098-9.9080200195,38.9723815918s-186.9360046387-27.7430114746-272.1470031738,113.6143951416l75.9880065918-150.1718292236h0Z" fill="#008939"/>
  <g clip-path="url(#clippath)">
    <path d="M300.9785592387,164.4192788432l-81.4700012207,170.1163024902M310.7765633891,164.3451821635l-79.8120117188,171.395401001M322.2995431254,164.1311623881l-80.9629821777,175.1794128418M332.9605538676,163.5548989604l-77.816986084,174.2776794434M343.332563145,164.3451821635l-76.6409912109,174.9653930664M368.1115853618,162.9786660502l-72.031036377,179.8709106445M378.4835641215,162.9786660502l-69.108001709,179.8709106445M390.008558018,161.8261697123l-69.6140136719,182.0434112549M400.957563145,162.3218972514l-66.7450256348,182.8256835938M413.058545811,161.2499062846l-66.2680053711,187.280670166M440.7185494731,161.8261697123l-60.7940063477,188.4824066162M452.2435738871,161.2499062846l-58.4850158691,189.0586700439M463.7455880473,162.3218972514l-56.4490356445,190.4186859131M476.0655953715,159.6533486674l-53.0640258789,193.0872344971M489.1235482524,161.2499062846l-53.6029968262,194.4166717529M285.8845650981,176.0845925639l211.6049804688-3.6688232422M281.2285592387,186.3689858744l213.216003418-2.3009033203M275.741559727,196.6532876323l215.6580200195-.933013916M271.2525460551,206.9375893901l217.1030273438.4349975586M265.9315621684,217.2218911479l219.3789978027,1.8028869629M260.9435555766,228.3725869487l221.3219909668,3.1708984375M249.6945473979,254.5173928569l224.5890045166,7.275177002M243.6805550883,268.6435830424l226.4049987793,8.6430053711M238.8185708354,278.9275796244l228.2229766846,10.0109863281M233.957563145,289.2115762065l230.0390319824,11.3790283203M229.0955636332,299.4965798686l231.8559875488,12.7459869385M224.2335641215,309.780545933l233.6729736328,14.1150360107M212.5245492289,322.0225808451l239.1430053711,16.1349945068" fill="none" stroke="#8abd24" stroke-miterlimit="10" stroke-width="1.5"/>
    <polygon points="282.5225655864 341.7335641215 277.7505624125 339.6705758403 354.7575509379 161.5667397807 359.5285470317 163.6295754741 282.5225655864 341.7335641215 282.5225655864 341.7335641215" fill="#8abd24"/>
    <polygon points="282.5225655864 341.7335641215 277.7505624125 339.6705758403 354.7575509379 161.5667397807 359.5285470317 163.6295754741 282.5225655864 341.7335641215 282.5225655864 341.7335641215" fill="none" stroke="#1d1d1b" stroke-miterlimit="10" stroke-width="1.5"/>
  </g>
  <polygon points="364.6515939067 351.2895791362 358.9115731547 349.3295876811 422.8655526469 161.9986855815 429.7695443461 161.3939797709 364.6515939067 351.2895791362 364.6515939067 351.2895791362" fill="#8abd24"/>
  <g clip-path="url(#clippath-1)">
    <polygon points="364.6515939067 351.2895791362 358.9115731547 349.3295876811 422.8655526469 161.9986855815 429.7695443461 161.3939797709 364.6515939067 351.2895791362 364.6515939067 351.2895791362" fill="none" stroke="#1d1d1b" stroke-miterlimit="10" stroke-width="2"/>
  </g>
  <polyline points="252.5745675395 242.8229653666 252.6955697368 239.3580910991 478.5365426371 243.8755776713 478.414594395 249.9396645854 252.5745675395 242.8229653666" fill="#8abd24"/>
  <path d="M255.707563145,243.6794717143l130.4730224609,5.2296142578,15.6260070801.4924926758,78.4449768066,2.4718933105.1970214844-9.8350830078-81.8470153809-1.6371154785-15.6300354004-.3126831055-131.0089874268-1.5054016113-.0129852295.4355773926c-.0710144043,5.731628418,1.2489776611,3.9811096191,1.470993042,1.2952270508l.0089874268-.1811218262,129.467010498,3.7049255371,15.6310119629.3126831055,78.0969848633,1.5621948242-.0459899902,2.2932128906-74.6539916992-2.3525085449-15.6260070801-.492401123-130.5429992676-2.9954833984c-4.2129974365-.0042114258-4.2530212402,1.2528686523-.0480041504,1.5139770508h0Z" fill="#1d1d1b"/>
  <path d="M210.9575478862,333.7435738871l234.3710479736,21.1259918213,52.160949707-192.547668457-205.7309875488,2.6736450195-80.8010101318,168.7480316162h0ZM451.8275582621,361.2505776713l-248.841003418-23.0240020752,86.2760009766-176.8370819092,214.9639892578-4.4049377441-52.3989868164,204.2660217285h0Z" fill="#8abd24"/>
  <g clip-path="url(#clippath-2)">
    <polygon points="445.3285958598 354.8695657084 497.4895455668 162.3218972514 291.4815499614 164.3465859721 210.9575478862 333.7435738871 445.3285958598 354.8695657084 445.3285958598 354.8695657084" fill="none" stroke="#1d1d1b" stroke-miterlimit="10" stroke-width="1.5"/>
    <path d="M243.6785714457,257.9866006205l14.4409790039-27.0784301758,1.6090087891-3.30078125,16.7369995117-34.3390197754,1.6090087891-3.3009033203,12.4329833984-28.0579528809c.3179931641-.9454650879-.8129882812-1.4965209961-1.3619995117-.6636657715l-14.441986084,27.0786437988-1.608001709,3.3009033203-16.7379760742,34.3389892578-1.6080169678,3.30078125-12.433013916,28.0584106445c-.3180084229.9450073242.8129882812,1.4960021973,1.3620147705.6630249023h0Z" fill="#1d1d1b"/>
    <path d="M290.2115609477,162.0522134135l.2810058594-.6246948242,60.9199829102-.369140625,7.4570007324-.1376342773,77.5770263672-1.4318847656,7.4569702148-.1376342773,31.1329956055-.9472351074,15.5660400391-.4736022949,7.7829589844-.2368164062,3.8910217285-.1184082031.9729919434-.0295715332.2430419922-.0074157715-.0030517578-.1886291504c.0010375977-.0224914551.0040283203-.0453491211.0090332031-.0682678223.0029907227-.033203125.008972168-.0584106445.0219726562-.0815734863.0050048828-.0228881836.0260009766-.0253601074-.0269775391.0067443848-.0390014648.0198059082-.1350097656.0503234863-.2449951172.055267334-.0970153809.0104675293-.0510253906.0042724609-.0610351562.0086364746l-.0009765625.0191345215c-.0020141602.0344238281-.0130004883.0912780762-.0280151367.1502685547-.1859741211.6268005371-.3299865723,1.2563781738-.4970092773,1.8843994141-.4409790039,1.9617614746.3690185547,2.180267334.9750061035.2631835938.1809997559-.6216125488.342010498-1.2548828125.5400085449-1.8669128418.0280151367-.0973205566.0530395508-.1990966797.0670166016-.3262329102.0059814453-.1282653809.0369873047-.2806091309-.0870361328-.5413208008-.0579833984-.125213623-.1979980469-.2589416504-.3399658203-.3207397461-.1370239258-.0586547852-.2590332031-.0680541992-.3480224609-.0675354004l-.2439575195.0015869141-.9730529785.0063171387-3.8929748535.0252685547-7.7860107422.050567627-15.5709838867.1011047363-31.1420288086.2021789551-7.4549865723.1376037598-77.5610046387,1.431640625-7.4549865723.1376342773-61.5780029297,1.8346557617-.5270080566,1.2612609863c-.7129821777,1.8801269531.058013916,2.2104492188.9280090332.3977966309h0Z" fill="#1d1d1b"/>
    <path d="M206.0515572856,339.2705819438l129.4909973145,13.1039886475,15.516998291,1.4360046387,102.1109924316,9.4470062256,2.7030334473-8.7509918213c.7459716797-2.4390106201,1.5249633789-4.8680114746,2.2310180664-7.3180084229,1.4289550781-4.8950042725,2.9189453125-9.7730102539,4.2759399414-14.68800354,1.3920288086-4.9049987793,2.7730102539-9.81199646,4.0880126953-14.7369995117,1.3500366211-4.916015625,2.6420288086-9.8460083008,3.9250183105-14.7789916992,1.3340148926-5.0270080566,2.5790100098-10.074005127,3.865020752-15.1119995117,10.2089538574-42.2083129883,19.0669555664-84.6770935059,29.3039550781-126.820526123.8940429688-4.1013793945-.3249511719-4.4128723145-1.4689941406-.3704528809-10.967956543,41.9944763184-20.5589599609,84.3276672363-31.4719848633,126.2779541016-1.283996582,5.0270385742-2.5260009766,10.0670166016-3.8569946289,15.0810241699-1.2800292969,4.9209899902-2.5690307617,9.8389892578-3.916015625,14.7409973145-1.3110046387,4.9120025635-2.6879882812,9.8049926758-4.075012207,14.6940002441-1.3540039062,4.8999786377-2.8379516602,9.7599945068-4.2609863281,14.6380004883-.7040100098,2.4420013428-1.4799804688,4.8609771729-2.2229614258,7.2899932861l-1.8040466309,5.8400115967-99.0799865723-9.1670074463-15.5169677734-1.4360046387-129.6970214844-10.8779907227c-4.1920166016-.2590026855-4.308013916.9940032959-.1400146484,1.5079956055h0Z" fill="#1d1d1b"/>
    <path d="M323.4915902446,367.8505837748s18.4749755859,14.2229919434,10.2389526367,19.1560058594c-61.7619934082,36.9909667969-149.6149902344,18.4960021973-163.8170013428,15.1929931641,0,0-29.9476776123-6.6609954834-37.6509857178-8.5870056152-33.0274047852-8.2570037842-33.68800354-21.1380004883-33.68800354-21.1380004883l1.321105957-10.8990020752s2.9725036621-4.6239929199,3.9633026123-4.953994751l1.9817047119-4.2939910889,3.6329956055-3.6330108643,3.6329956055-5.9449920654s4.2485046387-24.2920227051,10.8990936279-36.9900360107c6.6505126953-12.6979675293,18.8256072998-24.1099853516,18.8256072998-24.1099853516,0,0,3.9632873535-7.9270019531,13.2109985352-15.8540039062,9.2472076416-7.9259643555,24.4402008057-11.2287902832,24.4402008057-11.2287902832,0,0,8.9179992676-4.9541931152,14.2019958496-4.9541931152s13.541015625,1.321105957,13.541015625,1.321105957c0,0,14.5319824219.6605834961,20.1470031738,2.3119812012,5.6149902344,1.6513366699,24.4399871826,5.9449157715,32.0369873047,16.8439025879,0,0,1.4899902344.5729980469,3.4930114746,1.5770263672,4.8589782715,2.4359741211,8.7649841309,6.4259643555,11.1959838867,11.2879638672l6.1180114746,12.2360229492.6600036621,2.641998291s11.8899841309,17.5050048828,12.8809814453,26.4219970703c.9909973145,8.9179992676,5.615020752,24.1099853516,5.615020752,24.1099853516l2.3119812012,2.9730224609,2.0010070801.1510009766c7.9070129395,4.8029785156,12.2010192871,6.1239929199,18.8060302734,16.3619995117h0Z" fill="#008939"/>
  </g>
  <path d="M147.4552743266,285.0625893901s-27.082611084,20.2559814453-29.0642089844,49.7609710693l-3.3028106689,29.5040283203h.0001068115c7.8981018066,9.4229888916,19.7807922363,14.5639801025,32.0559997559,13.8689880371l3.8338012695-.2169952393c-8.4887084961-44.1909942627-4.0962982178-65.4519958496,1.299697876-75.5780029297,3.2565002441-6.1099853516,1.1104888916-13.7030029297-4.7932891846-17.3219909668l-.029296875-.016998291h0Z" fill="#8abd24"/>
  <path d="M144.3726479838,279.1175820659s13.2071075439-9.1260070801,17.8348083496-11.2300109863c7.2661132812-3.3029785156,18.4951019287-.8799743652,29.945098877,3.0830078125,5.3050079346,1.8359985352,23.5590057373,11.2290039062,27.5229949951,16.7340087891.9270172119,1.2879943848,8.587020874,14.0909729004,8.587020874,14.0909729004l-8.1470184326-21.5780029297-26.2019958496-14.7519836426-15.8529968262-3.7430114746-16.0733032227-.6599731445-13.2109069824,11.4489746094-4.4037017822,6.6060180664h0Z" fill="#8abd24"/>
  <path d="M150.5377633403,277.1355874369c5.0642089844-1.3210144043,17.3947906494-10.7890014648,54.3847961426,13.6510009766,6.1730041504,4.0789794922,13.4320068359,32.5869750977,13.4320068359,32.5869750977l-17.9260101318-23.4989624023c-5.68699646-7.4550170898-13.0909881592-13.4470214844-21.6190032959-17.3480224609-1.966003418-.8999938965-3.7599945068-1.6770019531-5.0489959717-2.1499938965-16.3751983643-6.008026123-23.2227935791-3.2409973145-23.2227935791-3.2409973145h0Z" fill="#005538"/>
  <path d="M180.4825570414,254.5667702983s28.4039916992,3.4128112793,32.8069915771,5.8348083496c4.404006958,2.4219970703,20.4770050049,11.450012207,22.6790008545,17.1740112305,2.2019958496,5.7250061035,12.3300018311,20.4769897461,12.3300018311,18.2749938965,0-2.2010192871-11.2289886475-30.825012207-11.2289886475-30.825012207l-7.4859924316-4.6239929199-27.0830078125-7.9266052246-7.8160095215-2.8623962402-14.2019958496,4.9541931152h0Z" fill="#8abd24"/>
  <path d="M237.0695626567,265.0255715678l9.9970092773,7.066986084c1.8170013428,1.2840270996,3.2610015869,3.0260009766,4.1849975586,5.0500183105l11.3589782715,24.8739929199-25.5409851074-36.9909973145h0Z" fill="#005538"/>
  <path d="M109.4736611674,348.6945779155l.5402984619,1.5050048828c3.2700042725,9.1049957275.1734924316,15.949005127,8.8175048828,20.2940063477,10.6669921875,5.3609771729,34.292098999,12.9089813232,39.1925048828,14.9720001221,8.366607666,3.5229949951,18.49559021,7.4859924316,18.49559021,7.4859924316l-16.7341003418-2.641998291s-10.5688018799.8809967041-25.9815979004-5.283996582c-15.4127960205-6.1660003662-34.7888946533-10.6790008545-33.4678039551-21.5780029297,1.321105957-10.8990020752,9.1376037598-14.7530059814,9.1376037598-14.7530059814h0Z" fill="#005538"/>
  <path d="M311.5505502055,398.3465707133c2.5500183105-1.0909881592,5.1120300293-2.0989837646,7.6040039062-3.3249816895,5.049041748-2.4840087891,9.8840026855-5.3740234375,14.7699890137-8.1580047607.3070068359-.1750183105.608001709-.2550048828.8959960938-.2700042725,1.0100097656-1.2659912109,1.5520019531-2.5279998779,1.5520019531-3.7700042725,0-.9880065918-.6269836426-2.4949951172-1.6929931641-4.3040008545-.9849853516-1.1149902344-2.1180114746-2.157989502-3.1940002441-3.1639862061-1.0819702148-1.0130004883-2.1950073242-2.0070037842-3.1659851074-3.1300048828-.5729980469-.6620025635-1.1440124512-1.3950042725-1.4620056152-2.2030029297-.7819824219-.5240020752-1.5690002441-1.0390014648-2.2539978027-1.6460113525-1.9189758301-1.6959838867-3.3149719238-3.8829803467-5.050994873-5.7519836426-.5520019531-.5940093994-.6470031738-1.2819976807-.467010498-1.887008667-4.9389648438-4.2809906006-9.8549804688-7.4290008545-13.0989990234-7.4189910889-.6439819336.0019989014-1.4479980469-1.104019165-2.3500061035-2.9479980469-.0650024414-.0250091553-.1299743652-.0410003662-.1949768066-.0690002441-1.6240234375-.7050018311-2.8079833984-1.9710083008-3.4570007324-3.6060028076-.5160217285-1.3020019531-.5680236816-2.7270202637-.6430053711-4.1090087891-.0079956055-.1389923096-.0679931641-.6389923096-.0530090332-.5749969482-.0379943848-.2509918213-.0780029297-.5029907227-.1210021973-.7539978027-.1220092773-.6959991455-.2579956055-1.3899993896-.3760070801-2.0879974365-.1499938965-.8880004883-.3609924316-1.8979949951-.3280029297-2.8570098877-3.8809814453-12.0559844971-7.6699829102-25.5430145264-8.3299560547-22.1859893799-.3000183105,1.5269927979-12.524017334-26.0030212402-11.1450195312-21.1369934082.5390014648,1.9039916992,2.3110046387,6.3419799805,4.7960205078,12.216003418,14.7059631348,34.7589874268-7.8960266113,73.9489898682-45.3380279541,78.6979675293l-67.8720092773,8.6080169678s18.1390075684,8.1480102539,16.8180084229,14.31300354c0,0,38.5720062256,2.3899993896,59.1450042725,1.9799957275,22.2259979248-.4420013428,45.8109893799-4.3470153809,63.2380218506-9.6429901123.5869750977-.2820129395,1.1759643555-.5590057373,1.7749633789-.8150177002h0Z" fill="#005538"/>
  <path d="M326.9055611918,391.4715859721c1.6770019531-.7470092773,3.3519897461-1.5260009766,4.9760131836-2.4390106201.8119812012-.4570007324,1.6139831543-.941986084,2.3819885254-1.5249938965.383026123-.2920074463.7590026855-.608001709,1.1129760742-.9860076904.3520202637-.3849945068.6590270996-.8509979248.8680419922-1.3559875488.4209594727-1.0270080566.3769836426-2.1439971924.1569824219-3.1220245361-.2260131836-.9869842529-.6219787598-1.8860015869-1.0690002441-2.7369842529-.9029846191-1.7009887695-2.0500183105-3.2029876709-3.2560119629-4.6290130615-1.2109985352-1.425994873-2.5069885254-2.7619781494-3.8469848633-4.0469970703-.6699829102-.6429901123-1.3540039062-1.2700042725-2.0480041504-1.8859863281l-1.0529785156-.9129943848-.5350341797-.450012207-.2709960938-.2239990234-.1390075684-.1119995117-.0369873047-.0299987793c.1060180664.1160125732-.2510070801-.2699890137.2359924316.2580108643l-.0060119629-.0090026855-.0119934082-.0180053711-.0469970703-.074005127c-1.9729919434-3.1349945068-4.174987793-6.2140045166-6.9609985352-8.8399963379-1.3469848633-1.2359924316-2.8190002441-2.3369903564-4.3289794922-3.3179931641-1.6849975586-1.0950012207-3.3999938965-2.0650024414-5.0820007324-3.0469970703l-2.5030212402-1.4830169678c-.0269775391-.0129852295-.1869812012-.1219940186-.2829589844-.1539916992l-.1850280762-.0820007324-.3340148926-.1490020752-.6699829102-.2980041504-1.0899963379-.4849853516-1.3619995117-1.5429992676-.5450134277-2.3400115967-1.2210083008-5.2410125732-2.4409790039-10.4819793701-1.2210083008-5.2409973145c-.1969909668-.8670043945-.4899902344-1.7929992676-.7579956055-2.6690063477-.3120117188-.8639984131-.5930175781-1.7480010986-.9460144043-2.5870056152-1.3439941406-3.3989868164-2.9219970703-6.6549987793-4.5780029297-9.8619842529-.8139953613-1.5679931641-1.6510009766-3.1210021973-2.5049743652-4.6640014648-.9210205078-1.5939941406-1.8600158691-3.1770019531-2.816986084-4.7479858398l-1.45703125-2.3489990234-.1669921875-.2630004883c-.009979248-.0170288086.0039978027.0149841309-.0230102539-.0440368652l-.0709838867-.1569824219-.283996582-.6269836426-.5680236816-1.2540283203c-1.4679870605-3.3649902344-3.1640014648-6.6239929199-4.7479858398-9.9329833984l-1.2059936523-2.4720153809c-.4210205078-.8359985352-.899017334-1.6730041504-1.4129943848-2.4549865723-1.0220031738-1.5859985352-2.224029541-3.049987793-3.5570068359-4.3760070801-2.6600036621-2.6560058594-5.9620056152-4.657989502-9.4210205078-5.949005127-1.3459777832-.5119934082-1.625.2789916992-.3880004883.9320068359,3.3550109863,1.3869934082,6.3720397949,3.3779907227,8.8210144043,5.9840087891,1.2179870605,1.2979736328,2.3049926758,2.7169799805,3.2149963379,4.2409973145.4649963379.7640075684.8710021973,1.532989502,1.2460021973,2.3450012207l1.1170043945,2.5020141602c1.4649963379,3.3469848633,3.041015625,6.6419677734,4.3869934082,10.0379638672l.5220031738,1.2650146484.2609863281.6329956055.0650024414.1580200195c.0220031738.0440063477.0690002441.1869812012.1260070801.2649841309l.190032959.3219909668,1.3579711914,2.3659973145c.8940124512,1.5860290527,1.7690124512,3.183013916,2.6260070801,4.7879943848.8439941406,1.5250244141,1.6699829102,3.058013916,2.4719848633,4.6030273438,1.6300048828,3.1559906006,3.1790161133,6.3579864502,4.4689941406,9.6219787598.342010498.8130187988.6020202637,1.6390075684.899017334,2.4579925537.2539978027.8360137939.5079956055,1.6190032959.708984375,2.4990081787l1.217010498,5.2250061035,2.4339904785,10.450012207,1.217010498,5.2259979248.6730041504,2.8929901123c.0769958496.2050018311.2770080566.3460083008.408996582.5220031738l.2359924316.266998291.4440002441.5039978027,1.0700073242,1.2109985352,2.7799987793,1.2430114746,2.541015625,1.504989624c1.6940002441.9880065918,3.3810119629,1.9459991455,4.9749755859,2.9810028076,1.4290161133.9290008545,2.7730102539,1.93699646,4.0110168457,3.0720062256,2.6329956055,2.3159942627,4.8369750977,5.1629943848,6.8589782715,8.1490020752l.048034668.0690002441.0119628906.0179901123.0060119629.0080108643c.4899902344.533996582.1399841309.1519927979.2510070801.271987915l.0309753418.0230102539.1320495605.0989837646.2649536133.203994751.5299987793.4160003662,1.0510253906.8520202637c.6949768066.5749969482,1.3809814453,1.1620025635,2.0520324707,1.7639923096,1.342956543,1.2040100098,2.641998291,2.4559936523,3.8479614258,3.7810058594,1.1999816895,1.324005127,2.333984375,2.7189941406,3.199005127,4.2259979248.8500061035,1.4759979248,1.5119934082,3.2030029297.9960021973,4.6100006104-.2380065918.6900024414-.8050231934,1.2669830322-1.4860229492,1.8220062256-.6719665527.5479888916-1.4230041504,1.0410003662-2.1900024414,1.5059967041-1.5369873047.9349822998-3.158996582,1.7590026855-4.7989807129,2.5569915771-1.2590026855.6910095215-.875,1.4360046387.4270019531.9150085449h0Z" fill="#1d1d1b"/>
  <path d="M207.7825600932,250.3545815776c-3.5719909668-.6539916992-7.154006958-1.2232971191-10.8070068359-1.5529174805-.9279937744-.0661010742-1.8069915771-.1583862305-2.7989959717-.1335754395-.9999847412.0014953613-1.9399871826.1666870117-2.8760070801.338104248-1.8609924316.3739013672-3.629989624.9536743164-5.367980957,1.592590332-.8200073242.3369750977-1.6310119629.6883850098-2.4309997559,1.0611877441-1.0420227051.4817199707-2.0690155029.9870300293-3.0880126953,1.5249023438l-.3789978027.2026062012c.0050048828-.003112793.0010070801-.0011901855.0010070801-.0011901855l-.0880126953.0207824707-.8419952393.2059936523-1.6630096436.4426269531c-2.2029876709.6190795898-4.3759765625,1.3274841309-6.5199890137,2.1237792969-4.2800140381,1.6061096191-8.4687042236,3.5521240234-12.3278961182,6.1381225586-.7295074463.5169677734-1.4820861816.9959716797-2.1719055176,1.5780029297-2.846282959,2.425994873-5.3643035889,5.0729675293-7.6879882812,7.9229736328-2.3119049072,2.8469848633-4.4015045166,5.8640136719-6.0981140137,9.125-.267791748.6780090332.4894104004,1.0400085449.8847198486.4869995117,1.8560943604-3.0390014648,4.1058807373-5.8559875488,6.5367736816-8.458984375,2.4257202148-2.5969848633,5.0958099365-5.0310058594,7.9048156738-7.1069946289.6340942383-.5380249023,1.3462982178-.9890136719,2.0281982422-1.4739990234,3.6264038086-2.4320068359,7.6613922119-4.3150024414,11.8043823242-5.8680114746,2.0760040283-.7709960938,4.1870117188-1.4599914551,6.3190307617-2.0588989258l1.600982666-.4262084961.7980041504-.1952819824.324005127-.0740966797c.1389923096-.0178222656.2469940186-.1192016602.379989624-.1786193848l.3660125732-.1952819824c.9719848633-.5128173828,1.9659881592-1.0025024414,2.9669799805-1.4650268555.7700195312-.3588867188,1.5480041504-.6955871582,2.3290100098-1.0168762207,1.608001709-.7210083008,3.2480010986-1.382598877,4.908996582-1.8355102539.8270111084-.2109069824,1.6669921875-.4164123535,2.4769897461-.4695129395.8130187988-.0825805664,1.7430267334-.0565795898,2.6190185547-.0529785156,3.566986084.0752868652,7.1690063477.3941955566,10.7470092773.7987060547.6989746094.0207824707.8349761963-.8067016602.1509857178-.9984130859h0Z" fill="#1d1d1b"/>
  <path d="M142.6252724955,281.0185830424l-.1938018799.2949829102-.253112793.2300109863-.6128997803.5650024414-1.2085876465,1.1459960938c-.7971954346.7709960938-1.584197998,1.5539855957-2.3629150391,2.3440246582-1.5576019287,1.5809936523-3.0628967285,3.2149658203-4.5385894775,4.8779907227-2.9285888672,3.3449707031-5.7267150879,6.8280029297-8.1862182617,10.5869750977-.5599975586.9190063477-1.1278991699,1.8309936523-1.634979248,2.7850341797-.7051086426,1.2099609375-1.2985076904,2.492980957-1.9158172607,3.758972168-.546295166,1.2890014648-1.1381988525,2.5650024414-1.6117858887,3.8730163574-1.028213501,2.5959777832-1.8676147461,5.2419891357-2.6979064941,7.8869934082-1.5995025635,5.3070068359-2.9449920654,10.671005249-4.1125946045,16.0700073242l-.6562957764,3.1179962158-.4550933838,2.7259979248-.1078186035.6849975586-.0479888916.31300354c-.0018157959.0240020752-.0060119629.0690002441-.0060119629.0690002441l-.6197967529,1.0879974365-2.6739044189,4.6719818115-3.5121002197,3.717010498-5.3997955322,8.93800354c-.3896942139.7649993896.3155975342,1.2180023193.849395752.546005249l5.7975006104-8.4790039062,3.75390625-3.5490112305,3.054397583-4.7019805908.8123016357-1.2550048828c.1535949707-.1800079346.1295013428-.3849945068.1847991943-.5810089111l.0761871338-.3609924316.1437072754-.6660003662.6004943848-2.6640167236.649520874-3.0859832764c1.1554870605-5.3450012207,2.487991333-10.6519927979,4.0608978271-15.8710021973.8152923584-2.5970001221,1.6400909424-5.1959991455,2.6373901367-7.7120056152.4613037109-1.2760009766,1.0299987793-2.4959716797,1.5547027588-3.7369995117.5881958008-1.2030029297,1.1468048096-2.41796875,1.8271942139-3.583984375.4847106934-.9140014648,1.0341949463-1.7950134277,1.5745239258-2.6820068359,2.1672821045-3.7600097656,4.7138977051-7.3289794922,7.4091796875-10.7799987793,1.3595123291-1.7179870605,2.7536010742-3.4129943848,4.2039031982-5.0610046387.7247924805-.8239746094,1.4588012695-1.6409912109,2.2034912109-2.4469909668l1.1288146973-1.1980285645.5710906982-.5899658203.1434936523-.1470031738c.0646057129-.0670166016.1365203857-.1260070801.1944122314-.2010192871l.2380828857-.4109802246c.3726043701-.7730102539-.342590332-1.2109985352-.8613739014-.5270080566h0Z" fill="#1d1d1b"/>
  <g clip-path="url(#clippath-3)">
    <path d="M100.437162144,359.7865884135c-.7456054688.9919891357-1.2478942871,2.3519897461-1.3616027832,3.5849914551l-.5294952393,3.5940093994-.529510498,3.5949859619-.2733917236,1.8830108643c.0067901611.2769775391.0471038818.4579925537.0718841553.6230010986.0233154297.1799926758.0717163086.3349914551.1106109619.5009918213.0724945068.3330078125.1804046631.6430053711.2929992676.9519958496.8961029053,2.4800109863,2.5051116943,4.5110015869,4.2351074219,6.3370056152.9068908691.8690032959,1.8092956543,1.7539978027,2.8096923828,2.5030059814.9570159912.8159942627,1.9953155518,1.5,3.0284118652,2.1979980469.9860992432.6809997559,2.0575866699,1.1889953613,3.0913848877,1.7740020752,5.4521026611,2.8970031738,11.2608947754,4.8990020752,17.1197052002,6.5449829102,1.4689025879.3860015869,2.9365997314.8450164795,4.4064941406,1.1690063477l4.4087219238,1.0260009766,8.8174743652,2.0520019531,3.3903198242.7890014648,28.4825897217,5.8610076904c.9320068359.1289978027,1.1190032959-.68800354.2260131836-.9840240479l-28.1202087402-7.3069763184-3.3869018555-.7880096436-8.8083953857-2.0489959717-4.4042053223-1.0249938965c-1.4763183594-.3260040283-2.8898010254-.7720031738-4.3379058838-1.1520080566-5.7402038574-1.6100006104-11.4068908691-3.5719909668-16.6177978516-6.3430023193-.983291626-.5579986572-2.0167999268-1.0449981689-2.9401092529-1.68699646-1.0066986084-.6080169678-2.0261993408-1.203994751-2.9508972168-1.9179992676-.9792785645-.6540222168-1.845199585-1.4270019531-2.7292938232-2.18800354-1.6703033447-1.5849914551-3.2218933105-3.379989624-4.0805969238-5.4389953613-.1092071533-.2550048828-.2145996094-.5110015869-.2825012207-.7680206299-.0370025635-.1279754639-.0874023438-.2609863281-.1065979004-.3799743652-.0269927979-.1330108643-.057510376-.2490081787-.0571899414-.2740020752l.1617889404-1.7230072021.3447113037-3.6169891357.3446044922-3.6170043945c.0662994385-1.1849975586.3787841797-2.1890106201,1.025680542-3.1849975586.4314117432-.8370056152-.275680542-1.2870178223-.8515930176-.5429992676h0Z" fill="#1d1d1b"/>
    <path d="M331.6125619243,387.6455819438c-14.5110168457,8.0890045166-30.4680175781,13.225982666-46.7109985352,16.18699646l-5.8320007324,1.1109924316c-20.3120117188,3.4710083008-41.1029968262,3.9769897461-61.6969909668,2.4459991455-1.983001709-.1239776611-3.9590148926-.3300018311-5.9390258789-.4909820557-8.2749938965-.5950012207-16.5410003662-1.4830169678-24.7630004883-2.7060089111-4.1109924316-.6089935303-8.2119750977-1.2959747314-12.2979888916-2.0679931641-4.0829925537-.7860107422-8.1689910889-1.6529998779-12.2554931641-2.4759979248-1.6020050049-.2320098877-1.8883972168.9919891357-.3413085938,1.4759979248,4.0548095703,1.0070037842,8.091796875,2.0530090332,12.1647949219,3.0279998779,4.0760192871.9600067139,8.1730194092,1.8369750977,12.2860107422,2.6340026855,8.2259979248,1.6019744873,16.5210113525,2.8710021973,24.8600006104,3.8450012207,2.0029907227.1639709473,4.0019836426.3719787598,6.0090026855.4979858398,20.842010498,1.5480194092,41.9219970703,1.0450286865,62.6170043945-2.4919891357l5.9449768066-1.1320037842c16.4140014648-3.7540130615,32.4170227051-9.7180023193,46.7210083008-18.5529937744,1.3510437012-.9120025635.6940002441-1.9840087891-.7659912109-1.3070068359h0Z" fill="#1d1d1b"/>
  </g>
  <path d="M100.1231667826,361.1595895121c-.108001709,2.4889984131-.0267028809,5.0019989014.62550354,7.4979858398.342590332,1.2360076904.8333892822,2.4990081787,1.7765808105,3.574005127.9055175781.9770050049,1.9124145508,1.7640075684,2.9671020508,2.4920043945,4.2713165283,2.7979888916,9.0330047607,4.3789978027,13.5067138672,6.2529907227,1.0849914551.4120025635,2.1029052734.8650054932,3.3370819092,1.2899932861,3.0019073486.9750061035,5.957611084,1.6900177002,8.9392089844,2.4389953613,2.9757995605.7389984131,5.9552154541,1.4310150146,8.9349060059,2.1250152588l17.8838043213,4.0489959717,3.4342956543.779006958c2.4022064209.4839782715,4.8032073975.9730072021,7.1891937256,1.4900054932.592010498.133972168,1.199005127.254989624,1.7779998779.3999938965l1.7089996338.4620056152,1.6790161133.5839996338,1.6449890137.6940002441c4.3350067139,1.9929962158,8.2769927979,4.9639892578,11.5989990234,8.4650115967.6639862061.6409759521,1.3310089111.1309814453.7579956055-.6670379639-3.2389984131-3.7749786377-7.1130065918-7.0309753418-11.5869903564-9.3759765625l-1.7070159912-.8229980469-1.7619934082-.7150115967-1.8159942627-.5909881592c-.6029968262-.1829986572-1.1930084229-.3320007324-1.7899932861-.5-2.3800048828-.6430206299-4.7590026855-1.2539978027-7.1395111084-1.8610229492l-3.4394073486-.7789764404-17.871673584-4.0470123291c-2.9710235596-.691986084-5.9434204102-1.3829956055-8.8977203369-2.1159973145-2.9430999756-.7369995117-5.9315032959-1.4669952393-8.7415008545-2.3819885254-.9906005859-.3350067139-2.1245880127-.8290100098-3.2351837158-1.2530059814-4.6499176025-1.6670074463-9.3679199219-2.9970092773-13.4629974365-5.3999938965-.9967193604-.6130065918-1.965423584-1.3050079346-2.7683105469-2.0880126953-.7268066406-.737991333-1.2340087891-1.7910003662-1.5932922363-2.8909912109-.7094116211-2.2259979248-.9282226562-4.6730041504-.9413146973-7.0760192871-.0476989746-.9239807129-.8835906982-1.0029907227-1.0094909668-.0289764404h0Z" fill="#1d1d1b"/>
  <path d="M151.3049599955,277.419584019c2.1766967773-.6979980469,4.1816101074-1.4760131836,6.332901001-1.8399963379,2.1293945312-.375,4.2907104492-.5720214844,6.4526977539-.433013916,4.3249969482.1900024414,8.5770111084,1.2579956055,12.6949920654,2.6500244141l2.9530181885,1.049987793c5.0809936523,1.9369812012,10.0390014648,4.2869873047,14.7779998779,7.049987793,1.18699646.6870117188,2.395980835,1.33203125,3.5649871826,2.0520019531l3.4840087891,2.1979980469,1.7420043945,1.0989990234.8719787598.549987793c.233001709.1890258789.4219970703.2920227051.632019043.5170288086.828994751.8059997559,1.5690002441,1.9159851074,2.2309875488,3.050994873.5179901123.8739929199.9790039062,1.8039855957,1.4349975586,2.7339782715,1.9680023193,3.8780212402,3.5890197754,8.0030212402,5.0989990234,12.1540222168,1.4970092773,4.1609954834,2.8710021973,8.3789978027,4.1270141602,12.6269989014.2980041504.8049926758,1.1119995117.6009979248.9759979248-.2570037842-1.0220184326-4.3359985352-2.1620025635-8.6409912109-3.4359893799-12.9189758301-1.2920227051-4.2750244141-2.6860046387-8.5250244141-4.5100097656-12.6830444336-.4800109863-.9789733887-.9640197754-1.9569702148-1.5299987793-2.9139709473-.7350158691-1.2430114746-1.5190124512-2.4779968262-2.6730041504-3.608001709-.262008667-.2810058594-.6640014648-.5549926758-.9739990234-.7890014648l-.8829956055-.5570068359-1.766998291-1.1149902344-3.533996582-2.2280273438c-1.1849975586-.7309570312-2.4179992676-1.3899841309-3.625-2.0879821777-4.8190002441-2.808013916-9.8920135498-5.2189941406-15.1420135498-7.2189941406l-3.0590057373-1.0870056152c-4.3609771729-1.2090148926-8.8649902344-2.0780029297-13.4349822998-2.0220031738-2.2789001465-.0179748535-4.5616149902.3160095215-6.7732086182.8380126953-2.2187042236.5029907227-4.3327026367,1.4579772949-6.3401031494,2.2269897461-.7483062744.3309936523-.5818939209,1.1560058594.3067016602.9620056152h0Z" fill="#1d1d1b"/>
  <path d="M161.266950352,262.8995644877c4.7126159668-1.3289794922,9.5676116943-1.6209716797,14.361618042-1.0149841309,4.7919769287.5700073242,9.470993042,1.8959960938,14.0130004883,3.5480041504l3.2559967041,1.2309875488c1.4239807129.4970092773,2.7900085449,1.1560058594,4.174987793,1.7610168457,1.3840026855.6089782715,2.7709960938,1.2109985352,4.1090087891,1.9279785156l4.0520019531,2.0599975586,3.9549865723,2.2550048828c2.6679992676,1.4479980469,5.1820068359,3.1730041504,7.7680206299,4.7670288086l.963973999.6079711914c.183013916.1069946289.274017334.1950073242.3790283203.2800292969.10597229.0929870605.2169952393.1510009766.3239898682.283996582.2149810791.2309875488.43800354.4530029297.6399841309.741973877.2129974365.2619934082.4120025635.550994873.603012085.8550109863.7770080566,1.1969909668,1.4519958496,2.5289916992,2.0849914551,3.8789978027.4760131836,1.0469970703.9360046387,2.108001709,1.3659973145,3.1860046387,1.9179992676,4.4559936523,3.5500030518,9.0800170898,5.0860137939,13.7299804688,1.5279998779,4.6550292969,2.9470062256,9.3550262451,4.262008667,14.0810241699.3109741211.8979949951,1.1259765625.7029876709.9799957275-.245010376-1.0790100098-4.8059997559-2.2630157471-9.5849761963-3.5610198975-14.3419952393-1.3089904785-4.7550048828-2.7139892578-9.4890136719-4.4479980469-14.158996582-.4429931641-1.1069946289-.9179992676-2.2070007324-1.4159851074-3.3010253906-.6669921875-1.4189758301-1.3740081787-2.8269958496-2.2630004883-4.1989746094-.216003418-.3430175781-.4509887695-.6840209961-.7190093994-1.0180053711-.2400054932-.3380126953-.549987793-.666015625-.8610076904-.9899902344-.2949829102-.3020019531-.7789916992-.6790161133-1.0819854736-.8699951172l-.9770050049-.6170043945c-2.6220092773-1.6180114746-5.1639862061-3.3600158691-7.8789978027-4.8350219727l-4.0199890137-2.2919921875-4.1320037842-2.1010131836c-1.3620147705-.7289733887-2.7819976807-1.3469848633-4.199005127-1.9709777832-1.4189910889-.6189880371-2.8140106201-1.2909851074-4.2809906006-1.8050231934l-3.3489990234-1.2649841309c-4.7680053711-1.467010498-9.6700134277-2.5929870605-14.6720123291-2.9320068359-2.4939880371-.2070007324-5.0149841309-.1149902344-7.5019989014.149017334-2.4889984131.2649841309-4.9489898682.8949890137-7.2852020264,1.6389770508-.8826904297.3340148926-.6820831299,1.149017334.2675933838.9739990234h0Z" fill="#1d1d1b"/>
  <path d="M251.6935708354,303.0545937846c-2.1620025635-8.0490112305-4.4770050049-16.0530090332-7.1220245361-23.9880065918l-1.0619812012-2.8130187988c-.9400177002-2.4329833984-1.9210205078-4.8540039062-3.0240020752-7.2469787598-.56300354-1.1940002441-1.1389923096-2.3840026855-1.8089904785-3.558013916-.3460235596-.5869750977-.6890106201-1.1709899902-1.1110076904-1.75-.3970031738-.5670166016-.9049987793-1.1820068359-1.5800018311-1.699005127l-.9459991455-.5719909668c-.3190002441-.199005127-.6340026855-.3710021973-.93699646-.4960021973-.6139984131-.2749938965-1.2290039062-.575012207-1.8440093994-.8280029297-1.2299957275-.4800109863-2.4580078125-.9769897461-3.6940002441-1.3949890137-2.466003418-.8869934082-4.9479980469-1.6690063477-7.4329833984-2.4431152344l-2.8700256348-.8719787598c-8.0679931641-2.1505126953-16.1719970703-4.0717163086-24.2989807129-5.9016113281-.8030090332-.1155090332-1.0060119629.6982116699-.2490234375.9786987305,7.9890136719,2.3068847656,15.9570007324,4.7066040039,23.8310089111,7.3179931641l2.8480072021.865020752c2.4620056152.7659912109,4.9229888916,1.5429992676,7.3330078125,2.4099731445,1.2189941406.4120178223,2.391998291.8890075684,3.5759887695,1.3500061035.5820007324.240020752,1.1319885254.5100097656,1.700012207.7630004883.2980041504.1210021973.5489807129.2630004883.7779998779.4100036621l.7220001221.424987793c.6899871826.5220031738,1.3979949951,1.6370239258,2.0050048828,2.6780090332.6149902344,1.0760192871,1.1689758301,2.2190246582,1.7099914551,3.3680114746,1.066986084,2.3129882812,2.032989502,4.6959838867,2.9599914551,7.0960083008l1.0490112305,2.7779846191c3.083984375,7.6870117188,5.8699951172,15.5289916992,8.5009765625,23.4109802246.3100280762.7450256348,1.115020752.5110473633.9670257568-.2879638672h0Z" fill="#1d1d1b"/>
  <path d="M202.7565743754,250.633268101l3.5589904785.6218261719,1.7919921875.3128967285,1.8450012207.1502990723c2.391998291.2001953125,4.7820129395.4383850098,7.1629943848.7163085938,2.3789978027.2812805176,4.7540130615.6015014648,7.0859985352,1.026184082,1.1549987793.2272949219,2.324005127.4535827637,3.4040222168.7814025879l3.4429931641,1.0527038574,3.2989959717.9527893066c5.6790008545,1.7088928223,11.245010376,3.8309020996,16.2590026855,6.827911377,2.5059967041,1.4879760742,4.8370056152,3.25,6.7819976807,5.3309936523.5270080566.4890136719.9360046387,1.0650024414,1.3779907227,1.617980957l.5589904785.7060241699.4220275879.9559936523,1.8150024414,4.1159973145,1.3959960938,3.1650085449,12.3399963379,26.1360168457c.4539794922.8179931641,1.2209777832.4799804688.9239807129-.4080200195l-10.9769897461-26.7359924316-1.3959960938-3.166015625-1.8149719238-4.1159973145-.4860229492-1.1019897461c-.2059936523-.3730163574-.3150024414-.433013916-.4349975586-.6110229492l-.3680114746-.4669799805c-.4930114746-.6199951172-.9620056152-1.2650146484-1.5350036621-1.8030090332-2.1539916992-2.300994873-4.6659851074-4.1860046387-7.3110046387-5.7590026855-5.2959747314-3.1619873047-11.0369873047-5.3356018066-16.8299865723-7.0814819336l-3.3479919434-.966796875-3.516998291-.8800048828c-1.2440185547-.3057250977-2.4550170898-.4725036621-3.6720275879-.6479187012-2.4269714355-.3136901855-4.8419952393-.5122070312-7.2579956055-.6723937988-2.4149780273-.1564025879-4.8280029297-.271697998-7.242980957-.348815918l-1.7610168457-.0494995117-1.7799835205-.216796875-3.5860137939-.4375c-.9339904785-.0520019531-1.0570068359.7775268555-.1479797363.9989013672h0Z" fill="#1d1d1b"/>
  <path d="M305.9615609477,364.6665780375c-3.5150146484,5.3860015869-8.1860046387,10.0160064697-13.4280090332,13.7060089111-1.283996582.9639892578-2.6789855957,1.7679901123-4.033996582,2.6199951172-1.4100036621.7640075684-2.7860107422,1.5859985352-4.2550048828,2.2299957275-2.8670043945,1.4290008545-5.9029846191,2.4690093994-8.9779968262,3.375-.7309875488.2319946289-1.449005127.5010070801-2.191986084.7040100098l-2.2430114746.5599822998c-7.7730102539,1.9740142822-15.7900085449,3.1149902344-23.8320007324,3.8480072021-8.0510101318.7070007324-16.1419830322,1.0510101318-24.2380065918,1.1630096436l-4.6709899902.033996582c-13.0029907227.2400054932-26.0450134277-.0149993896-39.0429992676-.8200073242-1.2600097656-.0189971924-1.342010498.8160095215-.0879974365,1.0060119629,13.0039825439,1.3039855957,26.0519866943,2.0569915771,39.1340026855,2.3139953613l4.6989898682-.033996582c8.1479949951-.1130065918,16.2990112305-.4589996338,24.4340057373-1.1730194092,8.1290130615-.7419891357,16.2540130615-1.8929901123,24.2299957275-3.9170074463l2.300994873-.5759735107c.7630004883-.2089996338,1.5119934082-.4869995117,2.2680053711-.7270050049,3.1409912109-1.0559997559,6.2520141602-2.2599945068,9.1719970703-3.8549957275,1.4940185547-.7259979248,2.8909912109-1.6309967041,4.3160095215-2.4759979248,1.3700256348-.9340057373,2.7730102539-1.8200073242,4.0619812012-2.8639984131,5.2610168457-4.0170135498,9.8460083008-8.9190063477,13.2510375977-14.5970153809.5809631348-1.1669921875-.1750183105-1.5349884033-.865020752-.5209960938h0Z" fill="#1d1d1b"/>
</svg>