<?xml version="1.0" encoding="UTF-8"?>
<svg id="Ebene_1" data-name="Ebene 1" xmlns="http://www.w3.org/2000/svg" xmlns:xlink="http://www.w3.org/1999/xlink" viewBox="0 0 566.9291338583 566.9291338583">
  <defs>
    <clipPath id="clippath">
      <rect x="104.4645669291" y="191.4645669291" width="357.8649902344" height="184.3430175781" fill="none"/>
    </clipPath>
    <clipPath id="clippath-1">
      <rect x="104.4645669291" y="191.4645669291" width="357.8649902344" height="184.3430175781" fill="none"/>
    </clipPath>
    <clipPath id="clippath-2">
      <rect x="104.4645669291" y="191.4645669291" width="357.8649902344" height="184.3430175781" fill="none"/>
    </clipPath>
  </defs>
  <g clip-path="url(#clippath)">
    <path d="M457.0776040385,205.6320779155c3.0619506836,5.8703918457,2.1319580078,13.2814025879-2.798034668,18.2098999023l-94.0989990234,94.1015930176c-.7519836426.7490081787-1.6769714355,1.2189941406-2.6459655762,1.4060058594h.0029602051c3.0270385742,3.0279846191,7.9360046387,3.0279846191,10.9639892578,0l85.0010375977-85.000793457c7.7879638672-7.7882995605,8.9789733887-19.6726074219,3.575012207-28.7167053223" fill="#ebf2da"/>
    <path d="M335.8765542338,293.6395852397l94.1010131836-94.1013183594c4.9280395508-4.9284667969,12.3389892578-5.8606262207,18.2099914551-2.7964477539-9.0439758301-5.4030761719-20.9289855957-4.2129211426-28.7169494629,3.5752868652l-85.0010375977,85.001159668c-3.0279846191,3.0277099609-3.0279846191,7.9363098145,0,10.9642944336.1870117188-.9689941406.6569824219-1.8930053711,1.4069824219-2.6429748535" fill="#ebf2da"/>
  </g>
  <path d="M345.9275796244,313.6265694926l-5.7359924316-5.7359771729c-.7770080566-.7760009766-.7770080566-2.0369873047,0-2.8140258789l104.3959655762-104.3958435059c2.3610229492-2.3608093262,6.1890258789-2.3608093262,8.5500183105,0,2.3609924316,2.360748291,2.3609924316,6.1891479492,0,8.5499572754l-104.3939819336,104.3958892822c-.7790222168.7770233154-2.0390014648.7770233154-2.8160095215,0" fill="#f5f1e9"/>
  <path d="M346.2815835307,313.2735726664c.5799865723.5800018311,1.5260009766.5810089111,2.1099853516-.0009918213l104.391998291-104.3955993652c1.0480041504-1.0473937988,1.6250305176-2.4399108887,1.6250305176-3.9213867188,0-1.4814147949-.5770263672-2.8740234375-1.6250305176-3.9213867188-1.0459899902-1.0473632812-2.4389953613-1.6240234375-3.9200134277-1.6240234375-1.483001709,0-2.875.5766601562-3.9219970703,1.6240234375l-104.3969726562,104.3963623047c-.5800170898.5809936523-.5800170898,1.5250244141,0,2.1060180664l5.7369995117,5.7369842529h0ZM347.3345620463,314.7085854838c-.6380004883,0-1.2760009766-.2430114746-1.7600097656-.728012085l-5.7369689941-5.7370147705c-.9710083008-.9709777832-.9710083008-2.549987793,0-3.5199584961l104.3970031738-104.3964233398c1.2359924316-1.236328125,2.8799743652-1.9169921875,4.6289672852-1.9169921875,1.748046875,0,3.3910522461.6806640625,4.6280517578,1.9169921875,1.2359619141,1.2362976074,1.9169616699,2.8799133301,1.9169616699,4.6284179688,0,1.7489929199-.6809997559,3.392578125-1.9169616699,4.6283874512l-104.3940429688,104.3965911865c-.4859924316.4850006104-1.125.728012085-1.7630004883.728012085h0Z" fill="#fff"/>
  <path d="M429.9765603373,199.5389993022l-94.100982666,94.1015930176c-2.0010070801,2-2.0010070801,5.2469787598,0,7.2479858398l4.2590026855,4.2590026855c.0199890137-.0249938965.0369873047-.0489807129.0579833984-.0710144043l104.3940124512-104.3960876465c2.3639831543-2.3608093262,6.1900024414-2.3608093262,8.5529785156,0l-1.1439819336-1.1414794922c-6.0800170898-6.0796508789-15.9389953613-6.0796508789-22.0190124512,0" fill="#f5f1e9"/>
  <path d="M430.3295571635,199.8926064799l-94.100982666,94.100982666c-1.8020019531,1.8039855957-1.8020019531,4.7369995117,0,6.5409851074l3.8999938965,3.9000244141,104.1050415039-104.107421875c1.5859985352-1.5844726562,3.7919921875-2.1850585938,5.842956543-1.8002929688-2.6029968262-1.9775390625-5.7640075684-3.0473632812-9.0899963379-3.0473632812-4.0260009766,0-7.8110046387,1.5673828125-10.6570129395,4.4130859375h0ZM340.1975686381,305.8665749858l-.4159851074-.3659973145-4.2600097656-4.258972168c-2.1929931641-2.1930236816-2.1929931641-5.7620239258,0-7.9550170898l94.1010131836-94.1010131836c3.0360107422-3.0346679688,7.0709838867-4.7060546875,11.3639831543-4.7060546875s8.3280334473,1.6713867188,11.3619995117,4.7060546875l1.1440124512,1.1411132812v.0004882812l-.7069702148.7075195312-.0050354004-.0068359375c-2.1640014648-2.1547851562-5.6800231934-2.1513671875-7.8399963379.0063476562l-104.3940124512,104.3963623047-.3489990234.4360046387h0Z" fill="#fff"/>
  <g clip-path="url(#clippath-1)">
    <path d="M454.2805764506,201.8226907084l-1.141998291-1.1414794922c2.3609924316,2.3607788086,2.3609924316,6.1891784668,0,8.5500793457l-104.3959960938,104.3962860107c-.0220031738.0220031738-.0490112305.0359954834-.0710144043.0560150146l4.2590332031,4.2589874268c2.0009765625,2.0029907227,5.2479553223,2.0029907227,7.2479858398,0l94.1019897461-94.1010894775c6.0790100098-6.0797119141,6.0790100098-15.9391174316,0-22.0187988281" fill="#d9e7e9"/>
    <path d="M431.5585610698,195.8125283549c-3.9599914551.85546875-7.7030029297,2.8295898438-10.7329711914,5.8593444824l-85.0000305176,85.0014953613c-1.1029968262,1.1015014648-1.7099914551,2.5674133301-1.7099914551,4.1269226074,0,.5693969727.0809936523,1.1262817383.2369995117,1.6572875977.0559997559-.0589904785.1119995117-.1170043945.1690063477-.1750183105l94.1000061035-94.100402832c.1850280762-.18359375.3710021973-.3627929688.5619812012-.537109375v-.0004882812c.0029907227-.0029296875.0060119629-.0048828125.0090332031-.0078125.0009765625-.0004882812.0009765625-.0009765625.0019836426-.0014648438.0019836426-.0024414062.0049743652-.0043945312.0059814453-.0063476562.0010070801-.0009765625.0020141602-.0024414062.0039978027-.0034179688.0010070801-.0014648438.0039978027-.0034179688.0050048828-.0048828125.0020141602-.001953125.0029907227-.0029296875.0050354004-.0043945312.0009765625-.0014648438.0039672852-.0034179688.0049743652-.0043945312.0019836426-.001953125.0039978027-.0034179688.0060119629-.0048828125.0009765625-.0014648438.0030212402-.0029296875.0039978027-.00390625.0020141602-.001953125.0040283203-.00390625.0059814453-.005859375.0010375977-.0009765625.0029907227-.001953125.0040283203-.0029296875.0019836426-.001953125.0029907227-.0043945312.0059814453-.0063476562.0010070801-.0009765625.0020141602-.001953125.0029907227-.0024414062.0020141602-.0024414062.0050048828-.0048828125.007019043-.0068359375.0009765625-.0004882812.0019836426-.001953125.0029907227-.0024414062.0029907227-.0024414062.0050048828-.0048828125.008026123-.0068359375.0009765625-.0004882812.001953125-.0014648438.001953125-.001953125.0030212402-.0029296875.0060119629-.0048828125.0090332031-.0078125l.0009765625-.0009765625c.0029907227-.0029296875.0050354004-.0053710938.0079956055-.0083007812.0010070801,0,.0010070801-.0004882812.0020446777-.0009765625.0029907227-.0024414062.0059814453-.0053710938.008972168-.0083007812,0,0,.0010070801-.0004882812.0010070801-.0009765625.0029907227-.0029296875.0059814453-.0053710938.009979248-.0083007812v-.0009765625c.0039978027-.0024414062.007019043-.0053710938.0100402832-.0083007812l.0009765625-.0004882812c.0029907227-.0034179688.0059814453-.005859375.0090026855-.0087890625v-.0004882812c.0040283203-.0029296875.007019043-.005859375.009979248-.0087890625l.0010070801-.0004882812c.007019043-.005859375.0140075684-.01171875.0200195312-.0180664062h.0009765625c.0029907227-.0034179688.0060119629-.0063476562.0090026855-.0092773438h0c.0039978027-.0029296875.0069885254-.005859375.0100097656-.0087890625l.0009765625-.0004882812c.0030212402-.0029296875.0070495605-.005859375.0100097656-.0087890625,0,0,0-.0004882812.0010070801-.0004882812.0029907227-.0029296875.0060119629-.005859375.0090332031-.0083007812.0009765625-.0004882812.0009765625-.0009765625.0009765625-.0009765625.0039978027-.0029296875.0069885254-.0053710938.0090026855-.0083007812,0-.0004882812.0010070801-.0004882812.0010070801-.0009765625.0029907227-.0029296875.0059814453-.0053710938.009979248-.0083007812q0-.0004882812.0010375977-.0009765625c.0029602051-.0024414062.0059509277-.0048828125.008972168-.0078125,0-.0004882812.0009765625-.0009765625.0009765625-.0014648438.0030212402-.0024414062.0060119629-.0048828125.0090026855-.0073242188l.0020141602-.001953125c.0029907227-.0024414062.0059814453-.0043945312.0079956055-.0073242188,0-.0004882812.0010375977-.0009765625.0020141602-.0014648438.0020141602-.0024414062.0050048828-.0048828125.0079956055-.0073242188.0009765625-.0004882812.0020141602-.0014648438.0029907227-.001953125.0020141602-.0024414062.0050048828-.0043945312.0069885254-.0068359375.0010070801-.0009765625.0020141602-.0014648438.0030517578-.0024414062.0029602051-.001953125.0049743652-.00390625.0069580078-.0063476562.0010070801-.0004882812.0029907227-.001953125.0040283203-.0029296875.0019836426-.001953125.0039672852-.0034179688.0060119629-.0053710938.0009765625-.0014648438.001953125-.0024414062.0039672852-.00390625.0019836426-.0014648438.0040283203-.0034179688.0050048828-.0048828125.0020141602-.0014648438.0040283203-.0029296875.0059814453-.0043945312.0010375977-.0009765625.0030212402-.0024414062.0040283203-.00390625.0019836426-.0014648438.0050048828-.0034179688.0059814453-.0053710938.0010070801-.0004882812.0029907227-.001953125.0039978027-.0029296875.0020141602-.001953125.0050048828-.00390625.0069885254-.0063476562.0010070801-.0004882812.0020141602-.0009765625.0020141602-.0014648438.6459960938-.5615234375,1.324005127-1.0698242188,2.0289916992-1.5234375h0ZM431.3325784037,200.8930947612l-94.1010131836,94.1015014648c-1.25,1.2509765625-1.25,3.2879638672.0010070801,4.5399780273l2.8949890137,2.8939819336,103.1050109863-103.102355957c.6929931641-.6938476562,1.4920043945-1.244140625,2.3609924316-1.6357421875-.2550048828-.0922851562-.5109558105-.17578125-.7679748535-.251953125-1.2310180664-.3583984375-2.5209960938-.5439453125-3.8380126953-.5439453125-3.3909912109,0-6.5930175781,1.2270507812-9.0989990234,3.4716796875,0,.0004882812.0009765625,0,0,0-.0020141602.0024414062-.0039978027.0043945312-.007019043.0063476562-.0009765625.0004882812-.0009765625.0009765625-.0019836426.0014648438-.0020141602.001953125-.0039978027.00390625-.0060119629.0053710938-.0009765625.0009765625-.0019836426.001953125-.0019836426.0024414062-.0019836426.0014648438-.0039978027.0029296875-.0050048828.0043945312s-.0019836426.0024414062-.0030212402.0034179688c-.001953125.0014648438-.0029907227.0024414062-.0039978027.0034179688-.0019836426.0014648438-.0039978027.0029296875-.0049743652.0043945312-.0009765625.0009765625-.0020141602.0014648438-.0030212402.0024414062-.0019836426.0014648438-.0039978027.00390625-.0059509277.0053710938-.0010375977.0004882812-.0010375977.0009765625-.0020446777.0014648438-.0019836426.0024414062-.0050048828.0043945312-.0069885254.0068359375h0c-.1710205078.1547851562-.3399963379.3149414062-.5039978027.4794921875h0ZM347.2825600932,312.2725808451c.0300292969.0289916992.0780029297.0289916992.1090087891-.0020141602l104.3909912109-104.3940734863c.7799987793-.7798156738,1.2090148926-1.81640625,1.2090148926-2.919921875,0-1.1029968262-.4290161133-2.1397094727-1.2090148926-2.9193725586-.7699890137-.7710571289-1.7890014648-1.1997680664-2.8739929199-1.2109985352-1.1399841309-.0537109375-2.1740112305.4184570312-2.9639587402,1.2099914551l-104.3260192871,104.3223876953c-.0230102539.0290222168-.0460205078.0559997559-.065032959.0769958496-.0079956055.0079956055-.0169677734.0180053711-.0249938965.0270080566-.0069885254.0239868164-.0010070801.0539855957.0180053711.0729980469l5.7359924316,5.7369995117h0ZM361.3655679057,319.4635903666c1.9860229492.5829925537,4.2179870605.0939941406,5.7810058594-1.4690093994l85.0010375977-85.0013885498c3.0309448242-3.0303039551,5.0049438477-6.7744140625,5.8599853516-10.736328125-.673034668,1.0454101562-1.4650268555,2.0322265625-2.3740234375,2.9404296875l-94.0979919434,94.1012878418c-.0559997559.0549926758-.1130065918.1109924316-.1700134277.1650085449h0ZM363.0195596049,323.5325600932c-2.4769897461,0-4.9519958496-.9419708252-6.8379821777-2.8269805908-.5010070801-.5009918213-.6849975586-1.237991333-.4779968262-1.9160003662.2080078125-.6780090332.7729797363-1.18699646,1.4679870605-1.3209991455.6260070801-.1209869385,1.1980285645-.4260101318,1.6550292969-.8830108643l94.0969848633-94.0991821289c3.7939758301-3.7920227051,4.9839782715-9.3301086426,3.2040100098-14.2608032227-.3900146484.8686828613-.9410400391,1.6679992676-1.6350097656,2.3617858887l-104.3930053711,104.3962097168c-1.5260009766,1.5210113525-4.0050048828,1.5229949951-5.5270080566,0h0l-5.7369995117-5.7369995117c-1.0039978027-1.0050048828-1.3450012207-2.425994873-1.0249938965-3.7140197754l-3.2890014648-3.2879638672c-1.4570007324-1.4590148926-2.1409912109-3.4020080566-2.049987793-5.3160400391-1.4180297852-1.7239685059-2.1890258789-3.867980957-2.1890258789-6.1282653809,0-2.5830078125,1.0050048828-5.01171875,2.8320007324-6.8379211426l85.0010070801-85.0014038086c8.2149963379-8.216796875,20.8909912109-9.8354492188,30.8890380859-3.962890625,1.5839538574.8188476562,3.049987793,1.8872070312,4.3469848633,3.1845703125l1.1419677734,1.1450195312v.0004882812c1.2140197754,1.2133789062,1.9880065918,2.7509155273,2.2409973145,4.4174194336.766998291-.138092041,1.5680236816.199798584,1.9890136719.9034118652,5.9869995117,10.021484375,4.3970031738,22.7919921875-3.8649902344,31.0550842285l-85.0009765625,85.0015106201c-1.8860168457,1.8850097656-4.3620300293,2.8269805908-6.8380432129,2.8269805908h0Z" fill="#1d1d1b"/>
  </g>
  <path d="M454.2805764506,201.8226907084l-1.141998291-1.1414794922c2.3609924316,2.3607788086,2.3609924316,6.1891784668,0,8.5500793457l-104.3959960938,104.3962860107c-.0220031738.0220031738-.0490112305.0359954834-.0710144043.0560150146l4.2590332031,4.2589874268c2.0009765625,2.0029907227,5.2479553223,2.0029907227,7.2479858398,0l94.1019897461-94.1010894775c6.0790100098-6.0797119141,6.0790100098-15.9391174316,0-22.0187988281" fill="#f5f1e9"/>
  <path d="M349.3865639994,313.6905801127l3.8970336914,3.8990020752c.8749694824.8739929199,2.0359802246,1.3550109863,3.2719726562,1.3550109863,1.2350158691,0,2.3959960938-.4810180664,3.2700195312-1.3550109863l94.1010131836-94.1017913818c2.8459777832-2.8462219238,4.4129638672-6.6303100586,4.4129638672-10.6557006836,0-3.3228149414-1.066986084-6.4804992676-3.0400085449-9.0825195312.072052002.3940124512.1100158691.7973022461.1100158691,1.2065124512,0,1.7489929199-.6809692383,3.392578125-1.91796875,4.62890625l-104.1050415039,104.1055908203h0ZM356.5555703471,319.9445779155c-1.5030212402,0-2.9159851074-.5849914551-3.9790039062-1.6479949951l-4.6289978027-4.6310119629.3880004883-.3529968262.3649902344.342010498-.282989502-.4070129395,104.3670043945-104.3695831299c1.0480041504-1.0474243164,1.625-2.4400024414,1.625-3.9219055176,0-1.4814147949-.5769958496-2.8739929199-1.625-3.9213867188l.70703125-.70703125,1.1419677734,1.1416015625c3.0350341797,3.0346069336,4.7059936523,7.0703125,4.7059936523,11.3628234863,0,4.2924804688-1.6709594727,8.3280944824-4.7059936523,11.3627929688l-94.1010131836,94.1016998291c-1.0620117188,1.06199646-2.4739990234,1.6479949951-3.9769897461,1.6479949951h0Z" fill="#fff"/>
  <g clip-path="url(#clippath-2)">
    <path d="M351.3895852397,313.6905801127l2.8959960938,2.8970031738c1.2120056152,1.2139892578,3.3269958496,1.2139892578,4.5369873047.0009918213l94.1020202637-94.1027069092c2.5789794922-2.5780944824,3.9990234375-6.0068969727,3.9990234375-9.6537780762,0-1.595703125-.2720336914-3.1499023438-.7940063477-4.6089172363-.3910522461.8691101074-.9410400391,1.6694030762-1.6360473633,2.3638000488l-103.1039733887,103.1036071777h0ZM356.5555703471,321.3615853618c-1.8819885254,0-3.6499938965-.7330169678-4.9799804688-2.0640106201l-4.2590026855-4.2589874268c-.3710021973-.3710021973-.574005127-.8770141602-.5610046387-1.4010162354.0119934082-.5239868164.2389831543-1.0199890137.6269836426-1.3719787598.0220031738-.0210113525.0500183105-.0440063477.0790100098-.0690155029l104.3220214844-104.320602417c.7799682617-.7797851562,1.208984375-1.8168945312,1.208984375-2.9194030762,0-1.1034851074-.4290161133-2.1401977539-1.208984375-2.9198913574h0c-.7490234375-.7485656738-.7490234375-1.9619445801,0-2.7104797363.7479553223-.7490234375,1.9599609375-.7485351562,2.7099609375-.0004882812h0l1.141998291,1.1416015625c3.3030090332,3.3027648926,5.1210021973,7.6938476562,5.1210021973,12.3647766113,0,4.6708984375-1.8179931641,9.0619812012-5.1210021973,12.3646850586l-94.1019592285,94.1018066406c-1.3280334473,1.3299865723-3.0960083008,2.06300354-4.9780273438,2.06300354h0Z" fill="#1d1d1b"/>
    <path d="M360.3025491069,319.0335824321c2.2040100098,1.154006958,4.9950256348.8099975586,6.8440246582-1.0390014648l85.0010375977-85.0013885498c3.1099853516-3.1099243164,5.1839599609-7.3682250977,5.8399658203-11.9893188477.7109985352-5.0195007324.0269775391-9.4867858887-2.0330200195-13.2763061523-.1359863281-.2504882812-.4259643555-.7260742188-.5759887695-.9447937012v-.0010070801c-2.5189819336-3.7016906738-4.9549560547-6.583984375-8.6530151367-8.6181640625-3.9219970703-2.1572265625-8.5319824219-3.0942382812-12.9839782715-2.6435546875-.8880004883.0903320312-1.7720031738.2358398438-2.625.431640625-1.8099975586.4155273438-3.5320129395,1.0522460938-5.1180114746,1.892578125-1.8980102539,1.0053710938-3.6379699707,2.29296875-5.1729736328,3.8276062012l-85.0000305176,85.0014953613c-1.8500061035,1.8486022949-2.1959838867,4.6396179199-1.0409851074,6.8442077637.2090148926.0060119629.4199829102.0469970703.625.1260070801.9880065918.3799743652,1.4809875488,1.4879760742,1.1029968262,2.4750061035-.4540100098,1.1829833984-.1709899902,2.5249938965.7200012207,3.4159851074l4.2579956055,4.2559814453c.7239990234.7250366211.7510070801,1.8910522461.0610046387,2.6470336914l5.7319946289,5.8349914551c.7550048828-.6889953613,2.0209960938-.6700134277,2.7449951172.0569915771l4.2560119629,4.2590026855c.8900146484.8880004883,2.2319946289,1.1739959717,3.4170227051.7190093994.9839782715-.375,2.0949707031.1159973145,2.4749755859,1.1039886475.0780029297.2040100098.1189880371.4150085449.1259765625.6220092773h0ZM363.0195596049,323.5325600932c-2.1789855957,0-4.3569946289-.7289733887-6.1319885254-2.18699646-1.9629821777.087020874-3.8910217285-.6259765625-5.3119812012-2.0459899902l-3.2920227051-3.2929992676c-1.2899780273.3280181885-2.7059936523-.0189971924-3.7099914551-1.0220031738l-5.7380065918-5.737991333c-1.0050048828-1.0050048828-1.3489990234-2.4220275879-1.0229797363-3.7120056152l-3.291015625-3.2899780273c-1.4219970703-1.4240112305-2.1390075684-3.3630371094-2.0469970703-5.3100280762-3.1159973145-3.7969970703-2.9030151367-9.4301757812.6399841309-12.9721984863l85.0010070801-85.0014038086c1.8040161133-1.8046875,3.8529968262-3.3203125,6.0880126953-4.5043945312,1.8819885254-.9965820312,3.9190063477-1.7504882812,6.0549926758-2.2407226562,1.0069885254-.2314453125,2.0490112305-.4028320312,3.0969848633-.5092773438,5.2200012207-.5327148438,10.6220092773.5703125,15.2180175781,3.0986328125,4.3649902344,2.4013671875,7.1439819336,5.662109375,9.9729919434,9.8193664551.2130126953.3120117188.5890197754.9292297363.7760009766,1.2713928223,2.4609985352,4.5298156738,3.2900085449,9.7935180664,2.4599914551,15.6460266113-.7719726562,5.4384765625-3.2309875488,10.4682922363-6.9239807129,14.1620788574l-85.0009765625,85.0015106201c-1.8860168457,1.8850097656-4.3620300293,2.8269805908-6.8380432129,2.8269805908h0Z" fill="#1d1d1b"/>
    <path d="M108.6151254008,280.6928994487c1.6059417725.4198608398,3.2412109375-.5498352051,3.6547851562-2.1543273926,2.2866668701-8.8563842773,11.1904602051-14.6855163574,20.2836608887-13.2616882324,4.841796875.7567749023,9.2670898438,3.7373046875,12.4604949951,8.3916015625,3.5155944824,5.125,4.9086914062,11.4433898926,3.7270050049,16.9022827148-1.6718902588,7.723815918-7.1844940186,14.548828125-12.2206878662,20.3408203125-11.9922180176,13.7939758301-18.7627105713,26.0079956055-12.8266143799,40.7769927979,4.0341033936,10.037979126,12.3715209961,17.5780029297,22.875,20.68699646,3.4648132324,1.0260009766,6.9980010986,1.5310058594,10.5038909912,1.5310058594,7.4477081299,0,14.7689971924-2.2799987793,21.0371246338-6.68699646l8.0199737549-5.6420135498c18.7788085938-13.203994751,40.9068145752-17.407989502,62.3118286133-11.8329925537,3.0970001221.8079986572,6.0439758301,1.6399993896,8.8929748535,2.4440002441l.141998291.0399932861c18.2870178223,5.1690063477,32.733001709,9.2540130615,50.4770202637-4.891998291.0610046387-.0489959717.1199951172-.0999908447.1770019531-.1529998779l35.7909851074-33.4160003662-4.0950012207-4.3850097656-35.7039794922,33.3350219727c-15.2920227051,12.1389923096-27.1220092773,8.7949829102-45.0150146484,3.7379760742l-.141998291-.0410003662c-2.8780212402-.81300354-5.8540039062-1.6529846191-9.0119934082-2.4769744873-23.1380004883-6.0250091553-47.0308074951-1.5020141602-67.2755126953,12.7319793701l-8.0199890137,5.6410064697c-7.7098999023,5.4229888916-17.3271026611,6.995010376-26.38621521,4.3120117188-8.7353973389-2.587020874-15.6645965576-8.8460083008-19.0107879639-17.1720123291-4.2168121338-10.4899902344-1.0218963623-19.8679962158,11.7872009277-34.6019897461,5.5249023438-6.3539886475,11.5843963623-13.8960113525,13.5570983887-23.0080108643,1.5243988037-7.043182373-.2113952637-15.1047058105-4.6436004639-21.5657043457-4.1376953125-6.0311889648-9.9907073975-9.9111022949-16.4813995361-10.9256896973-12.1011047363-1.8945922852-23.9712219238,5.87890625-27.02003479,17.6893920898-.4140777588,1.6044921875.55078125,3.2403259277,2.1547851562,3.6543273926" fill="#f5f1e9"/>
    <path d="M129.8162667582,263.1635720561c1.0034179688,0,2.0160980225.0772094727,3.0313110352.2362976074,5.3632965088.837890625,10.2406921387,4.1036071777,13.7333984375,9.1934204102,3.8056030273,5.5478820801,5.3070983887,12.4190063477,4.0170898438,18.3798828125-1.7666015625,8.1624145508-7.4531860352,15.2144165039-12.6441040039,21.1854095459-15.9486846924,18.3450012207-16.5302886963,28.7869873047-12.4974822998,38.8209991455,3.8168945312,9.4969940186,11.7084960938,16.6300048828,21.6517944336,19.574005127,3.2549133301.9649963379,6.6073913574,1.4530029297,9.9643859863,1.4530029297,7.1469268799,0,14.0438995361-2.1930084229,19.9443054199-6.342010498l8.0195007324-5.6409912109c19.2442016602-13.5330047607,41.9320983887-17.8380279541,63.8841094971-12.1180114746,3.1209869385.8150024414,6.0739898682,1.6490020752,8.9300079346,2.4550018311l.1409912109.0390014648c18.4639892578,5.2200012207,31.7990112305,8.987991333,48.7770080566-4.5480041504l34.4679870605-32.175994873-1.5010070801-1.608001709-34.3159790039,32.0379943848c-.0370178223.0360107422-.075012207.0680084229-.115020752.0999908447-16.0529785156,12.7410125732-28.9119873047,9.1080169678-46.7079772949,4.0800018311l-.1580200195-.0459899902c-2.9100036621-.8209991455-5.8529815674-1.6519927979-8.9639892578-2.4629974365-22.5890045166-5.8849945068-45.9229125977-1.4609985352-65.703704834,12.4479980469l-8.0195007324,5.6399841309c-8.1884918213,5.758026123-18.3999023438,7.4250183105-28.0191040039,4.5800170898-9.2953948975-2.7530059814-16.6703948975-9.4179992676-20.2342987061-18.2849884033-4.5323028564-11.2760009766-1.2485961914-21.1840209961,12.1162109375-36.5579986572,5.3701019287-6.174987793,11.2567901611-13.490020752,13.1342010498-22.1636047363,1.4161071777-6.5409851074-.2114105225-14.0506896973-4.3535003662-20.0879211426-3.8383026123-5.5956726074-9.2391967773-9.1903991699-15.2080078125-10.1239929199-11.1513061523-1.7411804199-22.0785827637,5.4092102051-24.8866882324,16.287109375-.1518707275.5868835449.20262146,1.1885070801.7900238037,1.3398742676.0019683838.0010375977.0034179688.0010375977.0053863525.0019226074.2831878662.0722961426.5751953125.033203125.826171875-.1152038574.2538909912-.1493835449.4345703125-.3887023926.5083007812-.67578125,2.2734375-8.8057250977,10.4604034424-14.9004211426,19.3861999512-14.9004211426h0ZM157.0726601909,375.8075845073c-3.7226867676,0-7.4379882812-.5420074463-11.0434875488-1.6110076904-11.0629882812-3.274017334-19.8461914062-11.2200012207-24.0980987549-21.7989959717-6.2958984375-15.6649932861.7055053711-28.4120178223,13.1551971436-42.733001709,4.8813934326-5.6129760742,10.221206665-12.2130126953,11.7979125977-19.49609375,1.0731964111-4.9570007324-.2119140625-10.7236022949-3.4370117188-15.4248046875-2.8946075439-4.2188110352-6.8672027588-6.9141235352-11.18699646-7.5898132324-8.1280059814-1.275390625-16.1045074463,3.9355163574-18.1504211426,11.8593139648-.3276519775,1.2715148926-1.1313476562,2.337890625-2.2627105713,3.0029907227-1.1279296875.662109375-2.446762085.8466186523-3.712387085.5146179199-2.6127929688-.677734375-4.1884765625-3.3525085449-3.5141601562-5.966796875,3.2915039062-12.75,16.0946807861-21.1416015625,29.1537780762-19.0918273926,7.0122070312,1.095703125,13.3179016113,5.2608032227,17.7543945312,11.7276000977,4.7221984863,6.8847351074,6.56640625,15.4980163574,4.93359375,23.0428161621-2.0678863525,9.5530090332-8.3007965088,17.3200073242-13.9804992676,23.8529815674-12.2528839111,14.0940093994-15.3583831787,22.9430236816-11.4579925537,32.6460113525,3.12890625,7.7850036621,9.6118927002,13.6379852295,17.7875976562,16.0589904785,8.4976043701,2.5190124512,17.5215148926,1.0429992676,24.7535095215-4.0429992676l8.0199890137-5.6419830322c20.7104187012-14.5610046387,45.1596984863-19.1840057373,68.8477172852-13.0160064697,3.1489868164.8209838867,6.1099853516,1.6569976807,8.9729919434,2.4650115967l.2290039062.0659942627c17.9199829102,5.06199646,28.7489929199,8.125,43.2479858398-3.3549957275l35.6480102539-33.2820281982c.7680053711-.7149658203,1.9700012207-.6739807129,2.6849975586.0920410156l4.0950012207,4.384979248c.3439941406.3679962158.5270080566.8579864502.5100097656,1.3619995117-.016998291.5030059814-.2340087891.9790039062-.6020202637,1.3229980469l-35.7909851074,33.4159851074c-.0890197754.0840148926-.1860046387.1680145264-.2870178223.2480163574-18.5069885254,14.7550048828-34.1100158691,10.3440093994-52.174987793,5.2399902344l-.1459960938-.0410003662c-2.8400115967-.8020019531-5.774017334-1.6309814453-8.8580169678-2.4349822998-20.8499908447-5.4320068359-42.4219818115-1.3300170898-60.7389831543,11.5489959717l-8.0196075439,5.6399993896c-6.5443878174,4.6020050049-14.1967010498,7.0350036621-22.1303100586,7.0350036621h0Z" fill="#1d1d1b"/>
    <path d="M459.5455605815,220.7892739604c.7579956055-5.3536987305.0289916992-10.1182861328-2.1679992676-14.1601867676-.1459960938-.2671203613-.4549865723-.7744140625-.6139831543-1.0077209473v-.0009765625c-2.6880187988-3.9481201172-5.2850036621-7.0223083496-9.2300109863-9.1919250488-4.183013916-2.3008117676-9.1000061035-3.300201416-13.8479919434-2.819519043-.9470214844.0963439941-1.8900146484.2515258789-2.7990112305.460357666-1.9309997559.4432067871-3.7680053711,1.1223144531-5.458984375,2.0185852051-2.0250244141,1.0722961426-3.8810119629,2.4455871582-5.5169677734,4.0824279785l-7.3520507812,7.3516540527c-.4230041504.925201416-.8909912109,1.8392028809-1.3970031738,2.8104248047-1.358001709,2.6011047363-1.8800048828,4.9035949707-1.8249511719,7.909576416.1109619141,6.144317627,5.5339660645,7.091796875,8.8389587402,11.74609375,4.6539916992,6.5596923828,3.0830078125,14.5757141113,5.3129882812,21.867401123,1.3970031738,1.391418457,3.2450256348,2.403717041,5.0650024414,2.795715332.4700317383.1012878418.9470214844.1842956543,1.4330444336.2518005371.6719665527.0943908691,1.3479614258.0723876953,2.0149536133-.0111083984l21.3150024414-21.3151855469c3.3170166016-3.3168945312,5.5299987793-7.8587036133,6.2290039062-12.7874145508h0Z" fill="#e6007e"/>
    <path d="M425.2795693705,250.7573830912c1.0670166016.9422912598,2.3909912109,1.6307983398,3.700012207,1.9120788574.4229736328.091796875.8499755859.166015625,1.2849731445.2265319824.257019043.0370788574.5340270996.0488891602.8290100098.0390930176l20.7900085449-20.7915039062c3.0100097656-3.0093078613,5.0180053711-7.1426086426,5.6539916992-11.6387023926h0c.6979980469-4.9135131836.0440063477-9.2562866211-1.9400024414-12.9086914062-.1189575195-.2187194824-.375-.6386108398-.5069580078-.8310241699-2.5250244141-3.7113952637-4.9420471191-6.5859375-8.5330200195-8.5615234375-3.8239746094-2.1025390625-8.3229980469-3.0170898438-12.6670227051-2.5786132812-.8619995117.0874023438-1.7200012207.228515625-2.549987793.4194335938-1.7600097656.4038085938-3.4299926758,1.0209960938-4.9640197754,1.833984375-1.8449707031.9770507812-3.5390014648,2.2299804688-5.033996582,3.7251281738l-7.0969848633,7.0966186523c-.416015625.8867797852-.8619995117,1.7519836426-1.2879943848,2.5683898926-1.1960144043,2.2938842773-1.6440124512,4.2388000488-1.5950012207,6.9370117188.0529785156,2.9682922363,1.6259765625,4.2445678711,4.0039978027,6.1763000488,1.4540100098,1.1796875,3.1000061035,2.5160827637,4.4599914551,4.43359375,3.2030029297,4.5126953125,3.7280273438,9.521484375,4.2359924316,14.3652038574.2780151367,2.6493835449.5420227051,5.1610717773,1.217010498,7.5766906738h0ZM430.9015786479,256.9907815287c-.4140014648,0-.8120117188-.0263977051-1.199005127-.0811157227-.5310058594-.0741882324-1.058013916-.1659851074-1.5780029297-.2782897949-2.1979980469-.4726867676-4.4100036621-1.6903991699-6.0660095215-3.3407897949l-.358001709-.3583984375-.1489868164-.4844055176c-.8999938965-2.9434204102-1.2159729004-5.9434204102-1.5190124512-8.8442077637-.4749755859-4.5234985352-.9230041504-8.7958984375-3.5099487305-12.4423828125-1.0400390625-1.4658203125-2.3980102539-2.5674133301-3.7100524902-3.6328125-2.5369567871-2.0606079102-5.4140014648-4.3955078125-5.5029907227-9.2494812012-.0599975586-3.3526306152.5550231934-6.0093078613,2.0550231934-8.8838195801.4539794922-.87109375.9319763184-1.799407959,1.350982666-2.7153930664l.1510009766-.3324890137,7.6109924316-7.6098632812c1.7799987793-1.7802734375,3.799987793-3.2744140625,6.0020141602-4.4404296875,1.8459777832-.978515625,3.8489990234-1.7197265625,5.9539794922-2.2026367188.9930419922-.2280273438,2.0180053711-.3969726562,3.0490112305-.5014648438,5.1529846191-.5229492188,10.4920043945.5649414062,15.0279846191,3.0595703125,4.2970275879,2.3637695312,7.0760192871,5.6381835938,9.9280090332,9.8271179199.2020263672.2969055176.5440063477.8583984375.7189941406,1.1801757812,2.4100036621,4.4351196289,3.214050293,9.6201171875,2.3940124512,15.4136047363-.759979248,5.3608093262-3.175994873,10.3099975586-6.8030090332,13.9365234375l-21.8059692383,21.8070678711-.6910400391.0860290527c-.4719848633.05859375-.9209594727.087890625-1.3499755859.087890625h0Z" fill="#1d1d1b"/>
  </g>
  <path d="M453.6665932963,213.6707742045c-1.0010375977-4.7969970703-5.95703125-11.0184020996-13.4800415039-9.8848876953-.2989501953.0441894531-1.2389831543.2515869141-1.6629943848.7541809082-.718963623.8491210938-.8249816895,1.6112060547-.4179992676,2.4017028809.1180419922.2279052734.2730102539.4420166016.4580078125.6448974609.4810180664.5294189453,1.1310119629.8686218262,1.8040161133,1.1125183105,1.7059936523.6182861328,3.2810058594,1.5014953613,4.583984375,2.6663818359.1839904785.1325073242.3610229492.2669067383.5170288086.4093017578,1.7760009766,1.611114502,2.4259643555,3.1820068359,2.6949768066,4.8251037598.1139831543.4353942871.2099914551.8847961426.2729797363,1.354309082.132019043,1.0071105957.132019043,1.9981994629.0260009766,2.9671936035.0180053711.2368164062-.1529541016,1.7495117188-.391998291,2.0685119629-.8499450684,3.1177978516-2.7779846191,5.9405822754-5.1299743652,8.213684082.4599914551.3632202148,1.2379760742.4674987793,1.9299926758.0220947266,6.0590209961-3.9061889648,10.033996582-11.6143798828,8.7960205078-17.5549926758" fill="#f5f1e9"/>
</svg>