<?xml version="1.0" encoding="UTF-8"?>
<svg id="Ebene_1" data-name="Ebene 1" xmlns="http://www.w3.org/2000/svg" xmlns:xlink="http://www.w3.org/1999/xlink" viewBox="0 0 566.9291338583 566.9291338583">
  <defs>
    <clipPath id="clippath">
      <rect x="100.4645669291" y="132.4645669291" width="364.7500152588" height="303.0939941406" fill="none"/>
    </clipPath>
    <clipPath id="clippath-1">
      <rect x="100.4645669291" y="132.4645669291" width="364.7500152588" height="303.0939941406" fill="none"/>
    </clipPath>
    <clipPath id="clippath-2">
      <rect x="100.4645669291" y="132.4645669291" width="364.7500152588" height="303.0939941406" fill="none"/>
    </clipPath>
  </defs>
  <path d="M325.3305489848,144.5674722026h0c-2.0129699707-2.3327026367-5.5369873047-2.5916442871-7.8689880371-.5783996582l-40.9989929199,35.3846130371,7.291015625,8.4476013184,40.9979858398-35.3846130371c2.3330078125-2.0133056641,2.592010498-5.5364074707.5789794922-7.8692016602h0Z" fill="#008939"/>
  <path d="M325.0125863383,145.8522622416c.6479797363,1.1572265625.7119750977,2.5783996582.241973877,3.7595214844-.2299804688.5913085938-.583984375,1.1249084473-1.0359802246,1.5532836914l-.3630065918.3116149902-.4739990234.3782043457-.9479980469.7563781738-7.5809936523,6.0510253906-15.1620178223,12.1019897461-3.5149841309,3.032989502-12.1629943848,10.4980163574-4.024017334-4.6624145508,12.1629943848-10.4978942871,3.5150146484-3.0331115723,14.1889953613-13.2301025391,7.0939941406-6.6149902344.8869934082-.8269042969.4430236816-.4133911133.3619995117-.3139038086c.4899902344-.3844909668,1.0690002441-.6561889648,1.6879882812-.7980957031,1.2369995117-.2912902832,2.6329956055-.0203857422,3.683013916.7894897461.441986084.2490234375.9519958496.1794128418,1.3179626465-.1264953613.3430175781-.2817993164.4950256348-.8811950684-.0289611816-1.428894043-1.4240112305-1.2848815918-3.4530029297-1.8824768066-5.3940124512-1.5887451172-.9710083008.1410217285-1.9219970703.4959716797-2.7520141602,1.0449523926l-.5909729004.434387207-.4739990234.3782043457-.9470214844.7564086914-7.5820007324,6.050994873-15.1619873047,12.1018981934-3.5140075684,3.0331115723-15.949005127,13.7648010254,10.5570068359,12.2326965332,15.949005127-13.7648010254,3.5149841309-3.0331115723,14.1880187988-13.2301025391,7.0950012207-6.6149902344.8869934082-.8269042969.4429931641-.4135131836.5159912109-.5213928223c.6650085449-.7409057617,1.1549987793-1.629699707,1.4360046387-2.5688781738.575012207-1.8780212402.2799987793-3.9722290039-.782989502-5.5683288574-.4649963379-.5982971191-1.0799865723-.5361938477-1.4090270996-.2377929688-.3559875488.3175048828-.4999694824.8114929199-.3179626465,1.2847900391h0Z" fill="#1d1d1b"/>
  <g clip-path="url(#clippath)">
    <path d="M322.3195626567,155.2488686869l-8.975982666-10.4002990723c-2.1499938965-2.4909973145-1.8710021973-6.2881469727.6199951172-8.4380493164h0c2.4909973145-2.1499328613,6.2879943848-1.8708496094,8.4379882812.6201782227l8.9760131836,10.4002685547c2.1499938965,2.4909973145,1.8710021973,6.2882080078-.6199951172,8.4381103516h0c-2.4909973145,2.1499023438-6.2880249023,1.8707885742-8.4380187988-.6202087402h0Z" fill="#008939"/>
    <path d="M321.9135873149,156.2855813334c1.1779785156,1.3623962402,2.9459838867,2.2594909668,4.8279724121,2.405090332,1.8780212402.1643981934,3.8810119629-.4433898926,5.4060058594-1.7223815918,1.5409851074-1.2626037598,2.5800170898-3.1934204102,2.7900085449-5.2573242188.2420043945-2.049987793-.4010009766-4.2966918945-1.7139892578-5.9678039551l-1.4400024414-1.668182373-7.4890136719-8.6777038574c-1.7739868164-2.0703735352-4.5769958496-3.1742858887-7.2640075684-2.8880310059-2.6989746094.2510375977-5.2459716797,1.8881835938-6.5479736328,4.2837524414-.5100097656.9108886719-.8460388184,1.9129333496-.9940185547,2.9396057129-.1929931641,2.1603393555.4859924316,4.3465881348,1.8179931641,5.9602661133.1650085449.1891174316.3540039062.4107971191.5039978027.5639953613l.4110107422.4049987793.8219909668.8099975586,1.6440124512,1.6199035645,6.5769958496,6.4799194336c.516998291.3374023438,1.7870178223-.7583007812,1.5289916992-1.3196105957l-5.449005127-7.4534912109-1.3619689941-1.8634033203-.6809997559-.9317016602-.341003418-.4657897949c-.0960083008-.141204834-.1350097656-.2281188965-.2080078125-.3398132324-.4769897461-.8690490723-.5679931641-1.8806152344-.3139953613-2.7561645508.0610046387-.4266967773.2009887695-.8393554688.408996582-1.2093505859.5249938965-.977142334,1.566986084-1.6418457031,2.6719970703-1.7470703125,1.1260070801-.1164245605,2.2630004883.3405151367,2.9899902344,1.1788330078l7.4890136719,8.6776428223,1.4400024414,1.6683044434c.7179870605.6346130371,1.1650085449,1.4868164062,1.2489929199,2.504699707.0809936523,1.0017089844-.2380065918,2.0693054199-.9460144043,2.8979187012-.6999816895.8367919922-1.766998291,1.4111022949-2.9579772949,1.5135803223-1.1860046387.1107177734-2.4559936523-.2548828125-3.4429931641-1.0704040527-.4430236816-.2146911621-1.8040161133.7862243652-1.4270019531,1.4297180176h0Z" fill="#1d1d1b"/>
  </g>
  <path d="M160.9339730571,291.4035622905c0-66.0656738281,53.5565948486-119.6223754883,119.6225891113-119.6223754883,66.065032959,0,119.6219787598,53.5567016602,119.6219787598,119.6223754883,0,66.0660247803-53.5569458008,119.6220092773-119.6219787598,119.6220092773-66.0659942627,0-119.6225891113-53.5559844971-119.6225891113-119.6220092773h0Z" fill="#008939"/>
  <path d="M173.5705697368,298.7196023295c0-66.0660095215,53.5570068359-119.6226196289,119.6220092773-119.6226196289,19.2009887695,0,37.342010498,4.5313110352,53.4219665527,12.5714111328-18.9299621582-12.5628051758-41.6369628906-19.8872070312-66.0579833984-19.8872070312-66.0659942627,0-119.6225891113,53.5567016602-119.6225891113,119.6223754883,0,46.8640136719,26.9535980225,87.4270019531,66.200592041,107.0510101318-32.2793884277-21.4230041504-53.5639953613-58.091003418-53.5639953613-99.7349700928h0Z" fill="#8abd24"/>
  <path d="M178.3951852153,291.4035622905c0-56.4219970703,45.7393798828-102.1611938477,102.1613769531-102.1611938477,56.4220275879,0,102.1610107422,45.7391967773,102.1610107422,102.1611938477,0,56.4220123291-45.7389831543,102.1610107422-102.1610107422,102.1610107422-56.4219970703,0-102.1613769531-45.7389984131-102.1613769531-102.1610107422h0Z" fill="#8abd24"/>
  <path d="M349.0435616801,215.6008889506c16.3800354004,18.1186828613,26.358001709,42.1366882324,26.358001709,68.4866943359,0,56.4219970703-45.7389831543,102.1609802246-102.1609802246,102.1609802246-26.3500213623,0-50.3680114746-9.9779968262-68.4870147705-26.3579864502,18.6949920654,20.6789855957,45.7299957275,33.6739959717,75.8029937744,33.6739959717,56.4220275879,0,102.1610107422-45.7389984131,102.1610107422-102.1610107422,0-30.0719909668-12.9949951172-57.1079711914-33.6740112305-75.8026733398h0Z" fill="#005538"/>
  <path d="M375.3385751078,216.0360696147c-11.0800170898-14.1185913086-25.3380126953-25.7633972168-41.4590148926-33.7816772461-16.1089782715-8.0190124512-34.0579833984-12.4741210938-52.1219787598-12.6881103516-18.0590209961-.3952026367-36.200012207,3.4564819336-52.6820220947,10.9598999023l-1.5519866943.6910095215-1.516998291.7634887695-3.0350036621,1.5284118652c-2.0069885254,1.0494995117-3.9559936523,2.2080993652-5.9320068359,3.3178710938-1.9039916992,1.2263183594-3.8589782715,2.3806152344-5.7229919434,3.6701049805-1.8399963379,1.3218994141-3.7539978027,2.5479125977-5.5160064697,3.9772949219-7.2099914551,5.5023193359-13.8242950439,11.7940063477-19.6891937256,18.7323303223-5.5563049316,6.6977844238-10.3724060059,14.0047912598-14.3857879639,21.7248840332-5.2638092041,10.0239868164-8.9975128174,20.8200073242-11.3200073242,31.8939819336-2.1704101562,11.1030273438-2.9945068359,22.4890136719-2.0895080566,33.7710266113.7766113281,11.2939910889,3.2772064209,22.4409942627,7.1099243164,33.0859985352,2.0102844238,5.2899932861,4.2809753418,10.4829864502,6.9552764893,15.4729766846.6391143799,1.262008667,1.3910980225,2.4630279541,2.0818023682,3.6970214844.6983032227,1.2310028076,1.403503418,2.4570007324,2.1888885498,3.6340026855l2.2954101562,3.5699768066,2.4588012695,3.4580230713c13.313293457,18.3040008545,31.7663879395,32.8199768066,52.7274169922,41.3860015869,20.9389953613,8.6770172119,44.300994873,11.1009674072,66.616973877,7.43699646,8.5840148926-1.4279937744,17.0150146484-3.7769927979,25.1020202637-6.9920043945,16.8739929199-6.7770080566,32.0700073242-17.4790039062,44.3110046387-30.8219909668,12.2699584961-13.3330078125,21.4029846191-29.4570007324,26.7290039062-46.7100219727,2.6289672852-8.6419830322,4.2639465332-17.5729675293,4.9199829102-26.5619812012.632019043-8.9880065918.3949890137-18.0469970703-.9739990234-26.949005127-2.6170043945-17.8130187988-9.2659912109-35.0039978027-19.3439941406-49.8638916016-4.1060180664-5.6296081543-5.4179992676-4.5794067383-1.6820068359,1.1180114746,9.7059936523,14.7508850098,15.9739990234,31.6918640137,18.2879943848,49.1308898926,1.217010498,8.7159729004,1.3230285645,17.5649719238.5850219727,26.3129882812-.7619934082,8.7489929199-2.4739990234,17.4110107422-5.141998291,25.7649993896-5.4080505371,16.6789855957-14.4739990234,32.1590118408-26.4990234375,44.8639831543-11.9970092773,12.7150268555-26.7699890137,22.8010406494-43.0409851074,29.0700073242-7.7539978027,3.0829925537-15.8380126953,5.3360137939-24.0710144043,6.7050018311-21.4109802246,3.5140075684-43.833984375,1.1910400391-63.9039916992-7.1310119629-20.1000061035-8.2139892578-37.8087005615-22.1419677734-50.5811004639-39.7029724121l-2.3597106934-3.3170166016-2.200881958-3.424987793c-.7548065186-1.1280059814-1.4301147461-2.3049926758-2.0995025635-3.4859924316-.661605835-1.1840057373-1.3855133057-2.3350067139-1.9973144531-3.546005249-2.5652008057-4.7850189209-4.7405853271-9.7660064697-6.6706848145-14.8379974365-3.6722106934-10.2089996338-6.074005127-20.8949890137-6.8170166016-31.7320251465-.8713989258-10.8279724121-.0749969482-21.7579956055,2.0028076172-32.4039916992,2.2301025391-10.6189880371,5.8065032959-20.9710083008,10.8565979004-30.5849914551,3.8491973877-7.4035949707,8.4680938721-14.4140930176,13.7991027832-20.8401794434,5.5341033936-6.7337036133,11.8047027588-12.8688049316,18.6687011719-18.2607116699,1.6750030518-1.4019165039,3.5019989014-2.6029968262,5.2559967041-3.9031066895,1.7770080566-1.2676086426,3.6450042725-2.4027099609,5.4630126953-3.6127929688,1.8899841309-1.0935974121,3.7529907227-2.2387084961,5.6739807129-3.2774963379l2.9060058594-1.5144042969,1.4530029297-.7579956055,1.487991333-.6866149902c15.8029937744-7.4598999023,33.3000030518-11.4486999512,50.854019165-11.3082885742,17.5549926758-.0381164551,35.0899658203,4.0471801758,50.9400024414,11.6615905762,15.8599853516,7.6138916016,30.0050048828,18.8251037598,41.0950012207,32.5564880371,4.3039550781,5.2841186523,5.7059936523,4.3564147949,1.5799865723-1.2579956055h0Z" fill="#1d1d1b"/>
  <path d="M360.1835763285,228.086393101c-9.2929992676-11.8735046387-21.2610168457-21.6756286621-34.8040161133-28.433807373-13.5319824219-6.758605957-28.6199951172-10.5252075195-43.8129882812-10.7250061035-15.1880187988-.3521118164-30.4559936523,2.8675842285-44.3349914551,9.1647033691-13.916015625,6.258605957-26.3030090332,15.8150024414-36.2030029297,27.4649963379-4.6784973145,5.6398925781-8.7339172363,11.7922973633-12.113494873,18.2933044434-4.4324188232,8.4410095215-7.5767059326,17.5319824219-9.5322113037,26.8569946289-1.8278961182,9.3500061035-2.5214080811,18.9370117188-1.7595977783,28.4369812012.6540985107,9.5090026855,2.7594909668,18.8970031738,5.987197876,27.8600006104,1.6926116943,4.4550018311,3.6049041748,8.8280181885,5.8567962646,13.0290222168,2.2983093262,4.1699981689,4.7474975586,8.2709960938,7.599395752,12.0919799805,11.2098999023,15.4130249023,26.7479095459,27.6350250244,44.3989105225,34.8489990234,17.6339874268,7.3060302734,37.3040008545,9.3480224609,56.0949859619,6.262008667,7.2290039062-1.2019958496,14.3280029297-3.179977417,21.1380004883-5.8880004883,14.2020263672-5.7249908447,26.9820251465-14.7509918213,37.2690124512-25.9929962158,10.3109741211-11.2339935303,17.9770202637-24.8109893799,22.4380187988-39.3279876709,4.3800048828-14.549987793,5.5019836426-30.0330200195,3.259979248-44.9990234375-2.2189941406-14.9709777832-7.8269958496-29.4099731445-16.3100280762-41.8829956055-3.4729919434-4.7164916992-4.785949707-3.6663818359-1.6819458008,1.1180114746,8.1109924316,12.3630065918,13.3379516602,26.5530090332,15.2549743652,41.1510009766,1.9389953613,14.5979919434.5870056152,29.5960083008-3.8729858398,43.5650024414-4.5419921875,13.9429931641-12.1400146484,26.8759918213-22.2070007324,37.4819946289-10.0429992676,10.6139984131-22.4000244141,19.0240020752-35.9990234375,24.2410125732-6.4769897461,2.5759887695-13.2289733887,4.4569854736-20.1069946289,5.6020050049-17.8859863281,2.9339599609-36.617980957.9940032959-53.3819885254-5.9580230713-16.7890014648-6.8609924316-31.5830078125-18.4960021973-42.2530212402-33.1650085449-2.7160797119-3.6349945068-5.0422821045-7.5399780273-7.2314758301-11.5059967041-2.1428222656-3.9979858398-3.9598083496-8.157989502-5.5722961426-12.3949890137-3.0671081543-8.5270080566-5.0736999512-17.4530029297-5.6942138672-26.5059814453-.7282104492-9.0460205078-.0623931885-18.1770324707,1.6729125977-27.0700073242,1.8630981445-8.8699951172,4.8500976562-17.5170288086,9.0687866211-25.5469970703,3.2153930664-6.1849975586,7.0736083984-12.041015625,11.5273132324-17.4095153809,9.237991333-11.2406921387,20.9109802246-20.5809020996,34.1470031738-26.7977905273,13.1999816895-6.2535095215,27.8239746094-9.6103210449,42.5069885254-9.5131225586,14.683013916-.0521850586,29.358001709,3.3446044922,42.6319885254,9.6987304688,13.2810058594,6.3536682129,25.1370239258,15.7222900391,34.4389953613,27.2084655762,3.6250305176,4.4052124023,5.0270080566,3.4782104492,1.5800170898-1.2579650879h0Z" fill="#1d1d1b"/>
  <path d="M280.5565621684,204.7327859233v15.0751953125M237.2205636332,216.3444802592l7.5380096436,13.0555114746M205.4975716899,248.0685708354l13.0549926758,7.5370178223M193.8856637309,291.4035622905h15.0749206543M205.4975716899,334.7385690043l13.0549926758-7.5370025635M237.2205636332,366.4625832866l7.5380096436-13.0560150146M280.5565621684,378.0745675395v-15.0759887695M323.891584141,366.4625832866l-7.5370178223-13.0560150146M355.6155831645,334.7385690043l-13.0559997559-7.5370025635M367.2265755961,291.4035622905h-15.075012207M355.6155831645,248.0685708354l-13.0559997559,7.5370178223M323.891584141,216.3444802592l-7.5370178223,13.0555114746" fill="none" stroke="#1d1d1b" stroke-linecap="round" stroke-linejoin="round" stroke-width="5"/>
  <path d="M355.6155831645,248.0685708354l-11.8630065918,11.8380126953-59.0710144043,36.4689941406c-2.1199951172,1.9519958496-5.4209899902,1.8150024414-7.3729858398-.3049926758h0c-1.9530029297-2.1200256348-1.8160095215-5.4210205078.3039855957-7.3730163574l59.0460205078-36.3280029297,18.9570007324-4.300994873" fill="#005538"/>
  <path d="M354.1145455668,247.3735940287l-18.0339660645,3.5799865723-31.4120178223,18.1619873047-5.5219726562,3.3970031738-14.3610229492,8.8359985352-7.1809997559,4.4179992676-.8979797363.5530090332c-.0780029297.0599975586-.4700012207.2590026855-.7260131836.475982666l-.3880004883.3910217285c-.092010498.0969848633-.1839904785.1839904785-.266998291.2850036621-.6839904785.7819824219-1.2070007324,1.7109985352-1.5230102539,2.7009887695-.6409912109,1.9790039062-.4400024414,4.2060241699.5630187988,6.0390014648.9849853516,1.8290100098,2.7369995117,3.2270202637,4.7539978027,3.766998291,2.0019836426.5530090332,4.2219848633.2569885254,6.009979248-.8299865723l.6460266113-.4360046387.300994873-.2460021973.074005127-.0620117188-.0250244141.016998291.7640075684-.4719848633,1.7940063477-1.1069946289,3.5870056152-2.2140197754,14.3479919434-8.8590087891,5.516998291-3.4049987793,32.5119934082-21.3239746094,10.7539978027-11.3320007324c1.115020752-1.3550109863-.0690002441-2.5420227051-1.4270019531-1.4300231934l-11.117980957,10.4950256348-33.3479919434,19.3359985352-5.5170288086,3.4059753418-14.3479919434,8.858001709-3.5870056152,2.2149963379-1.7929992676,1.1070251465-1.0289916992.6359863281-.4609985352.3819885254c-.0770263672.0490112305-.1529846191.099029541-.2269897461.1540222168-.6190185547.3779907227-1.408996582.4819946289-2.1159973145.2859802246-.7019958496-.1859741211-1.3210144043-.6819763184-1.6700134277-1.3269958496-.3489990234-.6329650879-.4230041504-1.4279785156-.1979980469-2.1249694824.1109924316-.3480224609.291015625-.6690063477.5320129395-.9460144043.2639770508-.2420043945-.1370239258.0729980469.2319946289-.1780090332l.8979797363-.5520019531,7.1809997559-4.4179992676,14.3610229492-8.8359680176,5.5220031738-3.3980407715,29.9469909668-19.5879821777,17.3259887695-4.4429931641c1.6650085449-.5530090332,1.2940063477-2.1890258789-.4470214844-1.9689941406h0Z" fill="#1d1d1b"/>
  <path d="M223.7985665629,316.6015603373l22.0679931641-14.7619934082,33.5950012207-14.3429870605c2.6500244141-1.1309814453,5.716003418.1000061035,6.8480224609,2.75h0c1.1319885254,2.6510009766-.1000061035,5.7169799805-2.75,6.8489990234l-33.5950164795,14.3430175781-26.1660003662,5.1629638672" fill="#005538"/>
  <path d="M224.9525582621,317.4035622905l25.592010498-4.0839996338,13.9049987793-5.3470001221,4.4460144043-1.8979797363,11.5629882812-4.9370117188,2.8909912109-1.2349853516.7230224609-.3079833984c.2469787598-.1080322266.441986084-.1800231934.8359985352-.3760375977.6950073242-.333984375,1.3439941406-.7809753418,1.9029846191-1.3199768066,1.1369934082-1.0620117188,1.916015625-2.4770202637,2.2430114746-3.9890136719.3309936523-1.5129699707.1770019531-3.1350097656-.4140014648-4.5610046387-.5870056152-1.4270019531-1.6270141602-2.6799926758-2.925994873-3.5249938965-1.3030090332-.8379821777-2.8500061035-1.2850036621-4.4060058594-1.2399902344-.7780151367.0069885254-1.5490112305.1689758301-2.2810058594.4100036621l-.5429992676.2019958496-.3630065918.1549987793-.7219848633.3079833984-2.8909912109,1.2350158691-11.5640258789,4.9369812012-4.4459838867,1.8980102539-13.5670166016,6.3859863281-20.8819885254,15.1050262451c-.9869995117.8659820557-.0549926758,2.2599945068,1.1230010986,1.6789855957l21.6289978027-13.3330230713,13.6609954834-5.2389831543,4.4460144043-1.8979797363,11.5629882812-4.9370117188,2.8909912109-1.2340087891.7230224609-.3089904785.3589782715-.1530151367.1950073242-.0690002441c.2610168457-.0799865723.5260009766-.1499938965.7990112305-.1449584961,1.0979919434-.0450134277,2.1799926758.6519775391,2.5809936523,1.6769714355.4410095215,1.008026123.157989502,2.2660217285-.6449890137,3.0090026855-.1920166016.1900024414-.4170227051.3450012207-.6679992676.4620056152-.0720214844.0440063477-.3630065918.1669921875-.5970153809.2660217285l-.7229919434.3089599609-2.8909912109,1.2340087891-11.5630187988,4.9370117188-4.4459838867,1.8980102539-13.1020202637,6.1829833984-24.8229980469,5.8659973145c-1.2439880371.4200134277-.9199829102,2.0650024414.3909912109,1.9809875488h0Z" fill="#1d1d1b"/>
  <g clip-path="url(#clippath-1)">
    <path d="M358.6745431254,433.3515908549h0c-3.675994873,2.1229858398-8.3769836426.8629760742-10.4999694824-2.8130187988l-17.1069946289-29.6300048828,13.3129882812-7.68699646,17.1070251465,29.6300048828c2.1229858398,3.6770019531.8629455566,8.3769989014-2.8130493164,10.5000152588h0Z" fill="#008939"/>
    <path d="M359.8805672953,433.7725808451c1.2090148926-.7860107422,2.2220153809-1.8939819336,2.9340209961-3.1820068359.6829528809-1.3000183105,1.0809936523-2.7770080566,1.0739746094-4.2830200195-.0050048828-1.4909667969-.3959655762-3.0469818115-1.1039733887-4.3479766846l-1.748046875-3.3999938965-6.991973877-13.6000213623-1.8289794922-3.1679840088-6.9200134277-11.9850006104-17.6430053711,10.1860351562,6.9200134277,11.9859619141,1.8289794922,3.1669921875,8.2820129395,12.8559875488,2.0709838867,3.2130126953c.7720031738,1.2640380859,1.9240112305,2.3810424805,3.2130126953,3.1310424805,1.299987793.758972168,2.7779846191,1.1519775391,4.2460021973,1.2109680176,1.4710083008.0279846191,2.9380187988-.2960205078,4.2229614258-.950012207.9520263672-.6780090332-.0379638672-2.0569763184-.8389587402-1.8370056152-1.0340270996.4020080566-2.1479797363.524017334-3.2159729004.4010314941-1.065032959-.1550292969-2.0870361328-.5419921875-2.9320373535-1.1600036621-.8459777832-.6300048828-1.5109863281-1.4000244141-1.9779968262-2.3640136719l-1.7479858398-3.3999786377-6.9920043945-13.6010131836-1.8290100098-3.1669921875-4.4199829102-7.6550140381,8.983001709-5.1870117188,4.4199829102,7.6550140381,1.8290100098,3.1679840088,8.2820129395,12.8550262451,2.0709533691,3.2139892578c.6020202637.8869934082.9360046387,1.8479919434,1.0580444336,2.8959960938.1129760742,1.0400085449-.0630187988,2.1190032959-.4620056152,3.1190032959-.4270019531.9860229492-1.0899963379,1.8890075684-1.9540405273,2.583984375-.591003418.5840454102.1080322266,2.1310119629,1.1710205078,1.6450195312h0Z" fill="#1d1d1b"/>
    <path d="M202.4385659526,433.3515908549h0c3.6760101318,2.1229858398,8.3769989014.8629760742,10.4990081787-2.8130187988l17.1069946289-29.6300048828-13.3129882812-7.68699646-17.1068115234,29.6300048828c-2.1224975586,3.6770019531-.8628845215,8.3769989014,2.8137969971,10.5000152588h0Z" fill="#008939"/>
    <path d="M202.4035775493,432.1275613139c-.8650054932-.6949768066-1.5270080566-1.5979614258-1.9547119141-2.583984375-.3982849121-1-.5742797852-2.078994751-.4621887207-3.1190032959.1225891113-1.0480041504.4568939209-2.0090026855,1.0588989258-2.8959960938l2.0700073242-3.2139892578,8.282989502-12.8550262451,1.8290100098-3.1679840088,4.4189758301-7.6550140381,8.9830169678,5.1870117188-4.4189910889,7.6550140381-1.8290100098,3.1669921875-6.9920043945,13.6010131836-1.7479858398,3.3999786377c-.467010498.9639892578-1.132019043,1.7340087891-1.978012085,2.3640136719-.8450012207.6180114746-1.8679962158,1.0049743652-2.9329986572,1.1600036621-1.0679931641.1219787598-2.1809997559,0-3.2149963379-.4010314941-.8020019531-.2199707031-1.7919921875,1.158996582-.8390045166,1.8370056152,1.2850036621.6539916992,2.7509918213.9779968262,4.2229919434.950012207,1.467010498-.0589904785,2.9459991455-.4529724121,4.245010376-1.2109680176,1.2900085449-.75,2.4410095215-1.8670043945,3.2139892578-3.1310424805l2.0700073242-3.2130126953,8.282989502-12.8559875488,1.8290100098-3.1669921875,6.9190063477-11.9859619141-17.6430053711-10.1860351562-6.9199981689,11.9850006104-1.8280181885,3.1679840088-6.9921875,13.6000213623-1.7478942871,3.3999938965c-.7080078125,1.300994873-1.0995025635,2.8570098877-1.104095459,4.3479766846-.0072937012,1.5060119629.3907928467,2.983001709,1.0737915039,4.2830200195.711807251,1.2880249023,1.725402832,2.3959960938,2.9344024658,3.1820068359,1.06300354.4859924316,1.762008667-1.0609741211,1.171005249-1.6450195312h0Z" fill="#1d1d1b"/>
  </g>
  <path d="M171.1077859233,173.7268655131l-15.5340118408,15.533996582c-14.7433929443,14.7434082031-14.7433929443,38.868927002,0,53.6127319336h.0000915527c.7646179199.7639770508,1.5601043701,1.4799804688,2.3726043701,2.1649780273,11.428604126-8.8970031738,23.7074127197-19.741394043,35.974899292-32.0090026855,12.6562042236-12.6562805176,23.8022155762-25.3260803223,32.8522033691-37.0603027344-.6520080566-.7664794922-1.3300018311-1.5187988281-2.0530090332-2.242401123h0c-14.7439880371-14.7433776855-38.8693847656-14.7433776855-53.61277771,0h0Z" fill="#008939"/>
  <path d="M164.1956612895,238.0135781596h0c-14.7433929443-14.7434082031-15.2630004883-38.3493041992-1.1546936035-52.4577026367l14.8648986816-14.8648986816c2.5790100098-2.5788879395,5.4777984619-4.6636962891,8.5793151855-6.2674865723-5.6347961426,1.7649841309-10.9335174561,4.8594970703-15.3773956299,9.3032836914l-15.5340118408,15.5340881348c-14.7433929443,14.7433166504-14.7433929443,38.868927002,0,53.6127319336h0c.7647094727.7639770508,1.5601959229,1.4799804688,2.3726959229,2.1649780273,2.4247131348-1.8880004883,4.8945007324-3.8809814453,7.3874969482-5.9389953613-.3851928711-.3520202637-.7653961182-.7129821777-1.1383056641-1.0859985352h0Z" fill="#8abd24"/>
  <path d="M173.0341775248,173.3479897807c4.2296905518-3.6981201172,9.2766876221-6.4208984375,14.6617889404-7.845703125,5.3937988281-1.3899230957,11.0637054443-1.5538024902,16.4756164551-.512298584,5.4289855957.9949035645,10.5209960938,3.4096069336,14.8439941406,6.7045898438.533996582.4227905273,1.0939941406.8129882812,1.6069946289,1.2584838867l1.483001709,1.4044189453c.4859924316.4750061035,1.0140075684.9064025879,1.4389953613,1.4410095215l.1570129395.1808776855.004989624.0133972168.0070037842.0238037109c-.0010070801.0090026855.0199890137.0440979004.0249938965.0610961914-.0599975586.099609375-.2749938965.3161010742-.3959960938.4560241699l-.1040039062.1154785156-.0520019531.0567016602-.1609954834.1940002441-.6860046387.827911377-2.7639923096,3.2961120605c-1.7399902344,2.125579834-3.4930114746,4.2409973145-5.2799987793,6.3289794922-9.2870025635,10.8684082031-19.1797027588,21.2401123047-29.5284118652,31.1206970215-5.1744995117,4.9403076172-10.4779968262,9.7431030273-15.9025878906,14.3980102539-2.7131958008,2.3259887695-5.458694458,4.6130065918-8.2389068604,6.8549804688l-2.5559997559,2.0360107422c-.0037841797.0100097656-.0113983154-.0059814453.0053100586.0109863281l.0196990967.0160217285-.3820037842-.3470153809c-.6337127686-.5539855957-1.1425018311-1.2309875488-1.7221984863-1.8379821777-.4201049805-.4899902344-.8966064453-.9339904785-1.2732086182-1.4590148926l-1.1440887451-1.5629882812c-.8171081543-1.0060119629-1.3997039795-2.166015625-2.0720062256-3.266998291-2.7841033936-4.6263122559-4.374206543-9.9679870605-4.7675018311-15.4048156738-.3824920654-5.4306945801.358505249-11.0200805664,2.4737091064-16.1138916016.5705871582-1.2507019043,1.0353851318-2.5608825684,1.7673950195-3.7348022461l1.0101928711-1.8100891113c.362411499-.5876159668.7844085693-1.1369934082,1.1734008789-1.709197998.4082946777-.5578918457.7673034668-1.1566162109,1.215713501-1.6844177246l1.3603973389-1.5740966797c.8649902344-1.0574035645,1.9252929688-2.0947875977,2.9101867676-3.1391906738l11.9915008545-12.5184020996c1.4598083496-1.7022094727.274017334-2.8880004883-1.4281005859-1.4281005859l-12.5183868408,11.9914855957c-1.0410003662,1.0138244629-2.0935058594,1.9520263672-3.1160125732,3.0844116211l-1.5435028076,1.6415100098c-.509185791.5525817871-.9295959473,1.1792907715-1.3985900879,1.7673034668-.4498138428.6024780273-.9322052002,1.1846008301-1.3544921875,1.8072814941l-1.1884002686,1.9233093262c-.849609375,1.2546081543-1.4285125732,2.6543884277-2.1092987061,4.0050048828-2.5554046631,5.4920043945-3.662109375,11.6250915527-3.4951019287,17.708404541.1771850586,6.0873718262,1.704284668,12.1955871582,4.6470947266,17.6182861328.7622070312,1.2630004883,1.4434814453,2.5790100098,2.3673095703,3.7350158691l1.3104858398,1.783996582c.4339904785.5969848633.9688873291,1.1099853516,1.450012207,1.6679992676.6587982178.6959838867,1.2496795654,1.458984375,1.9682922363,2.0950012207l1.6309051514,1.4879760742,1.0058898926.9170227051c.3314056396.2779846191.6662139893.6619873047.9947967529.8539733887l3.7703094482-2.9619750977,2.133605957-1.7050170898c2.8220977783-2.2749938965,5.6060028076-4.5939941406,8.3554992676-6.951965332,5.4970855713-4.7167358398,10.8646850586-9.5780334473,16.0995941162-14.5758056641,10.4682006836-9.9951171875,20.4684906006-20.4782104492,29.8805084229-31.4931030273,1.8109741211-2.1161193848,3.5889892578-4.2614135742,5.3539733887-6.4181213379l2.6590270996-3.462890625,1.6770019531-2.2098999023,1.1139831543-1.4692993164.5540161133-.7301025391.2759857178-.3638916016.0690155029-.0909118652c-.0160217285-.0314941406-.0559997559-.0639038086-.0830230713-.0957946777l-.179977417-.1921081543-2.7320098877-2.9159851074c-.5059967041-.5751037598-1.1170043945-1.0440063477-1.68699646-1.5537109375l-1.733001709-1.4993896484c-.5970153809-.4743041992-1.2409973145-.8910217285-1.8600158691-1.3370056152-4.9989929199-3.4828186035-10.7619934082-5.8882141113-16.754989624-6.7276916504-5.9770965576-.887512207-12.1130981445-.4311218262-17.841796875,1.3139038086-5.7212982178,1.7793884277-10.9715118408,4.9230957031-15.2592010498,9.012298584-1.599105835,1.6771850586-.3560943604,2.8095703125,1.3636016846,1.4898986816h0Z" fill="#1d1d1b"/>
  <path d="M170.6228768657,181.7362649272l-4.7028045654,4.702911377c-2.3278961182,2.327911377-6.1372070312,2.327911377-8.4650878906,0h0c-2.327911377-2.327911377-2.327911377-6.1372070312,0-8.4652099609l4.7027893066-4.7027893066c2.3278961182-2.327911377,6.1371917725-2.327911377,8.4651031494,0h0c2.3278961182,2.327911377,2.3278961182,6.1372070312,0,8.4650878906h0Z" fill="#008939"/>
  <path d="M162.8136727641,184.5084817241l-.8809051514-.8810119629c-2.5492095947-2.5491027832-2.5492095947-6.7203979492-.0000915527-9.2695922852l3.8983917236-3.8983154297c.1899108887-.1898803711.3910980225-.3609924316.5976104736-.5224914551-.8751068115.2807006836-1.6984100342.7615966797-2.3896942139,1.452911377l-4.702911377,4.7028808594c-2.3278961182,2.327911377-2.3278961182,6.1372070312,0,8.4651184082h0c1.6053924561,1.6054077148,3.9150085449,2.1026916504,5.9577026367,1.4938964844-.9069061279-.3131103516-1.7593078613-.8226928711-2.4801025391-1.5433959961h0Z" fill="#8abd24"/>
  <path d="M171.6107766459,182.1491677592c2.0919036865-1.9152832031,2.8880004883-5.2982788086,1.6557006836-8.1933898926-.6059112549-1.4414978027-1.6630096436-2.7174072266-3.0464019775-3.6008911133-1.3834075928-.8771972656-3.0545043945-1.3377075195-4.7545928955-1.2762145996-.8087158203.0841064453-1.6006164551.3012084961-2.3568267822.6054077148-.979888916.4064025879-1.8877868652,1.0039978027-2.6408843994,1.7471923828l-1.6101074219,1.6044921875-3.1704864502,3.170501709c-1.5052032471,1.4987182617-2.404006958,3.5924072266-2.466506958,5.6995239258-.0827941895,2.1058959961.6595001221,4.2514953613,2.0594024658,5.8542785645.5222015381.6274108887,1.1636962891,1.1439208984,1.8432006836,1.5955200195,3.0317077637,1.6631774902,6.8066101074,1.1596984863,9.1539001465-.9251098633.3036956787-.2443847656.5589904785-.541015625.820098877-.8183898926l.5705108643-.7022094727,1.1409912109-1.4043884277,2.2819976807-2.808807373c.2070922852-.4496154785-.9786987305-1.6354064941-1.4281005859-1.4281005859l-2.8088989258,2.2818908691-1.4044036865,1.1409912109-.7021942139.570526123c-.1894989014.1178894043-.3546905518.2538757324-.5522003174.3429870605-1.5068969727.8245849609-3.3694000244.5086975098-4.3843078613-.4657897949-.2689819336-.1898193359-.5446014404-.3892211914-.7523040771-.6539001465-.5675964355-.6512145996-.8733978271-1.5223083496-.8407897949-2.4038085938.029006958-.8822937012.3919067383-1.7214050293,1.0050964355-2.3396911621l3.1705932617-3.170501709,1.565612793-1.5606079102c.3095092773-.3088989258.675491333-.5466918945,1.0758972168-.7124938965.3107910156-.1181030273.6342010498-.216003418.970993042-.2488098145,1.3759002686-.4325866699,3.1405944824.0936889648,4.1390075684,1.5108032227,1.0164031982,1.3783874512,1.1248016357,3.5932006836-.0427093506,5.246307373-.1150817871.3851013184,1.0011138916,1.6467895508,1.5087127686,1.3426818848h0Z" fill="#1d1d1b"/>
  <path d="M405.5385873149,189.2608620951l-15.533996582-15.533996582c-14.7430419922-14.7433776855-38.8690185547-14.7433776855-53.6120300293,0h0c-.7649841309.7647094727-1.4799804688,1.5602111816-2.1649780273,2.3727111816,8.8959960938,11.4285888672,19.7409973145,23.7073059082,32.0090026855,35.9749145508,12.6560058594,12.6562805176,25.325958252,23.8020935059,37.0599975586,32.8520812988.7659912109-.6520080566,1.5189819336-1.3299865723,2.2420043945-2.0529785156h0c14.7439880371-14.7438049316,14.7439880371-38.8693237305,0-53.6127319336h0Z" fill="#008939"/>
  <path d="M341.2525765727,182.3487832377h0c14.7430114746-14.7434082031,38.3489990234-15.2630004883,52.4570007324-1.1546936035l14.8649597168,14.8648986816c2.5790405273,2.5789794922,4.6640014648,5.4776916504,6.2680053711,8.579284668-1.7649536133-5.6347961426-4.859954834-10.9335021973-9.3039550781-15.3774108887l-15.533996582-15.533996582c-14.7430419922-14.7433776855-38.8690185547-14.7433776855-53.6120300293,0h0c-.7649841309.7647094727-1.4799804688,1.5602111816-2.1649780273,2.3727111816,1.8869934082,2.4247131348,3.8809814453,4.8945007324,5.9389953613,7.387512207.3519897461-.3852233887.7129821777-.7655029297,1.0859985352-1.1383056641h0Z" fill="#8abd24"/>
  <path d="M405.9175851176,191.1872842143c3.6979980469,4.2297058105,6.4209899902,9.2767028809,7.8459777832,14.6618041992,1.3900146484,5.3937988281,1.5540161133,11.0636901855.5120239258,16.475189209-.9949951172,5.4295959473-3.408996582,10.5213012695-6.7040100098,14.8442993164-.423034668.5350036621-.8129882812,1.0939941406-1.2590026855,1.6069946289l-1.4039916992,1.483001709c-.4750061035.4859924316-.9070129395,1.0140075684-1.4410095215,1.4389953613l-.1809997559.1570129395-.0140075684.0049743652-.0229797363.007019043c-.0090026855-.0009765625-.0440063477.0199890137-.0610046387.0250244141-.1000061035-.0600280762-.316986084-.2750244141-.4560241699-.3960266113l-.1159667969-.1040039062-.0570068359-.0520019531-.1940307617-.1609802246-.8279724121-.6860046387-3.2960205078-2.7640075684c-2.1249694824-1.7399902344-4.2409973145-3.492980957-6.3290100098-5.280090332-10.867980957-9.2867126465-21.2399597168-19.1795043945-31.1199951172-29.5281982422-4.9409790039-5.1744995117-9.742980957-10.4779968262-14.3979797363-15.9026184082-2.3269958496-2.7131958008-4.6140136719-5.4586791992-6.8550109863-8.2389831543l-2.0369873047-2.5559082031c-.0090026855-.00390625.0060119629-.011505127-.0100097656.0053100586l-.016998291.0196838379.3479919434-.3819885254c.5530090332-.6336975098,1.2310180664-1.1425170898,1.8380126953-1.7221984863.4890136719-.4201049805.9339904785-.8966064453,1.4590148926-1.2731933594l1.5629882812-1.1441040039c1.0060119629-.8171081543,2.1659851074-1.3997192383,3.266998291-2.0721130371,4.6260070801-2.783996582,9.9679870605-4.374206543,15.4039916992-4.7673950195,5.4310302734-.3825073242,11.0210266113.3584899902,16.1139831543,2.4736022949,1.2510070801.5707092285,2.5610351562,1.0354919434,3.7350463867,1.7673950195l1.809967041,1.0103149414c.5880126953.3623962402,1.1370239258.7843933105,1.7090148926,1.1734008789.5579833984.4081726074,1.1570129395.7672729492,1.684967041,1.2155926159l1.5740356445,1.3604877063c1.0570068359.8648986816,2.0950012207,1.9253234863,3.1390075684,2.9102172852l12.5179748535,11.9914855957c1.7030029297,1.4598083496,2.8890075684.274017334,1.4290161133-1.4281005859l-11.9920043945-12.5184020996c-1.0140075684-1.0409851074-1.9519958496-2.0935974121-3.0840148926-3.1160888672l-1.6419677734-1.5433959961c-.5520019531-.5092163086-1.1790161133-.9297180176-1.766998291-1.3987121582-.6029968262-.4497070312-1.1849975586-.9320983887-1.8070068359-1.3544006348l-1.9240112305-1.1885070801c-1.2539978027-.8494873047-2.6540222168-1.4283752441-4.0050048828-2.1091918945-5.4920043945-2.5555114746-11.625-3.6622009277-17.7079772949-3.4952087402-6.0870056152.1773071289-12.1960144043,1.7043151855-17.6180114746,4.6472167969-1.2630004883.7622070312-2.5790100098,1.4434814453-3.7350158691,2.3673095703l-1.783996582,1.3104858398c-.5969848633.4339904785-1.1099853516.9689025879-1.6690063477,1.450012207-.6949768066.6586914062-1.4579772949,1.2496948242-2.0939941406,1.9682922363l-1.4880065918,1.6308898926-.9169921875,1.0057983398c-.2789916992.3315124512-.6619873047.6663208008-.8540039062.9949035645l2.9620056152,3.7702026367,1.7050170898,2.133605957c2.2749938965,2.8220825195,4.5939941406,5.6059875488,6.9509887695,8.3555908203,4.717010498,5.4970092773,9.5789794922,10.8648071289,14.5760192871,16.099609375,9.9949951172,10.4682006836,20.4789733887,20.4682006836,31.4939880371,29.8804016113,2.1159973145,1.8109741211,4.2609558105,3.5889892578,6.41796875,5.3540039062l3.4620056152,2.658996582,2.2100219727,1.6770019531,1.4700012207,1.1149902344.7299804688.5530090332.3639831543.275970459.0910339355.0690307617c.0310058594-.0160217285.0639953613-.0560302734.0950012207-.0830078125l.1929931641-.1799926758,2.916015625-2.7319946289c.5749511719-.5060119629,1.0440063477-1.1170043945,1.552947998-1.6870117188l1.5-1.733001709c.474029541-.5970153809.8910522461-1.2409973145,1.3370361328-1.8600158691,3.4819946289-4.9989929199,5.8880004883-10.762298584,6.7270202637-16.7547912598.8880004883-5.9772033691.4309997559-12.1131896973-1.3140563965-17.8418884277-1.7789611816-5.7213134766-4.9229431152-10.9716186523-9.0119934082-15.2592163086-1.6770019531-1.5990905762-2.8089599609-.3560791016-1.4899597168,1.3636169434h0Z" fill="#1d1d1b"/>
  <path d="M397.5295541118,188.7759682963l-4.7030029297-4.7027893066c-2.3279724121-2.327911377-2.3279724121-6.1372070312,0-8.4650878906h0c2.3280334473-2.327911377,6.1370239258-2.327911377,8.4650268555,0l4.7030029297,4.7027893066c2.3279724121,2.327911377,2.3279724121,6.1372070312,0,8.4650878906h0c-2.3280334473,2.327911377-6.1369934082,2.327911377-8.4650268555,0h0Z" fill="#008939"/>
  <path d="M394.7575814555,180.9667947123l.8810119629-.8809204102c2.5489807129-2.5491943359,6.7200012207-2.5491943359,9.2689819336-.0000915527l3.899017334,3.8984069824c.1889648438.1897888184.3609619141.3910827637.5220031738.5975952148-.281036377-.8751220703-.7610168457-1.6983947754-1.4530334473-2.3898010254l-4.7029724121-4.7028198242c-2.3280334473-2.3278808594-6.1369934082-2.3278808594-8.4650268555,0h0c-1.6049804688,1.6054077148-2.1020202637,3.9150085449-1.4939880371,5.9577026367.3130187988-.9068908691.8229980469-1.7592773438,1.5440063477-2.4800720215h0Z" fill="#8abd24"/>
  <path d="M397.116559727,189.7638833354c1.9150085449,2.0918884277,5.298034668,2.8880004883,8.1930236816,1.6557006836,1.4419555664-.6058959961,2.7179870605-1.6629943848,3.6010131836-3.0464172363.8779907227-1.383392334,1.3379821777-3.0545959473,1.2769775391-4.7545776367-.0849914551-.8087158203-.3020324707-1.6006164551-.6060180664-2.3569030762-.4059753418-.9797973633-1.0039672852-1.8876953125-1.7470092773-2.6408081055l-1.6049499512-1.6101074219-3.1700134277-3.170501709c-1.4989929199-1.5051879883-3.5920410156-2.4039916992-5.700012207-2.4664916992-2.1049804688-.0827941895-4.2509765625.6594848633-5.8540039062,2.0592956543-.6269836426.5223083496-1.1439819336,1.1638183594-1.5949707031,1.8432006836-1.6640014648,3.0317993164-1.1600341797,6.8066101074.924987793,9.1539001465.2439880371.3037109375.5409545898.5589904785.8179931641.8201904297l.701965332.570526123,1.4049987793,1.1409912109,2.8090515137,2.2818908691c.4489746094.2072143555,1.634979248-.9786071777,1.4279785156-1.4281005859l-2.2819824219-2.808807373-1.1410217285-1.4043884277-.5710144043-.7022094727c-.117980957-.1894836426-.2539978027-.354675293-.342956543-.5521850586-.824005127-1.5068969727-.5080566406-3.3695068359.4659423828-4.3843078613.190032959-.2689819336.3890380859-.5445861816.6540527344-.7524108887.6510009766-.5675964355,1.5219726562-.8732910156,2.4039916992-.8406982422.8819885254.0290222168,1.7210083008.3919067383,2.3389892578,1.0051269531l3.1710205078,3.1705932617,1.5599975586,1.5655822754c.3089599609.3095092773.5469970703.6755065918.7129821777,1.0758056641.1180114746.3108215332.216003418.6343078613.2490234375.9710998535.4319458008,1.3759155273-.0940246582,3.1405029297-1.5110168457,4.1390075684-1.3779907227,1.0163879395-3.5929870605,1.1246948242-5.2460327148-.0428161621-.3850097656-.1149902344-1.6470031738,1.0012207031-1.3429870605,1.5088195801h0Z" fill="#1d1d1b"/>
  <g clip-path="url(#clippath-2)">
    <path d="M124.5157754252,201.0552651713c-.1533050537-6.0939941406.7447967529-12.1190795898,2.5010986328-17.7994995117.1513061523-.6933898926.270401001-1.3945007324.4864959717-2.0725708008.9060058594-3.5858154297,2.2553100586-7.0413208008,3.7727966309-10.4111022949,1.6554107666-3.3043212891,3.483505249-6.5323181152,5.6924133301-9.498626709.3895874023-.5955810547.8579864502-1.1305847168,1.3003845215-1.6856994629,3.2966003418-4.9481811523,7.4022064209-9.4481811523,12.2252044678-13.176574707.3883056641-.4758300781-.4969940186-1.9002075195-1.0950927734-1.6969299316-5.5577087402,3.0186157227-10.6515960693,7.0290222168-15.0485076904,11.7676086426-.4808959961.6038208008-.9873962402,1.1887207031-1.412902832,1.833404541-2.3984832764,3.2247009277-4.3871002197,6.7225952148-6.1772003174,10.3099060059-1.6519927979,3.6529846191-3.1093902588,7.403503418-4.0960998535,11.299407959-.2313995361.7369995117-.3652954102,1.4989929199-.5297851562,2.2531738281-.899307251,6.4014282227-.7937164307,12.8837280273.3737945557,19.0995178223.219909668.5922851562,1.8834991455.3796081543,2.0074005127-.2220153809h0Z" fill="#1d1d1b"/>
    <path d="M107.2129800151,221.8079812358c-1.0002746582-4.5345153809-1.4630584717-9.1274108887-1.4293518066-13.6636962891-.0554199219-.537109375-.1292266846-1.0726013184-.1491699219-1.6130065918-.2249755859-2.8023071289-.2015075684-5.6176147461-.07421875-8.4248046875.2095947266-2.8023071289.5231933594-5.600189209,1.0819396973-8.3554077148.0844421387-.5340881348.2218322754-1.0568847656.3411407471-1.5835876465.5094299316-4.507598877,1.5185394287-9.0122070312,3.0543212891-13.3942871094.0291595459-.4788208008-1.4749908447-1.2205200195-1.8215332031-.8724060059-2.4995269775,4.0939025879-4.5519256592,8.5220031738-6.1106872559,13.1685791016-.1289520264.5694274902-.2754211426,1.1353149414-.3683013916,1.7119140625-.602722168,2.9779052734-.9447937012,5.9989013672-1.1678619385,9.0255126953-.1407623291,3.0314941406-.1626586914,6.0717773438.0793304443,9.1003723145.0232086182.5836181641.1008911133,1.162902832.160736084,1.7436218262.9915161133,4.7998046875,2.499206543,9.4416809082,4.490814209,13.8052062988.3023986816.3870849609,1.8845214844-.1692199707,1.9128417969-.6480102539h0Z" fill="#1d1d1b"/>
    <path d="M441.8515755961,195.1231667826c-.5769958496-6.2873840332-2.3589782715-12.5325927734-5.1530151367-18.3596801758-.383972168-.6690979004-.7409667969-1.3558959961-1.1889648438-1.9851989746-2.1270141602-3.4088134766-4.6900024414-6.5107116699-7.4160461426-9.4464111328-2.8449707031-2.8211975098-5.8609924316-5.4838867188-9.1989746094-7.7219848633-.6140136719-.4681091309-1.2890014648-.8469238281-1.9450073242-1.2532043457-5.7319946289-2.9826049805-11.9159851074-4.9684143066-18.1809997559-5.7514038086-.6299743652.0274047852-.9319763184,1.6771850586-.400970459,1.9794921875,5.816986084,1.7077026367,11.2059631348,4.4880065918,15.9369812012,8.0148010254.5989990234.3706970215,1.2169799805.712310791,1.7770080566,1.1434020996,3.050994873,2.0430908203,5.8089904785,4.4873046875,8.4190063477,7.0661010742,2.491973877,2.6930847168,4.843963623,5.5299072266,6.7859802246,8.6460876465.4129943848.5738220215.7340087891,1.2024230957,1.0850219727,1.8132019043,3.3699951172,4.8434143066,5.9719848633,10.3208007812,7.4889526367,16.190612793.283996582.540802002,1.9429931641.2929077148,1.991027832-.3358154297h0Z" fill="#1d1d1b"/>
    <path d="M464.4855782817,194.1608865092c1.0620117188-6.2239074707.950012207-12.7174072266-.2479858398-19.0675048828-.199005127-.7456970215-.3659973145-1.5010986328-.6370544434-2.2245178223-1.176940918-3.8418884277-2.8539428711-7.4994812012-4.7319946289-11.0385742188-2.0209960938-3.4590148926-4.2499694824-6.8091125488-6.8969726562-9.8316040039-.4729919434-.6105957031-1.0280151367-1.1505126953-1.5570068359-1.7122192383-4.7700195312-4.3591003418-10.2329711914-7.8712463379-16.0849914551-10.2423400879-.6159973145-.1358337402-1.3329772949,1.3803710938-.8970031738,1.8092956543,5.1799926758,3.1490478516,9.6710205078,7.2242431641,13.3330078125,11.8510437012.4829711914.512512207.9920043945,1.0017089844,1.4219970703,1.5626220703,2.4210205078,2.7602844238,4.4559936523,5.8327026367,6.3139648438,8.9969787598,1.714050293,3.2444152832,3.2560424805,6.5916137695,4.3290405273,10.1030273438.2509765625.6607971191.3989868164,1.3508911133.5809936523,2.0314941406,2.0079956055,5.5481872559,3.1110229492,11.5112915039,3.0630187988,17.5734863281.1359863281.595916748,1.8029785156.7839050293,2.0109863281.1888122559h0Z" fill="#1d1d1b"/>
  </g>
  <path d="M281.6885812114,285.193601353c4.6449890137.6249694824,7.9039916992,4.8969726562,7.2779846191,9.5419921875-.625,4.6459960938-4.8970031738,7.9039916992-9.5419921875,7.2789916992s-7.9039916992-4.8970031738-7.2789916992-9.5420227051c.625-4.6449890137,4.8970031738-7.9039611816,9.5429992676-7.2789611816h0Z" fill="#8abd24"/>
  <path d="M281.4165780375,284.1575906108c-2.7760009766-.5300292969-5.9039916992.2819824219-8.1879882812,2.3049926758-2.3260192871,1.9790039062-3.724029541,5.1519775391-3.5760192871,8.4179992676.0360107422.3899841309.1040039062.7729797363.1969909668,1.1529846191.074005127.3850097656.1950073242.7560119629.3190002441,1.1260375977.6530151367,1.91796875,1.8470153809,3.6509399414,3.4190063477,4.9279785156,1.5559997559,1.3049926758,3.507019043,2.117980957,5.5039978027,2.4049987793,2.0010070801.2510070801,4.0980224609-.0180053711,5.9430236816-.865020752,1.8539733887-.8159790039,3.4639892578-2.1709899902,4.5999755859-3.8489990234.2180175781-.3239746094.433013916-.6499938965.6050109863-1.0009765625.1910095215-.342010498.358001709-.6940002441.4949951172-1.0599975586,1.0060119629-3.1110229492.4970092773-6.541015625-1.2229919434-9.0640258789-1.6679992676-2.5549926758-4.4700012207-4.1649780273-7.2879943848-4.3869934082-.5800170898.0670166016-.7300109863,1.7420043945-.3540039062,1.9880065918,2.1510009766.6189880371,3.841003418,2.2189941406,4.5709838867,4.0989990234.7750244141,1.8630065918.5620117188,3.9470214844-.3429870605,5.4930114746-.0700073242.1999816895-.1620178223.3909912109-.2680053711.5749816895-.0880126953.1929931641-.2099914551.366027832-.3269958496.5429992676-1.2369995117,1.8480224609-3.5429992676,2.883026123-5.7449951172,2.5729980469-2.2050170898-.282989502-4.1549987793-1.8909606934-4.8590087891-3.9999694824-.066986084-.2010192871-.1390075684-.4010009766-.1730041504-.6110229492-.0530090332-.2049865723-.0919799805-.4129943848-.1059875488-.625-.4640197754-1.7290039062-.1190185547-3.7959899902,1.1210021973-5.3880004883,1.2019958496-1.6199951172,3.2539978027-2.716003418,5.4920043945-2.7449951172.4279785156-.1380004883.725982666-1.7919921875.1839904785-2.0109863281h0Z" fill="#1d1d1b"/>
</svg>