<?xml version="1.0" encoding="UTF-8"?>
<svg id="Ebene_1" data-name="Ebene 1" xmlns="http://www.w3.org/2000/svg" xmlns:xlink="http://www.w3.org/1999/xlink" viewBox="0 0 566.9290161133 566.9290161133">
  <defs>
    <clipPath id="clippath">
      <rect x="85.7590026855" y="273.6220092773" width="75.3450012207" height="38.3619995117" fill="none"/>
    </clipPath>
    <clipPath id="clippath-1">
      <path d="M187.0449981689,259.1530151367l-53.5729980469,88.9810028076c-13.577003479,22.5489959717-3.2660064697,39.8979949951,23.0310058594,38.75l124.7339935303-5.4450073242c26.2969970703-1.1490020752,35.0559997559-19.3309936523,19.5650024414-40.6119995117l-61.1240081787-83.9720001221c-7.4519958496-10.2359924316-16.771987915-15.3099975586-25.9499969482-15.3099975586-9.9010009766-.0010070801-19.6369934082,5.9049987793-26.6829986572,17.608001709" fill="none"/>
    </clipPath>
  </defs>
  <g>
    <path d="M283.4646911621,411.6650085449c136.4469909668,0,247.0589904785-11.5749969482,247.0589904785-25.8520050049,0-14.2779998779-110.6119995117-25.8529968262-247.0589904785-25.8529968262-136.4470062256,0-247.0590057373,11.5749969482-247.0590057373,25.8529968262,0,14.2770080566,110.6119995117,25.8520050049,247.0590057373,25.8520050049" fill="#8abd24"/>
    <path d="M276.5834960938,411.2451171875c-23.7059936523-.1190032959-47.4100036621-.5850067139-71.0970001221-1.4559936523-23.6859893799-.8780059814-47.3600006104-2.1529998779-70.9799957275-4.0650024414-11.8090057373-.9620056152-23.6040039062-2.0879974365-35.3630065918-3.4920043945-11.7539978027-1.4179992676-23.4909973145-3.0570068359-35.0729980469-5.4029998779-5.7760009766-1.2019958496-11.5469970703-2.5350036621-17.0729980469-4.4640045166-2.7319946289-.9809875488-5.4980010986-2.0879974365-7.7109985352-3.737991333-.5579986572-.404006958-1.0140075684-.8780059814-1.404006958-1.358001709-.3349914551-.5-.5429992676-1.0050048828-.5419921875-1.495010376.0009918213-.4909973145.2639923096-.9979858398.6139984131-1.4869995117.2089996338-.2339935303.3889923096-.4839935303.6529998779-.6979980469l.3650054932-.3339996338.4109954834-.3069915771c2.2359924316-1.6220092773,5.0019989014-2.7089996338,7.7409973145-3.6719970703,2.7599945068-.9560089111,5.5950012207-1.7460021973,8.4519958496-2.4570007324,5.717010498-1.4130096436,11.5230102539-2.5260009766,17.3500061035-3.5100097656,11.1640014648-1.8939971924,22.4199981689-3.3110046387,33.6949920654-4.5269927979,29.3359985352-3.1130065918,58.8170166016-4.8880004883,88.3070068359-6.095993042,29.4940032959-1.1840057373,59.0159912109-1.7040100098,88.5360107422-1.7120056152,29.5199890137.0079956055,59.0419921875.5279998779,88.5359802246,1.7120056152,29.4899902344,1.2079925537,58.9710083008,2.9829864502,88.3070068359,6.095993042,11.2749938965,1.2159881592,22.5310058594,2.6329956055,33.6959838867,4.5269927979,5.8270263672.9840087891,11.632019043,2.0970001221,17.3489990234,3.5100097656,2.8569946289.7109985352,5.6920166016,1.5009918213,8.4520263672,2.4570007324,2.7390136719.9629974365,5.5050048828,2.049987793,7.741027832,3.6719970703l.410949707.3069915771.366027832.3350067139c.2630004883.2129974365.4429931641.4629974365.6519775391.6969909668.3499755859.4890136719.6140136719.9960021973.6140136719,1.4869995117.0009765625.4900054932-.20703125.995010376-.5419921875,1.495010376-.3890380859.4799957275-.8450317383.953994751-1.4039916992,1.358001709-2.2120361328,1.6499938965-4.9780273438,2.7570037842-7.7109985352,3.737991333-5.5260009766,1.9290008545-11.2960205078,3.262008667-17.0730285645,4.4640045166-11.5820007324,2.345993042-23.3190002441,3.9850006104-35.0729980469,5.4029998779-11.7590026855,1.404006958-23.5539855957,2.5299987793-35.3619995117,3.4920043945-23.6199951172,1.9120025635-47.2940063477,3.18699646-70.9809875488,4.0650024414-23.6870117188.8709869385-47.3910217285,1.3369903564-71.0970153809,1.4559936523-9.1739807129.0839996338-9.175994873.7640075684.0020141602.8190002441,23.7149963379-.0189971924,47.4299926758-.3840026855,71.1340026855-1.1549987793,23.7039794922-.7779998779,47.3989868164-1.9530029297,71.0539855957-3.766998291,11.8269958496-.9130096436,23.6430053711-1.9900054932,35.4339904785-3.3470001221,11.7870178223-1.3710021973,23.5599975586-2.9629974365,35.2319946289-5.2760009766,5.8270263672-1.18699646,11.6450195312-2.5,17.3259887695-4.4560089111,2.8270263672-1.0119934082,5.6650390625-2.0919952393,8.2340087891-3.9769897461.6420288086-.466003418,1.2399902344-1.0520019531,1.7760009766-1.7259979248.5010375977-.7180023193.9150390625-1.6170043945.9080200195-2.6240081787-.0130004883-1.0180053711-.4819946289-1.8800048828-.9849853516-2.578994751-.2750244141-.3260040283-.5440063477-.671005249-.8560180664-.9300079346l-.4539794922-.4160003662-.4770507812-.3619995117c-2.5759277344-1.8719940186-5.410949707-2.9619903564-8.2369384766-3.9799957275-2.8380126953-.9949951172-5.7160644531-1.8089904785-8.6080322266-2.5419921875-5.7869873047-1.4560089111-11.6279907227-2.6010131836-17.4849853516-3.6170043945-11.2269897461-1.9029998779-22.5170288086-3.324005127-33.8200073242-4.5440063477-29.4049987793-3.1199951172-58.9190063477-4.8959960938-88.4410095215-6.1049957275-29.5260009766-1.1860046387-59.0719909668-1.7060089111-88.617980957-1.7140045166-29.5460205078.0079956055-59.092010498.5279998779-88.6180114746,1.7140045166-29.5220031738,1.2089996338-59.0350036621,2.9850006104-88.4409942627,6.1049957275-11.3030090332,1.2200012207-22.592010498,2.6410064697-33.8200073242,4.5440063477-5.8569946289,1.0159912109-11.6979980469,2.1609954834-17.4839935303,3.6170043945-2.891998291.733001709-5.7710113525,1.5469970703-8.608001709,2.5419921875-2.8270111084,1.0180053711-5.6620025635,2.108001709-8.2380065918,3.9799957275l-.4759979248.3619995117-.4550018311.4160003662c-.31199646.2590026855-.5800018311.6040039062-.8560028076.9300079346-.5029907227.6989898682-.9720001221,1.5609893799-.9850006104,2.578994751-.0069885254,1.0070037842.4070129395,1.9060058594.9080047607,2.6240081787.5359954834.6739959717,1.1340026855,1.2599945068,1.7760009766,1.7259979248,2.5690002441,1.8849945068,5.4069976807,2.9649963379,8.2339935303,3.9769897461,5.6809997559,1.9560089111,11.4990081787,3.2690124512,17.3270111084,4.4560089111,11.6709899902,2.31300354,23.4440002441,3.9049987793,35.2319946289,5.2760009766,11.7900085449,1.3569946289,23.6069946289,2.4339904785,35.4329986572,3.3470001221,23.6560058594,1.8139953613,47.3510131836,2.9889984131,71.0540008545,3.766998291,23.7050018311.7709960938,47.4199981689,1.1360015869,71.1339874268,1.1549987793,9.1790161133-.0549926758,9.1760253906-.7350006104.0020141602-.8190002441" fill="#010101"/>
    <path d="M283.4646911621,411.6650085449c136.4469909668,0,247.0589904785-11.5749969482,247.0589904785-25.8520050049,0-14.2779998779-110.6119995117-25.8529968262-247.0589904785-25.8529968262-136.4470062256,0-247.0590057373,11.5749969482-247.0590057373,25.8529968262,0,14.2770080566,110.6119995117,25.8520050049,247.0590057373,25.8520050049Z" fill="none" stroke="#089939" stroke-width=".8109999895"/>
    <rect x="81.1569976807" y="252.5510253906" width="21.7040023804" height="59.4329833984" fill="#003822"/>
    <path d="M81.9753036499,310.8731079102l1.2080001831-45.924987793v-10.3710021973h17.6500015259v32.074005127l.3330001831,12.6669921875.1669998169,6.3330078125.0830001831,3.1659851074.0209960938.7919921875.0110015869.3619995117.0100021362.1230163574.0419998169.5289916992-.4110031128.033996582-.2220001221.016998291-.5810012817.016998291-2.5739974976.0679931641-5.1480026245.1350097656-10.2969970703.2710113525c-1.4810028076.1389923096-1.4810028076,1.4989929199,0,1.6379852295l10.2969970703.2700042725,5.1480026245.1360015869,2.5739974976.0680084229,3.9340057373.066986084.0839996338-4.5269927979.0830001831-3.1659851074.1669998169-6.3330078125.3330001831-12.6669921875v-36.1270141602h-25.7580032349v14.4240112305l1.2080001831,45.924987793c.1399993896,1.4810028076,1.4990005493,1.4810028076,1.6380004883,0" fill="#010101"/>
    <rect x="85.7580032349" y="273.6220092773" width="75.3449935913" height="38.3619995117" fill="#005538"/>
    <rect x="86.03099823" y="273.6220092773" width="34.9169998169" height="38.3619995117" fill="#005538"/>
  </g>
  <g clip-path="url(#clippath)">
    <path d="M86.8497009277,321.8509216309l1.2080001831-55.1539916992v-4.0100097656h30.8639984131v38.9270019531l.236000061,10.7859954834.1190032959,5.3930053711.0589981079,2.6959991455.013999939.6699981689.0149993896.1479949951.0299987793.3230133057-.2339935303.0239868164-.125.0110015869-.0660095215.0060119629c-.0389938354.0019989014-.0009918213.0039978027-.1199951172.0059967041l-2.0989990234.0459899902-4.1979980469.092010498-8.3960037231.1839904785-16.7910003662.3680114746c-1.7789993286.1380004883-1.7789993286,1.4980010986,0,1.6359863281l16.7910003662.3690032959,8.3960037231.1840057373,4.1979980469.091003418,2.0989990234.0459899902,3.6529998779.0470123291.0590057373-4.2510070801.0599975586-2.6959991455.1169967651-5.3930053711.2369995117-10.7859954834v-42.9809875488h-38.9720001221v8.0639953613l1.2080001831,55.1539916992c.1399993896,1.779006958,1.4990005493,1.779006958,1.6380004883,0" fill="#010101"/>
  </g>
  <g>
    <path d="M159.5469055176,311.1653137207l-64.3600006104-1.2080078125h-7.4010009766v-34.3079833984h45.762008667l13.7779998779-.2590026855,6.8889923096-.1289978027,3.4450073242-.0650024414.8609924316-.0160217285c.2740020752-.0049743652.654006958-.009979248.6289978027-.0159912109l.4440002441-.0319824219.0220031738.283996582.0099945068.1510009766.0060119629.0780029297.0059967041.2769775391.0429992676,2.3010253906.0859985352,4.600982666.1719970703,9.2010192871.3460083008,18.4019775391c.1389923096,2.0760040283,1.4989929199,2.0760040283,1.6369934082,0l.6909942627-38.3150024414-29.0649871826-.516998291h-49.8160095215v42.4160003662h11.4550018311l64.3600006104-1.2079925537c2.0749969482-.1399993896,2.0749969482-1.4989929199,0-1.6380004883" fill="#010101"/>
    <rect x="124.3190002441" y="277.5480041504" width="7.7440032959" height="17.108001709" fill="#8abd24"/>
    <rect x="124.3186035156" y="277.5477294922" width="7.7440032959" height="17.108001709" fill="none" stroke="#010101" stroke-width="1.6210000515"/>
    <rect x="136.4320068359" y="277.5480041504" width="7.7440032959" height="17.108001709" fill="#8abd24"/>
    <rect x="136.4324951172" y="277.5477294922" width="7.7440032959" height="17.108001709" fill="none" stroke="#010101" stroke-miterlimit="10" stroke-width=".8109999895"/>
    <rect x="136.4324951172" y="277.5477294922" width="7.7440032959" height="17.108001709" fill="none" stroke="#010101" stroke-width="1.6210000515"/>
    <rect x="148.5469970703" y="277.5480041504" width="7.7440032959" height="17.108001709" fill="#8abd24"/>
    <rect x="148.5471038818" y="277.5477294922" width="7.7440032959" height="17.108001709" fill="none" stroke="#010101" stroke-miterlimit="10" stroke-width=".8109999895"/>
    <rect x="148.5471038818" y="277.5477294922" width="7.7440032959" height="17.108001709" fill="none" stroke="#010101" stroke-width="1.6210000515"/>
    <rect x="74.8359985352" y="316.4690246582" width="97.2470092773" height="53.4199981689" fill="#005538"/>
    <rect x="74.8359985352" y="316.4700164795" width="97.2470092773" height="6.8659973145" fill="#005538"/>
    <rect x="74.8359985352" y="319.0210266113" width="27.1279983521" height="50.8679962158" fill="#005538"/>
    <path d="M75.6548995972,367.8268127441l.7269973755-49.8110046387,32.3780059814.4810028076h61.2969970703v49.3659973145h-7.8769989014l-85.28099823,1.2080078125c-2.75.1389923096-2.75,1.4989929199,0,1.6369934082l85.28099823,1.2080078125h11.9299926758v-57.4730072021h-65.3499908447l-35.4700012207.4810028076.7269973755,52.9029998779c.1399993896,2.7510070801,1.4990005493,2.7510070801,1.6380004883,0" fill="#010101"/>
    <rect x="62.9210014343" y="308.9240112305" width="109.1620063782" height="7.5110015869" fill="#005538"/>
    <path d="M63.7398986816,314.8378143311c.0359992981-1.8840026855.0719985962-4.3279876709.108001709-4.9870147705l59.1989974976,1.1000213623h47.0100021362v3.4570007324h-39.4990081787l-66.0399932861,1.2089996338c-2.1290016174.1389923096-2.1290016174,1.4979858398,0,1.6369934082l66.0399932861,1.2079925537h43.5520019531v-11.5649871826h-51.0629959106l-61.0519981384,1.1000061035.1069984436,6.8409881592c.1399993896,2.1300048828,1.4990005493,2.1300048828,1.6380004883,0" fill="#010101"/>
    <path d="M221.8414001465,401.7359161377c98.5749816895,0,178.4869995117-7.1289978027,178.4869995117-15.9230041504,0-8.7939910889-79.9120178223-15.9239959717-178.4869995117-15.9239959717-98.5749969482,0-178.4869995117,7.1300048828-178.4869995117,15.9239959717,0,8.7940063477,79.9120025635,15.9230041504,178.4869995117,15.9230041504" fill="#089939"/>
    <path d="M239.6773986816,256.8550109863c-15.4900054932-21.2810058594-39.0540008545-20.2529907227-52.6320037842,2.2980041504l-53.5739898682,88.9799957275c-13.577003479,22.5500030518-3.2650146484,39.8999938965,23.0309906006,38.7519989014l124.7339935303-5.4459991455c26.2969970703-1.1490020752,35.0570068359-19.3310089111,19.5660095215-40.6119995117l-61.125-83.9720001221Z" fill="#8abd24"/>
  </g>
  <g clip-path="url(#clippath-1)">
    <path d="M317.2308044434,472.1592178345c75.3949890137-3.2919998169,134.2270202637-58.3639907837,131.4049987793-123.0069961548-2.8229980469-64.6430053711-66.2299804688-114.3789978027-141.6260070801-111.0859985352-75.3949890137,3.2909851074-134.2259979248,58.3639831543-131.4039916992,123.0069885254,2.8229980469,64.6430053711,66.2300109863,114.3780059814,141.625,111.0860061646" fill="#089939"/>
  </g>
  <g>
    <path d="M131.6315002441,353.3054199219c1.266998291-2.7129974365,2.9019927979-5.2369995117,4.4980010986-7.8520050049l4.7799987793-7.7929992676,9.5610046387-15.5869903564,19.1219940186-31.1730041504,19.1220092773-31.157989502c3.0989990234-4.9980163574,7.1149902344-9.4440307617,12.0090026855-12.4360046387,2.4339904785-1.5010070801,5.0809936523-2.6180114746,7.8349914551-3.2060241699,1.3689880371-.333984375,2.7739868164-.4559936523,4.1709899902-.5459899902,1.4000091553-.0069885254,2.8059997559.016998291,4.1910095215.2550048828,5.3500061035.7040100098,10.3569946289,3.3760070801,14.5220031738,6.9889831543,1.3719940186,1.1620178223,2.6289978027,2.4710083008,3.8439941406,3.8150024414,1.2019958496,1.3860168457,2.2830047607,2.7770080566,3.4010009766,4.3260192871l6.7019958496,9.2070007324,13.4030151367,18.4129943848,26.8079833984,36.8269958496,13.4029846191,18.4140014648c2.1810302734,2.9680023193,4.0260009766,6.1139984131,5.407043457,9.4270019531.650970459,1.6650085449,1.201965332,3.3590087891,1.5609741211,5.0780029297.3359985352,1.7200012207.5,3.4559936523.4290161133,5.1640014648-.1110229492,3.4230041504-1.3120117188,6.6949920654-3.4410095215,9.31199646-2.1119995117,2.637008667-5.0820007324,4.6110076904-8.3559875488,5.9409942627-3.2770080566,1.3540039062-6.8530273438,2.0970153809-10.4750366211,2.4680023193-.9019775391.1180114746-1.8219604492.1340026855-2.7329711914.2070007324l-2.8340148926.1290130615-5.6879882812.2479858398-17.4980010986.7649993896-73.0429992676,3.7930145264-18.2599945068.9489898682c-3.0300140381.1450042725-6.1180114746.3450012207-9.0990142822.4450073242-2.9789886475.078994751-5.9629974365-.0830078125-8.8690032959-.6180114746-1.4599914551-.2399902344-2.8809967041-.629989624-4.2819976807-1.0659942627-1.3909912109-.4649963379-2.737991333-1.0399932861-4.0269927979-1.716003418-2.5420074463-1.3999938965-4.8310089111-3.2799987793-6.43699646-5.674987793-.8090057373-1.18800354-1.4739990234-2.4770050049-1.9520111084-3.842010498-.470993042-1.3670043945-.7709960938-2.7949981689-.925994873-4.2449951172-.2989959717-2.9080047607.050994873-5.8829956055.7630004883-8.7630004883.5399932861-2.2340087891.6520080566-3.4400024414.2779998779-3.5810089111-.1750030518-.0639953613-.4479980469.1500091553-.7830047607.6670074463-.3499908447.5110015869-.7169952393,1.3419952393-1.0779953003,2.4969940186-.797996521,3.0140075684-1.2320022583,6.1730041504-.9609985352,9.3460083008.1409988403,1.5820007324.4449996948,3.1569976807.9420013428,4.6819915771.5060043335,1.5210113525,1.2229995728,2.9760131836,2.1070022583,4.3190002441,1.7559967041,2.7120056152,4.2760009766,4.8480072021,7.0359954834,6.4240112305,1.3970031738.7649993896,2.8500061035,1.4119873047,4.341003418,1.9379882812,1.4980010986.495010376,3.016998291.9370117188,4.56199646,1.2180023193,3.0809936523.6179962158,6.2140045166.8379974365,9.3249969482.8070068359,3.1130065918-.0530090332,6.1100006104-.2010040283,9.1699981689-.296005249l18.2750091553-.6470031738,73.0949859619-2.5869903564,17.4980163574-.7630004883,5.6879882812-.2490081787,2.8529968262-.129989624c.9810180664-.0770111084,1.9630126953-.0970001221,2.9440307617-.2240142822,3.9199829102-.4019927979,7.8589782715-1.2049865723,11.6099853516-2.7509918213,1.8659973145-.7830047607,3.7009887695-1.7060089111,5.3930053711-2.9019927979,1.6909790039-1.1900024414,3.2569885254-2.6050109863,4.5799865723-4.2490081787,2.675994873-3.2689971924,4.2049865723-7.5019989014,4.3320007324-11.6699981689.0870056152-2.0850067139-.1140136719-4.1510009766-.507019043-6.1549987793-.4159851074-2-1.0439758301-3.9250030518-1.7779846191-5.7940063477-1.5379943848-3.6979980469-3.5729980469-7.1380004883-5.8840026855-10.2870025635l-13.4039916992-18.4129943848-26.8070068359-36.8269805908-13.4039916992-18.4140014648-6.7010040283-9.20703125c-1.1029968262-1.5299682617-2.3489990234-3.1409912109-3.6380004883-4.6199951172-1.3269958496-1.4710083008-2.7070007324-2.9060058594-4.2310028076-4.1989746094-4.6149902344-4.0060119629-10.3320007324-7.1050109863-16.6159973145-7.9400024414-1.6279907227-.2470092773-3.2819976807-.257019043-4.924987793-.2140197754-1.6390075684.1260070801-3.2810058594.3059997559-4.8710021973.717010498-3.199005127.7409973145-6.2220153809,2.0849914551-8.9450073242,3.825012207-5.4770050049,3.4809875488-9.7440032959,8.4339904785-12.9680023193,13.8189697266l-18.6170043945,31.491027832-18.6039886475,31.4849853516-9.3020019531,15.7420043945-4.6510009766,7.8719940186-2.3260040283,3.9510040283c-.7660064697,1.3430023193-1.4779968262,2.7200012207-2.1239929199,4.1300048828-.9480133057,2.2139892578-.9680023193,3.487991333-.6260070801,3.6079864502.3630065918.1310119629,1.0749969482-.8470001221,2.1100006104-2.9149932861" fill="#010101"/>
    <polygon points="402.220489502 212.0639038086 397.7934875488 204.6329040527 302.5304870605 216.6828918457 303.0874938965 218.695892334 296.021484375 217.7249145508 283.0534973145 270.5238952637 298.6354980469 271.4669189453 307.5014953613 226.5968933105 402.220489502 212.0639038086" fill="#343434"/>
    <path d="M399.8941040039,211.5925292969l-91.2189941406,12.7739868164-2.8860168457.4420166016-2.1229858398,10.7449951172-6.675994873,33.783996582-11.3890075684-.6900024414,11.9530029297-48.6659851074,5.2579956055.7219848633,3.0500183105.4179992676-.8210144043-2.9669799805-.3739929199-1.3510131836-.183013916-.6610107422-1.6979980469,2.5510253906,10.2590026855-1.2980041504,84.2749938965-11.7929992676,3.0559997559,4.9669799805c1.6400146484,2.4810180664,2.8089904785,1.783996582,1.4070129395-.8379821777l-3.5160217285-6.0679931641-85.7309875488,9.7109985352-10.259979248,1.2969970703-2.3230285645.2939758301.6239929199,2.257019043.183013916.6619873047.3739929199,1.3510131836,2.2300109863-2.5480041504-8.875-1.2189941406-13.9840087891,56.9319763184,19.7760009766,1.1970214844,7.3619995117-37.2579956055,1.5719909668-7.9550170898.074005127-.0119934082,90.8529968262-15.1619873047c2.9150085449-.5880126953,2.7100219727-1.9309997559-.2479858398-1.6180114746" fill="#010101"/>
    <path d="M388.6288146973,174.6703186035v.683013916l-19.3980102539,9.8989868164-1.0520019531-1.2460021973s-33.5639953613,16.6230163574-37.5079956055,19.7709960938c-.1969909668-1.6399841309-2.4329833984-2.1640014648-3.4189758301-.591003418-.9170227051,1.4649963379-4.9790039062,8.0480041504-5.5490112305,8.9710083008l11.3450012207-2.6130065918.1210021973-.049987793-.1140136719-1.141998291,38.3619995117-20.2300109863-.458984375-.9179992676,3.7469787598-2.2959899902.0390014648.9010009766,15.3630065918-7.6050109863,2.3200073242-2.4649963379-3.7980041504-1.0690002441Z" fill="#343434"/>
    <path d="M389.1382141113,175.6641235352l1.6359863281.532989502-1.2569885254,1.2120056152-15.3980102539,7.1369934082,2.0320129395,1.2019958496-.0159912109-.9029846191-.0440063477-2.391998291-2.1350097656,1.2340087891-3.8039855957,2.2009887695-1.1920166016.6889953613.6170043945,1.3170166016.4370117188.9299926758.6709899902-2.0889892578-16.2239990234,8.0379943848-5.0570068359,2.6659851074-17.2949829102,9.1210021973-1.2070007324.6360168457.134979248,1.358001709.115020752,1.141998291,1.2340087891-2.0720214844-.1200256348.050994873.3269958496-.1059875488-6.6109924316,1.5230102539-.0010070801.0010070801-.0009765625.0009765625v.0010070801s-.0010070801.0029907227.0019836426-.0019836426l.1090087891-.1780090332,1.7560119629-2.8390197754.8789978027-1.4199829102.2189941406-.3540039062c.0569763184-.0769958496.032989502-.041015625.0449829102-.0639953613.0290222168.0310058594-.0459899902-.0549926758-.0589904785-.0710144043-.0310058594-.0469970703-.0310058594-.0449829102-.0400085449-.0639953613.0100097656-.0090026855-.0209960938.0880126953.0270080566-.0449829102.0230102539-.0490112305.0700073242-.1000061035.0889892578-.1100158691.0140075684-.0100097656-.0719909668.0469970703-.2200012207.0559997559l3.1480102539,1.358001709c.3550109863-.233001709.657989502-.4630126953,1.0469970703-.7080078125l1.2210083008-.7389831543,2.5360107422-1.4469909668c1.7189941406-.949005127,3.4539794922-1.8840026855,5.1969909668-2.8110046387l5.0480041504-2.6440124512c3.850982666-2.1239929199,7.7200012207-4.2219848633,11.5979919434-6.3070068359l5.824005127-3.1149902344,2.9159851074-1.549987793.490020752-.2890014648c.3439941406.366973877.7179870605.8020019531,1.0759887695,1.1999816895l3.300994873-1.759979248,2.342010498-1.2710266113,4.6829833984-2.5409851074,9.3670043945-5.0830078125c.1520080566-.0950012207.2789916992-.1969909668.3770141602-.2980041504l.4530029297-.4679870605-.058013916-.1770019531c-.2990112305-.9100036621-1.1489868164-.9100036621-1.449005127,0l.3959960938-.6449890137c-.1399841309.0189819336-.2959899902.0619812012-.4629821777.1299743652l-9.6119995117,4.6020202637-4.8059997559,2.300994873-2.4030151367,1.1499938965-.600982666.2879943848-.3000183105.1440124512-.1389770508.0610046387-.4030151367.1679992676c-.358001709-.4200134277-.6799926758-.9020080566-1.0660095215-1.2720031738l-2.4700012207,1.1799926758-2.9960021973,1.4020080566-5.9859924316,2.8219909668c-3.9859924316,1.8900146484-7.9669799805,3.7950134277-11.9379882812,5.7310180664l-5.0800170898,2.6599731445c-1.7579956055.9349975586-3.5139770508,1.8810119629-5.266998291,2.8489990234l-2.6300048828,1.5010070801-1.3229980469.8020019531c-.4509887695.2810058594-.9449768066.641998291-1.4109802246.9649963379l3.2760009766,1.3430175781c-.0800170898-.5769958496-.2780151367-1.1710205078-.6329956055-1.6840209961-.3540039062-.5059814453-.8260192871-.9140014648-1.3470153809-1.1929931641-1.0449829102-.5429992676-2.2959899902-.5870056152-3.3720092773-.1159973145-.5359802246.2359924316-1,.5929870605-1.367980957,1-.1669921875.1889953613-.3519897461.4540100098-.4519958496.6069946289l-.2210083008.3560180664-.8800048828,1.4230041504-5.1679992676,8.3549804688-1.7579956055,2.8430175781-.0549926758.0879821777c.0069885254.0119934082.0609741211-.009979248.0879821777-.0140075684l.2040100098-.0469970703.4069824219-.0929870605.8140258789-.1880187988,1.6289978027-.375,6.4179992676-1.4779968262,6.5149841309-1.5009765625.1690063477-.0379943848.157989502-.0670166016.1210021973-.050994873,1.383026123-.5780029297-.149017334-1.4930114746-.1139831543-1.1409912109-1.0710144043,1.9949951172,17.2950134277-9.1210021973,5.0569763184-2.6659851074,15.7960205078-8.8489990234,1.3739929199-.7690124512-.7019958496-1.3200073242-.483001709-.9069824219-.574005127,2.0050048828,3.6889953613-2.3900146484-2.1770019531-1.158996582.0610046387.8999938965.1510009766,2.1920166016,1.8819885254-.990020752,15.3270263672-8.0719909668,3.383972168-3.7189941406-3.7369995117-.9790039062c-2.2339782715-.4840087891-1.9359741211,1.0119934082-1.2049865723,1.3619995117" fill="#010101"/>
    <polygon points="443.0238952637 318.0430145264 445.9338989258 318.0430145264 443.1509094238 328.6290130615 440.2409057617 328.6290130615 443.0238952637 318.0430145264" fill="#010101"/>
    <polygon points="435.1994934082 317.486114502 438.1094970703 317.486114502 435.3265075684 328.0721130371 432.4154968262 328.0721130371 435.1994934082 317.486114502" fill="#010101"/>
    <polygon points="451.3233032227 318.600112915 454.2343139648 318.600112915 451.4503173828 329.1861114502 448.5403137207 329.1861114502 451.3233032227 318.600112915" fill="#010101"/>
    <polygon points="459.6228027344 319.157119751 462.5338134766 319.157119751 459.7498168945 329.7431182861 456.8398132324 329.7431182861 459.6228027344 319.157119751" fill="#010101"/>
    <polygon points="467.9223022461 319.7142181396 470.8333129883 319.7142181396 468.0493164062 330.3002166748 465.1393127441 330.3002166748 467.9223022461 319.7142181396" fill="#010101"/>
    <path d="M473.138092041,277.6036071777l-21.2779846191-.2640075684-28.3030090332-60.175994873,1.5849914551-1.6489868164s-20.716003418-36.8970031738-22.6329956055-40.7950134277c-1.916015625-3.8970031738-5.0220031738-4.8219909668-7.9290161133-5.9459838867-2.907989502-1.1230163574-5.9489746094,1.1900024414-5.9489746094,3.1719970703v3.5390014648l.5459899902,4.634979248.7269897461,16.7140197754-96.7489929199,13.9029846191c-.0440063477.0710144043-.0719909668.1170043945-.0719909668.1170043945l-12.6870117188,4.4930114746-19.9789733887,85.7209777832,25.0979614258-3.2449951172,15.2510375977-74.1050109863,95.3179931641-13.7049865723,31.4579772949,72.8720092773-6.3439941406,3.4389953613.1319885254,6.7380065918c15.199005127,16.1199951172,10.9700012207,26.5569915771,10.9700012207,26.5569915771l40.8380126953,2.1139984131c14.9339904785-27.4819946289,0-44.1289978027,0-44.1289978027" fill="#005538"/>
    <path d="M452.9016113281,278.1712036133l10.8729858398.4370117188,5.4360046387.2189941406,2.7190246582.108001709c.29296875.0109863281.2879943848.016998291.375.0239868164.0639953613.0249938965.1619873047-.0249938965.191986084.0620117188l.4060058594.617980957c1.8599853516,2.8630065918,3.1789855957,6.133026123,3.9700012207,9.4780273438.7899780273,3.3579711914,1.0079956055,6.8199768066.8479919434,10.2519836426l-.2019958496,2.4680175781c-.0370178223.4099731445-.0559997559.8229980469-.1060180664,1.2329711914l-.2209777832,1.2230224609c-.2120056152,1.0570068359-.3330078125,2.1289978027-.6140136719,3.1739807129l-.8769836426,3.1270141602c-.0760192871.259979248-.1390075684.5229949951-.2239990234.7799987793l-.2940063477.7619934082-.5850219727,1.5240020752-.583984375,1.5240020752c-.0989990234.2529907227-.1900024414.5099945068-.2959899902.7599945068l-.3610229492.7360076904-1.4309997559,2.9209899902-.016998291.0380096436-.742980957-.0380096436-6.7650146484-.3509979248-27.0629882812-1.4009857178-2.5780029297-.1320037842c-.0130004883.0079956055-.024017334.0110015869-.033996582.0079956055-.0050048828-.06199646-.0360107422.1889953613.0090026855-.4319915771.0409851074-.433013916.0289916992-.8570098877.0249938965-1.2810058594.0069885254-.4270019531-.0209960938-.8460083008-.0629882812-1.262008667-.0480041504-.8399963379-.2040100098-1.6509857178-.341003418-2.4649963379-.1700134277-.8029937744-.3740234375-1.595993042-.5970153809-2.3769989014-.966003418-3.0979919434-2.3829956055-5.9819946289-4.1199951172-8.5979919434-1.7279968262-2.6220092773-3.6560058594-5.0809936523-5.7860107422-7.3220214844l-.7939758301-.8450012207-.3529968262-.3729858398-.1550292969-.1499938965c-.050994873-.058013916-.0260009766-.1459960938-.0429992676-.2200012207l-.0109863281-.1300048828-.0130004883-.283996582-.0539855957-1.1360168457-.108001709-2.2729797363-.0520019531-1.0880126953-.0429992676-.566986084.3739929199-.2310180664.6219787598-.3659973145,1.5400085449-.8909912109,3.0800170898-1.7810058594c.0309753418-.0229797363.0619812012-.0459899902.0820007324-.0610046387l.6829833984-.5050048828-.3280029297-.5219726562c-.6770019531-1.0820007324-1.7989807129-.5980224609-1.475982666.6380004883l.3549804688-1.0260009766c-.0239868164.009979248-.0599975586.0220031738-.0969848633.0359802246l-3.1740112305,1.6090087891-3.7169799805,1.9029846191-.007019043,2.8940124512-.0180053711,2.2760009766-.0090026855,1.1369934082-.0019836426.7229919434.0010070801.4540100098c.0209960938.1440124512-.0549926758.325012207.0879821777.4219970703l1.7210083008,2.0310058594c1.9289855957,2.2659912109,3.6230163574,4.7040100098,5.0950012207,7.2300109863,1.4849853516,2.5220031738,2.6059875488,5.2179870605,3.2969970703,7.9539794922.1530151367.6850128174.2900085449,1.3750152588.3970031738,2.0600128174.0729980469.68800354.1709899902,1.375.1669921875,2.0529937744.0180053711.341003418.0220031738.6790008545-.0039978027,1.0110015869-.016998291.3330078125-.0220031738.6690063477-.074005127.9889984131l-.0299987793.2430114746-.0180053711.1549987793c-.009979248.1439971924-.0289916992.2139892578-.0459899902.3129882812l-.2789916992,1.1500091553c-.1790161133.7559967041-.4209899902,1.5839996338-.6119995117,2.3059997559l-.1010131836.3899993896,7.391998291.3809967041,27.0620117188,1.4010009766,6.7650146484.3509979248,2.6399841309.1360015869.4230041504.0220031738.2109985352.0110015869c.0679931641-.0019989014.1560058594.032989502.1699829102-.0590057373l.3730163574-.7610015869.7279968262-1.4819946289,1.5490112305-3.1640014648.3829956055-.7850036621.3200073242-.8170013428.6289978027-1.6379852295.6279907227-1.6400146484.3139953613-.8190002441c.092010498-.2779998779.1619873047-.5650024414.2440185547-.845993042l.9509887695-3.396987915c.3039855957-1.1350097656.4469909668-2.3160095215.674987793-3.4720153809l.2380065918-1.341003418c.0549926758-.4519958496.0799865723-.907989502.1210021973-1.3609924316l.2189941406-2.7260131836c-.0279846191-3.8150024414-.4880065918-7.6300048828-1.566986084-11.2859802246-1.0870056152-3.6510009766-2.7100219727-7.1270141602-4.9800109863-10.2279968262l-.2149963379-.2900085449-.1159973145-.1560058594-.1790161133-.217010498-.7299804688-.8710021973-.1870117188-.208984375-.283996582-.0069885254-.566986084-.0110168457-.983001709.0060119629-2.7210083008.0429992676-5.4400024414.0820007324-10.8810119629.1679992676c-1.4049987793.1210021973-1.4219970703,1.4809875488-.0199890137,1.6369934082" fill="#010101"/>
    <path d="M427.7043151855,281.1948242188l-7.6870117188-20.8550109863-1.0529785156-2.4400024414-10.9570007324-25.3809814453-1.0530090332-2.4400024414-9.9070129395-19.8980102539c-.4109802246-.6019897461-1.657989502-.0629882812-1.5029907227.6499938965l7.6870117188,20.8550109863,1.0539855957,2.4389953613,10.9570007324,25.382019043,1.0530090332,2.4389953613,9.9060058594,19.8979797363c.4109802246.6020202637,1.658996582.0640258789,1.5029907227-.6489868164" fill="#010101"/>
    <path d="M392.2067871094,209.7431030273l-92.7219848633,12.6140136719-13.716003418,64.174987793-1.9479980469,9.466003418-6.1960144043.800994873-14.5710144043,1.8840026855,19.0640258789-81.7969970703,11.6409912109-4.1220092773.6740112305-.2389831543.3709716797-.6020202637.0780029297-.1260070801-1.4389953613.9460144043,75.6109924316-10.8659973145,18.6130065918-2.6740112305,4.3220214844-.641998291-.9370117188-18.5929870605-.5780029297-4.592010498-.0159912109-2.0199890137-.0079956055-1.0639953613c-.0010070801-.5010070801.0009765625-.3300170898.0229797363-.4800109863.0610046387-.2179870605.3170166016-.5809936523.6570129395-.8559875488.341003418-.2830200195.766998291-.5020141602,1.1959838867-.6140136719.4320068359-.1140136719.865020752-.125,1.2760009766-.0299987793l.3059997559.0899963379c.1210021973.0360107422.325012207.1190185547.483001709.175994873l.983001709.3680114746c1.2770080566.4859924316,2.4200134277.992980957,3.3390197754,1.7059936523.9299926758.6969909668,1.657989502,1.6000061035,2.2200012207,2.6799926758.6659851074,1.2690124512,1.366973877,2.5450134277,2.0529785156,3.7790222168l4.1690063477,7.4369812012,16.358001709,28.7579956055-.1340026855.1450195312-.033996582.0379943848-.0079956055.0090026855.0579833984-.0599975586.1220092773-.1270141602.0599975586-.0619812012-.0239868164.0260009766-.0500183105.0520019531-.0979919434.1039733887-1.4069824219,1.4760131836,27.5039672852,57.3439941406c2.2820129395,4.5239868164,3.5120239258,3.9450073242,1.4820251465-.6979980469l-25.8690185547-56.1329956055.1460266113-.1459960938.0189819336-.0180053711.0090026855-.0100097656.0039978027-.0039978027-.050994873.0540161133-.1979980469.2059936523.049987793-.050994873.199005127-.2050170898,1.4779968262-1.5239868164-16.8500061035-30.7059936523-4.0439758301-7.4790039062c-.6720275879-1.257019043-1.3190002441-2.4779968262-1.9530029297-3.733001709-.7200012207-1.450012207-1.7850036621-2.8330078125-3.115020752-3.8590087891-1.3199768066-1.0489807129-2.8079833984-1.7049865723-4.1659851074-2.2489929199l-1.0039978027-.3940124512c-.1740112305-.0650024414-.2980041504-.1199951172-.5140075684-.1959838867-.2349853516-.0769958496-.4710083008-.1570129395-.7109985352-.2210083008-.9710083008-.2399902344-1.9989929199-.225982666-2.941986084.0060119629-.9480285645.2319946289-1.8210144043.6609802246-2.5860290527,1.2659912109-.7539978027.6140136719-1.4479980469,1.3819885254-1.8479919434,2.5140075684-.2070007324.5239868164-.2359924316,1.4140014648-.2239990234,1.6210021973l-.0079956055,1.0639953613-.0159912109,2.2369995117.5139770508,4.6770019531.5160217285,14.8349914551c-.007019043-.0020141602-.0119934082-.0039978027-.0160217285-.0079956055l-.0019836426-.0020141602v-.0009765625l-.0010070801-.0010070801-.0789794922.0109863281-.6310119629.0859985352-18.6130065918,2.6750183105-75.6109924316,10.8649902344-.9389953613.1350097656-.5.8110046387-.0670166016.1079711914,1.0450134277-.8409729004-13.733001709,4.8629760742-20.8930053711,89.6459960938,20.3649902344-2.6319885254,9.0640258789-1.1730041504,2.5309753418-12.2969970703,12.3090209961-62.2699890137,90.3909912109-13.716003418c4.9939880371-.8590087891,4.799987793-2.2050170898-.233001709-1.6210021973" fill="#010101"/>
    <path d="M424.8646850586,293.611328125c10.1820068359,2.3280029297,14.5260009766,14.9719848633,15.9110107422,20.1790008545,2.7789916992-5.1250152588,4.4979858398-20.6060028076,2.2489929199-29.0739898682,17.8630065918.7249755859,29.6390075684.7249755859,29.6390075684.7249755859,0,0,8.1380004883,16.0130004883,0,34.2730102539-13.6940002441-.7939910889-34.3359985352-1.324005127-34.3359985352-1.324005127,0,0-2.8780212402-14.9849853516-13.4630126953-24.7789916992" fill="#003822"/>
    <polygon points="406.0079956055 195.7876281738 419.9140014648 219.8506164551 421.6869812012 219.4546203613 443.0690002441 267.1976318359 435.7789916992 267.1976318359 406.0079956055 195.7876281738" fill="#fff"/>
    <path d="M405.8530883789,196.4801025391l8.6619873047,22.3469848633,1.1040039062,2.6480102539,11.483001709,27.5450134277,1.1040039062,2.6479797363,7.1870117188,16.1090087891,7.0969848633-.1699829102c.7720031738-.0690307617.7720031738-.7490234375,0-.8190307617l-6.3259887695-.1689758301-6.0870056152-15.7310180664-1.1040039062-2.6479797363-11.4840087891-27.5450134277-1.1029968262-2.6480102539-9.7769775391-21.8819885254c-.3619995117-.6860046387-.9890136719-.424987793-.7560119629.3150024414" fill="#010101"/>
    <path d="M443.2138061523,266.5187072754l-8.924987793-21.4060058594-1.1340026855-2.533996582-10.8800048828-24.2940063477-1.8550109863.4150085449-.2640075684-.4559936523-1.3889770508-2.4039916992-12.1239929199-19.7709960938c-.4340209961-.6130371094-1.0220031738-.2730102539-.7090148926.408996582l11.0780029297,20.3759765625,1.3899841309,2.4039916992,1.0079956055,1.7450256348,1.6920166016-.3780212402,10.2019958496,22.7820129395,1.1350097656,2.532989502,10.0279846191,20.9140014648c.3690185547.6540222168.9890136719.3760070801.7470092773-.3349914551" fill="#010101"/>
    <rect x="233.7019958496" y="341.928024292" width="125.3720092773" height="16.4069976807" fill="#343434"/>
    <path d="M358.2550964355,343.8682098389l-.2179870605,13.4300079346-64.7490234375-.9900054932h-57.5589904785v-12.3359985352l31.5289916992.2789916992,9.608001709.0850067139,80.2600097656-.4980010986c2.5889892578-.1159973145,2.6000061035-1.4759979248.0140075684-1.6380004883l-80.2380065918-1.9179992676-9.608001709-.0850067139-35.6190032959-.3150024414v20.4790039062h61.612991333l66.8220214844-.9899902344-.217010498-15.5030059814c-.1400146484-2.5890045166-1.4989929199-2.5890045166-1.6380004883,0" fill="#010101"/>
    <polygon points="261.834197998 270.5290222168 258.5351867676 270.5290222168 258.5351867676 263.0890197754 254.1501922607 263.0890197754 254.1501922607 270.5290222168 250.8502044678 270.5290222168 250.8502044678 292.7750244141 261.834197998 292.7750244141 261.834197998 270.5290222168" fill="#343434"/>
    <path d="M251.2602996826,292.2934265137l.6040039062-19.9110107422v-.8399963379h3.2989959717v-7.4400024414h2.358001709v7.4400024414h3.299987793v.8399963379l.6040039062,19.9110107422c.0690002441.641998291.7489929199.641998291.8179931641,0l.6050109863-19.9110107422v-2.866973877h-3.299987793v-7.4400024414h-6.4120025635v7.4400024414h-3.2990112305v2.866973877l.6040039062,19.9110107422c.0700073242.641998291.7489929199.641998291.8190002441,0" fill="#010101"/>
    <path d="M261.7590026855,291.9564208984l-3.108001709-1.2080078125h-4.6170043945l-3.108001709,1.2080078125c-.0999908447.1390075684-.0999908447,1.4979858398,0,1.6380004883l3.108001709,1.2080078125h4.6170043945l3.108001709-1.2080078125c.1010131836-.1400146484.1010131836-1.4989929199,0-1.6380004883" fill="#010101"/>
    <path d="M317.240814209,356.1283111572c-.0320129395-.2389984131-.0679931641-.4810028076-.1059875488-.7239990234h8.1609802246l7.649017334-12.0110015869h29.0619812012c-1.1049804688-1.2700042725-2.4559936523-2.4900054932-4.0859985352-3.6289978027h-16.8670043945s-5.0109863281-5.279006958-8.4389953613-6.0709991455c0-8.2949981689-.4679870605-7.2420043945-.4679870605-7.2420043945l-2.9609985352-1.0529937744-5.5379943848-52.9450073242-28.4840087891-5.2789916992-25.0540161133,6.0700073242-1.117980957,15.2030029297c-7.0490112305.0739746094-13.9980163574-.0250244141-21.0360107422-.0250244141-5.8029937744,0-8.9679870605,2.6400146484-8.9679870605,9.108001709v23.8880004883c0,6.0710144043.7919921875,14.2550048828,8.5719909668,14.2550048828-1.5820007324,0-1.8460083008,3.6950073242-1.8460083008,3.6950073242-7.7799987793,0-7.7799987793-.1310119629-7.7799987793-.1310119629,0,0-6.0659942627-.4489898682-8.4400024414,2.9020080566,10.3320007324.4309997559,31.5190124512,1.6340026855,40.5379943848,1.9589996338,4.4100036621.1600036621,8.041015625,1.6860046387,10.8160095215,4.0449981689h29.9909973145l.9710083008,2.7059936523h-3.5010070801v1.5839996338h-13.9129943848l-.5270080566-1.5839996338h-10.4599914551c1.2109985352,1.5900115967,2.1510009766,3.3800048828,2.8089904785,5.279006958h31.0230102539Z" fill="#005538"/>
    <path d="M314.008392334,355.3096160889l-27.0599975586-.2599945068-.1119995117-.324005127-.1530151367-.3880004883-.3089904785-.6959991455-.2380065918-.4949951172c-.1959838867-.3940124512-.4169921875-.7600097656-.6569824219-1.0970001221-.1270141602-.1130065918.0699768066-.0640106201.1510009766-.0720062256l.3039855957.0059967041.5950012207.012008667,2,.0240020752,2.6700134277.0239868164,1.7909851074.0240020752.5159912109,1.5989990234,14.8030090332.1260070801,1.3470153809.0110015869.0130004883-1.370010376.0139770508-1.5849914551-1.3739929199,1.375,3.5.0310058594,1.9909973145.0179901123-.6679992676-1.8990020752-1.2869873047-3.6620025635-17.4649963379-.1489868164-8.2279968262-.074005127-4.115020752-.0370025635-.475982666-.0050048828-.0820007324-.004989624c-.0299987793.0069885254-.0480041504-.0250091553-.0690002441-.0400085449-.0270080566-.0249938965.0039978027-.0039978027-.2010192871-.1599884033-.5929870605-.4690093994-1.2269897461-.887008667-1.875-1.2779998779-2.6039733887-1.5610046387-5.5950012207-2.4160003662-8.5679931641-2.6300048828l-8.2680053711-.4799957275-16.4289855957-.9420013428-15.9770050049-.7720031738-.5139923096-.0249938965,1.5690002441,3.1969909668c.2769927979-.3569946289.6369934082-.6860046387,1.0969848633-.970993042.4710083008-.2779998779,1.0370178223-.4990081787,1.6400146484-.6740112305.6059875488-.175994873,1.2679901123-.2799987793,1.9349975586-.3499908447.6479949951-.0670013428,1.4049987793-.0899963379,1.966003418-.0579986572l-1.8770141602-1.9600067139c-.0209960938.4909973145.3359985352,1.2539978027.825012207,1.5709991455.5629882812.3480072021.1909942627.1139984131.3320007324.199005127l.125.0540008545c.0849914551.032989502.1719970703.06199646.2599945068.0839996338l.112991333.0260009766.1470031738.0240020752.1380004883.016998291.1790008545.0149993896.2890014648.016998291.5279998779.0229949951,1.0100097656.0250091553,1.9869995117.0269927979,5.7319946289.0160064697.175994873-1.9759979248c.0249938965-.3300018311.091003418-.6340026855.1480102539-.9440002441l.0309906006-.154006958.0110015869-.0420074463.0230102539-.0849914551.0159912109-.06199646c.0119934082-.0500030518.0229949951-.0870056152.0350036621-.1230010986l.0180053711-.0559997559c.009979248-.0190124512.0279846191-.0350036621-.0690002441-.0709991455l-.4030151367-.1840057373v-2.0269927979c0-.1340026855,0-.0810089111,0,0v-2.0260009766l-1.5469970703-.1920013428c-.1149902344-.0039978027-.2959899902-.0620117188-.4509887695-.0989990234l-.1170043945-.0310058594-.029006958-.0119934082-.0579986572-.0250091553-.2350006104-.0950012207c-.3339996338-.0939941406-.5899963379-.3059997559-.8780059814-.4659881592-.5269927979-.3980102539-1.0189819336-.8650054932-1.3949890137-1.5080108643-.7980041504-1.233001709-1.2590026855-2.8899993896-1.5100097656-4.6179962158-.2579956055-1.7389984131-.3309936523-3.550994873-.3249969482-5.4239959717v-22.9680023193l.0019989014-.7130126953.0200042725-.6359863281c-.0019989014-.4299926758.0690002441-.8269958496.1009979248-1.2399902344.125-.7920227051.3059997559-1.5500183105.5939941406-2.1970214844.5940093994-1.2769775391,1.5490112305-2.0869750977,2.9700012207-2.5479736328.7140045166-.2150268555,1.5090026855-.3350219727,2.3350067139-.3980102539.796005249-.0350036621,1.7949981689-.0270080566,2.75-.0250244141l11.495010376.0130004883,5.7479858398.007019043,2.7520141602.0029907227.7179870605.0010070801h.3590087891c.0409851074-.0849914551.0260009766-.2290039062.0419921875-.3399963379l.1060180664-1.4320068359.282989502-3.8569946289.733001709-9.9790039062,23.1979980469-5.6220092773,24.0889892578,4.4650268555,2.4800109863.4599914551,1.0879821777,10.3909912109,4.7720031738,42.046005249,2.7749938965.9749908447-.4809875488-.1719970703-.1019897461-.0359954834.016998291.0059967041.0350036621.0119934082.1389770508.0480041504.2780151367.0960083008.3280029297.1109924316.1119995117.033996582c.0199890137.0090026855.0359802246.0090026855.0530090332.0050048828.0139770508.0149993896.0179748535.033996582.0229797363.0530090332.0209960938.078994751.0290222168.1399841309.0400085449.2439880371l.074005127,1.1159973145c.0359802246.7610015869.0629882812,1.5299987793.0789794922,2.3040008545l.0500183105,3.4450073242,1.1260070801.3359985352.9709777832.345993042c.200012207.0650024414.2109985352.0940093994.3160095215.1410064697l.2520141602.1269989014c.1679992676.0780029297.3359985352.1840057373.5049743652.2819976807.6760253906.3939971924,1.3470153809.8630065918,2.0010070801,1.3679962158.6560058594.5030059814,1.300994873,1.0380096436,1.9280090332,1.5980072021l.9299926758.8520050049.5400085449.5229949951.7909851074.8050079346,11.7929992676-.0990142822,5.2369995117-.050994873c.0840148926.0030059814.1300048828.0709991455.2270202637.1280059814l.4719848633.3489990234c.3510131836.2679901123.6929931641.5439910889,1.0260009766.8309936523.6650085449.5729980469,1.291015625,1.1860046387,1.8699951172,1.8370056152l.9510192871-2.0899963379-29.6090087891.2630004883-7.5769958496,12.1399993896-5.1849975586.050994873c-1.1450195312.0370025635-1.9859924316.1609954834-2.5.324005127l-.6610107422.2099914551.1719970703.3630065918c.4230041504.8959960938.8359985352.862991333.9779968262-.1549987793l-.4889831543.5719909668c.5140075684.1640014648,1.3549804688.2870025635,2.5.324005127l6.1390075684.050994873,7.7189941406-11.8820037842,28.5130004883.262008667,2.7619934082.0260009766-1.8089904785-2.1150054932c-.6450195312-.7529907227-1.342010498-1.4579925537-2.0760192871-2.1139984131-.367980957-.3280029297-.7449951172-.6450042725-1.1289978027-.949005127l-.2900085449-.2259979248-.3539733887-.2649993896-.4480285645-.3249969482c-.1609802246-.0950012207-.29296875-.2799987793-.5009765625-.2319946289l-5.9380187988-.0520019531-10.5599975586-.1029968262-.1229858398-.1340026855-.3940124512-.391998291-.9799804688-.9309997559c-.6610107422-.6130065918-1.3470153809-1.2050018311-2.0650024414-1.7750091553-.7140197754-.5719909668-1.4620056152-1.1190032959-2.2830200195-1.6179962158-.2049865723-.125-.4039916992-.2530059814-.6289978027-.3659973145l-.6029968262-.3150024414-.2680053711-.1199951172-.1409912109-.0480041504c-.0130004883-.0870056152.0020141602-.1959991455.0010070801-.2900085449l.0029907227-.3559875488-.0029907227-.5950012207c-.0020141602-.7920074463-.0150146484-1.5890045166-.0390014648-2.3939971924l-.0589904785-1.2300109863c-.0670166016-.6640014648-.0970153809-1.4219970703-.3810119629-1.9909973145-.0729980469-.1399993896-.1480102539-.2760009766-.2590026855-.3990020752-.092010498-.0939941406,0,.0050048828-.1130065918-.0679931641l-.2179870605-.1179962158c-.2860107422-.1610107422-.5729980469-.3209991455-.9219970703-.4260101318l-.7790222168-.282989502-.2760009766-.1010131836-.1379699707-.049987793-.0340270996-.0130004883-.016998291-.0060119629c-.0130004883.0160064697-.0799865723.1670074463-.1170043945.2440032959l-.5289916992,1.1360015869.2870178223-.7700042725.1449890137-.3860015869c.0369873047-.1039886475.1279907227-.3279876709.0939941406-.2729949951l-.1000061035-.0419921875-3.8150024414-40.0489959717-1.4010009766-13.4039916992-5.458984375-1.0120239258-24.9389953613-4.6220092773-26.9120178223,6.5210266113-.9499816895,12.925994873-.1380004883,1.8689880371h-.1180114746l-5.7359924316-.0079956055-11.4720001221-.0130004883c-.9589996338.0010070801-1.8740081787-.0149841309-2.9900054932.032989502-1.0830078125.0790100098-2.1889953613.2369995117-3.3099975586.5780029297-1.1179962158.3569946289-2.2480010986.9270019531-3.2129974365,1.7540283203-.9680023193.8219909668-1.7230072021,1.883972168-2.228012085,2.9839782715-.4959869385,1.1059875488-.7509918213,2.2260131836-.9199829102,3.3219909668-.0500030518.5400085449-.1329956055,1.091003418-.1340026855,1.6190185547l-.0249938965.799987793-.0010070801.7210083008v22.9680023193c-.0060119629,1.9519958496.0659942627,3.9769897461.3689880371,6.0260009766.3110046387,2.0410003662.8280029297,4.1809997559,2.0989990234,6.1909942627.6000061035,1.0070037842,1.483001709,1.925994873,2.4930114746,2.6560058594.5319976807.3299865723,1.0570068359.68699646,1.6439971924.8859863281l.4309997559.171005249.108001709.0420074463.0540008545.0209960938-.0270080566-.0079956055c-.0350036621-.0100097656-.095993042-.0500030518-.078994751-.0390014648l-.0569915771.216003418-2.120010376-.012008667-1.9409942627-.0260009766-.9550018311-.0240020752-.4530029297-.0189971924-.2010040283-.0119934082-.0659942627-.0050048828h.0050048828c-.0030059814.0260009766.0119934082-.074005127-.0110015869.1210021973l-.1069946289.7980041504c-.0520019531.2989959717-.0490112305.4269866943-.0940093994.6369934082l-.06300354.279006958c-.0029907227.0309906006-.0090026855.06199646-.0199890137.0909881592l-.0190124512.0420074463c.5310058594-.717010498-1.2030029297,1.6340026855,1.1860046387-1.6029968262.4880065918.3159942627.8450012207,1.0780029297.8229980469,1.5690002441l-1.8769989014-1.9600067139c-.9839935303-.0540008545-1.7759857178-.0139923096-2.6660003662.0680084229-.8679962158.0909881592-1.7399902344.2279968262-2.6210021973.4799957275-.8789978027.2529907227-1.766998291.5869903564-2.6300048828,1.0970001221-.8579864502.5220031738-1.675994873,1.2229919434-2.3269958496,2.108001709l-2.2139892578,3.0149993896,3.783996582.1819915771.5149993896.0250091553,15.9860076904.7729949951,16.4479980469.6450042725,8.1690063477.3249969482c2.4949951172.1360015869,4.9319763184.7919921875,7.0639953613,2.0180053711.5309753418.3079986572,1.0520019531.6359863281,1.5409851074,1.0099945068.0720214844.0449981689.3680114746.2859954834.6060180664.4790039062.2569885254.1640014648.4519958496.4980010986.800994873.4049987793l1.4979858398-.0090026855,4.115020752-.0370025635,8.2279968262-.0749969482,15.4509887695-.1479949951.1570129395.3999938965.4989929199,1.3479919434,1.3219909668-1.879989624-3.5.0309906006-1.3859863281.0130004883.0119934082,1.3610076904.0140075684,1.5849914551,1.3599853516-1.3600006104-13.0230102539.1260070801-.5389709473-1.5690002441-6.2180175781.0480041504-3.3389892578.0240020752-2.075012207.0119934082-1.0319824219.0059967041c-.3200073242.012008667-.7690124512-.032989502-.8529968262.0839996338.9559936523,1.3059997559,2.0659790039,2.7070007324,2.7630004883,3.9810028076l.2609863281.4889984131.1529846191.3050079346.2870178223.6159973145.1829833984.4360046387.2010192871.516998291.3819885254,1.0410003662,28.5480041504-.2420043945c4.3099975586-.1399993896,4.3099975586-1.4989929199,0-1.6380004883" fill="#010101"/>
    <path d="M273.7314147949,276.886505127l19.907989502-5.0039978027,1.3099975586,52.1430053711h-10.9679870605s.3590087891-8.3280029297.3590087891-11.3570098877c0-3.0279998779-2.8489990234-9.0859832764-12.0180053711-10.1379852295.6560058594-10.666015625,1.408996582-25.6440124512,1.408996582-25.6440124512" fill="#005538"/>
    <path d="M272.861907959,277.7870178223l-1.6730041504,19.4270019531-.2080078125,2.4280090332-.2720031738,3.5729980469-.0399780273.5480041504c.0109863281.033996582-.0360107422.1159973145.0209960938.1119995117l.1310119629.0239868164.2649841309.0450134277,1.0629882812.1859741211,1.074005127.1870117188.2700195312.0469970703.0679931641.0119934082.0989990234.016998291.016998291.0040283203.066986084.0189819336.2680053711.075012207c.3560180664.100982666.7149963379.1889953613,1.0660095215.2989807129l1.0239868164.3800048828c1.3350219727.5570068359,2.5500183105,1.3059997559,3.5460205078,2.2430114746,1.0079956055.924987793,1.7469787598,2.0799865723,2.2099914551,3.2699890137.2200012207.56300354.3850097656,1.1459960938.4349975586,1.6660003662.0020141602.1349945068.0199890137.2180023193.0190124512.3960113525l-.0190124512.578994751-.0369873047,1.1580047607-.1610107422,5.083984375-.0889892578,2.791015625-.0810241699,2.5679931641-.0199890137.6399993896-.0100097656.3199920654-.0059814453.1600036621c.0399780273.0140075684.1029968262.0039978027.1539916992.0070037842h14.9849853516l-.7569885254-30.1439971924-.1180114746-4.6679992676-.5439758301-9.6960144043-.2720031738-4.8489990234-.1380004883-2.5029907227-.1790161133-4.1260070801-4.0289916992,1.091003418-2.4100036621.683013916-4.7120056152,1.341003418-9.4219970703,2.6809997559c-1.1860046387.441986084-.8549804688,1.759979248.399017334,1.5889892578l9.5699768066-2.0939941406,4.7860107422-1.0460205078,2.3370056152-.509979248.7200012207-.1020202637-.0559997559.7260131836-.016998291,2.3489990234-.0280151367,4.8569946289-.0569763184,9.7109985352.117980957,4.6679992676.6520080566,25.9880065918h-6.7980041504v.0059967041l.074005127-2.3309936523.1619873047-5.1630096436.0379943848-1.174987793.0180053711-.5890045166c.0030212402-.2100067139-.0199890137-.5149993896-.0350036621-.7679901123-.1019897461-1.0320129395-.3759765625-1.9559936523-.7239990234-2.8390197754-.8209838867-1.7909851074-2.0179748535-3.350982666-3.4809875488-4.5429992676-1.4519958496-1.2039794922-3.1140136719-2.0709838867-4.8179931641-2.657989502l-1.2879943848-.3890075684c-.433013916-.1059875488-.8680114746-.1879882812-1.3000183105-.2810058594l-.3259887695-.066986084-.0809936523-.016998291-.0200195312-.0039978027c.0690002441.0159912109.0679931641.016998291.0599975586.0149841309h-.0379943848l-.1300048828-.0009765625c-.0699768066-.0170288086-.2420043945.0409851074-.2079772949-.0760192871l-.0230102539-.2630004883c-.0010070801-.0429992676-.0060119629-.0010070801-.0029907227-.1170043945l.0069885254-.3049926758.0149841309-.6109924316.058013916-2.4389953613.467010498-19.5130004883c-.0690002441-1.2630004883-1.4270019531-1.3320007324-1.6350097656-.0830078125" fill="#010101"/>
    <polygon points="298.0562133789 271.8755187988 299.4981994629 324.0255126953 325.4712219238 324.0255126953 320.2242126465 276.1225280762 298.0562133789 271.8755187988" fill="#8abd24"/>
    <path d="M298.9032897949,272.8714294434l10.5260009766,2.3309936523,5.2619934082,1.166015625,2.632019043.5820007324,1.2129821777.2720031738.3760070801.1109924316.0050048828.3800048828c-.0079956055-.0100097656.0189819336.2959899902.033996582.4899902344l.0520019531.6409912109.2070007324,2.5670166016.4129943848,5.1329956055.8280029297,10.2649841309.549987793,5.0160217285,2.2090148926,20.1729888916h-21.740020752l-.0549926758-1.9909973145-.1399841309-5.0440063477-2.3730163574-42.0909881592c-.175994873-1.3560180664-1.5350036621-1.3179931641-1.6359863281.0440063477l-.0429992676,42.1599884033.1399841309,5.0429992676.1629943848,5.9329986572h30.2060241699l-2.7019958496-24.6679992676-.5490112305-5.0159912109-1.4140014648-10.2010192871-.7070007324-5.100982666-.3540039062-2.5500183105-.4689941406-3.6049804688-2.2709960938-.3959960938-1.4320068359-.2350158691-2.6610107422-.4309997559-5.3199768066-.8619995117-10.641998291-1.7239990234c-1.3610229492-.1199951172-1.6170043945,1.216003418-.308013916,1.608001709" fill="#010101"/>
    <path d="M274.4884033203,317.5880126953v13.7610015869h53.7200012207v-2.6459960938l-48.9570007324.2639923096s.2650146484-13.8930053711.2650146484-16.2749938965c0-2.3810119629-2.382019043-5.158996582-8.9970092773-6.2189941406,4.2659912109,3.3399963379,3.9689941406,5.4479980469,3.9689941406,11.1149902344" fill="#005538"/>
    <path d="M275.8599853516,278.7282104492l15.9790039062-3.0180053711.0579833984,24.8560180664s-1.8329772949-11.3630065918-6.6269836426-15.091003418c-4.7940063477-3.7290039062-9.4100036621-6.7470092773-9.4100036621-6.7470092773" fill="#8abd24"/>
    <path d="M287.1795959473,228.6841125488c1.7760009766,0,3.2149963379-2.5130004883,3.2149963379-5.6119995117s-1.4389953613-5.6119995117-3.2149963379-5.6119995117-3.2149963379,2.5130004883-3.2149963379,5.6119995117,1.4389953613,5.6119995117,3.2149963379,5.6119995117" fill="#003822"/>
    <path d="M287.0710144043,227.8528137207c-.7090148926-.2690124512-1.1770019531-1.3389892578-1.3179931641-2.408996582-.149017334-1.0840148926-.0249938965-2.2420043945.2890014648-3.2600097656.0350036621-.2469787598.0709838867-.4920043945.1259765625-.7279968262.1300048828-.6170043945.3760070801-1.1770019531.6380004883-1.566986084.132019043-.1849975586.2670288086-.3110046387.3450012207-.365020752.0559997559-.0480041504.0160217285-.009979248.0290222168-.0229797363.0119934082.0130004883-.0280151367-.0250244141.0269775391.0229797363.0780029297.0540161133.2130126953.1800231934.3460083008.365020752.2610168457.3889770508.507019043.9499816895.6380004883,1.566986084.0549926758.2359924316.0899963379.4810180664.125.7279968262.3139953613,1.0180053711.4380187988,2.175994873.2900085449,3.2600097656-.1409912109,1.0700073242-.608001709,2.1399841309-1.3179931641,2.408996582-.0989990234.1520080566-.2460021973,1.5230102539.1679992676,1.6289978027.9859924316.0090026855,1.850982666-.5350036621,2.4449768066-1.1199951172.6100158691-.6010131836,1.0540161133-1.2950134277,1.4030151367-2.0140075684.6860046387-1.4479980469,1.0119934082-3.0079956055,1.0390014648-4.6329956055-.050994873-.3859863281-.1100158691-.7720031738-.200012207-1.157989502-.2249755859-1.0020141602-.6029968262-2.0110168457-1.2720031738-2.9960021973-.3489990234-.4890136719-.7869873047-.9790039062-1.3929748535-1.3950195312-.6200256348-.4339904785-1.4840087891-.7379760742-2.2990112305-.7319946289-.8160095215-.0059814453-1.6790161133.2990112305-2.2990112305.7319946289-.6049804688.416015625-1.0439758301.9060058594-1.391998291,1.3960266113-.6690063477.9839782715-1.0480041504,1.9939880371-1.2720031738,2.9949951172-.0899963379.3859863281-.1499938965.7720031738-.2009887695,1.157989502.0280151367,1.6260070801.3529968262,3.1849975586,1.0400085449,4.6329956055.3489990234.7200012207.7929992676,1.4129943848,1.4029846191,2.0140075684.5939941406.5849914551,1.4590148926,1.1289978027,2.4450073242,1.1199951172.4140014648-.1059875488.266998291-1.4769897461.1679992676-1.6289978027" fill="#010101"/>
    <path d="M398.1401977539,207.5367126465c1.7749938965,0,3.2149963379-2.5130004883,3.2149963379-5.6119995117s-1.4400024414-5.6119995117-3.2149963379-5.6119995117-3.2149963379,2.5130004883-3.2149963379,5.6119995117,1.4400024414,5.6119995117,3.2149963379,5.6119995117" fill="#003822"/>
    <path d="M398.0317077637,206.7052307129c-.7090148926-.2690124512-1.175994873-1.3389892578-1.316986084-2.408996582-.149017334-1.0840148926-.0250244141-2.2420043945.2879943848-3.2600097656.0350036621-.2469787598.0719909668-.4920043945.1269836426-.7279968262.1289978027-.6170043945.3760070801-1.1770019531.6380004883-1.566986084.132019043-.1849975586.266998291-.3110046387.3439941406-.365020752.0559997559-.0480041504.0160217285-.009979248.0290222168-.0229797363.0119934082.0130004883-.0280151367-.0250244141.0269775391.0229797363.0780029297.0540161133.2130126953.1800231934.3460083008.365020752.2610168457.3899841309.507019043.9499816895.6380004883,1.566986084.0549926758.2359924316.0899963379.4810180664.125.7279968262.3139953613,1.0180053711.4380187988,2.175994873.2900085449,3.2600097656-.1409912109,1.0700073242-.608001709,2.1399841309-1.3179931641,2.408996582-.0989990234.1520080566-.2460021973,1.5230102539.1679992676,1.6289978027.9859924316.0090026855,1.850982666-.5350036621,2.4449768066-1.1199951172.6090087891-.6010131836,1.0540161133-1.2950134277,1.4030151367-2.0140075684.6860046387-1.4479980469,1.0119934082-3.0069885254,1.0390014648-4.6329956055-.050994873-.3859863281-.1100158691-.7720031738-.200012207-1.157989502-.2249755859-1.0010070801-.6029968262-2.0110168457-1.2709960938-2.9949951172-.3500061035-.490020752-.7879943848-.9800109863-1.3930053711-1.3960266113-.6199951172-.4339904785-1.4839782715-.7379760742-2.2989807129-.7319946289-.8160095215-.0059814453-1.6790161133.2980041504-2.3000183105.7319946289-.6049804688.416015625-1.0429992676.9060058594-1.391998291,1.3960266113-.6679992676.9839782715-1.0480041504,1.9939880371-1.2720031738,2.9949951172-.0899963379.3859863281-.1489868164.7720031738-.1999816895,1.157989502.0279846191,1.6260070801.3529968262,3.1849975586,1.0390014648,4.6329956055.3489990234.7189941406.7929992676,1.4129943848,1.4029846191,2.0140075684.5939941406.5849914551,1.4590148926,1.1289978027,2.4450073242,1.1199951172.4140014648-.1059875488.266998291-1.4769897461.1679992676-1.6289978027" fill="#010101"/>
    <path d="M284.1612854004,228.6841125488c1.7760009766,0,3.2149963379-2.5130004883,3.2149963379-5.6119995117s-1.4389953613-5.6119995117-3.2149963379-5.6119995117-3.2149963379,2.5130004883-3.2149963379,5.6119995117,1.4389953613,5.6119995117,3.2149963379,5.6119995117" fill="#005538"/>
    <path d="M284.0527954102,227.8528137207c-.7090148926-.2690124512-1.175994873-1.3389892578-1.316986084-2.408996582-.149017334-1.0840148926-.0250244141-2.2420043945.2879943848-3.2600097656.0350036621-.2469787598.0719909668-.4920043945.1269836426-.7279968262.1289978027-.6170043945.3760070801-1.1770019531.6380004883-1.566986084.132019043-.1849975586.266998291-.3110046387.3439941406-.365020752.0559997559-.0480041504.0160217285-.009979248.0290222168-.0229797363.0119934082.0130004883-.0280151367-.0250244141.0269775391.0229797363.0780029297.0540161133.2130126953.1800231934.3460083008.365020752.2610168457.3899841309.507019043.9499816895.6380004883,1.566986084.0549926758.2359924316.0899963379.4810180664.125.7279968262.3139953613,1.0180053711.4380187988,2.175994873.2900085449,3.2600097656-.1409912109,1.0700073242-.608001709,2.1399841309-1.3179931641,2.408996582-.0989990234.1520080566-.2460021973,1.5230102539.1679992676,1.6289978027.9859924316.0090026855,1.850982666-.5350036621,2.4449768066-1.1199951172.6090087891-.6010131836,1.0540161133-1.2950134277,1.4030151367-2.0140075684.6860046387-1.4479980469,1.0119934082-3.0069885254,1.0390014648-4.6329956055-.050994873-.3859863281-.1100158691-.7720031738-.200012207-1.157989502-.2250061035-1.0010070801-.6029968262-2.0110168457-1.2709960938-2.9949951172-.3500061035-.490020752-.7879943848-.9800109863-1.3930053711-1.3960266113-.6199951172-.4339904785-1.4839782715-.7379760742-2.2989807129-.7319946289-.8160095215-.0059814453-1.6790161133.2980041504-2.3000183105.7319946289-.6049804688.416015625-1.0429992676.9060058594-1.391998291,1.3960266113-.6679992676.9839782715-1.0480041504,1.9939880371-1.2720031738,2.9949951172-.0899963379.3859863281-.1489868164.7720031738-.1999816895,1.157989502.0279846191,1.6260070801.3529968262,3.1849975586,1.0390014648,4.6329956055.3489990234.7189941406.7929992676,1.4129943848,1.4029846191,2.0140075684.5939941406.5849914551,1.4590148926,1.1289978027,2.4450073242,1.1199951172.4140014648-.1059875488.266998291-1.4769897461.1679992676-1.6289978027" fill="#010101"/>
    <path d="M395.121887207,207.5367126465c1.7749938965,0,3.2149963379-2.5130004883,3.2149963379-5.6119995117s-1.4400024414-5.6119995117-3.2149963379-5.6119995117-3.2149963379,2.5130004883-3.2149963379,5.6119995117,1.4400024414,5.6119995117,3.2149963379,5.6119995117" fill="#005538"/>
    <path d="M395.0133056641,206.7052307129c-.7090148926-.2690124512-1.175994873-1.3389892578-1.316986084-2.408996582-.149017334-1.0840148926-.0250244141-2.2420043945.2879943848-3.2600097656.0359802246-.2469787598.0719909668-.4920043945.1269836426-.7279968262.1289978027-.6170043945.3760070801-1.1770019531.6380004883-1.566986084.132019043-.1849975586.266998291-.3110046387.3439941406-.365020752.0559997559-.0480041504.0160217285-.009979248.0290222168-.0229797363.0119934082.0130004883-.0280151367-.0250244141.0269775391.0229797363.0780029297.0540161133.2130126953.1800231934.3460083008.365020752.2610168457.3899841309.507019043.9499816895.6380004883,1.566986084.0549926758.2359924316.0899963379.4810180664.125.7279968262.3139953613,1.0180053711.4380187988,2.175994873.2900085449,3.2600097656-.1409912109,1.0700073242-.608001709,2.1399841309-1.3179931641,2.408996582-.0989990234.1520080566-.2460021973,1.5230102539.1679992676,1.6289978027.9859924316.0090026855,1.850982666-.5350036621,2.4449768066-1.1199951172.6090087891-.6010131836,1.0540161133-1.2950134277,1.4030151367-2.0140075684.6860046387-1.4479980469,1.0119934082-3.0069885254,1.0390014648-4.6329956055-.050994873-.3859863281-.1100158691-.7720031738-.200012207-1.157989502-.2250061035-1.0010070801-.6029968262-2.0110168457-1.2709960938-2.9949951172-.3500061035-.490020752-.7879943848-.9800109863-1.3930053711-1.3960266113-.6199951172-.4339904785-1.4839782715-.7379760742-2.2989807129-.7319946289-.8160095215-.0059814453-1.6790161133.2980041504-2.3000183105.7319946289-.6049804688.416015625-1.0429992676.9060058594-1.391998291,1.3960266113-.6679992676.9839782715-1.0480041504,1.9939880371-1.2720031738,2.9949951172-.0899963379.3859863281-.1489868164.7720031738-.1999816895,1.157989502.0279846191,1.6260070801.3529968262,3.1849975586,1.0390014648,4.6329956055.3489990234.7189941406.7929992676,1.4129943848,1.4029846191,2.0140075684.5939941406.5849914551,1.4590148926,1.1289978027,2.4450073242,1.1199951172.4140014648-.1059875488.266998291-1.4769897461.1679992676-1.6289978027" fill="#010101"/>
    <polygon points="298.5375061035 223.0721130371 293.7434997559 223.8661193848 293.6925048828 246.5921020508 298.5375061035 223.0721130371" fill="#003822"/>
    <path d="M401.5133972168,178.5922241211l-4.2600097656-5.3089904785-5.3269958496-1.4380187988s-.0820007324,25.5660095215-.0820007324,25.9219970703c0,.3550109863,2.4169921875-13.1380004883,4.8000183105-15.6239929199,2.3829956055-2.4859924316,4.8689880371-3.550994873,4.8689880371-3.550994873" fill="#005538"/>
    <polygon points="435.263092041 270.5604248047 440.2400817871 282.2784118652 470.8330993652 284.715423584 448.5401000977 280.5024108887 445.9350891113 270.4384155273 435.263092041 270.5604248047" fill="#005538"/>
    <path d="M81.1564025879,355.2939147949v34.7749938965h251.600982666c66.5190124512,0,66.5190124512-34.7749938965,66.5190124512-34.7749938965H81.1564025879Z" fill="#003822"/>
    <path d="M85.8559036255,356.1127166748l194.2770004272,1.2079925537h116.875l-.0060119629.0250091553c-.407989502,2.2389984131-1.2219848633,4.4799957275-2.2579956055,6.5769958496-1.0620117188,2.0950012207-2.3900146484,4.0650024414-3.9169921875,5.8789978027-1.5360107422,1.8110046387-3.2950134277,3.4390106201-5.1690063477,4.9320068359l-1.4299926758,1.0919952393-1.5,1.0070037842-.75.5050048828-.7830200195.4589996338-1.5639953613.9169921875c-1.0789794922.5559997559-2.1479797363,1.1300048828-3.2519836426,1.6410064697-1.125.4720001221-2.2080078125,1.0260009766-3.365020752,1.4339904785-4.549987793,1.7850036621-9.3209838867,3.0690002441-14.1669921875,4.0240020752-4.8590087891.9199981689-9.7959899902,1.4770050049-14.7519836426,1.8560028076-4.983001709.3020019531-9.9120178223.404006958-14.9779968262.3740081787h-83.7590026855l-163.1960067749,1.0209960938-.18699646-29.0700073242c-.138999939-6.2659912109-1.4980010986-6.2659912109-1.6370010376,0l-.1870040894,31.0810089111,165.2070083618,1.0209960938h83.7590026855c5.0159912109.0309906006,10.1719970703-.0709991455,15.2539978027-.3820037842,5.0969848633-.3899993896,10.1909790039-.9639892578,15.242980957-1.9199981689,5.0429992676-.9940032959,10.0480041504-2.3359985352,14.8869934082-4.2339935303,1.2230224609-.4340057373,2.391998291-1.0250091553,3.5899963379-1.5310058594,1.183013916-.5469970703,2.3380126953-1.1650085449,3.4980163574-1.7649993896l1.6969909668-.9940032959.8470153809-.5.8209838867-.5489959717,1.6380004883-1.1029968262,1.575012207-1.2010040283c2.0660095215-1.6450042725,4.0239868164-3.4559936523,5.7519836426-5.4940032959,1.7200012207-2.0399932861,3.2310180664-4.2760009766,4.4470214844-6.6790008545,1.1929931641-2.4199981689,2.1269836426-4.9619903564,2.6269836426-7.6849975586.0960083008-.5690002441.1750183105-1.2250061035.2550048828-1.8300018311.0289916992-.595993042.0690002441-1.2010040283.0710144043-1.7760009766l.0159912109-.8779907227.0019836426-.1130065918c-.0189819336-.0189971924-.066986084-.0110015869-.0989990234-.016998291l-.2149963379-.0200042725-.4289855957-.0379943848-.858001709-.0780029297c-.2799987793-.0319976807-.574005127-.050994873-.899017334-.0419921875h-118.7039794922l-194.2770004272,1.2079925537c-6.2659988403.1399993896-6.2659988403,1.4989929199,0,1.6380004883" fill="#010101"/>
    <polygon points="405.0380859375 203.5044250488 438.1110839844 280.1704101562 435.263092041 280.2944335938 405.0380859375 203.5044250488" fill="#005538"/>
    <path d="M177.9098052979,306.4657287598c1.3789978027,0,2.4980010986-1.1180114746,2.4980010986-2.4979858398,0-1.3780212402-1.1190032959-2.4960021973-2.4980010986-2.4960021973s-2.4980010986,1.117980957-2.4980010986,2.4960021973c0,1.3799743652,1.1190032959,2.4979858398,2.4980010986,2.4979858398" fill="#005538"/>
    <path d="M177.9098052979,306.4657287598c1.3789978027,0,2.4980010986-1.1180114746,2.4980010986-2.4979858398,0-1.3780212402-1.1190032959-2.4960021973-2.4980010986-2.4960021973s-2.4980010986,1.117980957-2.4980010986,2.4960021973c0,1.3799743652,1.1190032959,2.4979858398,2.4980010986,2.4979858398Z" fill="none" stroke="#045638" stroke-width=".8109999895"/>
    <path d="M164.2075958252,309.5757141113c1.3789978027,0,2.4980010986-1.1180114746,2.4980010986-2.4979858398,0-1.3780212402-1.1190032959-2.4960021973-2.4980010986-2.4960021973s-2.4980010986,1.117980957-2.4980010986,2.4960021973c0,1.3799743652,1.1190032959,2.4979858398,2.4980010986,2.4979858398" fill="#8abd24"/>
    <path d="M164.2075958252,309.5757141113c1.3789978027,0,2.4980010986-1.1180114746,2.4980010986-2.4979858398,0-1.3780212402-1.1190032959-2.4960021973-2.4980010986-2.4960021973s-2.4980010986,1.117980957-2.4980010986,2.4960021973c0,1.3799743652,1.1190032959,2.4979858398,2.4980010986,2.4979858398Z" fill="none" stroke="#045638" stroke-width=".8109999895"/>
    <path d="M182.0800018311,319.1750183105c1.3789978027,0,2.4980010986-1.1179962158,2.4980010986-2.4980010986,0-1.3780059814-1.1190032959-2.4960021973-2.4980010986-2.4960021973s-2.4980010986,1.1179962158-2.4980010986,2.4960021973c0,1.3800048828,1.1190032959,2.4980010986,2.4980010986,2.4980010986" fill="#8abd24"/>
    <path d="M182.0800018311,319.1750183105c1.3789978027,0,2.4980010986-1.1179962158,2.4980010986-2.4980010986,0-1.3780059814-1.1190032959-2.4960021973-2.4980010986-2.4960021973s-2.4980010986,1.1179962158-2.4980010986,2.4960021973c0,1.3800048828,1.1190032959,2.4980010986,2.4980010986,2.4980010986Z" fill="none" stroke="#045638" stroke-width=".8109999895"/>
    <path d="M187.7749938965,345.0579223633c1.3789978027,0,2.4980010986-1.1179962158,2.4980010986-2.4980010986,0-1.3780059814-1.1190032959-2.4960021973-2.4980010986-2.4960021973s-2.4980010986,1.1179962158-2.4980010986,2.4960021973c0,1.3800048828,1.1190032959,2.4980010986,2.4980010986,2.4980010986" fill="#8abd24"/>
    <path d="M187.7749938965,345.0579223633c1.3789978027,0,2.4980010986-1.1179962158,2.4980010986-2.4980010986,0-1.3780059814-1.1190032959-2.4960021973-2.4980010986-2.4960021973s-2.4980010986,1.1179962158-2.4980010986,2.4960021973c0,1.3800048828,1.1190032959,2.4980010986,2.4980010986,2.4980010986Z" fill="none" stroke="#045638" stroke-width=".8109999895"/>
    <path d="M227.8211975098,330.558013916c1.3789978027,0,2.4980010986-1.1179962158,2.4980010986-2.4980010986,0-1.3780059814-1.1190032959-2.4960021973-2.4980010986-2.4960021973s-2.4980010986,1.1179962158-2.4980010986,2.4960021973c0,1.3800048828,1.1190032959,2.4980010986,2.4980010986,2.4980010986" fill="#8abd24"/>
    <path d="M227.8211975098,330.558013916c1.3789978027,0,2.4980010986-1.1179962158,2.4980010986-2.4980010986,0-1.3780059814-1.1190032959-2.4960021973-2.4980010986-2.4960021973s-2.4980010986,1.1179962158-2.4980010986,2.4960021973c0,1.3800048828,1.1190032959,2.4980010986,2.4980010986,2.4980010986Z" fill="none" stroke="#045638" stroke-width=".8109999895"/>
    <path d="M223.3849945068,301.5284118652c1.3789978027,0,2.4980010986-1.1180114746,2.4980010986-2.4979858398,0-1.3780212402-1.1190032959-2.4960021973-2.4980010986-2.4960021973s-2.4980010986,1.117980957-2.4980010986,2.4960021973c0,1.3799743652,1.1190032959,2.4979858398,2.4980010986,2.4979858398" fill="#8abd24"/>
    <path d="M223.3849945068,301.5284118652c1.3789978027,0,2.4980010986-1.1180114746,2.4980010986-2.4979858398,0-1.3780212402-1.1190032959-2.4960021973-2.4980010986-2.4960021973s-2.4980010986,1.117980957-2.4980010986,2.4960021973c0,1.3799743652,1.1190032959,2.4979858398,2.4980010986,2.4979858398Z" fill="none" stroke="#045638" stroke-width=".8109999895"/>
    <path d="M217.6900939941,308.4515075684c1.3789978027,0,2.4980010986-1.1180114746,2.4980010986-2.4979858398,0-1.3780212402-1.1190032959-2.4960021973-2.4980010986-2.4960021973s-2.4980010986,1.117980957-2.4980010986,2.4960021973c0,1.3799743652,1.1190032959,2.4979858398,2.4980010986,2.4979858398" fill="#8abd24"/>
    <path d="M217.6900939941,308.4515075684c1.3789978027,0,2.4980010986-1.1180114746,2.4980010986-2.4979858398,0-1.3780212402-1.1190032959-2.4960021973-2.4980010986-2.4960021973s-2.4980010986,1.117980957-2.4980010986,2.4960021973c0,1.3799743652,1.1190032959,2.4979858398,2.4980010986,2.4979858398Z" fill="none" stroke="#045638" stroke-width=".8109999895"/>
    <path d="M212.9096069336,296.1360168457c1.3789978027,0,2.4980010986-1.1180114746,2.4980010986-2.4979858398,0-1.3780212402-1.1190032959-2.4960021973-2.4980010986-2.4960021973s-2.4980010986,1.117980957-2.4980010986,2.4960021973c0,1.3799743652,1.1190032959,2.4979858398,2.4980010986,2.4979858398" fill="#005538"/>
    <path d="M212.9096069336,296.1360168457c1.3789978027,0,2.4980010986-1.1180114746,2.4980010986-2.4979858398,0-1.3780212402-1.1190032959-2.4960021973-2.4980010986-2.4960021973s-2.4980010986,1.117980957-2.4980010986,2.4960021973c0,1.3799743652,1.1190032959,2.4979858398,2.4980010986,2.4979858398Z" fill="none" stroke="#045638" stroke-width=".8109999895"/>
    <path d="M237.3690032959,272.2212219238c1.3789978027,0,2.4980010986-1.1180114746,2.4980010986-2.4979858398,0-1.3780212402-1.1190032959-2.4960021973-2.4980010986-2.4960021973s-2.4980010986,1.117980957-2.4980010986,2.4960021973c0,1.3799743652,1.1190032959,2.4979858398,2.4980010986,2.4979858398" fill="#005538"/>
    <path d="M237.3690032959,272.2212219238c1.3789978027,0,2.4980010986-1.1180114746,2.4980010986-2.4979858398,0-1.3780212402-1.1190032959-2.4960021973-2.4980010986-2.4960021973s-2.4980010986,1.117980957-2.4980010986,2.4960021973c0,1.3799743652,1.1190032959,2.4979858398,2.4980010986,2.4979858398Z" fill="none" stroke="#045638" stroke-width=".8109999895"/>
    <path d="M199.6363983154,261.6880187988c1.3789978027,0,2.4980010986-1.1180114746,2.4980010986-2.4979858398,0-1.3780212402-1.1190032959-2.4960021973-2.4980010986-2.4960021973s-2.4980010986,1.117980957-2.4980010986,2.4960021973c0,1.3799743652,1.1190032959,2.4979858398,2.4980010986,2.4979858398" fill="#8abd24"/>
    <path d="M199.6363983154,261.6880187988c1.3789978027,0,2.4980010986-1.1180114746,2.4980010986-2.4979858398,0-1.3780212402-1.1190032959-2.4960021973-2.4980010986-2.4960021973s-2.4980010986,1.117980957-2.4980010986,2.4960021973c0,1.3799743652,1.1190032959,2.4979858398,2.4980010986,2.4979858398Z" fill="none" stroke="#045638" stroke-width=".8109999895"/>
    <path d="M186.2467956543,282.1918029785c1.3789978027,0,2.4980010986-1.1180114746,2.4980010986-2.4979858398,0-1.3780212402-1.1190032959-2.4960021973-2.4980010986-2.4960021973s-2.4980010986,1.117980957-2.4980010986,2.4960021973c0,1.3799743652,1.1190032959,2.4979858398,2.4980010986,2.4979858398" fill="#8abd24"/>
    <path d="M186.2467956543,282.1918029785c1.3789978027,0,2.4980010986-1.1180114746,2.4980010986-2.4979858398,0-1.3780212402-1.1190032959-2.4960021973-2.4980010986-2.4960021973s-2.4980010986,1.117980957-2.4980010986,2.4960021973c0,1.3799743652,1.1190032959,2.4979858398,2.4980010986,2.4979858398Z" fill="none" stroke="#045638" stroke-width=".8109999895"/>
    <path d="M145.182800293,340.0261230469c1.3789978027,0,2.4980010986-1.1179962158,2.4980010986-2.4980010986,0-1.3780059814-1.1190032959-2.4960021973-2.4980010986-2.4960021973s-2.4980010986,1.1179962158-2.4980010986,2.4960021973c0,1.3800048828,1.1190032959,2.4980010986,2.4980010986,2.4980010986" fill="#005538"/>
    <path d="M145.182800293,340.0261230469c1.3789978027,0,2.4980010986-1.1179962158,2.4980010986-2.4980010986,0-1.3780059814-1.1190032959-2.4960021973-2.4980010986-2.4960021973s-2.4980010986,1.1179962158-2.4980010986,2.4960021973c0,1.3800048828,1.1190032959,2.4980010986,2.4980010986,2.4980010986Z" fill="none" stroke="#045638" stroke-width=".8109999895"/>
    <path d="M329.2363891602,355.2939147949H50.0133972168s.009979248,33.2910003662,14.3289794922,34.7080078125v.066986084h209.5039978027c55.3900146484,0,55.3900146484-34.7749938965,55.3900146484-34.7749938965" fill="#005538"/>
    <path d="M327.8948974609,359.1957092285c-.7470092773,3.3679962158-2.1180114746,6.5899963379-3.9169921875,9.529006958-1.8150024414,2.9339904785-4.1100158691,5.5589904785-6.7149963379,7.8229980469-5.2300109863,4.5529937744-11.7260131836,7.4499969482-18.4110107422,9.3309936523-6.7369995117,1.7989959717-13.7279968262,2.6770019531-20.7399902344,2.8350067139-1.7590026855.0130004883-3.4970092773.0639953613-5.2720031738.0459899902l-5.3179931641-.0369873047-10.6350097656-.0760040283-85.0820007324-.6040039062h-107.4630126953l2.0260009766,2.0269927979v-1.8419952393l-1.8269958496-.2429962158c-1.0069885254-.1340026855-1.9639892578-.43699646-2.8599853516-.9329986572-.8810119629-.5390014648-1.6900024414-1.2570037842-2.4320068359-2.0899963379-1.4339904785-1.7400054932-2.575012207-3.8850097656-3.4320068359-6.1850128174-1.7369995117-4.6069946289-2.6470031738-9.6499938965-3.2200012207-14.6949920654-.1380004883-1.2640075684-.2510070801-2.5330047607-.3429870605-3.8050079346l-.115020752-1.9059906006-.0479736328-1.0500030518h102.8649902344l170.1650085449-1.2079925537c5.4869995117-.1390075684,5.4869995117-1.4980010986,0-1.6380004883l-170.1650085449-1.2080078125H51.3218994141c-.6480102539.0019989014-1.3049926758-.0050048828-1.9370117188.0130004883l-.9549865723.0189971924c-.1480102539.0140075684-.3439941406-.0189971924-.4530029297.033996582l.0029907227.4810028076.0140075684,1.9219970703c.0039978027.6440124512.0350036621,1.2520141602.049987793,1.8450012207l.0460205078.9960021973.1210021973,1.9860076904c.0950012207,1.3229980469.2129821777,2.6439971924.3569946289,3.9639892578.6050109863,5.2710113525,1.5319824219,10.5540008545,3.4629821777,15.6970062256.9640197754,2.56199646,2.257019043,5.095993042,4.1360168457,7.3719940186.983001709,1.1130065918,2.1229858398,2.1450042725,3.4719848633,2.9580078125,1.375.7789916992,2.9260253906,1.2779998779,4.5030212402,1.4649963379l-1.8269958496-2.016998291v2.0950012207h109.4899902344l85.0820007324-.6049957275,10.6350097656-.0749969482,5.3179931641-.0380096436c1.7699890137-.0079956055,3.5759887695-.0839996338,5.3609924316-.1240081787,7.1570129395-.2629852295,14.324005127-1.2589874268,21.2630004883-3.220993042,6.8880004883-2.0429992676,13.6319885254-5.1529998779,19.0769958496-10.0279998779,2.7109985352-2.4209899902,5.0939941406-5.2290039062,6.966003418-8.3519897461,1.8550109863-3.1310119629,3.2489929199-6.5420074463,3.9880065918-10.1130065918.5239868164-2.7830047607.1029968262-4.2579956055-.2579956055-4.2469940186-.3890075684.0019989014-.717010498,1.3099975586-1.342010498,3.9019927979" fill="#010101"/>
  </g>
</svg>