<?xml version="1.0" encoding="UTF-8"?>
<svg id="Ebene_1" data-name="Ebene 1" xmlns="http://www.w3.org/2000/svg" xmlns:xlink="http://www.w3.org/1999/xlink" viewBox="0 0 566.9291338583 566.9291338583">
  <defs>
    <clipPath id="clippath">
      <rect x="129.4645669291" y="69.4645669291" width="306.6437225342" height="428.5622253418" fill="none"/>
    </clipPath>
    <clipPath id="clippath-1">
      <rect x="129.4645669291" y="69.4645669291" width="306.6437225342" height="428.5622253418" fill="none"/>
    </clipPath>
    <clipPath id="clippath-2">
      <rect x="129.4645669291" y="69.4645669291" width="306.6437225342" height="428.5622253418" fill="none"/>
    </clipPath>
    <clipPath id="clippath-3">
      <rect x="129.4645669291" y="69.4645669291" width="306.6437225342" height="428.5622253418" fill="none"/>
    </clipPath>
  </defs>
  <path d="M206.3294961284,189.616483433c-1.8522796631,0-3.5776367188-.607208252-5.0528564453-1.6423034668l-14.1764678955,278.6014404297h38.4586486816l-14.1764678955-278.6014404297c-1.4753265381,1.0350952148-3.2005767822,1.6423034668-5.0528564453,1.6423034668h0Z" fill="#008939"/>
  <path d="M196.5719430278,179.6383645366c0-5.3894348145,4.3685455322-9.7579650879,9.7575531006-9.7579650879,5.3889007568,0,9.7575531006,4.3685302734,9.7575531006,9.7579650879,0,5.3889160156-4.3686523438,9.757019043-9.7575531006,9.757019043-5.3890075684,0-9.7575531006-4.3681030273-9.7575531006-9.757019043h0Z" fill="#008939"/>
  <path d="M202.3201119731,179.6383645366c0-2.2147216797,1.7950744629-4.0098266602,4.0093841553-4.0098266602s4.0093994141,1.7951049805,4.0093994141,4.0098266602c0,2.2142944336-1.7950897217,4.0084228516-4.0093994141,4.0084228516s-4.0093841553-1.794128418-4.0093841553-4.0084228516h0Z" fill="#8abd24"/>
  <path d="M211.3823525737,187.9741799662c-1.4752044678.8954162598-3.200668335,1.4212036133-5.0529632568,1.4212036133-1.8521728516,0-3.5775299072-.5257873535-5.0527496338-1.4212036133l-4.4055938721,87.0177001953,18.338760376-11.4190979004-3.8274536133-75.5986022949h0Z" fill="#015538"/>
  <path d="M202.846448643,170.5232217143c1.7301940918-.6611938477,3.5294799805-.7861633301,5.227432251-.4756469727l-36.620880127-95.8322753906c-.8268585205-2.1637573242-3.251159668-3.247467041-5.414855957-2.4206542969v.0000305176c-1.9281921387.7367858887-3.0334625244,2.7669372559-2.6060180664,4.7862854004l11.2059326172,67.6775512695c.4099578857,2.4760131836,1.5811309814,4.7629089355,3.350479126,6.5428161621l21.6279907227,21.7554626465c.9058532715-.8594055176,1.9906616211-1.5600280762,3.2299194336-2.0335693359h0Z" fill="#008939"/>
  <path d="M190.4821297953,160.6560952494l-21.1067962646-87.4604492188c-.0862426758-.4269104004-.0915374756-.852722168-.0607299805-1.2738037109-.9951629639-.467010498-2.1684265137-.5505981445-3.2764587402-.127166748-1.9280853271.7367858887-3.0334625244,2.7668762207-2.6060180664,4.7862243652l11.2059326172,67.677520752c.4099578857,2.4761047363,1.5811309814,4.7630004883,3.350479126,6.5427856445l4.1148986816,4.1391906738c-.2230834961-.6855163574,8.4893493652,6.436340332,8.378692627,5.7156982422h0Z" fill="#8abd24"/>
  <g clip-path="url(#clippath)">
    <path d="M208.073880894,170.0476968119l-3.5888519287-9.3916015625c-1.1953735352.176574707-2.3886566162.4737854004-3.5613708496.9219360352l-3.4125366211,1.3040466309c-1.7720947266.677154541-3.3549957275,1.6348266602-4.7420959473,2.7868652344l6.8475036621,6.8878479004c.9058532715-.8594055176,1.9906616211-1.5600280762,3.2298278809-2.0335693359,1.7302856445-.6611938477,3.5295715332-.7861633301,5.2275238037-.4755249023h0Z" fill="#015538"/>
    <path d="M201.0024239848,170.4847390483c-.1729278564.0953674316-.3421173096.1977539062-.509185791.3033447266l-.2844696045.1858215332c-.1733703613.1207580566-.3367156982.2488098145-.4896087646.3827819824-.1358642578-.0185852051-.2653198242-.2493591309-.3951263428-.3602294922l-.3987579346-.4275817871-1.3659667969-1.4266967773-2.7319641113-2.8533935547-5.4639282227-5.7069091797-5.4640197754-5.7069396973-2.7319641113-2.8533630371-1.3659667969-1.4267272949c-.4600219727-.4858703613-.9268798828-.9481811523-1.2739257812-1.3728027344-.7391967773-.8898925781-1.3260345459-1.9002380371-1.7337036133-2.9741821289-.4326324463-1.0961303711-.5767364502-2.1303710938-.7687988281-3.5108642578l-1.1446533203-7.8221130371-2.2896575928-15.646484375-1.2796173096-7.7279663086-3.3280639648-20.0985107422-1.6640777588-10.0492858887-.83203125-5.0246887207c-.0670928955-.4079284668-.0938262939-.5368347168-.0793151855-.7710876465.0139770508-.2138671875.0587463379-.4258422852.1337738037-.6281433105.1455230713-.408203125.4296417236-.7613830566.7802124023-1.0048522949.7146759033-.5018615723,1.7138061523-.5057983398,2.4314575195-.0001831055.3578186035.2579040527.6145782471.5793762207.7861633301,1.021484375l.9083709717,2.377166748,3.6336364746,9.5087280273,7.2671508789,19.017364502,2.7943267822,7.3122558594,11.596206665,28.7147216797,5.7979888916,14.3573303223,2.8990478516,7.1786804199,1.4495849609,3.5893249512.4916992188,1.1849060059.2135009766.5076599121.1090087891.2598266602c.005279541.032989502.0656738281.1110839844.0260925293.1075744629l-.1281585693-.0176086426c-.3066864014-.0378417969-.6266784668-.0501403809-.9551239014-.0321350098-.1748046875.0105895996-.3071289062.0231323242-.5218505859.0523681641-.3104248047.0408325195-.6192932129.09375-.9242248535.1629333496-1.1179199219.3124084473-1.4902801514.9158630371-1.3500366211,1.2569580078.1454315186.3634338379.7367858887.503692627,1.6837768555.3755493164.2582855225-.0487365723.5191040039-.0830688477.7803344727-.1073608398.3571777344-.0361938477.8019104004-.044342041,1.2265167236-.0148620605.8793334961.0804138184,1.8673553467.2325439453,2.7785949707.3876342773l.0742492676-.1487121582c.0214385986-.0525817871-.0614929199-.1985473633-.0872344971-.2934875488l-.2363891602-.6439208984-.4772949219-1.299987793-.8897857666-2.4303283691-1.3135223389-3.6413574219-2.6271057129-7.2826538086-5.2542724609-14.5651855469-10.5084075928-29.1303405762-2.7942199707-7.3122253418-7.2672576904-19.017364502-3.6335296631-9.5087585449-.908493042-2.3771362305c-.4293060303-1.1475524902-1.2500305176-2.2245483398-2.2877807617-2.9381713867-2.0691986084-1.4805297852-5.0620880127-1.4791259766-7.1329498291-.0009155273-1.0423583984.7216796875-1.8582305908,1.7623291016-2.2939300537,2.9500732422-.2208862305.5921630859-.3526611328,1.2184448242-.389175415,1.8514404297-.0494995117.6164245605.0666656494,1.3306884766.144744873,1.7568359375l.8308410645,5.0180053711,1.6615600586,10.0358581543,3.3231964111,20.071685791,1.2778778076,7.7177124023,2.8719787598,15.5267333984,1.4361572266,7.7645568848c.2115478516,1.2166137695.4967651367,2.8038024902,1.1003417969,4.1419372559.5799102783,1.3668518066,1.3842315674,2.6340637207,2.3702697754,3.7336120605.2404785156.2700805664.5171051025.55078125.7565765381.7836608887l.7094116211.6871643066,1.4186706543,1.3743286133,2.837310791,2.7486877441,5.6745910645,5.497467041,5.6746826172,5.4973754883,2.8373413086,2.7487792969,1.4186706543,1.3743591309c.6430511475.6009216309,1.338684082,1.3748779297,1.9915466309,1.8870239258.3879699707-.3688049316.7929840088-.741394043,1.1943664551-1.087890625.1951599121-.162689209.4247131348-.3349609375.6032562256-.4569396973.1370391846-.0938415527.2757720947-.1855773926.4183197021-.2711486816.7927856445-.5350341797,1.140045166-1.0344543457,1.0061645508-1.4017333984-.1232910156-.3481445312-.8026580811-.5490112305-1.8440246582-.038482666h0Z" fill="#1d1d1b"/>
  </g>
  <path d="M317.0277840922,194.0164773295l-64.2136077881-24.1344299316c-2.3484954834-.8829956055-4.9147949219-1.0122375488-7.3414001465-.3698425293l-29.6625976562,7.8547668457c.7416229248,3.0820922852-.0741424561,6.2578125-2.0370941162,8.5787963867l101.2933959961,16.1997070312c2.286895752.3652038574,4.4374084473-1.1923828125,4.8037109375-3.479309082.325592041-2.0382995605-.8800048828-4.0105895996-2.8424072266-4.6496887207h0Z" fill="#008939"/>
  <path d="M225.4523446391,176.8261086772l-9.3652954102,2.8122558594c.7417297363,3.0811157227-3.663772583,6.8760986328-5.6267242432,9.1971130371l9.0472869873-.4520874023,26.943069458-9.209777832s38.5814056396,5.1804504395,38.8101959229,3.7504577637c.1066894531-.6709899902.3717956543-1.3013000488-14.6607971191-5.4487304688-4.5341796875-1.251159668-25.1273040771-7.9631347656-25.1273040771-7.9631347656,0,0-19.4011383057,7.1500244141-20.0204315186,7.3139038086h0Z" fill="#8abd24"/>
  <path d="M224.2533395121,175.1312234233l-8.4432678223,2.235748291c.7417297363,3.0820922852-.0739135742,6.2578125-2.0369873047,8.5787963867l10.0711669922,1.6104125977c1.649230957-3.8214111328,1.9066314697-8.2397766113.4090881348-12.4249572754h0Z" fill="#015538"/>
  <path d="M317.88139127,195.4255654643c.8403930664.7194213867,1.2616882324,1.8666992188,1.1076965332,2.9337158203-.1319885254,1.0736083984-.8305053711,2.0350036621-1.7864074707,2.4881896973-.4707946777.2376098633-.9965820312.3421020508-1.5146789551.320098877-.442199707-.0165100098-1.2452087402-.1979980469-1.8887023926-.3024902344l-4.0601196289-.7271118164-16.2425842285-2.9083862305-32.4851989746-5.8179016113-7.8023071289-1.2474060059-36.0647277832-5.7684020996.0036315918-.0076904297c-.0680847168.1594848633.1972351074-.4543151855.3268127441-.8381958008.1484985352-.4201965332.2709350586-.8503112793.37059021-1.2848205566.1985626221-.8700866699.298324585-1.7633056641.2961273193-2.6564941406l-.0170593262-.6264343262-.0079193115-.0924072266,14.3578643799-3.801940918,8.0967712402-2.1440124512,4.0491027832-1.072052002,1.0119934082-.2680664062c.170501709-.0250854492-.059387207-.0293579102.1584014893.0030822754.2200012207.0322265625.5566101074.1201171875.8635101318.1952514648.3035888672.0691833496.6390838623.1708374023.9602966309.2571716309,2.4573974609.690032959,4.966506958,1.508972168,7.4535827637,2.318359375,10.4698181152,3.2414855957,20.9132385254,6.7105407715,31.3434143066,10.1832580566l15.6354064941,5.2568969727,7.8110961914,2.6510009766,3.9039001465,1.3298950195c1.3155822754.4729919434,2.6499023438.8085021973,3.7059020996,1.4035949707.8238830566.3927001953,1.2749023438.5093078613,1.629119873.3102111816.1528625488-.1033935547.2353820801-.3388061523.1275634766-.6732177734-.1044616699-.3355102539-.4113769531-.7424926758-.9107971191-1.072479248-1.3287658691-.7997131348-2.6850891113-1.1693115234-3.9313964844-1.6786193848l-3.8532714844-1.4761962891-7.7110290527-2.9402770996-15.4384765625-5.8399047852c-10.3070373535-3.863861084-20.6085205078-7.717956543-31.0266113281-11.3737792969-2.5223083496-.8201904297-5.0215148926-1.6387939453-7.6351013184-2.3734741211-.3531036377-.0951538086-.6864013672-.196472168-1.0626068115-.2842407227-.3717956543-.0893249512-.709487915-.1837158203-1.1791992188-.2612609863-.095703125-.0134277344-.2738952637-.056854248-.4213104248-.0654602051l-.5180969238.0210266113-.2584838867.010345459c-.0913085938-.0514831543-.1727142334.0059204102-.2596130371.0035095215-.1430053711.0191345215-.399307251.1006469727-.442199707.1077880859l-1.0119934082.2679748535-4.0491027832,1.072052002-8.0966491699,2.1440124512-18.0264892578,4.7734680176.470703125,2.2528991699.133972168,1.0170593262c.020904541.2311096191.0111083984.3138427734.0199127197.4781799316.0010986328.5796813965-.0637969971,1.1604919434-.1931610107,1.7269897461-.0650024414.2827148438-.1444244385.5632019043-.2415618896.837097168-.1168212891.3102111816-.1138458252.3817138672-.5567016602,1.1946105957-.7514190674,1.2660827637-2.0778961182,2.7565917969-3.0661468506,4.0435791016l42.5988311768,6.8123168945,7.8022918701,1.2485046387,32.6788024902,4.6034851074,16.3394165039,2.3023071289,4.0853881836.5753173828c.7171936035.0813903809,1.2605895996.224395752,2.1944885254.2518920898.8558044434.0021972656,1.7105102539-.2101135254,2.4552001953-.6193237305,1.5048217773-.7875671387,2.5476074219-2.3748779297,2.6851196289-4.0424804688.1704711914-1.6697998047-.553314209-3.3825073242-1.8491210938-4.4088134766-1.0735778809-.7590026855-1.8392028809-.4718933105-1.9216918945-.1308898926-.1133117676.3839111328.2530212402.8272094727.8536071777,1.4090881348h0Z" fill="#1d1d1b"/>
  <path d="M197.214795811,183.120969517c-.0249786377-.0648803711-.0407104492-.1319885254-.0641479492-.1968994141l-64.6815948486,79.6289978027c-1.4604034424,1.7985229492-1.1867980957,4.4396057129.6110992432,5.8992919922h.0000152588c1.602142334,1.3024291992,3.9129943848,1.244140625,5.4480895996-.1352844238l53.0074462891-43.5434875488c1.9393157959-1.5939025879,3.3343200684-3.7510070801,3.9909210205-6.1731872559l8.0294494629-29.6175231934c-2.8087463379-.8359985352-5.2143249512-2.9128112793-6.3412780762-5.861907959h0Z" fill="#008939"/>
  <path d="M136.2924630473,267.1884743998l52.2472839355-56.296875,11.3805999756-22.9174194336c-1.6015930176-1.0812988281-1.963394165-2.9106140137-2.7055511475-4.8532104492-.0249786377-.0648803711-.0407104492-.1319885254-.0641479492-.1968994141l-64.6816101074,79.6289978027c-1.4603729248,1.7985229492-1.1868438721,4.4396057129.6110992432,5.8992919922.6793823242.5522155762,1.4869537354.8448181152,2.308013916.9108276367.0862731934-.7711181641.3788757324-1.5278930664.9043121338-2.1747131348h0Z" fill="#8abd24"/>
  <path d="M203.0304848979,190.9221780131l.5255889893-1.9393005371c-.8790283203-.2618103027-1.710723877-.6589050293-2.4839172363-1.1517028809.4635467529,1.1824951172,1.1388397217,2.2164916992,1.9583282471,3.091003418h0Z" fill="#8abd24"/>
  <g clip-path="url(#clippath-1)">
    <path d="M197.214795811,183.120969517c-.0249786377-.0648803711-.0407104492-.1319885254-.0641479492-.1968994141l-6.6685180664,8.2093200684c2.3973388672,3.8334960938,6.2023620605,6.4790039062,10.4563903809,7.5041809082l2.6175537109-9.6546936035c-2.8087463379-.8359985352-5.2144470215-2.9128112793-6.3412780762-5.861907959h0Z" fill="#015538"/>
    <path d="M197.1783730815,184.9634682963c.6421813965,1.1571960449,1.5124053955,2.1900939941,2.5439758301,3.0294189453.5090789795.4223937988,1.079864502.7963867188,1.6490020752,1.1054992676l.3291320801.1748962402c.0739135742.0351867676.1452026367.0758972168.2201080322.1055908203.1469573975.0671081543.2950286865.1242980957.4420928955.175994873l-7.8524780273,26.9984130859-.5062103271,1.7291870117c-.1529998779.5049133301-.3438568115.9977111816-.5701293945,1.4718017578-.4518890381.9493103027-1.047088623,1.8260192871-1.7569122314,2.5927124023-.3546447754.3838806152-.7376708984.7391967773-1.1443328857,1.0647888184l-1.4123077393,1.1176147461-2.8497619629,2.2528076172-11.3999633789,9.0111694336-6.0528564453,4.9731140137-31.4841918945,25.8631896973c-.3327178955.2706298828-.4229888916.3597106934-.635635376.4620056152-.1915130615.0968017578-.3969421387.1650085449-.6093902588.2024230957-.425994873.0813903809-.8740234375.0109863281-1.2615661621-.1661071777-.7931518555-.3652038574-1.3012084961-1.225402832-1.2258605957-2.0999145508.0366210938-.4355773926.1959838867-.8315734863.477722168-1.1857910156l1.6045532227-1.9744873047,3.2090148926-3.9512023926,12.8361968994-15.8026123047,4.9354858398-6.0764160156,40.2668151855-51.5217895508c.4016113281-.5686950684.5545196533-1.0439147949.5132598877-1.3529968262l-.6493225098-.111114502c.3084411621.1859130859.5693511963.0693054199.7117004395-.2551879883l.0719299316-.1639099121-.7213745117.0528259277c-.3114013672.0230712891-.7456970215.2705993652-1.2194519043.779876709l-42.1753234863,49.9718933105-4.9354858398,6.0764160156-12.836227417,15.8025817871-3.2090301514,3.9501342773-1.6045379639,1.9755859375c-.7879180908.9657897949-1.2955169678,2.2066040039-1.3884277344,3.4660949707-.2349700928,2.5332946777,1.2762298584,5.1161193848,3.597076416,6.1589050293,1.1496582031.5335083008,2.4590759277.7160949707,3.7046813965.4927978516.6227416992-.1088867188,1.22996521-.3113098145,1.7945556641-.5994873047.5585632324-.2640075684,1.1177520752-.7337341309,1.4371032715-1.0021057129l31.4426574707-25.8280029297,6.0448455811-4.9653930664,11.037612915-9.4204101562,2.7596893311-2.3562011719,1.3898468018-1.1879882812c.5218353271-.4510192871,1.0091400146-.9405212402,1.4564056396-1.4630126953.8952789307-1.0438842773,1.6289672852-2.2219848633,2.1699523926-3.479309082.2708282471-.6291809082.4939117432-1.2770690918.6670532227-1.9371032715l.447479248-1.7731933594,7.265838623-29.009185791c-.4396972656-.1364135742-.8784637451-.2772216797-1.3182525635-.4279174805-.2238464355-.0682067871-.4239349365-.1627807617-.6350250244-.2442016602l-.3060302734-.1242980957-.1910705566-.095703125c-.5102844238-.2518920898-.9734954834-.5323791504-1.4155883789-.8700866699-.8828430176-.6654968262-1.6419677734-1.4981994629-2.2186889648-2.4497070312-.5325164795-.7941894531-1.0345611572-1.1406860352-1.4039306641-1.0054016113-.3459472656.1221008301-.5445098877.8008117676-.0364227295,1.8424987793h0Z" fill="#1d1d1b"/>
  </g>
  <path d="M210.3699166606,189.9376809428l2.3751220703,78.9305114746.4803619385,9.4401855469,4.9974212646,98.2124176025.4803466797,9.4401855469,5.6491699219,78.7644195557c.3176879883,2.5333251953,2.1599578857,2.4397888184,2.2187042236-.1133117676l-2.3748931885-78.930480957-.4803771973-9.4402160645-4.9975280762-98.2124023438-.4803619385-9.4402160645-5.6491546631-78.7644042969c-.317565918-2.5332946777-2.1599731445-2.4397888184-2.2188110352.1133117676h0Z" fill="#1d1d1b"/>
  <path d="M188.3103921244,464.6516702006l5.8043670654-81.8157958984.4989624023-9.8054046631,5.1909179688-102.0128936768.4989624023-9.8064880371,1.1371612549-36.8434143066.5685882568-18.4216918945.2842407227-9.2113952637.1421203613-4.6057128906.0177154541-1.2539978027.0088043213-.6259155273.0048217773-.320098877c.031463623-.0483703613.147644043.0770263672.2215576172.1034240723.3028259277.1770935059.6371154785.325592041.9959411621.4344787598l.2735595703.074798584.3598175049.0759277344c.3882904053.0736999512.780456543.128692627,1.1745758057.1561889648,1.57421875.1122131348,3.1730651855-.1781921387,4.5922851562-.8139953613,1.3416748047-.6974182129,1.5895996094-1.5960998535,1.2975616455-1.9855041504-.3079986572-.4245910645-1.0783233643-.4312133789-2.1630401611-.0605163574-1.1246337891.4488220215-2.3374023438.612701416-3.5191345215.4807128906-.2948913574-.0307922363-.5866241455-.0858154297-.8750457764-.1517944336-.0961303711-.0187072754-.4355926514-.1133117676-.6459197998-.1903076172-.2418823242-.0858154297-.4798126221-.1848144531-.7280883789-.3157043457-.9799804688-.5368041992-2.0995788574-1.2605895996-3.1037445068-1.9371032715-.0915374756.1672058105-.2198028564.1287231445-.2671966553.3399047852l-.0536804199.8294067383-.1082458496,1.6741943359-.2163696289,3.3472900391-.3261413574,4.5958251953-.6521911621,9.1926879883-1.3042755127,18.3843078613-2.6086578369,36.7685852051-.4989471436,9.8065185547-5.1907958984,102.0117950439-.4989624023,9.8064880371-2.5302276611,81.981918335c.0536804199,2.6510009766,1.8959655762,2.7445373535,2.2187042236.11328125h0Z" fill="#1d1d1b"/>
  <path d="M203.2324349711,190.0432717631c2.9989471436,1.2099914551,6.6839447021.9921875,9.6882629395-.7655944824,3.0424804688-1.6994934082,5.306060791-4.9367980957,5.864654541-8.6163024902.0478515625-.4432983398.0577392578-.8865966797.0389404297-1.3316650391.0046234131-.4454956055-.0473022461-.8865966797-.1030731201-1.3274841309-.2979888916-2.287322998-1.24168396-4.4895324707-2.7101898193-6.267791748-1.4431915283-1.8058776855-3.4375-3.1510620117-5.6019592285-3.9200744629-2.1781158447-.7294006348-4.577545166-.9002380371-6.8273620605-.3686218262-2.2525939941.494354248-4.3535919189,1.6460571289-5.9986419678,3.2629394531-.3157043457.3127441406-.6286468506.6279907227-.8997955322.9815368652-.2890930176.3385925293-.5550537109.6940002441-.7904663086,1.072052002-1.8289642334,3.2409362793-2.0436859131,7.1852111816-.6964111328,10.3994140625,1.2809448242,3.2362060547,4.0472412109,5.6803894043,7.154510498,6.5769042969.6635284424.0615844727,1.1878967285-1.7116088867.8132324219-2.0668945312-2.3016357422-1.1791992188-3.8710021973-3.3715209961-4.2875823975-5.6771240234-.4709014893-2.2967834473.2308807373-4.6339416504,1.6108551025-6.2089538574.1271362305-.2135925293.2764129639-.4110717773.4404296875-.5976257324.1457519531-.2015075684.3262634277-.3725585938.5016021729-.5480041504,1.8451385498-1.8354797363,4.7310028076-2.4913024902,7.1856384277-1.626373291,2.4658660889.832824707,4.3332366943,3.1287536621,4.6538848877,5.7114257812.0299072266.246307373.0665435791.4922485352.0569763184.7406311035.013961792.2485961914.0097961426.4961242676-.0218963623.7425231934.1150665283,2.0910949707-.7738494873,4.3636779785-2.5605773926,5.8805847168-1.7501983643,1.5587158203-4.3370819092,2.3165893555-6.8762054443,1.8248901367-.5143585205.0494995117-1.1951599121,1.7687988281-.6348266602,2.1296081543h0Z" fill="#1d1d1b"/>
  <polyline points="410.7456185649 396.2338692973 416.7208077739 384.6069009135 412.5605904887 479.1991860698 406.5854012797 478.898893101 410.7456185649 396.2338692973" fill="#8abd24"/>
  <path d="M409.8457772563,397.5362832377l-4.0238037109,55.4818115234-.3343811035,6.650604248-1.0658874512,21.1860046387,10.1078796387.5093078613,2.0306091309-46.1692199707.2925720215-6.6528015137.4796142578-21.9427947998.2398071289-10.9725036621.4598083496-15.9598846436-7.4128723145,14.9907989502c-.6941223145,1.6598968506.5356750488,2.2923583984,1.481628418.7611694336l1.2727355957-2.3341827393.7633972168-1.3431091309,1.2737731934-2.1944885254-.2452697754,2.803894043-.1121826172,1.1605072021-.0571899414.6292114258-.0913391113,1.3694763184-.7237854004,10.9505004883-1.4487304688,21.8999176025-.2925720215,6.6528015137-1.8479919434,42.0221862793-1.8435974121-.092376709.8591003418-17.0676269531.3354797363-6.6495056152,1.5664367676-55.6060791016c-.0505981445-1.798538208-1.432220459-1.8678283691-1.6632385254-.0836181641h0Z" fill="#1d1d1b"/>
  <path d="M426.4590890239,335.1101815532l5.9829101562-6.3788909912v138.4867248535c0,3.8631591797-2.2649230957,7.4106750488-5.7705993652,9.0354003906l-35.7192077637,16.5571594238-2.516784668-5.4284973145,35.7191772461-16.5560913086c1.4002990723-.6501159668,2.3045043945-2.0657958984,2.3045043945-3.6079711914v-132.1078338623" fill="#8abd24"/>
  <path d="M425.6263863871,337.711683018l-1.2297973633,107.5140228271v21.9834899902c-.0054931641.1407775879-.0131835938.266204834-.0417785645.397064209-.1056213379.5192260742-.4499206543.9977416992-.9053039551,1.2606201172l-11.8349304199,5.4989318848-25.918182373,12.013092041,4.2525939941,9.1706848145,35.861114502-16.6231689453,1.0625915527-.4928283691c.3541870117-.1649780273.6886291504-.3123779297,1.1373901367-.5466918945.8348999023-.436706543,1.6269226074-.9613952637,2.3363952637-1.5829162598,1.4157104492-1.2418823242,2.5552978516-2.800567627,3.2582397461-4.5484924316.3530883789-.8723144531.6170959473-1.7831115723.7578735352-2.717010498.1463012695-.9239807129.1473999023-1.9403991699.1419067383-2.6498718262v-36.287902832l-1.1582641602-103.6530303955-5.715637207,6.1962890625c-2.2692871094,2.6257324219-1.2594909668,3.5717315674,1.2155151367,1.1396331787l2.692779541-2.7687072754-1.1593933105,99.0858154297v36.287902832c.0043945312.8502807617-.0010986328,1.4002990723-.0935058594,2.0217895508-.0913085938.6105041504-.268371582,1.2089233398-.4993896484,1.7819824219-.4587097168,1.1528320312-1.2177124023,2.179107666-2.1439208984,2.9963989258-.4652709961.4092407227-.9855957031.7491455078-1.5312194824,1.0362243652-.241973877.1297912598-.6192626953.302520752-.9734802246.4664001465l-1.0625915527.4916992188-32.1188964844,14.8884887695-.7821044922-1.6851806641,22.1748962402-10.2784423828,6.011505127-2.7862854004,3.0051879883-1.3936767578,1.503692627-.6962890625.7513122559-.3487243652.3751220703-.1737976074c.1606140137-.0814208984.3717956543-.1781921387.5444946289-.2870788574,1.4563903809-.8503112793,2.5079956055-2.3188171387,2.8512268066-3.9655456543.0868530273-.4091796875.1253662109-.8348999023.1297607422-1.2473754883v-21.9834899902l-1.2286987305-107.5140228271c-.1419067383-3.4683074951-1.5256958008-3.4683074951-1.6665039062,0h0Z" fill="#1d1d1b"/>
  <polygon points="389.0326974223 492.6730935405 179.3785073588 473.2745950053 251.8252847026 324.7833840678 433.0536019633 321.0697762797 389.0326974223 492.6730935405 389.0326974223 492.6730935405" fill="#008939"/>
  <path d="M251.8252847026,324.7833840678l177.8711090088-2.0845031738-8.5524902344,33.6391143799s-161.3579101562-23.9470062256-234.9093170166,98.0693817139l65.5906982422-129.6239929199h0Z" fill="#005538"/>
  <g clip-path="url(#clippath-2)">
    <path d="M260.5218941996,325.18267606l-70.3225708008,146.8401184082M268.9797799418,325.1188943217l-68.8916778564,147.9434204102M278.9259774516,324.9340951274l-69.8846435547,151.21043396M288.1285836528,324.4368874858l-67.1696472168,150.4316101074M297.0814645121,325.1188943217l-66.1545257568,151.0256347656M318.4698922465,323.939695103l-62.1752929688,155.2594909668M327.4227731059,323.939695103l-59.6529846191,155.2594909668M337.3711983989,322.945264561l-60.0897216797,157.1339569092M346.8213021586,323.3731820414l-57.6125183105,157.8104400635M357.2668893168,322.4469888041l-57.2011108398,161.6560058594M381.1424081157,322.945264561l-52.4766235352,162.6933135986M391.0897042582,322.4469888041l-50.4823303223,163.1915893555M401.0182931254,323.3731820414l-48.7256164551,164.3642120361M411.6531197856,321.0697762797l-45.8040161133,166.6676177979M422.9236886332,322.4469888041l-46.2682189941,167.8149108887M247.4934823344,335.2521035502l182.6517333984-3.1669158936M243.4740731547,344.1291024516l184.0432434082-1.985534668M238.7384774516,353.0071694682l186.1509094238-.8063049316M234.8633858989,361.8841836284l187.3970031738.3751220703M230.270780308,370.7611977885l189.3617095947,1.5565185547M225.9651620219,380.3861977885l191.0394287109,2.7368164062M216.2557809184,402.9537789653l193.8584289551,6.2788238525M211.0644509623,415.1462075541l195.4263458252,7.4601745605M206.8679482768,424.0231911967l196.9949493408,8.6416015625M202.6713387797,432.9013039897l198.563659668,9.8208312988M198.4748360942,441.7782876323l200.1311340332,11.0021972656M194.2782265971,450.6552712748l201.6998748779,12.1836242676M184.1712014506,461.2218911479l206.4213104248,13.9282226562" fill="none" stroke="#8abd24" stroke-miterlimit="10" stroke-width="1.6500000954"/>
  </g>
  <polygon points="244.5916879008 478.2355935405 240.4732796977 476.4546792338 306.9429757426 322.7208840678 311.0613839457 324.5017831157 244.5916879008 478.2355935405 244.5916879008 478.2355935405" fill="#8abd24"/>
  <polygon points="244.5916879008 478.2355935405 240.4732796977 476.4546792338 306.9429757426 322.7208840678 311.0613839457 324.5017831157 244.5916879008 478.2355935405 244.5916879008 478.2355935405" fill="none" stroke="#1d1d1b" stroke-miterlimit="10" stroke-width="1.6500000954"/>
  <polygon points="315.4822823832 486.4844949076 310.527875645 484.7927224467 365.7324960063 323.0938088725 371.6912057231 322.5723855326 315.4822823832 486.4844949076 315.4822823832 486.4844949076" fill="#8abd24"/>
  <polygon points="315.4822823832 486.4844949076 310.527875645 484.7927224467 365.7324960063 323.0938088725 371.6912057231 322.5723855326 315.4822823832 486.4844949076 315.4822823832 486.4844949076" fill="none" stroke="#1d1d1b" stroke-miterlimit="10" stroke-width="2.2000000477"/>
  <polyline points="218.7416817973 392.8590676616 218.8460671733 389.8681771586 413.7859933207 393.7677132914 413.6804025004 399.0025613139 218.7416817973 392.8590676616" fill="#8abd24"/>
  <path d="M221.4491097758,393.5003793071l112.6242675781,4.3691864014,13.4882202148.4246368408,67.4651794434,2.1262817383.1605834961-8.0002746582-70.4043579102-1.4080200195-13.4915161133-.2695007324-112.983215332-1.4420776367-.01121521.3750915527c-.0701751709,4.7101745605.8959503174,3.4726715088,1.0794219971.9173736572l.0074920654-.1561889648,111.8525238037,3.0547027588,13.4914855957.2695007324,67.6555480957,1.3540802002-.0495300293,2.4684295654-64.6855163574-2.0382995605-13.4881896973-.424621582-112.6762084961-2.7312927246c-3.6361541748-.0198059082-3.6651916504.9020233154-.0349731445,1.1109924316h0Z" fill="#1d1d1b"/>
  <path d="M182.8189828227,471.3396889994l202.3021240234,18.2347106934,45.0241088867-166.2012176514-177.5818328857,2.307800293-69.7444000244,145.658706665h0ZM390.7310921977,495.0831887553l-214.7927246094-19.8736877441,74.4701080322-152.6415100098,185.552444458-3.8027038574-45.2298278809,176.3179016113h0Z" fill="#8abd24"/>
  <g clip-path="url(#clippath-3)">
    <polygon points="385.1211068461 489.5743996928 430.1452157328 323.3731820414 252.3246896098 325.1199776957 182.8189828227 471.3396889994 385.1211068461 489.5743996928 385.1211068461 489.5743996928" fill="none" stroke="#1d1d1b" stroke-miterlimit="10" stroke-width="1.6500000954"/>
    <path d="M176.9537637065,474.4020974467l22.0287322998-42.953918457,2.5495758057-5.1865081787,26.5227508545-53.9538574219,2.5495910645-5.1865386963,20.5575714111-43.6776885986c.6027984619-1.4387969971-.2255096436-1.8457946777-.99659729-.4906158447l-22.0289306641,42.9550018311-2.5495910645,5.1865386963-26.5227661133,53.9538879395-2.5494689941,5.1864929199-20.5577697754,43.6777038574c-.6021575928,1.4388122559.2256011963,1.8457946777.9969024658.4895019531h0Z" fill="#1d1d1b"/>
    <path d="M251.3346841166,323.1949899028l.2177886963-.4719085693,52.5063171387-.1451873779,6.4371948242-.1188049316,66.9635925293-1.2353057861,6.4371948242-.1187896729,26.8719177246-.9063873291,13.4353942871-.4532318115,6.7177124023-.2254943848,3.3583374023-.1132965088.8392944336-.0285949707.2100830078-.0077056885-.0055236816-.2893066406c.0010681152-.0197906494.003326416-.0395965576.0077209473-.0594024658.0032958984-.0285949707.0087890625-.050567627.0186767578-.0703735352.0044250488-.0198059082.0231323242-.0220336914-.0230712891.0065917969-.0330200195.016494751-.1155395508.0428924561-.2112121582.0472869873-.0583190918.0077056885-.111114502.0077056885-.1726989746.0043945312-.0121154785.0021972656-.0055236816.0066223145-.0055236816.0066223145,0,.0186920166-.0087890625.0626831055-.0198059082.1088867188-.1594543457.5433959961-.2816162109,1.085723877-.4245605469,1.629119873-.3608398438,1.6983947754.5301818848,1.9392700195,1.0724487305.289276123.1584472656-.5356903076.2992248535-1.0824127197.4719238281-1.6093139648.0253295898-.0879669189.0494995117-.1814880371.0627441406-.3024902344.0043945312-.1221008301.038482666-.2694702148-.0891723633-.5390014648-.0604553223-.1286773682-.205657959-.2695007324-.3530883789-.3332824707-.1418762207-.0605316162-.2661743164-.0704040527-.3552856445-.0693206787h-.2100830078l-.840423584.0033111572-3.3605041504.0109863281-6.7209472656.0209197998-13.4409179688.0440063477-26.8818359375.0858154297-6.434967041.1187744141-66.9471130371,1.2352905273-6.4349975586.1188049316-53.2290039062,1.7578125-.4818115234,1.1560821533c-.6038970947,1.6499938965.2530059814,1.9910125732,1.0142059326.4532165527h0Z" fill="#1d1d1b"/>
    <path d="M178.5418526957,476.5658242534l111.7108459473,11.9822692871,13.3935852051,1.2386169434,89.0538024902,8.2400817871,2.6048278809-8.4325866699c.6445617676-2.107635498,1.3188781738-4.2075195312,1.9282836914-6.325012207,1.2341918945-4.2306213379,2.522277832-8.4468994141,3.6949157715-12.6929016113,1.2033691406-4.2393798828,2.3968811035-8.4799194336,3.5320739746-12.7347106934,1.1671142578-4.2470703125,2.2836303711-8.5062866211,3.3912963867-12.7676696777,1.1528015137-4.3428039551,2.2275085449-8.7021179199,3.3385314941-13.0537109375,8.5997619629-36.5112304688,16.0247802734-73.2094268799,24.6399841309-109.6315155029.6962890625-3.5585174561-1.0911865234-4.0149841309-2.1538085938-.5433959961-9.6876831055,36.2032012939-18.1885070801,72.703414917-27.8200683594,108.835067749-1.1077270508,4.3373718262-2.1791381836,8.6845397949-3.3275146484,13.0086364746-1.103302002,4.2449035645-2.2153930664,8.4865112305-3.3759155273,12.712677002-1.1307983398,4.2372131348-2.3187866211,8.4546203613-3.5145263672,12.6708984375-1.1670837402,4.2251281738-2.4463500977,8.4139099121-3.6739501953,12.6192321777-.6061096191,2.1053771973-1.2749328613,4.1898803711-1.9151306152,6.2843017578l-1.2869567871,4.1623840332-84.6087646484-7.8276062012-13.3935852051-1.239654541-112.0132141113-8.7175292969c-3.6251678467-.1463012695-3.7951202393,1.6907348633-.2047119141,2.2121276855h0Z" fill="#1d1d1b"/>
  </g>
</svg>