<?xml version="1.0" encoding="UTF-8"?>
<svg id="Ebene_1" data-name="Ebene 1" xmlns="http://www.w3.org/2000/svg" xmlns:xlink="http://www.w3.org/1999/xlink" viewBox="0 0 566.9291338583 566.9291338583">
  <defs>
    <clipPath id="clippath">
      <rect x="196.4645669291" y="50.4645669291" width="173.9620056152" height="467.0020141602" fill="none"/>
    </clipPath>
    <clipPath id="clippath-1">
      <rect x="196.4645669291" y="50.4645669291" width="173.9620056152" height="467.0020141602" fill="none"/>
    </clipPath>
    <clipPath id="clippath-2">
      <rect x="196.4645669291" y="50.4645669291" width="173.9620056152" height="467.0020141602" fill="none"/>
    </clipPath>
  </defs>
  <path d="M266.3417641948,159.6935708354c-1.6838989258,0-3.2523956299-.5520019531-4.5934906006-1.4930114746l-12.8877105713,357.3910217285h34.9624023438l-12.8876953125-357.3910217285c-1.3412017822.9410095215-2.9096069336,1.4930114746-4.5935058594,1.4930114746h0Z" fill="#028a39"/>
  <path d="M257.4712807963,150.6225564311c0-4.8995056152,3.9713897705-8.870880127,8.8704833984-8.870880127,4.8990020752,0,8.870513916,3.9713745117,8.870513916,8.870880127,0,4.899017334-3.9715118408,8.8700256348-8.870513916,8.8700256348-4.8990936279,0-8.8704833984-3.9710083008-8.8704833984-8.8700256348h0Z" fill="#028a39"/>
  <path d="M262.6968667338,150.6225564311c0-2.0134887695,1.6318969727-3.6452941895,3.6448974609-3.6452941895s3.6448974609,1.6318054199,3.6448974609,3.6452941895c0,2.0130004883-1.6318969727,3.6440124512-3.6448974609,3.6440124512s-3.6448974609-1.6310119629-3.6448974609-3.6440124512h0Z" fill="#8bbe28"/>
  <path d="M270.9352700541,158.2005593608c-1.3410949707.8139953613-2.9096984863,1.2920227051-4.5935974121,1.2920227051-1.683807373,0-3.2523040771-.4780273438-4.5933990479-1.2920227051l-4.0051116943,79.1069946289,16.6716003418-10.3809814453-3.4794921875-68.7260131836h0Z" fill="#015538"/>
  <path d="M256.3301675151,151.0525491069c-.1871948242,2.9820251465,1.0827026367,6.166015625,3.525100708,8.3030090332,2.4019012451,2.1880187988,5.9484100342,3.2399902344,9.3932037354,2.6380004883.4076843262-.0939941406.8047943115-.2209777832,1.1940917969-.3739929199.3969116211-.1329956055.7727050781-.3129882812,1.1472015381-.4980163574,1.9394073486-.9649963379,3.604385376-2.4769897461,4.7335968018-4.3249816895,1.1606140137-1.8349914551,1.7452087402-4.0180053711,1.7639160156-6.1740112305-.0187072754-2.1565856934-.603302002-4.3401794434-1.7639160156-6.174407959-1.1292114258-1.8481750488-2.7941894531-3.3599853516-4.7335968018-4.3255004883-.37449646-.1845703125-.750289917-.3653869629-1.1472015381-.4981994629-.3892974854-.1527709961-.7864074707-.279876709-1.1940917969-.3733825684-3.4447937012-.6028137207-6.9913024902.4496154785-9.3932037354,2.6372070312-2.4423980713,2.1369934082-3.7122955322,5.3217773438-3.525100708,8.3035888672.1690063477.6007080078,2.1003112793.5137023926,2.3204956055.0986938477.3672027588-2.2821044922,1.7954101562-4.1977844238,3.6132049561-5.1632995605,1.7938995361-1.0086975098,3.9181060791-1.0314941406,5.5635070801-.3045959473.208190918.0426025391.4095001221.1083984375.6057891846.1892089844.2037963867.0608825684.3921051025.1600036621.582901001.2526855469,1.9998016357.9811096191,3.3350982666,3.1306152344,3.3212127686,5.358001709.013885498,2.2270202637-1.3214111328,4.3760070801-3.3212127686,5.3569946289-.1907958984.0930175781-.3791046143.1920166016-.582901001.2530212402-.1962890625.0809936523-.3975982666.1459960938-.6057891846.1889953613-1.645401001.7269897461-3.7696075439.7040100098-5.5635070801-.3049926758-1.8177947998-.9650268555-3.2460021973-2.8810119629-3.6132049561-5.1630249023-.2201843262-.4149780273-2.1514892578-.5016784668-2.3204956055.0989990234h0Z" fill="#1d1d1b"/>
  <path d="M263.1753671,142.3360574076c1.5729064941-.6010742188,3.2086029053-.7146911621,4.7521972656-.4324035645l-33.2917022705-87.1202697754c-.7517089844-1.967010498-2.9555969238-2.9522399902-4.9225921631-2.2005615234h0c-1.7529144287.6698303223-2.7577056885,2.515411377-2.3690948486,4.3511962891l10.1871948242,61.5249328613c.3726806641,2.2510070801,1.4374084473,4.3300170898,3.0458984375,5.9481201172l19.6618041992,19.7777099609c.8235015869-.7813110352,1.8096923828-1.4182128906,2.9362945557-1.8487243652h0Z" fill="#028a39"/>
  <path d="M243.8608681987,126.2502724955l-11.1138000488-72.3938293457c-.0783996582-.388092041-.0832061768-.7752075195-.0552062988-1.157989502-.9046936035-.4245605469-1.971282959-.5005493164-2.9785919189-.1156311035-1.7527923584.6697998047-2.7577056885,2.5153503418-2.3690948486,4.3511657715l10.1871948242,61.5249633789c.3726806641,2.2510070801,1.4374084473,4.3300170898,3.0458984375,5.9479980469l3.7407989502,3.7629089355c-.2028045654-.6231994629-.3565979004-1.2644958496-.4571990967-1.9195861816h0Z" fill="#8bbe28"/>
  <g clip-path="url(#clippath)">
    <path d="M267.9275643657,141.9036538432l-3.262588501-8.537689209c-1.0867004395.1604919434-2.1715087891.4306945801-3.2376098633.838104248l-3.1022949219,1.1854858398c-1.6109924316.6156005859-3.0498962402,1.4862060547-4.3110046387,2.5335083008l6.2250061035,6.26171875c.8235015869-.7813110352,1.8096923828-1.4182128906,2.9361877441-1.8487243652,1.5730133057-.6010742188,3.2087097168-.7147827148,4.7523040771-.4324035645h0Z" fill="#015538"/>
    <path d="M261.4989602397,142.3010537455c-.1571960449.086730957-.3109893799.1798095703-.462890625.2758178711l-.258605957.1688842773c-.1575927734.1098022461-.3060913086.2261962891-.445098877.3480224609-.1234893799-.0169067383-.2411956787-.2267150879-.3591918945-.3275146484l-.3625030518-.3887023926-1.2418060303-1.2969970703-2.4835968018-2.5939941406-4.9671936035-5.1881103516-4.967300415-5.1879882812-2.4835968018-2.5940856934-1.2418060303-1.2970275879c-.4182128906-.4416809082-.8424987793-.8619995117-1.1581115723-1.2479858398-.6719970703-.8090209961-1.2054901123-1.7275085449-1.5760803223-2.7037963867-.3933105469-.9963989258-.5242004395-1.9367980957-.6989135742-3.1917114258l-1.0405883789-7.111114502-2.0815124512-14.2239990234-1.1632995605-7.025390625-3.0254974365-18.2713928223-1.512802124-9.1357116699-.7563934326-4.5679016113c-.0610046387-.3708190918-.0853118896-.4880371094-.0720977783-.700958252.0127868652-.1944580078.0534973145-.3871459961.1215820312-.5710754395.1324157715-.3710632324.3907165527-.6921691895.7093200684-.913482666.6497955322-.4562683105,1.5579833984-.4598388672,2.2103881836-.0001525879.3251953125.2344055176.558807373.5267028809.7147064209.9285888672l.8258056641,2.1610717773,3.3032989502,8.644317627,6.6065979004,17.2885131836,2.5401916504,6.6473999023,10.5419921875,26.1044006348,5.2710113525,13.0520935059,2.6354980469,6.5260925293,1.3177032471,3.2630004883.4469909668,1.0772094727.1941070557.4614868164.099105835.2362060547c.0048828125.0299987793.0596923828.100982666.0236968994.0978088379l-.1165008545-.0160217285c-.2788085938-.0344848633-.5697021484-.0455932617-.8683013916-.0292053223-.1588897705.0096130371-.2791900635.0210266113-.474395752.0476074219-.2821960449.037109375-.5628967285.0852050781-.8401947021.1481018066-1.0162200928.2840270996-1.3548126221.832611084-1.2274169922,1.1427001953.13230896.3304138184.6700134277.4579162598,1.5308074951.3413085938.2349090576-.0441894531.4718933105-.0753173828.7093963623-.0975952148.3247070312-.0328063965.7290039062-.0401916504,1.1150970459-.0133972168.7993164062.0730895996,1.6974945068.2113952637,2.5259094238.3523864746l.0675048828-.1351928711c.0194854736-.0477905273-.0559082031-.1805114746-.0792999268-.2668151855l-.2149047852-.5853881836-.4338989258-1.1817932129-.8088989258-2.2095031738-1.1941070557-3.3102111816-2.3882904053-6.6205749512-4.7765045166-13.2411193848-9.5532073975-26.4820861816-2.5401916504-6.6475219727-6.6065979004-17.2885742188-3.303314209-8.6442260742-.8258056641-2.1610717773c-.3903808594-1.0432128906-1.1363830566-2.0223083496-2.0798950195-2.6710205078-1.8809814453-1.3459472656-4.6016845703-1.3446960449-6.4842834473-.0008544922-.9477081299.6560974121-1.6894073486,1.602142334-2.0854187012,2.681854248-.2008972168.5383605957-.3207855225,1.1077270508-.3538818359,1.6831665039-.0450134277.5603942871.0605926514,1.2096862793.131579619,1.5971374512l.755215425,4.5617980957,1.5106048584,9.1235046387,3.0210876465,18.2470092773,1.1617126465,7.0159912109,2.6109008789,14.1152954102,1.3056030273,7.0586853027c.1923828125,1.1059265137.4515991211,2.5489196777,1.0003967285,3.7653198242.5270996094,1.2427062988,1.2583007812,2.3946838379,2.1546936035,3.3942871094.2185974121.245513916.4700927734.5008239746.6878051758.7124023438l.6448974609.6247253418,1.2897033691,1.2493896484,2.5793914795,2.4988098145,5.158706665,4.9976806641,5.1587982178,4.9975891113,2.5793914795,2.4989318848,1.2897033691,1.2493896484c.5845031738.546295166,1.2169952393,1.2498779297,1.8105010986,1.7154846191.3526916504-.3353881836.7209014893-.6739807129,1.0858001709-.9889831543.1773986816-.1479187012.3861083984-.3045043945.5485076904-.4154052734.12449646-.0852966309.2505950928-.1687011719.3801879883-.2464904785.720703125-.4864196777,1.0363006592-.9404296875.9145965576-1.2743225098-.1119995117-.3164978027-.729598999-.4990844727-1.6763000488-.0350036621h0Z" fill="#1d1d1b"/>
  </g>
  <path d="M366.9765603373,163.6935708354l-58.3760070801-21.9403991699c-2.134979248-.8027038574-4.4679870605-.9201965332-6.6739807129-.3362121582l-26.966003418,7.1407165527c.6741943359,2.8018798828-.0674133301,5.6889038086-1.8518066406,7.7988891602l92.0848083496,14.7270202637c2.0789794922.3319702148,4.033996582-1.0840148926,4.366973877-3.1630249023.2960205078-1.8529968262-.7999572754-3.6459960938-2.583984375-4.2269897461h0Z" fill="#028a39"/>
  <g clip-path="url(#clippath-1)">
    <path d="M282.6361672709,146.5251748393l-7.6755981445,2.0325012207c.6741943359,2.8018798828-.0672912598,5.6889038086-1.8518981934,7.7988891602l9.1556091309,1.4639892578c1.4992980957-3.4739685059,1.7332763672-7.4906921387.371887207-11.2953796387h0Z" fill="#015538"/>
    <path d="M367.7545449565,164.9775674174c.7660217285.6569824219,1.149017334,1.7050170898,1.0040283203,2.6770019531-.1220092773.9799804688-.7709960938,1.8519897461-1.6430053711,2.2590026855-.4309997559.2149963379-.9129943848.3020019531-1.3840026855.2810058594-.1190185547.0049743652-.2359924316-.0270080566-.3540039062-.0370178223l-.4519958496-.0790100098-.925994873-.1649780273-3.7030029297-.6629943848-14.8159790039-2.6530151367-29.6300048828-5.3039855957-7.1170043945-1.1390075684-32.5601196289-5.2070007324.0032958984-.0069885254c-.0618896484.1449890137.1793212891-.4130249023.2972106934-.7620239258.1349182129-.3819885254.246307373-.7729797363.3367919922-1.1679992676.1805114746-.7909851074.2712097168-1.6029968262.269317627-2.4150085449l-.015625-.5694885254-.0072021484-.083984375,13.2838134766-3.5175170898,7.4765014648-1.9797973633,3.7380065918-.9898071289.9209899902-.2421875c.2590026855-.0646057129.5200195312-.1231994629.783996582-.1640014648.5280151367-.0863952637,1.0620117188-.1279907227,1.5970153809-.1214904785.9960021973.0140991211,1.9889831543.1924743652,2.9280090332.5260925293l3.3429870605,1.2528991699,28.3770141602,10.0682983398,14.184967041,5.032989502,7.0930175781,2.5160217285,3.5460205078,1.2579956055c1.1629943848.3970031738,2.3219909668.8289794922,3.3219604492,1.3909912109.3930053711.199005127.6580200195.3030090332.8520202637.3259887695.2070007324.0060119629.3789978027.115020752.5450134277.0320129395.1340026855-.0660095215.3449707031-.2480163574.2279968262-.6149902344-.1010131836-.3600158691-.399017334-.7359924316-.8380126953-1.0370178223-1.1650085449-.7109985352-2.3569946289-1.1929931641-3.5469970703-1.6529846191l-3.4970092773-1.3890075684-6.9939880371-2.7770080566-13.9869995117-5.5559997559-27.9680175781-11.1084899902-3.4049987793-1.2752990723c-1.3249816895-.4710998535-2.7279968262-.7228088379-4.1340026855-.7421875-.7539672852-.0094299316-1.509979248.0487976074-2.2539672852.1708984375-.3730163574.05859375-.7420043945.1398925781-1.1080322266.2317810059l-.9489746094.2496032715-3.7380065918.9898986816-7.4764099121,1.9797058105-16.6188964844,4.4006958008.4279022217,2.0480957031.1217956543.924621582c.0190124512.2100830078.0101013184.285369873.0181121826.4346923828.0010986328.5270080566-.058013916,1.0549926758-.1755981445,1.5699768066-.0591125488.257019043-.1313018799.5120239258-.2196044922.7610168457-.1062011719.2819824219-.103515625.3469848633-.5060119629,1.0859985352-.6832885742,1.1510009766-1.8890991211,2.5060119629-2.7873840332,3.675994873l38.5000915527,6.1570129395,7.1170043945,1.1380004883,29.8069763184,4.2019958496,14.9030151367,2.1000061035,3.7260131836.5249938965.9320068359.1319885254.4769897461.0650024414c.1950073242.0150146484.3869934082.0469970703.5829772949.0390014648.7799987793.0050048828,1.5630187988-.1770019531,2.2440185547-.5459899902,1.3769836426-.7100219727,2.3419799805-2.149017334,2.4710083008-3.6710205078.1650085449-1.5229797363-.4930114746-3.0879821777-1.6740112305-4.0249938965-.9779968262-.6940002441-1.675994873-.4329833984-1.7510070801-.1229858398-.1029968262.3489990234.2320251465.7520141602.7779846191,1.283996582h0Z" fill="#1d1d1b"/>
  </g>
  <path d="M258.0556618998,153.7885720561c-.0226898193-.0590209961-.0369873047-.1199951172-.0582885742-.1790161133l-58.8014526367,72.3900146484c-1.3276519775,1.634979248-1.0789031982,4.0359802246.5555419922,5.3630065918h0c1.4565124512,1.1839904785,3.5572814941,1.1309814453,4.9528198242-.1230163574l48.1885986328-39.5849914551c1.7629852295-1.449005127,3.0311889648-3.4100036621,3.6280822754-5.6119995117l7.2996063232-26.924987793c-2.5534973145-.7600097656-4.7404022217-2.6480102539-5.7649078369-5.3290100098h0Z" fill="#028a39"/>
  <path d="M202.671750767,230.2135598491l58.6994171143-72.2649841309c-1.4559936523-.9820251465-2.6407928467-2.3940124512-3.3155059814-4.1600036621-.0226898193-.0590209961-.0369873047-.1199951172-.0582885742-.1790161133l-58.8014831543,72.3900146484c-1.3275909424,1.634979248-1.078918457,4.0359802246.5555725098,5.3630065918.6175994873.5019836426,1.351776123.7680053711,2.0981750488.8280029297.078414917-.7010192871.3444519043-1.3890075684.8221130371-1.9770202637h0Z" fill="#8bbe28"/>
  <path d="M263.3426644633,160.8805520366l.4779052734-1.7629699707c-.7991943359-.2380065918-1.5553131104-.599029541-2.2582092285-1.0469970703.4214172363,1.0749816895,1.0353088379,2.0149841309,1.7803039551,2.809967041h0Z" fill="#8bbe28"/>
  <g clip-path="url(#clippath-2)">
    <path d="M258.0556618998,153.7885720561c-.0226898193-.0590209961-.0369873047-.1199951172-.0582885742-.1790161133l-6.0623016357,7.4630126953c2.179397583,3.4849853516,5.6385040283,5.8900146484,9.5057983398,6.8219909668l2.379699707-8.7769775391c-2.5534973145-.7600097656-4.7404022217-2.6480102539-5.7649078369-5.3290100098h0Z" fill="#015538"/>
    <path d="M258.0225655864,155.4635598491c.5838012695,1.0520019531,1.3748016357,1.9909973145,2.3126983643,2.7539978027.4627990723.3840026855.9818115234.7239990234,1.499206543,1.0050048828l.2991027832.158996582c.067199707.0320129395.1318969727.0690002441.2001037598.0960083008.1335906982.0610046387.2681884766.1130065918.4019012451.1600036621l-7.1385955811,24.5439758301-.4601135254,1.5720214844c-.1391906738.458984375-.312713623.9060058594-.5184020996,1.3379821777-.4107971191.8630065918-.9519042969,1.6600036621-1.5971984863,2.3570251465-.3224029541.3489990234-.6705932617.6719970703-1.0404052734.9679870605l-1.283782959,1.0159912109-2.590713501,2.048034668-10.3636016846,8.1919555664-5.5025939941,4.5210266113-28.6220092773,23.5119934082c-.3024291992.2460021973-.3845214844.3269958496-.5778198242.4200134277-.174118042.0879821777-.3609008789.1499938965-.5540161133.1839904785-.3872680664.074005127-.7945556641.0100097656-1.1468353271-.1510009766-.7210845947-.3320007324-1.1829376221-1.1139831543-1.1144561768-1.908996582.0332641602-.3959960938.1781768799-.7560119629.4343261719-1.0780029297l1.4586181641-1.7950134277,2.9173583984-3.5919799805,11.6692199707-14.3659973145,4.4868164062-5.524017334,36.6062011719-46.8379821777c.3650970459-.516998291.5040893555-.949005127.466583252-1.2300109863l-.5902862549-.1010131836c.2805023193.1690063477.5177001953.0630187988.6470031738-.2319946289l.0653839111-.1489868164-.6558837891.0480041504c-.2830200195.0209960938-.6777038574.2460021973-1.1085205078.708984375l-38.3411865234,45.4289855957-4.4868011475,5.524017334-11.6692962646,14.3659973145-2.9172973633,3.591003418-1.4586791992,1.7960205078c-.716293335.8779907227-1.1777191162,2.0050048828-1.2622070312,3.150970459-.2136077881,2.3030090332,1.1602172852,4.6510314941,3.2700958252,5.5989990234,1.0450897217.4850158691,2.2355194092.6510314941,3.3678588867.4480285645.5661468506-.099029541,1.1181488037-.2830200195,1.6313934326-.5450134277.5078125-.240020752,1.0161895752-.6670227051,1.3064575195-.9109802246l28.584274292-23.4800415039,5.4953155518-4.5139770508,10.0341796875-8.5640258789,2.5089111328-2.141998291,1.2633972168-1.0799865723c.474395752-.4099731445.9172973633-.8550109863,1.324005127-1.3299865723.8139953613-.949005127,1.4809875488-2.0200195312,1.9726867676-3.1630249023.2462158203-.5719909668.449005127-1.1609802246.6064147949-1.7609863281l.4067993164-1.6119995117,6.6053924561-26.3720092773c-.3997955322-.1239929199-.7987060547-.2519836426-1.1985015869-.3889770508-.2034912109-.0620117188-.3854064941-.1480102539-.5771942139-.2220153809l-.2783050537-.1130065918-.1735992432-.0870056152c-.4640045166-.2289733887-.8851013184-.4839782715-1.2870025635-.7909851074-.8025970459-.6050109863-1.4927062988-1.3619995117-2.016998291-2.2269897461-.4841003418-.7220153809-.9403991699-1.0360107422-1.2763061523-.9140014648-.3144836426.1109924316-.4949951172.7279968262-.0330963135,1.674987793h0Z" fill="#1d1d1b"/>
  </g>
  <path d="M270.2264687846,159.5635659526l6.5970153809,213.9549865723.9281005859,25.7370147705,4.1275634766,114.4610137939h-31.0747680664l4.1274871826-114.4610137939.9281005859-25.7370147705,6.5971069336-213.9549865723c.0055999756-.0589904785-.0113067627-.1610107422.0121002197-.1789855957.0468902588.0289916992.0892944336.0549926758.1236877441.0759887695.3694152832.2179870605.7358093262.3529968262,1.1035003662.4290161133.1391143799.0269775391.4700012207.0959777832.7192077637.1259765625.2568969727.0310058594.4889068604.0429992676.6949005127.041015625.8267059326-.0130004883,1.2171936035-.2100219727,1.2158050537-.3630065918.0005950928-.1700134277-.383605957-.3030090332-1.0768127441-.5420227051-.1707000732-.0619812012-.3623962402-.1309814453-.575088501-.208984375-.2159118652-.0880126953-.3948059082-.1489868164-.7962036133-.3330078125-.6959991455-.3059997559-1.6520996094-.9819946289-2.6784057617-1.675994873-.0406951904.0230102539-.0910949707.049987793-.1468048096.0810241699-.0309906006.0849914551-.0218048096.2709960938-.0346832275.4129638672l-8.9058074951,215.9560394287-.9281158447,25.7369842529-4.2676849365,118.3460083008h38.850112915l-4.2676086426-118.3460083008-.9281005859-25.7380218506-8.9058074951-215.9550018311c-.0128936768-.1419677734-.0036010742-.3279724121-.0346984863-.4129638672-.0557098389-.031036377-.1060943604-.058013916-.1468963623-.0810241699-1.0263061523.6940002441-1.9824066162,1.3699951172-2.6782989502,1.675994873-.4015045166.1840209961-.5803070068.2449951172-.7963104248.3330078125-.2126922607.0780029297-.404296875.1470031738-.5749969482.208984375-.6931915283.2390136719-1.0773925781.3720092773-1.0767974854.5420227051-.0014038086.1529846191.3889923096.3500061035,1.2156982422.3630065918.2059936523.0019836426.43800354-.0100097656.6949005127-.041015625.2492980957-.0299987793.5800933838-.0989990234.7191925049-.1259765625.3677062988-.0760192871.7342071533-.2110290527,1.1036071777-.4290161133.0343017578-.0209960938.0768127441-.0469970703.1238098145-.0759887695.0233001709.0179748535.0063018799.1199951172.0119934082.1789855957h0Z" fill="#1d1d1b"/>
</svg>