<?xml version="1.0" encoding="UTF-8"?>
<svg id="Ebene_2" data-name="Ebene 2" xmlns="http://www.w3.org/2000/svg" viewBox="0 0 817.02 191.72">
  <defs>
    <style>
      .cls-1 {
        fill: #fff;
      }

      .cls-2 {
        fill: #fff282;
      }
    </style>
  </defs>
  <g id="Ebene_1-2" data-name="Ebene 1">
    <g>
      <g>
        <path class="cls-1" d="M2.62,122.28c-2.98-4.76-3.28-10.13-1.59-18.07l6.45-29.78c2.88-13.5,11.02-20.05,23.33-20.05,7.25,0,12.21,2.18,15.49,6.16,2.58,3.08,3.47,7.05,3.47,11.42,0,2.08-.2,4.27-.6,5.96h-14.3c.5-1.59.89-3.38.89-5.16,0-3.77-1.99-6.06-5.76-6.06-4.17,0-6.55,2.58-7.64,7.94l-7.05,33.16c-.79,3.67-.69,5.76.1,7.35,1.29,2.58,3.77,3.87,7.05,3.87,1.79,0,3.47-.4,4.67-1.09l3.67-17.37h-7.94l2.18-11.71h22.34l-7.54,35.04c-4.37,4.67-10.42,7.25-17.87,7.25-9.23,0-15.98-3.28-19.36-8.84Z"/>
        <path class="cls-1" d="M63.17,55.66h16.28c4.17,0,8.34.6,11.42,1.79,6.06,2.38,9.53,7.45,9.53,16.28,0,10.13-4.67,17.97-13.6,21.64l2.38,34.45h-14.69l-.99-32.26h-4.47l-6.85,32.26h-14.79l15.78-74.16ZM74.49,86.04c7.64,0,11.42-3.97,11.42-11.22,0-4.86-1.99-7.25-7.25-7.25h-3.28l-3.87,18.46h2.98Z"/>
        <path class="cls-1" d="M103.77,124.06c-2.98-3.97-4.17-9.53-2.08-18.96l10.82-49.44h14.89l-11.71,53.61c-.69,2.98-.79,4.96,0,6.45.89,1.69,2.38,2.78,4.96,2.78,3.57,0,5.56-2.28,6.55-6.75l12.21-56.09h14.59l-12.41,57.28c-2.58,12.11-9.83,18.17-21.54,18.17-7.35,0-13-2.68-16.28-7.05ZM117.47,44.55c.1-3.87,3.28-7.05,7.94-7.05,4.27,0,7.25,2.68,7.05,6.65-.1,3.97-3.18,6.95-7.74,6.95-4.17,0-7.45-2.68-7.25-6.55ZM137.42,44.55c.1-3.87,3.28-7.05,7.94-7.05,4.27,0,7.25,2.68,7.05,6.65-.1,3.97-3.18,6.95-7.74,6.95-4.17,0-7.45-2.68-7.25-6.55Z"/>
        <path class="cls-1" d="M163.93,55.66h16.58l4.17,44.38h.4l8.34-44.38h13.1l-15.98,74.16h-13.9l-5.06-48.54h-.4l-10.03,48.54h-13.3l16.08-74.16Z"/>
        <path class="cls-1" d="M216.54,55.66h35.14l-2.58,12.11h-20.35l-3.67,17.27h15.29l-2.28,11.81h-15.59l-4.37,20.85h20.55l-2.48,12.11h-35.54l15.88-74.16Z"/>
        <path class="cls-1" d="M270.64,55.66h14.69c-2.48,22.73-3.87,35.54-6.15,49.74h.4l17.97-49.74h13.6l-3.38,49.83h.4c3.28-12.61,7.94-27.1,15.19-49.83h14.2l-26.01,74.16h-15.59l2.38-44.97h-.4l-17.17,44.97h-15.78l5.66-74.16Z"/>
        <path class="cls-1" d="M351.94,55.66h18.46l-.79,74.16h-14.69l.6-15.88h-13.5l-6.15,15.88h-14.59l30.68-74.16ZM345.58,44.55c.1-3.87,3.28-7.05,7.94-7.05,4.27,0,7.25,2.68,7.05,6.65-.1,3.97-3.18,6.95-7.74,6.95-4.17,0-7.45-2.68-7.25-6.55ZM356.41,102.02l1.59-29.38h-.4l-11.32,29.38h10.13ZM365.54,44.55c.1-3.87,3.28-7.05,7.94-7.05,4.27,0,7.25,2.68,7.05,6.65-.1,3.97-3.18,6.95-7.74,6.95-4.17,0-7.45-2.68-7.25-6.55Z"/>
        <path class="cls-1" d="M392.04,55.66h14.79l-6.35,29.38h12.61l6.35-29.38h14.79l-16.08,74.16h-14.79l7.05-32.36h-12.61l-7.05,32.36h-14.79l16.08-74.16Z"/>
        <path class="cls-1" d="M444.26,55.66h14.79l-13.1,61.65h19.56l-2.58,12.51h-34.55l15.88-74.16Z"/>
        <path class="cls-1" d="M485.75,55.66h35.14l-2.58,12.11h-20.35l-3.67,17.27h15.29l-2.28,11.81h-15.59l-4.37,20.85h20.55l-2.48,12.11h-35.54l15.88-74.16Z"/>
        <path class="cls-1" d="M529.13,55.66h16.58l4.17,44.38h.4l8.34-44.38h13.1l-15.98,74.16h-13.9l-5.06-48.54h-.4l-10.03,48.54h-13.3l16.08-74.16Z"/>
        <path class="cls-1" d="M566.85,122.57c0-5.06,3.87-8.83,8.84-8.83s8.44,3.67,8.44,8.44c0,5.06-3.77,8.84-8.74,8.84s-8.54-3.67-8.54-8.44ZM582.24,55.66h15.19l-13.1,52.22h-12.41l10.32-52.22Z"/>
      </g>
      <path class="cls-2" d="M817.02,83.82c-.07-.5-1.32-.94-2.16-1.63-2.84-2.37-12.99-12.36-32.96-11.71-2.53.08-4.84.32-6.93.68,4.25-1.38,6.45-2.21,7.73-2.72,1.55-.61,11.74-4.11,17.23-22.01.47-1.53,1.79-5.22,1.46-5.5-.4-.35-3.83.27-7.29,2.38-3.48,2.11-15.15,3.96-16.54,4.18-.82.13-4.24-.39-9.36,2.3,5.77-5.93,11.89-14.35,13.54-26.18.79-5.67.46-7.98.21-7.97-.34.02-.53.03-.96.15-1.29.38-2.58,1.47-6.83,4.31-4.25,2.84-8.75,5.99-8.75,5.99,0,0,1.54-15.44,1.06-15.8-.47-.35-9.24-.27-22.7,14.72,0,0,1.53-12.84-1-17.68,0,0-.7-3.51-1.25-5.34-.27-.91-.99-1.88-1.11-1.8-.14.1-1.33.29-3.24,2.49-2.97,3.4-16.77,7.56-19.05,25.41-1.73-7.2-5.4-16.84-14.45-21.72-5.11-5.01-7.39-6.5-7.65-6.37-.23.12-.13,2.35-.91,7.36-.88,5.62-1.66,7.4-1.66,7.4,0,0-9.49-8.35-9.73-8.59-.45-.44-6.23,17.89-4.53,27.03,0,0-3.01-2.33-8.47-5.13-6.2-3.19-16.65-3.74-16.57-3.25.13.83,8.81,17.79,12.46,23.75,0,0-23.39-4.02-22.99-2.55.14.48.7,1.4,1.62,5.3,0,0-9.18-.2-9.07.56.13.85,6.96,12.14,7.49,12.75,0,0-7.1,1.37-8.6,1.46-1.02.06,4.74,15.96,20.54,19.94,2.39.6,4.69,1.05,6.89,1.36-5.17-.1-10.9.98-17.48,3.42,0,0-3.81,1.48-5.83,3.07-2.01,1.6-12.04,3.29-12.53,4.75.24,1.07,12.25,9.29,12.25,9.29,0,0-7.04,3.43-7.52,4.08-.33.45-.6.85-.51.98.08.12.56.68,1.78,1.44,2.81,1.75,27.86,4.36,29.4,3.75,1.54-.61-13.61,16.41-13.84,24.98,0,0,2.48.18,3.88.3,1.08.08-4.56,10.73-3.54,10.68,6.81-.28,18.09-6.87,20.21-8.39,2.12-1.51,5.02-3.76,5.79-4.49.78-.73-4.94,9.5-2.6,18.49,0,0,.74,6.98.78,8.39.03,1.4,2.02,1.41,2,2.35-.02,1.15,5.52-4.37,8.14-6.5,2.62-2.12,6.19-6.21,7.91-8.92,1.72-2.69.19,21.14-.51,25.72-.23,1.49.11,1.64.34,2.13.07.15,2.52-1.86,3.3-2.38,1.15-.76,13.1-16.83,13.86-20.85,0,0,6.37,27.99,8.53,30.99.47.65.86,1.37,1.18.87.63-1,1.58-3.61,2.3-3.83.92-.28,3.61-.62,5.03-4.61,1.42-3.99,3.96-7.89,5.16-18.25,0,0,13.55,17.27,15.3,18.87.7.64,4.38-5.48,6-15.31,1.63-9.84-1.87-23.05-4.08-23.51,0,0-.92-1.45,1.64-.53,1.46.53,7.1,10.31,20.1,17.74,2.19,1.25,6.84,1.27,6.87,1.19,1.04-2.92-9.16-29.61-9.16-29.61,0,0,.25-.31,2.31.53,2.05.85,21.53,13.44,33.35,7.53,2.39-1.19,2.53-1.44,2.53-1.44,1.35-5.82-9.06-16.83-15.44-21.82,0,0,16.78-.68,19.36-5.14,0,0,3.09-1.11,4.69-3.32.28-.39-1.81-4.22-4.23-5.9-6.34-4.39-7.71-6.05-7.71-6.05,0,0,1.77-2.14,4.33-2.94,2.56-.81,10.83-5.91,8.62-8.42,0,0,2.67-2.32,2.57-2.92M762.7,83.49c-2.6.43-9.26.58-3.12,5.84,0,0,1.13.08-1.89,1.87-3.03,1.79,6.75,2.85,7.91,4.15,1.16,1.3-9.7-.12-9.48,3.14.21,3.27-1.86,1.21,5.34,8.9,0,0-4.33-1.01-4.83-.4-.51.62,9.49,8.9,9.42,11.25,0,0-2.03,1.41-2.9.18-.87-1.24-6.9-7.92-7.88-8.12-.73-.14-2.15.2-2.8,1.49,0,0,2.64,6.15,1.82,6.32-.83.17-4.96-2.74-4.96-2.74,0,0-2.71,1.19-1.82,3.64.88,2.45,8.24,10.8,7.82,11.31,0,0-.62,1.38-1.58,1.28-.94-.1-6.04-9.31-7.29-9.67-1.26-.35,1.46,8.61,1.46,8.61,0,0-4.59-4.83-5.81-5.84-1.22-1.02-1.4,1.07-1.4,1.07l1.33,10.23s-14.31-21.33-10.81,4.1c0,0-.33,1.44-.8,1.39-.48-.05-3.52-8.42-3.17-10.7.36-2.29-2.51,6.34-2.51,6.34,0,0-4.48-17.82-13.78.44,0,0-.65-6.9-2.08-8.08-1.42-1.18-2.61-1.82-2.97-1.6-.35.22-3.65,3.35-4.93,3.66-1.28.3,1.02-4.14-.88-5.38,0,0,.17-1.23-.94-3.01-1.11-1.78-2.17-1.11-8.58,5.78,0,0,2.68-6.54,2.65-8.81-.02-2.26-2.51-2.77-2.51-2.77,0,0-4.66,3.54-6.01,3.11-1.36-.44,2.23-4.78,2.29-5.98.02-.38-.52-.23-.52-.23,0,0-.56-.4-5.24,2.33l-7.59,4.83c-.55-.34-1.3-.28-1.07-2.08.06-.52,14.17-7.15,13.54-7.85-.63-.69-5.34-1.85-5.34-1.85,0,0,2.96-3.57,2.07-3.96-.88-.38-7.32-.91-7.32-.91,0,0-1.12-1.77-.88-1.42.21.35,6.3-.96,6.3-.96l-4.06-3.19s10.27-1.81,1.2-7.26c-3.35-2.02-6.86-3.4-10.64-4.08,9.67.48,16.06-1.97,14.97-5.51,0,0-.31-1.29-9.95-4.81,0,0,.27-1.15.91-1.3.65-.15,10.67,3.51,9.96,2.93-.72-.6-4.38-4.67-3.72-4.64.66.03,5.37,2.02,6.93.56,1.49-1.4,2.43-3.98,3.42-4.54.98-.56-2.62-3.89,2.13-2.36,0,0,3.22-1.81.68-4.77-2.54-2.97-10.58-12.47,2.54-.99,3.14,2.75,10.98-5.62,10.34-10.18,0,0,3.14,3.16,3.8,3.5.66.34,5.05.86,6.05-.66.46-.7-1.61-7.18-.28-10.04,0,0,.56-.05,1.09.55.53.61.59,7.37,2.97,8.66,0,0,2.68-1.57,3.13-2.74.45-1.17-.73,7.31,7.3,3.65,0,0,3.9-3.47,5.03-3.57,1.11-.11-.84,4.12.15,5.62.99,1.51,4.28,2.52,5.33.63,1.05-1.88,6.06-5.64,6.45-5.49.39.15-2.55,7.99-2.88,8.76-.49,1.12-.83,2.78-.83,2.78,0,0,.38,2.19,3.12,2.79,0,0,5.16-3.02,10.53-6.93-.56.68-1.13,1.38-1.71,2.13,0,0-6.95,7.14-6.95,8.17,0,1.03,2.39,3.36,4.33,2.04,1.95-1.31,6.65-3.26,7.06-2.92.41.34,1.16,1.3.18,1.87-.98.56-6.45,3.42-6.45,3.42,0,0,6.25.43,13.89-1.12-8.27,3.36-11.14,8.47-11.07,8.95.24,1.64,13.1-1.69,13.45-.88,1.85,4.19-4.07,1.6-6.67,2.04"/>
    </g>
  </g>
</svg>