<?xml version="1.0" encoding="utf-8"?>
<!-- Generator: Adobe Illustrator 27.8.0, SVG Export Plug-In . SVG Version: 6.00 Build 0)  -->
<svg version="1.1" id="Ebene_2_00000023980450513253174500000016098056461438180780_"
	 xmlns="http://www.w3.org/2000/svg" xmlns:xlink="http://www.w3.org/1999/xlink" x="0px" y="0px" viewBox="0 0 102.2 74.6"
	 style="enable-background:new 0 0 102.2 74.6;" xml:space="preserve">
<style type="text/css">
	.st0{fill:#FFFFFF;}
	.st1{fill:#009D3A;}
</style>
<polygon class="st0" points="80.3,36.1 102.2,13.6 80.3,3.8 80.3,10 60.5,14.3 60.5,0 0,12.9 0,48 17.7,44.3 17.7,74.6 71.8,63.1 
	71.8,31.3 80.3,29.5 "/>
<g>
	<path class="st1" d="M5.7,17.2l4.7-1l0,9.8l4-0.9l0-9.8l4.7-1L19,39l-4.7,1l0.1-10.8l-4,0.9l-0.1,10.8l-4.7,1
		C5.6,41.9,5.7,17.2,5.7,17.2z"/>
	<path class="st1" d="M22,13.7l4.7-1v24.7l-4.7,1L22,13.7L22,13.7z"/>
	<path class="st1" d="M29.7,12.1l11.2-2.4v4l-6.5,1.4v5.8l4.9-1l0.1,3.9l-5,1.1l0,6.9l6.5-1.4l0,4l-11.3,2.4L29.7,12.1L29.7,12.1z"
		/>
	<path class="st1" d="M43.1,9.2l5.2-1.1C49.6,7.8,51,7.7,52,7.9c2.1,0.4,3.5,1.7,4.1,4.5c0.7,3.2-0.3,6-2.9,7.8l3.1,10.8l-4.7,1
		l-2.5-10.2l-1.4,0.3v10.7l-4.7,1V9.2z M48.8,18.1c2.4-0.5,3.4-2,2.9-4.3c-0.3-1.6-1.1-2.2-2.8-1.8l-1,0.2l0,6.1L48.8,18.1
		L48.8,18.1z"/>
</g>
<g>
	<path class="st1" d="M22.9,43.6l4.7-1c0.8,7.4,1.2,11.6,1.4,16.3l0.1,0l2.4-17.1l4.3-0.9L38.1,57l0.1,0c0.2-4.2,0.7-9.2,1.5-16.9
		l4.5-1L41,64.5l-5,1.1l-2.3-14.5l-0.1,0l-2.4,15.5l-5,1.1L22.9,43.6L22.9,43.6z"/>
	<path class="st1" d="M46.2,38.7l4.7-1v24.7l-4.7,1L46.2,38.7L46.2,38.7z"/>
	<path class="st1" d="M53.8,37.1L59,36c1.3-0.3,2.7-0.4,3.8-0.2c2.1,0.3,3.5,1.7,4.1,4.5c0.7,3.2-0.3,6-2.9,7.8l3.1,10.8l-4.7,1
		l-2.5-10.2L58.5,50v10.7l-4.7,1L53.8,37.1L53.8,37.1z M59.5,46c2.4-0.5,3.4-2,2.9-4.3c-0.3-1.5-1.1-2.2-2.8-1.8l-1,0.2l0,6.2
		L59.5,46L59.5,46z"/>
</g>
<g>
	<path class="st1" d="M60.7,17.8l5.6-1.2v2.1L63,19.3v3l2.5-0.5v2L63,24.3v5.4l-2.4,0.5L60.7,17.8L60.7,17.8z"/>
	<path class="st1" d="M68.2,27.6c-0.6-0.5-1-1.4-1-3l0.1-5.6l2.4-0.5l-0.1,6.3c0,0.5,0,0.8,0.2,1c0.2,0.2,0.5,0.4,0.9,0.3
		c0.6-0.1,0.8-0.5,0.8-1.3l0.1-6.7l2.3-0.5l-0.1,6.9c0,2-1,3.2-2.8,3.6C69.8,28.4,68.8,28.2,68.2,27.6z M67.7,17.1
		c-0.1-0.6,0.3-1.2,1-1.4c0.7-0.1,1.2,0.2,1.3,0.8c0.1,0.6-0.3,1.2-1,1.4C68.4,18.1,67.8,17.8,67.7,17.1L67.7,17.1z M70.9,16.4
		c-0.1-0.6,0.3-1.2,1-1.4c0.7-0.1,1.2,0.2,1.4,0.8c0.1,0.6-0.3,1.2-1,1.4C71.6,17.4,71,17.1,70.9,16.4L70.9,16.4z"/>
	<path class="st1" d="M75.2,14.7l2.6-0.6c0.7-0.1,1.4-0.2,1.9-0.1c1.1,0.2,1.8,0.9,2.1,2.3c0.3,1.6-0.1,3-1.4,3.9l1.6,5.4l-2.3,0.5
		L78.3,21l-0.7,0.1v5.4l-2.4,0.5L75.2,14.7L75.2,14.7z M78.1,19.1c1.2-0.3,1.7-1,1.4-2.2c-0.2-0.8-0.6-1.1-1.4-0.9l-0.5,0.1v3.1
		L78.1,19.1L78.1,19.1z"/>
	<path class="st1" d="M83,23.5c-0.3-0.5-0.5-1.3-0.6-2.2l2.3-0.5c0,0.3,0,0.6,0.1,1c0.2,0.9,0.6,1.3,1.4,1.1
		c0.7-0.1,0.9-0.7,0.8-1.4c-0.1-0.6-0.4-0.9-1.2-1.5l-0.9-0.7c-1.1-0.9-1.7-1.7-2-2.8c-0.4-1.9,0.3-3.7,2.7-4.2
		c1.2-0.3,2.1-0.1,2.7,0.5c0.7,0.6,1,1.4,1.1,2.6l-2.3,0.5c0-0.2,0-0.5-0.1-0.7c-0.2-0.7-0.6-1-1.1-0.9c-0.7,0.1-0.9,0.7-0.8,1.4
		c0.1,0.5,0.4,0.9,1.1,1.5l1,0.8c1.2,1,1.8,1.6,2,2.7c0.4,2-0.3,3.7-2.6,4.2C84.9,25.2,83.7,24.7,83,23.5L83,23.5z"/>
</g>
</svg>
