<?xml version="1.0" encoding="UTF-8"?>
<svg id="Wortmarke" xmlns="http://www.w3.org/2000/svg" version="1.1" viewBox="0 0 284.5 120">
  <defs>
    <style>
      .cls-1 {
        fill: #f5f1e9;
      }

      .cls-1, .cls-2 {
        stroke-width: 0px;
      }

      .cls-2 {
        fill: #005538;
      }
    </style>
  </defs>
  <polygon class="cls-1" points="189.7 60 0 60 12.8 0 202.5 0 189.7 60"/>
  <polygon class="cls-1" points="284.5 59 53.4 59 40.7 119 271.8 119 284.5 59"/>
  <g>
    <path class="cls-2" d="M177.1,40.9c-2.8,0-4.8,2.2-4.8,4.6,0,1.3.8,2.8,2.3,3.2-.5,1.4-1.9,1.7-3.7,1.7l-.8,3.7c8.4,0,10.9-5.3,10.9-8.8,0-2.3-1-4.4-4-4.4Z"/>
    <polygon class="cls-2" points="168.7 11.3 162.8 39 163.2 11.3 153.7 11.3 145.7 48.8 152.8 48.8 158.8 20.6 158.6 48.8 168 48.8 176 11.3 168.7 11.3"/>
    <polygon class="cls-2" points="138.3 17.6 148.6 17.6 150 11.3 132.4 11.3 124.4 48.8 142 48.8 143.3 42.4 133 42.4 135.2 32 144 32 145.2 25.8 136.5 25.8 138.3 17.6"/>
    <polygon class="cls-2" points="121 11.3 117.7 27 111.4 27 114.7 11.3 107.3 11.3 99.3 48.8 106.7 48.8 110 33.4 116.3 33.4 113 48.8 120.2 48.8 128.2 11.3 121 11.3"/>
    <path class="cls-2" d="M90.6,39.1c-.5,2.2-2.6,3.9-4.8,3.9s-3.1-1.3-3.1-3c0-.3,0-.6,0-.9l3.8-18.1c.5-2.1,2.5-4,4.7-4s3.2,1.4,3.2,3.2c0,.2,0,.5,0,.8l-.9,4.2h7.3l.7-3.3c.2-.8.3-1.6.2-2.3,0-5.1-3.6-9-9.1-9s-12.4,5.1-13.7,11.3l-3.4,16.2c-.2.8-.2,1.6-.2,2.4,0,5,3.8,8.8,9.2,8.8s12.4-5,13.7-11.2l.7-3.5h-7.3l-.9,4.4Z"/>
    <path class="cls-2" d="M61.7,11.3l-16,37.5h7.2l4.3-10.9h7.8l-.3,10.9h7.3V11.3h-10.2ZM65.2,31.6h-5.5l5.8-14.2-.3,14.2Z"/>
    <polygon class="cls-2" points="40 11.3 30.3 40 32.9 11.3 21.8 11.3 13.8 48.8 20.7 48.8 27.3 17.9 24.9 48.8 32 48.8 42.6 18.2 36.1 48.8 42.9 48.8 50.9 11.3 40 11.3"/>
  </g>
  <g>
    <path class="cls-2" d="M260.1,99.4c-3.3,0-5.5,2.6-5.5,5.7,0,1.8,1.3,3.2,3.6,3.2,3.5,0,5.5-2.8,5.5-5.7,0-2-1.3-3.2-3.6-3.2Z"/>
    <polygon class="cls-2" points="261.5 76.7 262.9 70.3 243.3 70.3 241.9 76.7 248.1 76.7 241.5 107.8 248.8 107.8 255.4 76.7 261.5 76.7"/>
    <polygon class="cls-2" points="233.9 70.3 226.6 70.3 218.6 107.8 236.8 107.8 238.2 101.4 227.3 101.4 233.9 70.3"/>
    <polygon class="cls-2" points="215.2 70.3 211.9 86 205.6 86 208.9 70.3 201.5 70.3 193.5 107.8 200.9 107.8 204.2 92.4 210.5 92.4 207.2 107.8 214.4 107.8 222.4 70.3 215.2 70.3"/>
    <path class="cls-2" d="M196,64c0-1.5-.9-2.9-2.8-2.9s-4.3,2-4.3,4.2c0,1.5,1,2.8,2.9,2.8s4.2-2.1,4.2-4.1Z"/>
    <path class="cls-2" d="M181.3,68.2c2.3,0,4.3-2.1,4.3-4.1,0-1.5-.9-2.9-2.8-2.9s-4.4,2-4.4,4.2c0,1.5,1.1,2.8,2.9,2.8Z"/>
    <path class="cls-2" d="M164.9,107.8h7.2l4.3-10.9h7.8l-.3,10.9h7.3v-37.5s-10.2,0-10.2,0l-16,37.5ZM184.3,90.6h-5.5l5.8-14.2-.3,14.2Z"/>
    <polygon class="cls-2" points="169.2 76.3 170.5 70.3 151.1 70.3 149.7 76.6 161.1 76.6 144.4 101.6 143.1 107.8 162.5 107.8 163.9 101.3 152.4 101.3 169.2 76.3"/>
    <path class="cls-2" d="M129.9,69.6c-7.7,0-12.3,6-12.3,12.6,0,5.8,4.7,8.8,7,10.1,1.7,1,3.2,2.1,3.2,4,0,2.4-1.2,5.5-4.6,5.5s-2.8-1.5-2.8-3c0-.4,0-.7,0-1l.2-1.2h-6.5l-.2,1.2c-.2.9-.3,1.7-.3,2.5,0,4.8,3.1,8,8,8,7.2,0,12.6-6,12.6-13.2,0-4.3-2.5-6.8-6.3-9-1.7-1-4-2.7-4-5.2,0-1.7,1.1-4.8,4.4-4.8s2.5.9,2.5,2.9c0,.7-.1,1.6-.3,2.6h6.5c.3-1.3.4-2.6.4-3.7,0-5.2-2.8-8.2-7.8-8.2Z"/>
    <path class="cls-2" d="M100.6,70.3l-16,37.5h7.2l4.2-10.9h7.8l-.3,10.9h7.3v-37.5h-10.2ZM104,90.6h-5.5l5.8-14.2-.3,14.2Z"/>
    <polygon class="cls-2" points="84.9 70.3 75.9 101.2 79.9 70.3 71.7 70.3 62.3 101.7 66.6 70.3 59.4 70.3 55.1 107.8 65.1 107.8 74.5 76.2 70.5 107.8 80.4 107.8 92.2 70.3 84.9 70.3"/>
  </g>
</svg>