<svg width="56" height="56" viewBox="0 0 56 56" fill="none" xmlns="http://www.w3.org/2000/svg">
<rect width="56" height="56" rx="28" fill="#154194"/>
<rect x="18" y="12" width="7" height="7" rx="3.5" fill="#B16FAB"/>
<rect x="30" y="12" width="7" height="7" rx="3.5" fill="#B16FAB"/>
<path d="M13.5 25.5V39.5C13.5 40.7 14.5 41 15 41H19.5V27.5C19.3333 27 19.6 26 22 26C24.4 26 25 27 25 27.5V39.5C25 40.7 26 41 26.5 41H30.5V27.5C30.8333 27 31.9 26 33.5 26C35.1 26 35.8333 27 36 27.5V39.5C36 40.7 37 41 37.5 41H42V39.5V25.5C42 24 38.6 21.5 35 21.5C31.4 21.5 29 22.5 28 23.5C27.5 23 26 21.5 22.5 21.5C17 21.5 13.5 24 13.5 25.5Z" fill="#F4F5F6"/>
</svg>
