<?xml version="1.0" encoding="UTF-8" standalone="no"?>
<!-- Created with Inkscape (http://www.inkscape.org/) -->

<svg
   width="100"
   height="100"
   viewBox="0 0 26.458333 26.458333"
   version="1.1"
   id="svg1"
   xml:space="preserve"
   inkscape:version="1.4 (1:1.4+202410161351+e7c3feb100)"
   sodipodi:docname="pixabay.svg"
   xmlns:inkscape="http://www.inkscape.org/namespaces/inkscape"
   xmlns:sodipodi="http://sodipodi.sourceforge.net/DTD/sodipodi-0.dtd"
   xmlns="http://www.w3.org/2000/svg"
   xmlns:svg="http://www.w3.org/2000/svg"><sodipodi:namedview
     id="namedview1"
     pagecolor="#ffffff"
     bordercolor="#666666"
     borderopacity="1.0"
     inkscape:showpageshadow="2"
     inkscape:pageopacity="0.0"
     inkscape:pagecheckerboard="0"
     inkscape:deskcolor="#d1d1d1"
     inkscape:document-units="mm"
     inkscape:zoom="0.91579686"
     inkscape:cx="396.37611"
     inkscape:cy="561.80582"
     inkscape:window-width="2044"
     inkscape:window-height="1336"
     inkscape:window-x="934"
     inkscape:window-y="32"
     inkscape:window-maximized="0"
     inkscape:current-layer="layer1" /><defs
     id="defs1" /><g
     inkscape:label="Ebene 1"
     inkscape:groupmode="layer"
     id="layer1"><path
       style="fill:#52b312;fill-opacity:1;stroke-width:0.195724"
       d="M 12.253933,26.432039 C 7.9188464,26.09681 4.0373101,23.68075 1.820826,19.937955 0.13207491,17.0863 -0.41150812,13.619695 0.31406372,10.328849 1.4019186,5.3948578 5.395072,1.4017046 10.329062,0.31384972 c 1.897963,-0.41846627 3.902002,-0.41846627 5.799964,0 4.478374,0.98739948 8.208612,4.36301288 9.65879,8.74055598 0.749938,2.2637833 0.87393,4.7262793 0.356211,7.0744063 -0.907742,4.117087 -3.901728,7.690458 -7.804433,9.314719 -1.869332,0.777997 -4.107211,1.1415 -6.085661,0.988508 z M 6.7040847,18.126358 v -1.782789 l 1.670079,-0.0213 c 1.8636983,-0.02378 1.9564983,-0.03756 2.7057873,-0.402012 0.85389,-0.415326 1.523777,-1.068879 1.964552,-1.916644 0.65754,-1.264686 0.685121,-2.88541 0.07,-4.113111 C 12.207956,8.0811704 10.207893,7.1203598 8.2985954,7.5769846 6.727775,7.9526598 5.5922022,9.0575629 5.0885435,10.700338 c -0.1160216,0.378425 -0.116362,0.390554 -0.1327076,4.725737 -0.00901,2.390488 -0.00458,4.377106 0.00985,4.414706 0.020268,0.05281 0.2209587,0.06837 0.8823183,0.06837 h 0.8560845 z m 0,-5.069266 c 0,-0.826121 0.024426,-1.600536 0.055945,-1.77365 0.1669872,-0.917172 0.9336953,-1.7141871 1.8881596,-1.9627945 0.8687942,-0.2262906 1.7662587,0.051427 2.4259087,0.7506895 0.384936,0.408054 0.5707,0.75948 0.68424,1.294444 0.236926,1.11631 -0.343282,2.375309 -1.323369,2.871593 -0.5217734,0.264209 -0.6949632,0.286089 -2.2643994,0.286089 H 6.7040847 Z m 8.6481603,2.255833 c 0.547878,-0.760222 1.920039,-2.615813 1.992494,-2.694471 0.0075,-0.0082 0.535205,0.812377 1.17263,1.823427 l 1.158959,1.838277 0.91919,0.002 c 0.505556,0.0012 0.919192,-0.0054 0.919192,-0.01439 0,-0.009 -0.719424,-1.027311 -1.598718,-2.262892 l -1.598718,-2.246514 1.417603,-2.1259185 1.417602,-2.1259207 -0.864393,-0.01425 c -0.649678,-0.010706 -0.879281,0.00214 -0.924321,0.051787 -0.03296,0.036315 -0.473741,0.7767828 -0.979514,1.645482 -0.505773,0.8687012 -0.950344,1.6118082 -0.987936,1.6513482 -0.08292,0.08721 -0.148726,-0.0012 -1.462248,-1.9620607 l -0.919219,-1.3723134 -1.077936,-0.014014 -1.077938,-0.014014 1.427885,2.1224954 c 0.785336,1.1673747 1.427884,2.1364567 1.427884,2.1535177 0,0.01707 -0.710754,1.030045 -1.579455,2.251071 -0.868699,1.221027 -1.579454,2.233214 -1.579454,2.249303 0,0.01609 0.471895,0.02899 1.048654,0.02866 l 1.048655,-5.82e-4 z"
       id="path1" /></g></svg>
