<?xml version="1.0" encoding="UTF-8" standalone="no"?>
<svg
   height="100%"
   style="fill-rule:evenodd;clip-rule:evenodd;stroke-linejoin:round;stroke-miterlimit:2;"
   version="1.1"
   viewBox="0 0 512 512"
   width="100%"
   xml:space="preserve"
   id="svg1"
   xmlns="http://www.w3.org/2000/svg"
   xmlns:svg="http://www.w3.org/2000/svg"><defs
     id="defs1" /><path
     id="path1"
     style="fill:#ffffff"
     d="M 62.554688 0 C 28.029722 0 0 28.030722 0 62.554688 L 0 449.44531 C 0 483.96928 28.030722 512 62.554688 512 L 449.44531 512 C 483.96928 512 512 483.96928 512 449.44531 L 512 62.554688 C 512 28.030722 483.97028 0 449.44531 0 L 62.554688 0 z M 163.5918 81.828125 L 163.5918 427.64648 L 126.85156 427.64648 L 126.85156 144.51562 L 95.851562 162.42773 L 77.251953 131.88672 L 163.5918 81.828125 z M 434.74805 81.828125 L 434.74805 427.64648 L 398.00781 427.64648 L 398.00781 144.51562 L 367.00781 162.42773 L 348.4082 131.88672 L 434.74805 81.828125 z M 279.99609 191.13086 C 287.49722 191.13086 293.92721 193.81002 299.28516 199.16797 C 304.79619 204.52591 307.55078 210.87852 307.55078 218.22656 C 307.55078 226.03385 304.87162 232.6921 299.51367 238.20312 C 294.15573 243.56107 287.6503 246.24023 279.99609 246.24023 C 272.64805 246.24023 266.29545 243.56107 260.9375 238.20312 C 255.57955 232.6921 252.90039 226.03385 252.90039 218.22656 C 252.90039 210.87852 255.57955 204.52591 260.9375 199.16797 C 266.29545 193.81002 272.64805 191.13086 279.99609 191.13086 z M 279.99609 375.75 C 287.6503 375.75 294.15573 378.42916 299.51367 383.78711 C 304.87162 389.14505 307.55078 395.57505 307.55078 403.07617 C 307.55078 410.42421 304.79619 416.77682 299.28516 422.13477 C 293.92721 427.49271 287.49722 430.17188 279.99609 430.17188 C 272.64805 430.17188 266.29545 427.49271 260.9375 422.13477 C 255.57955 416.77682 252.90039 410.42421 252.90039 403.07617 C 252.90039 395.57505 255.57955 389.14505 260.9375 383.78711 C 266.29545 378.42916 272.64805 375.75 279.99609 375.75 z " /></svg>
